<?xml version="1.0" encoding="utf-8"?>
<!-- Generator: Adobe Illustrator 27.9.1, SVG Export Plug-In . SVG Version: 6.00 Build 0)  -->
<svg version="1.1" id="Layer_1" xmlns="http://www.w3.org/2000/svg" xmlns:xlink="http://www.w3.org/1999/xlink" x="0px" y="0px"
	 viewBox="0 0 250 250" style="enable-background:new 0 0 250 250;" xml:space="preserve">
<style type="text/css">
	.st0{fill:#FDCF23;}
	.st1{fill:#232121;}
	.st2{fill:#8E1830;}
	.st3{fill:#FB751E;}
	.st4{fill:#B21F36;}
	.st5{fill:#6C2009;}
	.st6{fill:#F9F9F9;}
	.st7{fill:#4F1304;}
	.st8{fill:#F3F3F3;}
	.st9{fill:#A33F1F;}
	.st10{fill:#D6D5D2;}
	.st11{fill:#FAFAFA;}
	.st12{fill:#FDDE23;}
</style>
<g>
	<g>
		<path class="st0" d="M22,71.9c0.6-1.6,1.1-2.9,1.6-4.1c6.6-14.6,16-27.1,28.7-37.1c15.3-12,32.5-19.3,51.8-21.4
			c21.8-2.4,42.1,2.2,61.1,13c5.2,3,10.1,6.5,14.7,10.4c0.7,0.6,1,1.1,0.8,2.1c-0.5,2.9-1,5.8-0.8,8.7c0,0.5-0.2,0.9-0.4,1.3
			c-2.1,2.8-2.4,5.9-0.9,9.1c0.6,1.2-0.3,1.6-0.9,2.2c-3.3,2.6-6.6,5.1-9.8,7.7c-7.3,5.9-13.9,12.4-18.5,20.6
			c-3.3,5.8-4.6,12.3-5.9,18.8c-0.9,4.3-1.8,8.6-3.1,12.9c-0.7-2.2-1.4-4.3-2.1-6.5c-1-3-2.5-6-3.3-9c-1.1-4-2.6-7.9-3.9-11.8
			c-1.9-5.5-4.2-10.9-6.7-16.2c-0.4-0.9-0.5-1.6-0.2-2.5c1-3.5,1.3-7,0.6-10.6c-2.2-10.6-14.8-12.8-21.8-6.9
			c-0.9,0.7-1.9,1.4-2.4,2.4c-1.2,2.1-2.9,1.8-4.6,1c-5.1-2.2-10.1-1.7-14.9,0.9c-1.9,1-3.5,2.4-4.9,4.1c-0.7,0.8-1.4,1.2-2.5,0.9
			c-8.3-2.7-15.3,0.1-21.6,5.5c-0.5,0.4-1,0.9-1.5,1.2c-2.1,1.2-4,2-6.7,0.4c-6.5-3.8-14.6-3.7-20.8,2.3
			C22.7,71.4,22.5,71.5,22,71.9z"/>
		<path class="st1" d="M128.7,103.7c2-0.3,2.9,0.8,3.5,2.5c3.5,10,6.2,20.1,8.9,30.3c0.1,0.4,0,0.8,0.6,1.2
			c0.5-3.9,0.9-7.8,1.6-11.6c2.1-11.5,4-23.1,7.5-34.3c2.1-6.8,6.5-12.2,11.4-17.3c5.5-5.7,11.9-10.3,18.2-14.9
			c1.6-1.2,3-2.5,3.7-4.5c0.3-0.7,0.2-0.9-0.4-1.4c-2.4-2.1-2.2-5.3,0.3-7.4c0.3-0.3,0.7-0.4,0.6-1.1c-0.8-5.4,0.3-10.6,2.1-15.6
			c1.3-3.4,4.3-5,7.8-5c11.8,0,23.4,1.6,34.5,5.7c1.1,0.4,2.2,1,3.2,1.7c2,1.3,3.1,3.3,3,5.7c-0.1,5-1.2,9.9-3.1,14.6
			c-0.2,0.5-0.5,0.8-0.2,1.4c1.7,3.1,0.7,6-2.6,7.4c-1.4,0.6-1.5,1.3-1.2,2.5c0.6,2.3,1.8,4.3,3.1,6.2c5.1,7.9,9.4,16.3,12.7,25.1
			c2.7,7.3,3,14.5,1.2,22.1c-3.5,14.6-7.2,29.2-10.7,43.9c-1.6,6.7-4,13.1-7.3,19.2c-3.5,6.6-5.8,13.7-5.6,21.4
			c0.1,4.1,1.2,8,1.8,12c1.1,7.2,1.1,14.3-1.6,21.1c-3.5,9.2-11.3,14.1-20.8,13.1c-4.3-0.5-8.2-2.2-11.3-5.3
			c-0.7-0.7-1.2-0.5-1.8-0.1c-2.6,1.5-5.3,2.5-8.2,3.1c-8.6,1.7-15.4-1.4-20.9-7.9c-0.6-0.7-1-1-2-0.8c-7.6,2.2-14.1-0.2-18.6-6.8
			c-0.2-0.2-0.3-0.5-0.5-0.7c-4.6,5.2-10.3,5.6-16.4,4.3c-1-0.2-2.1-0.6-3.1-0.8c-3.3-0.7-6-0.2-8.4,2.5c-5.3,6.1-11.8,7.7-19.4,4.9
			c-3.4-1.3-6-0.6-8.5,2.1c-3.8,4.2-8.3,6.7-14.3,5.7c-2.1-0.3-3.9-1.4-5.7-2.5c-2.1-1.2-4.2-1.2-6.2,0.2c-1.3,0.9-2.5,2-3.8,2.9
			c-2.7,1.9-5.7,3-9.1,2.2c-3.3-0.8-5.2-3-5.4-6.4c-0.2-3.9,0.8-7.6,1.7-11.3c0.3-1.4,0.2-2.6-0.5-3.8C32.7,218,28.9,206,25.3,194
			c-5.8-20.7-10.3-42.2-13.2-64c-0.3-2.2-0.7-4.5-1-6.7c-0.3-2.1,0.3-2.9,2.4-3.4c1.7,0.5,2.5,1.6,2.6,3.4c0.4,3.4,0.9,6.8,1.4,10.2
			c1.7,12.9,4.3,25.5,7.3,38.2c3.2,13.5,7.2,26.7,11.9,39.8c1.9,5.1,4,10.1,6.4,14.9c1.3,2.7,3.3,4.1,6.6,4
			c9.2-0.3,18.3-1.2,27.3-2.5c4.3-0.6,8.5-1.5,12.7-2.6c10.2-1.9,20.2-4.5,30-7.9c5.2-1.6,10.2-3.5,15.3-5.5
			c4.3-1.7,8.6-3.5,12.7-5.6c1.3-0.7,2.1-1.8,1.9-3.1c-0.1-1.6,0-3.2-0.6-4.8c-0.5-7.1-1.6-14.2-3.1-21.1c-2-9.4-4.3-18.6-6.6-27.9
			c-1.1-4.7-2.4-9.3-3.6-13.9c-0.9-3.1-1.7-6.2-2.6-9.2c-1.8-6.3-3.4-12.6-5.8-18.7c-0.2-1.1-0.2-2.1,0.3-3.1
			C128.1,104.2,128.4,103.9,128.7,103.7z M190.9,49.7c-0.1-0.4-0.5-0.3-0.8-0.5s-0.6-0.4-0.9-0.5c-1.3-1-2.3-0.8-3.1,0.6
			c-0.7,1.3,0.2,2,1.2,2.6c0.5,0.2,1,0.4,1.4,0.6c1.1,0.8,2.3,1,3.6,1.3c7.6,2.8,15.5,3.9,23.6,4.6c3.1,0.5,6.2,0.4,9.3,0.1
			c0.8,0.1,1.7,0,2.4-0.3c1.6-0.6,2.1-2.6,0.7-3.5c-1-0.7-2,0.3-2.9,0.7c-0.4,0.7-1.2,0.1-1.7,0.5c-1.1,0-2.1,0-3.2-0.1
			c-0.7-0.4-1.3-1-2.2-0.7c-1.1-0.1-2.1-0.3-3.2-0.4c-7-0.6-13.9-2.3-20.8-3.9C193.3,50.2,192.1,49.9,190.9,49.7L190.9,49.7z
			 M219.5,61.6c-0.7-0.3-1.4-0.2-2.1-0.1c-7-0.8-13.9-1.9-20.7-3.6c-2.5-0.8-4.9-1.7-7.5-2.1c-0.4,0-0.7-1.4-1.2-0.1
			c-1.3,3.7-4.3,5.9-7.3,8.1c-6.2,4.7-12.5,9.3-17.7,15.2c-3.1,3.5-5.9,7.2-7.8,11.4c-0.4,0.9-1.1,2.1-0.6,2.9
			c0.4,0.7,1.6-0.3,2.5-0.1c1.3,0.2,1.7-0.5,2.2-1.6c1.1-2.4,2.5-4.6,4.2-6.6c3.3-3.8,6.9-7.4,10.6-10.9c0.5-0.5,1.1-1,1.9-1.1
			c0.2,0.6-0.2,0.8-0.5,1c-0.7,0.4-0.9,1.1-1.2,1.8c-2.3,2.5-4.6,5-6.9,7.6c-0.9,1.1-2,2-2.4,3.4c-1.9,1.6-3,3.8-3.9,6.1
			c-1.6,3.9-1.1,4.7,3.2,5.7c6.2,2.5,12.6,4.1,19.1,5.8c6.5,1.7,13.1,2.9,19.7,3.9c4.5,0.7,8.9,1.5,13.4,1.7
			c2.1,0.2,4.2,0.6,6.3,0.6c4.1,0.1,8.2,0.6,12.3,0.5c0.7,0,1.1-0.3,1.1-1.1c0-2.8,0.1-5.6-0.6-8.3c-1.3-5.8-3.7-11.1-6-16.5
			c-0.1-0.8-0.5-1.4-1.3-1.6c0-0.5,0-1,0-1.5c0.1-1-0.6-1.8-1-2.6c-0.2-0.4-0.7-0.9-0.2-1.2c0.7-0.5,0.7,0.4,0.9,0.7
			c3.5,5.4,6.2,11.1,8.5,17.1c1.3,3.5,2.1,7.1,2.1,10.8c0,0.5-0.2,1.2,0.6,1.3c1.4,0.3,2.4,1.3,3.8,2.3c0.1-0.9,0.1-1.6,0.2-2.3
			c0.1-6.2-1.7-11.9-4.1-17.4c-3.1-7.2-6.9-14-11.1-20.5c-1.5-2.3-2.8-4.8-2.8-7.6c0-1.4-0.5-1.6-1.6-1.2
			C221.9,61.6,220.7,61.6,219.5,61.6z M225.9,163.4c0.9,0.1,1.8-0.1,2.6-0.4c0.8-0.3,1.8-0.2,2.1-1.4c0.2-1.2,0.5-2.3,0.7-3.5
			c0.3-0.2,0.3-0.5,0.2-0.8c1.5-6.4,3.1-12.8,4.6-19.3c0.5-0.7,0.5-1.6,0.7-2.4c0.3-1.1,0.5-2.2,0.8-3.3c1.5-5.3,2.9-10.5,3.7-15.9
			c0.3-1.1,0.5-2.1,0.8-3.4c-2.5,0.7-4.8,0.9-7.1,1c-7.8,0.2-15.6-0.6-23.3-1.5c-12.5-1.5-24.9-3.8-37-7.4
			c-7.4-2.2-14.7-4.5-21.7-8.7c0.5,1.4-0.9,2.5-0.4,3.8c-0.3,0.3-0.4,0.7-0.4,1.1c-1.4,6.7-2.9,13.5-4.2,20.2
			c-1.2,6.1-2.4,12.2-2.6,18.5c-0.9,3.7-0.4,4.9,2.9,7.4c2.3,1.8,4.7,3.6,7.5,4.5c0.1,0.1,0.3,0.2,0.4,0.3
			c15.4,6.6,31.6,9.6,48.2,11.2c0.5,0.3,1,0.2,1.5,0.1c1.3,0.3,2.6,0.3,3.9,0.3c0.2,0.2,0.5,0.2,0.7,0c1.4,0.3,2.8,0.3,4.2,0.1
			c1.6,0.3,3.3,0.3,4.9,0c0.9,0.1,1.7,0.1,2.6-0.2c0.3,0.2,0.5,0.1,0.7-0.1c0.7,0.1,1.4,0,2.1-0.3
			C225.5,163.6,225.7,163.6,225.9,163.4z M157.7,218.4c-1.1-3-2.7-5.6-4.8-8c-1.1-1.2-2-1.5-3.5-0.7c-5.8,2.8-11.7,5.3-17.7,7.5
			c-3.4,1.2-6.8,2.5-10.2,3.8c-3,0.9-6.1,1.7-9.1,2.7c-15.2,4.7-30.8,7.8-46.6,9.5c-4.9,0.5-9.9,0.5-14.8,0.8c-1.5,0-3,0-4.4-0.1
			c-1.2-0.1-2,0.5-2.4,1.7c-0.8,2.3-1.2,4.6-1.6,6.9c-0.2,1.3-0.3,2.7,0.9,3.6c1.2,0.9,2.6,1,4,0.1c1.6-0.4,2.7-1.5,3.9-2.5
			c4.8-3.9,9.8-4.2,15-0.9c1.9,1.2,4,1.4,6.2,0.8c3.2-0.6,5-3,7-5.2c1.9-1.6,4.1-2.9,6.7-3.1c2.1-0.2,4.1,0.2,6.1,0.8
			c5.5,1.9,10.3,1,14-3.8c1.7-2.2,4.1-3.4,6.9-3.8c2.5-0.4,5-0.2,7.5,0.3c1.9,0.4,3.7,0.9,5.6,1c3.3,0.2,6.1-0.8,8.2-3.5
			c2.1-2.8,4.5-5,8.1-5.7c2-0.4,3.9,0,5.9,0.2c1.3,0.4,2.6,0.7,3.9,1.1c1.2,0.3,2.4,0.6,3.6,0c0.7,0,1.3-0.4,1.6-1
			C158.2,220,158.2,219.2,157.7,218.4z M225.5,32.6c-3-1.3-6.3-1.7-9.4-2.5c-2.4-0.6-4.8-0.6-7.2-1c-3.3-0.6-6.6-1-10-1
			c-2.3-0.4-4.7-0.3-6.9,0.5c-0.6,0-0.9,0.4-1.1,0.9c-1.5,2.8-1.7,6-2.4,9c-0.5,2.1-0.9,4.1,0,6.2c1.1,1.6,2.8,2.1,4.6,2.5
			c5.1,2.2,10.5,3,16,3.8c5.5,1.1,11.1,1.5,16.7,1.3c2.3-0.1,3.5-1.1,4-3.3s0.9-4.4,1.3-6.7c0.3-1.5,0.5-3.1,0.6-4.6
			c0-0.5,0.2-1.2-0.7-1c-1.2,0.2-2.3,0.3-3.5,0.5c-2.6,0.3-5-0.9-7.6-0.6c-0.2,0-0.4-0.1-0.7-0.1c-4.1-0.6-8.2-1.3-12.3-1.9
			c-3.5-0.9-6.9-2-10.4-2.6c-1.3-0.4-2.7-0.6-3.8-1.4c0-0.3,0-0.6,0.1-0.8c1.3,0.6,2.5,1,4,1.2c1.6,0.2,3.3,0.6,4.9,0.9
			c6,1.2,12,2.6,18.1,3.1c3.6,0.3,7.1,0.8,11.2,0.4C228.9,33.9,227.3,33.1,225.5,32.6z M225.1,168.4c-1.6,3.5-3.9,6.7-5.4,10.3
			c-1,2.5-2,5.1-3,7.6c-2.7,6.5-3.7,13.1-2.2,20.1c1.1,5.1,2.1,10.2,2.1,15.5c0,5-1.6,9.6-3.3,14.3c-0.5,1.3-1.5,2.4-2.7,3.3
			c-0.6,0.5-1.4,0.8-1.9,0.2c-0.6-0.7-1-0.3-1.5-0.1c-4.9,1.7-9,0.2-12.8-3.1c-2.5,2.3-2.5,2.8-0.5,4.4c4.4,3.3,9.2,4.4,14.5,2.8
			c6.8-2.2,10.3-7.3,11.6-14.1c1.4-7.2,0.5-14.2-0.9-21.3c-0.6-3.4-1-6.8-0.7-10.3c0.8-8.9,4.4-16.9,8.6-24.6
			c1.2-2.2,2.2-4.4,2.7-7.1c-1.4,0.3-2.7,0.5-3.9,0.8c-0.4-0.2-0.7-0.4-1.2-0.3c-2.3,0.5-4.7,0.6-7.1,0.7c-4.9,0.1-9.8-0.5-14.7-1
			c-9.9-0.9-19.7-2.7-29.4-5.1c-5.9-1.5-11.7-3.3-17.4-5.5c-1.5-1.2-3.4-1.7-5-2.8c-0.5-0.3-1.1-0.9-1.6-0.5s-0.3,1.2-0.2,1.9
			c0.7,4.7,1.4,9.4,0.9,14.2c-0.3,2.9,0.3,5.7,0.8,8.4c1.4,6.7,2.4,13.5,2.9,20.4c0.3,4.1-0.1,8.4,3.9,11.2c0.3,0.2,0.6,0.6,0.8,0.9
			c2.2,3.1,4.3,6.1,4.5,10.1c0.2,1.7-0.8,2.9-1.5,4.3c-3.4,2.8-7.3,3.6-11.5,2.1c-1.3-0.5-2.7-1-4.1-1c-0.4,0-1.1-0.3-1.3,0.3
			c-0.2,0.5,0.4,0.8,0.7,1.1c2.9,2.1,6,3.1,9.7,2.7c1.9-0.2,4.1-1,5.8,0.9c-0.7,0.1-1.4,0.3-2.1,0.4c0.3,0.6,0.6,1.2,0.9,1.8
			c3.5,6.2,11.5,11.5,19.6,9.7c4.7-1.1,9-3,12.5-6.4c0.5-0.5,1.5-1.2,0.5-2.1c-0.8-0.7-1.5-1.2-2.6-0.3c-1.8,1.5-3.8,2.6-6,3.5
			c-7.2,3.3-15.6,1.2-19.9-5c-0.6-0.9-1.3-1.4-2.3-1.6c0.3-1.6,1.3-1.5,2.4-0.8c0.6,0.4,1,1.1,1.6,1.7c3.7,3.8,8.1,6,13.5,5.1
			c3.5-0.5,6.7-2.1,9.6-4c1.1-0.7,2.2-1.4,3.4-2.2c-0.6,1.5,0.3,1.5,1.2,1.7c1.4,0.3,2.6,0.7,2,2.5c-0.2,0.6,0.2,1.1,0.7,1.5
			c6.4,4.8,14.9,3.5,17.2-5.4c1.9-7.5,1.1-14.9-0.5-22.4c-0.9-4.4-1.3-8.8-0.5-13.2c1.6-9,5.9-16.8,10.6-24.5
			C223.3,169.3,224,168.6,225.1,168.4z M157.6,233c-0.3-0.5-0.7-0.9-0.7-1.3c0.1-1.8-0.8-1.4-2-1.2c-4.9,0.7-9-0.8-12.3-4.5
			c-0.3-0.4-0.5-1.1-1.2-0.6c-0.6,0.4-0.9,1-0.4,1.7c1.2,1.9,2.3,3.7,4.3,4.9C149.2,234.3,153.3,234.3,157.6,233z M144.2,148.7
			c1.3,5.3,2.6,10.3,3.8,15.4c0.4-3.5-0.5-6.8-0.5-10.2C147.5,151.5,146.5,150,144.2,148.7z M240,110.9c-0.7-0.4-0.9-1.6-1.9-1.1
			c-0.3,0.2-0.7,0.8-0.4,1.1C238.3,111.6,239.2,111.1,240,110.9z M156,95.4c0.7,0.5,1.2,1.3,2.1,0.9c0.4-0.2,0.4-0.9,0.1-1.1
			C157.5,94.3,156.8,95.2,156,95.4z"/>
		<path class="st1" d="M223.8,55.2C223.8,55.2,223.8,55.3,223.8,55.2c0.2,0.1,0.4,0.1,0.6,0.1c0,0,0,0,0-0.1
			C224.3,55.2,224,55.2,223.8,55.2z"/>
		<path class="st1" d="M13.1,117.1c-2-0.1-2.9-1.2-3.2-3.1c-0.8-3.9-1-7.8-1-11.7c0-1.9-0.7-3.3-1.9-4.6c-2.8-2.9-5-6.1-6-10
			c-1.4-5,1.9-9.5,7.1-9.7c2.8-0.1,5.4,0.4,7.7,1.9c3,1.8,5.8,1.2,7.5-2.4c3.5-7.7,11.5-9.8,18.9-4.9c3.4,2.2,6.4,1.9,9.4-0.1
			c1.9-1.2,3.5-2.8,5.3-4.2c5.3-4.1,10.9-5.2,17-1.9c1.4,0.7,2.5,0.3,3.5-0.7c0.7-0.7,1.3-1.6,1.9-2.4c4-5.1,9.9-6.3,15.6-3.4
			c0.7,0.4,1.5,0.8,2.2,1.2c1.6,0.8,3.5,0.3,4.6-1.2c1.1-1.6,2.2-3.1,3.7-4.4c2.9-2.6,6.1-3.4,9.8-2c3.7,1.4,5.1,4.6,5.4,8.3
			c0.2,2.5-0.2,4.9-0.9,7.2c-0.6,1.8-0.3,3.5,0.5,5.1c3.6,7.6,6.4,15.5,9.4,23.3c0.6,1.5,0.5,2.8-1.1,3.6c-0.5,0-1,0-1.5,0
			c-0.2,0-0.4,0-0.5-0.1c-0.3-0.2-0.5-0.3-0.8-0.5c-1.3-3.3-2.6-6.6-4-9.9c-1.7-4.2-3.3-8.4-5-12.6c-0.6-1.6-1.6-3.2-3.5-3.1
			c-3.7,0.3-7.3,0.8-10.9,1.7c-0.6,0-1.2,0-1.8,0.1c-12.7,2.1-25.2,4.9-37.7,8c-12.2,3-24.3,6.3-36,10.7c-3.3,0.8-6.4,2.1-9.4,3.6
			c-2,1-2.7,2.9-3,5c-0.5,2.9,0,5.8,0.5,8.6C15.1,114.7,14.9,116.2,13.1,117.1z M107.1,61c-3.3,4.6-8.9,6.6-14.7,3.1
			c-3.7-2.2-7.1-1.2-9.7,2.2c-0.4,0.6-0.8,1.2-1.3,1.7c-2.3,2.9-6.8,4.2-10,2.4C67,68,63.3,69,59.8,72c-1.5,1.3-2.9,2.6-4.5,3.8
			c-4.8,3.6-10.7,3.7-15.9,0.6c-0.7-0.4-1.3-0.8-2-1.1c-3.6-1.6-7.2-0.4-9.2,3c-0.5,0.9-0.9,1.8-1.5,2.6c-1.9,2.8-4.5,4.3-7.9,4.4
			c-2.4,0.1-4.4-0.8-6.4-1.8C11,83,9.7,82.3,8.1,82.9c-2.1,0.4-2.9,1.7-2.2,3.9c1.2,3.9,3.7,6.9,6.6,9.6c0.5,0.4,1,0.6,1.6,0.3
			c3.7-1.5,7.5-3,11.2-4.6c3-1,6-2,9-3c2.2-0.6,4.3-1.1,6.4-2.1c5.7-1.6,11.4-3.3,17.2-4.8c14.9-3.8,29.9-6.9,45-9.4
			c3.2-0.4,6.5-0.8,9.7-1.1c1.1-0.1,1.7-0.7,2-1.7c0.7-2.7,1.1-5.5,0.9-8.3c-0.1-1.9-1-3.5-3.2-3.9c-1.3-0.1-2.4,0.2-3.4,1.1
			C108,59.3,107.4,60.1,107.1,61z"/>
		<path class="st2" d="M13.1,117.1c1.7-0.9,2-2.4,1.7-4.2c-0.5-2.8-1-5.7-0.5-8.6c0.3-2.1,1-3.9,3-5c3-1.6,6.1-2.8,9.4-3.6
			c0.1,0.8-0.4,1.1-1,1.6c-2.9,2.3-5.2,5-5.8,8.8c-0.3,1.9-0.3,3.8-0.4,5.8c-0.2,6.6,1.3,13.1,2,19.6c0.7,6,2.1,12,3.2,18
			c1.3,7.2,2.7,14.4,4.5,21.5c2.5,10,5.3,19.8,9,29.4c2.6,6.8,5.7,13.4,11.2,18.4c0.7,0.6,1.5,1.2,2.2,1.8c-1.3-0.2-2.5-0.7-3.8-1
			c-0.6-0.2-1.3-0.3-1.7,0.2s-0.1,1.1,0.1,1.7c0.6,1.8,2.2,1.9,3.6,2.6c2.6,1.3,5.2,1.9,8.1,1.8c5.1-0.1,10.2,0.4,15.3-0.4
			c3.9-0.6,7.8-0.6,11.6-1.3c1.5-0.2,3.5-1,4.7,0.9c-4.2,1.1-8.4,2-12.7,2.6c-9.1,1.2-18.2,2.2-27.3,2.5c-3.3,0.1-5.3-1.3-6.6-4
			c-2.4-4.9-4.5-9.8-6.4-14.9c-4.8-13-8.8-26.3-11.9-39.8c-3-12.6-5.6-25.3-7.3-38.2c-0.4-3.4-1-6.8-1.4-10.2
			c-0.2-1.8-1-2.9-2.6-3.4C13.7,118.9,13.2,118,13.1,117.1z"/>
		<path class="st3" d="M126.3,101.2c0.2,0,0.4,0,0.5,0.1c0.4,0.4,0.9,0.2,1.3,0.3c-0.3,0.8,0.2,1.4,0.5,2.1
			c-0.3,0.3-0.6,0.5-0.9,0.8C126.9,103.6,126,102.6,126.3,101.2z"/>
		<path class="st4" d="M128.1,101.6c-0.4-0.1-0.9,0.1-1.3-0.3c0.5,0,1,0,1.5,0C128.2,101.4,128.2,101.5,128.1,101.6z"/>
		<path class="st4" d="M89.7,225.3c-1.2-2-3.2-1.2-4.7-0.9c-3.9,0.6-7.8,0.6-11.6,1.3c-5.1,0.8-10.2,0.3-15.3,0.4
			c-2.8,0.1-5.5-0.5-8.1-1.8c-1.4-0.7-3-0.8-3.6-2.6c-0.2-0.6-0.5-1.2-0.1-1.7s1.1-0.4,1.7-0.2c1.2,0.3,2.4,0.8,3.8,1
			c-0.7-0.6-1.5-1.2-2.2-1.8c-5.6-5-8.6-11.6-11.2-18.4c-3.7-9.6-6.5-19.4-9-29.4c-1.8-7.1-3.2-14.3-4.5-21.5c-1.1-6-2.5-12-3.2-18
			c-0.7-6.5-2.2-13-2-19.6c0.1-1.9,0.1-3.8,0.4-5.8c0.6-3.9,2.9-6.6,5.8-8.8c0.5-0.4,1.1-0.8,1-1.6c11.8-4.4,23.9-7.7,36-10.7
			c12.5-3.1,25-5.9,37.7-8c0.6-0.1,1.2-0.1,1.8-0.1c0.3,0.8,1,0.7,1.7,0.7c2.9,0.1,5.5,1.2,8.1,2.3c0.4,0.2,0.8,0.4,0.8,0.9
			c0,0.6-0.6,0.6-0.9,0.9c-0.9,0.5-2,0.5-3,1.6c0.9,0,1.5,0.1,2,0.1c1.4-0.1,2.4,0.4,3.3,1.5c1.4,1.7,2.3,3.6,2.7,5.7
			c-1.2,0.1-1.1,1-1.1,1.8c-0.6,3.4-1.6,6.8-3.3,9.9c-0.4,0.7,0,0.8,0.5,0.9c1.7,0.1,2.5-1.1,2.9-2.4c0.7-2.1,1.3-4.3,1.2-6.6
			c0.4,0,0.7,0,1.1,0c2,3.3,3,6.9,4.3,10.5c2.5,6.6,3.5,13.6,5,20.5c1,4.5,1.5,9.1,3.1,13.5c0.6,1.8,1.9,3.1,2.4,4.9
			c0.8,2.7,1.4,5.5,2,8.3c-1.7,1.8-2.9,3.7-2.5,6.4c0.4,2.4,0.6,4.9,0.7,7.4c0.1,5.5,0.1,11-1.8,16.3c-0.1,0.1-0.2,0.2-0.4,0.4
			c-0.5,0.1-0.8,0.3-0.6,0.8c0.5,1.2,0.2,2.3-0.3,3.4c-1.8,4.2-3.6,8.5-6.8,11.9c-1.1,1.2-2.6,2.1-3.8,3.9c5.9-2.5,11.8-3.8,16-8.6
			c0.8-0.9,2-1.9,2.9-1.6c1.1,0.3,0.3,1.9,0.5,2.9c0,0.1,0,0.2,0,0.4c0.1,4.7-1.9,8.5-4.9,11.8c-3.5,3.7-8,5.9-12.5,8.1
			c-1,0.5-1.9,0.9-1.9,2.2C109.9,220.8,99.9,223.3,89.7,225.3z M126.3,141.5c0-1.7-0.1-3.5-0.3-5.2c-2.1-13.9-10.7-22.7-22.7-28.5
			c-10.1-5-20.9-6.3-32-4.4c-12.4,2.1-23.3,7.2-31.9,16.8c-10.6,11.7-12.7,27.3-5.8,41.2c8,16.2,21.6,24.1,39.4,24.9
			c12.2,0.5,23.6-2.9,33.8-9.7C119.2,168.1,126.1,156.6,126.3,141.5z"/>
		<path class="st5" d="M155.8,155.8c5.7,2.1,11.5,4,17.4,5.5c9.7,2.4,19.4,4.2,29.4,5.1c4.9,0.4,9.8,1.1,14.7,1
			c-1,2.2-2.7,3.3-5.1,3.5c-0.5,0-1.2-0.1-1.6,0.2c-2.6,2-5.6,3.4-5.7,7.5c-0.1,2.9-0.9,6-2.8,8.5c-0.2,0.3-0.1,0.7-0.2,1
			c-0.2,0-0.4,0-0.5,0c-0.5,0.1-1.3-0.3-1.4,0.3c-0.1,0.8,0.8,0.6,1.4,0.7c0.2,0,0.4,0,0.5,0c0,2.3,0,4.5,0,6.8
			c0,0.5-0.2,1.2,0.3,1.5c1.9,1.3,1.4,3.4,1.8,5.2c0.3,1.4,0.2,2.8,0.5,4.2c0.9,3.6-0.1,7-1,10.4c-0.2,0.8-0.6,1.4-1.7,1
			c-0.9-0.3-1.4,0.3-1.8,1.1c-0.8,1.4-1.3,3-2.3,4.3c-1.5,1.8-2.8,4.1-5.1,4.4c-3.2,0.4-6,1.5-8.8,2.9c-4.1,2-8.4,2.9-12.7,0.4
			c-2.5-1.5-4.7-3.4-6.7-5.5c-0.8-0.8-1.7-1.7-2.9-2c0.7-1.4,1.7-2.6,1.5-4.3c2.2,0.3,2.6-0.9,2.4-3c-0.3-3.4-1.8-6.2-3.8-8.9
			c-1.8-2.4-2.4-5-2.7-7.9c-0.2-2.4-0.1-4.8-0.5-7.3c-0.6-4.1-1.1-8.3-1.6-12.5c-0.6-4.5-1.2-9-1.6-13.5c-0.3-2.7-1.1-5.3-0.8-8.1
			c0.4,0,0.7,0.3,1.1,0.5c1.9,1.2,3.6,2.5,5.8,3c0.2,0.1,0.4,0.3,0.6,0.4c0.1,1.2-0.5,1.7-1.6,1.3s-1.5,0-1.6,1.1
			c-0.1,0.8-0.4,1.6-0.4,2.4c0,2.7,0.3,3,2.9,3c2,0,2.4-0.5,2.4-3.2c1.2-0.2,0.6-1.2,0.8-1.9c0.4-2.2,0.5-2.3,2.6-1.6
			c5.3,1.7,10.5,3.2,15.9,4.3s10.9,1.9,16.3,2.3c2.7,0.2,5.5,0.4,8.2-0.7c-2.1-0.4-4.1-0.8-6.2-1c-4.3-0.5-8.7-0.8-13-1.6
			c-6.9-1.3-13.6-3.2-20.3-5.4c-1.4-0.5-2.8-1.3-4.4-1.2c-0.5-0.5-1-0.8-1.8-0.6c-2-1-4.4-1-6.3-2.3
			C155.6,156.8,155.7,156.3,155.8,155.8z M200.2,198.3c0-2.8-1.3-4-3.6-3.7c-1.7,0.2-3.2,1.6-3.6,3.3c-0.4,2,0.4,4.5,1.7,5.3
			c1.2,0.8,2,0.5,2.6-0.9c0.1-0.3,0.3-0.5,0.6-0.6C199.9,201.1,200,199.5,200.2,198.3z M162.4,176c0-1,0.1-2.1-0.9-2.1
			c-1.1-0.1-1.1,1-1.1,1.8c0,0.5,0,1.2,0.2,1.6c0.7,1,0.6,1.5-0.5,2c-0.7,0.3-0.8,1.2-0.5,1.9c0.2,0.5,0.6,1.1,1.1,1
			c0.9-0.1,1.1-1,1.1-1.6C161.9,178.9,161.5,177.3,162.4,176z M203.6,205.8c-0.1-1-0.2-2.1-1.5-2.2c-1.1-0.1-1.6,0.7-1.5,1.7
			c0,1.2,0.5,2.4,1.9,2.4C203.5,207.8,203.5,206.7,203.6,205.8z M196.5,180.2c-0.4,0.1-0.8,0.2-0.9,0.8c-0.1,0.6,0.3,0.9,0.8,0.9
			c0.6,0.1,1.1-0.2,1.1-0.8C197.6,180.5,197.2,180.3,196.5,180.2z M190.6,209.5c0-0.5-0.2-1-0.7-1c-0.6,0-0.7,0.5-0.7,1
			s0.2,0.8,0.6,0.9C190.3,210.5,190.5,210,190.6,209.5z"/>
		<path class="st5" d="M216.3,110.1c-4.5-0.3-8.9-1.1-13.4-1.7c-6.6-1-13.2-2.3-19.7-3.9c-6.4-1.7-12.9-3.2-19.1-5.8
			c-1.1-2.7-1.6-5.3-0.2-8.2c0.5-1,1.4-2.2,0.9-3.6c0.5-1.4,1.5-2.4,2.4-3.4c2.2-2.6,4.6-5.1,6.9-7.6c0.2,0.2,0.5,0.4,0.7,0.7
			c0.2,1.7,2.1,1.5,2.9,2.6c-2.6,1.7-4.8,3.7-6,6.6c-0.6,1.5-0.6,3,0.5,4.2c1.7,1.9,6.3,1.6,7.7-0.6c1-1.5,2.2-2.7,3.5-3.8
			c1.1-0.9,1.7-2,1.7-3.4c2,0,3.9,0.9,5.9,1.1c4.3,0.6,8.6,0.6,12.8,1.8c3.3,0.9,6.7,1.4,10.1,1.7c0.8,0,1.5,0,2.3,0
			c2.4,0.2,4.8,0.3,7.3,0.5c0.9,2.2,1.2,4.5,1.5,6.9c0.3,1.9-0.5,4.3,2.2,5.3l0.1,0.1c0.7,1.4,0.8,2.7,0,4.1
			c-0.8,1.3-2.2,0.1-3.2,0.7c-0.2,0.1-0.8-0.5-0.9-1c-0.1-0.4,0.3-0.6,0.6-0.8c0.3-0.2,0.9-0.1,1-0.6c-3.2-1.3-4-1-3.7,1.6
			c0.1,1.2,0.8,1.9,2,2c0.5,0,1,0.2,1.1,0.7s-0.3,0.7-0.6,0.9c-1.7,1.4-3.9,1.7-5.9,2.3C217,109.5,216.4,109.3,216.3,110.1z
			 M221.9,98.5c0.2,0.5,0.2,1.3,1,1.1c0.4-0.1,0.9-0.5,0.7-0.9c-0.3-0.7-1-0.3-1.6-0.4c0.1-0.8-0.2-1.4-1-1.7
			c-0.5-0.2-0.9,0-1.2,0.4c-0.4,0.5-0.4,1.1,0.1,1.6C220.6,99.4,221.2,98.9,221.9,98.5z M170.8,93c-1.5,0-2.8,1-2.8,2.4
			c-0.1,1.6,1.3,2.8,3.2,2.9c1.3,0.1,2.5-1,2.5-2.2C173.7,94.4,172.4,93.1,170.8,93z M212.7,90.5c1,0,2.2,0.2,2.3-1.2
			c0-1.4-1.2-1.3-2.1-1.3c-1.1-0.1-2.1,0.5-2.1,1.5C210.6,90.6,211.9,90.3,212.7,90.5z M226,99.9c-0.7-0.1-0.7,0.3-0.8,0.8
			c0,0.7-0.1,1.4,0.8,1.5c0.5,0.1,0.9-0.3,1-0.8C227,100.6,226.6,100.1,226,99.9z"/>
		<path class="st6" d="M223.1,61.6c1.1-0.4,1.6-0.2,1.6,1.2c0,2.8,1.3,5.3,2.8,7.6c4.2,6.5,8,13.3,11.1,20.5
			c2.4,5.5,4.3,11.2,4.1,17.4c0,0.7-0.1,1.4-0.2,2.3c-1.3-1-2.4-2-3.8-2.3c-0.7-0.2-0.6-0.8-0.6-1.3c0-3.7-0.8-7.3-2.1-10.8
			c-2.3-6-5-11.8-8.5-17.1c-0.2-0.3-0.2-1.2-0.9-0.7c-0.5,0.3,0,0.8,0.2,1.2c0.4,0.8,1.1,1.6,1,2.6c-2.8-1.6-5.7-2.5-8.9-2.9
			c-0.6-0.1-1.1-0.3-1.7-0.3c-4.1-0.3-8.3-0.5-12.4-0.9c-5.3-0.6-10.4-2.2-15.6-3.2c-4.2-0.8-8.4-0.9-12.7-0.2
			c-0.5,0.1-1.3,0.7-1.4-0.5c0.3-0.2,0.7-0.4,0.5-1c-0.8,0.1-1.3,0.6-1.9,1.1c-3.7,3.5-7.3,7-10.6,10.9c-1.7,2-3.1,4.2-4.2,6.6
			c-0.5,1.1-0.9,1.8-2.2,1.6c-0.8-0.1-2,0.8-2.5,0.1c-0.5-0.8,0.2-1.9,0.6-2.9c2-4.3,4.8-7.9,7.8-11.4c5.2-5.9,11.5-10.5,17.7-15.2
			c3-2.2,6-4.4,7.3-8.1c0.5-1.3,0.8,0.1,1.2,0.1c-0.5,2.1-0.8,4.4-2.1,6.2c-1.1,1-2.2,2-3.3,3c1.8,0.1,2.5-1.1,3.5-2.1
			c2.1-0.3,3.1-1.8,3.9-3.4c0.6-1.3,1.4-1.9,2.9-1.4c0.9,0.3,1.8,0.4,2.7-0.2c6.8,1.7,13.8,2.7,20.7,3.6c-0.1,0.7,0.1,1.4,0.6,2
			c1.1,1.4,1.3,2.8-0.2,4.6c2.1-1.3,2.9,0.3,4,1.3c0.7,0.6,1.9,0.8,2-0.5c0.1-0.7,0.1-1.8-0.9-2.3C222.6,64.8,222.8,63.2,223.1,61.6
			z"/>
		<path class="st7" d="M202,188.1c0.1-0.3,0-0.8,0.2-1c1.9-2.5,2.7-5.6,2.8-8.5c0.2-4.1,3.2-5.5,5.7-7.5c0.4-0.3,1-0.2,1.6-0.2
			c2.4-0.2,4.1-1.4,5.1-3.5c2.4,0,4.7-0.1,7.1-0.7c0.4-0.1,0.8,0.1,1.2,0.3c0,0.5-0.1,1.1-0.5,1.5c-1.1,0.2-1.8,0.9-2.4,1.8
			c-4.7,7.7-9,15.5-10.6,24.5c-0.8,4.5-0.4,8.8,0.5,13.2c1.6,7.4,2.4,14.9,0.5,22.4c-2.3,9-10.8,10.3-17.2,5.4
			c-0.5-0.4-0.9-0.9-0.7-1.5c0.6-1.9-0.6-2.3-2-2.5c-0.9-0.2-1.8-0.3-1.2-1.7c-1.1,0.7-2.2,1.4-3.4,2.2c-3,1.9-6.1,3.4-9.6,4
			c-5.5,0.8-9.8-1.4-13.5-5.1c-0.5-0.5-1-1.3-1.6-1.7c-1-0.7-2-0.8-2.4,0.8c-0.2,0-0.5-0.1-0.7-0.1c-1.7-1.9-3.9-1.1-5.8-0.9
			c-3.6,0.4-6.8-0.6-9.7-2.7c-0.3-0.3-0.9-0.6-0.7-1.1c0.2-0.6,0.8-0.3,1.3-0.3c1.4,0,2.8,0.5,4.1,1c4.2,1.5,8,0.8,11.5-2.1
			c1.2,0.3,2.1,1.1,2.9,2c2,2.1,4.2,4,6.7,5.5c4.3,2.5,8.6,1.7,12.7-0.4c2.8-1.4,5.6-2.5,8.8-2.9c2.3-0.3,3.7-2.6,5.1-4.4
			c1.1-1.3,1.5-2.9,2.3-4.3c0.4-0.7,0.9-1.4,1.8-1.1c1.1,0.4,1.5-0.2,1.7-1c0.9-3.4,1.9-6.8,1-10.4c-0.3-1.4-0.2-2.8-0.5-4.2
			c-0.4-1.8,0.2-3.9-1.8-5.2c-0.5-0.3-0.3-1-0.3-1.5c0-2.3,0-4.5,0-6.8C202.5,188.8,202.1,188.5,202,188.1z M203,221.9
			c0-0.3,0-0.6,0-0.9c-0.1-0.4,0.2-1.1-0.3-1.3s-0.8,0.4-1.2,0.6c-1.2,0.6-0.9,2.5-1.6,3c-2.1,1.4-2.1,3.6-2.9,5.5
			c-0.2,0.4-0.6,0.9-0.1,1.3c0.4,0.4,0.9,0,1.3-0.2C201,229,203,225.6,203,221.9z"/>
		<path class="st6" d="M51.1,233.9c4.9-0.2,9.9-0.2,14.8-0.8c15.8-1.7,31.4-4.8,46.6-9.5c3-0.9,6-1.8,9.1-2.7
			c0.2,0.9,0.8,0.7,1.4,0.5c4.7-1.5,9.4-2.9,14-4.8c3.3-1.4,6.6-3,10.4-2.5c1.2,0.4,2.4,0.7,3.5,1.1c1.9,1.2,3.5,2.7,5.7,3.2
			c0.1,0.8,0.1,1.7,0.9,2.2c-0.4,0.6-0.9,0.9-1.6,1c-2-0.2-3.9-1-5.8-1.7c-0.6-0.2-1.5-0.5-1.7,0.6c-1.9-0.2-3.9-0.6-5.9-0.2
			c-3.6,0.7-6,2.9-8.1,5.7c-2,2.7-4.8,3.7-8.2,3.5c-1.9-0.1-3.7-0.6-5.6-1c-2.5-0.5-4.9-0.7-7.5-0.3c-2.8,0.4-5.2,1.6-6.9,3.8
			c-3.7,4.8-8.5,5.7-14,3.8c-2-0.7-4-1-6.1-0.8c-2.6,0.2-4.7,1.5-6.7,3.1c-3.1,0.7-5.2,2.8-7,5.2c-2.2,0.7-4.2,0.4-6.2-0.8
			c-5.2-3.3-10.2-2.9-15,0.9c-1.2,0.9-2.3,2.1-3.9,2.5c-0.3-1.1-1.6-1.7-1.5-3.1c0.3-2.7,0.8-5.1,3.4-6.7
			C50.2,235.7,51.2,235.1,51.1,233.9z"/>
		<path class="st2" d="M116.9,90.4c-0.4-2.1-1.3-4-2.7-5.7c-0.8-1-1.9-1.6-3.3-1.5c-0.6,0-1.1,0-2-0.1c1-1.1,2.1-1.1,3-1.6
			c0.4-0.2,1-0.2,0.9-0.9c0-0.4-0.4-0.7-0.8-0.9c-2.6-1.1-5.2-2.1-8.1-2.3c-0.7,0-1.3,0-1.7-0.7c3.6-1,7.2-1.5,10.9-1.7
			c1.9-0.1,2.9,1.5,3.5,3.1c1.7,4.2,3.3,8.4,5,12.6c1.3,3.3,2.6,6.6,4,9.9c-0.4,1.6-0.3,3.1-0.1,4.7c0.2,1.2,0.8,1.9,2,2.1
			c2.4,6.1,3.9,12.4,5.8,18.7c0.9,3.1,1.7,6.2,2.6,9.2c-1.4,0.8-0.8,2.1-0.5,3.1c0.9,3.6,2.2,7.2,2.7,10.9c0.6,3.8,1.8,7.6,2.4,11.4
			c1.4,9,3.6,17.9,4.9,27c0.4,2.8,1.4,5.7,0.5,8.6c-0.2,0.6,0.1,1,0.6,1.3c0.8,0.5,1.7,0.6,2.6,0.5c0.6,1.5,0.4,3.2,0.6,4.8
			c0.1,1.4-0.6,2.5-1.9,3.1c-4.1,2.1-8.4,3.9-12.7,5.6c-5,2-10.1,3.9-15.3,5.5c0-1.3,0.9-1.7,1.9-2.2c4.5-2.1,9-4.4,12.5-8.1
			c3.1-3.3,5.1-7.1,4.9-11.8c1.4-0.2,1.9-1.2,2.1-2.3c0.2-1.3,0-2.7,0-4.1c-0.1-2.3-1.3-4.6-0.5-7c0.3-0.8,0.6-1.6-0.3-2.3
			c-0.8-0.6-1.7-0.9-2.8-0.3c-1.6,1.1-3.4,2-5,3c-0.6,0.4-1.1,0.6-1.3-0.4c0.1-0.1,0.2-0.2,0.4-0.4c3.4-1.1,6.8-5.7,6.8-9.1
			c0-1.1-0.4-2.7,0.2-3.3c1.5-1.7,0.4-3.3,0.2-5c-0.1-1-0.5-2.1-0.8-3.1c-1-3.1-1.4-6.5-2.8-9.5c-0.7-2.8-1.2-5.5-2-8.3
			c-0.5-1.7-1.8-3.1-2.4-4.9c-1.5-4.4-2.1-9-3.1-13.5c-1.5-6.9-2.5-13.9-5-20.5c-1.3-3.5-2.4-7.2-4.3-10.5
			C118.3,92.6,117.2,91.7,116.9,90.4z"/>
		<path class="st4" d="M237.6,132.3c-0.3,1.1-0.5,2.2-0.8,3.3c-0.8-0.1-1.8-0.3-1.9,0.9c-0.1,0.9,0.2,1.5,1.2,1.5
			c-1.5,6.4-3.1,12.8-4.6,19.3c-0.5,0.1-0.8,0.4-1,0.8c-0.3,0.3-0.7,0.3-1.1,0.2c-0.2-0.2-0.3-0.1-0.3,0.1c-1.2,0.6-2.6,0.5-3.9,0.9
			c-2.4,0.1-4.8,0.1-7.2,0.2c-3-0.2-6-0.4-9-0.6c0.7-1.1,1.6-1.7,3.1-1.6c2.4,0.1,4.3-1,5.3-3.4c0.9-2.2,1.1-4.6,1.6-6.9
			c0.5-2.3,0.9-4.5,1.8-6.6c1.9-4.2,3.7-8.4,4-13.1c0.2-2.2-0.3-4.5,1-6.6c0.6-0.9-0.2-1.3-0.9-1.5c-1-0.3-1.7-0.8-1.6-2
			c1.9-0.1,3.8,0.3,5.7-0.1c1.1,0.3,2.1,0.2,3.2,0.1c2.1,0.3,4.1-0.2,6.1-0.3c-1.7,3.9-2.8,7.9-3.6,12.1
			C234.3,132.5,234.2,132.6,237.6,132.3z"/>
		<path class="st4" d="M192.6,30.5c1.2,0.8,2.5,1,3.8,1.4c-0.4,1-0.2,1.5,1,1.8c3.1,0.8,6.2,1.4,9.4,0.8c4.1,0.6,8.2,1.3,12.3,1.9
			c-1.2,2.9-2,5.9-2.5,9c-0.6,3.8-1.9,4.9-5.9,5c-0.6,0-1.3-0.3-1.7,0.5c-5.5-0.8-10.9-1.6-16-3.8c0-0.6-0.3-1.1-0.5-1.7
			c-0.9-1.9-1.2-4-0.9-6.1c0.2-1.7,0.6-3.4,0.9-5c0.1-0.6,0.4-1.4-0.2-1.6c-0.7-0.2-0.9,0.7-1,1.2c-0.9,3.2-1.9,6.3-2.2,9.7
			c0,0.5,0,1-0.6,1.1c-0.9-2.1-0.5-4.1,0-6.2c0.7-3,0.9-6.2,2.4-9C191.4,29.8,192,30.1,192.6,30.5z"/>
		<path class="st8" d="M225.1,168.4c0.4-0.4,0.5-0.9,0.5-1.5c1.3-0.3,2.5-0.5,3.9-0.8c-0.5,2.7-1.5,4.9-2.7,7.1
			c-4.2,7.7-7.8,15.7-8.6,24.6c-0.3,3.5,0.1,6.9,0.7,10.3c1.3,7.1,2.3,14.1,0.9,21.3c-1.3,6.8-4.8,11.9-11.6,14.1
			c-5.2,1.7-10.1,0.6-14.5-2.8c-2-1.5-1.9-2.1,0.5-4.4c3.7,3.2,7.9,4.7,12.8,3.1c0.6-0.2,1-0.5,1.5,0.1c0.6,0.6,1.3,0.3,1.9-0.2
			c1.2-0.9,2.2-1.9,2.7-3.3c1.7-4.6,3.3-9.2,3.3-14.3c0-5.3-1-10.4-2.1-15.5c-1.5-6.9-0.4-13.6,2.2-20.1c1-2.5,2-5.1,3-7.6
			C221.1,175.1,223.5,172,225.1,168.4z"/>
		<path class="st7" d="M155.8,155.8c-0.1,0.5-0.2,1-0.4,1.5c-0.2,0-0.5,0-0.7-0.1c-1-1.5-2.5-2.3-4.1-3c0.9,1.5,2,2.7,3.4,3.7
			c0.1,0.1,0.2,0.2,0.3,0.3c-0.3,2.8,0.5,5.4,0.8,8.1c0.5,4.5,1.1,9,1.6,13.5c0.5,4.2,0.9,8.3,1.6,12.5c0.4,2.4,0.2,4.8,0.5,7.3
			c0.3,2.9,0.9,5.6,2.7,7.9c2,2.6,3.5,5.5,3.8,8.9c0.2,2.1-0.2,3.3-2.4,3c-0.2-3.9-2.4-7-4.5-10.1c-0.2-0.3-0.5-0.7-0.8-0.9
			c-4.1-2.8-3.6-7.1-3.9-11.2c-0.5-6.9-1.5-13.7-2.9-20.4c-0.6-2.8-1.2-5.5-0.8-8.4c0.5-4.7-0.2-9.5-0.9-14.2
			c-0.1-0.6-0.4-1.4,0.2-1.9c0.5-0.4,1.1,0.2,1.6,0.5C152.5,154.1,154.4,154.6,155.8,155.8z"/>
		<path class="st8" d="M238.5,116.9c-2,0.1-4.1,0.6-6.1,0.3c-0.2-0.7,0.5-1.6-0.6-2c-1-0.3-1.5,0.4-2.1,1c-0.2,0.2-0.4,0.6-0.5,0.9
			c-1.9,0.4-3.8,0-5.7,0.1c-0.7-0.3-1.4-0.3-2.1-0.2c-0.8-0.2-1.7-0.3-2.5-0.2c-0.2,0-0.5,0-0.7-0.1c-2-0.3-4-0.7-6-0.9
			c-13.6-1.3-27-4-40.1-8c-3.7-1.1-7.4-2.1-10.9-3.8c0.1-0.2,0.1-0.5,0.2-0.7c0.2-0.4,0.9-0.9,0.2-1.3s-1,0.3-1.3,0.9
			c-0.1,0.2-0.1,0.4-0.2,0.7c-2-0.3-3.5-1.6-5.4-2.1c-0.6-0.6-1.2-1.1-2.1-1.3c-0.6-1.4,0.9-2.4,0.4-3.8c6.9,4.1,14.3,6.5,21.7,8.7
			c12.1,3.6,24.5,5.9,37,7.4c7.7,0.9,15.5,1.8,23.3,1.5c2.3-0.1,4.6-0.3,7.1-1c-0.3,1.3-0.5,2.3-0.8,3.4
			C240.3,116.4,239.4,116.4,238.5,116.9z"/>
		<path class="st6" d="M209.1,158.9c3,0.2,6,0.4,9,0.6c0.1,1.3-0.7,2.1-1.6,2.7c-0.7,0.5-1.4,0.9-1.6,1.7c-1.4,0.1-2.8,0.1-4.2-0.1
			c-0.2-0.4-0.5-0.4-0.7,0c-1.3,0-2.6,0.1-3.9-0.3c-0.4-0.7-0.9-0.6-1.5-0.1c-16.5-1.6-32.8-4.6-48.2-11.2c-0.2-0.1-0.3-0.2-0.4-0.3
			c-0.3-1.6-0.5-3.2-0.8-4.9c1.4,0.6,2.8,1.3,4.3,1.6c3.6,1.7,7.4,2.8,11.3,3.9c11.4,3.3,23.1,5,34.9,6
			C206.7,158.6,207.9,158.8,209.1,158.9z"/>
		<path class="st7" d="M216.3,110.1c0.1-0.8,0.8-0.6,1.3-0.7c2-0.5,4.2-0.9,5.9-2.3c0.3-0.2,0.8-0.4,0.6-0.9
			c-0.1-0.6-0.6-0.7-1.1-0.7c-1.2-0.1-1.9-0.8-2-2c-0.2-2.6,0.5-2.9,3.7-1.6c-0.1,0.6-0.7,0.4-1,0.6s-0.6,0.4-0.6,0.8
			c0.1,0.5,0.7,1.1,0.9,1c1-0.6,2.4,0.6,3.2-0.7c0.8-1.3,0.8-2.7,0-4.1c0-0.1-0.1-0.1-0.1-0.1c-2.6-1-1.9-3.4-2.2-5.3
			c-0.3-2.4-0.6-4.7-1.5-6.9c2-0.7,4.2-0.7,6-1.9c2.3,5.4,4.7,10.8,6,16.5c0.6,2.7,0.6,5.5,0.6,8.3c0,0.8-0.4,1-1.1,1.1
			c-4.1,0.1-8.2-0.4-12.3-0.5C220.5,110.6,218.4,110.3,216.3,110.1z"/>
		<path class="st9" d="M229.4,85.3c-1.8,1.2-4,1.2-6,1.9c-2.4-0.2-4.8-0.3-7.3-0.5c0.1-0.7,0.5-1.8-0.6-1.8c-0.8,0-1.9,0.5-1.6,1.8
			c-3.4-0.3-6.8-0.8-10.1-1.7c-4.2-1.1-8.5-1.2-12.8-1.8c-2-0.3-3.9-1.2-5.9-1.1c-0.3-0.6-0.4-1.3-1.1-1.7c0.2-0.5,0.7-0.4,1.1-0.5
			c1.3-0.2,1.3-1.1,1.1-2c-0.3-0.9-2.3-1.4-3.5-0.9c-0.8,0.4-1.2,0.9-0.6,1.8c0.1,0.2,0.3,0.4,0.4,0.6c0.1,0.2,0.2,0.4,0.3,0.6
			c-1.7-0.1-3.3-1.2-5.1-1c-0.8-1.1-2.7-0.9-2.9-2.6c2-0.2,4-0.6,5.9-0.7c3.1-0.2,6.1,0,9.1,0.6c0.4,0.2,0.9,0.4,1.3,0.6
			c2.3,2.8,5.2,4.9,8.5,6.2c2.2,0.9,4.1-0.7,6.1-1.1c1.3-0.3,2.9-0.2,3.7-1.6c2.8,0,5.7-0.1,8.5-0.1c1.1,0.8,2.6,0.3,3.7,1.2
			c-0.6,1-0.7,2,0,3c0.6,1,1.6,1,2.3,0.5c1.2-0.8,0-1.7-0.1-2.5c1.4,0.4,2.7,0.7,4.1,1.1C228.8,84,229.3,84.5,229.4,85.3z"/>
		<path class="st8" d="M160.8,229.9c0.2,0,0.5,0.1,0.7,0.1c1,0.2,1.7,0.6,2.3,1.6c4.3,6.2,12.7,8.3,19.9,5c2.1-1,4.2-2.1,6-3.5
			c1.1-0.9,1.8-0.4,2.6,0.3c1,0.9,0,1.6-0.5,2.1c-3.5,3.4-7.8,5.3-12.5,6.4c-8.1,1.8-16.2-3.4-19.6-9.7c-0.3-0.6-0.6-1.2-0.9-1.8
			C159.4,230.2,160.1,230,160.8,229.9z"/>
		<path class="st4" d="M149.1,198.4c-0.9,0.1-1.8-0.1-2.6-0.5c-0.5-0.3-0.8-0.8-0.6-1.3c0.9-2.9-0.1-5.8-0.5-8.6
			c-1.3-9-3.5-17.9-4.9-27c-0.6-3.8-1.8-7.6-2.4-11.4c-0.6-3.8-1.8-7.3-2.7-10.9c-0.3-1-0.9-2.3,0.5-3.1c1.2,4.6,2.5,9.2,3.6,13.9
			c2.2,9.3,4.6,18.6,6.6,27.9C147.4,184.3,148.6,191.3,149.1,198.4z"/>
		<path class="st2" d="M209.1,50.9c0.4-0.8,1.1-0.5,1.7-0.5c4-0.1,5.2-1.1,5.9-5c0.5-3.1,1.4-6.1,2.5-9c0.2,0,0.4,0.1,0.7,0.1
			c0,1.2,0,2.5-0.3,3.7c-0.9,2.9-1.1,6-1.1,9c0,0.7,0.2,1.4,1.2,1.5c2,0.3,4.9-1.1,5.9-3c1.6-3.4,2.5-6.9,1.9-10.7
			c1.2-0.2,2.4-0.3,3.5-0.5c0.9-0.1,0.8,0.6,0.7,1c-0.2,1.5-0.4,3.1-0.6,4.6c-0.4,2.2-0.8,4.4-1.3,6.7s-1.7,3.2-4,3.3
			C220.2,52.4,214.6,52,209.1,50.9z"/>
		<path class="st8" d="M194.5,50.9c6.9,1.6,13.7,3.3,20.8,3.9c1.1,0.1,2.1,0.3,3.2,0.4c0.5,0.9,1.2,1.2,2.2,0.7c1.1,0,2.1,0,3.2,0.1
			c0.1,1.6-0.7,2-2.2,2.1c-1.9,0.1-3.9-0.5-5.7,0.4c-8-0.7-16-1.7-23.6-4.6c-0.8-0.8-1.5-1.7-0.7-2.9c0.2,0.1,0.4,0.1,0.6,0.2
			C193.1,51.6,193.9,52,194.5,50.9z"/>
		<path class="st2" d="M191.9,28.6c2.3-0.8,4.6-0.9,6.9-0.5c0.6,1.1,1.3,1.7,2.7,1.1c0.7-0.3,1.5-0.1,2.3,0c6.9,1,13.8,2.2,20.6,4
			c0.5,0.1,1.1,0.4,1.1-0.5c1.8,0.5,3.4,1.4,5.4,2.6c-4.1,0.5-7.7-0.1-11.2-0.4c-6.1-0.5-12.1-1.9-18.1-3.1
			c-1.6-0.3-3.2-0.7-4.9-0.9c-1.4-0.2-2.7-0.6-4-1.2C192.4,29.3,191.8,29.2,191.9,28.6z"/>
		<path class="st4" d="M227.4,37.1c0.5,3.8-0.3,7.3-1.9,10.7c-0.9,1.9-3.8,3.3-5.9,3c-0.9-0.1-1.1-0.8-1.2-1.5
			c-0.1-3.1,0.2-6.1,1.1-9c0.4-1.2,0.3-2.5,0.3-3.7C222.4,36.2,224.8,37.4,227.4,37.1z"/>
		<path class="st10" d="M156.6,218.5c-2.2-0.5-3.9-2.1-5.7-3.2c-0.1-0.6,0.4-1.7-0.6-1.7s-2.2-0.8-2.9,0.6
			c-3.8-0.5-7.1,1.1-10.4,2.5c-4.5,1.9-9.3,3.3-14,4.8c-0.6,0.2-1.2,0.4-1.4-0.5c3.4-1.3,6.8-2.6,10.2-3.8c6-2.2,11.9-4.7,17.7-7.5
			c1.5-0.7,2.4-0.5,3.5,0.7c2.1,2.4,3.7,5,4.8,8C157.3,218.4,156.9,218.5,156.6,218.5z"/>
		<path class="st4" d="M152.7,100.2c0.9,0.1,1.5,0.7,2.1,1.3c0.1,1-0.6,1.8-0.9,2.7c-3,9.6-4.2,19.6-6.2,29.5
			c-0.3,1.4-0.9,3-0.2,4.5c0.7,1.4,0.9,2.9,0.8,4.5c-1.3-0.5-1.9-1.8-2.9-2.6c0.3-6.2,1.4-12.4,2.6-18.5c1.3-6.7,2.8-13.5,4.2-20.2
			C152.3,101,152.3,100.5,152.7,100.2z"/>
		<path class="st2" d="M238.5,116.9c0.9-0.4,1.9-0.5,2.9-0.5c-0.8,5.4-2.2,10.7-3.7,15.9c-3.4,0.3-3.3,0.2-2.7-3.3
			C235.6,124.8,236.8,120.8,238.5,116.9z"/>
		<path class="st10" d="M51.1,233.9c0.1,1.2-0.8,1.8-1.7,2.3c-2.5,1.6-3.1,4-3.4,6.7c-0.2,1.4,1.2,2,1.5,3.1c-1.4,0.9-2.8,0.8-4-0.1
			c-1.2-0.9-1.1-2.2-0.9-3.6c0.4-2.3,0.9-4.7,1.6-6.9c0.4-1.2,1.2-1.7,2.4-1.7C48.1,233.8,49.6,233.8,51.1,233.9z"/>
		<path class="st8" d="M157.6,233c-4.4,1.3-8.4,1.3-12.4-1c-2-1.2-3.1-3.1-4.3-4.9c-0.4-0.7-0.2-1.2,0.4-1.7
			c0.7-0.5,0.9,0.2,1.2,0.6c3.3,3.7,7.4,5.2,12.3,4.5c1.2-0.2,2.1-0.6,2,1.2C156.9,232.1,157.3,232.5,157.6,233z"/>
		<path class="st10" d="M155,147.1c0.3,1.6,0.5,3.2,0.8,4.9c-2.9-0.9-5.2-2.7-7.5-4.5c-0.2-1.5-0.7-3,0.1-4.4
			C150.6,144.3,152.8,145.7,155,147.1z"/>
		<path class="st8" d="M229.5,158.3c0.4,0.1,0.8,0.1,1.1-0.2c0.3,0,0.5,0,0.8,0c-0.2,1.2-0.5,2.3-0.7,3.5s-1.3,1.1-2.1,1.4
			c-0.8,0.3-1.7,0.6-2.6,0.4c-0.3-0.5-0.6-0.3-0.7,0.1c-0.7,0.3-1.4,0.3-2.1,0.3c-0.3-0.4-0.5-0.4-0.7,0.1c-0.9,0.2-1.7,0.2-2.6,0.2
			c0.2-1.3,1.4-1.1,2.2-1.3c2.1-0.4,2.9-1.2,3.3-3.4c1.3-0.4,2.7-0.3,3.9-0.9C229.3,158.4,229.4,158.4,229.5,158.3z"/>
		<path class="st10" d="M225.2,159.3c-0.4,2.2-1.2,3-3.3,3.4c-0.8,0.2-2,0-2.2,1.3c-1.6,0.2-3.3,0.2-4.9,0c0.2-0.9,1-1.2,1.6-1.7
			c0.9-0.7,1.7-1.5,1.6-2.7C220.4,159.4,222.8,159.4,225.2,159.3z"/>
		<path class="st2" d="M188.5,44.7c0.6-0.1,0.6-0.6,0.6-1.1c0.3-3.3,1.3-6.5,2.2-9.7c0.2-0.5,0.3-1.4,1-1.2c0.6,0.2,0.3,1,0.2,1.6
			c-0.3,1.7-0.7,3.4-0.9,5c-0.3,2.1,0,4.1,0.9,6.1c0.3,0.5,0.6,1,0.5,1.7C191.3,46.8,189.6,46.3,188.5,44.7z"/>
		<path class="st10" d="M225.5,32.6c0,0.9-0.6,0.6-1.1,0.5c-6.8-1.7-13.6-3-20.6-4c-0.8-0.1-1.6-0.3-2.3,0c-1.3,0.6-2.1,0-2.7-1.1
			c3.4,0,6.7,0.4,10,1c2.4,0.4,4.8,0.4,7.2,1C219.2,30.8,222.5,31.2,225.5,32.6z"/>
		<path class="st7" d="M189.9,76.4c-3-0.6-6.1-0.8-9.1-0.6c-2,0.1-4,0.5-5.9,0.7c-0.2-0.2-0.5-0.4-0.7-0.7c0.3-0.7,0.6-1.4,1.2-1.8
			c0.1,1.2,0.9,0.6,1.4,0.5c4.2-0.6,8.5-0.6,12.7,0.2C189.6,75.4,189.7,75.9,189.9,76.4z"/>
		<path class="st7" d="M164.8,86.9c0.6,1.4-0.4,2.6-0.9,3.6c-1.5,2.9-0.9,5.5,0.2,8.2c-4.2-1-4.7-1.8-3.2-5.7
			C161.8,90.7,162.9,88.5,164.8,86.9z"/>
		<path class="st10" d="M144.2,148.7c2.3,1.3,3.3,2.8,3.3,5.2c0,3.4,0.9,6.7,0.5,10.2C146.7,159,145.5,154,144.2,148.7z"/>
		<path class="st10" d="M187,62c1.4-1.8,1.6-4.1,2.1-6.2c2.6,0.4,5,1.3,7.5,2.1c-0.9,0.6-1.8,0.5-2.7,0.2c-1.5-0.5-2.3,0.1-2.9,1.4
			c-0.8,1.7-1.8,3.2-3.9,3.4C187,62.6,187,62.3,187,62z"/>
		<path class="st8" d="M222.7,66.5c1,0.5,1,1.6,0.9,2.3c-0.1,1.3-1.3,1.1-2,0.5c-1.1-1-1.8-2.6-4-1.3c1.6-1.8,1.3-3.2,0.2-4.6
			c-0.5-0.6-0.7-1.2-0.6-2c0.7-0.1,1.4-0.1,2.1,0.1c0,0.7,0,1.4,0.3,2C220.4,65,220.6,66.7,222.7,66.5z"/>
		<path class="st7" d="M221.8,81.6c-1.1-0.9-2.6-0.4-3.7-1.2c0.4-0.4,0.7-0.7,1.1-1.1c3.2,0.4,6.1,1.3,8.9,2.9c0,0.5,0,1,0,1.5
			c-1.4-0.4-2.7-0.7-4.1-1.1C223.2,82.3,222.5,81.9,221.8,81.6z"/>
		<path class="st10" d="M206.9,34.5c-3.2,0.6-6.3,0-9.4-0.8c-1.2-0.3-1.4-0.8-1-1.8C200,32.5,203.4,33.6,206.9,34.5z"/>
		<path class="st8" d="M148.4,143c-0.7,1.5-0.3,3-0.1,4.4c-3.3-2.4-3.8-3.7-2.9-7.4c1,0.8,1.6,2.1,2.9,2.6
			C148.3,142.8,148.3,142.9,148.4,143z"/>
		<path class="st10" d="M222.7,66.5c-2.1,0.2-2.3-1.5-2.9-2.8c-0.3-0.7-0.4-1.3-0.3-2c1.2,0,2.4,0,3.6,0
			C222.8,63.2,222.6,64.8,222.7,66.5z"/>
		<path class="st10" d="M215.9,58.3c1.8-1,3.8-0.3,5.7-0.4c1.4-0.1,2.3-0.5,2.2-2.1c0.5-0.4,1.3,0.2,1.7-0.5
			c1.1,0.5,1.4,1.1,0.4,2.1c-0.3,0.3-0.4,0.7-0.7,1C222.1,58.7,219,58.8,215.9,58.3z"/>
		<path class="st8" d="M225.2,58.5c0.2-0.3,0.4-0.8,0.7-1c1-1,0.7-1.6-0.4-2.1c0.9-0.4,1.9-1.4,2.9-0.7c1.3,0.9,0.9,2.9-0.7,3.5
			C226.9,58.5,226.1,58.6,225.2,58.5z"/>
		<path class="st10" d="M72.5,243.4c1.8-2.4,3.9-4.5,7-5.2C77.5,240.4,75.7,242.8,72.5,243.4z"/>
		<path class="st4" d="M127.4,107.6c-1.2-0.2-1.8-1-2-2.1c-0.2-1.6-0.3-3.1,0.1-4.7c0.3,0.2,0.5,0.3,0.8,0.5
			c-0.3,1.4,0.6,2.3,1.5,3.2C127.2,105.5,127.3,106.5,127.4,107.6z"/>
		<path class="st10" d="M191.7,50.9c-0.8,1.2-0.2,2.1,0.7,2.9c-1.2-0.3-2.5-0.5-3.6-1.3c-0.2-0.9-0.6-1.9-0.3-2.8
			c1.1,0.2,2,1.1,3.2,0.8l0,0C191.3,50.6,191.6,50.7,191.7,50.9z"/>
		<path class="st8" d="M188.4,49.6c-0.2,1,0.2,1.9,0.3,2.8c-0.5-0.2-1-0.4-1.4-0.6c-1-0.6-1.9-1.2-1.2-2.6c0.8-1.4,1.7-1.6,3.1-0.6
			C189,49.1,188,48.8,188.4,49.6z"/>
		<path class="st10" d="M148.3,220.6c0.2-1.1,1.2-0.8,1.7-0.6c1.9,0.7,3.8,1.5,5.8,1.7c-1.2,0.7-2.4,0.3-3.6,0
			C150.9,221.4,149.6,221,148.3,220.6z"/>
		<path class="st2" d="M236.1,138c-1,0-1.4-0.6-1.2-1.5c0.2-1.2,1.1-1,1.9-0.9C236.7,136.4,236.6,137.3,236.1,138z"/>
		<path class="st2" d="M240,110.9c-0.8,0.2-1.7,0.7-2.3,0c-0.3-0.3,0.1-0.9,0.4-1.1C239.1,109.3,239.3,110.5,240,110.9z"/>
		<path class="st9" d="M156,95.4c0.8-0.3,1.5-1.1,2.2-0.3c0.2,0.3,0.2,1-0.1,1.1C157.3,96.7,156.7,95.9,156,95.4z"/>
		<path class="st10" d="M194.5,50.9c-0.6,1.1-1.4,0.8-2.2,0.2c0-0.5-0.2-0.7-0.7-0.7l0,0c-0.3-0.2-0.5-0.5-0.8-0.7
			C192.1,49.9,193.3,50.2,194.5,50.9z"/>
		<path class="st8" d="M156.6,218.5c0.4,0,0.8,0,1.2-0.1c0.5,0.8,0.5,1.6-0.2,2.3C156.7,220.2,156.7,219.3,156.6,218.5z"/>
		<path class="st5" d="M190.9,49.7c0.3,0.2,0.5,0.5,0.8,0.7c-1.2,0.4-2.1-0.5-3.2-0.8c-0.4-0.8,0.6-0.6,0.8-1
			c0.3,0.2,0.6,0.4,0.9,0.5C190.2,49.6,190.6,49.7,190.9,49.7L190.9,49.7z"/>
		<path class="st7" d="M191.9,28.6c-0.1,0.6,0.5,0.7,0.7,1.1c0,0.3,0,0.6-0.1,0.8c-0.6-0.3-1.2-0.7-1.8-1
			C191,28.9,191.4,28.6,191.9,28.6z"/>
		<path class="st10" d="M220.6,55.8c-0.9,0.5-1.6,0.2-2.2-0.7C219.3,54.8,219.9,55.4,220.6,55.8z"/>
		<path class="st10" d="M204.5,163.4c0.5-0.5,1-0.6,1.5,0.1C205.4,163.6,204.9,163.7,204.5,163.4z"/>
		<path class="st2" d="M231.3,158.1c-0.3,0-0.5,0-0.8,0c0.2-0.5,0.5-0.8,1-0.8C231.6,157.6,231.6,157.9,231.3,158.1z"/>
		<path class="st10" d="M225.2,163.5c0.2-0.4,0.4-0.6,0.7-0.1C225.7,163.6,225.5,163.6,225.2,163.5z"/>
		<path class="st10" d="M209.8,163.8c0.3-0.4,0.5-0.4,0.7,0C210.3,164,210.1,164,209.8,163.8z"/>
		<path class="st10" d="M222.3,163.8c0.2-0.4,0.5-0.5,0.7-0.1C222.8,164,222.6,164,222.3,163.8z"/>
		<path class="st10" d="M223.8,55.2c0.2,0,0.4,0,0.6,0v0.1C224.2,55.3,224,55.3,223.8,55.2C223.8,55.3,223.8,55.2,223.8,55.2z"/>
		<path class="st10" d="M190.9,49.7c-0.3,0-0.7-0.1-0.8-0.5C190.4,49.4,190.8,49.3,190.9,49.7z"/>
		<path class="st6" d="M102.9,72.8c-15.1,2.5-30.1,5.6-45,9.4c-5.8,1.5-11.4,3.2-17.2,4.8c-1.1-1.1-2.5-0.4-3.8-0.5
			c-1.6-0.1-2.4,0.9-2.6,2.6c-3,1-6,2-9,3c-0.2-0.8-0.8-0.6-1.3-0.6c-1.6-0.1-3.1,0.4-4.5,0.8c-3.7,1.2-7.7-1.4-9.4-3.8
			c-1.2-1.7-1.2-3.8-2-5.6c1.6-0.6,2.9,0.1,4.2,0.8c2,1,4.1,1.9,6.4,1.8c3.4-0.1,6-1.6,7.9-4.4c0.6-0.8,1-1.8,1.5-2.6
			c2-3.4,5.5-4.6,9.2-3c0.7,0.3,1.4,0.7,2,1.1c5.2,3.2,11,3,15.9-0.6c1.6-1.2,3-2.5,4.5-3.8c3.5-3,7.3-4,11.6-1.6
			c3.2,1.8,7.7,0.5,10-2.4c0.4-0.6,0.8-1.2,1.3-1.7c2.7-3.4,6.1-4.4,9.7-2.2c5.8,3.5,11.4,1.5,14.7-3.1c1.3-0.2,2.4-0.7,3.6-1.3
			c-0.5-0.7-1.5-0.1-1.7-0.9c1-0.8,2.1-1.2,3.4-1.1c0,0.7-0.1,1.4-0.1,2.1c0,2.8-0.8,5.4-2.6,7.6c-1.5,1.8-3.5,3-5.6,3.8
			C103.2,71.6,102.8,72,102.9,72.8z"/>
		<path class="st10" d="M8.1,82.9c0.8,1.8,0.8,3.9,2,5.6c1.7,2.4,5.7,5,9.4,3.8c1.4-0.5,2.9-1,4.5-0.8c0.5,0,1.1-0.1,1.3,0.6
			c-3.7,1.5-7.5,3-11.2,4.6c-0.7,0.3-1.1,0.1-1.6-0.3c-2.9-2.7-5.4-5.7-6.6-9.6C5.2,84.6,6,83.3,8.1,82.9z"/>
		<path class="st10" d="M102.9,72.8c-0.1-0.9,0.3-1.2,1.1-1.5c2.2-0.8,4.1-2,5.6-3.8c1.8-2.2,2.5-4.8,2.6-7.6c0-0.7,0-1.4,0.1-2.1
			c2.2,0.4,3,2,3.2,3.9c0.2,2.8-0.2,5.6-0.9,8.3c-0.3,1-0.9,1.6-2,1.7C109.4,72,106.1,72.4,102.9,72.8z"/>
		<path class="st10" d="M34.3,89.1c0.2-1.7,1-2.7,2.6-2.6c1.3,0.1,2.7-0.6,3.8,0.5C38.7,88,36.5,88.5,34.3,89.1z"/>
		<path class="st10" d="M108.9,58.8c0.3,0.8,1.2,0.2,1.7,0.9c-1.2,0.6-2.3,1.1-3.6,1.3C107.4,60.1,108,59.3,108.9,58.8z"/>
		<path class="st1" d="M126.3,141.5c-0.2,15.1-7.1,26.6-19.5,35c-10.2,6.9-21.6,10.2-33.8,9.7c-17.8-0.7-31.4-8.7-39.4-24.9
			c-6.8-13.9-4.8-29.5,5.8-41.2c8.6-9.5,19.5-14.6,31.9-16.8c11.1-1.9,21.9-0.6,32,4.4c12,5.9,20.6,14.7,22.7,28.5
			C126.2,138,126.3,139.7,126.3,141.5z M72.5,182c10.7-0.2,19-2.1,26-5.5c9.6-4.7,17-11.8,20.8-21.9c4.3-11.4,3.6-22.4-4-32.3
			c-5.5-7.3-13.4-11.3-22-13.5c-17.2-4.6-33-1.2-46.6,10.1c-13.8,11.4-16.8,27.9-7.8,43.5C46.9,176.1,59.8,181.7,72.5,182z"/>
		<path class="st4" d="M131.2,182c0.2,1,0.7,0.7,1.3,0.4c1.7-1,3.4-1.9,5-3c1.1-0.7,1.9-0.3,2.8,0.3c0.9,0.6,0.6,1.4,0.3,2.3
			c-0.8,2.4,0.4,4.6,0.5,7c0.1,1.4,0.2,2.7,0,4.1c-0.1,1.1-0.7,2.2-2.1,2.3c0-0.1,0-0.2,0-0.4c-0.2-1,0.6-2.6-0.5-2.9
			c-0.9-0.3-2.2,0.7-2.9,1.6c-4.2,4.7-10.1,6.1-16,8.6c1.2-1.8,2.7-2.7,3.8-3.9c3.2-3.5,5-7.7,6.8-11.9c0.5-1.1,0.8-2.2,0.3-3.4
			C130.3,182.3,130.6,182,131.2,182z"/>
		<path class="st4" d="M135.1,151.6c1.5,3,1.8,6.4,2.8,9.5c0.3,1,0.7,2,0.8,3.1c0.2,1.6,1.3,3.2-0.2,5c-0.6,0.6-0.2,2.2-0.2,3.3
			c0,3.5-3.4,8-6.8,9.1c1.9-5.3,1.9-10.8,1.8-16.3c-0.1-2.5-0.3-4.9-0.7-7.4C132.2,155.3,133.4,153.4,135.1,151.6z"/>
		<path class="st2" d="M117.2,94c0.1,2.3-0.6,4.4-1.2,6.6c-0.4,1.3-1.2,2.5-2.9,2.4c-0.6,0-0.9-0.2-0.5-0.9c1.6-3.1,2.6-6.4,3.3-9.9
			C116.9,92.3,117,93.2,117.2,94z"/>
		<path class="st4" d="M117.2,94c-0.2-0.8-0.3-1.7-1.4-1.8c0-0.8-0.1-1.7,1.1-1.8c0.3,1.3,1.5,2.2,1.4,3.6
			C117.9,94,117.6,94,117.2,94z"/>
		<path class="st9" d="M163.5,160.3c1.6-0.1,3,0.7,4.4,1.2c6.7,2.1,13.4,4.1,20.3,5.4c4.3,0.8,8.7,1.1,13,1.6c2.1,0.3,4.1,0.6,6.2,1
			c-2.7,1.1-5.5,0.9-8.2,0.7c-5.5-0.5-10.9-1.2-16.3-2.3c-5.4-1.1-10.7-2.7-15.9-4.3c-2.1-0.7-2.3-0.6-2.6,1.6
			c-0.1,0.7,0.5,1.7-0.8,1.9c-0.4-0.6-0.7-1.5-1.7-1.2c-0.9,0.3-1.1,1-1.1,1.8c-0.1,0.9-0.1,1.8,0.4,2.6c-2.6,0-2.9-0.3-2.9-3
			c0-0.8,0.3-1.6,0.4-2.4c0.1-1.1,0.5-1.5,1.6-1.1s1.7-0.1,1.6-1.3C163.6,162.4,163.8,162.1,163.5,160.3z"/>
		<path class="st9" d="M200.2,198.3c-0.2,1.2-0.3,2.9-2.2,3.4c-0.3,0.1-0.5,0.2-0.6,0.6c-0.6,1.4-1.4,1.7-2.6,0.9
			c-1.3-0.8-2.1-3.4-1.7-5.3c0.4-1.7,1.9-3.1,3.6-3.3C198.8,194.2,200.2,195.5,200.2,198.3z M198.5,197.2c-0.1-0.7-0.5-1.4-1.3-1.2
			c-1.1,0.2-2.1,0.7-2,2.1c0,0.8,0.5,1.5,1.3,1.3C197.6,199.2,198.5,198.6,198.5,197.2z"/>
		<path class="st10" d="M162.4,176c-0.9,1.3-0.5,3-0.5,4.6c0,0.6-0.2,1.5-1.1,1.6c-0.5,0-0.9-0.5-1.1-1c-0.3-0.7-0.2-1.6,0.5-1.9
			c1.1-0.5,1.2-1.1,0.5-2c-0.3-0.4-0.2-1-0.2-1.6c0-0.8,0-1.9,1.1-1.8C162.5,173.9,162.4,174.9,162.4,176z"/>
		<path class="st9" d="M154.4,158.3c-0.1-0.1-0.2-0.2-0.3-0.3c0-0.5,0.3-0.7,0.7-0.7c0.2,0,0.5,0,0.7,0.1c1.9,1.3,4.3,1.3,6.3,2.3
			c-0.7,0.6-0.6,1.5-0.4,2.3c-2.2-0.5-4-1.9-5.8-3C155.2,158.7,154.9,158.4,154.4,158.3z"/>
		<path class="st10" d="M203.6,205.8c-0.1,0.9-0.1,2-1.2,1.9c-1.3-0.1-1.8-1.2-1.9-2.4c0-1,0.5-1.8,1.5-1.7
			C203.4,203.7,203.5,204.9,203.6,205.8z"/>
		<path class="st10" d="M161.3,170.2c-0.5-0.8-0.5-1.7-0.4-2.6c0.1-0.8,0.2-1.6,1.1-1.8c1-0.3,1.3,0.6,1.7,1.2
			C163.7,169.6,163.3,170.2,161.3,170.2z"/>
		<path class="st10" d="M161.3,161.9c-0.2-0.8-0.3-1.6,0.4-2.3c0.7-0.2,1.3,0.2,1.8,0.6c0.3,1.9,0.1,2.1-1.6,2
			C161.7,162.2,161.5,162,161.3,161.9z"/>
		<path class="st1" d="M196.5,180.2c0.7,0.1,1.1,0.3,1.1,0.9c0,0.7-0.5,0.9-1.1,0.8c-0.5-0.1-0.9-0.3-0.8-0.9
			C195.7,180.4,196.2,180.3,196.5,180.2z"/>
		<path class="st9" d="M190.6,209.5c-0.1,0.5-0.3,0.9-0.8,0.9s-0.7-0.4-0.6-0.9c0-0.5,0.2-1,0.7-1
			C190.4,208.6,190.5,209,190.6,209.5z"/>
		<path class="st1" d="M202,188.1c0.1,0.3,0.5,0.6,0,1c-0.2,0-0.4,0-0.5,0c-0.5-0.1-1.4,0.2-1.4-0.7c0.1-0.7,0.9-0.3,1.4-0.3
			C201.6,188.1,201.8,188.1,202,188.1z"/>
		<path class="st6" d="M184,80.4c0.7,0.4,0.8,1.1,1.1,1.7c0,1.4-0.6,2.4-1.7,3.4c-1.3,1.1-2.5,2.3-3.5,3.8c-1.4,2.2-5.9,2.5-7.7,0.6
			c-1.1-1.2-1.2-2.8-0.5-4.2c1.2-2.9,3.4-4.9,6-6.6c1.8-0.2,3.3,1,5.1,1C183.2,80.2,183.6,80.3,184,80.4z"/>
		<path class="st8" d="M170.8,93c1.6,0,2.9,1.4,2.9,3c0,1.3-1.1,2.3-2.5,2.2c-1.9-0.1-3.3-1.3-3.2-2.9C168,94.1,169.3,93,170.8,93z"
			/>
		<path class="st8" d="M212.7,90.5c-0.7-0.1-2,0.1-2-1.1c0-1,1.1-1.6,2.1-1.5c0.9,0.1,2.1,0,2.1,1.3
			C214.9,90.7,213.7,90.4,212.7,90.5z"/>
		<path class="st10" d="M221.9,98.5c-0.6,0.4-1.3,0.9-2,0.2c-0.5-0.5-0.5-1.1-0.1-1.6c0.3-0.4,0.7-0.6,1.2-0.4c0.8,0.3,1,0.9,1,1.7
			C221.9,98.3,221.9,98.4,221.9,98.5z"/>
		<path class="st3" d="M213.9,86.7c-0.3-1.3,0.8-1.8,1.6-1.8c1.2,0,0.7,1.1,0.6,1.8C215.4,86.7,214.6,86.7,213.9,86.7z"/>
		<path class="st3" d="M226,99.9c0.6,0.3,1.1,0.7,1,1.5c0,0.5-0.4,0.9-1,0.8c-0.9-0.1-0.8-0.9-0.8-1.5
			C225.2,100.2,225.3,99.8,226,99.9z"/>
		<path class="st7" d="M221.9,98.5c0-0.1,0-0.1,0.1-0.2c0.5,0.1,1.3-0.3,1.6,0.4c0.2,0.4-0.3,0.8-0.7,0.9
			C222.1,99.7,222.1,99,221.9,98.5z"/>
		<path class="st1" d="M219.1,79.3c-0.4,0.4-0.7,0.7-1.1,1.1c-2.8,0-5.7,0.1-8.5,0.1c-0.3-0.1-0.7-0.4-1-0.4
			c-3.8,0.1-7.3-1.2-11-1.8c-2.2-0.4-4.2-1.4-6.4-1.3c-0.4-0.2-0.9-0.4-1.3-0.6c-0.2-0.5-0.3-1.1-0.5-1.6c5.2,1,10.3,2.6,15.6,3.2
			c4.1,0.5,8.3,0.6,12.4,0.9C218,79,218.6,79.2,219.1,79.3z"/>
		<path class="st5" d="M187,62c0,0.3,0.1,0.6,0.1,0.9c-0.9,1-1.7,2.2-3.5,2.1C184.7,64,185.8,63,187,62z"/>
		<path class="st5" d="M203,221.9c0,3.7-2,7.1-4.9,8c-0.4,0.1-0.9,0.6-1.3,0.2c-0.5-0.4,0-0.9,0.1-1.3c0.8-1.9,0.8-4.1,2.9-5.5
			c0.7-0.5,0.4-2.3,1.6-3c0.4-0.2,0.7-0.8,1.2-0.6c0.6,0.2,0.2,0.8,0.3,1.3C203.1,221.3,203,221.6,203,221.9z"/>
		<path class="st8" d="M147.3,214.2c0.7-1.4,2-0.7,2.9-0.6c1,0,0.5,1.1,0.6,1.7C149.6,214.9,148.5,214.5,147.3,214.2z"/>
		<path class="st4" d="M209.1,158.9c-1.2-0.1-2.4-0.3-3.5-0.4c0-1.5-0.9-2.3-2.3-2.6c-1.2-0.3-2.4-0.4-3.7,0
			c-0.8,0.3-1.8,0.1-2.3-0.6c-0.4-0.6,0.3-1.4,0.7-1.9c0.9-1,1.9-1.7,3.2-2.3c3-1.3,5.6-3.4,7.1-6.5c0.3-0.7,1.2-1.8,0-2.7
			c0.8-0.9,1.6-1.9,2.3-2.8c2.1,0.9,3.5,0.1,3.2-1.9c-0.1-0.6-0.2-1.2-0.6-1.6c-0.5-0.6-0.5-1.3-0.5-2c0-0.9,0-1.8,0-2.7
			c1.5-0.7,1.3-2.1,1.1-3.2c-0.3-1.4-1.5-1.7-2.8-1.5c-1.1-1-2.1-2.1-3.2-3.1c0.3-0.8-0.9-1.9,0.2-2.4c2.6-1.1,4.4-4.6,8-2.7
			c0.4,0.2,0.9,0.3,1.4,0.3c1.1,0,1.6,0.2,1.6,1.5c0,0.8,0.8,1.5,1.4,0.7c0.7-0.9,1.8-1.9,1-3.4c0.7-0.1,1.4-0.1,2.1,0.2
			c-0.1,1.2,0.6,1.7,1.6,2c0.7,0.2,1.5,0.6,0.9,1.5c-1.3,2-0.9,4.4-1,6.6c-0.4,4.7-2.1,8.9-4,13.1c-1,2.1-1.3,4.4-1.8,6.6
			c-0.5,2.3-0.7,4.7-1.6,6.9c-1,2.4-2.9,3.5-5.3,3.4C210.7,157.2,209.8,157.8,209.1,158.9z"/>
		<path class="st10" d="M229.1,117.1c0.2-0.3,0.3-0.6,0.5-0.9c0.6-0.6,1.1-1.4,2.1-1c1.1,0.3,0.4,1.3,0.6,2
			C231.3,117.3,230.2,117.3,229.1,117.1z"/>
		<path class="st2" d="M229.5,158.3c-0.1,0-0.2,0-0.3,0.1C229.2,158.2,229.3,158.1,229.5,158.3z"/>
		<path class="st5" d="M154.8,157.3c-0.4,0-0.7,0.2-0.7,0.7c-1.4-1-2.5-2.2-3.4-3.7C152.2,155,153.8,155.8,154.8,157.3z"/>
		<path class="st4" d="M221.3,117.1c0.8,1.5-0.4,2.4-1,3.4c-0.6,0.8-1.4,0.1-1.4-0.7c0-1.3-0.6-1.5-1.6-1.5c-0.5,0-1-0.1-1.4-0.3
			c-3.6-1.9-5.4,1.6-8,2.7c-1.1,0.5,0.2,1.6-0.2,2.4c-1.3-0.6-2.5-1.5-3.8-1.9c-5.2-1.5-10.5-2.2-15.9-1.2
			c-4.3,0.7-8.3,2.1-11.7,4.8c-6.8,5.5-6.4,13.9,0.7,19c4,2.8,8.5,3.9,13.3,4.1c6.8,0.3,12.9-1.7,18.1-6.1c1.2,0.9,0.4,2,0,2.7
			c-1.4,3.1-4,5.2-7.1,6.5c-1.3,0.6-2.4,1.3-3.2,2.3c-0.4,0.5-1.1,1.3-0.7,1.9c0.5,0.6,1.5,0.8,2.3,0.6c1.3-0.4,2.4-0.3,3.7,0
			c1.4,0.3,2.3,1.1,2.3,2.6c-11.8-1-23.5-2.7-34.9-6c-3.8-1.1-7.7-2.2-11.3-3.9c0.2-1-0.3-1.7-0.8-2.4c-1.5-1.9-2.6-4-3.1-6.3
			c-0.7-3.5-0.8-7-0.4-10.6c0.9-7.6,2.2-15.1,4.9-22.4c0.4-1,0.7-1.9,0.6-2.9c0.2,0,0.4,0,0.7,0.1c3.5,1.8,7.2,2.7,10.9,3.8
			c13.1,4,26.5,6.7,40.1,8c2,0.2,4,0.6,6,0.9c0,0.3-0.1,0.6,0.3,0.6c0.4,0,0.3-0.3,0.4-0.6C219.6,116.7,220.5,116.9,221.3,117.1z"/>
		<path class="st4" d="M160.5,104c0.1,1-0.2,2-0.6,2.9c-2.7,7.2-4,14.7-4.9,22.4c-0.4,3.6-0.3,7.1,0.4,10.6c0.5,2.4,1.6,4.4,3.1,6.3
			c0.6,0.7,1,1.5,0.8,2.4c-1.5-0.3-2.9-1-4.3-1.6c-2.2-1.4-4.5-2.7-6.7-4.1c0-0.1,0-0.2,0-0.3c0.1-1.6-0.1-3.1-0.8-4.5
			c-0.7-1.6-0.1-3.1,0.2-4.5c2-9.8,3.2-19.8,6.2-29.5c0.3-0.9,1-1.6,0.9-2.7c1.9,0.5,3.4,1.8,5.4,2.1
			C160.3,103.7,160.4,103.9,160.5,104z"/>
		<path class="st10" d="M160.5,104c-0.1-0.1-0.2-0.3-0.3-0.4c0.1-0.2,0.1-0.5,0.2-0.7c0.3-0.5,0.6-1.3,1.3-0.9s0,0.9-0.2,1.3
			c-0.1,0.2-0.1,0.4-0.2,0.7C160.9,104,160.7,104,160.5,104z"/>
		<path class="st4" d="M218.8,116.8c-0.1,0.2,0,0.6-0.4,0.6s-0.3-0.4-0.3-0.6C218.3,116.8,218.6,116.8,218.8,116.8z"/>
		<path class="st5" d="M191.2,77c2.2-0.1,4.2,1,6.4,1.3c3.7,0.6,7.2,1.9,11,1.8c0.3,0,0.7,0.2,1,0.4c-0.8,1.5-2.4,1.4-3.7,1.6
			c-2,0.4-3.9,2.1-6.1,1.1C196.3,81.9,193.4,79.9,191.2,77z"/>
		<path class="st10" d="M184,80.4c-0.4-0.1-0.8-0.2-1.2-0.3c-0.1-0.2-0.2-0.4-0.3-0.6s-0.3-0.4-0.4-0.6c-0.6-0.9-0.2-1.5,0.6-1.8
			c1.2-0.5,3.3,0,3.5,0.9c0.3,0.9,0.2,1.8-1.1,2C184.7,80,184.2,79.9,184,80.4z"/>
		<path class="st8" d="M221.8,81.6c0.7,0.3,1.5,0.7,2.2,1c0.1,0.8,1.3,1.7,0.1,2.5c-0.8,0.5-1.7,0.5-2.3-0.5
			C221.1,83.6,221.1,82.6,221.8,81.6z"/>
		<path class="st5" d="M191.6,50.4c0.5,0,0.7,0.2,0.7,0.7c-0.2-0.1-0.4-0.1-0.6-0.2C191.6,50.7,191.3,50.6,191.6,50.4z"/>
		<path class="st11" d="M72.5,182c-12.7-0.2-25.6-5.9-33.6-19.6c-9.1-15.6-6-32.2,7.8-43.5c13.6-11.2,29.5-14.7,46.6-10.1
			c8.6,2.3,16.4,6.2,22,13.5c7.5,9.9,8.3,21,4,32.3c-3.8,10.1-11.2,17.2-20.8,21.9C91.5,179.9,83.1,181.7,72.5,182z M60.2,162.9
			c5.3-0.3,10.3-1,14.9-3.1c0.6-0.3,1-0.3,1.6,0c8.9,3.5,17.5,2.7,25.4-2.7c7.6-5.2,12-12.4,11.1-22c-0.7-7.5-4.4-13.1-11.6-15.8
			c-6.8-2.5-12.8-0.8-17.8,4.4c-1.7,1.8-3.3,3.7-4.9,5.6c-2,2.4-4.3,4.5-7.1,5.8c-3.8,1.8-7.7,1.9-11.7,0.8c-4.3-1.2-8.6-1-12.8,0.6
			c-4.6,1.8-7.4,5.9-7.2,10.5c0.2,3.4,1.4,6.4,3.5,9C48.1,161.4,54,162.8,60.2,162.9z"/>
		<path class="st10" d="M198.5,197.2c0,1.4-0.9,2-2,2.2c-0.8,0.1-1.3-0.5-1.3-1.3c-0.1-1.4,0.9-1.9,2-2.1
			C198,195.8,198.4,196.5,198.5,197.2z"/>
		<path class="st12" d="M208.2,141.8c-5.2,4.4-11.3,6.5-18.1,6.1c-4.8-0.2-9.3-1.3-13.3-4.1c-7.1-5.1-7.5-13.5-0.7-19
			c3.4-2.8,7.4-4.1,11.7-4.8c5.5-0.9,10.7-0.3,15.9,1.2c1.3,0.4,2.6,1.2,3.8,1.9c1.1,1,2.1,2.1,3.2,3.1c0.8,1.5,1.4,3,1.8,4.6
			c0,0.9,0,1.8,0,2.7c-0.5,1.9-1.2,3.8-2.1,5.5C209.8,140,209,140.9,208.2,141.8z M207,125c0-0.9-0.5-1.3-1.3-1.2
			c-0.4,0-1.1-0.1-1,0.4c0.1,0.9,0.8,1.4,1.6,1.6C206.8,125.9,206.9,125.5,207,125z"/>
		<path class="st4" d="M210.5,139.1c0.9-1.7,1.7-3.6,2.1-5.5c0.1,0.7,0.1,1.4,0.5,2c0.3,0.5,0.5,1.1,0.6,1.6
			C214,139.1,212.6,139.9,210.5,139.1z"/>
		<path class="st4" d="M212.6,130.9c-0.4-1.6-1-3.2-1.8-4.6c1.3-0.2,2.5,0.1,2.8,1.5C213.9,128.8,214.1,130.2,212.6,130.9z"/>
		<path class="st1" d="M60.2,162.9c-6.2-0.1-12.1-1.5-16.5-6.8c-2.1-2.6-3.4-5.6-3.5-9c-0.2-4.6,2.6-8.7,7.2-10.5
			c4.2-1.6,8.4-1.8,12.8-0.6c4,1.1,7.9,0.9,11.7-0.8c2.9-1.3,5.1-3.5,7.1-5.8c1.6-1.9,3.2-3.8,4.9-5.6c5-5.2,11-6.9,17.8-4.4
			c7.2,2.7,10.9,8.3,11.6,15.8c0.9,9.6-3.6,16.7-11.1,22c-7.9,5.4-16.5,6.1-25.4,2.7c-0.6-0.2-1.1-0.2-1.6,0
			C70.5,161.9,65.5,162.6,60.2,162.9z M58,140.1c4.9,3.7,9.3,7.9,14,11.8c6.4,5.2,13.5,6.8,21.4,4.7c10.8-2.8,17.6-13.7,14.9-24
			c-1.3-4.8-4.2-8.3-9.1-9.7c-5-1.4-9.2,0.3-12.6,4.2c-1.4,1.6-2.9,3-4.2,4.7c-5.6,7.3-12.9,10-21.9,8.7
			C59.7,140.2,58.9,140.2,58,140.1z M60.4,158.6c3.2-0.1,6.3-0.4,9.3-1.3c1.3-0.4,1.3-0.9,0.3-1.7c-3.8-2.8-6.9-6.2-10.6-9.1
			c-2.3-1.9-4.5-3.9-7.3-5.2c-3.7-1.7-7.5,0.8-7.6,4.8c-0.1,4.6,2.1,8,5.9,10.3C53.6,158.2,57,158.6,60.4,158.6z"/>
		<path class="st10" d="M207,125c0,0.5-0.2,0.9-0.7,0.8c-0.9-0.2-1.5-0.7-1.6-1.6c-0.1-0.5,0.6-0.4,1-0.4
			C206.5,123.7,207,124.1,207,125z"/>
		<path class="st0" d="M58,140.1c0.8,0.1,1.7,0.2,2.5,0.3c9,1.3,16.3-1.4,21.9-8.7c1.3-1.6,2.8-3.1,4.2-4.7
			c3.4-3.9,7.6-5.6,12.6-4.2c4.9,1.4,7.8,4.9,9.1,9.7c2.7,10.2-4.1,21.1-14.9,24c-7.9,2.1-15.1,0.6-21.4-4.7
			C67.3,148,63,143.8,58,140.1z"/>
		<path class="st0" d="M60.4,158.5c-3.4,0-6.8-0.3-9.8-2.2c-3.8-2.3-6-5.7-5.9-10.3c0.1-4,3.9-6.4,7.6-4.8c2.7,1.2,5,3.3,7.3,5.2
			c3.6,2.9,6.8,6.3,10.6,9.1c1,0.8,1,1.3-0.3,1.7C66.7,158.2,63.6,158.4,60.4,158.5z"/>
	</g>
</g>
<polygon class="st1" points="236.5,24.7 250,0 233.3,24 "/>
<path class="st1" d="M238.8,47c1.2,0.9,2.3,2,3.4,3.1l7.8-15.3L238.8,47z"/>
</svg>
