<?xml version="1.0" encoding="utf-8"?>
<!-- Generator: Adobe Illustrator 27.9.1, SVG Export Plug-In . SVG Version: 6.00 Build 0)  -->
<svg version="1.1" id="Layer_1" xmlns="http://www.w3.org/2000/svg" xmlns:xlink="http://www.w3.org/1999/xlink" x="0px" y="0px"
	 viewBox="0 0 250 250" style="enable-background:new 0 0 250 250;" xml:space="preserve">
<style type="text/css">
	.st0{fill:#FCCA1D;}
	.st1{fill:#232121;}
	.st2{fill:#D1CDC5;}
	.st3{fill:#8E1830;}
	.st4{fill:#FDFDFD;}
	.st5{fill:#FFDE83;}
	.st6{fill:#7F3211;}
	.st7{fill:#FCFCFC;}
	.st8{fill:#B21F36;}
	.st9{fill:#D6D5D5;}
	.st10{fill:#FCCD2A;}
	.st11{fill:#FDCF23;}
	.st12{fill:#FB751E;}
	.st13{fill:#6C2009;}
	.st14{fill:#F9F9F9;}
	.st15{fill:#4F1304;}
	.st16{fill:#F3F3F3;}
	.st17{fill:#A33F1F;}
	.st18{fill:#D6D5D2;}
	.st19{fill:#FAFAFA;}
	.st20{fill:#FDDE23;}
	.st21{fill:#FDD42C;}
	.st22{fill:#E3E2E5;}
	.st23{fill:#BDBEC9;}
	.st24{fill:#DD8C93;}
	.st25{fill:#F89043;}
	.st26{fill:#FFFFFF;}
	.st27{fill:#BDBEC0;}
	.st28{fill:#E2E3E4;}
	.st29{fill:#BABBBD;}
	.st30{fill:#F16866;}
	.st31{fill:#D1D8EA;}
	.st32{fill:#E5E6E7;}
	.st33{fill:#FDC91C;}
	.st34{fill:#F9C829;}
	.st35{fill:#CFD6DE;}
	.st36{fill:#606060;}
	.st37{fill:#3C444E;}
	.st38{fill:#BC4633;}
	.st39{fill:#4FB8E8;}
	.st40{fill:#F0F0F0;}
	.st41{fill:#FBFBFB;}
	.st42{fill:#B5EAF7;}
	.st43{fill:#CBECF5;}
	.st44{fill:#D3F6FC;}
	.st45{fill:#FDFCFC;}
	.st46{fill:#FDD228;}
	.st47{fill:#6B230A;}
	.st48{fill:#5C1C07;}
	.st49{fill:#AA4B2C;}
	.st50{fill:#C9C6BE;}
	.st51{fill:#DFDFDF;}
	.st52{fill:#9C9689;}
	.st53{fill:#FC771B;}
	.st54{fill:#FDE43B;}
	.st55{fill:#E6E6E6;}
</style>
<g>
	<g>
		<g>
			<path class="st21" d="M203.2,60.4c-3.1-0.4-5.7-1.2-8.3-1.8c-8.3-1.9-16.6-3.9-25-5.6c-4.8-1-9.6-0.6-14.1,1.5
				c-5.3,2.4-8.7,6.7-10.6,12.1c-1.9,5.4-3.8,10.9-5.1,16.5c-0.9,3.7-2.9,6.9-3.8,10.7c-0.7-0.5-0.8-1.2-1-1.9
				c-1.6-4.9-3.3-9.8-4.9-14.6c-2.7-7.9-9.5-12.9-17.2-12.6c-3.6,0.1-7,1.4-10.4,2.4c-23.2,7.1-46.3,14.2-69.5,21.3
				c-1.5,0.5-3,0.9-4.4,1.3c-1.2,0.4-1.7,0.2-1.2-1.2c1.3-4.4,2.7-8.7,4.5-12.9C38,61.9,46.5,50,57.9,40.2
				c14.6-12.6,31.3-20.4,50.4-23.1c18.4-2.6,36.1-0.2,53,7.4c14.9,6.7,27.4,16.7,37.5,29.6C200.3,56.1,201.7,58,203.2,60.4z"/>
			<path class="st1" d="M164,68.3c3.2-1,6.3-0.3,9.3,0.5c0.9,0.3,1.2,1.2,1.2,2.1c-0.1,4.1,2,6.7,6,7.6c9.8,2.3,19.6,4.6,29.5,7
				c1.9,0.4,3.7,1.1,5.6,1.1c3.3,0.1,5.3-1.3,6.5-4.4c0.4-1.2,1.4-1.4,2.2-1.2c4.4,0.8,8.8,1.9,12,5.4c2.8,3.1,3.3,6.8,2.3,10.7
				c-3.8,15.2-7.7,30.3-11.6,45.5c-3.8,14.8-7.7,29.6-11.5,44.4c-0.1,0.4-0.3,0.8-0.4,1.2c-1.4-0.2-1.9-1.7-3-2.4
				c0.2-0.9,0.4-1.8,0.6-2.6c0.1-0.2,0.2-0.4,0.3-0.6c2.6-10,5.1-20,7.7-30c1.7-6.5,3.3-13.1,4.9-19.7c1.1-2.9,1.6-6,2.4-9
				c1.5-5.6,2.9-11.1,4.1-16.7c0.4-1.5,0.8-3.1,1.2-4.6c0.5-2-0.4-3.4-2.4-3.9c-8.8-1.9-17.7-3.9-26.5-5.9
				c-11.5-2.6-23-5.2-34.5-7.8c-3.5-0.9-6.9-1.8-10.4-2.6c-0.9-0.2-1.8,0.1-2.4,1c-0.3,0.1-0.5,0.4-0.6,0.8c-1.5,4.7-3,9.4-4.2,14.2
				c-4.5,16.9-9.2,33.8-13.7,50.7c-1.7,6.3-3.5,12.6-4.9,19c-0.7,3,0.1,4.2,3,4.9c2.4,0.6,4.7,1.3,7.1,1.9c17,4.6,34.1,8.6,51,13.5
				c3.8,1.1,7.7,1.9,11.6,2.9c1.7,0.4,3.1,0.4,4.5-0.8c0,0.6,0,1.2-0.2,1.8c-2.4,8.5-9.5,26.3-16.6,31.6c-6.3,4.7-13.4,6.9-21.2,6.8
				c-0.7,0-1.5,0.1-1.4-1c0.1-1.5-0.8-2-2-2.3c-4.7-1.2-9.4-2.6-14.2-3.8c-2.2-0.6-4.4-1.2-6.7-1.5c-1.2-0.1-1.8,0.6-2,1.6
				c-0.2,1,0.6,1.5,1.4,1.7c3.9,1.1,7.9,2.2,11.8,3.1c2.4,0.5,4.7,1.1,7,2.1c-1.8,0-3.5,0-5.3-0.3c-5.7-1-11.5-1.7-17.1-3
				c-0.5-0.1-0.9-0.2-0.9,0.5c-0.6,0-1.1-0.1-1.6-0.4c-0.3-1.2-0.9-1.4-1.7-0.4c-4.7-1.2-9.5-2.2-14.1-3.8
				c-5.3-1.8-8.5-6.1-7.3-12.1c1-4.8,5.2-19.9,6.5-24.7c5.5-20,10.9-40,16.4-60c4.4-15.9,8.9-31.8,13.4-47.7
				c0.9-3.3,2.2-6.5,5.2-8.6c0.6-0.4,1.2-1,2-1c0.1,0.8-0.5,1-0.9,1.4c-1,1-2.1,1.8-2.3,3.3c0,0.4-0.2,0.8,0.2,1
				c0.4,0.2,0.7-0.2,0.9-0.5c1.4-2.9,4.2-3.4,6.9-3.9c0.5-0.1,1.2,0.1,1.2-0.5c0-0.6-0.8-0.7-1.3-0.8C165.8,69,164.8,69.1,164,68.3z
				 M189.1,218.6c0,1,0.5,1.6,1.5,1.5c1,0,1.7-0.6,1.7-1.6c-0.1-1-0.8-1.4-1.9-1.4C189.5,217.1,189.1,217.6,189.1,218.6z M154,188.8
				c1.1,0,1.8-0.3,1.8-1.3c0-0.9-0.7-1.6-1.5-1.6c-1,0-1.6,0.7-1.6,1.6C152.6,188.4,153.3,188.8,154,188.8z M202.7,197.1
				c1,0,1.7-0.4,1.6-1.4c-0.1-0.9-0.7-1.5-1.6-1.5c-0.9,0-1.5,0.7-1.6,1.5C201.1,196.7,201.8,197.1,202.7,197.1z"/>
			<path class="st1" d="M136.4,108.3c1.6-5.9,3.1-11.4,4.7-16.9c0.6-2.2,1.6-3.1,3-2.7c1.8,0.6,2.3,1.9,1.7,4.2
				c-5.1,18-10.3,36-15.3,54c-3.7,13.3-7.3,26.6-10.9,40c-1.3,4.9-5.6,20.3-6.9,25.3c-1.4,5.7,0.5,10.6,5.2,14.1
				c1.9,1.4,4.1,2.2,6.4,2.8c14.8,3.8,29.6,7.6,44.4,11.4c6.8,1.8,13.6,3.5,20.5,5c4.9,1,9.6,0.8,13.8-2.2c2.8-1.9,4.2-4.8,5.1-7.9
				c1.6-5.4,3-10.8,4.4-16.3c6.4-25.1,15.6-60.7,22-85.8c3.1-12.1,6.1-24.2,9.3-36.3c2.4-9.3-1.1-15-9.8-18.6
				c-3.8-1.5-7.8-1.9-11.8-2.8c-15.3-3.5-30.6-7-46-10.6c-2.6-0.6-5.2-1.2-7.8-1.8c-5.8-1.3-11.7,0.8-14.4,5.1
				c-0.8,1.2-1.3,2.5-1.7,3.9c-1.2,3.9-2.4,7.8-3.6,11.7c-0.6,1.9-1.5,2.6-2.9,2.2c-1.6-0.5-2.1-1.7-1.5-3.5
				c1.3-4.1,2.7-8.2,3.9-12.3c2.7-8.8,9-13,18.1-11.6c6.7,1,13.2,2.9,19.8,4.3c13.3,3,26.6,5.9,39.9,8.9c4.3,1,8.7,1.6,12.7,3.6
				c3.3,1.7,6.3,3.8,8.4,6.9c3.2,4.6,3,9.5,1.7,14.6c-1.7,6.7-3.5,13.4-5.2,20.1c-0.2,0.8-0.2,1.4,0.4,2.1c0.9,1,1.1,2.2,0.8,3.5
				c-1,4-2.1,8.1-3.2,12.1c-0.4,1.3-1.2,2.5-2.5,2.9c-0.9,0.3-1.1,0.8-1.3,1.6c-4.8,19-9.6,38.1-14.5,57.1c-2.2,8.7-7.2,28-9.5,36.7
				c-1.1,4.2-2.3,8.3-5.4,11.5c-5.1,5.2-11.4,6.3-18.1,5.2c-6.9-1.2-13.7-3.3-20.5-5c-15.7-3.9-31.3-8-47-12
				c-2.9-0.8-5.7-1.8-8.2-3.7c-6.3-4.9-8.4-11.2-6.3-19c3.1-11.6,9.1-33.6,12.2-45.2c0.1-0.5,0.6-1.1,0.1-1.5
				c-0.3-0.2-0.9,0.1-1.4,0.2c-12.5,4.3-24.9,8.8-37.4,13c-13.7,4.6-27.2,9.7-41,13.8c-8.7,2.6-15.9-0.7-19.3-9.2
				c-3.5-8.7-6.2-17.8-9.2-26.7C8.8,144,5.2,133.2,1.6,122.4c-1.2-3.7-2.1-7.6-1.2-11.5c1-4.8,3.9-8,8.5-9.4
				c29-8.9,58.1-17.7,87.1-26.6c5-1.5,10-2.9,14.9-4.5c8.5-2.8,13.8,1.6,16.2,8.7c3,9.1,5.9,18.2,8.9,27.3
				C136,106.9,136.1,107.4,136.4,108.3z M126.7,91.6c-0.3-1.5-0.8-2.9-1.4-4.3c-0.5-1.5-1-2.9-1.5-4.4c-0.4-1.3-0.8-2.6-1.1-3.9
				c-2-4.6-5.3-6.5-9.5-5.5c-2.3,0.6-4.5,1.4-6.8,2.2c-1.6,0.4-3.2,0.8-4.8,1.3c-4.3,1.3-8.6,2.6-13,4c-8.1,2.5-16.1,5-24.2,7.5
				c-0.4,0.1-0.8,0.1-1.1,0.2c-6.7,2.1-13.3,4.1-20,6.2C38.2,96.4,33.1,98,28,99.6c-5.9,1.8-11.9,3.6-17.8,5.4
				c-4.2,1.3-6.4,4.3-6.3,8.7c0,3.8,1.3,7.4,2.5,10.9c3.7,11.2,7.5,22.4,11.3,33.6c1.2,3.6,2.2,7.3,3.9,10.8c0,0.7,0.3,1.4,0.7,2
				c1.2,4.9,2.6,9.8,6,13.7c1.7,2,4,2.9,6.7,2.8c3.5-0.1,6.9-1.1,10.2-2.2c10.7-3.6,21.4-7.3,32-11c5.2-1.8,10.4-3.7,15.5-5.6
				c0.3,0,0.5,0,0.8-0.1c9.4-3.3,18.8-6.6,28.2-9.9c0.7-0.2,0.9-0.7,1.1-1.3c0.5-1.2,0.3-2.6,0.9-3.7c1.6-5.8,3.3-11.7,4.9-17.5
				c0.2-0.7,0.5-1.3,0.4-2c1.7-6,3.4-11.9,5.1-17.9c0.1-0.3,0.1-0.8,0-1.1c-1.5-4.8-2.7-9.7-4.5-14.5c-0.4-1.5-0.9-3.1-1.3-4.6
				C127.7,94.6,127.2,93.1,126.7,91.6z"/>
			<path class="st1" d="M143.3,227.8c0-0.6,0.4-0.6,0.9-0.5c5.7,1.3,11.4,2,17.1,3c1.7,0.3,3.5,0.3,5.3,0.3c-2.2-1-4.6-1.6-7-2.1
				c-4-0.9-7.9-2-11.8-3.1c-0.8-0.2-1.6-0.7-1.4-1.7c0.2-1,0.8-1.7,2-1.6c2.3,0.2,4.5,0.9,6.7,1.5c4.7,1.2,9.4,2.6,14.2,3.8
				c1.2,0.3,2.1,0.8,2,2.3c-0.1,1.1,0.7,1,1.4,1c7.8,0.1,14.9-2.2,21.2-6.8c7.1-5.3,14.2-23.1,16.6-31.6c0.2-0.6,0.2-1.2,0.2-1.8
				c0.5-1.6,0.9-3.1,1.4-4.7c1.1,0.7,1.6,2.1,3,2.4c-1.2,4.6-5,19.7-6.3,24.3c-1.2,4-2.1,8.1-3.1,12.2c-0.6,2.6-1.3,5.1-2.4,7.5
				c-2.7,6.1-7.1,8.6-13.7,7.5c-3.4-0.6-6.8-1.5-10.2-2.4c-11-2.9-22-5.8-33.1-8.7c-0.3-0.3-0.5-0.7-1-0.3c-0.2-0.1-0.4-0.1-0.7-0.2
				c-0.2-0.4-0.5-0.4-0.9-0.2C143.5,227.8,143.4,227.8,143.3,227.8z"/>
			<path class="st1" d="M213.7,44.1c11.4,0.1,21.1,4.6,28.9,13.4c1.3,1.5,2.5,3.1,3.5,4.8c0.9,1.5,0.8,2.7-0.3,3.3
				c-1.1,0.6-2.1,0.1-3.1-1.3c-7-11.1-17.1-16.6-30.1-16.5c-0.8,0-1.5,0.2-2.3,0.2c-1.1,0.1-2-0.2-2.2-1.5c-0.2-1.3,0.7-1.7,1.7-2
				c0.2-0.1,0.4-0.1,0.6-0.1C211.4,44.2,212.4,44.2,213.7,44.1z"/>
			<path class="st1" d="M214.3,52.9c9.3,0.2,16.5,4,22.1,11.1c0.4,0.5,0.7,1.1,1,1.7c0.5,1,0.4,2-0.7,2.6c-1,0.6-1.9,0.3-2.6-0.6
				c-0.9-1.4-1.8-2.7-3-3.9c-5-5.1-11-7.5-18.1-7.2c-0.5,0-1,0.1-1.5,0.1c-1-0.1-1.7-0.6-1.8-1.6c-0.1-1,0.5-1.7,1.5-1.9
				C212.3,52.9,213.4,52.9,214.3,52.9z"/>
			<path class="st1" d="M207.4,80.5c-2.1-0.5-4.2-1-6.3-1.5c-4.5-1.1-9-2.2-13.5-3.2c-0.9-0.2-1.7-0.6-1.8-1.7
				c-0.1-0.8,0.4-1.3,1.1-1.7c0.5-0.2,1-0.1,1.4,0c6.4,1.4,12.8,3.2,19.3,4.5c1.1,0.2,1.6,0.9,1.5,2C209.1,80,208.3,80.4,207.4,80.5
				z"/>
			<path class="st1" d="M215.7,61.6c4.7,0.3,8.5,2,11.7,5.3c0.9,0.9,1,2,0,2.9c-1,0.9-2.1,0.7-2.9-0.3c-2.8-3.4-6.4-4.5-10.6-4.2
				c-1.2,0.1-2.2-0.2-2.3-1.5c-0.1-1.4,0.8-1.9,2.1-2c0.1,0,0.1,0,0.2,0C214.5,61.7,215.2,61.6,215.7,61.6z"/>
			<path class="st1" d="M164,68.3c0.8,0.8,1.8,0.7,2.7,0.8c0.5,0.1,1.3,0.2,1.3,0.8c0,0.7-0.7,0.4-1.2,0.5c-2.8,0.5-5.5,1-6.9,3.9
				c-0.1,0.3-0.4,0.7-0.9,0.5c-0.4-0.2-0.3-0.7-0.2-1c0.2-1.5,1.4-2.3,2.3-3.3c0.4-0.4,1.1-0.6,0.9-1.4
				C162.7,68.6,163.3,68.4,164,68.3z"/>
			<path class="st1" d="M139.9,226.9c0.9-1,1.4-0.7,1.7,0.4C141.1,227.2,140.5,227.1,139.9,226.9z"/>
			<path class="st1" d="M145.3,228.3c0.5-0.5,0.7,0,1,0.3C145.9,228.6,145.5,228.5,145.3,228.3z"/>
			<path class="st1" d="M143.7,227.9c0.4-0.2,0.7-0.2,0.9,0.2C144.3,228.2,144,228.1,143.7,227.9z"/>
			<path class="st0" d="M169.6,84.9c11.5,2.6,23,5.2,34.5,7.8c8.8,2,17.7,3.9,26.5,5.9c2,0.4,2.9,1.8,2.4,3.9
				c-0.4,1.5-0.8,3.1-1.2,4.6c-1.2,0.3-1.4-1.2-2.3-1.3c0-1.2,0.6-2.3,0.8-3.5c0.3-1.5-0.2-2.5-1.7-2.8c-3.8-0.8-7.5-1.7-11.3-2.8
				c-1.4-0.4-2.6,0.4-2.8,1.5c-0.2,1.2,0.5,2.2,1.9,2.6c2.4,0.6,4.7,1.3,7.1,1.8c1.3,0.3,1.7,0.8,1.3,2.2c-0.6,2.2-1.1,4.4-1.7,6.5
				c-0.3,1.1-0.2,1.9,0.6,2.7c-1.3,2.3-2.9,4.5-2.4,7.4c0.1,1,0.5,1.9,0.3,2.9c-1.1,4,0.8,6.1,3.7,8.6c-1.6,6.6-3.2,13.1-4.9,19.7
				c-2.5,10-5.1,20-7.7,30c-0.1,0.2-0.2,0.4-0.3,0.6c-1,0.3-1.8-0.5-2.7-0.7c0.7-2.8,1.4-5.5,2.1-8.3c0.4-1.4-0.2-2.6-1.5-3
				c-1.3-0.4-2.6,0.3-3,1.8c-0.8,2.7-1.6,5.3-2.3,8.1c-0.3,1-0.7,1-1.4,0.6c-0.2-0.3-0.3-0.6-0.5-0.8c-5.3-5.5-10.6-10.9-15-17.2
				c-0.8-1.1-2-2.1-1.8-3.7c3.8-0.5,7.3-1.5,10.4-3.9c5-4,8.3-15,0-21.1c-3.8-2.8-8.1-4.6-12.2-6.7c-1.6-0.8-3.2-1.7-4.5-3
				c-1.8-1.9-1.4-4.3,1.1-5.3c1.1-0.4,2.2-0.6,3.4-0.4c5.2,0.7,9.6,3.1,13.5,6.6c1.1,1,2,1,3.1,0c1.5-1.5,3.1-2.9,4.7-4.3
				c1.5-1.3,1.6-1.7,0.1-2.9c-3.2-2.8-6.8-5-10.7-6.5c-0.9-0.3-1.2-0.7-0.9-1.7c0.4-1.2,0.7-2.4,1-3.7c0.3-1,0-1.6-1.1-1.8
				c-1.3-0.3-2.6-0.6-3.8-1c-1.4-0.5-2.3-0.1-2.7,1.4c-0.3,1.4-0.5,3.1-1.5,3.9c-1,0.9-2.8,0.2-4.3,0.2c-5.5-0.1-10,1.8-13.5,6.1
				c-4.3,5.4-3.6,13,1.5,17.5c2.3,2,4.9,3.2,7.6,4.5c3.1,1.5,6.3,2.8,9.1,4.8c1.3,0.9,2.5,2.1,2,4c-0.5,2-2,2.9-3.9,3.1
				c-3.3,0.3-6.5-0.3-9.4-2.1c0.1-0.7-0.3-1.2-0.6-1.8c-3.2-5.1-6.5-10.1-9.4-15.4c-4.2-7.5-8-15.2-10.8-23.4
				c-0.7-2.2-1.5-4.4-1.4-6.7c0.1-1.9,0.8-3.8,1.2-5.8c0.7,0,1.3,0,2,0c-0.1,0.7-0.2,1.4-0.3,2.1c-0.2,1.3,0.2,2.3,1.5,2.7
				c1.2,0.3,2.3-0.4,2.7-1.7c0.6-2.3,1.4-4.5,1.9-6.8c0.3-1.3,0.9-1.4,2-1.2c2.3,0.5,4.4,1.4,6.7,1.7c1.5,0.2,2.6-0.2,2.9-1.4
				c0.3-1.3-0.6-2.8-2.1-3c-1-0.1-1.9-0.3-2.8-0.7C168.8,85.7,169.3,85.3,169.6,84.9z"/>
			<path class="st0" d="M186.3,160c-0.1,1.6,1,2.6,1.8,3.7c4.4,6.3,9.7,11.7,15,17.2c0.2,0.2,0.3,0.5,0.5,0.8
				c-2.8-0.7-5.5-1.3-8.3-1.9c-1.3-0.3-2.4,0.1-2.8,1.4c-0.4,1.3,0.2,2.4,1.5,2.7c4,1,7.9,2.1,11.9,3c1.8,0.4,2.8-0.5,3.1-2.3
				c0.1-0.7,0.4-1.4,0.6-2c0.9,0.2,1.7,1,2.7,0.7c-0.2,0.9-0.4,1.8-0.6,2.6c-0.5,1.6-0.9,3.1-1.4,4.7c-1.3,1.1-2.8,1.2-4.5,0.8
				c-3.8-1-7.8-1.8-11.6-2.9c-16.9-4.8-34.1-8.9-51-13.5c-2.4-0.6-4.7-1.3-7.1-1.9c-2.9-0.7-3.6-1.9-3-4.9c1.4-6.4,3.2-12.7,4.9-19
				c4.6-16.9,9.3-33.8,13.7-50.7c1.3-4.8,2.7-9.5,4.2-14.2c0.1-0.3,0.2-0.6,0.6-0.8c0,0.8-0.1,1.6-0.3,2.4c-0.7,2.9-1.3,5.9-2,8.8
				c-0.4,1.9-1.1,3.8-1.2,5.8c-0.1,2.3,0.7,4.6,1.4,6.7c2.8,8.2,6.6,15.9,10.8,23.4c2.9,5.3,6.2,10.3,9.4,15.4
				c0.4,0.6,0.7,1.1,0.6,1.8c-3.1-1.5-5.7-3.5-7.8-6.1c-1-1.2-2-1.2-3.1-0.3c-1.3,1.1-2.6,2.1-4,3.2c-3.1,2.6-3.1,3.5,0.1,6.1
				c0.1,0.1,0.2,0.1,0.3,0.2c3.5,2.8,7.2,5.2,11.3,6.8c0.8,0.3,0.9,0.8,0.7,1.5c-0.4,1.3-0.6,2.6-1,3.8c-0.3,1.2,0.1,1.9,1.3,2.2
				c1.3,0.3,2.6,0.7,3.9,1.1c1.1,0.3,1.9,0,2.2-1.3c0.1-0.8,0.4-1.6,0.6-2.4c0.7-2.6,0.8-2.6,3.3-2.5C184.4,160,185.4,160,186.3,160
				z M141.8,154.7c-0.8,0-1.6,0.5-1.9,1.5c-1,3.5-2,7.1-3,10.6c-0.4,1.6,0.2,2.7,1.6,3.1c3.5,0.9,7.1,1.8,10.6,2.7
				c1.4,0.4,2.5,0.1,3-1.4c0.4-1.2-0.4-2.3-2-2.8c-2.3-0.7-4.6-1.3-6.9-1.9c-1-0.2-1.2-0.6-0.9-1.6c0.7-2.4,1.3-4.9,1.9-7.3
				C144.6,156,143.6,154.7,141.8,154.7z"/>
			<path class="st0" d="M225.3,132.9c-2.9-2.5-4.8-4.6-3.7-8.6c0.3-1-0.1-1.9-0.3-2.9c-0.4-2.9,1.1-5.1,2.4-7.4
				c2.4,0.7,3.2,0.2,3.9-2.1c0.6-2,1.2-4.1,1.9-6.1c0.9,0.1,1.1,1.6,2.3,1.3c-1.2,5.6-2.6,11.2-4.1,16.7
				C226.9,126.9,226.4,130,225.3,132.9z"/>
			<path class="st0" d="M154.6,94.6c0.7-2.9,1.3-5.9,2-8.8c0.2-0.8,0.3-1.6,0.3-2.4c0.6-0.9,1.5-1.2,2.4-1c3.5,0.8,6.9,1.7,10.4,2.6
				c-0.4,0.4-0.8,0.7-0.7,1.4c-2.4-0.6-4.7-1.2-7.1-1.7c-1.9-0.4-2.6,0.1-3.1,1.9c-0.7,2.7-1.5,5.4-2.2,8.1
				C155.9,94.6,155.2,94.6,154.6,94.6z"/>
			<path class="st1" d="M189.1,218.6c-0.1-1,0.3-1.4,1.3-1.5c1-0.1,1.8,0.3,1.9,1.4c0.1,1-0.7,1.6-1.7,1.6
				C189.6,220.1,189.2,219.5,189.1,218.6z"/>
			<path class="st1" d="M154,188.8c-0.7,0-1.4-0.4-1.4-1.3c0-1,0.7-1.7,1.6-1.6c0.9,0,1.5,0.7,1.5,1.6
				C155.8,188.5,155.1,188.8,154,188.8z"/>
			<path class="st1" d="M202.7,197.1c-0.9,0-1.6-0.4-1.6-1.4c0.1-0.9,0.7-1.5,1.6-1.5c0.9,0,1.5,0.7,1.6,1.5
				C204.4,196.7,203.6,197.1,202.7,197.1z"/>
			<path class="st8" d="M28,99.6c5.1-1.6,10.2-3.2,15.3-4.8c6.7-2.1,13.3-4.1,20-6.2c0.4-0.1,0.7-0.1,1.1-0.2
				c-1.9,2.2-3.3,4.7-4.6,7.2c-0.2,0.4-0.5,0.8-0.2,1.2c0.4,0.5,0.8,0,1.2-0.1c3.1-1,6.2-2,9.3-2.9c4.8-1.5,9.5-3,14.3-4.4
				c1.9-0.5,3.7-1.9,5.8-0.8c-2.8,1.3-4.9,3.5-6.4,6.2c-3.6,0.7-7,2.2-10.6,3.2c-5.2,1.4-10.1,3.6-15.4,4.7c0-1.2,0.4-2.4,0.7-3.5
				c0.1-0.5,0.6-1.1,0.1-1.5c-0.4-0.4-0.9,0-1.4,0.1c-4.5,1.4-9,2.7-13.4,4.2c-4.8,1.6-3.9,0.5-3.9,5.5c-1.4,0.1-2.7,0.5-4,0.9
				c-4.9,1.7-9.8,3.5-14.7,5c-3.3,1-5.4,4.3-4,8c1.5,4,2.7,8.1,4,12.1c1.4,4.4,4,5.7,8.3,4.3c5.4-1.8,10.7-3.8,16.2-5.3
				c2.9-0.8,4.9-3.8,3.6-7.2c-1.2-3.1-2.1-6.4-3.1-9.5c0.8,0.4,1.6-0.1,2.3-0.3c2.3-0.7,4.5-1.3,6.8-2c-0.2,1-0.3,2-0.5,3.1
				c-0.3,1.5,0,1.9,1.5,1.4c7.2-2.2,14.5-4.4,21.7-6.6c2.6-0.8,5.1-1.7,7.8-2.1c1.4,1.2,2.9,2.4,4.5,3.3c-1,1-2.3,1.1-3.6,1.4
				c-2.9,0.9-5.8,1.8-8.7,2.7c-8,2.5-16.1,5-24.2,7.5c-0.7,0.2-1.1,0.5-1.3,1.3c-1,4.7-2.5,9.3-4.1,13.8c-0.6,1.8-1.7,3.5-1.8,5.4
				c-4.6,1.4-9.3,2.8-13.9,4.3c-1.2,0.4-2.9,0.2-3.4,1.2c-0.6,1.1,0.8,2.3,1,3.6c0.3,1.7,1.2,2,2.8,1.4c3.1-1,6.2-1.9,9.4-2.8
				c-0.5,2.2-1.9,3.7-3.1,5.5c-1.8,2.7-4.3,4.9-6.4,7.4c-2.6,1.4-5.5,1.8-8.2,3c-0.1,0-0.2,0-0.4,0c-1.3-3.9-2.6-7.8-3.8-11.7
				c-2.3-6.9-4.3-13.9-6.8-20.8c-1.9-5.4-3.7-10.8-5.4-16.2c-0.8-2.5-1.4-5-1.6-7.5c-0.1-0.9,0.2-1.4,1.1-1.7c2.8-0.9,5.5-1.9,8.3-3
				c3.8-1.5,7.6-2.9,11.2-4.9C28.8,101.3,28.7,100.7,28,99.6z"/>
			<path class="st22" d="M123.6,153.8c-0.6,1.2-0.4,2.5-0.9,3.7c-0.2,0.6-0.4,1-1.1,1.3c-9.4,3.3-18.8,6.6-28.2,9.9
				c-0.2,0.1-0.5,0.1-0.8,0.1c-0.2-1.1,1.4-1.4,1.1-2.6c-1.9,0.4-3.5,1.2-5.3,1.8c-10.2,3.4-20.4,6.9-30.6,10.3
				c-5.9,2-11.8,4-17.9,5.4c-3.5,0.8-7.1,0.7-9.6-2.6c-1.1-1.5-1.7-3.2-2.4-4.8c-0.9-2-1.1-4.2-2.7-5.9c0-0.1,0-0.2,0-0.3
				c0.4-0.1,0.8-0.1,1.1-0.2c12.2-3.9,24.3-7.9,36.4-11.8c17.8-5.8,35.6-11.7,53.4-17.5c0.6,0.5,0,0.8-0.2,1.1
				c-1.1,1.7-2.2,3.4-3.4,5c-4.5,6.1-9.7,11.6-15.1,16.9c-0.4,0.4-1.1,0.7-1,1.7c6.4-2.2,12.6-4.4,18.5-7.2
				C117.8,156.5,120.7,155.1,123.6,153.8z M65.4,164.4c0,0-0.3,0.1-0.6,0.2c-4.8,1.6-9.5,3.2-14.3,4.8c-0.9,0.3-1.4,0.6-1,1.7
				c0.4,1.1,0.8,1.4,1.9,1c2.3-0.8,4.6-1.6,7-2.4c2.6-0.9,5.2-1.8,7.7-2.6c0.9-0.3,1.1-0.8,0.8-1.6
				C66.8,164.9,66.7,164.1,65.4,164.4z M72.4,164.9c1.3-0.4,2.6-0.8,3.8-1.2c3-1,6-2,9-3c1.1-0.4,1-1.1,0.7-2
				c-0.3-0.9-0.9-0.9-1.7-0.6c-4.1,1.4-8.1,2.7-12.2,4.1c-0.5,0.2-1.2,0.2-0.8,1C71.5,163.9,71.5,164.8,72.4,164.9z M45.1,173.4
				c0-1.3-0.7-1.9-1.9-1.5c-2.8,0.9-5.6,1.9-8.4,2.8c-1.1,0.4-0.9,1-0.7,1.8c0.3,0.8,0.7,1.1,1.6,0.8c2.8-1,5.6-1.9,8.4-2.8
				C44.6,174.4,45.2,174.2,45.1,173.4z"/>
			<path class="st3" d="M86.7,113.7c1.3-0.2,2.6-0.4,3.6-1.4c3.3,1.1,6.6,1.5,9.9,0.1c1.6-0.7,2.9-2.1,4.4-2.7
				c1.5-0.6,3.4,0.4,5.1,0.1c0.2,0,0.3-0.1,0.5-0.1c4-0.7,7.1-2.9,9.3-6.4c0.7,0.1,1.3-0.2,1.9-0.4c2.8-0.6,5.3-2,8.1-2.3
				c1.8,4.7,3,9.6,4.5,14.5c0.1,0.3,0.1,0.8,0,1.1c-1.7,6-3.4,11.9-5.1,17.9c-0.7-0.1-1.3,0.2-1.9,0.4c-3.4,1.1-6.8,2.3-10.2,3.5
				c-8.2,2.7-16.4,5.4-24.6,8c-1,0.3-2,0.7-3,0.7c0.3-1.3,0.7-2.5-0.3-3.7c-1-1.1-1.3-2.3-0.5-3.7c0.2-0.3,0.1-0.8,0.1-1.3
				c0.2-0.2,0.5-0.4,0.7-0.5c2.6-0.3,5-1.3,7.5-2.1c4.6-1.4,4.5-1.4,2.8-6c-0.3-0.7-0.6-0.9-1.3-0.7c-2,0.6-4.1,1.1-6.1,1.7
				c-0.1-0.9,0.5-1.1,1.1-1.5c1-0.6,1.7-1.5,2.4-2.4c0.6-0.9,0.7-1.7-0.1-2.5c-0.3-0.3-0.6-0.7-0.8-1c-1-2.3-3-3.1-5-3.8
				c-2.3-0.8-2.9-1.3-3.1-3.8C86.7,114.9,86.7,114.3,86.7,113.7z M125.4,123.7c0.1-1.9-1-2.8-2.7-2.3c-4.6,1.4-9.2,2.7-13.7,4.2
				c-1.3,0.4-3.2,0.2-3.6,1.4c-0.3,1.1,0.6,2.7,1,4.1c0.3,1,0.7,1.3,1.8,1c4.7-1.4,9.5-2.7,14.2-4.4
				C123.6,127.2,125.3,125,125.4,123.7z"/>
			<path class="st8" d="M90.2,88.7c-2.1-1.1-3.9,0.2-5.8,0.8c-4.8,1.4-9.5,2.9-14.3,4.4c-3.1,1-6.2,2-9.3,2.9
				c-0.4,0.1-0.8,0.6-1.2,0.1c-0.3-0.4,0-0.8,0.2-1.2c1.3-2.6,2.7-5.1,4.6-7.2c8.1-2.5,16.1-5,24.2-7.5c4.3-1.3,8.6-2.7,13-4
				c1.6-0.5,3.2-0.9,4.8-1.3c0.2,1.4-0.3,2.2-1.7,2.5c-3.3,0.7-5.9,3.3-9.4,3.6c-0.6,0.1-1.2,0.5-1.8,0.9c-1.2,0.8-1.2,2-0.7,3.2
				c0.4,1.2,1.3,0.8,2.1,0.5c2.6-0.9,5.3-1.7,7.9-2.5c4.6-1.5,9.4-2.2,14-3.7c1.8-0.6,3.7-1.4,5.7-1.3c0.4,1.3,0.8,2.6,1.1,3.9
				c-2.1,1.1-4.4,1.6-6.6,2.5c-0.5,0.2-1.3,0.1-1.3,1c-6-3.5-11.7-3.3-16.9,1.6c-0.3,0.3-0.5,0.3-0.9,0.2
				C95.4,87.4,92.8,87.9,90.2,88.7z"/>
			<path class="st23" d="M123.6,153.8c-2.9,1.4-5.8,2.8-8.7,4.1c-6,2.8-12.2,4.9-18.5,7.2c-0.1-1,0.6-1.3,1-1.7
				c5.3-5.3,10.5-10.8,15.1-16.9c1.2-1.6,2.3-3.3,3.4-5c0.2-0.3,0.8-0.6,0.2-1.1c4.2-1.4,8.3-2.8,12.5-4.1
				C126.9,142.1,125.3,147.9,123.6,153.8z"/>
			<path class="st24" d="M28,99.6c0.7,1.1,0.8,1.8-0.7,2.6c-3.6,2-7.4,3.5-11.2,4.9c-2.7,1-5.5,2-8.3,3c-0.9,0.3-1.2,0.8-1.1,1.7
				c0.2,2.6,0.8,5.1,1.6,7.5c1.7,5.4,3.4,10.8,5.4,16.2c2.5,6.9,4.6,13.8,6.8,20.8c1.3,3.9,2.6,7.8,3.8,11.7c-1,0.3-1.9,0.7-2.9,1
				c-1.7-3.4-2.7-7.2-3.9-10.8c-3.8-11.2-7.6-22.4-11.3-33.6c-1.2-3.5-2.4-7.1-2.5-10.9c0-4.4,2.2-7.4,6.3-8.7
				C16.1,103.2,22.1,101.4,28,99.6z"/>
			<path class="st7" d="M25.1,170.2c1.6,1.6,1.9,3.9,2.7,5.9c0.7,1.7,1.3,3.3,2.4,4.8c2.6,3.4,6.1,3.4,9.6,2.6
				c6.1-1.4,12-3.4,17.9-5.4c10.2-3.4,20.4-6.9,30.6-10.3c1.7-0.6,3.4-1.4,5.3-1.8c0.3,1.2-1.2,1.6-1.1,2.6
				c-5.2,1.9-10.3,3.8-15.5,5.6c-10.7,3.7-21.4,7.4-32,11c-3.3,1.1-6.6,2.2-10.2,2.2c-2.7,0.1-5-0.8-6.7-2.8c-3.3-4-4.7-8.8-6-13.7
				C23.2,170.7,24.1,170.5,25.1,170.2z"/>
			<path class="st3" d="M128.5,136.2c-4.2,1.4-8.3,2.8-12.5,4.1c-17.8,5.8-35.6,11.7-53.4,17.5c-12.1,4-24.3,7.9-36.4,11.8
				c-0.4,0.1-0.7,0.2-1.1,0.2c-0.1-0.6-0.2-1.3-0.4-1.9c2.7-1.2,5.6-1.5,8.2-3c0.5-0.1,1-0.1,1.4-0.3c7.5-2.4,15-4.8,22.5-7.2
				c5.7-1.9,11.5-3.6,17.2-5.6c5-1.7,10.2-3,15.2-5.1c1.1,0,2-0.4,3-0.7c8.2-2.7,16.4-5.3,24.6-8c3.4-1.1,6.8-2.3,10.2-3.5
				c0.6-0.2,1.2-0.5,1.9-0.4C129.1,134.9,128.7,135.6,128.5,136.2z"/>
			<path class="st3" d="M122.7,79c-2-0.1-3.8,0.7-5.7,1.3c-4.6,1.5-9.4,2.2-14,3.7c-2.6,0.8-5.3,1.6-7.9,2.5
				c-0.8,0.3-1.7,0.7-2.1-0.5c-0.4-1.2-0.4-2.4,0.7-3.2c0.5-0.4,1.1-0.8,1.8-0.9c3.5-0.3,6.1-2.9,9.4-3.6c1.4-0.3,1.9-1.2,1.7-2.5
				c2.3-0.7,4.5-1.6,6.8-2.2C117.4,72.5,120.7,74.4,122.7,79z"/>
			<path class="st8" d="M129.5,100.8c-2.8,0.3-5.4,1.7-8.1,2.3c-0.6,0.1-1.2,0.4-1.9,0.4c1-1.7,1.2-3.7,1.6-5.6
				c0.7,0.1,1.4-0.2,2.1-0.4c1.6-0.6,3.3-1.2,5-1.3C128.6,97.7,129.1,99.2,129.5,100.8z"/>
			<path class="st3" d="M115.9,86.3c0.1-0.8,0.8-0.8,1.3-1c2.2-0.8,4.5-1.4,6.6-2.5c0.5,1.5,1,2.9,1.5,4.4c-2.2,0.5-4.4,1.1-6.5,2
				C117.8,88.3,116.8,87.3,115.9,86.3z"/>
			<path class="st8" d="M118.8,89.3c2.1-0.9,4.3-1.5,6.5-2c0.6,1.4,1.1,2.8,1.4,4.3c-2,0.8-3.9,1.7-6,2
				C120.3,92.1,119.6,90.7,118.8,89.3z"/>
			<path class="st3" d="M120.7,93.6c2.1-0.4,4-1.2,6-2c0.5,1.5,1,3,1.5,4.6c-1.8,0.1-3.4,0.8-5,1.3c-0.7,0.2-1.3,0.5-2.1,0.4
				C121,96.4,120.8,95,120.7,93.6z"/>
			<path class="st23" d="M24.8,168c0.1,0.6,0.2,1.3,0.4,1.9c0,0.1,0,0.2,0,0.3c-1,0.2-1.9,0.5-2.9,0.7c-0.4-0.6-0.7-1.2-0.7-2
				c1-0.3,1.9-0.7,2.9-1C24.5,168,24.6,168,24.8,168z"/>
			<path class="st0" d="M186.3,160c-1,0-2,0-2.9,0c-2.6-0.1-2.6-0.1-3.3,2.5c-0.2,0.8-0.5,1.6-0.6,2.4c-0.2,1.3-1,1.6-2.2,1.3
				c-1.3-0.3-2.6-0.8-3.9-1.1c-1.2-0.3-1.6-0.9-1.3-2.2c0.3-1.3,0.6-2.6,1-3.8c0.2-0.8,0.2-1.2-0.7-1.5c-4.2-1.6-7.9-4-11.3-6.8
				c-0.1-0.1-0.2-0.1-0.3-0.2c-3.2-2.6-3.2-3.5-0.1-6.1c1.3-1.1,2.6-2.1,4-3.2c1.1-0.9,2.1-0.9,3.1,0.3c2.2,2.6,4.7,4.7,7.8,6.1
				c2.9,1.8,6.1,2.4,9.4,2.1c1.8-0.2,3.3-1.1,3.9-3.1c0.5-1.9-0.7-3.1-2-4c-2.8-2-6-3.3-9.1-4.8c-2.7-1.3-5.3-2.6-7.6-4.5
				c-5.1-4.5-5.7-12.1-1.5-17.5c3.5-4.4,8-6.2,13.5-6.1c1.5,0,3.2,0.7,4.3-0.2c0.9-0.8,1.1-2.6,1.5-3.9c0.4-1.6,1.2-1.9,2.7-1.4
				c1.2,0.4,2.5,0.7,3.8,1c1,0.2,1.3,0.8,1.1,1.8c-0.3,1.2-0.6,2.5-1,3.7c-0.4,1,0,1.3,0.9,1.7c3.9,1.6,7.5,3.7,10.7,6.5
				c1.4,1.3,1.4,1.7-0.1,2.9c-1.6,1.4-3.2,2.8-4.7,4.3c-1.1,1-2,1.1-3.1,0c-3.9-3.5-8.3-5.9-13.5-6.6c-1.2-0.2-2.3,0-3.4,0.4
				c-2.5,1-2.9,3.4-1.1,5.3c1.3,1.3,2.9,2.2,4.5,3c4.1,2.1,8.4,3.9,12.2,6.7c8.2,6.1,5,17.1,0,21.1
				C193.6,158.5,190.1,159.5,186.3,160z"/>
			<path class="st0" d="M209.8,182.5c-0.3,0.6-0.5,1.3-0.6,2c-0.3,1.8-1.3,2.7-3.1,2.3c-4-0.9-8-1.9-11.9-3
				c-1.3-0.3-1.9-1.4-1.5-2.7c0.4-1.3,1.5-1.7,2.8-1.4c2.8,0.6,5.5,1.3,8.3,1.9c0.7,0.3,1.1,0.3,1.4-0.6c0.7-2.7,1.5-5.4,2.3-8.1
				c0.4-1.4,1.7-2.2,3-1.8c1.3,0.4,1.8,1.5,1.5,3C211.2,177,210.5,179.7,209.8,182.5z"/>
			<path class="st7" d="M229.6,105.8c-0.6,2-1.3,4-1.9,6.1c-0.7,2.4-1.5,2.9-3.9,2.1c-0.8-0.8-0.9-1.6-0.6-2.7
				c0.6-2.2,1.1-4.4,1.7-6.5c0.4-1.3,0-1.9-1.3-2.2c-2.4-0.5-4.8-1.2-7.1-1.8c-1.4-0.4-2.2-1.4-1.9-2.6c0.2-1.1,1.5-1.9,2.8-1.5
				c3.7,1.1,7.5,1.9,11.3,2.8c1.5,0.3,2,1.3,1.7,2.8C230.1,103.4,229.6,104.6,229.6,105.8z"/>
			<path class="st7" d="M156.6,94.6c0.7-2.7,1.5-5.4,2.2-8.1c0.5-1.8,1.2-2.3,3.1-1.9c2.4,0.6,4.7,1.1,7.1,1.7
				c0.9,0.4,1.8,0.6,2.8,0.7c1.4,0.2,2.4,1.7,2.1,3c-0.3,1.1-1.4,1.5-2.9,1.4c-2.3-0.3-4.4-1.3-6.7-1.7c-1.1-0.2-1.7-0.1-2,1.2
				c-0.5,2.3-1.2,4.6-1.9,6.8c-0.4,1.3-1.5,2.1-2.7,1.7c-1.3-0.4-1.7-1.4-1.5-2.7C156.3,96,156.4,95.3,156.6,94.6z"/>
			<path class="st0" d="M141.8,154.7c1.8,0,2.8,1.3,2.5,2.9c-0.6,2.5-1.2,4.9-1.9,7.3c-0.3,1-0.1,1.4,0.9,1.6
				c2.3,0.5,4.6,1.2,6.9,1.9c1.7,0.5,2.4,1.6,2,2.8c-0.5,1.5-1.7,1.7-3,1.4c-3.5-0.9-7.1-1.8-10.6-2.7c-1.5-0.4-2.1-1.5-1.6-3.1
				c1-3.6,2-7.1,3-10.6C140.2,155.2,141,154.7,141.8,154.7z"/>
			<path class="st8" d="M89.3,146.8c-4.9,2.1-10.1,3.4-15.2,5.1c-5.7,1.9-11.5,3.7-17.2,5.6c-7.5,2.4-15,4.8-22.5,7.2
				c-0.5,0.1-1,0.2-1.4,0.3c2.1-2.5,4.6-4.7,6.4-7.4c1.2-1.7,2.7-3.3,3.1-5.5c1.7-0.6,3.4-1.1,5.1-1.7c3.1-1,3.1-1,2.1-4.1
				c-0.8-2.3-0.8-2.3-3-1.9c0.1-2,1.2-3.6,1.8-5.4c1.6-4.6,3.1-9.1,4.1-13.8c0.2-0.8,0.6-1.1,1.3-1.3c8.1-2.5,16.1-5,24.2-7.5
				c2.9-0.9,5.8-1.8,8.7-2.7c0,0.6,0,1.2,0,1.8c0.2,2.5,0.8,3,3.1,3.8c2,0.7,4.1,1.5,5,3.8c0.2,0.4,0.5,0.7,0.8,1
				c0.8,0.8,0.8,1.6,0.1,2.5c-0.7,1-1.4,1.8-2.4,2.4c-0.5,0.3-1.2,0.6-1.1,1.5c-0.9,0.6-2.1,0.5-3,1.2c-1.7,0.5-3.5,0.9-5.2,1.4
				c-4.5,1.3-4.5,1.4-2.9,5.8c0.3,0.8,0.6,1.1,1.5,0.8c2-0.6,3.9-1.1,5.9-1.7c0,0.4,0.1,1-0.1,1.3c-0.9,1.4-0.5,2.6,0.5,3.7
				C90,144.3,89.7,145.6,89.3,146.8z M57.6,147.4c0,0,0.3-0.1,0.7-0.2c5.1-1.5,10.3-2.9,15.4-4.5c2.9-0.9,2.4-0.5,1.6-3.2
				c-0.2-0.6-0.5-1.2-0.6-1.9c-0.2-1.1-0.7-1.4-1.8-1c-4.6,1.5-9.2,2.8-13.7,4.2c-1.4,0.4-3.4,0.3-4,1.5c-0.6,1.2,0.7,2.8,1.1,4.3
				c0,0.1,0,0.1,0,0.2C56.3,147.3,56.7,147.5,57.6,147.4z"/>
			<path class="st1" d="M120.7,93.6c0.1,1.4,0.3,2.8,0.4,4.2c-0.4,1.9-0.6,3.9-1.6,5.6c-2.2,3.4-5.3,5.6-9.3,6.4
				c-0.2,0-0.3,0.1-0.5,0.1c-1.7,0.3-3.6-0.7-5.1-0.1c-1.5,0.6-2.8,2.1-4.4,2.7c-3.3,1.3-6.6,0.9-9.9-0.1c-1.7-0.9-3.1-2-4.6-3.3
				c-1.1-1.4-2-3-2.7-4.7c-0.3-1.6-0.6-3.2-0.5-4.9c0.2-1.6,0.8-3.1,1.2-4.7c1.5-2.7,3.6-4.9,6.4-6.2c2.6-0.8,5.2-1.2,7.9-0.6
				c0.4,0.1,0.6,0,0.9-0.2c5.2-4.9,10.9-5.1,16.9-1.6c1,1,2,2,2.9,3C119.6,90.7,120.3,92.1,120.7,93.6z M116.5,102.1
				c2-3.4,1.8-6.8,0.2-10.2c-0.4-0.9-1-1.7-2-2c-0.2-1-1.1-1.3-1.8-1.7c-3.4-1.9-8.2-1.4-11,1.2c-3.3,2.9-4.5,7.4-2.9,11.2
				c1.7,4.1,4.8,6.3,9.1,6.4C111.7,107,114.7,105.6,116.5,102.1z M85.7,100.9c0.1,3.1,1.3,6.1,4.5,7.9c3.2,1.8,6.5,2.2,9.8,0.4
				c0.8-0.4,1.5-0.8,0.2-1.7c-4.8-3.6-6.4-9.6-4.2-15.3c0.4-1,0.3-1.3-0.8-1.3C90,90.7,85.9,94.8,85.7,100.9z"/>
			<path class="st1" d="M46.1,115.7c1,3.2,1.9,6.4,3.1,9.5c1.3,3.4-0.7,6.4-3.6,7.2c-5.4,1.6-10.8,3.5-16.2,5.3
				c-4.3,1.5-6.9,0.1-8.3-4.3c-1.3-4.1-2.5-8.1-4-12.1c-1.4-3.7,0.7-7,4-8c5-1.5,9.8-3.3,14.7-5c1.3-0.4,2.6-0.8,4-0.9
				c0.6,0.1,1.3,0.3,1.9,0.4c1.4,0.7,2.4,1.8,3,3.2C45.1,112.7,45.6,114.2,46.1,115.7z M47.2,127.2c-0.2-1.3-0.7-2.4-1.2-3.6
				c-0.3-0.8-0.7-0.8-1.3-0.6c-1.9,0.6-3.9,1.2-5.8,1.8c-1.1,0.4-1.7,0.3-2.1-1c-0.4-1.4-0.8-2.8-1.4-4.2c-0.3-0.8,0-1.2,0.7-1.5
				c1.3-0.4,2.7-0.9,4.1-1.3c3.1-1,3.1-1,2.3-4.2c-0.7-2.5-2-3.3-4.5-2.5c-3.1,1-6.2,2.1-9.3,3c-1.3,0.4-1.6,0.9-1.1,2.2
				c2,5.7,3.9,11.4,5.4,17.2c0.3,1.1,0.6,1.2,1.5,0.9c3.6-1.2,7.3-2.3,10.9-3.5C46.8,129.6,47.1,128.4,47.2,127.2z M27,136
				c1.3-0.4,2.8-0.9,4.3-1.3c0.5-0.2,0.4-0.5,0.3-0.9c-0.8-2.5-1.7-5.1-2.5-7.6c-0.2-0.7-0.6-0.6-1.1-0.5c-1.8,0.6-3.5,1.1-5.3,1.6
				c-0.7,0.2-0.9,0.5-0.7,1.2c0.6,1.9,1.2,3.8,1.8,5.6C24.3,135.3,25.4,135.9,27,136z M19,119.4c0.6,1.9,1.2,4,1.9,6
				c0.2,0.6,0.7,0.3,1.1,0.2c1.7-0.5,3.3-1.1,5-1.5c0.9-0.2,1.1-0.6,0.8-1.5c-0.5-1.4-0.8-2.8-1.3-4.2c-0.4-1.2-0.5-2.9-1.3-3.4
				c-0.9-0.6-2.4,0.5-3.6,0.8C19.9,116.2,19,117.4,19,119.4z M45.1,120.7c-0.2-0.6-0.4-1.1-0.5-1.7c-0.2-1.2-0.7-1.6-1.9-1.1
				c-1.4,0.6-2.9,0.9-4.4,1.3c-0.8,0.2-1,0.6-0.6,1.3c0.2,0.5,0.4,1.1,0.6,1.7c0.2,0.7,0.6,0.8,1.2,0.6c1.6-0.6,3.2-1,4.8-1.5
				C44.7,121.2,45.1,121.2,45.1,120.7z"/>
			<path class="st8" d="M83.1,104.4c0.7,1.6,1.6,3.2,2.7,4.7c-2.7,0.4-5.2,1.4-7.8,2.1c-7.2,2.2-14.4,4.4-21.7,6.6
				c-1.5,0.4-1.8,0.1-1.5-1.4c0.2-1,0.3-2,0.5-3.1c0.1-0.1,0.2-0.2,0.3-0.3c0.5-0.1,1-0.1,1.4-0.2C65.7,109.9,74.5,107.7,83.1,104.4
				z"/>
			<path class="st24" d="M46.7,144.5c2.3-0.4,2.3-0.4,3,1.9c1,3.1,1,3.1-2.1,4.1c-1.7,0.5-3.4,1.1-5.1,1.7c-3.1,0.9-6.3,1.8-9.4,2.8
				c-1.5,0.5-2.4,0.3-2.8-1.4c-0.2-1.3-1.6-2.5-1-3.6c0.5-1,2.3-0.8,3.4-1.2C37.5,147.3,42.1,145.9,46.7,144.5z"/>
			<path class="st8" d="M83.8,94.9c-0.5,1.5-1,3.1-1.2,4.7c-5.2,1.6-10.4,3.3-15.7,4.8c-3,0.8-5.8,2-8.8,2.8c-1.1,0.3-1.2-0.2-1.1-1
				c0.1-1,0.7-2,0.6-3c0.1-0.1,0.2-0.2,0.3-0.3c5.3-1.1,10.2-3.3,15.4-4.7C76.8,97.1,80.2,95.6,83.8,94.9z"/>
			<path class="st24" d="M57.8,102.8c-0.1,0.1-0.2,0.2-0.3,0.3c-0.8,0-1.5,0.3-2.2,0.5c-3.8,1.2-7.7,2.4-11.5,3.7
				c-0.7,0.2-1.6-0.2-2.1,0.6c-0.6-0.1-1.3-0.3-1.9-0.4c0.1-4.9-0.9-3.8,3.9-5.5c4.4-1.5,8.9-2.8,13.4-4.2c0.5-0.1,1-0.5,1.4-0.1
				c0.5,0.5,0.1,1-0.1,1.5C58.2,100.4,57.8,101.5,57.8,102.8z"/>
			<path class="st24" d="M55.6,113.1c-0.1,0.1-0.2,0.2-0.3,0.3c-2.3,0.7-4.5,1.3-6.8,2c-0.8,0.2-1.5,0.7-2.3,0.3
				c-0.6-1.5-1.1-3-1.3-4.5c3.5-1.1,7-2.1,10.4-3.2c0.9-0.3,1.1,0.2,1,0.9C56,110.3,55.8,111.7,55.6,113.1z"/>
			<path class="st23" d="M65.4,164.4c1.3-0.3,1.4,0.5,1.6,1.1c0.3,0.8,0.1,1.3-0.8,1.6c-2.6,0.8-5.2,1.7-7.7,2.6
				c-2.3,0.8-4.7,1.5-7,2.4c-1.1,0.4-1.5,0.1-1.9-1c-0.4-1.2,0.2-1.4,1-1.7c4.8-1.6,9.5-3.2,14.3-4.8
				C65.1,164.5,65.4,164.4,65.4,164.4z"/>
			<path class="st23" d="M72.4,164.9c-0.9-0.1-0.9-1-1.2-1.7c-0.4-0.9,0.3-0.9,0.8-1c4.1-1.4,8.1-2.7,12.2-4.1
				c0.8-0.3,1.3-0.3,1.7,0.6c0.3,0.9,0.4,1.6-0.7,2c-3,1-6,2-9,3C75,164.1,73.7,164.5,72.4,164.9z"/>
			<path class="st23" d="M45.1,173.4c0.1,0.8-0.4,0.9-1,1.1c-2.8,0.9-5.6,1.8-8.4,2.8c-0.9,0.3-1.3,0-1.6-0.8
				c-0.3-0.8-0.4-1.5,0.7-1.8c2.8-0.9,5.6-1.9,8.4-2.8C44.4,171.5,45,172.1,45.1,173.4z"/>
			<path class="st8" d="M125.4,123.7c0,1.4-1.7,3.6-3,4c-4.7,1.7-9.4,3-14.2,4.4c-1.1,0.3-1.5,0-1.8-1c-0.4-1.4-1.4-2.9-1-4.1
				c0.4-1.2,2.3-1,3.6-1.4c4.6-1.5,9.2-2.8,13.7-4.2C124.4,120.9,125.4,121.8,125.4,123.7z"/>
			<path class="st8" d="M89.3,131.8c0.8-0.8,2.1-0.6,3-1.2c2-0.6,4.1-1.1,6.1-1.7c0.7-0.2,1-0.1,1.3,0.7c1.8,4.6,1.8,4.6-2.8,6
				c-2.5,0.8-4.9,1.8-7.5,2.1C89.4,135.7,89.6,133.7,89.3,131.8z"/>
			<path class="st24" d="M89.3,131.8c0.3,1.9,0,3.8,0.1,5.8c-0.2,0.2-0.5,0.4-0.7,0.5c-2,0.6-4,1.1-5.9,1.7c-0.9,0.3-1.2,0-1.5-0.8
				c-1.6-4.5-1.6-4.5,2.9-5.8C85.9,132.7,87.6,132.3,89.3,131.8z"/>
			<path class="st24" d="M57.6,147.4c-1,0.1-1.3-0.1-1.3-0.6c0-0.1,0-0.1,0-0.2c-0.3-1.5-1.7-3.1-1.1-4.3c0.6-1.1,2.6-1,4-1.5
				c4.6-1.4,9.2-2.8,13.7-4.2c1.1-0.4,1.6-0.1,1.8,1c0.1,0.6,0.4,1.3,0.6,1.9c0.9,2.7,1.3,2.3-1.6,3.2c-5.1,1.6-10.2,3-15.4,4.5
				C57.9,147.3,57.6,147.4,57.6,147.4z"/>
			<path class="st25" d="M116.5,102.1c-1.8,3.5-4.9,4.8-8.5,4.8c-4.3-0.1-7.4-2.3-9.1-6.4c-1.6-3.8-0.3-8.3,2.9-11.2
				c2.9-2.5,7.6-3.1,11-1.2c0.7,0.4,1.6,0.7,1.8,1.7c-2,0.4-2.6,1.4-1.7,3.2c0.4,0.9,0.9,1.9,1.6,2.7c0.5,0.6,1.2,1.4,0.9,2.2
				C114.9,99.7,115.6,100.9,116.5,102.1z"/>
			<path class="st8" d="M55.6,113.1c0.2-1.4,0.5-2.8,0.6-4.2c0.1-0.7-0.1-1.2-1-0.9c-3.5,1.1-6.9,2.1-10.4,3.2
				c-0.7-1.4-1.7-2.5-3-3.2c0.5-0.8,1.4-0.4,2.1-0.6c3.8-1.3,7.6-2.5,11.5-3.7c0.7-0.2,1.4-0.6,2.2-0.5c0.1,1.1-0.5,2-0.6,3
				c-0.1,0.9,0,1.3,1.1,1c3-0.8,5.8-2,8.8-2.8c5.3-1.5,10.5-3.2,15.7-4.8c-0.1,1.7,0.2,3.3,0.5,4.9c-8.5,3.2-17.4,5.5-26,8.4
				C56.6,113,56.1,113,55.6,113.1z"/>
			<path class="st25" d="M85.7,100.9c0.2-6.1,4.3-10.1,9.6-10c1.1,0,1.2,0.3,0.8,1.3c-2.3,5.7-0.7,11.7,4.2,15.3
				c1.3,1,0.6,1.3-0.2,1.7c-3.4,1.8-6.7,1.3-9.8-0.4C87.1,106.9,85.8,103.9,85.7,100.9z"/>
			<path class="st21" d="M116.5,102.1c-0.9-1.2-1.6-2.5-1-4.2c0.3-0.8-0.4-1.6-0.9-2.2c-0.7-0.8-1.1-1.7-1.6-2.7
				c-0.9-1.9-0.4-2.8,1.7-3.2c1,0.4,1.6,1.1,2,2C118.3,95.3,118.6,98.8,116.5,102.1z"/>
			<path class="st21" d="M47.2,127.2c-0.2,1.2-0.4,2.4-1.8,2.8c-3.6,1.2-7.3,2.3-10.9,3.5c-0.9,0.3-1.2,0.2-1.5-0.9
				c-1.5-5.8-3.4-11.5-5.4-17.2c-0.4-1.3-0.2-1.8,1.1-2.2c3.1-0.9,6.2-2,9.3-3c2.5-0.8,3.8,0,4.5,2.5c0.8,3.2,0.8,3.2-2.3,4.2
				c-1.4,0.4-2.7,0.9-4.1,1.3c-0.7,0.2-1,0.6-0.7,1.5c0.5,1.4,1,2.8,1.4,4.2c0.3,1.3,1,1.3,2.1,1c1.9-0.7,3.9-1.2,5.8-1.8
				c0.7-0.2,1-0.2,1.3,0.6C46.5,124.8,47,126,47.2,127.2z"/>
			<path class="st25" d="M27,136c-1.6-0.1-2.7-0.6-3.2-2c-0.7-1.9-1.2-3.8-1.8-5.6c-0.2-0.7,0-1,0.7-1.2c1.8-0.5,3.6-1,5.3-1.6
				c0.5-0.2,0.9-0.2,1.1,0.5c0.8,2.6,1.7,5.1,2.5,7.6c0.1,0.4,0.2,0.8-0.3,0.9C29.8,135.1,28.3,135.6,27,136z"/>
			<path class="st25" d="M19,119.4c0-2,0.9-3.2,2.6-3.7c1.2-0.4,2.7-1.4,3.6-0.8c0.8,0.5,1,2.2,1.3,3.4c0.5,1.4,0.8,2.8,1.3,4.2
				c0.3,0.9,0.1,1.3-0.8,1.5c-1.7,0.4-3.3,1-5,1.5c-0.4,0.1-0.9,0.4-1.1-0.2C20.3,123.3,19.6,121.2,19,119.4z"/>
			<path class="st21" d="M45.1,120.7c0.1,0.4-0.3,0.5-0.7,0.6c-1.6,0.5-3.2,1-4.8,1.5c-0.7,0.2-1,0.1-1.2-0.6
				c-0.2-0.6-0.3-1.2-0.6-1.7c-0.3-0.7-0.1-1.1,0.6-1.3c1.5-0.4,3-0.8,4.4-1.3c1.2-0.5,1.7-0.1,1.9,1.1
				C44.7,119.6,44.9,120.1,45.1,120.7z"/>
		</g>
	</g>
	<ellipse class="st26" cx="162.3" cy="210.1" rx="10.5" ry="10.6"/>
</g>
<path class="st0" d="M135.3,156.5l-5.7,20.5c-1,3.5,1.1,7.1,4.6,8l65.4,17.7c3.4,0.9,6.9-1,7.9-4.3l4.9-15.8"/>
<path class="st26" d="M181.6,169.2c-1,0-2,0-3,0c-2.6-0.1-2.6-0.1-3.4,2.5c-0.2,0.8-0.5,1.6-0.6,2.4c-0.2,1.3-1.1,1.6-2.2,1.3
	c-1.3-0.3-2.6-0.8-4-1.1c-1.2-0.3-1.6-0.9-1.3-2.2c0.3-1.3,0.6-2.6,1-3.8c0.2-0.8,0.2-1.2-0.7-1.5c-4.2-1.6-7.9-4-11.4-6.8
	c-0.1-0.1-0.2-0.1-0.3-0.2c-3.2-2.6-3.2-3.5-0.1-6.1c1.3-1.1,2.7-2.1,4-3.2c1.1-0.9,2.1-0.9,3.1,0.3c2.2,2.6,4.8,4.7,7.9,6.1
	c2.9,1.8,6.1,2.4,9.5,2.1c1.9-0.2,3.4-1.1,3.9-3.1c0.5-1.9-0.7-3.1-2-4c-2.8-2-6.1-3.3-9.2-4.8c-2.7-1.3-5.4-2.6-7.6-4.5
	c-5.1-4.5-5.8-12.1-1.5-17.5c3.5-4.4,8.1-6.2,13.6-6.1c1.5,0,3.3,0.7,4.3-0.2c0.9-0.8,1.1-2.6,1.5-3.9c0.4-1.6,1.2-1.9,2.7-1.4
	c1.3,0.4,2.5,0.7,3.8,1c1,0.2,1.3,0.8,1.1,1.8c-0.3,1.2-0.6,2.5-1,3.7c-0.4,1,0,1.3,0.9,1.7c4,1.6,7.6,3.7,10.8,6.5
	c1.5,1.3,1.4,1.7-0.1,2.9c-1.6,1.4-3.2,2.8-4.8,4.3c-1.1,1-2,1.1-3.1,0c-3.9-3.5-8.3-5.9-13.6-6.6c-1.2-0.2-2.3,0-3.4,0.4
	c-2.5,1-3,3.4-1.1,5.3c1.3,1.3,2.9,2.2,4.5,3c4.2,2.1,8.5,3.9,12.3,6.7c8.3,6.1,5,17.1,0,21.1C189,167.7,185.4,168.7,181.6,169.2z"
	/>
<path class="st7" d="M134.3,172.6c0.6-2,1.3-4,1.9-6.1c0.7-2.4,1.5-2.9,3.9-2.1c0.8,0.8,0.9,1.6,0.6,2.7c-0.6,2.2-1.1,4.4-1.7,6.5
	c-0.4,1.3,0,1.9,1.3,2.2c2.4,0.5,4.8,1.2,7.2,1.8c1.4,0.4,2.2,1.4,1.9,2.6c-0.2,1.1-1.5,1.9-2.9,1.5c-3.8-1.1-7.6-1.9-11.4-2.8
	c-1.5-0.3-2-1.3-1.7-2.8C133.8,174.9,134.3,173.8,134.3,172.6z"/>
<path class="st7" d="M207,188.1c-0.8,2.7-1.6,5.4-2.3,8.1c-0.5,1.8-1.2,2.3-3.1,1.9c-2.4-0.6-4.8-1.1-7.2-1.7
	c-0.9-0.4-1.8-0.6-2.8-0.7c-1.5-0.2-2.4-1.7-2.1-3c0.3-1.1,1.4-1.5,2.9-1.4c2.3,0.3,4.5,1.3,6.8,1.7c1.1,0.2,1.7,0.1,2-1.2
	c0.5-2.3,1.2-4.6,1.9-6.8c0.4-1.3,1.5-2.1,2.7-1.7c1.4,0.4,1.7,1.4,1.5,2.7C207.2,186.7,207.1,187.4,207,188.1z"/>
</svg>
