<?xml version="1.0" encoding="utf-8"?>
<!-- Generator: Adobe Illustrator 27.9.1, SVG Export Plug-In . SVG Version: 6.00 Build 0)  -->
<svg version="1.1" id="Layer_1" xmlns="http://www.w3.org/2000/svg" xmlns:xlink="http://www.w3.org/1999/xlink" x="0px" y="0px"
	 viewBox="0 0 250 250" style="enable-background:new 0 0 250 250;" xml:space="preserve">
<style type="text/css">
	.st0{fill:#FCCA1D;}
	.st1{fill:#232121;}
	.st2{fill:#D1CDC5;}
	.st3{fill:#8E1830;}
	.st4{fill:#FDFDFD;}
	.st5{fill:#FFDE83;}
	.st6{fill:#7F3211;}
	.st7{fill:#FCFCFC;}
	.st8{fill:#B21F36;}
	.st9{fill:#D6D5D5;}
	.st10{fill:#FCCD2A;}
	.st11{fill:#FDCF23;}
	.st12{fill:#FB751E;}
	.st13{fill:#6C2009;}
	.st14{fill:#F9F9F9;}
	.st15{fill:#4F1304;}
	.st16{fill:#F3F3F3;}
	.st17{fill:#A33F1F;}
	.st18{fill:#D6D5D2;}
	.st19{fill:#FAFAFA;}
	.st20{fill:#FDDE23;}
	.st21{fill:#FDD42C;}
	.st22{fill:#E3E2E5;}
	.st23{fill:#BDBEC9;}
	.st24{fill:#DD8C93;}
	.st25{fill:#F89043;}
	.st26{fill:#FFFFFF;}
	.st27{fill:#BDBEC0;}
	.st28{fill:#E2E3E4;}
	.st29{fill:#BABBBD;}
	.st30{fill:#F16866;}
	.st31{fill:#D1D8EA;}
	.st32{fill:#E5E6E7;}
	.st33{fill:#FDC91C;}
	.st34{fill:#F9C829;}
	.st35{fill:#CFD6DE;}
	.st36{fill:#606060;}
	.st37{fill:#3C444E;}
	.st38{fill:#BC4633;}
	.st39{fill:#4FB8E8;}
	.st40{fill:#F0F0F0;}
	.st41{fill:#FBFBFB;}
	.st42{fill:#B5EAF7;}
	.st43{fill:#CBECF5;}
	.st44{fill:#D3F6FC;}
	.st45{fill:#FDFCFC;}
	.st46{fill:#FDD228;}
	.st47{fill:#6B230A;}
	.st48{fill:#5C1C07;}
	.st49{fill:#AA4B2C;}
	.st50{fill:#C9C6BE;}
	.st51{fill:#DFDFDF;}
	.st52{fill:#9C9689;}
	.st53{fill:#FC771B;}
	.st54{fill:#FDE43B;}
	.st55{fill:#E6E6E6;}
</style>
<g>
	<g>
		<path class="st4" d="M99.7,2.2c-4.4,1-8.8,1.9-13.1,3.3c-3.5,0.8-6.9,2-10.1,3.7c-2.9,0.5-5.3,2-8,3.2c-0.7,0.2-1.4,0.4-1.8,1
			c-5,2.1-9.5,5-14,8.1c-1.3,0.7-2.5,1.5-3.5,2.5c-0.1,0.1-0.2,0.2-0.3,0.3c-0.8,0.6-1.7,1.2-2.5,1.8c-5.8,4.3-11,9.1-15.6,14.5
			c-1.3,1.1-2.3,2.5-3.3,3.9c-3.6,4-6.8,8.4-9.5,13.1c-2.2,3.3-4.2,6.7-5.8,10.3c-0.2,0.3-0.5,0.7-0.7,1C6.3,80.4,3,92.4,1.2,104.8
			c-2,13.9-1.4,27.7,1.9,41.4c4.4,18.4,13.3,34.5,26.2,48.6c5.5,6,11.5,11.4,18.2,16.2c0.7,0.5,1.4,0.9,1.7-0.3
			c1.2-3.8,4-6.6,6.3-9.6c8.6-11.5,17.1-23,25.5-34.6c0.7-1,0.7-1.6-0.3-2.3c-1.8-1.2-3.5-2.5-5.3-3.7c-5-3.3-10.7-4.3-16.6-4.9
			c-10.4-1-19.6-5-27.2-12c-11.3-10.4-16.3-23.2-15.3-38.3c0.5-7.2,2.2-14.1,8.1-19.3c0.5-0.1,0.9-0.3,1.2-0.7
			c2.3-0.9,4.6-1.6,7-1.5c0.6,0.1,1.2,0.2,1.8,0.2l0.1,0l0.1-0.1c0.6,0.5,1.3,0.6,2,0.8c1.1,0.6,2.1,1.3,3.2,1.9
			c0.4,0.3,0.7,0.5,1.1,0.8c0.2,0.6,0.7,0.9,1.2,1.3c2.8,2.8,5.6,5.5,8.3,8.3c1.3,1.3,2.6,2.6,4,3.8c1.2,1.1,3.2,1,4.3-0.1
			c1.4-1.4,0.1-2.2-0.7-3.1c-1.5-1.6-3-3.2-4.5-4.8c-3.2-3.3-6.2-6.7-9.6-9.8c-0.7-1-1.4-2-2-2.9c-0.2-0.6-0.5-1.2-0.7-1.8
			c-0.6-3.4-0.3-6.6,1.7-9.5c0.8-0.8,1.7-1.5,2.3-2.5c0.5-0.2,0.9-0.4,1.4-0.6c0.6,0.1,1.1-0.1,1.5-0.5c3.1-1.5,6.4-2.3,9.7-3.2
			c1.8-0.1,3.6-0.4,5.4-0.4c9-0.4,17.4,1.5,25.4,5.4c6.2,3.1,11.7,7.1,15.9,12.6c6.3,8.3,9.5,17.8,9.3,28.2c0,0.6,0,1.3,0.2,1.9
			c1.8,6.1,5.4,11,10.6,14.8c0.9,0.7,1.3,0.5,1.8-0.3c4.6-7.2,9.4-14.3,14-21.5c3.4-5.3,6.5-10.8,10.3-16c0.7-1,1.9-2,1.6-3.5
			c0.2-2.7-0.2-5.4,0.4-8.1c0.9-5.2,3.2-9.8,6.2-14.1c0.5-0.4,0.8-0.9,1.1-1.5c3-3.9,6.5-7.1,10.9-9.5c0.7-0.2,1.3-0.5,1.8-1
			c0.3-0.2,0.7-0.3,1-0.5c0.4-0.2,0.8-0.4,1.2-0.5c1.5-0.5,3.1-1.1,4.6-1.6c0.2,0,0.5,0,0.7,0c0.1-0.1,0.3-0.1,0.4-0.2
			c0.3-0.1,0.7-0.1,1-0.2c0.3,0.1,0.6,0.1,0.8-0.2c1.1-0.1,2.1-0.1,3.2-0.2c0.7,0,1.4,0,2.2,0c0.7,0.1,1.4,0.1,2.1,0.2
			c0.2,0.1,0.3,0.2,0.5,0.2c7.6,0.8,14,6.1,16.1,13.3c1.9,6.6,1,13-1.3,19.3c-3.9,10.3-10.2,18.6-20.8,23.3
			c-0.6,0.2-0.8,0.6-1.1,1.1c-8.8,13.9-17.6,27.9-26.5,41.8c-0.6,1-0.5,1.6,0.3,2.4c2.2,2.3,4.5,4.6,5,7.8c0.4,2.8,1.9,4.4,4.2,5.7
			c0.3,0.2,0.6,0.4,0.9,0.7c9.7,7.4,19.9,14.2,30.5,20.4c7.3,4.3,14.3,8.9,19.8,15.2c0.8,1,1.2,0.9,2,0c3.8-4.2,7.5-8.6,10.8-13.3
			c7.1-10.1,12.4-21,15.9-32.7c3.5-11.6,4.6-23.4,4.3-35.4c-0.2-7.8-1.1-15.5-2.9-23.1c-2.8-11.9-7.6-23-14.1-33.5
			c-7-11.4-15.7-21.4-26.2-29.9c-1.7-1.4-3.2-3.2-5.2-4.2c-0.9-1-2-1.6-3.2-2.3c-2.4-1.4-4.8-2.7-7.1-4.2
			c-6.4-4.2-13.5-7.3-20.6-10.1c-4.4-1.8-9-3-13.6-4.3c-6.2-1.7-12.5-3-19-3.1c-0.3-0.3-0.5-0.8-1-0.2c-0.1-0.1-0.3-0.3-0.4-0.3
			c-5.7-0.4-11.3-0.8-17-0.4c-0.5-0.1-1-0.1-1.5,0.1c-1-0.3-1.9-0.2-2.9,0.1c-4.1,0-8.1,0.5-12,1.3c-0.1,0-0.2,0-0.3,0.1
			c-0.1,0-0.2,0-0.4,0c-0.4-0.1-0.8-0.1-1.1,0.1c-0.3,0.1-0.7,0.1-1,0.2C100.1,2.2,99.9,2.2,99.7,2.2z"/>
		<path class="st1" d="M59.5,239.4c-0.7-1.5-2.1-2.3-3.1-3.6c-4.8-6.2-5.6-12.9-2.5-20.1c2.1-4.9,5.6-8.9,8.7-13.1
			c9.2-12.3,18.4-24.6,27.4-37.1c0.4-0.6,1-1,0.1-1.7c-6.2-5.4-12.5-10.6-20.7-13c-3.9-1.1-7.9-1.3-11.8-1.8
			c-19.1-2.6-32.1-17.6-34.4-33.9c-0.8-5.8-0.6-11.8,1.3-17.5c0.6-1.8,1.5-3.5,2.6-5c2-2.5,6.4-2.8,8.6-0.6
			c4.8,4.7,9.6,9.5,14.4,14.2c0.7,0.7,1.5,1.4,2,2.2c1,1.3,2.3,2,3.9,1.9c3.4-0.2,6.5-1.1,8.3-4.4c1.1-2,2.7-3.7,2.7-6.2
			c0-1.2-0.2-2.2-1.1-3C60.4,90.8,54.8,85,49.1,79.2c-2.3-2.4-2.1-5.5,0.8-7.3c4.4-2.7,9.4-3.3,14.5-3.3c13.9,0,25.6,4.8,34.4,15.5
			c5.2,6.3,7.9,13.7,7.8,21.8c-0.1,8,3.3,14.3,8.7,19.9c3.3,3.3,7,6.1,10.9,8.7c1.1,0.7,1.4,0.2,1.9-0.6
			c7.9-12.1,15.9-24.2,23.8-36.3c2.2-3.3,4.3-6.7,6.4-10c0.8-1.3,1.1-2.5,0.9-4.1c-1.1-7.1,1.1-13.4,5.6-18.9
			c4.9-6.1,11-10.4,19.1-11.5c9.4-1.3,16.6,5.3,16.4,14.6c-0.2,6.9-2.8,12.9-6.7,18.5c-3,4.4-6.7,8.1-11.8,10
			c-2.3,0.8-3.5,2.2-4.7,4c-9.6,15.1-19.2,30.2-28.7,45.3c-1.4,2.2-1.3,2.2,0.7,3.9c1.8,1.5,3.6,3,4.9,4.9c1.2,1.8,1.9,3.7,1.6,5.8
			c-0.1,1,0.1,1.6,1,2.2c8.3,6,16.4,12.2,25.1,17.7c6.2,3.9,12.5,7.7,18.7,11.7c6.7,4.3,12.7,9.3,16.4,16.4
			c5.3,9.9,3.9,21.2-3.6,29.8c-0.3,0.4-0.6,0.7-0.9,1.1c-0.1,0.1-0.3,0.2-0.4,0.3c-9.8,10.7-28,11.2-38.9,3.4
			c-2.8-2-4.9-4.6-7.4-6.9c-0.2-0.3-0.4-0.6-0.7-0.8c-8.2-8.6-16.3-17.2-24.5-25.8c-3.1-3.3-6.2-6.5-9.4-9.8
			c-4.5,7.1-9,14.1-13.4,21.1c-3.2,5-6.5,10.1-9.7,15.1c-1.5,2.1-2.8,4.3-4.4,6.2c-6.6,8.1-12.1,11-22.8,8.9
			c-7.6-1.5-14.1-5.4-19.9-10.3C60.5,240,60.2,239.3,59.5,239.4z M93.1,170.1c-0.4,0.1-0.4,0.4-0.5,0.7
			c-6.5,9.5-13.4,18.7-20.2,27.9c-4.1,5.6-8.5,10.9-12.2,16.8c-3.8,5.6-3.6,12,0.9,17.1c5.7,6.6,12.9,10.9,21.5,13
			c4.2,1,8.3,0.6,12-2.3c3-2.4,5.2-5.3,7.1-8.6c3.3-4.6,6.2-9.5,9.3-14.3c6.2-9.5,12.3-19,18.5-28.5c0.4-0.5,0.8-0.9,1.1-1.4
			c4.3-6.4,8.7-12.9,13-19.3c2-2.9,4.1-5.8,6-8.8c1.6-2.5,1.3-4.3-0.8-6.3c-1-0.9-2-1.7-3-2.6c-1.1-1-2.2-1.9-3.7-0.6
			c-6.1-3.8-12.6-7-18.1-11.8c0-0.6,0.4-1,0.8-1.3c0.3-0.3,0.3-0.6-0.1-0.8c-1.2-0.7-2.3-1.5-3.5-2c-2.3-1.1-4-0.6-5.5,1.4
			c-0.6,0.8-1.3,1.7-1.9,2.6c-0.2,0.3-0.5,0.5-0.7,0.8c-4,5.6-8,11.2-11.8,16.8c-2.2,3.2-4.7,6.1-6.5,9.5l0,0
			C93.8,168.5,93.4,169.3,93.1,170.1L93.1,170.1z M194.1,63.3c-0.1-0.2-0.2-0.4-0.3-0.6c-0.2,0.2-0.2,0.4-0.1,0.6
			c-0.2,0.8-0.4,1.6-0.6,2.5c-0.1,0.4-0.3,0.7-0.4,1.1c-0.3,0.7-0.7,1.5-1,2.2c-1.2,2.5-2.8,4.7-5.6,5.7c-2.9,1.1-5.6,0.7-7.8-1.6
			c-1.9-2-1.9-4.4-1-6.9c1.1-3.1,3.3-5.3,5.4-7.7c-0.6-0.2-1.2-0.1-1.8,0.1c-6.2,2.1-10.3,6.4-13.5,11.7c-2.3,3.8-3.6,8-2.6,12.5
			c0.2,1.5,1.3,2.4,2.1,3.6c2.3,3.9,9.1,6.2,13.3,4.7c3.1-1.1,5.4-3.3,7.4-5.7c4-4.9,7.1-10.2,7.3-16.7c0-1.1,0.5-2.2-0.3-3.2
			C194.3,64.7,194.7,63.9,194.1,63.3z M132.5,137.2c-0.5,0.7-0.9,1.4-1.4,2.1c-1.8,2.3-1.8,2.3,0.4,3.9c0.2,0.1,0.4,0.3,0.6,0.4
			c0.5,0.5,0.9,0.6,1.4-0.2c2-3.4,4.1-6.7,6.2-10.1c3.3-5.1,6.7-10.2,10-15.3c4.8-7.4,9.5-14.8,14.3-22.3c0.1-0.1,0.2-0.2,0.3-0.4
			c0.9,0.8-0.1,1.3-0.3,1.7c-6.2,10-12.5,19.9-18.7,29.8c-2.8,4.5-5.7,9-8.6,13.5c-0.8,0.8-1.2,1.9-1.9,2.8c-1.1,1.3-0.6,2,0.8,2.5
			c0.4,0.4,0.8,0.6,1.3,0.7c3,2.4,3,2.4,5-0.7c9.3-14.6,18.4-29.2,27.9-43.6c1.9-2.8,3.7-5.7,5.6-8.6c-1.5-0.4-2.8-0.8-4.2-1.2
			c-1.4-0.8-2.9-1.6-4.3-2.4c-0.3-0.3-0.7-0.6-1-1c-0.4-0.7-0.7-1.5-1.4-2c-4.8,8.2-10.2,16.1-15.3,24c-3.6,5.6-7.2,11.3-10.8,16.9
			c-0.5,0.4-0.8,0.9-1,1.4C135.6,131.9,134,134.5,132.5,137.2z M203.2,239.2c2.2-1.4,4.3-2.9,5.8-5.1c1-1,1.8-2.1,2.3-3.3
			c6.6-13.9,0.2-25.5-12.7-33.5c-2.4-2-5.1-3.5-7.8-5.1c-9.4-5.8-18.8-11.8-27.7-18.2c-3.1-2.3-6.2-4.5-9.3-6.8
			c-1.2-0.9-1.9-1-2.5,0.4c-0.1,0.3-0.3,0.5-0.4,0.8c-0.8,0.8-1.5,1.7-1.7,2.8c-0.6,0.5-1,1.1-1.4,1.8c-3.1,4.6-6.2,9.2-9.3,13.7
			c-0.2,0.3-0.5,0.7-0.4,1.1c-0.5,0.2-0.5,0.6-0.5,1c-1.5,1.1-2.1,2.8-3.3,4.1c-0.9,1.1-0.7,1.7,0.3,2.7c5.5,5.6,10.9,11.3,16.4,17
			c4.7,4.9,9.5,9.9,14.2,14.8c0.4,0.5,0.9,0.9,1.3,1.4c0.8,0.8,1.6,1.7,2.4,2.5c4.3,5.3,9.3,9.5,16.4,10.8
			C191.7,243.3,197.7,242.8,203.2,239.2z M100.8,111.8c0-2.2,0.5-4.5,0.1-6.7c-0.2-11.7-6.2-20.1-16.1-26.1
			c-5.9-3.5-12.5-4.9-19.3-5.2c-4.2-0.2-8.3,0.3-12.2,2.1c0.2,0.3,0.3,0.5,0.5,0.7c5.4,5.5,10.7,11,16.1,16.5c1.6,1.7,2.5,3.6,2.8,6
			c0.4,4-1.6,6.9-3.7,10c-2.2,3.3-5.1,5.3-8.9,6.2c-3.6,0.8-7.3,1-10.2-1.9c-5.6-5.5-11.1-11-16.6-16.5c-1.3-1.3-1.8-1.3-2.7,0.4
			c-1.8,3.8-2.3,7.8-2,11.9c0,1.5,0.1,3.1,0.1,4.6c0.2,1.1,0.4,2.3,0.7,3.4c3.5,13.1,11.6,22,25.1,25.8c3.7,1,7.6,1.7,11.1-0.8
			c0.5-0.4,1.2-0.5,1.9-0.7c6.9-2.2,13.1-5.7,18.4-10.6c6.7-6.2,10.9-13.7,11.8-22.8c1-0.4,0.6,0.5,0.6,0.8c0,2-0.1,4.1-0.1,6.1
			c-1,5.9-4.2,10.8-8.1,15.3c-5.9,6.8-13.6,10.9-22.2,13.8c-0.3,0.1-0.8,0-0.9,0.6c4.9,0.8,9.3,2.6,13.5,5.1c4.5,2.7,8.7,6,12.5,9.5
			c0.8,0.7,1.3,0.9,1.9-0.2c0.6-1.1,1.3-2.1,2.2-3.1c1-1.1,0.9-1.9-0.4-2.8c-2.9-2.1-5.6-4.3-8.4-6.5c-1-0.8-2-1.5-2.4-2.8
			c1-0.2,1.5,0.5,2.2,1c3.3,2.3,6.4,4.9,9.4,7.5c1,0.9,1.5,1,2.3-0.2c2.8-4.1,5.6-8.1,8.6-12c0.9-1.2,0.7-1.9-0.2-2.8
			c-2.5-2.4-5.1-4.7-7.1-7.5c-0.4-0.5-1-0.9-0.6-1.7c0.2,0.1,0.3,0.2,0.4,0.3c2.8,2.3,4.7,5.4,7.4,7.8c1.7,1.5,1.6,1.6,3-0.3
			c0.5-0.7,1.1-1.4,1.7-2.1c0.6-0.4,1.2-0.8,1.8-1.2c-7.4-6.9-9.9-10.4-12.5-17.2c-0.2-0.8-0.2-1.7-0.7-2.5
			C101.4,112.4,101.1,112,100.8,111.8z M183.7,71.1c1-0.1,1.7-0.9,2.3-1.8c1.8-2.9,2.9-6,3.9-9.3c0.2-0.8,0.4-1.4-0.6-1.8
			c-1.1-0.5-1.3,0.2-1.7,0.8c-1.6,2.5-3.2,5-5.4,7.1c-0.7,0.7-1,1.6-1.1,2.6C181,70.1,182.1,71.1,183.7,71.1z"/>
		<path class="st8" d="M94.6,168c1.8-3.4,4.3-6.3,6.5-9.5c3.9-5.6,7.9-11.2,11.8-16.8c0.2-0.3,0.5-0.5,0.7-0.8
			c0.1,0.1,0.2,0.2,0.3,0.3c-0.2,0.4-0.3,0.9-0.5,1.3c-0.7,2.1-0.6,2.3,1.6,2.7c1.4,0.3,2.9,0.4,3.5,1.9c-0.4-0.1-0.7-0.1-1.1-0.2
			c-1.4-0.3-2.2,0.5-2.7,1.5c-0.5,1.1-0.3,2.2,0.7,3c1,0.8,2,0.7,3,0c1.6-1.1,1.6-2.2,0.1-4.4c0.7-0.1,1.2,0.2,1.6,0.7
			c1.2,1.6,2.7,2.9,4.1,4.2c1,1,1.1,1.9,0.3,2.9c-1,1.3-0.9,2.5,0.5,3.4c2.2,1.4,4.5,1.4,5.3-0.1c0.6-1.1,1.1-0.9,1.9-0.5
			c2.9,1.6,6.1,2.4,9.4,2.8c0.1,0,0.2-0.4,0.3-0.6c0.5,0.2,0.9,0.3,1.4,0.5c-0.1,1.9-1.5,3.3-2.2,5c-0.9,0.5-1.2,1.4-1.8,2.1
			c-1.2,1.6-2.1,3.4-3.7,4.6c-0.7-1.3-1.6-2.4-3.2-2.5c-3.5-0.3-6.3,0.9-8.3,3.8c-8.3,12.3-16.7,24.5-25,36.7
			c-2.6,3.8-5.2,7.6-7.7,11.4c-2,2-3.4,4.5-5.1,6.7c-1.2,2-0.2,3.4,2.5,3.7c0.4,1.8-0.7,2.4-2.3,2.7c-2.3,0.4-4.6,0.6-7,0.1
			c-1-0.2-2-0.9-3.1-0.1c-3.6-1.9-7.1-3.9-10-6.8c-2.3-2.2-3.9-4.9-4.3-8.1c-0.2-1.5,0.4-2.9,0.1-4.4c1-1.4,2.7-2.1,3.8-3.2
			c3.3-3.5,6.4-7.2,9.3-10.9c5.9-7.5,11.2-15.4,16.7-23.2c2.9-4.1,5.2-8.6,7.7-12.9c0.4-0.7,1-1.9,0.1-2.4c-0.8-0.4-1.3,0.8-1.8,1.3
			C96.9,165.4,96.3,167.2,94.6,168z M104.7,180.7c0.3-0.2,0.6-0.3,0.6-0.8c0-0.1-0.2-0.2-0.3-0.1C104.6,180,104.8,180.4,104.7,180.7
			c-0.3,0-0.5,0-0.6,0.3c0,0.1,0.1,0.2,0.2,0.2C104.7,181.2,104.7,181,104.7,180.7z M107.7,176.2c1-0.4,1.4-1.1,1.5-2.1
			c1.2-0.6,1.7-1.7,2.2-2.8c0.3-0.2,0.6-0.3,0.6-0.8c0-0.1-0.2-0.2-0.2-0.1c-0.4,0.1-0.3,0.6-0.4,0.9c-1.4,0.5-1.7,1.7-2.2,2.8
			C108.2,174.5,107.8,175.2,107.7,176.2c-0.3,0.2-0.7,0.3-0.6,0.7c0,0.1,0.2,0.2,0.3,0.1C107.8,176.9,107.6,176.5,107.7,176.2z
			 M72.1,216.4c-1.5,0.7-2.2,3.7-1.1,4.8c0.2,0.2,0.5,0.5,0.8,0.3c0.3-0.2,0.2-0.5,0.2-0.8c-0.1-0.9-0.9-1.7-0.2-2.6
			c1.2,0.1,2.2,0.5,3.3-0.8c4.7-5.6,8.9-11.6,13-17.6c6.5-9.6,12.9-19.2,19.3-28.8c1.8-2.7,3.8-5.3,5.4-8.2c0.2-0.4,0.6-0.9,0.1-1.3
			c-0.5-0.4-1.1-0.2-1.5,0.2c-0.7,0.7-1.5,1.4-2.1,2.2c-4.4,6.6-9.3,12.9-14,19.3C87.4,194.1,79.6,205.2,72.1,216.4z M100.3,167.9
			c2-2.5,4-4.9,5.9-7.3c1.6-2,2.8-2.5,5.3-1.7c1.9,0.6,2.9,1.9,3,4c0,0.4-0.2,0.9,0.3,1.1c0.5,0.2,0.7-0.3,1-0.6
			c1.3-1.8,0.5-5.8-1.4-7c-2.2-1.5-5-1.2-7.2,0.6c-3.2,2.6-4.9,6.3-7.1,9.5C99.9,166.8,99.9,167.3,100.3,167.9z M80.4,215.9
			c-1.7,2.1-3.2,4.3-5.1,6.4C77,221.9,79.4,218.8,80.4,215.9z M106.8,178c0-0.1,0-0.2-0.1-0.3c-0.1,0-0.2,0-0.3,0.1
			c0,0.1,0.1,0.2,0.1,0.4C106.6,178.1,106.7,178,106.8,178z M106.1,179c0-0.1-0.1-0.2-0.1-0.3c-0.1,0-0.2,0.1-0.3,0.1
			c0.1,0.1,0.1,0.2,0.2,0.3C105.9,179.1,106,179.1,106.1,179z"/>
		<path class="st4" d="M165.6,235.9c-13.5-0.6-27.1-0.7-40.6-0.7c-5.7,0-11.3,0.6-17,0.4c3.2-5,6.5-10.1,9.7-15.1
			c4.5-7,8.9-14,13.4-21.1c3.2,3.3,6.3,6.6,9.4,9.8c8.2,8.6,16.3,17.2,24.5,25.8C165.1,235.3,165.3,235.6,165.6,235.9z"/>
		<path class="st8" d="M151,168.3c0.1-0.3,0.3-0.5,0.4-0.8c0.6-1.5,1.3-1.3,2.5-0.4c3,2.4,6.2,4.6,9.3,6.8c-0.6,1.6,0.1,3.5,2,4.9
			c5,3.6,10,7.2,15.2,10.5c4.3,2.7,8.4,5.5,12.7,8.1c0.5,0.3,1.1,0.5,1.3,1.2c-1.3-0.1-2.6-0.1-3.9-0.2c-0.1,0-0.3,0-0.4,0
			c-2.5,0-4.9,0.6-7.2,1.2c-1.2,0.1-2.4,0.2-3.5,0.8c-6.3,3.1-10.2,7.9-11.3,14.7c-0.2,1.6-0.8,3.2-0.7,4.8c-0.2,1.3-0.4,2.6-0.6,4
			c-0.3-0.1-0.5-0.3-0.7-0.5c-4.2-5.6-8.4-11.2-12.6-16.9c-1.2-1.5-2.6-3-2.9-5c1.4,1.2,2.9,2.3,4.2,3.6c3.3,3.4,6.8,6.6,10.2,9.9
			c0.4,0.4,0.8,0.9,1.4,0.5c0.6-0.5-0.1-0.9-0.3-1.3c-3.2-4.7-7.3-8.7-11.4-12.7c-0.9-1.9-2.6-3.2-4-4.7c-2.4-2.5-2.7-5.3-1.6-8.3
			c0.9-2.5,2.3-4.7,3.7-6.8c0.8-1.2,1.3-2.7,2.6-3.5c0.5,0.3,0.9,0.5,1.4,0.9c6.6,4.6,13.2,9.3,19.7,13.9c0.5,0.3,1,1,1.5,0.5
			c0.5-0.5,0.2-1.3-0.1-1.8c-0.9-1.3-2-2.3-3.3-3.2c-5.9-4.2-11.8-8.3-17.7-12.4c0-1,1.3-1.9,0.4-2.9
			C155.2,171.3,153.4,169.5,151,168.3z"/>
		<path class="st14" d="M28.5,108.9c-0.3-4.1,0.1-8.1,2-11.9c0.8-1.7,1.4-1.7,2.7-0.4c5.5,5.5,11,11.1,16.6,16.5
			c2.9,2.8,6.6,2.7,10.2,1.9c3.8-0.9,6.7-2.9,8.9-6.2c2.1-3.1,4.1-6.1,3.7-10c-0.2-2.3-1.1-4.3-2.8-6c-5.4-5.5-10.7-11-16.1-16.5
			c-0.2-0.2-0.3-0.4-0.5-0.7c3.9-1.8,8-2.3,12.2-2.1c6.8,0.3,13.4,1.7,19.3,5.2c9.9,5.9,15.9,14.4,16.1,26.1c-1.1,0.2-1.7-0.1-2-1.4
			c-1-3.3-1.8-6.7-3.9-9.6C91.6,88,86.5,83.8,80.1,81c-5.9-2.6-12.1-3.8-18.6-3.5c-0.5,0-1.3-0.3-1.5,0.3c-0.3,0.7,0.5,1,0.9,1.4
			c0.6,0.6,1.3,1,1.9,1.6c3.2,3.2,6.5,6.4,9.7,9.8c1.6,1.7,3.5,3.3,4.3,5.6c1.8,5.6,0.3,10.7-2.6,15.6c-1.6,2.6-4.4,3.8-6.9,5.2
			c-4,2.2-8.3,3.1-13,2.4c-4.2-0.6-7.3-2.8-10.2-5.5c-4.1-3.7-7.5-7.9-11.4-11.8c-0.4-0.4-0.8-1.1-1.5-0.7c-0.6,0.3-0.6,0.9-0.7,1.5
			c-0.2,1.5,0.4,2.9,0.4,4.4c-0.1,0.5-0.3,0.9-0.4,1.4C29.7,108.7,29.1,108.8,28.5,108.9z"/>
		<path class="st3" d="M76.4,234.8c1.1-0.8,2.1,0,3.1,0.1c2.4,0.4,4.7,0.3,7-0.1c1.5-0.3,2.6-0.9,2.3-2.7c0.5-0.2,1.1,0.1,1.5-0.4
			c2.8-0.1,4.6-1.9,6-3.8c5.1-6.3,9.8-12.9,14.3-19.6c6.5-9.6,12.9-19.3,19.2-29c1.1-1.7,2.6-3.3,2.2-5.6c1.1-0.1,1.6,0.3,1.5,1.4
			c-0.1,0.8-0.1,1.5-0.1,2.3c0,0.4-0.5,0.9,0,1.1c0.6,0.3,0.7-0.5,1-0.8c1.3-1.6,1.4-3.4,1.3-5.3c1.6-1.3,2.5-3.1,3.7-4.6
			c0.6-0.7,0.9-1.7,1.8-2.1c0.9,1,1.6,2,2.2,3.2c-1.6,2.5-3.1,5-4.7,7.5c-3,4.9-6.5,9.4-9.1,14.6c-0.2,0.4-0.5,0.8,0,1.2
			c-6.2,9.5-12.3,19-18.5,28.5c-3.1,4.8-6,9.7-9.3,14.3c-1.3,0.3-1.8,1.4-2.7,2.2c-1,1-1.3,2.8-3.2,2.8c-0.5-0.6-0.2-1.9-1.6-1.7
			c-0.8,0.1-1.5,0.3-2.3,0.4C86.1,239.4,81.1,237.8,76.4,234.8z"/>
		<path class="st27" d="M30.3,108.6c0.1-0.5,0.3-0.9,0.4-1.4c1.1-0.2,1.4,0.4,1.4,1.3c0,0.8,0,1.7,0.1,2.5c1.1,8.1,5,14.6,11.5,19.7
			c5.7,4.4,12.2,6.5,19.5,5.5c10.1-1.4,17.8-6.6,23.7-14.6c3.4-4.6,5.8-9.6,7-15.1c0.7-3.2,1.4-6.6,0.6-9.9c0.4,0,0.6,0.3,0.8,0.6
			c1.5,3.4,3.6,6.7,2.2,10.7c-0.9,9.1-5,16.6-11.8,22.8c-5.3,4.9-11.5,8.4-18.4,10.6c-0.6,0.2-1.3,0.3-1.9,0.7
			c-3.6,2.5-7.4,1.8-11.1,0.8C40.9,139,32.8,130.1,29.3,117c-0.3-1.1-0.5-2.3-0.7-3.4C30.4,112.3,30.3,110.4,30.3,108.6z"/>
		<path class="st28" d="M101.5,112.8c0.5,0.8,0.5,1.6,0.7,2.5c-1.4,1.1-0.8,2.7-0.5,3.9c1.2,6.5,6.2,10.4,10.9,14.5
			c0.1,0.1,0.2,0.1,0.3,0.1c-0.6,0.7-1.1,1.4-1.7,2.1c-1.4,1.8-1.3,1.8-3,0.3c-2.7-2.4-4.6-5.5-7.4-7.8c-0.1-0.1-0.2-0.2-0.4-0.3
			c-0.4,0.9,0.2,1.3,0.6,1.7c2,2.8,4.6,5.1,7.1,7.5c1,1,1.1,1.7,0.2,2.8c-2.9,4-5.8,8-8.6,12c-0.8,1.2-1.3,1.1-2.3,0.2
			c-3-2.7-6-5.3-9.4-7.5c-0.7-0.5-1.2-1.2-2.2-1c-1.5-0.9-3.2-1.3-4.8-1.8c0.1-0.5,0.5-0.5,0.8-0.7c4.5-2.6,8.2-5.9,11.4-9.9
			c3.1-4,4.8-8.6,6.4-13.3C100.3,116.3,100.4,114.4,101.5,112.8z"/>
		<path class="st29" d="M101.5,112.8c-1.1,1.6-1.2,3.5-1.8,5.3c-1.6,4.7-3.3,9.3-6.4,13.3c-3.2,4-6.9,7.3-11.4,9.9
			c-0.3,0.2-0.7,0.2-0.8,0.7c1.6,0.5,3.3,0.9,4.8,1.8c0.4,1.3,1.4,2,2.4,2.8c2.8,2.2,5.5,4.4,8.4,6.5c1.3,0.9,1.3,1.7,0.4,2.8
			c-0.8,0.9-1.5,2-2.2,3.1c-0.6,1-1.1,0.9-1.9,0.2c-3.9-3.6-8-6.8-12.5-9.5c-4.2-2.5-8.6-4.3-13.5-5.1c0.2-0.7,0.6-0.5,0.9-0.6
			c8.5-2.9,16.2-7,22.2-13.8c3.9-4.5,7-9.4,8.1-15.3c0.7-1.2,1.4-2.4,2.7-3C101.1,112,101.4,112.4,101.5,112.8z"/>
		<path class="st3" d="M150.4,201.5c0.3,2,1.7,3.4,2.9,5c4.2,5.6,8.4,11.2,12.6,16.9c0.2,0.2,0.4,0.5,0.7,0.5
			c0.1,0.9,0.1,1.9-0.1,2.8c-0.6,0-1,0.2-1.3,0.7c-4.7-4.9-9.5-9.9-14.2-14.8c-5.4-5.7-10.9-11.4-16.4-17c-0.9-0.9-1.1-1.6-0.3-2.7
			c1.1-1.4,1.8-3.1,3.3-4.1c0.3,0.7,0.9,1.1,1.4,1.6C142.9,194.1,146.7,197.8,150.4,201.5z"/>
		<path class="st30" d="M94.6,168c1.7-0.8,2.3-2.6,3.6-3.8c0.6-0.6,1-1.8,1.8-1.3c0.9,0.5,0.2,1.7-0.1,2.4
			c-2.5,4.4-4.8,8.8-7.7,12.9c-5.5,7.8-10.8,15.7-16.7,23.2c-3,3.8-6.1,7.4-9.3,10.9c-1.1,1.2-2.8,1.9-3.8,3.2
			c-0.2,0.1-0.4,0.1-0.6,0.2c-0.5-0.1-1-0.1-1.5-0.2c3.7-5.8,8.1-11.2,12.2-16.8c6.8-9.3,13.8-18.4,20.2-27.9
			c0.4-0.1,0.6-0.3,0.5-0.7c0,0,0,0,0,0C94.4,169.9,94.5,169,94.6,168L94.6,168z"/>
		<path class="st29" d="M136.6,140.6c2.9-4.5,5.7-9,8.6-13.5c6.3-9.9,12.5-19.9,18.7-29.8c0.3-0.5,1.3-1,0.3-1.7
			c0-0.6,0.5-0.9,0.7-1.4c0.7-1.3,1.9-2.4,1.9-4.1c1.4,0.8,2.9,1.6,4.3,2.4c0,0.8-0.7,1.4-1,2c-1.1,1.9-2.3,3.8-3,5.9
			c-0.1,0.1-0.3,0.3-0.4,0.4l0,0c-0.3,0.2-0.4,0.4-0.4,0.7l0,0c-0.4,0.2-0.6,0.5-0.8,0.9c-5.1,7.3-10.1,14.8-14.7,22.4
			c-1.6,2.6-3.3,5.1-4.5,7.8c-0.1,0.1-0.2,0.2-0.3,0.3c-0.2,0.4-0.5,0.8-0.7,1.1c0,0.1,0,0.2,0,0.2c-0.4,0.4-0.7,0.8-1.1,1.2
			c-0.2,0.1-0.6,0.2-0.6,0.3c-0.6,2.2-2.2,3.8-3.4,5.7c-0.9,1.4-1.9,1.4-2.9,0.1C137.1,141.2,136.9,140.9,136.6,140.6z"/>
		<path class="st27" d="M146.1,132.9c0.1-0.1,0.2-0.2,0.3-0.3c1.1-0.3,1.5-1.2,2-2.1c2.5-3.9,4.9-8,7.5-11.8
			c3.3-4.6,6.1-9.6,9.2-14.3c0.6-0.9,1.3-1.9,1.2-3.1c0,0,0,0,0,0c0.3-0.1,0.4-0.4,0.4-0.7c0,0,0,0,0,0c0.1-0.1,0.3-0.3,0.4-0.4
			c0.7-2.1,1.9-4,3-5.9c0.4-0.7,1-1.2,1-2c1.3,0.4,2.7,0.7,4.2,1.2c-1.9,2.9-3.7,5.7-5.6,8.6c-9.5,14.4-18.6,29-27.9,43.6
			c-2,3.2-2,3.2-5,0.7c1-0.6,1.6-1.6,1.4-2.7c0-0.3-0.5-0.5-0.9-0.4c-1.1,0.5-2,1.1-1.9,2.4c-1.5-0.4-1.9-1.2-0.8-2.5
			c0.7-0.9,1-2,1.9-2.8c0.3,0.3,0.5,0.6,0.8,0.9c1,1.3,1.9,1.3,2.9-0.1c1.2-1.8,2.9-3.5,3.4-5.7c0-0.1,0.4-0.2,0.6-0.3
			c0,0.4,0.2,0.7,0.6,0.2c0.3-0.4,0.5-0.8,0.5-1.4c0-0.1,0-0.2,0-0.2C146.1,134,146.1,133.5,146.1,132.9z"/>
		<path class="st3" d="M155.2,178.2c-1.4,0.8-1.8,2.3-2.6,3.5c-1.5,2.2-2.9,4.4-3.7,6.8c-1.1,3.1-0.7,5.8,1.6,8.3
			c1.4,1.5,3.1,2.8,4,4.7c-0.6,0-1.2-0.2-1.4-0.6c-1-1.6-2.7-2.5-4-3.8c-3-2.9-6-5.9-9.2-8.6c-0.5-0.4-0.9-0.9-1.5-0.7
			c-0.2-0.5,0.1-0.8,0.4-1.1c3.1-4.6,6.2-9.2,9.3-13.7C150.5,174.5,152.8,176.4,155.2,178.2z"/>
		<path class="st8" d="M129.4,192c-0.5-0.4-0.2-0.8,0-1.2c2.6-5.1,6.1-9.7,9.1-14.6c1.6-2.5,3.1-5,4.7-7.5c1.4-1.5,2.1-3.5,3.7-4.9
			c0.6-0.5,0.9-1.6,0.8-2.4c-0.1-0.8-1.3-0.2-1.8-0.7c-0.1-0.1-0.2-0.1-0.3-0.1c-1.9-2.1-4.6-3-7-4.5c-3-1.9-6.1-3.6-9-5.5
			c-4.4-2.8-8.2-6.4-12.7-9.1c-0.4-0.2-0.7-1-1.3-0.2c-0.6,0-1.1,0-1.7,0c-0.1-0.1-0.2-0.2-0.3-0.3c0.6-0.9,1.2-1.7,1.9-2.6
			c1.5-2,3.2-2.4,5.5-1.4c1.2,0.6,2.4,1.4,3.5,2c0.4,0.2,0.4,0.5,0.1,0.8c-0.4,0.4-0.7,0.8-0.8,1.3c-1.5-0.7-2.2-2.2-3.6-2.9
			c-0.9-0.5-2-0.8-2.8,0.2c-0.9,1.1,0.4,1.6,1,2c5.4,4.2,11,8.3,17,11.7c2.6,1.4,5.2,2.7,7.8,4.1c0.4,0.2,1.1,0.6,1.4-0.1
			c0.4-0.7-0.2-1.1-0.7-1.4c-0.3-0.2-0.8-0.4-1.2-0.5c-0.8-0.1-0.9-0.6-1-1.2c1.5-1.4,2.6-0.4,3.7,0.6c1,0.9,2,1.7,3,2.6
			c2.1,2,2.4,3.8,0.8,6.3c-1.9,3-4,5.9-6,8.8c-4.3,6.4-8.7,12.9-13,19.3C130.1,191.1,129.7,191.6,129.4,192z"/>
		<path class="st8" d="M60.2,215.6c0.5,0.1,1,0.1,1.5,0.2c-0.4,2-0.8,3.9-1.1,5.9c-0.5,3.5,0.2,6.7,2.7,9.3
			c5.3,5.7,11.9,9.7,19.4,12c0,1,0.4,1.9,1.5,2.1c3.4,0.5,6.6,0,9.3-2.2c0.8-0.6,2-1,1.9-2.3c0.3-0.2,0.3-0.4,0.4-0.7
			c1.9-0.1,2.2-1.8,3.2-2.8c0.9-0.8,1.4-1.9,2.7-2.2c-1.9,3.2-4.1,6.2-7.1,8.6c-3.6,2.9-7.8,3.3-12,2.3c-8.5-2-15.8-6.4-21.5-13
			C56.6,227.6,56.3,221.2,60.2,215.6z"/>
		<path class="st29" d="M194.7,68.6c-0.1,6.5-3.2,11.8-7.3,16.7c-2,2.4-4.3,4.6-7.4,5.7c-4.3,1.5-11-0.9-13.3-4.7
			c0.9-1.5-0.5-2.6-0.7-4c-0.1-1.4,0.1-2.9,0.4-4.3c0.2,0,0.4,0,0.5,0c-0.3,1.2,0.3,2.4,0.3,3.6c0.5,1.6,1.3,3,2.8,3.9
			c2.8,2.1,5.9,2.5,9,1.2c5.7-2.3,8.8-7,11.3-12.2c0.6-0.5,0.3-1.4,1.1-1.8c1.4-0.5,1.5-1.8,1.8-2.9
			C193.5,69.2,193.7,68.5,194.7,68.6z"/>
		<path class="st14" d="M166.4,78.1c-0.3,1.4-0.5,2.8-0.4,4.3c-0.5,0-0.9,0.1-1.3,0.4c-1-4.5,0.3-8.7,2.6-12.5
			c3.2-5.3,7.3-9.6,13.5-11.7c0.7-0.2,1.2-0.3,1.8-0.1c-2.1,2.4-4.3,4.7-5.4,7.7c-0.9,2.5-0.9,4.9,1,6.9c2.2,2.3,4.9,2.7,7.8,1.6
			c2.8-1,4.4-3.2,5.6-5.7c0.3-0.7,0.7-1.5,1-2.2c1.1,0.4,0.6,1.2,0.4,1.9c-0.5,1.4-1,2.7-1.6,4.1c-0.8,0.3-0.5,1.3-1.1,1.8
			c-3,1.8-6.2,2.6-9.8,1.8c-3.2-0.7-5.7-2.9-6.2-5.9c-0.1-0.9-1-1-1.4-1.6c-0.2-0.2-0.7,0.7-0.9,1.1c-1.1,1.8-2,3.7-3.8,5
			c0.3-2,1.7-3.4,2.8-5c1.1-1.6,2.5-2.9,3.1-4.7C170.1,68.7,166.6,72.4,166.4,78.1z"/>
		<path class="st30" d="M194.3,198.6c-0.1-0.7-0.8-0.9-1.3-1.2c-4.3-2.5-8.5-5.4-12.7-8.1c-5.2-3.3-10.2-6.9-15.2-10.5
			c-1.9-1.4-2.6-3.3-2-4.9c9,6.5,18.3,12.4,27.7,18.2c2.6,1.6,5.3,3.2,7.8,5.1c-1.2,0.8-2.8,0.5-3.9,1.4
			C194.6,198.7,194.4,198.7,194.3,198.6z"/>
		<path class="st30" d="M194.7,198.7c1.2-0.9,2.7-0.7,3.9-1.4c12.9,8,19.3,19.6,12.7,33.5c-0.6,1.2-1.3,2.4-2.3,3.3
			c0-0.7-0.5-1.2-0.8-1.8c0.2-0.6,0.3-1.2,0.5-1.7l0.1,0l0.1,0c0.7-0.2,1.3-0.4,2.1-0.7c-0.6-0.6-1.1-0.4-1.5-0.4
			c0.4-1.5,1.3-2.9,1.2-4.6l0,0c0.3-0.2,0.3-0.4,0.3-0.7c0.4-0.6,0.3-1.2,0.4-1.9c0.2-2.9-0.6-5.6-1.4-8.3
			c-1.9-6.4-6.8-10.3-12.4-13.6C196.7,200,195.5,199.6,194.7,198.7z"/>
		<path class="st14" d="M138.4,128c3.6-5.6,7.2-11.3,10.8-16.9c5.1-8,10.4-15.8,15.3-24c0.7,0.5,0.9,1.3,1.4,2
			c-0.9,2.2-1.6,4.4-3,6.4c-0.6,0.3-0.9,0.9-1.3,1.4c-2.8,4.2-5.8,8.4-8.4,12.7c-4,6.4-8.8,12.3-12.8,18.7
			C139.6,128.4,139,128.3,138.4,128z"/>
		<path class="st3" d="M166.6,226.7c0.2-0.9,0.2-1.9,0.1-2.8c0.2-1.3,0.4-2.6,0.6-4c0.4-0.5,0.6-0.8,1.1-0.1
			c0.4,0.6,0.6,1.4,1.5,1.5c0.3,1.8,1.3,3.2,2.2,4.8c2.6,4.7,6.3,8.3,11.3,10.4c2.5,1,5.1,1.5,7.6,2.1c-0.3,1.2-1,1.8-2.3,1.8
			c-5.8,0.1-10.5-2.3-14.2-6.5c-1.5-1.8-2.9-3.4-5.6-2.7c-0.8-0.8-1.6-1.7-2.4-2.5C166.6,228.1,166.6,227.4,166.6,226.7z"/>
		<path class="st3" d="M155.2,178.2c-2.3-1.9-4.7-3.8-7.3-5.3c0.4-0.6,0.7-1.3,1.4-1.8c2.7,1.3,4.9,3.3,7.4,4.9
			c5.9,4.1,11.8,8.3,17.7,12.4c1.3,0.9,2.4,1.9,3.3,3.2c0.4,0.6,0.6,1.4,0.1,1.8c-0.5,0.5-1.1-0.2-1.5-0.5
			c-6.6-4.6-13.2-9.3-19.7-13.9C156.1,178.8,155.6,178.5,155.2,178.2z"/>
		<path class="st3" d="M169,231.3c2.7-0.7,4,0.9,5.6,2.7c3.7,4.2,8.4,6.6,14.2,6.5c1.3,0,2-0.6,2.3-1.8c1.3-0.6,2.7-0.2,4-0.3
			c1,1,2.8,0.6,4-0.7c0.5-0.5,1.2-0.6,1.8-0.7c0.5,0.6,1-0.1,1.5,0c0,0.8-0.2,1.8,0.8,2.2c-5.5,3.7-11.5,4.1-17.8,3
			C178.3,240.8,173.3,236.6,169,231.3z"/>
		<path class="st3" d="M138.3,187.8c0.7-0.1,1.1,0.4,1.5,0.7c3.2,2.7,6.2,5.7,9.2,8.6c1.3,1.3,3,2.2,4,3.8c0.3,0.4,0.9,0.6,1.4,0.6
			c4.1,4,8.2,7.9,11.4,12.7c0.3,0.4,0.9,0.9,0.3,1.3c-0.5,0.4-1-0.2-1.4-0.5c-3.4-3.3-6.9-6.5-10.2-9.9c-1.3-1.3-2.8-2.4-4.2-3.6
			c-3.8-3.7-7.6-7.4-11.3-11.2c-0.5-0.5-1.1-0.9-1.4-1.6C137.8,188.4,137.8,188,138.3,187.8z"/>
		<path class="st27" d="M140.3,128.4c3.9-6.5,8.8-12.3,12.8-18.7c2.7-4.3,5.6-8.5,8.4-12.7c0.4-0.5,0.7-1.1,1.3-1.4
			c0.4,0.1,0.8,0.3,1.1,0.4c-4.8,7.4-9.5,14.9-14.3,22.3c-3.3,5.1-6.7,10.2-10,15.3c-0.4-0.8-1.6-0.1-1.9-1c0.1-0.3,0.1-0.6,0.2-0.9
			C139.2,130.9,139.7,129.6,140.3,128.4z"/>
		<path class="st30" d="M141.9,153c0.1,0.6,0.1,1.2,1,1.2c0.4,0,0.8,0.3,1.2,0.5c0.5,0.3,1.1,0.7,0.7,1.4c-0.4,0.7-1,0.3-1.4,0.1
			c-2.6-1.3-5.3-2.6-7.8-4.1c-6.1-3.4-11.6-7.5-17-11.7c-0.6-0.5-1.9-0.9-1-2c0.8-1,1.8-0.7,2.8-0.2c1.4,0.7,2.1,2.3,3.6,2.9
			C129.3,146,135.8,149.3,141.9,153z"/>
		<path class="st14" d="M183.7,71.1c-1.6,0.1-2.6-1-2.5-2.5c0.1-1,0.4-1.9,1.1-2.6c2.2-2.1,3.7-4.6,5.4-7.1c0.4-0.5,0.6-1.3,1.7-0.8
			c1,0.5,0.9,1.1,0.6,1.8c-1,3.2-2.1,6.4-3.9,9.3C185.4,70.2,184.7,71,183.7,71.1z"/>
		<path class="st14" d="M112.8,133.7c-0.1,0-0.3,0-0.3-0.1c-4.7-4.1-9.7-8-10.9-14.5c-0.2-1.2-0.9-2.7,0.5-3.9
			c2.6,6.8,5.1,10.3,12.5,17.2C114,132.9,113.4,133.3,112.8,133.7z"/>
		<path class="st29" d="M137.7,132.5c0.4,0.8,1.5,0.1,1.9,1c-2.1,3.4-4.2,6.7-6.2,10.1c-0.5,0.7-0.8,0.7-1.4,0.2
			c-0.2-0.2-0.4-0.3-0.6-0.4c-2.2-1.6-2.2-1.6-0.4-3.9c1.4-0.1,1.9-1.2,2.7-2.1C135.1,135.7,136.4,134.1,137.7,132.5z"/>
		<path class="st31" d="M100.8,111.8c-1.4,0.6-2,1.9-2.7,3c0-2,0.1-4.1,0.1-6.1c0-0.2,0.4-1.2-0.6-0.8c1.4-4-0.7-7.3-2.2-10.7
			c-0.2-0.4-0.3-0.6-0.8-0.6c0.1-0.8-0.3-1.7,0.3-2.5c2.1,2.9,2.9,6.3,3.9,9.6c0.4,1.2,0.9,1.5,2,1.4
			C101.2,107.3,100.7,109.5,100.8,111.8z"/>
		<path class="st3" d="M156.7,176.1c-2.4-1.7-4.7-3.7-7.4-4.9c0.2-1.2,1-2,1.7-2.8c2.4,1.2,4.2,3,6,4.9
			C158,174.2,156.6,175.1,156.7,176.1z"/>
		<path class="st3" d="M203.2,239.2c-1.1-0.4-0.8-1.4-0.8-2.2c0.5,0,0.8-0.3,1.1-0.5c1.8-1.1,3-2.9,4.7-4.1c0.3,0.6,0.9,1,0.8,1.8
			C207.5,236.3,205.4,237.8,203.2,239.2z"/>
		<path class="st14" d="M137.7,132.5c-1.3,1.6-2.6,3.1-3.9,4.7c-0.4,0-0.9,0-1.3,0c1.5-2.6,3.1-5.2,4.9-7.7c0.8,0.1,0.8,0.5,0.4,1.1
			c-0.2,0.4-0.7,0.7,0,1.1C137.8,131.9,137.7,132.2,137.7,132.5z"/>
		<path class="st31" d="M163.9,95.9c-0.4-0.1-0.8-0.3-1.1-0.4c1.4-1.9,2.1-4.2,3-6.4c0.3,0.3,0.7,0.6,1,1c0,1.7-1.2,2.8-1.9,4.1
			c-0.3,0.5-0.7,0.8-0.7,1.4C164.1,95.6,164,95.8,163.9,95.9z"/>
		<path class="st31" d="M191.4,72.8c0.5-1.4,1.1-2.7,1.6-4.1c0.2-0.7,0.8-1.5-0.4-1.9c0.1-0.4,0.3-0.7,0.4-1.1
			c0.4-0.1,0.9-0.2,1.3-0.3c0.8,1,0.4,2.1,0.3,3.2c-1-0.1-1.2,0.6-1.5,1.3C192.9,71.1,192.8,72.3,191.4,72.8z"/>
		<path class="st28" d="M30.3,108.6c-0.1,1.8,0,3.7-1.7,4.9c0-1.5-0.1-3.1-0.1-4.6C29.1,108.8,29.7,108.7,30.3,108.6z"/>
		<path class="st29" d="M135.6,145.9c-0.1-1.4,0.8-2,1.9-2.4c0.4-0.2,0.8,0,0.9,0.4c0.1,1.2-0.4,2.1-1.4,2.7
			C136.4,146.4,135.9,146.2,135.6,145.9z"/>
		<path class="st32" d="M137.9,131.6c-0.7-0.4-0.2-0.7,0-1.1c0.4-0.5,0.3-1-0.4-1.1c0.2-0.6,0.5-1.1,1-1.4c0.6,0.3,1.2,0.4,1.9,0.4
			C139.7,129.6,139.2,130.9,137.9,131.6z"/>
		<path class="st31" d="M164.7,82.8c0.4-0.3,0.9-0.3,1.3-0.4c0.3,1.3,1.7,2.4,0.7,4C166,85.2,164.8,84.2,164.7,82.8z"/>
		<path class="st32" d="M132.5,137.2c0.4,0,0.9,0,1.3,0c-0.8,0.9-1.3,2-2.7,2.1C131.5,138.6,132,137.9,132.5,137.2z"/>
		<path class="st8" d="M166.6,226.7c0,0.7,0,1.4,0,2.1c-0.4-0.5-0.9-0.9-1.3-1.4C165.6,226.9,166,226.7,166.6,226.7z"/>
		<path class="st14" d="M194.4,65.4c-0.4,0.1-0.9,0.2-1.3,0.3c0.2-0.8,0.4-1.6,0.6-2.4c0.1,0,0.3,0,0.4,0
			C194.7,63.9,194.3,64.7,194.4,65.4z"/>
		<path class="st8" d="M94.6,168c-0.1,1-0.2,1.9-1.5,2.1C93.4,169.3,93.8,168.5,94.6,168z"/>
		<path class="st8" d="M93.1,170.1c0.1,0.4-0.1,0.7-0.5,0.7C92.7,170.5,92.8,170.2,93.1,170.1z"/>
		<path class="st31" d="M194.1,63.3c-0.1,0-0.3,0-0.4,0c-0.1-0.2-0.1-0.4,0.1-0.6C193.9,62.9,194,63.1,194.1,63.3z"/>
		<path class="st33" d="M250,115.9c-0.2-7.8-1.1-15.5-2.9-23.1c-2.8-11.9-7.6-23-14.1-33.5c-7-11.4-15.7-21.4-26.2-29.9
			c-1.7-1.4-3.2-3.2-5.2-4.2c-0.9-1-2-1.6-3.2-2.3c-2.4-1.4-4.8-2.7-7.1-4.2c-6.4-4.2-13.5-7.3-20.6-10.1c-4.4-1.8-9-3-13.6-4.3
			c-6.2-1.7-12.5-3-19-3.1c-0.3-0.3-0.5-0.8-1-0.2c-0.1-0.1-0.3-0.3-0.4-0.3c-5.7-0.4-11.3-0.8-17-0.4c-0.5-0.1-1-0.1-1.5,0.1
			c-1-0.3-1.9-0.2-2.9,0.1c-4.1,0-8.1,0.5-12,1.3c-0.1,0-0.2,0-0.3,0.1c-0.1,0-0.2,0-0.4,0c-0.4-0.1-0.8-0.1-1.1,0.1
			c-0.3,0.1-0.7,0.1-1,0.2c-0.2,0-0.5,0-0.7,0c-4.4,1-8.8,1.9-13.1,3.3c-3.5,0.8-6.9,2-10.1,3.7c-2.9,0.5-5.3,2-8,3.2
			c-0.7,0.2-1.4,0.4-1.8,1c-5,2.1-9.5,5-14,8.1c-1.3,0.7-2.5,1.5-3.5,2.5c-0.1,0.1-0.2,0.2-0.3,0.3c-0.8,0.6-1.7,1.2-2.5,1.8
			c-5.8,4.3-11,9.1-15.6,14.5c-1.3,1.1-2.3,2.5-3.3,3.9c-3.6,4-6.8,8.4-9.5,13.1c-2.2,3.3-4.2,6.7-5.8,10.3c-0.2,0.3-0.5,0.7-0.7,1
			C6.3,80.4,3,92.4,1.2,104.8c-2,13.9-1.4,27.7,1.9,41.4c4.4,18.4,13.3,34.5,26.2,48.6c5.5,6,11.5,11.4,18.2,16.2
			c0.7,0.5,1.4,0.9,1.7-0.3c1.2-3.8,4-6.6,6.3-9.6c8.6-11.5,17.1-23,25.5-34.6c0.7-1,0.7-1.6-0.3-2.3c-1.8-1.2-3.5-2.5-5.3-3.7
			c-5-3.3-10.7-4.3-16.6-4.9c-10.4-1-19.6-5-27.2-12c-11.3-10.4-16.3-23.2-15.3-38.3c0.5-7.2,2.2-14.1,8.1-19.3
			c0.5-0.1,0.9-0.3,1.2-0.7c2.3-0.9,4.6-1.6,7-1.5c0.6,0.1,1.2,0.2,1.8,0.2c0,0,0.1,0,0.1,0l0.1-0.1c0.6,0.5,1.3,0.6,2,0.8
			c1.1,0.6,2.1,1.3,3.2,1.9c0.4,0.3,0.7,0.5,1.1,0.8c0.2,0.6,0.7,0.9,1.2,1.3c2.8,2.8,5.6,5.5,8.3,8.3c1.3,1.3,2.6,2.6,4,3.8
			c1.2,1.1,3.2,1,4.3-0.1c1.4-1.4,0.1-2.2-0.7-3.1c-1.5-1.6-3-3.2-4.5-4.8c-3.2-3.3-6.2-6.7-9.6-9.8c-0.7-1-1.4-2-2-2.9
			c-0.2-0.6-0.5-1.2-0.7-1.8c-0.6-3.4-0.3-6.6,1.7-9.5c0.8-0.8,1.7-1.5,2.3-2.5c0.5-0.2,0.9-0.4,1.4-0.6c0.6,0.1,1.1-0.1,1.5-0.5
			c3.1-1.5,6.4-2.3,9.7-3.2c1.8-0.1,3.6-0.4,5.4-0.4c9-0.4,17.4,1.5,25.4,5.4c6.2,3.1,11.7,7.1,15.9,12.6c6.3,8.3,9.5,17.8,9.3,28.2
			c0,0.6,0,1.3,0.2,1.9c1.8,6.1,5.4,11,10.6,14.8c0.9,0.7,1.3,0.5,1.8-0.3c4.6-7.2,9.4-14.3,14-21.5c3.4-5.3,6.5-10.8,10.3-16
			c0.7-1,1.9-2,1.6-3.5c0.2-2.7-0.2-5.4,0.4-8.1c0.9-5.2,3.2-9.8,6.2-14.1c0.5-0.4,0.8-0.9,1.1-1.5c3-3.9,6.5-7.1,10.9-9.5
			c0.7-0.2,1.3-0.5,1.8-1c0.3-0.2,0.7-0.3,1-0.5c0.4-0.2,0.8-0.4,1.2-0.5c1.5-0.5,3.1-1.1,4.6-1.6c0.2,0,0.5,0,0.7,0
			c0.1-0.1,0.3-0.1,0.4-0.2c0.3-0.1,0.7-0.1,1-0.2c0.3,0.1,0.6,0.1,0.8-0.2c1.1-0.1,2.1-0.1,3.2-0.2c0.7,0,1.4,0,2.2,0
			c0.7,0.1,1.4,0.1,2.1,0.2c0.2,0.1,0.3,0.2,0.5,0.2c7.6,0.8,14,6.1,16.1,13.3c1.9,6.6,1,13-1.3,19.3c-3.9,10.3-10.2,18.6-20.8,23.3
			c-0.6,0.2-0.8,0.6-1.1,1.1c-8.8,13.9-17.6,27.9-26.5,41.8c-0.6,1-0.5,1.6,0.3,2.4c2.2,2.3,4.5,4.6,5,7.8c0.4,2.8,1.9,4.4,4.2,5.7
			c0.3,0.2,0.6,0.4,0.9,0.7c9.7,7.4,19.9,14.2,30.5,20.4c7.3,4.3,14.3,8.9,19.8,15.2c0.8,1,1.2,0.9,2,0c3.8-4.2,7.5-8.6,10.8-13.3
			c7.1-10.1,12.4-21,15.9-32.7C249.1,139.8,250.2,127.9,250,115.9z M46.2,34.9c-0.5-0.1-0.6-0.5-0.6-0.9c0,0,0,0,0,0
			C45.6,34.4,45.7,34.8,46.2,34.9z M76.6,34.1c0-0.1,0.1-0.2,0.1-0.3c0,0,0,0,0,0C76.7,33.9,76.6,34,76.6,34.1z M134.6,79.1
			c0.4,0,0.5,0.2,0.6,0.6C135.1,79.3,134.9,79,134.6,79.1z M129.9,82.5c0-0.1,0.1-0.2,0.1-0.3c0,0,0,0,0,0
			C130,82.3,129.9,82.4,129.9,82.5z M129.9,90.4C129.9,90.4,129.9,90.4,129.9,90.4c0-0.1,0.1-0.2,0.1-0.3c0-0.1-0.2-0.1-0.3-0.1
			c0,0-0.1,0.1-0.1,0.2c0-0.1,0.1-0.1,0.1-0.2c0.1,0,0.3,0.1,0.3,0.1C130,90.2,129.9,90.3,129.9,90.4z"/>
		<path class="st30" d="M72.1,216.4c7.5-11.2,15.3-22.3,23.2-33.3c4.7-6.4,9.6-12.7,14-19.3c0.5-0.8,1.4-1.5,2.1-2.2
			c0.4-0.4,1-0.6,1.5-0.2c0.5,0.4,0.1,0.9-0.1,1.3c-1.6,2.9-3.6,5.5-5.4,8.2c-6.5,9.6-12.9,19.2-19.3,28.8c-4.1,6.1-8.3,12-13,17.6
			c-1.1,1.3-2.1,0.9-3.3,0.8C71.7,217.5,72,217,72.1,216.4z"/>
		<path class="st3" d="M95.7,239.8c0,0.3-0.1,0.6-0.4,0.7c-3.9,2.4-8.1,3.5-12.7,2.5c-7.5-2.4-14.1-6.3-19.4-12
			c-2.5-2.6-3.2-5.9-2.7-9.3c0.3-2,0.7-3.9,1.1-5.9c0.2-0.1,0.4-0.1,0.6-0.2c0.3,1.5-0.3,2.9-0.1,4.4c0.4,3.2,2,5.9,4.3,8.1
			c2.9,2.8,6.4,4.9,10,6.8c4.6,3,9.7,4.6,15.3,3.7c0.8-0.1,1.5-0.3,2.3-0.4C95.5,237.9,95.2,239.2,95.7,239.8z"/>
		<path class="st3" d="M135.6,172.3c0.2,1.9,0,3.7-1.3,5.3c-0.3,0.3-0.4,1-1,0.8c-0.5-0.2-0.1-0.7,0-1.1c0.1-0.8,0-1.5,0.1-2.3
			c0.1-1.1-0.4-1.5-1.5-1.4c-2.6-2.3-4.6-0.9-6.1,1.3c-3,4.3-5.8,8.8-8.8,13.1c-7.8,11.4-15.6,22.8-23.3,34.2
			c-0.4,0.5-0.6,1.2-1.3,1.4c-0.4-0.6-0.8-1.2-1.1-1.9c2.6-3.8,5.2-7.6,7.7-11.4c8.3-12.2,16.7-24.5,25-36.7c2-3,4.8-4.1,8.3-3.8
			C134,169.9,134.8,171,135.6,172.3z"/>
		<path class="st30" d="M113.9,141.2c0.6,0,1.1,0,1.7,0c1.4,2.8,4,4.5,6.4,6.3c6.3,4.7,12.8,8.9,19.8,12.5c-0.1,0.2-0.2,0.6-0.3,0.6
			c-3.3-0.4-6.5-1.2-9.4-2.8c-0.8-0.5-1.3-0.6-1.9,0.5c-0.8,1.5-3.2,1.5-5.3,0.1c-1.5-0.9-1.6-2.1-0.5-3.4c0.8-1,0.7-2-0.3-2.9
			c-1.4-1.4-2.9-2.6-4.1-4.2c-0.4-0.5-0.9-0.8-1.6-0.7l0,0c-0.6-1.6-2.1-1.7-3.5-1.9c-2.2-0.4-2.3-0.6-1.6-2.7
			C113.6,142.1,113.7,141.6,113.9,141.2z"/>
		<path class="st1" d="M141.8,160c-7-3.6-13.6-7.9-19.8-12.5c-2.4-1.8-5-3.5-6.4-6.3c0.5-0.8,0.9-0.1,1.3,0.2
			c4.5,2.6,8.3,6.2,12.7,9.1c3,1.9,6.1,3.6,9,5.5c2.3,1.5,5.1,2.4,7,4.5c-0.8,0-1.6,0-2.3,0C142.8,160.3,142.3,160.2,141.8,160z"/>
		<path class="st3" d="M100.3,167.9c-0.4-0.6-0.4-1.1-0.1-1.5c2.2-3.3,3.9-6.9,7.1-9.5c2.2-1.8,5-2.1,7.2-0.6c1.9,1.2,2.7,5.2,1.4,7
			c-0.2,0.3-0.5,0.8-1,0.6c-0.5-0.2-0.3-0.7-0.3-1.1c-0.1-2.1-1.1-3.5-3-4c-2.4-0.7-3.7-0.2-5.3,1.7
			C104.3,163,102.3,165.4,100.3,167.9z"/>
		<path class="st3" d="M143.2,160.5c0.8,0,1.6,0,2.3,0c0.1,0,0.3,0.1,0.3,0.1c0.5,0.5,1.7-0.1,1.8,0.7c0.1,0.8-0.3,1.9-0.8,2.4
			c-1.5,1.5-2.3,3.4-3.7,4.9c-0.6-1.2-1.3-2.2-2.2-3.2C141.7,163.8,143.1,162.4,143.2,160.5z"/>
		<path class="st3" d="M91.3,221.7c0.4,0.6,0.8,1.2,1.1,1.9c-0.5,2.1-2.2,3.5-3.2,5.2c-0.5,0.8-0.9,1.5-0.8,2.4
			c-1.3-0.5-1.3-2.1-2.2-2.9C87.9,226.2,89.3,223.7,91.3,221.7z"/>
		<path class="st30" d="M118.5,147.1c1.5,2.2,1.5,3.3-0.1,4.4c-1,0.7-2,0.8-3,0c-1-0.8-1.2-1.9-0.7-3c0.5-1.1,1.3-1.8,2.7-1.5
			C117.8,147.1,118.2,147.1,118.5,147.1C118.5,147.1,118.5,147.1,118.5,147.1z"/>
		<path class="st3" d="M80.4,215.9c-1,2.9-3.4,6-5.1,6.4C77.2,220.1,78.7,217.9,80.4,215.9z"/>
		<path class="st3" d="M86.2,228.4c1,0.8,0.9,2.3,2.2,2.9c0.6,0.1,1.2,0.3,1.8,0.4c-0.4,0.5-1,0.3-1.5,0.4
			C86,231.9,85,230.4,86.2,228.4z"/>
		<path class="st3" d="M72.1,216.4c-0.1,0.6-0.5,1.1-0.3,1.7c-0.7,0.9,0.2,1.7,0.2,2.6c0,0.3,0.1,0.6-0.2,0.8
			c-0.3,0.2-0.6-0.1-0.8-0.3C70,220.1,70.6,217.2,72.1,216.4z"/>
		<path class="st3" d="M109.1,174c0.4-1.2,0.8-2.4,2.2-2.8l0.1,0C110.8,172.3,110.3,173.4,109.1,174C109.1,174,109.1,174,109.1,174z
			"/>
		<path class="st3" d="M107.6,176.1c0.2-0.9,0.6-1.7,1.5-2.1c0,0,0,0,0,0C109.1,175,108.6,175.8,107.6,176.1L107.6,176.1z"/>
		<path class="st3" d="M111.2,171.2c0.1-0.3-0.1-0.7,0.4-0.9c0.1,0,0.2,0.1,0.2,0.1C111.9,170.9,111.6,171,111.2,171.2
			C111.3,171.2,111.2,171.2,111.2,171.2z"/>
		<path class="st3" d="M107.7,176.2c-0.1,0.3,0.1,0.7-0.3,0.9c-0.1,0-0.2-0.1-0.3-0.1C107,176.5,107.3,176.3,107.7,176.2
			C107.6,176.1,107.7,176.2,107.7,176.2z"/>
		<path class="st3" d="M104.7,180.7c0-0.3-0.1-0.7,0.3-0.9c0.1,0,0.2,0.1,0.3,0.1C105.4,180.4,105.1,180.6,104.7,180.7L104.7,180.7z
			"/>
		<path class="st3" d="M106.8,178c-0.1,0-0.2,0.1-0.3,0.1c0-0.1-0.1-0.2-0.1-0.4c0.1,0,0.2-0.1,0.3-0.1
			C106.7,177.8,106.7,177.9,106.8,178z"/>
		<path class="st3" d="M106.1,179c-0.1,0.1-0.2,0.1-0.2,0.2c-0.1-0.1-0.1-0.2-0.2-0.3c0.1,0,0.2-0.1,0.3-0.1
			C106,178.8,106,178.9,106.1,179z"/>
		<path class="st3" d="M104.7,180.7c0,0.2,0,0.5-0.4,0.5c-0.1,0-0.2-0.1-0.2-0.2C104.2,180.8,104.5,180.8,104.7,180.7
			C104.7,180.7,104.7,180.7,104.7,180.7z"/>
		<path class="st8" d="M195.1,238.4c-1.3,0.1-2.7-0.3-4,0.3c-2.6-0.6-5.2-1-7.6-2.1c-5.1-2.2-8.8-5.7-11.3-10.4
			c-0.9-1.6-1.9-3-2.2-4.8c-0.4-2.2-0.2-4.4,0.1-6.6c0.1-0.9,0.1-1.7-0.8-2.4c2.6-6.2,7.4-10.2,13.5-12.9c2.4-0.6,4.8-1.1,7.2-1.2
			c0.1,0.1,0.3,0.1,0.4,0c1.3,0.1,2.6,0.1,3.9,0.2c0.1,0,0.3,0.1,0.4,0.1c0.8,0.9,2,1.3,3,1.9c5.5,3.3,10.4,7.1,12.4,13.6
			c0.8,2.7,1.6,5.4,1.4,8.3c-0.1,0.6,0,1.3-0.4,1.9c-0.3,0.1-0.3,0.4-0.3,0.7c0,0,0,0,0,0c-0.7,0.3-0.9,0.9-1.1,1.5
			c-1.1,2.7-3.2,4.5-5.7,5.9c-0.9,0.5-1.8,0.8-2.8,1.3c0.5,0.3,0.8,0.1,1.1,0.1c1.9-0.1,3-1.8,4.9-2c-1.8,2.1-3.8,3.9-6.2,5.3
			c-0.6,0.2-1.3,0.2-1.8,0.7C197.7,237.9,196.4,238.2,195.1,238.4z M191.9,208.2c-1,0-2-0.2-3.1,0c-7.4,1.1-13.6,8.4-9.3,17
			c0,2.4,2.2,5.5,4.9,6.4c3.1,1.1,6.4,1.7,9.7,0.7c1-0.3,1.8-0.3,2.6,0.5c0.8,0.8,1.9,0.7,2.9,0.7c0.9-0.1,0.8-0.4,0.4-1
			c-1.5-2-1.5-1.9,0.5-3.5c0.7-0.6,1.5-1,2.3-1.4c0.6-0.3,1.1-0.7,0.9-1.3c-0.4-1.3,0.1-2.4,0.4-3.6c0.6-2.1-0.8-3.5-1.7-5.1
			c-0.5-1.3-1.1-2.5-1.6-3.8c0.5-0.7,0.4-1.5-0.1-2.1c-0.8-1-1.6-1.9-2.4-2.8c-1.4-1.6-3.3-2-5.4-1.9
			C192,206.9,191.8,207.4,191.9,208.2z"/>
		<path class="st1" d="M182.7,199.6c-6.1,2.7-10.9,6.7-13.5,12.9c-0.7,0.8-0.9,1.8-1.3,2.6c1.2-6.8,5.1-11.6,11.3-14.7
			C180.4,199.8,181.5,199.7,182.7,199.6z"/>
		<path class="st3" d="M167.9,215.1c0.5-0.9,0.7-1.9,1.3-2.6c0.8,0.6,0.9,1.5,0.8,2.4c-0.2,2.2-0.5,4.4-0.1,6.6
			c-1-0.1-1.1-1-1.5-1.5c-0.5-0.7-0.8-0.4-1.1,0.1C167.1,218.3,167.7,216.7,167.9,215.1z"/>
		<path class="st30" d="M190.4,198.5c-0.1,0.2-0.3,0.2-0.4,0C190.1,198.5,190.3,198.5,190.4,198.5z"/>
		<path class="st32" d="M94.9,94.1c-0.7,0.8-0.2,1.7-0.3,2.5c0.7,3.4,0,6.7-0.6,9.9c-1.1,5.5-3.6,10.6-7,15.1
			c-5.9,8-13.6,13.1-23.7,14.6c-7.3,1-13.8-1.1-19.5-5.5c-6.5-5.1-10.4-11.6-11.5-19.7c-0.1-0.8-0.1-1.6-0.1-2.5
			c0-0.9-0.4-1.5-1.4-1.3c0-1.5-0.6-2.9-0.4-4.4c0.1-0.6,0.1-1.3,0.7-1.5c0.7-0.3,1.1,0.3,1.5,0.7c3.9,3.9,7.4,8.1,11.4,11.8
			c2.9,2.7,6,4.8,10.2,5.5c4.7,0.7,9-0.2,13-2.4c2.5-1.4,5.3-2.6,6.9-5.2c3-4.9,4.4-10,2.6-15.6c-0.7-2.3-2.7-3.9-4.3-5.6
			c-3.1-3.4-6.4-6.6-9.7-9.8c-0.6-0.6-1.3-1-1.9-1.6c-0.4-0.4-1.2-0.7-0.9-1.4c0.2-0.6,1-0.3,1.5-0.3c6.5-0.3,12.7,0.9,18.6,3.5
			C86.5,83.8,91.6,88,94.9,94.1z"/>
		<path class="st8" d="M90.2,231.7c-0.6-0.1-1.2-0.3-1.8-0.4c-0.1-0.9,0.4-1.7,0.8-2.4c1-1.8,2.7-3.2,3.2-5.2c0.7-0.2,1-0.8,1.3-1.4
			c7.8-11.4,15.6-22.8,23.3-34.2c3-4.4,5.8-8.8,8.8-13.1c1.5-2.2,3.4-3.6,6.1-1.3c0.4,2.3-1.1,3.9-2.2,5.6
			c-6.3,9.7-12.7,19.4-19.2,29c-4.5,6.7-9.2,13.3-14.3,19.6C94.8,229.8,93,231.6,90.2,231.7z"/>
		<path class="st28" d="M166.4,101.5c0,1.2-0.6,2.2-1.2,3.1c-3.2,4.7-5.9,9.6-9.2,14.3c-2.7,3.8-5,7.8-7.5,11.8
			c-0.5,0.8-0.9,1.8-2,2.1c1.2-2.8,2.9-5.3,4.5-7.8c4.6-7.7,9.6-15.1,14.7-22.4C165.8,102.1,166,101.7,166.4,101.5z"/>
		<path class="st28" d="M145.4,134.3c0,0.5-0.2,1-0.5,1.4c-0.4,0.5-0.5,0.2-0.6-0.2C144.7,135.1,145,134.7,145.4,134.3z"/>
		<path class="st28" d="M146.1,132.9c0,0.5,0,1.1-0.7,1.1C145.6,133.7,145.9,133.3,146.1,132.9z"/>
		<path class="st28" d="M166.8,100.8c0,0.3-0.1,0.6-0.4,0.7C166.4,101.2,166.5,101,166.8,100.8z"/>
		<path class="st28" d="M167.2,100.4c-0.1,0.1-0.3,0.3-0.4,0.4C166.9,100.7,167,100.5,167.2,100.4z"/>
		<path class="st3" d="M82.6,243c4.6,1.1,8.8,0,12.7-2.5c0.1,1.4-1.1,1.7-1.9,2.3c-2.7,2.3-5.9,2.8-9.3,2.2
			C83,244.9,82.6,244,82.6,243z"/>
		<path class="st28" d="M168.2,75c1.8-1.2,2.7-3.2,3.8-5c0.3-0.4,0.8-1.3,0.9-1.1c0.4,0.5,1.3,0.7,1.4,1.6c0.5,3,2.9,5.2,6.2,5.9
			c3.6,0.8,6.7,0,9.8-1.8c-2.5,5.2-5.6,9.9-11.3,12.2c-3.1,1.2-6.3,0.9-9-1.2c0.2-2.1-1.3-3-2.8-3.9c0-1.2-0.6-2.3-0.3-3.6
			C168.1,77.4,167,75.7,168.2,75z"/>
		<path class="st31" d="M168.2,75c-1.2,0.7-0.2,2.4-1.3,3.1c-0.2,0-0.4,0-0.5,0c0.2-5.7,3.7-9.4,7.7-12.9c-0.6,1.9-2,3.2-3.1,4.7
			C169.9,71.6,168.5,73,168.2,75z"/>
		<path class="st31" d="M167.3,81.7c1.5,0.9,3,1.8,2.8,3.9C168.6,84.7,167.7,83.3,167.3,81.7z"/>
		<path class="st8" d="M207.1,231.6c-1.8,0.2-3,1.9-4.9,2c-0.3,0-0.7,0.2-1.1-0.1c1-0.4,1.9-0.8,2.8-1.3c2.5-1.4,4.5-3.2,5.7-5.9
			c0.2-0.6,0.4-1.2,1.1-1.5c0.1,1.7-0.8,3.1-1.2,4.6c-0.4,0.2-0.7,0.6-0.6,1.1l-0.1,0c0,0-0.1,0-0.1,0
			C208,230.7,207.7,231.4,207.1,231.6z"/>
		<path class="st3" d="M207.1,231.6c0.6-0.2,0.8-0.9,1.5-1c-0.2,0.6-0.3,1.2-0.5,1.7c-1.7,1.2-2.8,3-4.7,4.1
			c-0.4,0.2-0.7,0.5-1.1,0.5c-0.5-0.1-1,0.6-1.5,0C203.3,235.6,205.4,233.8,207.1,231.6z"/>
		<path class="st30" d="M208.9,230.6c-0.1-0.5,0.2-0.8,0.6-1.1c0.4,0,0.9-0.1,1.5,0.4C210.2,230.2,209.6,230.4,208.9,230.6z"/>
		<path class="st27" d="M210.7,225c0-0.3,0.1-0.5,0.3-0.7C211,224.5,211,224.8,210.7,225z"/>
		<path class="st3" d="M195.1,238.4c1.3-0.2,2.7-0.5,4-0.7C197.9,239,196.1,239.4,195.1,238.4z"/>
		<path class="st1" d="M200.8,213.7c0.5,1.3,1.1,2.5,1.6,3.8c0,0.3,0,0.6,0,0.9c0.4,6-3.2,11-9.2,12.4c-5.9,1.3-10.3-0.9-13.7-5.6
			c-4.3-8.6,2-15.9,9.3-17c1-0.1,2,0,3.1,0C195.5,209,198.5,210.9,200.8,213.7z M190.6,213.3c-4,0-6.9,2.5-7.1,6.3
			c-0.2,3.3,3.3,6.4,6.7,6.3c3.6-0.1,7.1-3.3,7-6.4C197.2,216.4,193.9,213.3,190.6,213.3z"/>
		<path class="st8" d="M179.5,225.1c3.3,4.7,7.8,6.9,13.7,5.6c6-1.3,9.7-6.4,9.2-12.4c0-0.3,0-0.6,0-0.9c0.9,1.6,2.3,3,1.7,5.1
			c-0.3,1.2-0.8,2.3-0.4,3.6c0.2,0.7-0.3,1.1-0.9,1.3c-0.8,0.4-1.6,0.8-2.3,1.4c-2,1.6-2,1.5-0.5,3.5c0.4,0.6,0.5,0.9-0.4,1
			c-1,0.1-2.1,0.1-2.9-0.7c-0.8-0.8-1.6-0.8-2.6-0.5c-3.3,1-6.6,0.4-9.7-0.7C181.7,230.6,179.5,227.5,179.5,225.1z"/>
		<path class="st8" d="M200.8,213.7c-2.4-2.8-5.3-4.7-8.9-5.5c-0.1-0.8,0-1.2,1-1.3c2.1-0.1,4,0.3,5.4,1.9c0.8,0.9,1.6,1.9,2.4,2.8
			C201.2,212.2,201.4,213,200.8,213.7z"/>
		<path class="st31" d="M190.6,213.3c3.3,0,6.6,3.1,6.7,6.2c0.1,3.1-3.4,6.3-7,6.4c-3.4,0.1-6.9-3-6.7-6.3
			C183.7,215.8,186.6,213.3,190.6,213.3z"/>
	</g>
</g>
</svg>
