<?xml version="1.0" encoding="utf-8"?>
<!-- Generator: Adobe Illustrator 27.9.1, SVG Export Plug-In . SVG Version: 6.00 Build 0)  -->
<svg version="1.1" id="Layer_1" xmlns="http://www.w3.org/2000/svg" xmlns:xlink="http://www.w3.org/1999/xlink" x="0px" y="0px"
	 viewBox="0 0 250 250" style="enable-background:new 0 0 250 250;" xml:space="preserve">
<style type="text/css">
	.st0{fill:#FCCA1D;}
	.st1{fill:#232121;}
	.st2{fill:#D1CDC5;}
	.st3{fill:#8E1830;}
	.st4{fill:#FDFDFD;}
	.st5{fill:#FFDE83;}
	.st6{fill:#7F3211;}
	.st7{fill:#FCFCFC;}
	.st8{fill:#B21F36;}
	.st9{fill:#D6D5D5;}
	.st10{fill:#FCCD2A;}
	.st11{fill:#FDCF23;}
	.st12{fill:#FB751E;}
	.st13{fill:#6C2009;}
	.st14{fill:#F9F9F9;}
	.st15{fill:#4F1304;}
	.st16{fill:#F3F3F3;}
	.st17{fill:#A33F1F;}
	.st18{fill:#D6D5D2;}
	.st19{fill:#FAFAFA;}
	.st20{fill:#FDDE23;}
	.st21{fill:#FDD42C;}
	.st22{fill:#E3E2E5;}
	.st23{fill:#BDBEC9;}
	.st24{fill:#DD8C93;}
	.st25{fill:#F89043;}
	.st26{fill:#FFFFFF;}
	.st27{fill:#BDBEC0;}
	.st28{fill:#E2E3E4;}
	.st29{fill:#BABBBD;}
	.st30{fill:#F16866;}
	.st31{fill:#D1D8EA;}
	.st32{fill:#E5E6E7;}
	.st33{fill:#FDC91C;}
	.st34{fill:#F9C829;}
	.st35{fill:#CFD6DE;}
	.st36{fill:#606060;}
	.st37{fill:#3C444E;}
	.st38{fill:#BC4633;}
	.st39{fill:#4FB8E8;}
	.st40{fill:#F0F0F0;}
	.st41{fill:#FBFBFB;}
	.st42{fill:#B5EAF7;}
	.st43{fill:#CBECF5;}
	.st44{fill:#D3F6FC;}
	.st45{fill:#FDFCFC;}
	.st46{fill:#FDD228;}
	.st47{fill:#6B230A;}
	.st48{fill:#5C1C07;}
	.st49{fill:#AA4B2C;}
	.st50{fill:#C9C6BE;}
	.st51{fill:#DFDFDF;}
	.st52{fill:#9C9689;}
	.st53{fill:#FC771B;}
	.st54{fill:#FDE43B;}
	.st55{fill:#E6E6E6;}
</style>
<g>
	<circle class="st0" cx="128.8" cy="93.3" r="93.3"/>
	<g>
		<g>
			<g>
				<path class="st1" d="M204,166.9c0.1,0,0.2,0,0.3,0c1.3-0.3,2.5,0,3.3,1.2c0.8,1.2,0.4,2.3-0.3,3.3c-2.1,3.5-4.2,6.9-6.4,10.4
					c-4.6,7.3-9.3,14.5-13.7,21.8c-2.9,4.8-4.1,10.3-5.1,15.7c-0.1,0.5-0.2,1-0.3,1.5c-0.5,2.7-1.1,3.2-3.8,2.5
					c-2.6-0.7-4.4-2.4-5.8-4.5c-1.2-1.9-2.7-2.9-5.1-3c-3.7-0.1-6.5-2.1-8-5.4c-1.6-3.4-3.8-5-7.7-4.7c-3.1,0.2-5.4-1.7-7.1-4.2
					c-0.9-1.3-1.8-2.5-2.4-3.9c-0.8-1.8-2-2.3-3.8-2.3c-1.3,0-2.7-0.3-4-0.5c-3.8-0.5-6.6-2.6-8.6-5.8c-0.4-0.6-0.9-1.1-1.1-1.7
					c-0.9-2.7-2.9-3.6-5.6-3.9c-4.8-0.5-8.4-3-10.3-7.3c-1.4-3.2-3.8-4.2-6.8-4.9c-3.9-1-7.9-2.1-10.3-6c-0.9-1.4-0.7-2.2,0.6-3.1
					c4.1-2.8,7.9-5.8,11.3-9.4c3.8-4.1,6.4-9,9.3-13.7c6.4-10.4,12.5-20.9,18.2-31.6c0.4-0.7,1-1.4,1.5-2.1c3.1,0.3,3.4,0.6,4,3
					c-0.2,0.6-0.4,1.2-0.7,1.7c-4.7,8.9-9.8,17.6-15.1,26.1c-0.8,1.3-0.8,2,0.5,3c5.6,4.5,11.3,9,17.1,13.3
					c12.5,9.3,25.3,18.3,38.8,26.2c0,0.1,0,0.2-0.1,0.3c-0.3,0.5-0.7,0.9-1,1.4c-0.5-0.2-0.9-0.4-1.4-0.7
					c-9.6-5.9-19-12.1-28.1-18.7c-9.1-6.5-18-13.2-26.6-20.3c-1.2-1-1.6-0.7-2.3,0.5c-1.6,2.6-3.1,5.2-4.9,7.8
					c-0.6,0.9-0.6,1.4,0.3,2.2c8.2,7.1,16.7,13.9,25.5,20.3c14,10.2,28.3,19.9,43.9,27.6c0.9,0.5,1.4,0.4,1.9-0.5
					c1.8-3,3.7-6,5.6-8.9c0.6-0.9,0.3-1.2-0.5-1.7c-2.9-1.6-5.8-3.3-8.7-4.9c0.1-0.7,0.7-1.1,1-1.6c2.8,1.5,5.6,3,8.3,4.5
					c1.1,0.6,1.8,0.8,2.6-0.6c2.1-3.6,4.3-7,6.6-10.5C200.5,172.3,201.9,169.3,204,166.9z M143.5,193.1c0,0.3,0.2,0.5,0.4,0.6
					c0.4,0.7,0.8,1.5,1.2,2.2c4.1,6.6,3.6,6.3,10.7,6.4c1.9,0,3.3,0.6,4.1,2.4c0.2,0.5,0.5,0.9,0.8,1.3c0.7,1.4,1.4,2.8,2.5,3.9
					c0.8,1.6,2.3,2.1,3.9,2.3c1.6,0.2,3.3,0,4.9,0.4c1.9,1.9,3,4.6,5.3,6.3c0.1-0.2,0.2-0.2,0.3-0.3c0.8-3.9,1.3-7.9,2.6-11.7
					c0.2-0.6-0.2-0.8-0.6-1c-1.6-0.8-3.1-1.6-4.7-2.4c-3.9-2.2-7.8-4.4-11.6-6.7c-4.5-2.7-8.8-5.4-13.3-8.2c-0.3-0.5-0.9-0.7-1.4-1
					c-5.2-3.6-10.3-7.3-15.5-10.9c-0.4-0.3-0.7-0.7-1.2-0.9c-1.2-1-2.5-1.9-3.7-2.9c-5.9-4.4-11.5-9.1-17.2-13.7
					c-1-0.9-2.1-1.9-3.1-2.9c-0.6-0.6-1-0.4-1.5,0.1c-2.8,2.8-6,5.2-9.3,7.3c-1.4,0.9-0.8,1.3,0.2,1.9c1.8,1.1,3.8,1.5,5.7,2
					c6.6,1.8,5.3,0.3,8.6,6.5c0,0,0.1,0.1,0.1,0.1c1.5,3.3,4.2,4.9,7.8,5.5c2.1,0.3,4.5,0.1,6.1,1.9c0.1,0.5,0.3,0.9,0.6,1.2
					c2.4,5.6,6.3,9.1,12.9,8.7c0.3,0,0.6,0,0.8,0C141.3,191.8,142.5,192.1,143.5,193.1z M177.2,198.5c-1.2-0.7-2.4-1.3-3.6-2
					c-14.1-8-27.6-17-40.5-26.8c-5.3-4.1-10.6-8.3-15.9-12.4c-1.9-1.7-3.8-3.3-5.7-5c-0.5-0.5-1.2-0.8-1.4,0.1
					c-0.3,0.9-2.4,1.3-0.9,2.7c2.1,1.9,4.4,3.7,6.6,5.6c0.2,0.2,0.5,0.5,0.7,0.7c18.7,15.1,38.1,29.1,59.4,40.4c1,0.5,2,1.1,2.9,1.6
					c2.1,1.2,2.1,1.1,3.1-1.1c0.4-0.8,0.3-1.3-0.6-1.7C180,200,178.6,199.2,177.2,198.5z"/>
				<path class="st1" d="M134.9,101.1c-0.1-0.8,0.1-1.4,0.5-2.1c1.3-2.3,2.5-4.7,4-6.9c0.7-1.1,0.2-1.3-0.7-1.5
					c-2.8-0.5-5.7-1-8.5-1.7c-1.4-0.4-2.7-0.9-3.8-1.7c-2.2-1.6-2.4-3.7-0.4-5.6c1.6-1.5,3.4-2.6,5.2-3.8c0.8-0.5,1.7-1,2.4-1.6
					c2.4-1.8,4-4.1,4.1-7.2c0-1,0.1-2,0.2-3c0.1-2.1,0.8-3.1,2.8-3.1c2.3-0.1,4.2-1.3,6.6-1.2c3.5,0.1,6.6,1,9.5,2.8
					c1.1,0.7,1.5,0.3,2-0.6c1.1-1.8,2.3-3.6,3.5-5.4c3-4.4,5-5.1,10-3.4c5,1.7,9.5,4.5,14,7.3c13.4,8.4,26.9,16.8,40.2,25.2
					c6.5,4.1,13.2,8.1,19.3,12.9c3.6,2.8,3.9,4.7,1.5,8.6c-2.5,4.1-5.1,8.2-7.7,12.2c-0.6,0.9-0.6,1.4,0.3,2.1
					c1.3,0.9,2.5,2.1,3.8,3.1c2.9,2,4.1,5.1,5.9,7.9c1,1.5,0.5,3-1,4.2c-1.1,0.8-2.2,1.5-3.4,2.3c-3.8,2.6-6.5,6.1-8.2,10.4
					c-1,2.3-1.8,4.7-2.7,7c-0.8,2.1-2,2.9-4.3,2.9c-3.7,0-6.9-1.6-10.1-3.3c-1-0.5-2-1.9-3-1.5c-0.9,0.4-1.4,1.8-2,2.8
					c-0.8,1.3-1.7,2.5-2.5,3.8c-0.7,1.2-1.5,2.2-3,2c-1.6-0.2-2.2-1.4-2.6-2.8c1.2-3.1,3.2-5.7,4.9-8.5c0.5-0.9,0.6-1.4-0.3-2.1
					c-2.2-1.6-4-3.6-6-5.4c-1.5-1.6-3.1-3-5.3-3.7c-4-2.6-8.1-5.2-12.1-7.8c-15.5-10.1-30.6-20.8-45.1-32.3
					c-2.2-1.8-2.2-1.7-3.7,0.5C137,103.7,136.3,103.5,134.9,101.1z M164.9,64.9c0.9-1.4,1.9-2.8,2.9-4.1c0.3-0.4,0.4-1.2,1.2-0.8
					c-2.6,4.6-5.8,8.8-8.8,13.1c-1,1.4-0.9,2.3,0.4,3.2c0.5,0.3,0.9,0.7,1.3,1c3.8,3,7.6,6,11.3,9.1c0.9,0.8,1.3,0.8,2.1-0.2
					c3-4.3,6-8.7,8.8-13.3c0.8-1.3,1.2-3.1,2.9-3.8c0.1,0.2,0.1,0.5,0.2,0.7c-3.4,5.8-7,11.6-10.9,17.1c-0.6,0.9-0.7,1.5,0.2,2.3
					c1.2,0.9,2.2,1.9,3.3,2.9c3.4,2.9,6.8,5.8,10.2,8.7c0.8,0.7,1.3,0.9,2.1-0.3c1.6-2.6,3.3-5.1,5-7.6c2.6-3.9,5.2-7.8,7.5-11.8
					c0.4-0.2,0.7-0.5,1.2-0.3c0,0.6-0.3,1.2-0.6,1.7c-4,6.3-8,12.5-12.1,18.8c-0.6,0.9-0.7,1.5,0.2,2.2c4.7,3.8,9.3,7.7,14.4,11.1
					c0.8,0.5,1.1,0.6,1.7-0.3c2.8-4.4,5.8-8.6,8.5-13c1.7-2.8,3.8-5.3,5.1-8.3c0.3-0.2,0.6-0.4,1-0.6c0.9,1.2-0.3,2-0.8,2.7
					c-4.2,6.6-8.5,13.2-12.8,19.7c-0.6,0.8-0.6,1.3,0.4,1.9c1.5,0.9,3,2,4.5,3c4.7,3,9.5,5.8,14.5,8.3c1.2,0.6,2,0.5,2.8-0.7
					c2.7-4.1,5.5-8.2,8.1-12.3c1.7-2.6,3.2-5.2,4.8-7.8c1.3-2.2,1.1-3.2-0.9-4.8c-0.5-0.4-1-0.9-1.7-1.1c-3.9-3.4-8.4-5.9-12.8-8.6
					c-0.1-0.1-0.1-0.2-0.2-0.3c-7.2-4.6-14.4-9.1-21.6-13.7c-7.8-4.9-15.6-9.6-23.3-14.5c-4.4-2.8-8.8-5.5-13.8-7.2
					c-1-0.3-2.1-0.9-3.2-0.3c-0.1,0-0.2,0-0.3,0c-1.3-0.3-1.8,0.8-2.4,1.5c-1.4,2-2.7,4-4,6c-1.5,2.4-2.9,4.9-4.4,7.4
					c-0.7,1.1,0.1,1.5,0.8,2c0.8,0.6,1.1,0.3,1.6-0.4C161,70.5,163.3,67.9,164.9,64.9z M147.7,68.1c0.1-0.6-0.4-1.3,0.4-1.6
					c0.7-0.3,1.1,0.3,1.6,0.7c1.3,1.2,2.6,2.4,4.5,2.4c0.6,0,2.8-2.3,2.6-2.8c-0.1-0.2-0.3-0.3-0.5-0.4c-0.3-0.2-0.8-0.2-1.1-0.5
					c-2.5-1.8-5.3-2.6-8.3-2.5c-2.2,0-3.9,1.8-6.2,1.7c-0.3,0-0.4,0.4-0.3,0.7c0,0.4-0.1,0.9-0.1,1.3c0.3,5.5-2.1,9.4-6.8,12.2
					c-1.4,0.8-2.8,1.6-4.2,2.6c-0.9,0.6-2.3,1.2-2,2.5c0.2,1.4,1.7,1.7,2.9,2c6.6,1.7,13.3,2.7,19.7,5c4.6,2,9.1,4.3,13.3,7.1
					c9.1,6,16.4,14,23.2,22.3c6.7,8.1,13.1,16.4,20.7,23.8c4,3.9,8.2,7.6,13.1,10.4c1.9,1.5,4.1,2.3,6.3,3.1c4.2,1.4,5,1.1,6.3-3
					c2.5-7.4,6.3-13.7,13.3-17.7c1.8-1,1.8-2,0.5-3.8c-0.5-0.6-1.5-1.1-1.3-1.8c0.3-1.3-0.5-1.9-1.2-2.5c-2-1.8-4.1-3.6-6.4-5
					c-0.6,1-1.2,1.9-1.8,2.8c-0.3,0.5-0.4,0.8-0.1,1.4c1.4,2,3,3.7,5.8,3.4c0.3,0,0.7-0.2,0.9,0.2c0.1,0.4-0.2,0.7-0.5,1
					c-0.8,0.6-1.7,0.4-2.6,0.6c-0.8-0.2-1.7-0.3-2.5-0.6c-5.2-1.3-9.7-4-14.3-6.5c-11.5-6.3-21.9-14.2-31.9-22.6
					c-12.1-10.2-23.9-20.7-36.6-30.2C151.9,72,149.4,70.6,147.7,68.1z M197.2,138c0.1-0.1,0.2-0.2,0.2-0.2c-0.1-0.2-0.2-0.4-0.3-0.5
					c-2.5-3.1-5.1-6.1-7.6-9.2c-5.6-7-11.3-13.9-17.8-20c-6.9-6.4-14.6-11.4-23.4-14.7c-2.9-1.1-3-1-4.4,1.5
					c-0.5,0.9-0.9,1.8-1.5,2.7c-0.7,0.9-0.5,1.4,0.4,2.1c3.7,2.8,7.3,5.7,11,8.5c11.2,8.5,22.8,16.4,34.4,24.2
					C191.2,134.2,194.2,136.1,197.2,138z"/>
				<path class="st1" d="M135.5,99.5c-0.1-0.8,0.1-1.4,0.5-2.1c1.3-2.3,2.5-4.7,4-6.9c0.7-1.1,0.2-1.3-0.7-1.5
					c-2.8-0.5-5.7-1-8.5-1.7c-1.4-0.4-2.7-0.9-3.8-1.7c-2.2-1.6-2.4-3.7-0.4-5.6c1.6-1.5,3.4-2.6,5.2-3.8c0.8-0.5,1.7-1,2.4-1.6
					c2.4-1.8,4-4.1,4.1-7.2c0-1,0.1-2,0.2-3c0.1-2.1,0.8-3.1,2.8-3.1c2.3-0.1,4.2-1.3,6.6-1.2c3.5,0.1,6.6,1,9.5,2.8
					c1.1,0.7,1.5,0.3,2-0.6c1.1-1.8,2.3-3.6,3.5-5.4c3-4.4,5-5.1,10-3.4c5,1.7,9.5,4.5,14,7.3c13.4,8.4,26.9,16.8,40.2,25.2
					c6.5,4.1,13.2,8.1,19.3,12.9c3.6,2.8,3.9,4.7,1.5,8.6c-2.5,4.1-5.1,8.2-7.7,12.2c-0.6,0.9-0.6,1.4,0.3,2.1
					c1.3,0.9,2.5,2.1,3.8,3.1c2.9,2,4.1,5.1,5.9,7.9c1,1.5,0.5,3-1,4.2c-1.1,0.8-2.2,1.5-3.4,2.3c-3.8,2.6-6.5,6.1-8.2,10.4
					c-1,2.3-1.8,4.7-2.7,7c-0.8,2.1-2,2.9-4.3,2.9c-3.7,0-6.9-1.6-10.1-3.3c-1-0.5-2-1.9-3-1.5c-0.9,0.4-1.4,1.8-2,2.8
					c-0.8,1.3-1.7,2.5-2.5,3.8c-0.7,1.2-1.5,2.2-3,2c-1.6-0.2-2.2-1.4-2.6-2.8c1.2-3.1,3.2-5.7,4.9-8.5c0.5-0.9,0.6-1.4-0.3-2.1
					c-2.2-1.6-4-3.6-6-5.4c-1.5-1.6-3.1-3-5.3-3.7c-4-2.6-8.1-5.2-12.1-7.8c-15.5-10.1-30.6-20.8-45.1-32.3
					c-2.2-1.8-2.2-1.7-3.7,0.5C137.5,102.1,136.8,101.8,135.5,99.5z M165.5,63.3c0.9-1.4,1.9-2.8,2.9-4.1c0.3-0.4,0.4-1.2,1.2-0.8
					c-2.6,4.6-5.8,8.8-8.8,13.1c-1,1.4-0.9,2.3,0.4,3.2c0.5,0.3,0.9,0.7,1.3,1c3.8,3,7.6,6,11.3,9.1c0.9,0.8,1.3,0.8,2.1-0.2
					c3-4.3,6-8.7,8.8-13.3c0.8-1.3,1.2-3.1,2.9-3.8c0.1,0.2,0.1,0.5,0.2,0.7c-3.4,5.8-7,11.6-10.9,17.1c-0.6,0.9-0.7,1.5,0.2,2.3
					c1.2,0.9,2.2,1.9,3.3,2.9c3.4,2.9,6.8,5.8,10.2,8.7c0.8,0.7,1.3,0.9,2.1-0.3c1.6-2.6,3.3-5.1,5-7.6c2.6-3.9,5.2-7.8,7.5-11.8
					c0.4-0.2,0.7-0.5,1.2-0.3c0,0.6-0.3,1.2-0.6,1.7c-4,6.3-8,12.5-12.1,18.8c-0.6,0.9-0.7,1.5,0.2,2.2c4.7,3.8,9.3,7.7,14.4,11.1
					c0.8,0.5,1.1,0.6,1.7-0.3c2.8-4.4,5.8-8.6,8.5-13c1.7-2.8,3.8-5.3,5.1-8.3c0.3-0.2,0.6-0.4,1-0.6c0.9,1.2-0.3,2-0.8,2.7
					c-4.2,6.6-8.5,13.2-12.8,19.7c-0.6,0.8-0.6,1.3,0.4,1.9c1.5,0.9,3,2,4.5,3c4.7,3,9.5,5.8,14.5,8.3c1.2,0.6,2,0.5,2.8-0.7
					c2.7-4.1,5.5-8.2,8.1-12.3c1.7-2.6,3.2-5.2,4.8-7.8c1.3-2.2,1.1-3.2-0.9-4.8c-0.5-0.4-1-0.9-1.7-1.1c-3.9-3.4-8.4-5.9-12.8-8.6
					c-0.1-0.1-0.1-0.2-0.2-0.3c-7.2-4.6-14.4-9.1-21.6-13.7c-7.8-4.9-15.6-9.6-23.3-14.5c-4.4-2.8-8.8-5.5-13.8-7.2
					c-1-0.3-2.1-0.9-3.2-0.3c-0.1,0-0.2,0-0.3,0c-1.3-0.3-1.8,0.8-2.4,1.5c-1.4,2-2.7,4-4,6c-1.5,2.4-2.9,4.9-4.4,7.4
					c-0.7,1.1,0.1,1.5,0.8,2c0.8,0.6,1.1,0.3,1.6-0.4C161.5,68.9,163.8,66.3,165.5,63.3z M148.3,66.5c0.1-0.6-0.4-1.3,0.4-1.6
					c0.7-0.3,1.1,0.3,1.6,0.7c1.3,1.2,2.6,2.4,4.5,2.4c0.6,0,2.8-2.3,2.6-2.8c-0.1-0.2-0.3-0.3-0.5-0.4c-0.3-0.2-0.8-0.2-1.1-0.5
					c-2.5-1.8-5.3-2.6-8.3-2.5c-2.2,0-3.9,1.8-6.2,1.7c-0.3,0-0.4,0.4-0.3,0.7c0,0.4-0.1,0.9-0.1,1.3c0.3,5.5-2.1,9.4-6.8,12.2
					c-1.4,0.8-2.8,1.6-4.2,2.6c-0.9,0.6-2.3,1.2-2,2.5c0.2,1.4,1.7,1.7,2.9,2c6.6,1.7,13.3,2.7,19.7,5c4.6,2,9.1,4.3,13.3,7.1
					c9.1,6,16.4,14,23.2,22.3c6.7,8.1,13.1,16.4,20.7,23.8c4,3.9,8.2,7.6,13.1,10.4c1.9,1.5,4.1,2.3,6.3,3.1c4.2,1.4,5,1.1,6.3-3
					c2.5-7.4,6.3-13.7,13.3-17.7c1.8-1,1.8-2,0.5-3.8c-0.5-0.6-1.5-1.1-1.3-1.8c0.3-1.3-0.5-1.9-1.2-2.5c-2-1.8-4.1-3.6-6.4-5
					c-0.6,1-1.2,1.9-1.8,2.8c-0.3,0.5-0.4,0.8-0.1,1.4c1.4,2,3,3.7,5.8,3.4c0.3,0,0.7-0.2,0.9,0.2c0.1,0.4-0.2,0.7-0.5,1
					c-0.8,0.6-1.7,0.4-2.6,0.6c-0.8-0.2-1.7-0.3-2.5-0.6c-5.2-1.3-9.7-4-14.3-6.5c-11.5-6.3-21.9-14.2-31.9-22.6
					c-12.1-10.2-23.9-20.7-36.6-30.2C152.4,70.4,149.9,68.9,148.3,66.5z M197.8,136.4c0.1-0.1,0.2-0.2,0.2-0.2
					c-0.1-0.2-0.2-0.4-0.3-0.5c-2.5-3.1-5.1-6.1-7.6-9.2c-5.6-7-11.3-13.9-17.8-20c-6.9-6.4-14.6-11.4-23.4-14.7
					c-2.9-1.1-3-1-4.4,1.5c-0.5,0.9-0.9,1.8-1.5,2.7c-0.7,0.9-0.5,1.4,0.4,2.1c3.7,2.8,7.3,5.7,11,8.5c11.2,8.5,22.8,16.4,34.4,24.2
					C191.7,132.6,194.8,134.4,197.8,136.4z"/>
				<path class="st0" d="M205.6,146.1c2,1.8,3.8,3.8,6,5.4c0.9,0.7,0.8,1.2,0.3,2.1c-1.7,2.8-3.7,5.4-4.9,8.5c-1,1.6-2,3.2-3,4.8
					c-2.1,2.5-3.5,5.4-5.2,8.1c-2.3,3.5-4.5,6.9-6.6,10.5c-0.8,1.3-1.5,1.1-2.6,0.6c-2.8-1.5-5.6-3-8.3-4.5c0,0,0.1-0.1,0.1-0.1
					c4.2-6.2,8.5-12.3,12.7-18.5C197.9,157.3,201.7,151.7,205.6,146.1z"/>
				<path class="st2" d="M134.9,101.1c1.4,2.3,2,2.6,4.4,1.7c-0.6,2.1-1.8,3.8-3.1,5.5c-0.5-2.4-0.9-2.7-4-3
					C133.2,103.9,134.1,102.5,134.9,101.1z"/>
				<path class="st0" d="M136.3,108.3c1.2-1.7,2.5-3.5,3.1-5.5c1.5-2.2,1.5-2.2,3.7-0.5c14.5,11.5,29.6,22.2,45.1,32.3
					c4,2.6,8.1,5.2,12.1,7.8c-3.6,5.7-7.2,11.3-10.9,17c-4.2,6.4-8.4,12.9-12.6,19.3c-13.5-7.9-26.3-16.8-38.8-26.2
					c-5.8-4.3-11.5-8.8-17.1-13.3c-1.3-1-1.3-1.7-0.5-3c5.3-8.5,10.4-17.2,15.1-26.1C135.8,109.5,136,108.9,136.3,108.3z"/>
				<path class="st3" d="M180.3,183.1c2.9,1.6,5.8,3.3,8.7,4.9c0.8,0.4,1.1,0.8,0.5,1.7c-1.9,2.9-3.8,5.9-5.6,8.9
					c-0.5,0.8-0.9,0.9-1.9,0.5c-15.5-7.8-29.8-17.5-43.9-27.6c-8.8-6.4-17.3-13.1-25.5-20.3c-0.9-0.8-0.9-1.2-0.3-2.2
					c1.7-2.5,3.3-5.1,4.9-7.8c0.7-1.1,1.1-1.5,2.3-0.5c8.6,7.1,17.5,13.8,26.6,20.3c9.1,6.6,18.5,12.8,28.1,18.7
					c0.4,0.3,0.9,0.5,1.4,0.7c0,0.1,0,0.2,0,0.2c-1.7,2.7-3.5,5.4-5.2,8.1c-1.2,1.9-0.4,3.5,1.8,3.7c1,0.1,1.7-0.4,2.2-1.2
					c1.8-2.7,3.7-5.3,5.6-8C180.2,183.2,180.3,183.1,180.3,183.1z"/>
				<path class="st4" d="M160.7,206c-0.3-0.4-0.6-0.8-0.8-1.3c-0.8-1.8-2.2-2.4-4.1-2.4c-7.1-0.1-6.6,0.2-10.7-6.4
					c-0.4-0.7-0.8-1.5-1.2-2.2c1.7-2.1,3.9-3.5,6-5.1c4.4,2.7,8.8,5.5,13.3,8.2c3.8,2.3,7.7,4.4,11.6,6.7c-0.9,3.1-1.9,6.1-2.8,9.2
					c-1.6-0.5-3.3-0.2-4.9-0.4c-1.6-0.2-3.1-0.7-3.9-2.3c0.5-1.1,0.9-2.2,1.5-3.2c0.8-1.3,1.4-2.7,1.9-4.1c0.2-0.6,0.4-1.6-0.5-2
					c-0.7-0.3-1.2,0.3-1.6,0.7c-0.4,0.5-0.7,1.1-1.2,1.6C162.5,203.9,162.3,205.5,160.7,206z"/>
				<path class="st4" d="M125.6,181.8c-1.7-1.8-4-1.6-6.1-1.9c-3.6-0.6-6.2-2.2-7.8-5.5c0-0.1-0.1-0.1-0.1-0.1
					c-3.3-6.2-2-4.7-8.6-6.5c0.3-0.8,1-1.2,1.6-1.7c2.2-2.2,4.5-4.3,6.4-6.7c5.7,4.6,11.3,9.3,17.2,13.7c1.3,0.9,2.5,1.9,3.7,2.9
					c-0.3,1.1-1.2,1.6-1.9,2.3C128.5,179.4,126.8,180.3,125.6,181.8z"/>
				<path class="st4" d="M175.9,201.7c-21.3-11.2-40.7-25.2-59.4-40.4c-0.3-0.2-0.5-0.5-0.7-0.7c0.5-1.1,0.9-2.2,1.4-3.3
					c5.3,4.1,10.5,8.3,15.9,12.4c12.9,9.8,26.4,18.8,40.5,26.8c1.2,0.7,2.4,1.3,3.6,2C176.7,199.6,176.3,200.7,175.9,201.7z"/>
				<path class="st5" d="M176.8,178.7c4.2-6.4,8.4-12.9,12.6-19.3c3.7-5.6,7.3-11.3,10.9-17c2.1,0.7,3.8,2.1,5.3,3.7
					c-3.8,5.6-7.7,11.2-11.5,16.8c-4.2,6.2-8.5,12.3-12.7,18.5c-1.5-0.8-3.1-1.6-4.6-2.4C176.8,178.9,176.8,178.8,176.8,178.7z"/>
				<path class="st4" d="M133.1,176.7c5.2,3.6,10.3,7.3,15.5,10.9c-0.3,0.8-0.9,1.4-1.5,1.9c-1.3,1.1-2.7,1.9-3.5,3.5
					c-1-0.9-2.3-1.2-3.6-1.3c-0.3,0-0.6,0-0.8,0c-6.5,0.5-10.4-3-12.9-8.7c0.2-0.6,0.6-1,1.1-1.4C129.2,180,131.4,178.6,133.1,176.7
					z"/>
				<path class="st2" d="M111,159.3c-1.9,2.5-4.2,4.5-6.4,6.7c-0.6,0.6-1.3,1-1.6,1.7c-2-0.5-3.9-0.9-5.7-2c-1-0.6-1.6-0.9-0.2-1.9
					c3.3-2.1,6.5-4.5,9.3-7.3c0.5-0.5,0.9-0.7,1.5-0.1C108.9,157.4,110,158.3,111,159.3z"/>
				<path class="st2" d="M172.1,212.6c0.9-3.1,1.9-6.1,2.8-9.2c1.6,0.8,3.1,1.6,4.7,2.4c0.4,0.2,0.8,0.4,0.6,1
					c-1.3,3.8-1.7,7.8-2.6,11.7c0,0.1-0.1,0.2-0.3,0.3C175,217.2,174,214.6,172.1,212.6z"/>
				<path class="st2" d="M117.2,157.3c-0.5,1.1-0.9,2.2-1.4,3.3c-2.2-1.9-4.4-3.7-6.6-5.6c-1.5-1.4,0.6-1.8,0.9-2.7
					c0.3-0.9,0.9-0.6,1.4-0.1C113.4,154,115.3,155.7,117.2,157.3z"/>
				<path class="st2" d="M160.7,206c1.6-0.4,1.8-2,2.7-3c0.5-0.5,0.8-1.1,1.2-1.6c0.4-0.5,0.9-1,1.6-0.7c0.8,0.4,0.7,1.3,0.5,2
					c-0.5,1.4-1.1,2.8-1.9,4.1c-0.6,1-1,2.1-1.5,3.2C162.2,208.7,161.4,207.4,160.7,206z"/>
				<path class="st2" d="M175.9,201.7c0.4-1.1,0.8-2.1,1.2-3.2c1.4,0.7,2.8,1.4,4.2,2.1c0.9,0.4,0.9,0.8,0.6,1.7
					c-1,2.2-0.9,2.2-3.1,1.1C177.9,202.8,176.9,202.3,175.9,201.7z"/>
				<path class="st6" d="M176.7,179c1.5,0.8,3.1,1.6,4.6,2.4c0,0-0.1,0.1-0.1,0.1c-0.3,0.6-0.9,1-1,1.6c0,0-0.1,0.1-0.2,0.1
					c-1.4-1-2.9-1.9-4.5-2.6c0-0.1,0-0.2,0-0.2C176.1,179.9,176.4,179.4,176.7,179z"/>
				<path class="st2" d="M133.1,176.7c-1.7,1.9-3.9,3.2-5.8,4.9c-0.5,0.4-0.9,0.8-1.1,1.4c-0.4-0.3-0.5-0.8-0.6-1.2
					c1.2-1.6,2.9-2.5,4.4-3.7c0.8-0.7,1.7-1.2,1.9-2.3C132.5,176,132.8,176.4,133.1,176.7z"/>
				<path class="st2" d="M143.5,193.1c0.8-1.6,2.2-2.4,3.5-3.5c0.7-0.6,1.3-1.1,1.5-1.9c0.5,0.2,1.1,0.4,1.4,1c-2.1,1.6-4.3,3-6,5.1
					C143.7,193.6,143.5,193.4,143.5,193.1z"/>
				<path class="st6" d="M243,101.2c0.7,0.2,1.2,0.7,1.7,1.1c2,1.6,2.2,2.6,0.9,4.8c-1.6,2.6-3.1,5.2-4.8,7.8
					c-2.7,4.1-5.5,8.1-8.1,12.3c-0.8,1.2-1.6,1.3-2.8,0.7c-5-2.5-9.8-5.3-14.5-8.3c-1.5-1-3-2.1-4.5-3c-0.9-0.6-0.9-1.1-0.4-1.9
					c4.3-6.6,8.6-13.1,12.8-19.7c0.5-0.7,1.7-1.5,0.8-2.7c-1.8-0.7-3.6-1.3-5.3-2.3c-4.1-2.3-8-4.6-11.3-8c-0.3-0.3-0.7-0.7-1.2-0.4
					c-0.4,0.3,0,0.8,0.1,1.1c0.5,1,0.9,1.9,0.2,3c-1,1.5-1.9,3.1-2.8,4.6c-1,0.6-1,1.8-1.5,2.7c0.9-0.9,2-1.5,2.5-2.8
					c0.7-1.3,2-2.1,2.5-3.5c0.4-1.2,1-1.1,1.8-0.3c2.1,2,4.5,3.6,7.1,4.8c1.1,0.5,1.1,0.9,0.5,1.9c-1.6,2.8-3.7,5.2-4.9,8.2
					c-0.7,0.3-0.7,1-0.9,1.5c-0.2,0.8-0.7,1.8,0.2,2.2c0.5,0.2,0.9-0.9,1.2-1.5c2.1-3.4,4.2-6.9,6.6-10.2c0.4-0.6,0.8-0.9,1.5-0.8
					c0.9,0.1,1.8,0.1,2.7,0.2c-1.3,3-3.4,5.6-5.1,8.3c-2.7,4.4-5.7,8.7-8.5,13c-0.6,0.9-0.9,0.8-1.7,0.3c-5-3.4-9.7-7.3-14.4-11.1
					c-0.9-0.8-0.8-1.3-0.2-2.2c4.1-6.2,8.1-12.5,12.1-18.8c0.3-0.5,0.6-1.1,0.6-1.7c-0.3-0.2-0.6-0.4-0.9-0.5
					c-4.4-1.4-8.2-3.7-11.9-6.4c-2.1-1.5-4-3.3-6-4.9c0,0,0-0.1,0-0.1c0,0,0,0.1,0.1,0.1c0,0.1,0,0.2-0.1,0.3
					c-1.7,0.7-2.1,2.5-2.9,3.8c-2.8,4.5-5.7,8.9-8.8,13.3c-0.7,1.1-1.2,1-2.1,0.2c-3.7-3.1-7.5-6.1-11.3-9.1c-0.4-0.4-0.9-0.7-1.3-1
					c-1.4-0.9-1.4-1.8-0.4-3.2c3-4.3,6.2-8.5,8.8-13.1c1,0.6,1.2,1.2,0.5,2.2c-1.1,1.6-2,3.3-3,4.9c-1,0.8-1.4,2-1.6,3.2
					c0.7-1.2,2-1.9,2.5-3.3c0.9-1.3,2-2.5,2.8-3.8c0.6-1,1.1-1.1,1.9-0.3c1.9,1.8,4.1,3.2,6.5,4.3c1.4,0.7,1.2,1.3,0.6,2.3
					c-1.2,2-2.4,4-3.5,6c-0.8,1.4-1.5,2.8-1.5,4.5c0.6-0.5,1.1-1,1.5-1.6c1.5-2.3,3.1-4.6,4.5-7c1-1.7,2-3.3,4.4-2.3
					c0,0,0.1,0,0.2,0c0.4,0,0.8,0,0.9-0.5c0-0.4-0.3-0.6-0.6-0.7c-1.2-0.1-2.2-0.9-3.2-1.4c-5.1-2.5-9.7-5.6-13.8-9.5
					c1.1-0.6,2.2-0.1,3.2,0.3c5,1.6,9.4,4.4,13.8,7.2c7.7,4.9,15.6,9.6,23.3,14.5c7.2,4.5,14.4,9.1,21.6,13.7
					c0.1,0.1,0.1,0.2,0.2,0.3c-1.3,0.9-0.4,1.4,0.3,1.9c2.9,2,5.9,4,8.8,5.9C240.4,101.2,241.6,101.7,243,101.2z M230.2,113.5
					c-0.4,0.6-1.1,1.2-1.1,2.1c0,0.6-0.4,1.6,0.3,1.9c0.9,0.4,0.7-0.9,1.2-1.3c0.2-0.2,0.4-0.6,0.6-0.8c1.8-2.9,3.6-5.9,5.4-8.8
					c0.9-1.3,1.8-2.5,3.8-2c0.6,0.2,1.5,0.1,2.2-0.4c-6.3-2.4-12-5.7-16.7-10.4c-0.2-0.2-0.4-0.6-0.8-0.4c-0.6,0.2-0.4,0.7-0.3,1
					c1,1.8,0,3.1-0.9,4.6c-1.1,1.8-2.4,3.5-3.3,5.7c2.3-1.9,3.3-4.4,5.1-6.3c0.5-0.5,0.8-0.9,1.5-0.3c2.1,2,4.5,3.6,7.2,4.8
					c1.5,0.6,1.5,1.4,0.6,2.7C233.3,108.1,231.8,110.8,230.2,113.5z M240.2,108.6c-2.3,2.8-4.2,5.8-5.8,9
					C237,115.1,239.2,112.2,240.2,108.6z"/>
				<path class="st2" d="M239.5,133.5c0.9-0.2,1.8,0,2.6-0.6c0.3-0.2,0.6-0.6,0.5-1c-0.1-0.4-0.6-0.3-0.9-0.2
					c-2.8,0.3-4.4-1.4-5.8-3.4c-0.4-0.5-0.2-0.9,0.1-1.4c0.6-0.9,1.2-1.8,1.8-2.8c2.3,1.4,4.4,3.2,6.4,5c0.7,0.6,1.6,1.2,1.2,2.5
					c-0.2,0.7,0.9,1.2,1.3,1.8c1.3,1.7,1.2,2.8-0.5,3.8c-7,4-10.8,10.3-13.3,17.7c-1.4,4.1-2.1,4.4-6.3,3c-2.2-0.8-4.4-1.6-6.3-3.1
					c0.1-0.9,0.2-1.8,0.4-2.7c0.2-0.8-0.1-1.3-0.8-1.6c-1.6-0.7-3-1.8-4.3-2.9c-7.8-6.2-14.3-13.7-20.6-21.4
					c-6.2-7.5-12.4-15-19.5-21.7c-6.4-6.1-13.7-10.9-21.8-14.3c-1.5-0.6-2.6-0.3-3.5,1c-6.4-2.4-13.1-3.3-19.7-5
					c-1.2-0.3-2.7-0.6-2.9-2c-0.2-1.3,1.2-1.8,2-2.5c1.3-1,2.7-1.8,4.2-2.6c4.7-2.7,7-6.7,6.8-12.2c0-0.4,0.1-0.9,0.1-1.3
					c0.3,0.2,0.7,0.2,0.9,0.5c0.6,1,3.3,1.1,1.5,3.3c-0.1,0.1,0,0.4,0.1,0.6c0.7,1.7,0.9,3.5,1.4,5.2c0.3,1.1,0.6,2.4,2.1,2.2
					c1.8-0.3,3-2.2,2.6-3.8c-0.1-0.5-0.6-0.9-0.4-1.7c1.4,1,2.8,1.8,4,2.9c1,0.9,2.5,1.1,2.3,3.5c-0.2,2.5,0.7,5.3,0.8,8
					c0,1,0.1,2.4,1.6,2.8c2.4,0.6,4.9,1.2,7.4,1.8c1.2,0.3,2.4,0.6,3.9,0.9c-4-4.7-6.9-9.8-11.6-13.5c9.9,7.3,19.1,15.3,28.4,23.8
					c-1.1,0.2-1.5-0.4-1.9-0.7c-2.7-2.2-5.2-4.6-8.1-6.4c-3.9-2.5-5.4-2.8-8.1-0.4c-0.8,0.7-0.7,1.1,0.1,1.7c2.8,2,5.4,4.1,7.9,6.4
					c0.5,0.4,1,0.8,1.6,1c3.5,1.1,7,2.3,10.6,3.1c1.1,0.2,1.9,0.4,1.6-1.5c6.9,6,13.8,11,20.8,16.2c-1.9-0.2-3.7-0.5-5.5-0.9
					c-1.8-0.4-3.7-0.7-5.5-1.1c-1.7-0.4-3.2-1.6-5.2-1.1c2.7,1.4,4.2,4.2,6.8,5.6c0.7,0.4,1.6,0.7,2.3,1.1c0.8,0.4,1.7,1.2,1.4,2
					c-0.3,0.9-1.3,0.3-2.1,0.3c-1.4-0.2-2.7-0.3-4.3,0.3c2.7,2.9,5.2,5.6,7.7,8.4c0.4,0.4,0.8,0.7,1.3,0.5c1-0.4,2.1-0.4,3-1.1
					c1.8-1.4,3.6-2.5,6.1-2.8c3.1-0.5,4.2-1,4.2-4.4c0.6,0,0.9,0.3,1.4,0.5c2.3,1.2,4.5,2.6,6.9,3.5c2.2,0.8,2.2,1.9,1.5,3.8
					c-0.4,1.2-1.2,2.2-2.3,2.9c-3.3,2.1-6.5,4.3-9.8,6.4c-0.4,0.2-0.9,0.4-0.9,0.9c-0.1,1.6,1.1,2.4,2.3,3c1,0.6,2,0.8,2.8-0.4
					c2.2-3.4,5.2-5.9,8.6-8c2.1-1.3,3.8-3.2,3.5-6.2C236.5,135.7,238.2,135.3,239.5,133.5z"/>
				<path class="st4" d="M239.5,133.5c-1.3,1.8-3,2.2-5.1,1.3c0.2,3-1.4,4.9-3.5,6.2c-3.4,2.1-6.4,4.6-8.6,8c-0.8,1.2-1.8,1-2.8,0.4
					c-1.2-0.7-2.4-1.4-2.3-3c0-0.5,0.6-0.6,0.9-0.9c3.3-2.1,6.5-4.3,9.8-6.4c1.1-0.7,1.9-1.7,2.3-2.9c0.6-1.9,0.6-3-1.5-3.8
					c-2.4-0.9-4.6-2.3-6.9-3.5c-0.4-0.2-0.8-0.6-1.4-0.5c0,3.4-1.1,3.9-4.2,4.4c-2.5,0.4-4.3,1.4-6.1,2.8c-0.9,0.7-2,0.7-3,1.1
					c-0.5,0.2-1-0.1-1.3-0.5c-2.5-2.7-5-5.5-7.7-8.4c1.5-0.6,2.9-0.5,4.3-0.3c0.7,0.1,1.8,0.6,2.1-0.3c0.2-0.8-0.6-1.6-1.4-2
					c-0.8-0.4-1.6-0.6-2.3-1.1c-2.6-1.5-4.1-4.2-6.8-5.6c1.9-0.5,3.5,0.7,5.2,1.1c1.8,0.4,3.6,0.7,5.5,1.1c1.8,0.4,3.6,0.7,5.5,0.9
					c-6.9-5.2-13.9-10.3-20.8-16.2c0.3,1.9-0.5,1.8-1.6,1.5c-3.6-0.8-7.1-1.9-10.6-3.1c-0.6-0.2-1.1-0.6-1.6-1
					c-2.6-2.2-5.2-4.4-7.9-6.4c-0.8-0.6-0.9-1-0.1-1.7c2.7-2.3,4.2-2.1,8.1,0.4c2.9,1.9,5.4,4.3,8.1,6.4c0.4,0.3,0.8,0.8,1.9,0.7
					c-9.3-8.5-18.5-16.5-28.4-23.8c4.6,3.7,7.6,8.8,11.6,13.5c-1.5-0.3-2.7-0.6-3.9-0.9c-2.5-0.6-4.9-1.2-7.4-1.8
					c-1.4-0.4-1.5-1.8-1.6-2.8c-0.1-2.7-1-5.5-0.8-8c0.2-2.4-1.3-2.6-2.3-3.5c-1.2-1.1-2.6-1.9-4-2.9c-0.2,0.7,0.3,1.2,0.4,1.7
					c0.4,1.5-0.8,3.5-2.6,3.8c-1.5,0.2-1.9-1.1-2.1-2.2c-0.4-1.8-0.6-3.6-1.4-5.2c-0.1-0.2-0.2-0.5-0.1-0.6c1.9-2.2-0.9-2.3-1.5-3.3
					c-0.2-0.2-0.6-0.3-0.9-0.5c-0.1-0.3,0-0.7,0.3-0.7c2.3,0.1,4-1.7,6.2-1.7c-0.1,0.2-0.2,0.5-0.4,0.7c-1.6,1.8-1.2,3.1,1.2,4
					c1.6,2.5,4.2,3.9,6.4,5.6c12.7,9.5,24.5,20,36.6,30.2c10,8.4,20.4,16.2,31.9,22.6c4.6,2.5,9.2,5.2,14.3,6.5
					C237.8,133.2,238.7,133.3,239.5,133.5z"/>
				<path class="st3" d="M197.2,138c-3-1.9-6-3.8-9-5.8c-11.7-7.8-23.3-15.7-34.4-24.2c-3.7-2.8-7.3-5.7-11-8.5
					c-0.9-0.7-1-1.2-0.4-2.1c0.6-0.8,1-1.8,1.5-2.7c1.4-2.6,1.5-2.6,4.4-1.5c8.8,3.3,16.6,8.3,23.4,14.7c6.6,6.1,12.2,13.1,17.8,20
					c2.5,3.1,5,6.1,7.6,9.2c0.1,0.2,0.2,0.4,0.3,0.5C197.4,137.8,197.3,137.9,197.2,138z"/>
				<path class="st6" d="M204.7,80.9c-2.3,4-4.9,8-7.5,11.8c-1.7,2.5-3.5,5-5,7.6c-0.7,1.2-1.2,1-2.1,0.3c-3.4-2.9-6.8-5.8-10.2-8.7
					c-1.1-1-2.2-2-3.3-2.9c-1-0.7-0.9-1.4-0.2-2.3c4-5.5,7.5-11.2,10.9-17.1c1.4,1.8,1.6,3.5,0,5.4c-0.4,0.5-0.7,1.1-1.1,1.7
					c-0.8,0.8-1.1,1.8-1.8,2.9c1.6-0.4,1.9-1.8,2.7-2.6c0.6-0.9,1.2-1.7,1.8-2.6c0.5-0.8,1-0.7,1.6-0.1c2,2.1,4.4,3.5,6.9,4.8
					c1,0.5,1.1,0.9,0.6,1.8c-1.2,1.9-2.4,3.7-3.5,5.6c-0.7,1.2-1.5,2.6-0.9,4.4c1.6-2.5,3.3-4.7,4.6-7c1.3-2.4,2.9-4,5.9-3.2
					C204.4,80.9,204.5,80.9,204.7,80.9z"/>
				<path class="st4" d="M150,91.4c0.9-1.3,2.1-1.6,3.5-1c8.2,3.4,15.4,8.2,21.8,14.3c7.1,6.7,13.3,14.2,19.5,21.7
					c6.3,7.7,12.8,15.2,20.6,21.4c1.4,1.1,2.7,2.2,4.3,2.9c0.7,0.3,1,0.8,0.8,1.6c-0.2,0.9-0.3,1.8-0.4,2.7
					c-4.9-2.8-9-6.5-13.1-10.4c-7.6-7.3-14-15.6-20.7-23.8c-6.9-8.4-14.1-16.3-23.2-22.3C159.1,95.6,154.6,93.4,150,91.4z"/>
				<path class="st0" d="M166.6,67.1c1-1.7,1.9-3.4,3-4.9c0.7-1,0.5-1.6-0.5-2.2c-0.8-0.4-1,0.4-1.2,0.8c-1,1.3-1.9,2.7-2.9,4.1
					c-0.9-0.5-0.1-0.9,0.1-1.3c0.8-2.3,3.2-3.9,2.7-6.7c0.1,0,0.2,0,0.3,0c4.1,3.9,8.8,7,13.8,9.5c1.1,0.5,2,1.3,3.2,1.4
					c0.4,0,0.7,0.3,0.6,0.7c0,0.5-0.5,0.6-0.9,0.5c-0.1,0-0.1,0-0.2,0c-2.4-1-3.4,0.6-4.4,2.3c-1.4,2.4-3,4.7-4.5,7
					c-0.4,0.6-0.9,1.1-1.5,1.6c-0.1-1.7,0.7-3.1,1.5-4.5c1.1-2,2.3-4,3.5-6c0.6-1,0.8-1.7-0.6-2.3c-2.3-1.1-4.6-2.5-6.5-4.3
					c-0.9-0.8-1.3-0.7-1.9,0.3c-0.9,1.3-1.9,2.5-2.8,3.8C167.1,67,166.8,67.1,166.6,67.1z"/>
				<path class="st0" d="M211.8,101.3c1.2-3,3.3-5.5,4.9-8.2c0.6-1,0.6-1.4-0.5-1.9c-2.6-1.2-5-2.8-7.1-4.8
					c-0.8-0.8-1.4-0.9-1.8,0.3c-0.5,1.4-1.8,2.2-2.5,3.5c-0.3,0-0.6,0-1,0.1c0.9-1.5,1.8-3.1,2.8-4.6c0.7-1.1,0.3-2-0.2-3
					c-0.2-0.3-0.5-0.8-0.1-1.1c0.4-0.3,0.8,0,1.2,0.4c3.3,3.4,7.2,5.8,11.3,8c1.7,0.9,3.5,1.5,5.3,2.3c-0.3,0.2-0.6,0.4-1,0.6
					c-0.9-0.1-1.8-0.1-2.7-0.2c-0.7-0.1-1.1,0.3-1.5,0.8c-2.4,3.3-4.5,6.8-6.6,10.2C211.2,103,212.3,102,211.8,101.3z"/>
				<path class="st0" d="M204.7,80.9c-0.2,0-0.3-0.1-0.5-0.1c-3-0.8-4.6,0.8-5.9,3.2c-1.3,2.4-2.9,4.5-4.6,7
					c-0.6-1.9,0.2-3.2,0.9-4.4c1-1.9,2.3-3.8,3.5-5.6c0.6-0.9,0.4-1.3-0.6-1.8c-2.5-1.3-5-2.7-6.9-4.8c-0.6-0.7-1.1-0.7-1.6,0.1
					c-0.6,0.9-1.2,1.8-1.8,2.6c-0.3-0.1-0.6-0.2-0.9-0.3c0.4-0.6,0.6-1.2,1.1-1.7c1.6-1.8,1.4-3.6,0-5.4c-0.1-0.2-0.1-0.5-0.2-0.7
					c0.1-0.1,0.1-0.2,0.1-0.3l0,0c2,1.6,3.9,3.4,6,4.9c3.6,2.7,7.5,5,11.9,6.4c0.3,0.1,0.6,0.3,0.9,0.5
					C205.4,80.4,205.1,80.7,204.7,80.9z"/>
				<path class="st6" d="M167.7,56.9c0.5,2.8-1.9,4.4-2.7,6.7c-0.2,0.4-1,0.8-0.1,1.3c-1.6,3-4,5.6-5.7,8.5c-0.4,0.7-0.8,1-1.6,0.4
					c-0.7-0.6-1.4-0.9-0.8-2c1.5-2.4,2.9-4.9,4.4-7.4c1.3-2.1,2.6-4.1,4-6C165.9,57.6,166.5,56.6,167.7,56.9z"/>
				<path class="st2" d="M147.7,68.1c-2.4-0.8-2.8-2.2-1.2-4c0.2-0.2,0.3-0.5,0.4-0.7c3.1-0.1,5.9,0.7,8.3,2.5
					c0.3,0.2,0.7,0.3,1.1,0.5c0.2,0.1,0.4,0.2,0.5,0.4c0.2,0.5-2.1,2.8-2.6,2.8c-1.9,0-3.2-1.2-4.5-2.4c-0.5-0.4-0.8-1-1.6-0.7
					C147.3,66.8,147.9,67.5,147.7,68.1z"/>
				<path class="st3" d="M243,101.2c-1.4,0.4-2.6,0-3.7-0.8c-3-1.9-5.9-3.9-8.8-5.9c-0.7-0.5-1.6-1-0.3-1.9
					C234.6,95.3,239.1,97.8,243,101.2z"/>
				<path class="st2" d="M175.7,180.6c1.6,0.7,3,1.6,4.5,2.6c-1.9,2.7-3.7,5.3-5.6,8c-0.6,0.8-1.2,1.3-2.2,1.2
					c-2.2-0.2-3-1.8-1.8-3.7C172.2,186,174,183.3,175.7,180.6z"/>
				<path class="st0" d="M230.2,113.5c1.6-2.7,3.1-5.4,4.8-8c0.9-1.3,0.9-2.1-0.6-2.7c-2.7-1.1-5.1-2.8-7.2-4.8
					c-0.7-0.7-1-0.3-1.5,0.3c-1.8,2-2.8,4.5-5.1,6.3c0.9-2.2,2.2-3.9,3.3-5.7c0.9-1.5,1.9-2.8,0.9-4.6c-0.2-0.3-0.3-0.8,0.3-1
					c0.4-0.2,0.6,0.2,0.8,0.4c4.7,4.7,10.4,8,16.7,10.4c-0.7,0.6-1.6,0.6-2.2,0.4c-2-0.6-3,0.6-3.8,2c-1.9,2.9-3.6,5.8-5.4,8.8
					C230.1,115.1,231,113.8,230.2,113.5z"/>
				<path class="st1" d="M240.2,108.6c-1,3.6-3.2,6.5-5.8,9C236,114.4,237.9,111.4,240.2,108.6z"/>
				<path class="st3" d="M230.2,113.5c0.8,0.4-0.1,1.6,1,1.8c-0.2,0.3-0.3,0.6-0.6,0.8c-0.4,0.4-0.2,1.6-1.2,1.3
					c-0.7-0.3-0.3-1.2-0.3-1.9C229.1,114.6,229.7,114.1,230.2,113.5z"/>
				<path class="st3" d="M211.8,101.3c0.6,0.7-0.5,1.7,0.5,2.3c-0.3,0.6-0.7,1.7-1.2,1.5c-0.9-0.4-0.4-1.5-0.2-2.2
					C211.1,102.3,211.1,101.6,211.8,101.3z"/>
				<path class="st3" d="M203.8,90.3c0.3,0,0.6,0,1-0.1c-0.5,1.2-1.6,1.9-2.5,2.8C202.8,92.1,202.8,90.9,203.8,90.3z"/>
				<path class="st3" d="M166.6,67.1c0.3,0,0.6-0.1,0.8-0.1c-0.4,1.4-1.7,2.2-2.5,3.3C165.1,69.1,165.6,67.9,166.6,67.1z"/>
				<path class="st0" d="M187.2,68.8c0,0,0-0.1-0.1-0.1C187.1,68.7,187.2,68.7,187.2,68.8C187.2,68.8,187.2,68.8,187.2,68.8z"/>
				<path class="st3" d="M186.3,76.8c0.3,0.1,0.6,0.2,0.9,0.3c-0.8,0.8-1.1,2.2-2.7,2.6C185.2,78.7,185.4,77.6,186.3,76.8z"/>
			</g>
		</g>
		<g>
			<g>
				<path class="st7" d="M16.5,130.1c0.4,1.3,0.8,2.6,1.3,3.9c-1.7,1-2,1.8-1.5,3.7c0.1,0.3,0.2,0.6,0.3,0.9
					c3.4,8.5,6.5,17.1,10.1,25.5c5.8,13.5,12.1,26.7,19,39.6c4.9,9.3,10.2,18.3,16.4,26.8c0.4,0.6,0.5,1.1,0.5,1.8
					c0,4.3-0.1,8.6,0.8,12.8c0.5,2.5,2,4.1,4.5,4.6c4.1,0.9,7.3-0.8,9.5-4.1c2.7-4.2,6-5.2,10.7-3.8c6.6,1.9,11.6-0.5,14.7-6.6
					c0.5-1,1.2-2,1.8-3c1.3-2,3.1-2.9,5.4-2.8c1.7,0,3.3,0.4,5,0.5c7.1,0.8,12.6-1.8,16.4-7.8c0.8-1.2,1.5-2.4,2.4-3.5
					c1.3-1.8,3.1-2.6,5.3-2.6c1.8,0,3.5,0.5,5.3,0.7c6.1,0.6,11-1.3,14.5-6.4c0.8-1.2,1.4-2.5,2.1-3.8c1.4-2.4,3.6-3.6,6.4-3.6
					c1.2,0,2.4,0.1,3.6,0.1c3.1,0.1,5.7-0.9,7.7-3.2c2.2-2.5,2.4-5.3,0.3-7.9c-2.7-3.4-6-6.2-9.4-8.9c-0.4-0.3-0.9-0.6-1-1.3
					c-1.7-8.8-4.9-17.1-7.9-25.5c-2.8-7.7-6-15.2-9.2-22.7c-8.1-18.8-17.3-37-27.6-54.7c-2.7-4.7-5.6-9.4-9.2-13.5
					c-0.3-0.3-0.4-0.7-0.4-1.1c0-3-0.6-6-1.3-9c-0.4-1.9-0.9-3.8-2.2-5.3c-3.1-3.5-9-2.9-11.7,1.2c-0.7,1-1.3,2.1-2,3.2
					c-1.5,2.2-3.6,3-6.2,2.3c-1.5-0.4-3-1-4.5-1.5C81.2,53.8,75.9,56,73.2,61c-0.8,1.5-1.4,3.1-2.2,4.7c-1.6,3.3-4.2,4.5-7.7,3.6
					c-1.8-0.4-3.6-1.1-5.4-1.4c-5.2-1-10,1.2-12.7,5.9c-0.8,1.5-1.4,3-2.2,4.5c-1.8,3.8-4.5,5-8.5,3.8c-1.3-0.4-2.6-0.9-3.9-1.2
					c-5.9-1.4-10.8,1.1-13.1,6.7c-0.4,1.1-0.8,2.2-1.2,3.3c-1.1,2.6-2.8,3.6-5.6,3.3c-1.1-0.1-2.1-0.4-3.2-0.6c-3-0.5-5.3,0.6-7,3
					c-1.7,2.4-1.8,4.9-0.2,7.3c2.2,3.3,4.7,6.3,7.7,8.8c0.6,0.5,0.9,1.1,1.1,1.8c0.8,4.7,2.3,9.1,3.8,13.6
					C13.7,130.2,14.5,130.6,16.5,130.1z"/>
				<path class="st1" d="M16.5,130.1c-2,0.5-2.9,0.1-3.5-1.9c-1.5-4.5-3-8.9-3.8-13.6c-0.1-0.8-0.5-1.3-1.1-1.8
					c-3-2.6-5.5-5.6-7.7-8.8c-1.6-2.4-1.5-4.9,0.2-7.3c1.7-2.4,4.1-3.4,7-3c1.1,0.2,2.1,0.4,3.2,0.6c2.8,0.3,4.5-0.7,5.6-3.3
					c0.5-1.1,0.8-2.2,1.2-3.3c2.3-5.6,7.2-8.2,13.1-6.7c1.3,0.3,2.6,0.8,3.9,1.2c4,1.2,6.7,0,8.5-3.8c0.7-1.5,1.3-3.1,2.2-4.5
					c2.6-4.6,7.4-6.9,12.7-5.9c1.8,0.3,3.6,1,5.4,1.4c3.6,0.8,6.1-0.4,7.7-3.6c0.8-1.5,1.4-3.2,2.2-4.7c2.7-5,7.9-7.2,13.4-5.6
					c1.5,0.4,3,1.1,4.5,1.5c2.6,0.7,4.7-0.1,6.2-2.3c0.7-1,1.3-2.1,2-3.2c2.7-4.1,8.6-4.7,11.7-1.2c1.3,1.5,1.7,3.4,2.2,5.3
					c0.7,3,1.2,5.9,1.3,9c0,0.4,0.1,0.8,0.4,1.1c3.7,4.1,6.5,8.8,9.2,13.5c10.3,17.7,19.5,35.9,27.6,54.7c3.2,7.5,6.4,15,9.2,22.7
					c3,8.4,6.1,16.7,7.9,25.5c0.1,0.7,0.6,0.9,1,1.3c3.4,2.7,6.7,5.5,9.4,8.9c2.1,2.6,1.9,5.4-0.3,7.9c-2,2.3-4.6,3.3-7.7,3.2
					c-1.2,0-2.4-0.2-3.6-0.1c-2.8,0.1-4.9,1.2-6.4,3.6c-0.7,1.2-1.3,2.6-2.1,3.8c-3.5,5.1-8.5,7-14.5,6.4c-1.8-0.2-3.5-0.7-5.3-0.7
					c-2.2,0-4,0.8-5.3,2.6c-0.8,1.1-1.6,2.3-2.4,3.5c-3.8,6-9.3,8.6-16.4,7.8c-1.7-0.2-3.3-0.5-5-0.5c-2.3,0-4.2,0.9-5.4,2.8
					c-0.6,1-1.2,2-1.8,3c-3.2,6.1-8.2,8.5-14.7,6.6c-4.7-1.4-8-0.4-10.7,3.8c-2.1,3.3-5.4,5-9.5,4.1c-2.5-0.5-4-2.2-4.5-4.6
					c-0.9-4.2-0.8-8.5-0.8-12.8c0-0.7-0.1-1.2-0.5-1.8c-6.2-8.5-11.5-17.5-16.4-26.8c-6.9-12.9-13.2-26.2-19-39.6
					c-3.6-8.4-6.7-17-10.1-25.5c-0.1-0.3-0.2-0.6-0.3-0.9c-0.6-1.9-0.2-2.7,1.5-3.7c1.6-0.2,2.8,0.4,3.2,1.7
					c1.1,3.9,2.7,7.6,4.2,11.4c2.8,7.1,5.7,14.2,8.8,21.2c3.7,8.6,7.8,17,12.1,25.3c3.4,6.7,6.8,13.4,10.7,19.8
					c2.8,4.7,5.8,9.2,8.9,13.7c0.6,0.9,1.3,1.1,2.3,0.8c13.3-2.7,26.2-7,38.7-12.3c13.5-5.8,26.9-11.9,39.5-19.8
					c5.9-3.7,11.7-7.5,17.2-11.7c0.7-0.5,0.8-1,0.7-1.9c-0.9-3.8-1.9-7.5-3.1-11.2c-2.5-7.8-5.4-15.6-8.5-23.2
					c-2.8-6.8-5.7-13.5-8.6-20.2c-3.6-8.1-7.5-16-11.6-23.9c-4.3-8.3-8.6-16.5-13.4-24.5c-2-3.3-4-6.6-6.5-9.6
					c-0.4-0.4-0.6-0.9-1.3-0.8c-3.3,0.7-6.6,1.5-9.8,2.8c-0.5,0.1-1.1,0.3-1.6,0.4c-10.3,3.1-20.2,7.1-30,11.3
					c-10.6,4.6-21,9.5-31.1,15.1c-5.1,2.8-10.3,5.6-15.2,8.9c-3.1,1.6-5.9,3.7-8.8,5.6c-0.5,0.3-0.5,0.8-0.4,1.3
					c1,4.1,2.1,8.2,3.5,12.2C18,128,17.8,129.2,16.5,130.1z M103.2,221.9c-0.7,0-1.3,0.3-1.9,0.6c-7.5,2.9-15.1,5.5-22.8,7.7
					c-3.3,0.9-6.7,1.6-10,2.5c-0.4,0.1-1.1,0-1.1,0.8c0.1,3.4,0.1,6.9,0.7,10.3c0.2,1.1,0.9,1.5,1.9,1.4c0.9,0,1.6-0.3,2.3-0.9
					c1.2-1,1.9-2.4,2.9-3.5c3.2-3.7,7-5.2,11.8-4c1.2,0.3,2.4,0.6,3.7,0.8c3.1,0.6,5.5-0.7,7.1-3.3c0.7-1.1,1.3-2.4,2-3.5
					c2.6-4.3,6.5-6.4,11.6-6.1c1.4,0.1,2.8,0.4,4.2,0.5c1.9,0.2,3.7,0.3,5.5-0.4c0.8-0.2,1.6-0.6,2.3-1c1.2-0.5,2.2-1.5,2.9-2.5
					c0.9-1.2,1.7-2.6,2.5-3.8c2.2-3.3,5.1-5.5,9.2-6c2.2-0.3,4.4,0.2,6.7,0.5c4.9,0.8,8.4-0.9,10.8-5.2c0.5-1,1.1-1.9,1.7-2.9
					c2-3.1,4.8-4.9,8.4-5.5c1.4-0.2,2.9-0.1,4.3-0.2c0.2,0,0.4,0,0.6,0c0.4,0.2,0.8,0.2,1.2,0c0.5,0.2,1-0.1,1.4-0.2
					c2.6-0.8,3.1-2.3,1.2-4.1c-2-1.9-4.1-3.8-6.1-5.7c-0.9-0.9-1.6-0.9-2.6-0.1c-8.3,6.3-17.2,11.6-26.3,16.7c-1.7,1-3.6,1.7-5.2,3
					c-1.4,0.7-2.9,1.3-4.2,2.2c-0.5,0.1-0.9,0.3-1.3,0.6c-6.6,3-13.2,6.1-19.9,9.1c-1,0.2-2,0.6-2.9,1.1
					C105.1,221.1,104.1,221.5,103.2,221.9z M49.2,76.8c-0.4,0.3-0.5,0.8-0.6,1.2c-0.9,2.4-2.2,4.5-3.9,6.4c-0.3,0.2-0.7,0.3-1,0.6
					c-2.9,2.3-6.3,2.9-9.9,2c-1.6-0.4-3.2-1-4.8-1.4c-3.1-0.8-5.5,0.5-6.7,3.5c-0.4,1-0.7,1.9-1,2.9c-1.2,3.1-3.3,5.4-6.4,6.6
					c-2.4,0.9-4.8,0.6-7.1,0c-0.9-0.2-1.8-0.5-2.7,0.2c-1.1,0.8-1,1.8-0.3,2.8c1.8,2.7,4,5,6.2,7.3c0.5,0.5,0.9,0.2,1.3-0.1
					c3.2-2.1,6.4-4.2,9.6-6.3c2.1-1.3,4.3-2.4,6.2-3.9c0.2-0.1,0.3-0.2,0.5-0.3c0.6-0.2,1.1-0.4,1.5-0.8c1.7-1.1,3.5-1.9,5.3-2.9
					c4.1-2.2,8.3-4.3,12.4-6.4c9.9-4.9,19.9-9.5,30.1-13.5c4.3-1.7,8.7-3.4,13-5.1c0.1,0,0.2,0,0.3,0c5.9-1.9,11.7-3.9,17.8-5.3
					c0.5-0.1,0.6-0.3,0.5-0.8c-0.4-3.2-0.7-6.4-1.7-9.4c-0.5-1.5-1.2-1.8-2.8-1.4c-1.8,0.4-2.2,2-3,3.3C98.8,61.2,93.7,63,88,61
					c-1.1-0.4-2.1-0.8-3.2-1.1c-2.7-0.7-5.1,0.2-6.7,2.4c-0.8,1.1-1.3,2.3-1.7,3.5c-1.7,4.6-4.9,7.5-9.7,8.5c-3,0.2-5.9-0.6-8.7-1.5
					C54.1,71.7,50.8,73.1,49.2,76.8z"/>
				<path class="st3" d="M101.1,71.6c3.2-1.3,6.5-2.1,9.8-2.8c0.7-0.2,1,0.3,1.3,0.8c2.4,3,4.5,6.3,6.5,9.6
					c4.9,8,9.2,16.2,13.4,24.5c4.1,7.9,8.1,15.8,11.6,23.9c2.9,6.7,5.8,13.4,8.6,20.2c3.1,7.6,6,15.4,8.5,23.2
					c1.2,3.7,2.2,7.4,3.1,11.2c0.2,0.9,0,1.4-0.7,1.9c-5.5,4.2-11.3,8-17.2,11.7c-12.5,7.9-25.9,14-39.5,19.8
					c-12.5,5.3-25.3,9.6-38.7,12.3c-1,0.2-1.7,0.1-2.3-0.8c-3.1-4.5-6.1-9-8.9-13.7c-3.8-6.5-7.3-13.1-10.7-19.8
					c-4.3-8.3-8.3-16.7-12.1-25.3c-3-7-6-14.1-8.8-21.2c-1.5-3.8-3.1-7.5-4.2-11.4c-0.4-1.3-1.6-2-3.2-1.7c-0.4-1.3-0.8-2.6-1.3-3.9
					c1.3-0.9,1.5-2.1,1-3.6c-1.3-4-2.5-8.1-3.5-12.2c-0.1-0.6-0.1-1,0.4-1.3c2.9-2,5.7-4,8.8-5.6c0.1,0.7-0.5,0.9-0.9,1.3
					c-1,0.9-1.6,2.1-2,3.5c-1,4.1-0.1,7.9,0.9,11.8c0.5,1.9,1.6,3.7,0.3,5.8c-0.3,0.5-0.1,0.8,0.5,0.8c0.4,0,0.8,0.2,1.2,0.2
					c0.7,0.1,1.1,0.3,0.5,1c-0.3,0.4-0.4,0.9-0.2,1.4c2,5.1,3.8,10.3,5.9,15.4c1.8,4.3,3.4,8.7,5.3,12.9c3.2,7.1,6.3,14.2,9.9,21.2
					c2.8,5.4,5.6,10.9,8.7,16.2c2.3,4,4.7,7.9,8.2,11c3.2,2.9,6.5,5.6,11.2,5.9c-0.5,0.8-1.2,1.1-2,1.2c-1.3,0.3-2.5,0.5-3.9,0.4
					c-0.2,0-0.6-0.1-0.7,0.2c-0.1,0.3,0.1,0.4,0.3,0.6c0.7,0.8,1.5,1.5,2.4,2.2c3.1,2.3,6.6,2.1,10.2,1.6c4.8-0.8,9.5-2,14.2-3.3
					c5.9-1.7,11.8-3.6,17.5-6c7.8-3.3,15.5-6.9,22.6-11.5c4.7-3,9.3-6.1,13.2-10.1c3.3-3.3,5.7-7,7-11.4c1.6-5.6,0.7-11.1-0.8-16.6
					c-0.1-0.3-0.2-0.8-0.6-0.9c-0.4-0.1-0.7,0.3-0.9,0.6c-1.2,1.7-2.7,3-4.4,4c-0.8,0.5-1.5,1.1-2.7,0.9c0.3-0.3,0.5-0.5,0.7-0.7
					c4-4.1,5.7-8.9,4.4-14.6c-0.2-0.7-0.6-1.4-0.8-2.1c-1.5-5.2-3.6-10.1-5.7-14.9c-4.7-10.5-9.4-21-14.8-31.2
					c-1.6-3-3.1-6.1-4.6-9.1c-0.9-1.7-1.7-3.4-2.6-5.1c-2.4-4.1-4.6-8.3-7.1-12.3c-0.5-0.8-0.9-1-1.7-0.5c-1.4,0.7-2.9,0.7-4.6,0.4
					c1-0.7,1.9-0.9,2.5-1.6c1.3-1.4,1.2-2.1-0.5-3c-2-1-4-1.4-6.2-1.2C102.5,71.8,101.8,72.2,101.1,71.6z"/>
				<path class="st8" d="M101.1,71.6c0.7,0.6,1.4,0.2,2.1,0.1c2.2-0.2,4.3,0.2,6.2,1.2c1.7,0.8,1.7,1.6,0.5,3
					c-0.6,0.7-1.5,0.9-2.5,1.6c1.7,0.3,3.2,0.3,4.6-0.4c0.8-0.4,1.2-0.3,1.7,0.5c2.5,4,4.7,8.2,7.1,12.3c1,1.6,1.8,3.4,2.6,5.1
					c1.5,3,3,6.1,4.6,9.1c5.4,10.2,10.1,20.7,14.8,31.2c2.2,4.9,4.3,9.8,5.7,14.9c0.2,0.7,0.6,1.4,0.8,2.1
					c1.3,5.7-0.4,10.5-4.4,14.6c-0.2,0.2-0.4,0.4-0.7,0.7c1.2,0.2,1.9-0.5,2.7-0.9c1.7-1.1,3.2-2.3,4.4-4c0.2-0.3,0.4-0.7,0.9-0.6
					c0.4,0.1,0.5,0.6,0.6,0.9c1.5,5.5,2.3,11,0.8,16.6c-1.2,4.4-3.7,8.2-7,11.4c-4,4-8.5,7.1-13.2,10.1c-7.2,4.6-14.9,8.1-22.6,11.5
					c-5.7,2.4-11.5,4.3-17.5,6c-4.7,1.3-9.4,2.6-14.2,3.3c-3.5,0.6-7,0.7-10.2-1.6c-0.9-0.6-1.6-1.4-2.4-2.2
					c-0.2-0.2-0.4-0.3-0.3-0.6c0.1-0.4,0.5-0.3,0.7-0.2c1.3,0.1,2.6-0.1,3.9-0.4c0.8-0.2,1.5-0.4,2-1.2c-4.7-0.3-8-3-11.2-5.9
					c-3.4-3.1-5.9-7-8.2-11c-3.1-5.3-5.9-10.8-8.7-16.2c-3.6-6.9-6.7-14.1-9.9-21.2c-1.9-4.2-3.6-8.6-5.3-12.9
					c-2.1-5.1-3.9-10.2-5.9-15.4c-0.2-0.5-0.2-1,0.2-1.4c0.6-0.7,0.2-1-0.5-1c-0.4-0.1-0.8-0.2-1.2-0.2c-0.6-0.1-0.8-0.4-0.5-0.8
					c1.2-2,0.2-3.8-0.3-5.8c-1-3.9-1.9-7.8-0.9-11.8c0.3-1.4,0.9-2.5,2-3.5c0.4-0.3,1-0.6,0.9-1.3c4.8-3.3,10-6.1,15.2-8.9
					C48.4,92.9,58.8,88,69.4,83.4c9.8-4.3,19.8-8.2,30-11.3C100,71.9,100.5,71.8,101.1,71.6z M68.9,104.2c-1.4,0.7-2.8,1.4-4.1,2.1
					c-9,5.1-16.1,12.1-20.9,21.3c-6.9,13.4-7.4,26.9-0.1,40.3c5.2,9.5,13.1,16.1,23.3,19.8c15.5,5.6,30.4,4.1,44.6-4.5
					c9.5-5.7,16.5-13.8,20.6-24.1c5-12.7,4.9-25.2-1.7-37.4c-4.9-9.1-12.5-15.4-22.1-19C95.1,97.6,81.9,98.5,68.9,104.2z"/>
				<path class="st7" d="M66.6,74.4c4.8-1,8-4,9.7-8.5c0.5-1.2,0.9-2.4,1.7-3.5c1.7-2.3,4-3.2,6.7-2.4c1.1,0.3,2.1,0.7,3.2,1.1
					c5.8,2,10.8,0.2,14.1-4.9c0.8-1.2,1.2-2.9,3-3.3c1.1,2.1,1.1,4.2,1,6.5c-0.1,1.9-1.1,3.2-2.4,4.4c-2.4,2.3-5.7,2.8-8.6,4
					c-1.4,0.6-2.9,0.9-4,2c-4.3,1.7-8.7,3.3-13,5.1c-10.3,4-20.3,8.6-30.1,13.5c-4.2,2.1-8.3,4.2-12.4,6.4c-1.7,1-3.6,1.8-5.3,2.9
					c-0.8-0.4-1.4-0.2-1.5,0.8c-0.2,0.1-0.3,0.2-0.5,0.3c-0.5-0.3-0.9,0.1-1.3,0.3c-2.4,1.2-4.7,2.4-7,3.7c-1.2,0.7-2.5,1.3-3.8,1.7
					c-4.5,1.3-8.1-1.5-11-5.6c0.8-0.7,1.8-0.4,2.7-0.2c2.4,0.5,4.8,0.8,7.1,0c3.2-1.2,5.3-3.4,6.4-6.6c0.4-1,0.6-1.9,1-2.9
					c1.2-3,3.6-4.3,6.7-3.5c1.6,0.4,3.2,1,4.8,1.4c3.6,0.9,6.9,0.3,9.9-2c0.3-0.2,0.6-0.4,1-0.6c0.3,0.3,0.6,0.2,0.9-0.1
					c2-1.8,3.3-4.1,4.1-6.6c0.2-0.5-0.2-0.7-0.5-0.9c1.6-3.7,4.9-5.1,8.7-3.9c0.9,1.8,6.7,2.8,8.3,2C66.4,74.8,66.6,74.6,66.6,74.4z
					"/>
				<path class="st7" d="M170.6,198.1c-0.2,0-0.4,0-0.6,0c-0.2-0.4-0.5-0.5-0.9-0.5c-6.1-0.5-10.9,2.4-14,8
					c-1.2,2.2-2.3,4.4-4.8,5.3c-2,0.8-4,0.3-6.1-0.1c-1.4-0.3-2.8-0.6-4.3-0.5c-3.9,0.2-7.2,2-10.1,4.5c-1.3,1.1-2.4,2.4-3.2,4
					c-0.8,1.8-2.3,3.1-3.2,4.8c-0.7,0.5-1.5,0.8-2.3,1c-0.2-0.3-0.5-0.4-0.9-0.3c-2.1,0.2-4.1-0.2-6.1-0.6
					c-6.5-1.1-13.5,2.3-16.3,8.5c-1.8,4.1-4.3,5.5-9.1,3.8c-4.5-1.6-8.9-0.6-12.6,2.5c-1.5,1.3-2.5,3-3.8,4.5
					c-0.3,0.3-0.5,0.7-1,0.6c-0.5-0.2-0.6-0.6-0.6-1.1c-0.2-3.2,0.7-6,3.1-8.3c1.9-1.9,4.5-2.7,6.9-3.5c3.9-1.3,7.8-2.8,11.7-4.1
					c2.4-0.8,4.7-2.1,7.1-2.8c1.3-0.4,2.8-0.8,3.8-1.9c0.9-0.4,1.9-0.8,2.8-1.2c1.2,0.3,2.1-0.4,2.9-1.1c6.6-3,13.2-6.1,19.9-9.1
					c0.6,0.1,1.1,0,1.3-0.6c1.3-0.9,2.8-1.5,4.2-2.2c0.2,0,0.5,0.1,0.7,0c3.3-1.3,6.3-3.1,9.4-4.7c1.1-0.5,2.1-1.1,3.2-1.7
					c4.3-2.4,8.5-5.1,13-7.2c3.7-1.7,7.2-1.6,10.6,0.7c1.2,0.8,2.3,1.6,2.1,3.2c-0.5,0.1-0.9,0.3-1.4,0.2
					C171.4,197.7,171,197.4,170.6,198.1z"/>
				<path class="st9" d="M103.2,221.9c-1,1.1-2.4,1.6-3.8,1.9c-2.5,0.7-4.7,2-7.1,2.8c-3.9,1.3-7.7,2.9-11.7,4.1
					c-2.4,0.8-4.9,1.6-6.9,3.5c-2.4,2.3-3.3,5.1-3.1,8.3c0,0.5,0.1,1,0.6,1.1c0.5,0.2,0.8-0.3,1-0.6c1.2-1.5,2.2-3.2,3.8-4.5
					c3.8-3.1,8.1-4.1,12.6-2.5c4.9,1.7,7.3,0.2,9.1-3.8c2.8-6.2,9.8-9.6,16.3-8.5c2,0.3,4,0.8,6.1,0.6c0.3,0,0.7,0,0.9,0.3
					c-1.8,0.7-3.6,0.6-5.5,0.4c-1.4-0.2-2.8-0.4-4.2-0.5c-5.1-0.3-8.9,1.8-11.6,6.1c-0.7,1.2-1.3,2.4-2,3.5c-1.7,2.6-4,3.8-7.1,3.3
					c-1.2-0.2-2.5-0.5-3.7-0.8c-4.8-1.2-8.7,0.3-11.8,4c-1,1.2-1.8,2.5-2.9,3.5c-0.7,0.6-1.4,0.9-2.3,0.9c-1,0-1.7-0.3-1.9-1.4
					c-0.6-3.4-0.6-6.9-0.7-10.3c0-0.8,0.6-0.7,1.1-0.8c3.3-0.8,6.7-1.6,10-2.5c7.7-2.1,15.3-4.7,22.8-7.7
					C101.9,222.3,102.5,221.9,103.2,221.9z"/>
				<path class="st9" d="M173.3,198c0.1-1.6-1-2.4-2.1-3.2c-3.4-2.3-6.9-2.4-10.6-0.7c-4.5,2.1-8.7,4.8-13,7.2
					c-1.1,0.6-2.1,1.2-3.2,1.7c-3.1,1.6-6.1,3.4-9.4,4.7c-0.2,0.1-0.4,0-0.7,0c1.6-1.2,3.5-2,5.2-3c9.1-5.1,18-10.4,26.3-16.7
					c1-0.7,1.6-0.8,2.6,0.1c2,2,4.1,3.8,6.1,5.7C176.4,195.7,175.9,197.2,173.3,198z"/>
				<path class="st9" d="M91,69.7c1.1-1.1,2.6-1.4,4-2c2.9-1.3,6.2-1.7,8.6-4c1.3-1.2,2.3-2.5,2.4-4.4c0.2-2.3,0.2-4.5-1-6.5
					c1.6-0.3,2.3,0,2.8,1.4c1,3.1,1.3,6.3,1.7,9.4c0.1,0.5-0.1,0.7-0.5,0.8c-6,1.4-11.9,3.3-17.8,5.3C91.2,69.8,91.1,69.7,91,69.7z"
					/>
				<path class="st9" d="M5.1,98.8c2.9,4,6.5,6.9,11,5.6c1.3-0.4,2.6-1,3.8-1.7c2.3-1.3,4.6-2.6,7-3.7c0.4-0.2,0.8-0.5,1.3-0.3
					c-2,1.5-4.2,2.6-6.2,3.9c-3.2,2.1-6.4,4.2-9.6,6.3c-0.4,0.3-0.8,0.6-1.3,0.1c-2.2-2.3-4.5-4.6-6.2-7.3
					C4.1,100.6,4,99.6,5.1,98.8z"/>
				<path class="st9" d="M123.4,223.7c0.9-1.7,2.4-3,3.2-4.8c0.7-1.6,1.8-2.9,3.2-4c2.9-2.5,6.1-4.3,10.1-4.5
					c1.5-0.1,2.9,0.2,4.3,0.5c2,0.4,4,0.8,6.1,0.1c2.5-1,3.7-3.2,4.8-5.3c3.1-5.6,7.9-8.5,14-8c0.4,0,0.7,0.1,0.9,0.5
					c-1.4,0.1-2.9,0-4.3,0.2c-3.6,0.5-6.4,2.4-8.4,5.5c-0.6,0.9-1.2,1.9-1.7,2.9c-2.4,4.3-5.9,6-10.8,5.2c-2.2-0.4-4.4-0.8-6.7-0.5
					c-4,0.5-6.9,2.7-9.2,6c-0.9,1.3-1.6,2.6-2.5,3.8C125.6,222.2,124.6,223.2,123.4,223.7z"/>
				<path class="st9" d="M49.2,76.8c0.3,0.2,0.6,0.4,0.5,0.9c-0.8,2.6-2.1,4.8-4.1,6.6c-0.3,0.2-0.6,0.3-0.9,0.1
					c1.8-1.8,3-4,3.9-6.4C48.7,77.6,48.8,77.1,49.2,76.8z"/>
				<path class="st9" d="M66.6,74.4c0,0.3-0.2,0.4-0.4,0.5c-1.6,0.8-7.4-0.1-8.3-2C60.8,73.7,63.6,74.6,66.6,74.4z"/>
				<path class="st9" d="M108.9,219.6c-0.8,0.7-1.7,1.5-2.9,1.1C106.9,220.2,107.9,219.8,108.9,219.6z"/>
				<path class="st9" d="M28.6,98.3c0.1-1,0.7-1.1,1.5-0.8C29.7,97.9,29.2,98.2,28.6,98.3z"/>
				<path class="st9" d="M130,209.9c-0.2,0.7-0.7,0.8-1.3,0.6C129.1,210.2,129.6,210,130,209.9z"/>
				<path class="st9" d="M170.6,198.1c0.4-0.7,0.8-0.4,1.2,0C171.4,198.4,171,198.3,170.6,198.1z"/>
				<path class="st1" d="M68.9,104.2c13-5.7,26.2-6.6,39.6-1.6c9.6,3.6,17.1,9.9,22.1,19c6.6,12.2,6.7,24.7,1.7,37.4
					c-4.1,10.4-11.1,18.4-20.6,24.1c-14.1,8.5-29.1,10.1-44.6,4.5c-10.1-3.7-18-10.3-23.3-19.8c-7.4-13.4-6.8-26.9,0.1-40.3
					c4.7-9.2,11.9-16.2,20.9-21.3C66.1,105.6,67.5,104.9,68.9,104.2z M104.2,181.9c1.2-0.6,2.3-1.2,3.5-1.8c1.1-0.6,2.1-1.3,3.1-1.9
					c10.8-7.4,17.5-17.4,19.6-30.3c2.6-16.1-5.2-31.4-19.6-38.8c-12.8-6.6-25.9-6.3-38.9-0.8c-10.3,4.4-18.1,11.6-23.5,21.4
					c-9,16.4-4.9,36.6,10.2,47.7C72.7,187.8,88.1,188.4,104.2,181.9z"/>
				<path class="st7" d="M104.2,181.9c-16,6.5-31.5,5.9-45.7-4.6c-15.1-11.1-19.2-31.2-10.2-47.7c5.4-9.8,13.3-17,23.5-21.4
					c13-5.6,26.1-5.8,38.9,0.8c14.4,7.4,22.2,22.8,19.6,38.8c-2.1,12.9-8.8,23-19.6,30.3c-1,0.7-2,1.3-3.1,1.9
					C106.5,180.7,105.3,181.3,104.2,181.9z M120.3,126.8c-2.8-6-6.4-9.7-11.5-11.7c-5.2-2-10.3-1.9-15,1.4c-2.9,2.1-4.8,4.9-6.4,8
					c-1.3,2.6-2.6,5.3-3.9,7.9c-1.3,2.6-2.9,5.1-5.5,6.8c-3.1,2-6.5,2.4-10.1,2.2c-5.9-0.4-11.1,1-15.3,5.5c-2.2,2.4-3.3,4.9-2.7,8
					c1.3,6.5,5.1,11.3,11.4,13.4c8.9,3,17.1,0.6,24.7-4.3c0.8-0.5,1.5-0.8,2.6-0.6c13.2,2.6,25.5-3.8,30.7-16.2
					C122.4,140.1,123,132.9,120.3,126.8z"/>
				<path class="st1" d="M120.3,126.8c2.6,6.2,2,13.3-0.9,20.4c-5.3,12.4-17.6,18.8-30.7,16.2c-1-0.2-1.7,0.1-2.6,0.6
					c-7.6,5-15.8,7.4-24.7,4.3c-6.3-2.1-10.1-6.9-11.4-13.4c-0.6-3.1,0.5-5.6,2.7-8c4.2-4.5,9.4-5.9,15.3-5.5
					c3.5,0.2,7-0.2,10.1-2.2c2.5-1.7,4.1-4.1,5.5-6.8c1.3-2.6,2.6-5.3,3.9-7.9c1.6-3.1,3.5-6,6.4-8c4.7-3.4,9.8-3.5,15-1.4
					C114,117.1,117.5,120.8,120.3,126.8z M67.5,146.5c0.8,0.4,1.7,0.8,2.5,1.2c4.2,2.2,8,4.9,11.9,7.6c6.1,4.1,12.7,5.2,19.6,2.7
					c9.8-3.5,15.7-12.3,15.5-22.8c-0.1-6.6-2.8-11.8-8.7-15.1c-4.3-2.4-10.7-2.7-14.6,3.4c-0.7,1.1-1.4,2.3-2.1,3.5
					c-1.5,2.8-2.9,5.7-4.3,8.5c-3.8,7.4-9.9,10.9-18.1,10.7C68.6,146.2,68,146.1,67.5,146.5z M82.2,161c-3.4-1.8-6.3-3.9-9.2-5.9
					c-2-1.3-4.1-2.6-6.2-3.7c-2.4-1.2-4.8-2.2-7.6-2.1c-3.4,0.1-5.2,2.3-4.2,5.6c1.4,4.5,4.1,7.9,8.8,9.3
					C70.3,166.1,76.2,164.2,82.2,161z"/>
				<path class="st10" d="M67.5,146.5c0.5-0.5,1.1-0.4,1.7-0.4c8.3,0.2,14.3-3.3,18.1-10.7c1.5-2.8,2.8-5.7,4.3-8.5
					c0.6-1.2,1.3-2.4,2.1-3.5c3.9-6.1,10.3-5.8,14.6-3.4c5.9,3.2,8.6,8.5,8.7,15.1c0.2,10.4-5.7,19.3-15.5,22.8
					c-6.9,2.5-13.5,1.4-19.6-2.7c-3.9-2.6-7.8-5.3-11.9-7.6C69.2,147.3,68.3,146.9,67.5,146.5z"/>
				<path class="st10" d="M82.2,161c-6,3.3-11.9,5.1-18.4,3.2c-4.7-1.4-7.5-4.8-8.8-9.3c-1-3.3,0.8-5.5,4.2-5.6
					c2.7-0.1,5.2,1,7.6,2.1c2.2,1.1,4.2,2.4,6.2,3.7C76,157.1,78.8,159.1,82.2,161z"/>
			</g>
		</g>
	</g>
</g>
</svg>
