<?xml version="1.0" encoding="utf-8"?>
<!-- Generator: Adobe Illustrator 27.9.1, SVG Export Plug-In . SVG Version: 6.00 Build 0)  -->
<svg version="1.1" id="Layer_1" xmlns="http://www.w3.org/2000/svg" xmlns:xlink="http://www.w3.org/1999/xlink" x="0px" y="0px"
	 viewBox="0 0 351 351" style="enable-background:new 0 0 351 351;" xml:space="preserve">
<style type="text/css">
	.st0{fill:#FDCF23;}
	.st1{fill:#232121;}
	.st2{fill:#8E1830;}
	.st3{fill:#FB751E;}
	.st4{fill:#B21F36;}
	.st5{fill:#6C2009;}
	.st6{fill:#F9F9F9;}
	.st7{fill:#4F1304;}
	.st8{fill:#F3F3F3;}
	.st9{fill:#A33F1F;}
	.st10{fill:#D6D5D2;}
	.st11{fill:#FAFAFA;}
	.st12{fill:#FDDE23;}
	.st13{fill:#FDFDFD;}
	.st14{fill:#BDBEC0;}
	.st15{fill:#E2E3E4;}
	.st16{fill:#BABBBD;}
	.st17{fill:#F16866;}
	.st18{fill:#D1D8EA;}
	.st19{fill:#E5E6E7;}
	.st20{fill:#FDC91C;}
	.st21{fill:#FCCA1D;}
	.st22{fill:#D1CDC5;}
	.st23{fill:#FFDE83;}
	.st24{fill:#7F3211;}
	.st25{fill:#FCFCFC;}
	.st26{fill:#D6D5D5;}
	.st27{fill:#FCCD2A;}
	.st28{fill:#FFFFFF;}
	.st29{fill:#B31F36;}
	.st30{fill:#0D0D0D;}
	.st31{fill:#CD2328;}
	.st32{fill:#8E192F;}
	.st33{fill:#B62225;}
	.st34{fill:#E93B48;}
	.st35{fill:#EC626C;}
	.st36{fill:#EA5661;}
	.st37{fill:#8B6271;}
	.st38{fill:#F8F6F1;}
	.st39{fill:#606161;}
	.st40{fill:#6D1628;}
	.st41{fill:#F26866;}
	.st42{fill:#CFDCDC;}
	.st43{fill:#0E0E0E;}
	.st44{fill:#F4ECE5;}
	.st45{fill:#CB832A;}
	.st46{fill:#FFCD05;}
	.st47{fill:#911F36;}
	.st48{fill:#F9F8F2;}
	.st49{fill:none;}
	.st50{fill:#54121D;}
	.st51{fill:#4A77A8;}
	.st52{fill:#84827E;}
	.st53{fill:#6B6B6B;}
	.st54{fill:#65A042;}
	.st55{fill:#B8CACD;}
	.st56{fill:none;stroke:#F65252;stroke-miterlimit:10;}
	.st57{fill:#F65252;}
	.st58{fill:#0C0B0A;}
	.st59{fill:#2F2F2E;}
	.st60{fill:#BD9158;}
	.st61{fill:#FCFCFB;}
	.st62{fill:#4F2F09;}
	.st63{fill:#A67A45;}
	.st64{fill:#D5D5D5;}
	.st65{fill:#3C3C3C;}
	.st66{fill:#666666;}
	.st67{fill:#C9A375;}
	.st68{fill:#623F19;}
	.st69{fill:#BC9720;}
	.st70{fill:#976A34;}
	.st71{fill:#F7CB2C;}
	.st72{fill:#FDD31C;}
	.st73{fill:#301F1D;}
	.st74{fill:#C5CBD4;}
	.st75{fill:#802E1A;}
	.st76{fill:#C02026;}
	.st77{fill:#881326;}
	.st78{fill:#F44B02;}
	.st79{fill:#A10B0D;}
	.st80{fill:#E72314;}
	.st81{fill:#F8B212;}
	.st82{fill:#FCD641;}
	.st83{fill:#FBFBFC;}
	.st84{fill:#FC9202;}
	.st85{fill:#F97553;}
	.st86{fill:#FDF2CA;}
	.st87{fill:#FDDD27;}
	.st88{fill:#EBE9EA;}
	.st89{fill:#1D2027;}
	.st90{fill:#C8D2DA;}
	.st91{fill:#2B2429;}
	.st92{fill:#A8B5C0;}
	.st93{fill:#373C45;}
	.st94{fill:#DE7442;}
	.st95{fill:#DB443C;}
	.st96{fill:#85D64F;}
	.st97{fill:#3EBCDB;}
	.st98{fill:#703BB3;}
	.st99{fill:#F8C528;}
	.st100{fill:#F3D075;}
	.st101{fill:#F8F8F7;}
	.st102{fill:#F9C829;}
	.st103{fill:#FCCA1C;}
	.st104{fill:#23120E;}
	.st105{fill:#C5C7D0;}
	.st106{fill:#2A1109;}
	.st107{fill:#FADA3F;}
	.st108{fill:#4E2717;}
	.st109{fill:#A04735;}
	.st110{fill:#F4AE12;}
	.st111{fill:#FAF8FC;}
	.st112{fill:#FDCE1F;}
	.st113{fill:#A50A07;}
	.st114{fill:#FCD428;}
	.st115{fill:#FDE893;}
	.st116{fill:#FDCA1D;}
	.st117{fill:#101010;}
	.st118{fill:#0B0B09;}
	.st119{fill:#201F1E;}
	.st120{fill:#5E2C03;}
	.st121{fill:#743E12;}
	.st122{fill:#434342;}
	.st123{fill:#D2D3D5;}
	.st124{fill:#FBFAFA;}
	.st125{fill:#6A6969;}
	.st126{fill:#353534;}
	.st127{fill:#585756;}
	.st128{fill:#C59351;}
	.st129{fill:#FDFDFC;}
	.st130{fill:#AB7A41;}
	.st131{fill:#996936;}
	.st132{fill:#C7C9D2;}
	.st133{fill:#180B09;}
	.st134{fill:#CBCED6;}
	.st135{fill:#CACDD6;}
	.st136{fill:#C9CCD5;}
	.st137{fill:#C7CAD2;}
	.st138{fill:#CCCDD6;}
	.st139{fill:#C4C7D0;}
	.st140{fill:#FAF7FC;}
	.st141{fill:#D0D2DB;}
	.st142{fill:#170B07;}
	.st143{fill:#170A09;}
	.st144{fill:#150A08;}
	.st145{fill:#120806;}
	.st146{fill:#130705;}
	.st147{fill:#150806;}
	.st148{fill:#190906;}
	.st149{fill:#22140D;}
	.st150{fill:#FBF8FD;}
	.st151{fill:#271009;}
	.st152{fill:#2B0F09;}
	.st153{fill:#31100A;}
	.st154{fill:#2D110B;}
	.st155{fill:#1A0B09;}
	.st156{fill:#CF140F;}
	.st157{fill:#D61D13;}
	.st158{fill:#C9190E;}
	.st159{fill:#33100B;}
	.st160{fill:#3A120C;}
	.st161{fill:#340F09;}
	.st162{fill:#BABDC5;}
	.st163{fill:#C5C8D0;}
	.st164{fill:#ACAFB9;}
	.st165{fill:#B2B5BE;}
	.st166{fill:#280E09;}
	.st167{fill:#FDCB1F;}
	.st168{fill:#EBA80B;}
	.st169{fill:#FCD629;}
	.st170{fill:#FCD832;}
	.st171{fill:#FCD93C;}
	.st172{fill:#FBD126;}
	.st173{fill:#F2AF10;}
	.st174{fill:#FBDC41;}
	.st175{fill:#FAD440;}
	.st176{fill:#FBD430;}
	.st177{fill:#1E0E04;}
	.st178{fill:#FCCF28;}
	.st179{fill:#EDAD12;}
	.st180{fill:#FCCD24;}
	.st181{fill:#E5AC12;}
	.st182{fill:#FAD93E;}
	.st183{fill:#E6AF15;}
	.st184{fill:#E2A60F;}
	.st185{fill:#FBB114;}
	.st186{fill:#FCDA48;}
	.st187{fill:#EDBD24;}
	.st188{fill:#EC9806;}
	.st189{fill:#FCDD4A;}
	.st190{fill:#D3160F;}
	.st191{fill:#EA8D09;}
	.st192{fill:#FAAD0E;}
	.st193{fill:#F1A70F;}
	.st194{fill:#EB9F0A;}
	.st195{fill:#F8D238;}
	.st196{fill:#F8D141;}
	.st197{fill:#F8CE32;}
	.st198{fill:#F6C427;}
	.st199{fill:#E8A107;}
	.st200{fill:#E09105;}
	.st201{fill:#F4A612;}
	.st202{fill:#D67709;}
	.st203{fill:#FDDB2F;}
	.st204{fill:#140807;}
	.st205{fill:#C3C5CD;}
	.st206{fill:#C6C7CF;}
	.st207{fill:#F8471A;}
	.st208{fill:#BF0A0B;}
	.st209{fill:#281611;}
	.st210{fill:#1D0F0D;}
	.st211{fill:#ADB2BB;}
	.st212{fill:#DEDDE2;}
	.st213{fill:#EC3416;}
	.st214{fill:#EB311C;}
	.st215{fill:#BF150E;}
	.st216{fill:#CF160E;}
	.st217{fill:#CBCCD4;}
	.st218{fill:#DD1F11;}
	.st219{fill:#E22E13;}
	.st220{fill:#EE3418;}
	.st221{fill:#ECBD2B;}
	.st222{fill:#ECB920;}
	.st223{fill:#F5B116;}
	.st224{fill:#BC0F09;}
	.st225{fill:#4E2516;}
	.st226{fill:#CCCCD4;}
	.st227{fill:#A46C4F;}
	.st228{fill:#F8F6F9;}
	.st229{fill:#C0C2CB;}
	.st230{fill:#572C1C;}
	.st231{fill:#502819;}
	.st232{fill:#F2E8ED;}
	.st233{fill:#1D0B08;}
	.st234{fill:#F9F8FC;}
	.st235{fill:#F53624;}
	.st236{fill:#250F0B;}
	.st237{fill:#D30D12;}
	.st238{fill:#D3D4DA;}
	.st239{fill:#BFC0C4;}
	.st240{fill:#CE0D12;}
	.st241{fill:#3D1008;}
	.st242{fill:#C40A0D;}
	.st243{fill:#66160A;}
	.st244{fill:#2B0D07;}
	.st245{fill:#B6B8BF;}
	.st246{fill:#601609;}
	.st247{fill:#A8AAB1;}
	.st248{fill:#ACAAAE;}
	.st249{fill:#818087;}
	.st250{fill:#787676;}
	.st251{fill:#BE4A34;}
	.st252{fill:#FDCE1E;}
	.st253{fill:#FCDF3B;}
	.st254{fill:#DC2113;}
	.st255{fill:#FCDC42;}
	.st256{fill:#FCD13D;}
	.st257{fill:#CE140B;}
	.st258{fill:#C80F0B;}
	.st259{fill:#CA100C;}
	.st260{fill:#D31F09;}
	.st261{fill:#B5B8C1;}
	.st262{fill:#1A0906;}
	.st263{fill:#AFB3BC;}
	.st264{fill:#BF5540;}
	.st265{fill:#A8ACB5;}
	.st266{fill:#A8513B;}
	.st267{fill:#C95D46;}
	.st268{fill:#B54B32;}
	.st269{fill:#DED9D4;}
	.st270{fill:#C05740;}
	.st271{fill:#EF3522;}
	.st272{fill:#BEBEC0;}
	.st273{fill:#AD755F;}
	.st274{fill:#D0C2BA;}
	.st275{fill:#FDD524;}
	.st276{fill:#FDE05C;}
	.st277{fill:#FC694B;}
	.st278{fill:#FD9C5B;}
	.st279{fill:#FDDB50;}
	.st280{fill:#FCD764;}
	.st281{fill:#F13715;}
	.st282{fill:#FCC830;}
	.st283{fill:#F23222;}
	.st284{fill:#88281C;}
	.st285{fill:#C54B3B;}
	.st286{fill:#9F3225;}
	.st287{fill:#912E21;}
	.st288{fill:#8C2C20;}
	.st289{fill:#9B3A2D;}
	.st290{fill:#A03529;}
	.st291{fill:#822519;}
	.st292{fill:#A83A28;}
	.st293{fill:#B54D3B;}
	.st294{fill:#FB714F;}
	.st295{fill:#FCC81D;}
	.st296{fill:#FBAE0F;}
	.st297{fill:#FBB617;}
	.st298{fill:#FDCD21;}
	.st299{fill:#F7AC12;}
	.st300{fill:#F9AD10;}
	.st301{fill:#FDDA35;}
	.st302{fill:#FCDA36;}
	.st303{fill:#FBBD1E;}
	.st304{fill:#FCBF1E;}
	.st305{fill:#FDD123;}
	.st306{fill:#FDD021;}
	.st307{fill:#F9AF12;}
	.st308{fill:#FDDF47;}
	.st309{fill:#FBB915;}
	.st310{fill:#FCDA43;}
	.st311{fill:#FCD42A;}
	.st312{fill:#FCC91E;}
	.st313{fill:#FCE050;}
	.st314{fill:#FAD62F;}
	.st315{fill:#FCB816;}
	.st316{fill:#FCD123;}
	.st317{fill:#F9A80E;}
	.st318{fill:#502617;}
	.st319{fill:#F8F3F6;}
	.st320{fill:#532817;}
	.st321{fill:#FAF7FD;}
	.st322{fill:#DDDCE4;}
	.st323{fill:#E0E0E7;}
	.st324{fill:#F5331E;}
	.st325{fill:#FD7642;}
	.st326{fill:#FD7859;}
	.st327{fill:#F73B1F;}
	.st328{fill:#DC2717;}
	.st329{fill:#B5090A;}
	.st330{fill:#C9100F;}
	.st331{fill:#960805;}
	.st332{fill:#FBF8FC;}
	.st333{fill:#D3170F;}
	.st334{fill:#DD3617;}
	.st335{fill:#CA180E;}
	.st336{fill:#D1D1DA;}
	.st337{fill:#CCCED4;}
	.st338{fill:#CBCAD3;}
	.st339{fill:#D02210;}
	.st340{fill:#E12416;}
	.st341{fill:#FC7156;}
	.st342{fill:#FA4624;}
	.st343{fill:#BB100D;}
	.st344{fill:#FCDB42;}
	.st345{fill:#FCC926;}
	.st346{fill:#290F05;}
	.st347{fill:#D1110D;}
	.st348{fill:#EAB91C;}
	.st349{fill:#522717;}
	.st350{fill:#4C2316;}
	.st351{fill:#F1A10A;}
	.st352{fill:#E5B817;}
	.st353{fill:#EE9D06;}
	.st354{fill:#582B1A;}
	.st355{fill:#E7DEE2;}
	.st356{fill:#35170E;}
	.st357{fill:#E4D4DB;}
	.st358{fill:#E1CCD5;}
	.st359{fill:#280F06;}
	.st360{fill:#270E05;}
	.st361{fill:#855038;}
	.st362{fill:#E1D4D9;}
	.st363{fill:#F7F3F6;}
	.st364{fill:#B07A5C;}
	.st365{fill:#9F6646;}
	.st366{fill:#D6D3D8;}
	.st367{fill:#8F6146;}
	.st368{fill:#2D1106;}
	.st369{fill:#32140A;}
	.st370{fill:#291008;}
	.st371{fill:#220B01;}
	.st372{fill:#4F2917;}
	.st373{fill:#37180E;}
	.st374{fill:#920603;}
	.st375{fill:#B60B0A;}
	.st376{fill:#670703;}
	.st377{fill:#7D0502;}
	.st378{fill:#2F100D;}
	.st379{fill:#B9BCC2;}
	.st380{fill:#AEAEB2;}
	.st381{fill:#C60B10;}
	.st382{fill:#898B91;}
	.st383{fill:#501108;}
	.st384{fill:#C75941;}
	.st385{fill:#3A1209;}
	.st386{fill:#741D0F;}
	.st387{fill:#451307;}
	.st388{fill:#2C110B;}
	.st389{fill:#D2D2D2;}
	.st390{fill:#B7BAC0;}
	.st391{fill:#B4B7BE;}
	.st392{fill:#93949B;}
	.st393{fill:#9599A2;}
	.st394{fill:#A1A4AC;}
	.st395{fill:#93969D;}
	.st396{fill:#71757D;}
	.st397{fill:#747982;}
	.st398{fill:#9B321D;}
	.st399{fill:#FDD121;}
	.st400{fill:#FCDD3C;}
	.st401{fill:#FDDF41;}
	.st402{fill:#FCD528;}
	.st403{fill:#FCD52D;}
	.st404{fill:#F9C920;}
	.st405{fill:#FCD730;}
	.st406{fill:#FBCB27;}
	.st407{fill:#FDD724;}
	.st408{fill:#FDD828;}
	.st409{fill:#FCD120;}
	.st410{fill:#FDDC2B;}
	.st411{fill:#FCDB2F;}
	.st412{fill:#FDDD2F;}
	.st413{fill:#FCDC2F;}
	.st414{fill:#FDD929;}
	.st415{fill:#FDD92A;}
	.st416{fill:#FDDD4E;}
	.st417{fill:#FDDE31;}
	.st418{fill:#FCD729;}
	.st419{fill:#FDDD39;}
	.st420{fill:#FCD424;}
	.st421{fill:#FCD027;}
	.st422{fill:#C00F0C;}
	.st423{fill:#FCD53B;}
	.st424{fill:#D57604;}
	.st425{fill:#FCD72D;}
	.st426{fill:#FCD224;}
	.st427{fill:#FAB40F;}
	.st428{fill:#FAC017;}
	.st429{fill:#FCC11B;}
	.st430{fill:#FCB613;}
	.st431{fill:#F8A40E;}
	.st432{fill:#F7F4EA;}
	.st433{fill:#E5DFD9;}
	.st434{fill:#DB1D1C;}
	.st435{fill:#511514;}
	.st436{fill:#CA5C47;}
	.st437{fill:#A1412F;}
	.st438{fill:#AE4937;}
	.st439{fill:#A63923;}
	.st440{fill:#93280A;}
	.st441{fill:#9E3317;}
	.st442{fill:#A04834;}
	.st443{fill:#942C0C;}
	.st444{fill:#AB4F39;}
	.st445{fill:#8D2916;}
	.st446{fill:#4F2D26;}
	.st447{fill:#FCD931;}
	.st448{fill:#FCD425;}
	.st449{fill:#FDC117;}
	.st450{fill:#FDC91F;}
	.st451{fill:#FCC317;}
	.st452{fill:#FDC920;}
	.st453{fill:#FDE352;}
	.st454{fill:#FBC31D;}
	.st455{fill:#9E3220;}
	.st456{fill:#5A1B0A;}
	.st457{fill:#6F2211;}
	.st458{fill:#471B09;}
	.st459{fill:#962B1C;}
	.st460{fill:#631606;}
	.st461{fill:#A1382A;}
	.st462{fill:#461906;}
	.st463{fill:#6C1E0A;}
	.st464{fill:#5F1908;}
	.st465{fill:#B24A39;}
	.st466{fill:#FBB512;}
	.st467{fill:#FCB515;}
	.st468{fill:#E1D6DB;}
	.st469{fill:#CC120C;}
	.st470{fill:#FCFCFD;}
	.st471{fill:#E2CDC3;}
	.st472{fill:#A46E4E;}
	.st473{fill:#A06843;}
	.st474{fill:#F3F1F7;}
	.st475{fill:#B07A57;}
	.st476{fill:#FB5D38;}
	.st477{fill:#FB6C4D;}
	.st478{fill:#DD2417;}
	.st479{fill:#FA654E;}
	.st480{fill:#C81E11;}
	.st481{fill:#B9140D;}
	.st482{fill:#D01C0F;}
	.st483{fill:#4C2615;}
	.st484{fill:#502818;}
	.st485{fill:#D57C06;}
	.st486{fill:#FABE1A;}
	.st487{fill:#C51008;}
	.st488{fill:#FBC61F;}
	.st489{fill:#F8AE11;}
	.st490{fill:#F5A80A;}
	.st491{fill:#F3C322;}
	.st492{fill:#FDCF20;}
	.st493{fill:#FCCB26;}
	.st494{fill:#4E2616;}
	.st495{fill:#1F0803;}
	.st496{fill:#935D41;}
	.st497{fill:#4D2316;}
	.st498{fill:#E4D8DD;}
	.st499{fill:#210802;}
	.st500{fill:#220902;}
	.st501{fill:#C0A79E;}
	.st502{fill:#220802;}
	.st503{fill:#B19991;}
	.st504{fill:#A68B80;}
	.st505{fill:#884115;}
	.st506{fill:#8E4515;}
	.st507{fill:#431D11;}
	.st508{fill:#2C1109;}
	.st509{fill:#1E0903;}
	.st510{fill:#B8A096;}
	.st511{fill:#CAB0A8;}
	.st512{fill:#FDEB93;}
	.st513{fill:#FDEBA6;}
	.st514{fill:#B78B76;}
	.st515{fill:#633521;}
	.st516{fill:#5E311F;}
	.st517{fill:#FEF3A9;}
	.st518{fill:#C40910;}
	.st519{fill:#B3040C;}
	.st520{fill:#8B0807;}
	.st521{fill:#FB6843;}
	.st522{fill:#FBF9ED;}
	.st523{fill:#F23C27;}
	.st524{fill:#ECEAE8;}
	.st525{fill:#AEB0B4;}
	.st526{fill:#862415;}
	.st527{fill:#96301E;}
	.st528{fill:#852315;}
	.st529{fill:#731C10;}
	.st530{fill:#A33924;}
	.st531{fill:#C24E39;}
	.st532{fill:#FCFBF2;}
	.st533{fill:#792414;}
	.st534{fill:#8B3322;}
	.st535{fill:#802615;}
	.st536{fill:#F1EEEB;}
	.st537{fill:#EAE9E7;}
	.st538{fill:#8B8F97;}
	.st539{fill:#9B9EA5;}
	.st540{fill:#AAADB4;}
	.st541{fill:#9CA0A8;}
	.st542{fill:#888C95;}
	.st543{fill:#511D09;}
	.st544{fill:#FCD321;}
	.st545{fill:#FCD72B;}
	.st546{fill:#F0A60C;}
	.st547{fill:#FDDA30;}
	.st548{fill:#F7B614;}
	.st549{fill:#FDDC37;}
	.st550{fill:#FBBD21;}
	.st551{fill:#FDD127;}
	.st552{fill:#FCDD39;}
	.st553{fill:#FDD729;}
	.st554{fill:#FDCA20;}
	.st555{fill:#FDC71F;}
	.st556{fill:#FBC31B;}
	.st557{fill:#FCD529;}
	.st558{fill:#EFC122;}
	.st559{fill:#F7AD0E;}
	.st560{fill:#F9BC1A;}
	.st561{fill:#FDDF4A;}
	.st562{fill:#FDDF5C;}
	.st563{fill:#FDCE1B;}
	.st564{fill:#FDC81C;}
	.st565{fill:#FCB812;}
	.st566{fill:#FCC71A;}
	.st567{fill:#FCD21F;}
	.st568{fill:#FCC415;}
	.st569{fill:#FCCF23;}
	.st570{fill:#FBBB13;}
	.st571{fill:#FBBD16;}
	.st572{fill:#FCD524;}
	.st573{fill:#FBAC0C;}
	.st574{fill:#FCBC15;}
	.st575{fill:#FCC21C;}
	.st576{fill:#FDD025;}
	.st577{fill:#FBB411;}
	.st578{fill:#FCBB15;}
	.st579{fill:#FBC61E;}
	.st580{fill:#FDBD15;}
	.st581{fill:#FDD826;}
	.st582{fill:#FDD92E;}
	.st583{fill:#EAA60D;}
	.st584{fill:#FDC21B;}
	.st585{fill:#FDC720;}
	.st586{fill:#FDCD1C;}
	.st587{fill:#FDD325;}
	.st588{fill:#FCC11C;}
	.st589{fill:#FCC322;}
	.st590{fill:#BD4F02;}
	.st591{fill:#FAB919;}
	.st592{fill:#E5E2DB;}
	.st593{fill:#DBD8D2;}
	.st594{fill:#AAACB2;}
	.st595{fill:#9D3008;}
	.st596{fill:#A7412E;}
	.st597{fill:#A53A24;}
	.st598{fill:#812D1D;}
	.st599{fill:#7D1C08;}
	.st600{fill:#CC4C02;}
	.st601{fill:#D95D02;}
	.st602{fill:#AD3A03;}
	.st603{fill:#EC7303;}
	.st604{fill:#F68707;}
	.st605{fill:#9F3203;}
	.st606{fill:#B43D0A;}
	.st607{fill:#771F08;}
	.st608{fill:#551E07;}
	.st609{fill:#FDDC3F;}
	.st610{fill:#FCDE4A;}
	.st611{fill:#FCDA39;}
	.st612{fill:#FCDB43;}
	.st613{fill:#FCDE43;}
	.st614{fill:#FCDD41;}
	.st615{fill:#FCE04D;}
	.st616{fill:#FBC629;}
	.st617{fill:#FCC21D;}
	.st618{fill:#4B1E09;}
	.st619{fill:#FADC5A;}
	.st620{fill:#F3C647;}
	.st621{fill:#EBA924;}
	.st622{fill:#FCDE54;}
	.st623{fill:#4F140D;}
	.st624{fill:#FBD744;}
	.st625{fill:#FCD035;}
	.st626{fill:#FCE361;}
	.st627{fill:#E0900C;}
	.st628{fill:#672D14;}
	.st629{fill:#925633;}
	.st630{fill:#793D1C;}
	.st631{fill:#C19C8D;}
	.st632{fill:#B29084;}
	.st633{fill:#C09B89;}
	.st634{fill:#8E6456;}
	.st635{fill:#AF8B7F;}
	.st636{fill:#2E130B;}
	.st637{fill:#D2BEB5;}
	.st638{fill:#673E2D;}
	.st639{fill:#D0B7AE;}
	.st640{fill:#9C7769;}
	.st641{fill:#FBAD0D;}
	.st642{fill:#CD5A02;}
	.st643{fill:#FCB913;}
	.st644{fill:#FACD25;}
	.st645{fill:#F4BE1D;}
	.st646{fill:#F8CD25;}
	.st647{fill:#FDD42D;}
	.st648{fill:#D6C2B9;}
	.st649{fill:#D9C6BF;}
	.st650{fill:#D3BDB4;}
	.st651{fill:#633724;}
	.st652{fill:#CDBBB4;}
	.st653{fill:#C5B4AE;}
	.st654{fill:#C8B4AD;}
	.st655{fill:#60180C;}
	.st656{fill:#4F1309;}
	.st657{fill:#5F4941;}
	.st658{fill:#68514A;}
	.st659{fill:#BAA199;}
	.st660{fill:#CBB6AF;}
	.st661{fill:#5F473E;}
	.st662{fill:#76432E;}
	.st663{fill:#C8C9C9;}
	.st664{fill:#96979B;}
	.st665{fill:#993523;}
	.st666{fill:#AE4E39;}
	.st667{fill:#882C1A;}
	.st668{fill:#8D2810;}
	.st669{fill:#B4402D;}
	.st670{fill:#A0311D;}
	.st671{fill:#9F4735;}
	.st672{fill:#A64E3B;}
	.st673{fill:#F3C237;}
	.st674{fill:#CE5F04;}
	.st675{fill:#FCCC1F;}
	.st676{fill:#E28B0B;}
	.st677{fill:#FDE044;}
	.st678{fill:#FCCF24;}
	.st679{fill:#FCC324;}
	.st680{fill:#C36201;}
	.st681{fill:#FBB916;}
	.st682{fill:#FDD11E;}
	.st683{fill:#FDC51B;}
	.st684{fill:#B94D00;}
	.st685{fill:#FBBA18;}
	.st686{fill:#FDCE20;}
	.st687{fill:#FBCC21;}
	.st688{fill:#A32A01;}
	.st689{fill:#F2A20A;}
	.st690{fill:#C56101;}
	.st691{fill:#C26502;}
	.st692{fill:#B85301;}
	.st693{fill:#D27102;}
	.st694{fill:#CB6602;}
	.st695{fill:#FBB610;}
	.st696{fill:#F9A60B;}
	.st697{fill:#FCB411;}
	.st698{fill:#FBAB0D;}
	.st699{fill:#FDC726;}
	.st700{fill:#C74E02;}
	.st701{fill:#8D2508;}
	.st702{fill:#C64C02;}
	.st703{fill:#BD4803;}
	.st704{fill:#D85A02;}
	.st705{fill:#FC9B1B;}
	.st706{fill:#FCD95F;}
	.st707{fill:#D04E02;}
	.st708{fill:#912602;}
	.st709{fill:#D46304;}
	.st710{fill:#FBA527;}
	.st711{fill:#FA9811;}
	.st712{fill:#F27903;}
	.st713{fill:#FCB937;}
	.st714{fill:#FDC541;}
	.st715{fill:#FCDE67;}
	.st716{fill:#EFC538;}
	.st717{fill:#FDE26B;}
	.st718{fill:#FDE062;}
	.st719{fill:#FDE577;}
	.st720{fill:#FCE36B;}
	.st721{fill:#FCDE55;}
	.st722{fill:#FDE874;}
	.st723{fill:#E2A918;}
	.st724{fill:#FDE15F;}
	.st725{fill:#FDE371;}
	.st726{fill:#FDD842;}
	.st727{fill:#CEAFA3;}
	.st728{fill:#CBA99C;}
	.st729{fill:#DFCDC9;}
	.st730{fill:#E8DAD6;}
	.st731{fill:#7C2313;}
	.st732{fill:#972A01;}
	.st733{fill:#832405;}
	.st734{fill:#C14403;}
	.st735{fill:#D04E03;}
	.st736{fill:#FCD14D;}
	.st737{fill:#ED880B;}
	.st738{fill:#F6AD20;}
	.st739{fill:#F8A30B;}
	.st740{fill:#F88106;}
	.st741{fill:#A53602;}
	.st742{fill:#FCAC2C;}
	.st743{fill:#EF800C;}
	.st744{fill:#BC4A04;}
	.st745{fill:#CF5805;}
	.st746{fill:#F3850A;}
	.st747{fill:#FCC336;}
	.st748{fill:#FBAD1A;}
	.st749{fill:#E87107;}
	.st750{fill:#FAB024;}
	.st751{fill:#EC830A;}
	.st752{fill:#F8A923;}
	.st753{fill:#FDCA48;}
	.st754{fill:#FB900B;}
	.st755{fill:#FCDE6D;}
	.st756{fill:#FBCD48;}
	.st757{fill:#F7B62E;}
	.st758{fill:#F7CC52;}
	.st759{fill:#FDD847;}
	.st760{fill:#C14702;}
	.st761{fill:#B43701;}
	.st762{fill:#791801;}
	.st763{fill:#A83301;}
	.st764{fill:#E9790A;}
	.st765{fill:#F78908;}
	.st766{fill:#DF6E07;}
	.st767{fill:#F88C0C;}
	.st768{fill:#FACB46;}
	.st769{fill:#FBD759;}
	.st770{fill:#F6CF53;}
	.st771{fill:#F5B923;}
	.st772{fill:#FCCC3D;}
	.st773{fill:#FDD436;}
	.st774{fill:#FDD95D;}
	.st775{fill:#FDD856;}
	.st776{fill:#FCC733;}
	.st777{fill:#FDE269;}
	.st778{fill:#FDD64D;}
	.st779{fill:#8B2E01;}
	.st780{fill:#FDD23F;}
	.st781{fill:#FDD242;}
	.st782{fill:#FAC335;}
	.st783{fill:#FDE068;}
	.st784{fill:#F8D251;}
	.st785{fill:#F9C632;}
	.st786{fill:#FACE41;}
	.st787{fill:#FDCF32;}
	.st788{fill:#A43001;}
	.st789{fill:#B13901;}
	.st790{fill:#D75303;}
	.st791{fill:#FCB234;}
	.st792{fill:#F87803;}
	.st793{fill:#FBA01F;}
	.st794{fill:#CC5404;}
	.st795{fill:#E76903;}
	.st796{fill:#F59626;}
	.st797{fill:#E76304;}
	.st798{fill:#A22D02;}
	.st799{fill:#ED7104;}
	.st800{fill:#FDC34C;}
	.st801{fill:#7E2501;}
	.st802{fill:#FDCA54;}
	.st803{fill:#882803;}
	.st804{fill:#FDD866;}
	.st805{fill:#A63001;}
	.st806{fill:#DC5302;}
	.st807{fill:#8B1D01;}
	.st808{fill:#F27306;}
	.st809{fill:#BA3E06;}
	.st810{fill:#FDEAAF;}
	.st811{fill:#FDA52B;}
	.st812{fill:#FCD559;}
	.st813{fill:#ED6804;}
	.st814{fill:#BA4A02;}
	.st815{fill:#F48709;}
	.st816{fill:#F98C1D;}
	.st817{fill:#E05002;}
	.st818{fill:#EE6804;}
	.st819{fill:#E6750C;}
	.st820{fill:#F99614;}
</style>
<g>
	<path class="st61" d="M328.3,78.9c-0.9-4.4-3.8-7.9-8.2-9.7c7.3-5.4,8.5-11.9,8.1-16.6c-0.4-5.2-2.9-12.2-12.4-16.4
		c-4.2-1.8-8.6-2.7-13.3-2.7c-0.2,0-0.5,0-0.7,0c1.7-2,2.8-4.4,2.9-7.1l0-0.2v-0.2c0-3.2-1.1-7.6-6.4-10.5l-0.3-0.1l-0.3-0.1
		c-1.8-0.8-3.7-1.1-5.7-1.1c-2.1,0-4.2,0.4-6.6,1.3c-4.6,1.7-8.7,4.5-12.7,8.7c0.2-2.6,0-5.2-0.6-7.8l0-0.2
		c-2.8-10.3-10.2-11.4-13.2-11.4c-0.5,0-0.9,0-1.4,0.1c-2,0.1-4,0.4-5.8,0.7c-7.6,1-15.2,2-22.8,3c-7.6,1-15.2,2-22.7,3
		c-1.1,0.1-2.1,0.3-3,0.5c-1.1,0.2-2.2,0.4-3,0.4c-0.5,0-0.7-0.1-0.9-0.2l-0.3-0.1l-0.3-0.1c-1-0.4-2-0.6-3-0.6
		c-1.9,0-3.8,0.6-5.4,1.7c-0.3,0-0.7,0-1,0c-3.6,0-6.7,1.7-8.7,4.5c-4.1,0.8-7.1,3.6-8.3,7.7c-4.2,2.5-6.3,6.5-5.5,11
		c0.2,1-0.2,2.2-0.8,4.1c-0.2,0.6-0.4,1.2-0.5,1.8c-0.8,3-1.5,5.7-2.1,8.1c-16.2,4.8-31.9,10.7-45.3,15.9c-0.9,0.4-1.8,0.8-2.7,1.1
		c-1.8,0.8-3.5,1.6-5.1,2l-0.6,0.2l-0.6,0.3c-1.1,0.5-2.1,1-3.2,1.5c-2.7,1.3-5.5,2.6-8.2,4c-5.3,2.6-10.7,5.4-15.5,9.9
		c-3,2.7-4.3,6.2-4.1,10.5l0,0.2c0.2,2.3,0.3,4.6,0.4,7l-1,1v0.2c-0.2,0.2-0.3,0.4-0.5,0.6c-0.7,0.8-1.4,1.6-2.1,2.3l-0.5,0.5
		l-0.4,0.6c-3,5.1-3.1,10.4-0.5,15.4c0,0.1,0,0.2,0,0.3c0,1.9,0,3.7-0.1,5.6c0,1.9-0.1,3.9-0.1,5.8c0,0.6,0.1,1,0.1,1.4v1.7l1.3,1.7
		c1.9,2.6,5,4.1,8.4,4.2c0.8,0,1.5,0.1,2.3,0.1c-0.3,2.3-0.5,4.5-0.8,6.8c-0.3,2.5-0.6,5-0.9,7.5c-0.5,0.3-1,0.7-1.5,1.3l-0.8,0.8
		h-1l-0.9,2.9l-0.7,0.7l0,1.6c-1.1,4-1.5,7.8-1.9,11.6c-0.2,2.2-0.5,4.3-0.8,6.3c-0.2,1.2-0.4,2.3-0.6,3.5c-0.2,1-0.3,2.1-0.5,3.1
		l-0.1,0.6v1.1c-0.1,0.9-0.2,1.8-0.3,2.7c-0.4,3.6-0.8,7.3-1.4,10.8l-0.1,0.6v0.1c0,0.2-0.1,0.5-0.1,0.8
		c-1.9,14.1-3.6,28.1-5.1,40.3l-0.4,0.8v1c0,0.2-0.1,0.5-0.1,0.9c-0.1,0.6-0.1,1.2-0.1,1.9c0,0.4,0,0.9-0.1,1.3
		c-0.3,2.5-0.8,6.5,1.5,10.1c0.8,1.3,0.9,2.6,0.3,5.9c-0.3,1.9-0.5,3.8-0.7,5.7c-0.3,3.1-0.7,5.9-1.4,8.6l-0.3,1l0.1,1.1
		c0.1,1.4-0.3,2.9-0.7,4.7c-0.1,0.5-0.2,1-0.3,1.5c-3.2,0-5.9,2-6.9,5.1l-0.1,0.2l-0.1,0.2c-0.3,1.2-0.6,2.5-0.7,3.2l0,0.1
		c-1.6,0.5-4.4,1.9-5.3,6l-0.3,1.1l0.1,1.1c0.6,6.3,3.9,9.7,6.5,11.5l0.3,0.2c1,0.6,2.5,1.4,4.6,1.4c0,0,0,0,0,0
		c1.3,0,2.6-0.4,3.8-1c1.2,0.9,3.1,2.1,5.6,2.1h0c2.5,0,4.8-1.2,6.3-3.2c0.2-0.2,0.3-0.5,0.5-0.7c5.1,4,10.5,7,15,9.3
		c13.9,6.9,28.9,11.5,44.4,13.7c6.4,1,12.1,1.4,17.5,1.4c6.8,0,13-0.7,19-2.2c9.7-2.4,15.7-7.4,18.4-15.5c0.6-1.7,1.4-3.5,2.3-5.3
		c0.5-1,1-2.1,1.4-3.2l0.1-0.3l0.1-0.3c0.9-2.7,2-5.4,3.3-8.2c0.9-2.1,1.8-4.2,2.7-6.4c1.9-1.1,4-2.3,5.8-4.5
		c0.2-0.2,0.3-0.4,0.4-0.6l0.8-0.8c0,0,0.5-1.9,0.5-1.9l0.4-0.4l1-2l0.1-0.3c1.6-4.3,3.6-8.4,5.6-12.8l1.4-2.9
		c0.1-0.2,0.2-0.5,0.4-0.8l0-0.1l0.2-0.5l0.2-0.6c0.1-0.5,0.4-1.1,0.9-1.9l0.4-0.4l0.2-0.6l0.5-0.9v-0.5c1.4-3.7,3.1-7.3,4.9-11.1
		c1-2.1,2-4.2,2.9-6.3c0.3-0.6,0.5-1.3,0.8-2c0.4-1.1,0.9-2.3,1.4-2.9l0.6-0.8l0.4-1c1.5-4,3.3-8,5.2-12.1c1.4-3.1,2.9-6.3,4.2-9.4
		c0.3-0.7,0.7-1.4,1.1-2.2c1.4-2.8,3.2-6.3,3-10.8c0-0.8,0.1-2.7-0.9-4.6c0.1-0.5,0.6-1.6,0.9-2.4c1.9-4.6,3.8-9.4,5.7-13.9
		c1.3-3.3,2.7-6.6,4-9.9l0.2-0.4l0.1-0.5c0.4-1.7,0.9-3.4,1.6-4.6c0.8-0.6,1.6-1.3,2.2-2c6.1-5.9,7.4-14.6,3.3-22.1
		c-0.9-1.7-1.9-3.2-2.9-4.5v-4.4h-0.5v-9.8l-7.4,7.4c0,0,0,0,0,0c-2-1.3-4-2.7-6.2-4c0.9-2.6,3.2-5.7,5.7-6.5l0.6-0.2l0.6-0.3
		c0.7-0.4,1.4-0.5,2.4-0.5c0.7,0,1.6,0.1,2.7,0.3c1.5,0.2,2.8,0.4,4.1,0.4c1,0,2-0.1,2.9-0.2l0.2,0c1.2-0.2,2.3-0.6,3.3-1l0.2,0.4
		c0.4,0.8,0.9,1.4,1.3,1.9l0.2,0.7l1.3,0.9l0.5,0.5c0.1,0.2,0.2,0.4,0.3,0.5c0.2,0.3,0.4,0.6,0.5,0.9c0.1,0.1,0.1,0.2,0.2,0.3
		c0.3,0.7,0.8,1.3,1.3,1.8c2.2,2.6,5.1,4,8.6,4.2l1.7,0.1l1-0.5c0.4-0.1,0.9-0.3,1.5-0.6c0.7-0.4,1.3-0.8,1.6-1l0,0l1.7-0.8l1-1.9
		c0.9-1.7,2-4.8,1-8.5l2.4-2.4l-3.7-3.7c0,0,0-0.1-0.1-0.1c0,0,0,0.1,0,0.1l-0.2-0.2c-0.2-0.4-0.6-0.8-1-1.2l-0.8-0.8
		c0.6,0,1.2,0,1.8,0c2.8,0,5.3-0.3,7.8-0.9c7.3-1.8,12.1-6.4,13.5-12.8c1.1-4.6,0.5-9.1-1.7-13.1c1.3,0.6,2.9,1,4.8,1
		c3.4,0,6.5-1.4,8.6-3.9C328.1,85.5,329,82.2,328.3,78.9z M278.8,115.6c-0.3,0-0.5,0-0.8,0c0-0.1,0-0.1,0-0.2c0.1,0,0.2,0,0.3,0
		c0.1,0,0.2,0,0.3,0.1L278.8,115.6z M259.4,37.9c1.7-0.2,3.3-0.6,4.6-1.1c-0.3,0.8-0.7,1.5-0.9,2.3c-0.5,1.2-0.7,2.4-0.7,3.6
		c-0.1-0.3-0.3-0.5-0.4-0.8c-1.1-1.8-2.6-3.1-4.4-3.9C258.2,38,258.8,38,259.4,37.9z M233.6,52.2c-0.7-1.1-1.3-2.1-2-3.1
		c-0.6-1-1.3-1.9-1.9-2.9c-1-1.7-2.3-3.1-3.9-4.1c6.7-0.8,13.3-1.6,19.6-2.4c-1.3,1-2.5,2.2-3.6,4c-1.8,2.8-2.9,5.8-3.3,9.1
		c0,0-0.1,0-0.1,0C236.8,52.5,235.1,52.3,233.6,52.2z M263.5,48.5c0.1-0.6,0.1-1.3,0-1.9c0.3,0.4,0.6,0.8,0.9,1.2
		C264.2,48,263.9,48.2,263.5,48.5z M292.3,78.5l-0.1,0.6c-0.8-0.1-1.6-0.1-2.4-0.1c-0.7,0-1.4,0-2.2,0.1c2-0.7,4.3-1.2,7-1.6
		l1.9-0.3c-0.1,1-0.1,1.8,0,2.6c-1.1-0.2-2.2-0.4-3.4-0.5L292.3,78.5z"/>
	<g>
		<g>
			<g>
				<path class="st58" d="M171.9,44.1c0.8-2.9,2-5.6,1.4-8.8c-0.4-2.4,1.2-3.8,3.1-4.7c1.2-0.7,1.8-1.3,2.1-2.7
					c0.4-2.6,1.8-3.9,4.4-3.9c1.3,0,2-0.5,2.5-1.6c0.9-2.2,2.7-3.1,5.1-2.6c1.2,0.3,2.1,0,2.9-0.8s2-1.3,3-0.9
					c3.5,1.7,7.1,0.3,10.5-0.1c15.2-2,30.4-4.1,45.6-6c1.8-0.3,3.7-0.5,5.5-0.7c3.8-0.4,6.4,1.8,7.7,6.5c0.5,2.1,0.7,4.2,0.4,6.3
					c-0.8,5.1-2.4,6.7-7.6,7.3c-16.1,2.2-32.1,4.3-48.2,5.9c-5.2,0.5-9.8,2.2-14.5,4.2c-1.2,0.5-2,1-2.1,2.5
					c-0.1,1.6-2.4,1.6-2.4,3.3c-0.1,0.4-0.4,0.7-0.4,1c-0.7,2.4-0.7,2.5,1.7,1.8c1.6-0.4,3-0.8,4.6-1.3c5.7-0.8,11.5-2.1,17.2-2.2
					c1.6,0,3.1,0,4.7,0.1c2.1,0.1,3.8,1,5,3c1.6,2.5,3.3,4.8,4.8,7.4c0.7,1,1.4,1.4,2.6,1.4c1.8,0.1,3.7,0.3,5.5,0.7
					c3.4,0.7,5.9,2.6,6.7,6c0.7,2.7,2.7,4.4,4.3,6.5c0.8,1.2,1.3,0,1.7-0.5c1.8-2.2,3.7-4.4,5.6-6.5c10.6-11.4,22.9-20,38.2-23.7
					c6.7-1.6,13.2-1.7,19.6,1c4.7,2.1,8.1,5.5,8.5,11c0.5,5.5-2.6,9.1-7.1,11.9c-6.4,4.1-13.7,4.8-21,6c-7.1,1-13.6,3.3-18.6,8.6
					c-0.3,0.3-0.5,0.5-0.8,0.9c-1,1.4-2.2,3.1-1.4,4.8c0.8,1.6,2.7,1.2,4.2,1.2c3.5-0.3,7.1-0.7,10.7-0.9c6.1-0.4,11.9,0.8,16.6,5.1
					c3.5,3.3,4.8,7.3,3.8,11.8c-1,4.6-4.6,6.9-8.8,8c-5.2,1.3-10.5,0.7-15.7-0.4c-0.7-0.1-1.3-0.3-2.1-0.4c-1-0.5-2.1-0.8-3.3-0.8
					c-0.3,0-0.7-0.1-0.9-0.1c-5-1.4-9.8-2.4-14.6,0.3c3.1,0.5,5.9,1.7,8.1,4.1c0.1,0.3,0.3,0.5,0.4,0.8c1.2,5.4-1.8,7.2-5.2,7.8
					c-1.6,0.3-3.3,0.1-4.8-0.1c-3.3-0.5-6.4-0.7-9.4,1l0,0c-6,2-11.1,9.7-10.5,15.7c0.1,0.7,0.5,0.9,0.9,1.2
					c4.1,2.1,7.7,4.8,11.5,7.3l0,0c0.3,0.3,0.5,0.4,0.8,0.7c0,0,0.1,0,0.1-0.1c0,0-0.1,0-0.1,0.1c0.1,0.1,0.3,0.3,0.5,0.4
					c0,0,0.1,0,0.1-0.1l-0.1,0.1c0.1,0.1,0.3,0.3,0.5,0.5c0,0,0.1,0,0.1-0.1c0,0-0.1,0-0.1,0.1c0.1,0.1,0.3,0.3,0.4,0.5l0,0
					c0.1,0.1,0.3,0.3,0.4,0.4l0,0c0.1,0.1,0.3,0.3,0.4,0.4l0,0c0.9,1.3,1.8,2.6,2.6,4.1c2.7,5,2,10.3-2.1,14.2
					c-0.8,0.8-1.6,1.4-2.5,2.1l0,0c-1.7,2.2-2.5,5-3.1,7.6l0,0c-3.3,8-6.4,15.9-9.7,23.8c-1.2,2.7-2.2,5.2-0.7,8
					c0.3,0.4,0.1,1,0.1,1.6c0.3,3.9-2.1,7.1-3.5,10.5c-3,7.3-6.8,14.4-9.5,21.8l0,0c-1.4,1.8-2.1,4.2-3,6.3
					c-2.7,6.1-5.9,12.2-8.2,18.4l-0.1,0.1v0.1c-0.8,1.3-1.4,2.5-1.8,3.9c-0.1,0.3-0.3,0.7-0.4,0.9c-2.5,5.4-5.1,10.7-7.2,16.2
					c-0.1,0.3-0.3,0.5-0.4,0.8c-0.8,0.8-1.2,1.8-1.4,2.9c-0.1,0.1-0.1,0.3-0.3,0.4c-1.3,1.6-3,2.5-4.8,3.5c-0.7,0.4-1.3,0.5-1.6,1.3
					c-2,5.6-4.8,11-6.7,16.6c-1.3,3-2.9,5.9-3.9,9c-2.2,6.7-7.3,9.7-13.7,11.2c-11.2,2.7-22.6,2.4-34,0.7
					c-14.9-2.1-29-6.4-42.5-13.1c-7.7-3.9-15-8.5-20.8-15c-3.9-4.4-6.4-9.3-4.8-15.6c0.5-2.1,1-4.3,0.9-6.7
					c1.3-4.8,1.4-9.9,2.2-14.9c0.7-3.7,0.9-7.1-1.3-10.5c-1-1.6-0.8-3.8-0.5-5.7c0.1-1.2,0.1-2.4,0.3-3.4c0-0.3,0.1-0.7,0.1-0.9
					c0.1-0.3,0.3-0.5,0.3-0.9c1.7-13.7,3.4-27.3,5.2-41c0-0.3,0.1-0.7,0.1-0.9c0.9-4.8,1.3-9.7,1.8-14.4c0-0.3,0-0.7,0-0.9
					c0.4-2.2,0.7-4.4,1-6.7c1-5.9,1-11.9,2.7-17.6c0.1,0,0.1-0.1,0.1-0.3c0.7-0.7,1.2-1.4,1.4-2.5l0,0c1-1,2.9-1.4,3.1-3.1
					c0.8-6.3,1.4-12.5,2.2-18.8c0-0.3,0-0.7,0.1-0.9c0.9-3.7,0.9-3.7-2.6-3.7c-2.1,0-4.3-0.1-6.4-0.3c-1.3,0-2.6-0.5-3.4-1.6
					c0-0.3-0.1-0.7-0.1-0.9c0-3.8,0.1-7.6,0.1-11.4c0-1-0.1-2.2-0.7-3.1c-1.7-3.1-1.6-6.1,0.3-9.3l0,0c1.4-1.6,2.9-3.3,4.3-4.8v-0.1
					c0.1-0.1,0.3-0.3,0.4-0.4h0.1c0.8-0.4,0.5-1.2,0.5-1.8c-0.1-3-0.3-6-0.5-9c-0.1-2.1,0.4-3.8,2-5.2c4.2-3.9,9.1-6.4,14.1-8.9
					c3.7-2,7.4-3.7,11.2-5.5l0,0c3-0.8,5.7-2.2,8.6-3.4c15.4-6,31-11.8,46.8-16.3c0.9-0.3,1.8-0.5,1.7-1.7l0,0l0.1-0.1v-0.1
					c0.1-0.5,0.3-1,0.4-1.4C170.3,50,171.1,47,171.9,44.1z M188.8,26.3c0.4,3.9,3.1,6.5,5.4,9.1c0.7,0.8,2.1,0.3,2.7-0.5
					c0.7-0.8-0.5-1-0.8-1.7c-0.5-0.8-1-1.7-1.7-2.5c-0.7-1.3-1-2.7-0.8-4.2c0.5-3.1-2.1-2-3.3-2.4C188.8,23.8,188.9,25.4,188.8,26.3
					z M164.3,121.8c-4.4,0.3-5.5,0.9-5.5,3.9c-1.3,2.2-1.2,4.8-2,7.2c-0.4,0.3-0.4,0.5-0.3,0.9c-0.3,1-0.5,2.2-0.7,3.3
					c-0.5,0.7-0.3,0.9,0.4,0.9c2.2,0.4,4.4,0.4,6.7,0.3c3.4-0.1,3.4-0.1,4.1-3.5c0.5-2.6,1.6-5.2,1.6-7.8c0.8-2.4,1.4-4.6,1.4-7.1
					c-2,0.1-3.7,1.2-5.5,1.7C164.6,121.6,164.5,121.8,164.3,121.8z M183.5,39.8c1.2,1.3,2.9,1.4,4.3,2.2c0.7,0.4,1.4,0,1.6-0.9
					c0.1-0.7,0.4-1.4-0.5-1.8c-1.6-0.5-2.6-1.8-4.1-2.7c-0.9-1.4-1.7-2.7-2.6-4.2c-0.9,0.5-1.7,1.2-2.6,1.4c-1.6,0.7-2,1.6-1.2,3
					c-0.7,1.4-1.3,3-1,4.7c-0.3,0.9-0.4,1.8-0.7,2.7c-0.9,3.9-2.4,7.6-2.6,11.6c-1.7,3.9-2.5,8.1-3.7,12.2c-0.3,1.2,0.1,2,1.7,1.3
					c2.7-1,5.5-2.1,8.2-3.1c0.9-0.4,1.4-0.9,1.3-1.8c0.8-3.7,2-7.3,2.4-11.1c0.9-3,1.7-6,2.6-9c0.4-1.2-0.1-1.4-1.2-1.6
					c-2.6-0.3-4.7-1.7-6.4-3.7c0-0.5,0-1.2,0.1-1.7C180.8,38.2,182.1,39,183.5,39.8z M190.5,34.8c-0.9-1-1.8-2.1-2.1-3.5
					c-0.4-2.1-1.4-3.1-3.8-2.6c-0.7,0.1-1.6-0.5-2,0.5c-0.3,0.8,0,1.7,0.7,2.4c1.8,1.7,3.5,3.4,5.4,5.1c0.3,0.3,0.4,0.7,0.7,0.9
					c1,1.4,1.8,0.7,2.7-0.1c1.4-1.3-0.5-1.3-0.8-1.8C191.3,35.2,190.9,34.9,190.5,34.8z M252.9,16.6c-1,0.1-2.1,0.3-3.1,0.4
					c-2.7,0.5-5.5,0.4-8.2,1.3c-5.1,0.1-10.2,1-15.3,2c-4.1,0.5-8.1,0.8-12,1.7c-4.4,0-8.8,1-13.2,1.7c-1.6,0-3.3,0.5-4.7-0.7
					c-0.7-0.5-1.2,0.1-1.6,0.5c-0.3,0.4-0.9,0.7-0.5,1.3c1.4,2.7,1.7,5.9,3.5,8.5c0.1,0.7,0.5,1,1.2,0.8c2.9-1.3,6-0.9,9-1.7
					c3.7-0.1,7.4-0.3,11.1-1.3c5.1-0.4,10.2-0.8,15.2-1.8c4.1,0.1,8-0.8,11.9-1.4c3.5,0.1,6.8-1,10.3-1.3c1.3-0.1,0.9-0.9,0.7-1.6
					c-0.9-1.8-0.8-3.8-0.7-5.6c0.3-3.4,0.3-3.4-3.3-2.6C253.2,16.5,253.1,16.5,252.9,16.6z M103.4,111.5c8.1-1.3,16.2-2.9,24.3-4.8
					c1.2-0.3,2.6,0.3,3.4-1c1,0,2-0.1,3-0.4c6.3-1.7,12.7-3.3,18.9-5.2c14.2-4.3,28.5-8.9,42.1-15c8.9-3.5,17.5-7.7,26-12.3
					c2.5-1.3,4.7-3,6.9-4.6c1.3-0.9,2.1-1.8,0.7-3.5c-2.2-2.7-4.2-5.6-6.3-8.6c-1.4-2.1-2-2.2-4.1-0.5c-3.1,2.6-6.8,4.6-10.5,6.3
					c-6,2.7-11.9,5.5-17.9,8.2c-0.9,0.4-2,0.7-2.9,1c-10.6,4.2-21.4,8.1-32.3,11.5c-9.1,2.9-18.6,5.4-27.8,8
					c-8.8,1.8-17.2,4.3-26,5.7c-3.3,0.5-6.5,1-9.9,0.9c-1,0-1.6,0-1.4,1.6c0.4,3.9,0.5,7.8,0.5,11.8c0,1.6,0.4,2.1,2.1,2.2
					C96.1,112.6,99.8,111.9,103.4,111.5z M91.8,168.9c-1.6,0.4-1.8,1.6-2.1,2.9c-2,15-3.9,29.9-5.7,45c-1.7,12.9-3.3,26-5,38.9
					c-0.3,2.5,0.4,4.4,2.5,5.9c2.5,3.1,5.4,5.7,8.6,8.1c14.8,11.2,31.5,18.2,49.4,22.5c9.9,2.4,19.9,4.2,30.1,3.9
					c9.3,0.5,18.2-0.9,27.2-3.1c2.5-0.7,4.3-2,5.4-4.6c3-7.1,6.1-13.9,9.3-20.8c8.1-18,16.2-36.1,24.3-54c0.5-1,0.8-2.1,0.1-3.5
					c-0.8,0.8-1.3,1.6-2.2,1.8c-4.6,1.4-9,2.6-13.7,3.1c-5.4,0.5-10.8,0.3-16.2,0.3c-1.6-0.1-3.1-0.4-4.7-0.3
					c-1.4-0.1-2.7-0.3-4.2-0.5c-0.4-0.3-0.9-0.3-1.4-0.1c-0.9-0.1-1.8-0.4-2.7-0.5c-13.7-1.7-27.1-5-40.2-9.3
					c-11.6-3.8-22.7-8.5-33.5-14.5c-8.8-4.8-17.1-10.3-23.9-17.8C91.9,171.2,91.4,170.2,91.8,168.9l0.1-0.1v-0.1
					C91.8,168.6,91.8,168.7,91.8,168.9z M235.6,72.8c-0.5,2-2.4,2.7-3.7,3.7c-8.2,5.7-17.4,9.9-26.5,14.1c-2.4,1-5,1.7-7.1,3.5
					c-0.7,0.1-1.3,0.1-1.8,0.3c-6.1,2.6-12.3,5-18.6,7.2c-9.7,3.4-19.5,6.7-29.4,9.3c-14.5,3.8-29.3,7.2-44.2,9.3
					c-6.1,0.9-12.2,2-18.4,1.6c-1.3-0.1-1.2,0.7-1.2,1.4c0,2.9,0.1,5.7,0,8.6c0,1.6,0.5,2.1,2.1,2c2.4-0.1,4.6-0.4,6.9-0.4
					c4.8,0.1,9.5-0.7,14.4-1.2c8.4-1,16.6-3,24.8-4.8c12.5-2.7,25-6.1,37.1-10.3c11.4-3.8,22.6-8,33.7-12.7c3.1-1.4,6.3-3,9.4-4.4
					c11.9-5.5,23.4-11.5,33.6-20c1.3-1,1.2-1.7,0.3-2.7c-1.6-1.8-3.4-3.5-4.7-5.5c-1-1.7-2.1-2-3.7-1c-0.3-0.9,0.3-1.7,0.4-2.5
					c0.3-1.7,0.7-3.5-1.3-4.4c-2.1-1-4.4-1.2-7.1-1.2c2.6,4.2,2.5,4.1-1.6,7.4c-2.7,2.4-5.9,3.9-9,5.6c-16.6,9-34,16.1-51.7,22
					c-20.8,6.9-41.9,12.2-63.5,15.8c-4.4,0.8-8.9,1.4-13.5,1.2c-1.3-0.1-2.7,0-3.1-1.8c-0.1-0.7,0.4-1.6-0.5-1.8
					c-0.8-0.1-1.3,0.7-1.8,1.2c-0.8,1-1.8,2-2.4,3.1c-1.2,2.2-0.1,4.2,2.4,4.3c1.8,0.1,3.8,0.1,5.6,0c14.8-1.3,29.3-4.2,43.6-7.6
					c17.2-4.1,34.2-9.3,50.8-15.6c12.9-5,25.5-10.6,37.6-17.2C227.5,77.1,231.2,74.5,235.6,72.8z M163,159.3
					c0.3,0.4,0.5,0.4,0.9,0.3c0.3,0.1,0.7,0.1,0.9,0.3c0.4,0.5,0.9,0.4,1.4,0.5c8.8,2.1,17.8,3.9,26.7,5.4
					c14.8,2.4,29.5,3.9,44.4,3.4c4.6-0.1,9.1-0.5,13.5-2.2c3.9-1.6,5.9-4.6,5.5-8.5c-0.4-2.1-1-3.9-2.5-5.5c-2.4-2.6-5-4.8-8.1-6.5
					c-0.9-1-2.2-1.6-3.5-2.2c-0.4-0.3-1-1.2-1.6-0.3c-0.3,0.7,0,1.3,0.8,1.7c1,0.5,2.2,1.2,3.3,1.7c2.7,2.2,5.9,3.9,7.3,7.3
					c-0.1,0.4,0,0.7,0.1,0.9c-0.1,2.2-1.3,3.7-3.4,4.3c-1.4,0.5-2.7,1-4.2,1.3c-7.4,1.3-14.9,1.2-22.5,0.5
					c-20.4-1.6-40.4-5.1-60.1-10.3c-15.8-4.2-31.4-8.8-46-16.1c-2.5-1.2-4.7-1.6-7.3-1c-2.4,0.5-4.7,0.7-7.2,1
					c2.2,2,4.6,3.4,6.9,4.7c8.2,4.4,17,8,25.9,11c8.8,3,17.5,5.9,26.5,7.8c0.3,0.4,0.5,0.4,0.9,0.3
					C162.4,159.3,162.8,159.3,163,159.3z M148,296.7c-11.9-2.4-23.7-5.6-34.8-10.6c-10.5-4.7-20.4-10.2-28.9-17.9
					c-0.8-0.7-1.6-1.3-2.5-2.2c-0.1,0.5-0.3,0.7-0.3,0.9c-1.3,9-2.4,18.2-3.9,27.2c-0.7,3.5,0.7,6.1,2.5,8.8c2,2.6,4.3,4.8,6.9,6.9
					c7.6,6,15.9,10.3,25,13.7c7.7,3,15.7,5.2,23.9,6.5c0.3,0.3,0.7,0.4,0.9,0.3c0.7,0.1,1.2,0.1,1.8,0.3c0.3,0.4,0.7,0.4,1,0.3
					c0.9,0.1,1.8,0.1,2.7,0.3c0.3,0.4,0.7,0.4,1,0.1c0.7,0,1.2,0.1,1.8,0.1c2.7,0.7,5.6,0.8,8.5,0.8c8.2,0.1,16.5,0,24.2-3.4
					c2-0.9,3.8-2.1,4.7-4.2c3.8-8.9,7.4-17.8,11.2-26.8c0.1-0.4,0.5-0.8-0.1-1.3c-4.2,1-8.4,1.6-12.7,2.1c-5,0.5-9.9,0.1-14.9,0.4
					c-0.3,0-0.7,0-0.9,0c-0.7-0.4-1.3-0.4-2-0.1c-1.6-0.4-3-0.4-4.6-0.3c-0.3-0.3-0.7-0.3-1-0.1c-2.9-0.4-5.9-0.8-8.8-1.3
					C148.8,296.4,148.4,296.4,148,296.7z M220.8,159.1c0.7,0.7,1.6,0.4,2.5,0.4c4.4,0,8.9,0,13.2,0c3,0,4.2-1.4,2.9-4.3
					c-2.5-5.5-3.3-11.2-3.3-17.1c0.1-12.2,8.5-20.9,20.1-22.1c2.7,0.3,5.4,0.5,8.1,0.7c0.9,0,2.2,0.4,2.5-1c0.3-1.3-0.9-1.8-2-2.2
					c-0.9-0.4-1.7-0.5-2.7-0.5c-0.9,0-1.8,0-2.7,0c-1.8,0-3.1-1-3.8-2.6c-0.7-1.6,0.3-2.9,1.4-4.1c1.7-1.7,3.7-2.5,5.9-3.1
					c6.4-1.8,12.7-0.3,18.9,1.2c4.7,1.2,9.4,1.8,14.2,1.6c2.9-0.1,5.7-0.9,7.2-3.9c1.4-3,0.4-5.5-1.4-8c-1-1.4-2.7-2-4.1-3
					c-3.1-1.4-6.5-1.7-9.9-2c-4.3-0.3-8.4,1.3-12.7,0.9c-5.9-0.4-9-5.5-6.3-10.6c3.5-6.5,9.3-10.1,16.2-12c0.8-0.3,1.6-0.4,2.4-1
					c3.1,0,6.1-1,9.1-1.6c5.5-0.9,11-2,15.9-4.8c4.6-2.6,6.3-7.3,2.1-11.8c-3.1-3.3-7.3-3.8-11.4-3.8c-7.8-0.1-15.3,2.2-22.2,5.7
					c-11.4,5.7-20.5,14.1-28.2,24c-0.8,0.9-0.7,1.7,0.4,2.2c1.4,2,1,3.5-0.7,5.1c-1.8,1.6-3.5,3.1-5.4,4.7c-5.6,4.4-12,7.8-18,11.6
					c-1.3,0.5-2.4,1.4-3.5,2.2c-2.2,1.6-3.9,4.2-6.9,4.3c-1.6,0-3,0.5-4.4,1.2c-1.4,0.7-3,1.3-4.6,1.7c-7.7,2.2-13.3,6.7-15.8,14.5
					c-3,9.3-9.1,15.6-18.6,18.3c-9.7,2.9-19.1,1.3-28.4-2c-1.2-0.4-1.8-1.2-1.8-2.5c1.2,0,2.5-0.1,3.7,0.3c6.1,2.1,4.8,1.6,6.1-3.7
					c0.4-1.7-0.1-2.5-1.7-2.5c-6.1-0.1-12.2-2-18.4-0.3c-5,1.4-10.2,2.2-15.4,3.3c-0.4,0.1-1,0-1,0.7c0,0.5,0.5,0.7,0.9,0.8
					c3.5,1.4,6.9,3,10.5,4.4c5.4,2.1,11,3.5,16.5,5.5c7.4,2.6,15.2,4.3,22.7,6.4c9.8,2.6,19.9,4.2,29.9,5.9c5.6,0.9,11.2,1.7,17,2
					C217.3,158.9,219,159.2,220.8,159.1z M96.4,153.8c-0.3,0.3-0.4,0.7-0.1,0.9c-0.5,3.7-0.8,7.3-1.6,10.8c-0.9,3.8,0.5,6.1,3.3,8.6
					c10.8,9.3,23.1,15.8,36.1,21.4c13.2,5.7,27.1,10.1,41.2,12.9c9.3,2,18.8,3.1,28.2,3.8c4.1,0.5,8.2,0.3,12.3,0.1
					c5-0.3,10.1-0.9,14.9-2.4c1.2-0.4,2.1-0.9,2.7-2.2c4.7-11.4,9.8-22.6,14.1-34.2c0.4-1,0.9-2.2,1.4-3.5c-3.1,0.4-5.7,0.9-8.5,1.2
					c-15.9,1-31.8-0.7-47.4-3.1c-16.9-2.7-33.5-6.4-49.8-11.8c-15.2-5-30.3-10.1-43.6-19.3c-1.2-0.8-1.4-0.4-1.4,0.8
					c0,0.5,0,1-0.1,1.6c-0.3,0.9-0.4,1.8-0.3,2.7c-0.3,0.4-0.4,0.9-0.1,1.4C97.3,147.1,96.8,150.5,96.4,153.8z M92.9,94.8
					c3.5,0,6.8-0.7,10.1-1.2c20.1-3.8,39.6-9.5,58.9-15.8c12.8-4.2,25.2-9,37.5-14.5c6.4-2.9,12.7-5.9,18.3-10.1
					c0.7-0.4,1.6-0.9,1.3-1.7c-0.3-0.9-1.4-0.8-2.2-0.8c-3.3-0.1-6.5,0.5-9.7,0.8c-6.7,0.7-13.1,2.7-19.6,3.9
					c-0.8,0.1-1.6,0.5-1.3,1.6c0.3,0.9,1,0.3,1.6,0.1c3.7-0.8,7.4-1.7,11.1-2.5c2.5-0.5,5-0.9,7.6-0.8c0.8,0,1.4,0.3,1.7,1
					c0.3,0.8-0.1,1.4-0.7,1.8c-0.9,0.7-2,1.3-2.9,1.8c-5.7,3.1-11.8,5.5-17.9,7.8c-17.2,6.7-35,12-52.8,17.1
					c-9.4,2.7-18.8,5.5-28.6,7.3c-1.3,0.3-2.9,0.5-3.4-1c-0.4-1.4,1.2-2,2.2-2.6c3.5-2.1,7.3-3.8,11.2-5.4
					c16.9-7.1,34.1-13.1,51.6-18.6c0.9-0.3,2.9-0.3,2.4-1.8c-0.5-1.3-2-0.1-2.9,0.1c-18.9,6.1-37.8,12.4-55.9,20.8
					c-6.3,2.9-12.8,5.5-18.4,9.8c-0.9,0.7-2.7,1.3-2.4,2.5C90.2,95.4,91.9,94.7,92.9,94.8z M108.4,87.2c0.1,0.3,0.1,0.4,0.3,0.7
					c4.2-1.2,8.5-2.1,12.7-3.3c14.1-4.1,28.2-7.8,42.2-12.3c3.1-1,4.3-2.5,4.8-5.5c0.3-2-0.3-2-1.8-1.4c-2.7,0.9-5.4,1.8-8.1,2.7
					c-12.8,4.3-25.5,8.6-37.9,13.9C116.5,83.7,112.5,85.5,108.4,87.2z M171.1,128.6c-0.3,0.9,0.3,1.2,1.2,1.3
					c2.4,0.4,4.7,0.5,6.8,1.4c2.9,1.2,4.4-0.1,6.1-2c1-1.2,1.3-1.8-0.7-2.2c-3.1-0.5-6.1-1.3-9.3-2c-3.4-0.7-3.4-0.5-4.1,2.7
					C171.3,128.2,171.1,128.4,171.1,128.6z M204.1,56.6c-1.2-0.7-2-0.5-2.6-0.4c-4.7,1.3-9.4,2.1-14.2,3.1c-1.4,0.3-3.1,3.4-2.7,5
					c0.1,0.7,0.5,0.7,1,0.4C191.6,62.4,197.7,59.6,204.1,56.6z M241.6,148.2c0.9,3.5,1,6.8,4.3,8.9c1.3,0.9,2.1,1.3,3.4,0.3
					c1.4-1.3,0.7-2.4-0.3-3.4C247.1,151.6,244.7,149.9,241.6,148.2z M192.4,114c-1.7,0.3-9.9,3.5-10.8,4.4c2.7,0.7,5.5,2,8.1,1.6
					c1.6-0.3,1.7-3.7,2.7-5.5C192.6,114.3,192.4,114.1,192.4,114z M186.7,125.4c0.7,0.1,1.3,0.1,1.4-0.7c0.1-0.8-0.5-0.8-1-0.9
					c-4.4-0.9-8.9-1.8-13.3-2.7c-0.7-0.1-1,0-1.3,0.7c-0.3,0.8,0.4,0.9,0.9,1C177.8,123.7,182.2,124.6,186.7,125.4z M169.6,135.6
					c0,0.9,0,1.7,1.2,1.4c2.4-0.5,4.7-1.2,6.8-2.2c0.8-0.4,0.8-0.9-0.1-1.2c-1.4-0.4-2.7-0.9-4.2-1.2
					C170.2,131.9,169.6,132.5,169.6,135.6z M156.4,124.1c-3.1,0.9-5.9,1.6-8.6,2.4c1.6,0.5,3.1,0.8,4.8,0.9
					C155.7,127.7,155.7,127.7,156.4,124.1z M259.5,16.6c-1.2,2.5-1.2,5.9,0,7.7c0.3,0.4,0.4,0.9,0.9,0.8c0.3,0,0.4-0.4,0.5-0.7
					C262.1,22.4,261.3,18.3,259.5,16.6z"/>
				<path class="st58" d="M298.2,25.9c-0.1,1.8-1,3.4-2.7,4.4c-1.8,1.2-3.9,2-6,2.5c-7.1,1.8-13.3,4.8-18.4,10.1
					c-0.5,0.5-0.9,0.9-1.6,0.5c-0.8-0.5-0.5-1.3-0.3-1.8c1.3-3.8,3.1-7.2,5.7-10.3c3.5-4.2,7.6-7.8,12.8-9.8c2.5-0.9,5-1.3,7.4-0.3
					C296.8,22.1,298.2,23.4,298.2,25.9z M274.8,36.1c1.7-0.4,3-1.6,4.2-2.7c3-1,6.1-2.1,9.1-3c1.7-0.5,3.5-0.8,5-1.8
					c1-0.8,2.4-1.7,2.1-3.3c-0.3-1.4-1.7-1.3-2.7-1.6c-0.7,0-1.3-0.1-1.8,0C283.5,25.5,278.7,30.2,274.8,36.1
					c-0.1,0-0.3,0.1-0.3,0.1C274.6,36.2,274.8,36.2,274.8,36.1z"/>
				<path class="st58" d="M317.5,85.4c-1.7,0-3-0.8-4.3-1.6c-2.9-2-5.6-4.1-9.3-4.6c-1.3-0.1-1-1.2-0.7-2c0.3-0.5,0.8-0.9,1.3-1.2
					c4.1-2.2,8.4-2.7,12.8-1c2.4,0.9,4.1,2.5,4.6,5.1C322.5,83,320.4,85.4,317.5,85.4z M314.7,77c-2.4-0.8-4.6-0.5-7.4,0.7
					c3.4,0.9,5.5,2.7,8,4.1c1.3,0.8,2.9,1.7,3.9-0.1c0.9-1.6-0.4-2.7-1.4-3.7C316.8,77.3,315.8,76.9,314.7,77z"/>
				<path class="st58" d="M244.8,56.6c0-3.7,0.9-6.7,2.6-9.4c1-1.7,2.5-3,4.6-3.4c1.8-0.3,3.4,0,4.4,1.7c1,1.6,0.7,3.3-0.5,4.6
					c-1.3,1.6-2.7,2.9-4.3,4.3c-1.7,1.7-3.5,3.3-4.4,5.6c-0.1,0.4-0.4,0.9-0.9,0.9c-0.7,0-0.9-0.4-1.2-0.9
					C244.7,58.6,244.8,57.4,244.8,56.6z M247.8,54.8c1.8-1.8,3.5-3.8,5.4-5.6c0.8-0.8,1.8-1.7,0.8-2.7c-0.9-0.9-2,0-2.9,0.7
					C248.6,48.8,247.7,51.4,247.8,54.8z"/>
				<path class="st58" d="M64.8,301.9c0.1-0.7,0.4-1.8,0.7-2.9c0.1-0.4,0.4-0.7,0.8-0.7c0.5,0,0.7,0.4,0.7,0.8
					c0.1,0.7,0.1,1.4,0.1,2.1c0.1,4.8,2,8.9,5.9,11.9c0.9,0.7,2.7,1.6,1.8,2.7c-1,1.4-2.5,0-3.5-0.8C67,311.8,65,307.5,64.8,301.9z"
					/>
				<path class="st59" d="M60.2,307c0.8-0.1,0.9,0.5,1,1c0.7,2,1.8,3.7,3.4,5.1c0.5,0.5,1,1.2,0.5,1.8c-0.7,0.8-1.4,0.4-2.1,0
					c-2.4-1.6-3.4-3.9-3.7-6.7C59.5,307.8,59.5,307.1,60.2,307z"/>
				<path class="st60" d="M169.6,296c-10.2,0.3-20.3-1.6-30.1-3.9c-17.9-4.3-34.6-11.2-49.4-22.5c-3.1-2.4-6.1-5-8.6-8.1
					c0.3-2.1,1.8-3.5,2.1-5.7c0.3-2.6-0.1-5.4,0.8-8c1.3-0.4,1-1.7,1.3-2.7c1.4-9.4,2.7-18.9,4.3-28.4c2.1-12.3,3.4-24.6,4.2-37
					c0.4,0.3,0.9,0.4,1.2,0.7c3.3,2.7,6.7,5.6,10.6,7.4c3.8,2,6.5,5.4,10.7,6.5c3.5,1,6.8,2.9,10.2,4.4c1.7,0.8,3.5,1.3,3.9,3.9
					c0.7-2.4,1.8-1.4,3.1-1.2c4.1,0.9,7.7,3,11.8,4.1c6.8,1.8,13.6,3.8,20.4,5.2c6.5,1.3,13.1,2.9,19.7,3.3c2.5,0.1,5,1.2,7.4,0
					c0.5-0.1,0.9-0.1,1.4,0.1c1.2,1.6,2.7,0.8,4.2,0.5c1.6-0.1,3.1,0.1,4.7,0.3c-0.5,2.4-2.1,4.3-2.9,6.7c-1.3,3.1-2.5,6.1-3.8,9.3
					c-3.4,8.5-6.8,17-10.2,25.6c-3.7,9.1-7.2,18.4-10.7,27.6c-0.5,0-1,0.3-1.3,0.8C173.2,288.8,170.7,292.1,169.6,296z M117.4,205.6
					c-4.1,19.6-7.3,39.2-10.1,59.1c1.7-7.1,3.1-14.1,4.4-21.3c1.4-7.8,3.1-15.6,4.1-23.4c0.5-4.8,2.2-9.4,2.1-14.4
					c1.3-2,0.9-4.1,0.9-6.3C117.9,201.4,117.2,203.4,117.4,205.6z M138.3,270.8c-0.9,3.4-1.8,6.9-2.7,10.3c0.3,0,0.4,0.1,0.7,0.1
					c1-3.5,2.1-7.1,3-10.5c1.3-4.4,2.6-8.9,3.9-13.3c4.3-14.1,8.2-28.4,11.8-42.7c0.1-0.5,0.5-1.2-0.5-1.6
					C148.4,232.3,143.6,251.6,138.3,270.8z M141.6,213.4c-0.5,0.8-0.7,1.7-0.9,2.6c-3,12.5-6.3,25.1-9.1,37.6
					c-1.4,6.1-3.1,12.2-3.9,18.4c-1.6,2.5-1.6,5.2-2,8c1.3-2.5,2-5.2,2.6-8c0-0.4,0.1-0.8,0.1-1.2c2.6-10.8,6.1-21.3,8.6-32.1
					c2-8.4,4.2-16.7,5.4-25.4c0.8-1.4,1.2-2.9,0.1-4.4C142,210.6,141.7,212,141.6,213.4z M130,209.8c-0.4,1.7-0.9,3.4-1.3,5.1
					c-4.3,18.8-8.6,37.6-13.1,56.3c-0.3,1.3-0.7,2.7-0.9,4.1c-0.1,0.5-0.3,1.2,0.4,1.4c0.8,0.3,0.8-0.5,1-0.9
					c0.3-0.5,0.4-1.2,0.7-1.7c2.1-8.9,4.4-17.6,6.1-26.7c2-9.4,5-18.7,6-28.2c0.4-3.1,1-6.1,1.7-9.3c1.2-1.8,0.9-3.7,0.4-5.6
					C130.4,206,129.8,207.8,130,209.8z M167.9,215.8c-0.1,0.3-0.4,0.4-0.4,0.7c-3.4,11.4-7.4,22.6-10.7,34.1
					c-3.1,11.2-6.7,22.3-9.8,33.6c-0.4,1.2-1.7,3.1-0.1,3.7c1.2,0.4,1.4-1.8,1.7-3c4.2-13.9,8.5-27.8,12.5-41.8
					c2.5-8.4,4.6-16.7,6.8-25.1C168,217.1,168.4,216.4,167.9,215.8z M88.7,263.9c2.5-2.9,12.4-67.8,11.5-74.2
					C96.1,214.2,92.1,238.7,88.7,263.9z M190.3,219.7c-7.8,22.3-15.7,44-22.6,66.1C171,281.5,191.1,223.2,190.3,219.7z M159,282.2
					c0.8-0.1,1-0.7,1.2-1c0.8-2.1,1.4-4.2,2.1-6.4c5.9-17,11.1-34.2,16.5-51.5c0.4-1.2,1.2-2.6,0.1-4.7
					C171.7,240.1,165,261,159,282.2z M98.6,256.7c0.1,0,0.3,0,0.4,0.1c0.1-0.3,0.4-0.7,0.4-0.9c1.7-8.1,3.5-16.3,4.8-24.6
					c1.4-8.5,3.1-16.9,4.1-25.4c0.4-3.9,1-7.8,1.6-11.6c0.1-0.5,0.1-1.4-0.7-1.4c-0.7,0-0.5,0.8-0.7,1.3c-0.3,2.2-0.4,4.4-0.8,6.7
					c-1,6.3-2.4,12.5-3.4,18.8c-1.4,8.5-2.6,16.9-3.9,25.4C99.8,249,99.3,252.9,98.6,256.7z M101.1,187.2c-0.1-0.1-0.1-0.3-0.3-0.4
					c-0.1,0.1-0.4,0.3-0.5,0.4c-0.1,0.3,0,0.5,0.3,0.4C100.8,187.6,101,187.4,101.1,187.2z"/>
				<path class="st61" d="M97.8,142.2c-0.1-0.9,0-1.8,0.3-2.7c0.9-0.1,1.6,0.3,2.4,0.7c2.7,1.7,5.4,3.3,8.2,4.8
					c7.6,4.1,15.7,7.3,23.7,10.6c12.2,4.8,24.7,8.5,37.4,11.6c9.9,2.5,20.1,4.4,30.4,5.7c3.5,0.5,7.2,0.9,10.7,1.4
					c3.3,0.4,4.4,2,3.5,5.1c-1.8,6.7-4.1,13.1-6.3,19.6c-1.6,4.4-3.4,8.8-4.6,13.3c-9.5-0.7-18.9-1.8-28.2-3.8
					c-14.1-3-27.8-7.3-41.2-12.9c-12.9-5.6-25.2-12.2-36.1-21.4c-2.7-2.4-4.2-4.8-3.3-8.6c0.8-3.5,1-7.2,1.6-10.8
					c0.7-0.3,0.8-0.5,0.1-0.9c0.4-3.4,0.8-6.8,1.3-10.2C98.5,143.3,98.5,142.9,97.8,142.2z"/>
				<path class="st62" d="M228.6,98c6-3.8,12.4-7.2,18-11.6c1.8-1.4,3.7-3.1,5.4-4.7c1.7-1.4,2.1-3.1,0.8-5.1
					c2.9-3.1,5.6-6.4,8.8-9.3c3.5-3.3,7.6-6.1,11.8-8.6c6.9-3.9,14.1-6.7,22.2-6.4c3.4,0.1,6.8,0,10.2,0c0.8,0,1.7,0.1,2.4-0.5
					c0.4-0.4,0.9-1,1.6-0.7c0.7,0.5,0.4,1.3,0.3,2c-0.3,0.8-0.5,1.4-0.9,2.1c-3,4.7-8.1,5.5-12.9,6.9c-3.1,0.9-6.8,1.2-8.9,4.3
					c-0.7,0.5-1.4,0.8-2.4,1c-6.9,2-12.8,5.5-16.2,12c-2.7,5.2,0.4,10.2,6.3,10.6c4.3,0.3,8.4-1.2,12.7-0.9c3.4,0.1,6.8,0.5,9.9,2
					c-0.3,1.2,0.7,2,1.2,3c1.7,3.7,0.9,5.5-2.7,6.9c-4.2,1.7-8,0.4-12-0.7c-3.9-1-7.4-2.9-11.8-2.4c-6.7,0.7-12.3,3.3-16.9,8.1
					c-2.5,2.7-2.5,5-0.4,8c0.4,0.7,0.8,1.3,1.2,2c-11.6,1.2-20,9.9-20.1,22.1c0,6,0.7,11.6,3.3,17.1c1.3,2.9,0.3,4.3-2.9,4.3
					c-4.4,0-8.9,0-13.2,0c-0.8,0-1.7,0.3-2.5-0.4c0.1-1.2,1-1.2,1.8-1.6c3-1.7,5.5-3.9,6.9-7.1c2.5-5.5,3.3-11.4,3.9-17.2
					c0.4-3.7,0.5-7.2,1.2-10.8c1.4-7.3,5.7-12.8,11-17.9c2.9-2.9,5.9-5.5,8.9-8.1c1.3-1.2,2-2.7,1.4-4.3c-0.5-1.7-2.4-1.6-3.8-1.4
					c-1,0-2,0-3,0.3c-3.4,0.8-6.4,2.5-9.4,4.3c-5.9,3.4-10.8,7.8-15.4,12.8c-5,5.4-9.9,10.8-17.1,13.6c-0.7,0.3-1.6,0.5-2,1.4
					c1,0.5,2,0.3,2.9,0c4.4-1,8-3.5,11.1-6.7c3.7-3.8,7.2-7.7,11-11.4c2.4-2.2,5.2-3.9,8.6-4.1c2.4-0.1,3.7,2.1,2.5,4.1
					c-0.8,1.3-1.6,2.6-2.5,3.9c-3.5,4.3-6.7,8.9-7.1,14.5c-0.3,5.4-0.7,10.7-1.6,16.1c-0.8,4.8-2.2,9.1-5.6,12.9
					c-2.5,2.9-5.9,4.2-8.9,6.1c-5.7-0.4-11.4-1-17-2c-10.1-1.7-20.1-3.3-29.9-5.9c-7.6-2.1-15.3-3.8-22.7-6.4
					c-5.5-2-11.1-3.4-16.5-5.5c-3.5-1.4-6.9-3-10.5-4.4c-0.4-0.1-1-0.3-0.9-0.8c0-0.7,0.7-0.5,1-0.7c5.1-1,10.3-1.8,15.4-3.3
					c6.3-1.7,12.3,0,18.4,0.3c1.6,0,2.2,0.8,1.7,2.5c-1.3,5.2-0.1,5.7-6.1,3.7c-1.2-0.4-2.5-0.3-3.7-0.3c-3.3-0.7-6.4-2.2-10.5-0.9
					c3.1,1.4,5.9,2.4,8.4,3.9c10.2,6.1,21.3,7.3,32.5,4.7c11.5-2.7,18.9-10.6,24.6-20.6c1.6-2.9,3.5-5.6,6.3-7.7
					c2.6-2,5.5-3.4,7.8-5.7c1-1,2.5-1.3,3.8-1.6C223.7,107.1,226.9,103.4,228.6,98z M188.3,149.3c5.4,0,10.2-1.7,14.8-4.3
					c2.9-1.6,5.5-3.5,8.1-5.4c0.5-0.4,1-0.8,1.7-0.3c0.7,0.5,0.7,1.2,0.4,1.8c-0.3,0.5-0.5,0.9-0.8,1.4c-1.6,3.3-4.7,5.1-6.9,7.7
					c-0.4,0.5-1.2,0.9-0.7,1.7c0.7,0.9,1.3,0.4,2.1,0.1c2.2-0.9,3.8-2.6,5.1-4.4c2.7-3.7,4.8-7.6,5.1-12.2c0.1-2.6-1.7-3.5-3.9-2.2
					c-2,1-3.3,2.7-4.8,4.3c-5.6,5.4-11.9,9.1-20,9.7c-1,0-3-0.1-2.9,1.3C185.4,149.5,187.2,149.1,188.3,149.3z M298,94.8
					c-0.4-1-1.2-2-2.4-2.2c-1.3-0.4-2.7-1.3-4.2,0.1c-0.5,0.7-0.7,1.3,0,1.8c1.2,0.9,2.4,1.8,3.7,2.5C296.1,97.4,298,96.1,298,94.8z
					"/>
				<path class="st61" d="M158.8,298.2c1.6,0,3.1,0,4.6,0.3c0.5,0.9,1.2,0.9,2,0.1c0.3,0,0.7,0,0.9,0c-0.1,0.8,0,1.6-0.3,2.2
					c-3.4,7.7-6,15.7-9.1,23.5c-0.9,2.2-2.4,3.8-4.6,4.4c-1.4,0.4-2.9,0.7-4.3,1c-1,0.3-2.2,0-2.7,1.3c-0.7,0-1.2-0.1-1.8-0.1
					c-0.3-0.7-0.5-0.8-1-0.1c-0.9-0.1-1.8-0.1-2.7-0.3c-0.1-0.7-0.5-0.9-1-0.3c-0.7-0.1-1.2-0.1-1.8-0.3c-0.1-0.7-0.5-0.9-0.9-0.3
					c-8.2-1.3-16.2-3.5-23.9-6.5c-8.9-3.4-17.4-7.7-25-13.7c-2.6-2.1-5-4.2-6.9-6.9c-2-2.6-3.1-5.2-2.5-8.8c1.6-9,2.6-18,3.9-27.2
					c0-0.3,0.1-0.4,0.3-0.9c0.9,0.8,1.7,1.4,2.5,2.2c8.5,7.8,18.4,13.2,28.9,17.9c11.1,5,22.9,8.2,34.8,10.6
					c0.3,0.7,0.5,0.8,0.9,0.1c2.9,0.4,5.9,0.8,8.8,1.3C158.1,298.8,158.5,298.9,158.8,298.2z"/>
				<path class="st63" d="M169.6,296c1.2-3.9,3.7-7.2,5.2-11c0.3-0.5,0.7-0.8,1.3-0.8c0.5,1.6,0.9,0.5,1.2,0
					c0.8-1.6,1.4-3.3,2.1-4.8c4.1-9.9,8.1-20,12.2-30.1c3.5-8.6,6.4-17.5,9.8-26.1c0.3-0.7,0.4-1.2-0.5-1.3c0.8-2.4,2.4-4.2,2.9-6.7
					c5.4-0.1,10.8,0.1,16.2-0.3c4.7-0.4,9.3-1.7,13.7-3.1c0.9-0.3,1.4-1,2.2-1.8c0.7,1.4,0.4,2.5-0.1,3.5c-8.1,18-16.2,36.1-24.3,54
					c-3.1,6.9-6.4,13.9-9.3,20.8c-1,2.6-2.9,3.9-5.4,4.6C187.7,295.1,178.8,296.5,169.6,296z M184.6,289.4c0.4,0.1,0.8,0.3,1,0.4
					c9.7-22.5,18.4-45.2,26.3-68.3c-0.3-0.1-0.5-0.3-0.8-0.3C202.4,243.9,193.5,266.6,184.6,289.4z M199.6,278.1
					c1.3-0.5,1.4-1.4,1.7-2.1c2.9-6.1,5.6-12.4,8.4-18.6c5.2-11.8,9.9-23.7,14.5-35.5c0.3-0.7,0.7-1.7-0.1-2.1
					c-0.9-0.3-1.2,0.9-1.3,1.6c-0.8,3-2.1,5.7-3.3,8.6c-4.6,11.1-9.1,22.1-13.7,33.2C203.7,268.1,201.7,272.9,199.6,278.1z
					 M197,283.9c0.1,0.1,0.4,0.1,0.5,0.3c0.9-1.6,2-3.1,1.7-5.2C198.6,280.6,197.8,282.3,197,283.9z"/>
				<path class="st64" d="M203.5,212.4c1-4.6,3-8.9,4.6-13.3c2.2-6.5,4.4-13.1,6.3-19.6c0.9-3.1-0.3-4.6-3.5-5.1
					c-3.5-0.5-7.2-0.9-10.7-1.4c-10.2-1.3-20.4-3.3-30.4-5.7c-12.7-3.1-25.2-6.8-37.4-11.6c-8.1-3.3-16.1-6.4-23.7-10.6
					c-2.7-1.4-5.5-3.1-8.2-4.8c-0.8-0.5-1.4-0.9-2.4-0.7c0-0.5,0-1,0.1-1.6c0-1.2,0.4-1.6,1.4-0.8c13.2,9.3,28.4,14.4,43.6,19.3
					c16.2,5.2,32.9,9,49.8,11.8c15.7,2.6,31.5,4.2,47.4,3.1c2.7-0.1,5.4-0.7,8.5-1.2c-0.5,1.3-1,2.4-1.4,3.5
					c-4.3,11.6-9.4,22.7-14.1,34.2c-0.5,1.3-1.4,1.8-2.7,2.2c-4.8,1.4-9.8,2.1-14.9,2.4C211.6,212.8,207.6,212.9,203.5,212.4z"/>
				<path class="st65" d="M203.5,104.5c-11.1,4.7-22.3,8.8-33.7,12.7c-12.2,4.1-24.4,7.6-37.1,10.3c-8.2,1.8-16.5,3.8-24.8,4.8
					c-4.7,0.7-9.5,1.4-14.4,1.2c-2.4-0.1-4.6,0.1-6.9,0.4c-1.4,0.1-2.1-0.4-2.1-2c0.1-2.9,0-5.7,0-8.6c0-0.8,0-1.4,1.2-1.4
					c6.1,0.4,12.3-0.7,18.4-1.6c14.9-2.2,29.5-5.5,44.2-9.3c9.9-2.6,19.7-5.9,29.4-9.3c6.3-2.2,12.5-4.6,18.6-7.2
					c0.5-0.3,1.2-0.3,1.8-0.3c1.8,1.6,3.7,3.3,4.1,5.6C202.8,101.4,203.1,103,203.5,104.5z M97.3,132c3.7-0.5,7.2-0.9,10.6-1.4
					c11.4-1.7,22.3-4.4,33.2-8.1c0.8-0.3,2.1-0.4,1.7-1.7c-0.4-1-1.3-0.7-2.2-0.5c-11.6,2.4-23.3,5.1-35,6.7
					c-2.9,0.4-5.6,0.9-8.5,1.3c-1.3,0.3-1.8,1-1.7,2.4C95.6,131.8,96.5,131.9,97.3,132z"/>
				<path class="st65" d="M127.1,90.5c9.3-2.6,18.6-5,27.8-8c10.8-3.4,21.7-7.3,32.3-11.5c0.9-0.4,1.8-0.7,2.9-1
					c0.7,1.8,1.2,3.8,1.8,5.6c1,3.1,3.1,5.9,3.3,9.3c-13.6,6.1-27.8,10.7-42.1,15c-6.3,1.8-12.7,3.5-18.9,5.2c-1,0.3-2,0.4-3,0.4
					C129.8,100.5,128.4,95.4,127.1,90.5z"/>
				<path class="st61" d="M245.9,146.4c3.1,1.7,5.7,3.9,8.1,6.5c1.4,1.6,2.1,3.5,2.5,5.5c-0.8,0-1.2,0.7-1.7,1.2
					c-2,2.1-4.4,3.3-7.1,3.8c-5.7,1.4-11.8,1.8-17.6,2c-11,0.4-22-0.4-32.8-1.3c-8.6-0.8-17.1-2.4-25.6-3.5
					c-2.2-0.3-4.3-1.6-6.7-0.8c-0.3-0.1-0.7-0.1-0.9-0.3c-0.1-0.7-0.5-0.8-0.9-0.3c-0.3,0-0.7-0.1-0.9-0.1c-0.1-0.7-0.5-0.9-0.9-0.3
					c-9-2-17.8-4.8-26.5-7.8c-8.9-3-17.5-6.5-25.9-11c-2.4-1.3-4.7-2.7-6.9-4.7c2.4-0.3,4.8-0.5,7.2-1c2.6-0.5,4.8-0.3,7.3,1
					c14.6,7.3,30.2,11.9,46,16.1c19.7,5.2,39.9,8.8,60.1,10.3c7.6,0.5,15,0.8,22.5-0.5c1.4-0.3,2.9-0.8,4.2-1.3
					c2.1-0.7,3.1-2.1,3.4-4.3c0.7-0.4,0.4-0.8-0.1-0.9c-1.6-3.4-4.6-5.2-7.3-7.3C245,146.8,245.4,146.5,245.9,146.4z"/>
				<path class="st64" d="M145.3,331.2c0.5-1.3,1.7-1,2.7-1.3c1.4-0.4,2.9-0.5,4.3-1c2.2-0.7,3.8-2.4,4.6-4.4
					c3.1-7.8,5.7-15.8,9.1-23.5c0.3-0.7,0.1-1.6,0.3-2.2c5-0.3,9.9,0.1,14.9-0.4c4.3-0.4,8.6-1,12.7-2.1c0.7,0.5,0.3,0.9,0.1,1.3
					c-3.8,8.9-7.4,17.8-11.2,26.8c-0.9,2.2-2.6,3.3-4.7,4.2c-7.7,3.5-15.9,3.5-24.2,3.4C151,332,148.1,331.8,145.3,331.2z"/>
				<path class="st66" d="M235.6,72.8c-4.3,1.8-8.2,4.3-12.3,6.5c-12.2,6.7-24.7,12.3-37.6,17.2c-16.6,6.4-33.6,11.5-50.8,15.6
					c-14.4,3.4-28.9,6.3-43.6,7.6c-1.8,0.1-3.8,0.3-5.6,0c-2.5-0.3-3.5-2.2-2.4-4.3c0.7-1.2,1.6-2.1,2.4-3.1c0.5-0.5,1-1.4,1.8-1.2
					c0.9,0.1,0.4,1.2,0.5,1.8c0.4,1.8,1.8,1.7,3.1,1.8c4.6,0.3,9-0.4,13.5-1.2c21.6-3.5,42.7-8.9,63.5-15.8
					c17.8-5.9,35.3-12.9,51.7-22c3.1-1.7,6.4-3.4,9-5.6c4.1-3.4,4.3-3.3,1.6-7.4c2.5,0,4.8,0.1,7.1,1.2c2,0.9,1.6,2.9,1.3,4.4
					c-0.1,0.8-0.7,1.6-0.4,2.5C238,72.3,236.1,71.5,235.6,72.8z"/>
				<path class="st67" d="M84.4,247.9c-0.9,2.6-0.5,5.2-0.8,8c-0.3,2.2-1.8,3.7-2.1,5.7c-2-1.4-2.7-3.4-2.5-5.9
					c1.7-12.9,3.3-26,5-38.9c2-15,3.9-29.9,5.7-45c0.1-1.3,0.4-2.6,2.1-2.9l0,0c-0.3,1.4,0.1,2.5,1.2,3.5
					c6.8,7.6,15.2,12.9,23.9,17.8c10.7,5.9,21.8,10.7,33.5,14.5c13.2,4.2,26.5,7.6,40.2,9.3c0.9,0.1,1.8,0.4,2.7,0.5
					c-2.5,1.2-5,0.1-7.4,0c-6.7-0.4-13.2-2-19.7-3.3c-6.8-1.4-13.6-3.4-20.4-5.2c-4.1-1-7.7-3.1-11.8-4.1c-1.2-0.3-2.5-1.2-3.1,1.2
					c-0.4-2.6-2.4-3.1-3.9-3.9c-3.4-1.6-6.5-3.5-10.2-4.4c-4.2-1.2-6.9-4.6-10.7-6.5c-3.8-2-7.2-4.7-10.6-7.4
					c-0.4-0.3-0.8-0.4-1.2-0.7c-0.1-0.4-0.1-0.9-0.4-1c-0.8-0.3-0.5,0.5-0.7,0.9c-0.1,5.6-1.2,11.2-2,16.7c-1,8.5-2.4,17-3.5,25.4
					C86.6,230.6,85.5,239.3,84.4,247.9z"/>
				<path class="st59" d="M195.2,85c-0.1-3.4-2.2-6.1-3.3-9.3c-0.7-1.8-1.2-3.8-1.8-5.6c6-2.7,11.9-5.6,17.9-8.2
					c3.8-1.7,7.3-3.7,10.5-6.3c2-1.7,2.5-1.6,4.1,0.5c2.1,2.9,4.1,5.9,6.3,8.6c1.4,1.7,0.7,2.6-0.7,3.5c-2.4,1.6-4.6,3.3-6.9,4.6
					C212.7,77.1,204.1,81.5,195.2,85z"/>
				<path class="st59" d="M235.6,72.8c0.5-1.3,2.4-0.5,2.9-1.8c1.6-0.9,2.6-0.7,3.7,1c1.3,2,3.1,3.7,4.7,5.5c0.9,1,1,1.7-0.3,2.7
					c-10.2,8.4-21.7,14.5-33.6,20c-3.1,1.4-6.3,3-9.4,4.4c-0.4-1.6-0.8-3.1-1-4.7c-0.4-2.4-2.2-4.1-4.1-5.6c2-1.8,4.7-2.5,7.1-3.5
					c9.1-4.2,18.2-8.4,26.5-14.1C233.3,75.6,235.2,74.8,235.6,72.8z"/>
				<path class="st66" d="M92.9,94.8c-0.9-0.1-2.7,0.7-3-0.4c-0.4-1.3,1.4-1.8,2.4-2.5c5.6-4.3,12.2-6.9,18.4-9.8
					c18.2-8.2,37-14.5,55.9-20.8c0.9-0.3,2.4-1.4,2.9-0.1c0.7,1.6-1.3,1.6-2.4,1.8c-17.5,5.5-34.6,11.6-51.6,18.6
					c-3.8,1.6-7.6,3.3-11.2,5.4c-1,0.7-2.6,1.2-2.2,2.6c0.5,1.6,2.1,1.3,3.4,1c9.7-1.8,19.1-4.6,28.6-7.3
					c17.8-5.1,35.5-10.3,52.8-17.1c6-2.4,12.2-4.7,17.9-7.8c1-0.5,2-1.2,2.9-1.8c0.5-0.4,0.9-1,0.7-1.8c-0.3-0.7-0.9-1-1.7-1
					c-2.6-0.1-5.1,0.4-7.6,0.8c-3.7,0.8-7.4,1.7-11.1,2.5c-0.5,0.1-1.3,0.8-1.6-0.1c-0.3-1,0.4-1.4,1.3-1.6
					c6.5-1.2,12.9-3.1,19.6-3.9c3.3-0.4,6.4-1,9.7-0.8c0.8,0,2-0.1,2.2,0.8c0.1,0.8-0.8,1.3-1.3,1.7c-5.6,4.2-11.9,7.2-18.3,10.1
					c-12.3,5.5-24.7,10.3-37.5,14.5c-19.3,6.3-38.9,12.2-58.9,15.8C99.8,94.1,96.4,94.8,92.9,94.8z"/>
				<path class="st68" d="M287.3,66.4c2.2-3.1,5.7-3.3,8.9-4.3c4.8-1.4,9.9-2.2,12.9-6.9c0.4-0.7,0.7-1.4,0.9-2.1
					c0.3-0.7,0.4-1.4-0.3-2c-0.7-0.4-1.2,0.1-1.6,0.7c-0.7,0.7-1.6,0.5-2.4,0.5c-3.4,0-6.8,0.1-10.2,0c-8.1-0.3-15.3,2.6-22.2,6.4
					c-4.2,2.4-8.2,5.2-11.8,8.6c-3.1,2.9-5.9,6.1-8.8,9.3c-1-0.5-1.2-1.3-0.4-2.2c7.8-9.9,16.9-18.3,28.2-24
					c6.9-3.5,14.4-5.9,22.2-5.7c4.1,0.1,8.2,0.5,11.4,3.8c4.2,4.4,2.5,9-2.1,11.8c-4.8,2.9-10.5,3.9-15.9,4.8
					C293.3,65.4,290.4,66.4,287.3,66.4z"/>
				<path class="st66" d="M127.1,90.5c1.3,5,2.6,10.1,3.9,15c-0.8,1.3-2.2,0.8-3.4,1c-8,2-16.1,3.5-24.3,4.8c-0.1-0.5-0.1-1-0.3-1.6
					c-0.8-4.6-2-9-2.1-13.7C109.8,94.8,118.5,92.3,127.1,90.5z"/>
				<path class="st68" d="M228.6,98c-1.8,5.4-5,9-11,9.8c-1.3,0.1-2.7,0.5-3.8,1.6c-2.4,2.4-5.2,3.8-7.8,5.7
					c-2.7,2.1-4.6,4.7-6.3,7.7c-5.5,10.1-13.1,17.9-24.6,20.6c-11.4,2.6-22.3,1.6-32.5-4.7c-2.5-1.4-5.2-2.5-8.4-3.9
					c4.1-1.4,7.2,0.1,10.5,0.9c0,1.3,0.7,2.1,1.8,2.5c9.3,3.3,18.7,4.8,28.4,2c9.4-2.7,15.6-9,18.6-18.3c2.6-7.8,8.1-12.3,15.8-14.5
					c1.6-0.4,3.1-1,4.6-1.7c1.4-0.7,2.7-1.2,4.4-1.2c3,0,4.7-2.6,6.9-4.3C226.3,99.4,227.3,98.6,228.6,98z"/>
				<path class="st68" d="M215.6,158.6c3-2,6.4-3.4,8.9-6.1c3.4-3.8,4.8-8.1,5.6-12.9c0.9-5.4,1.2-10.7,1.6-16.1
					c0.4-5.6,3.5-10.3,7.1-14.5c1-1.2,1.8-2.5,2.5-3.9c1.2-2-0.1-4.2-2.5-4.1c-3.4,0.1-6.3,1.8-8.6,4.1c-3.8,3.7-7.3,7.6-11,11.4
					c-3.1,3.1-6.8,5.6-11.1,6.7c-0.9,0.3-1.8,0.5-2.9,0c0.4-0.9,1.2-1.2,2-1.4c7.2-2.7,12-8.2,17.1-13.6c4.6-5,9.5-9.4,15.4-12.8
					c3-1.7,6-3.5,9.4-4.3c1-0.3,2-0.3,3-0.3c1.4-0.1,3.3-0.3,3.8,1.4c0.5,1.6-0.3,3.1-1.4,4.3c-3,2.7-6,5.4-8.9,8.1
					c-5.1,5.1-9.5,10.6-11,17.9c-0.7,3.5-0.8,7.2-1.2,10.8c-0.7,5.9-1.4,11.8-3.9,17.2c-1.4,3.1-3.9,5.4-6.9,7.1
					c-0.7,0.4-1.7,0.5-1.8,1.6C219,159.2,217.3,158.9,215.6,158.6z"/>
				<path class="st68" d="M256.2,116.1c-0.4-0.7-0.7-1.3-1.2-2c-2.1-3-2.1-5.4,0.4-8c4.6-4.8,10.1-7.4,16.9-8.1
					c4.3-0.4,8,1.3,11.8,2.4c3.9,1,7.8,2.4,12,0.7c3.7-1.4,4.4-3.3,2.7-6.9c-0.4-0.9-1.3-1.7-1.2-3c1.3,1,3,1.4,4.1,3
					c1.7,2.5,2.9,5,1.4,8c-1.4,3-4.2,3.8-7.2,3.9c-4.8,0.3-9.5-0.4-14.2-1.6c-6.3-1.6-12.5-3-18.9-1.2c-2.2,0.7-4.2,1.4-5.9,3.1
					c-1.2,1.2-2.1,2.5-1.4,4.1c0.7,1.6,2,2.5,3.8,2.6c0.9,0,1.8,0,2.7,0s1.8,0.1,2.7,0.5c1,0.4,2.1,1,2,2.2c-0.3,1.3-1.6,1-2.5,1
					C261.6,116.5,258.8,116.2,256.2,116.1z"/>
				<path class="st64" d="M164.9,159.9c2.4-0.8,4.4,0.5,6.7,0.8c8.5,1.2,17,2.7,25.6,3.5c11,0.9,21.8,1.7,32.8,1.3
					c5.9-0.1,11.9-0.5,17.6-2c2.6-0.7,5.1-1.8,7.1-3.8c0.5-0.5,0.8-1.2,1.7-1.2c0.4,3.8-1.4,6.8-5.5,8.5c-4.3,1.7-8.9,2.1-13.5,2.2
					c-14.9,0.5-29.7-1-44.4-3.4c-8.9-1.4-17.9-3.1-26.7-5.4C165.9,160.4,165.3,160.4,164.9,159.9z"/>
				<path class="st59" d="M108.4,87.2c4.1-1.8,8.2-3.5,12.3-5.4c12.4-5.2,25.1-9.5,37.9-13.9c2.7-0.9,5.5-1.8,8.1-2.7
					c1.6-0.5,2.1-0.5,1.8,1.4c-0.5,2.9-1.7,4.4-4.8,5.5c-14,4.4-28.1,8.2-42.2,12.3c-4.2,1.2-8.5,2.1-12.7,3.3
					C108.5,87.7,108.4,87.5,108.4,87.2z"/>
				<path class="st65" d="M101.1,96.2c0.1,4.7,1.4,9.1,2.1,13.7c0.1,0.5,0.1,1,0.3,1.6c-3.7,0.4-7.3,1.2-11.1,1
					c-1.7,0-2.1-0.5-2.1-2.2c0-3.9-0.3-7.8-0.5-11.8c-0.1-1.4,0.4-1.6,1.4-1.6C94.6,97.3,97.8,96.7,101.1,96.2z"/>
				<path class="st4" d="M226.4,20.2c5.1-0.8,10.1-1.8,15.3-2c-1.4,2-3.1,3.5-4.2,5.7c-1.6,1.3-2.4,3.1-3,5.1
					c-5,1-10.1,1.6-15.2,1.8c0-1.4,1.3-2.4,1.3-3.8C222.5,24.9,224.4,22.5,226.4,20.2z"/>
				<path class="st4" d="M201.2,23.6c4.3-0.7,8.6-1.7,13.2-1.7c-1.3,2-2.9,3.7-3.9,5.7c-1,1.4-1.6,3-2.2,4.6c-3,0.8-6.1,0.4-9,1.7
					c-0.5,0.3-1-0.1-1.2-0.8C198.2,29.7,200,26.7,201.2,23.6z"/>
				<path class="st4" d="M157,133.1c0.7-2.4,0.7-5,2-7.2c2.1,1,2.2,3.7,4.1,4.8c1.2,1.7,2.4,3.1,4.2,4.2c-0.5,3.4-0.5,3.4-4.1,3.5
					c-2.2,0-4.4,0.1-6.7-0.3c-0.1-0.3-0.3-0.7-0.4-0.9c0.3-1,0.5-2.2,0.7-3.3C157.2,133.7,157.4,133.5,157,133.1z"/>
				<path class="st4" d="M181.8,64.6c0,1-0.4,1.6-1.3,1.8c-2.7,1-5.5,2.1-8.2,3.1c-1.6,0.7-2-0.3-1.7-1.3c1.2-4.1,2-8.2,3.7-12.2
					c2,1.3,2.5,3.7,4.2,5.2C179.4,62.5,180.3,63.8,181.8,64.6z"/>
				<path class="st4" d="M252.9,16.6c0.1,0,0.3-0.1,0.4-0.1c3.5-0.8,3.5-0.8,3.3,2.6c-0.1,2-0.3,3.9,0.7,5.6
					c0.4,0.8,0.8,1.6-0.7,1.6c-3.4,0.3-6.8,1.4-10.3,1.3c-0.1-1.6,1.3-2.6,1.3-4.1C249.4,21.2,251.1,18.9,252.9,16.6z"/>
				<path class="st4" d="M179.4,39.1c1.7,2,3.8,3.3,6.4,3.7c1.2,0.1,1.6,0.5,1.2,1.6c-0.9,3-1.8,6-2.6,9c-1-0.5-1.4-1.8-2.6-2
					c-1.4-2.5-3-4.8-4.8-7.1c0.3-0.9,0.4-1.8,0.7-2.7C178.3,40.9,177.7,39.1,179.4,39.1z"/>
				<path class="st0" d="M210.5,27.7c1-2.1,2.6-3.8,3.9-5.7c3.9-0.9,8-1.2,12-1.7c-2,2.4-3.8,4.7-5.7,6.9c-2.4,0.1-4.7,0.8-7.1,1.2
					C212.6,28.7,211.1,29.3,210.5,27.7z"/>
				<path class="st64" d="M171.1,128.6c0.1-0.3,0.1-0.4,0.1-0.5c0.7-3.4,0.7-3.4,4.1-2.7c3.1,0.5,6.1,1.3,9.3,2c2,0.4,1.7,1,0.7,2.2
					c-1.7,1.8-3.3,3.1-6.1,2c-2.1-0.9-4.6-1-6.8-1.4C171.4,129.8,170.7,129.5,171.1,128.6z"/>
				<path class="st0" d="M176.9,44.5c1.8,2.2,3.3,4.6,4.8,7.1c-0.4,1.2-0.5,2.4-1,3.5c-0.9,2.1-0.8,4.4-2.2,6.3
					c-1.7-1.6-2.2-3.9-4.2-5.2C174.5,52,176,48.3,176.9,44.5z"/>
				<path class="st0" d="M252.9,16.6c-1.7,2.4-3.5,4.6-5.2,6.9c-1.2,0-2.5,0.3-3.7,0.3c-2.2,0.1-4.3,1.4-6.5,0.1
					c1-2.1,2.7-3.8,4.2-5.7c2.6-0.9,5.5-0.8,8.2-1.3C250.8,16.8,251.9,16.8,252.9,16.6z"/>
				<path class="st59" d="M204.1,56.6c-6.4,3-12.4,5.7-18.6,8.1c-0.5,0.1-0.9,0.1-1-0.4c-0.4-1.4,1.3-4.6,2.7-5
					c4.7-1,9.5-1.8,14.2-3.1C202.1,56,202.9,55.8,204.1,56.6z"/>
				<path class="st69" d="M237.4,24c2.2,1.3,4.3-0.1,6.5-0.1c1.2,0,2.5-0.3,3.7-0.3c0,1.6-1.4,2.6-1.3,4.1
					c-3.9,0.7-7.8,1.7-11.9,1.4C235,27.2,235.8,25.3,237.4,24z"/>
				<path class="st69" d="M210.5,27.7c0.8,1.7,2.1,0.9,3.1,0.8c2.4-0.5,4.6-1,7.1-1.2c0,1.4-1.3,2.4-1.3,3.8
					c-3.7,1-7.3,1.2-11.1,1.3C208.8,30.6,209.4,29.1,210.5,27.7z"/>
				<path class="st64" d="M241.6,148.2c3,1.7,5.5,3.4,7.4,5.7c0.9,1,1.7,2.2,0.3,3.4c-1.3,1-2.1,0.5-3.4-0.3
					C242.7,155,242.5,151.8,241.6,148.2z"/>
				<path class="st69" d="M178.5,61.2c1.4-1.8,1.3-4.2,2.2-6.3c0.5-1.2,0.7-2.4,1-3.5c1.2,0.1,1.6,1.4,2.6,2
					c-0.4,3.8-1.6,7.4-2.4,11.1C180.3,63.8,179.4,62.5,178.5,61.2z"/>
				<path class="st69" d="M167.1,134.9c-1.8-1-3-2.5-4.2-4.2c1-2.2,1.4-4.7,1.6-7.2c1.7,0.8,2.5,2.7,4.2,3.5
					C168.7,129.7,167.6,132.3,167.1,134.9z"/>
				<path class="st0" d="M201.2,23.6c-1.3,3.1-3,6.1-3.1,9.7c-1.8-2.5-2.1-5.7-3.5-8.5c-0.4-0.7,0.3-0.9,0.5-1.3
					c0.4-0.4,0.9-1,1.6-0.5C198.1,24.1,199.6,23.6,201.2,23.6z"/>
				<path class="st0" d="M188.8,36.6c-1.8-1.7-3.5-3.4-5.4-5.1c-0.7-0.7-0.9-1.4-0.7-2.4c0.4-1,1.3-0.4,2-0.5
					c2.4-0.7,3.3,0.4,3.8,2.6c0.3,1.4,1.2,2.5,2.1,3.5C190.1,35.6,189.8,36.5,188.8,36.6z"/>
				<path class="st0" d="M178.5,37c-0.8-1.4-0.5-2.4,1.2-3c0.9-0.4,1.7-0.9,2.6-1.4c0.8,1.3,1.7,2.7,2.6,4.2
					c-0.7,0.9,1.7,3.3-1.4,3.1c-1.3-0.8-2.7-1.6-4.1-2.4C179.2,36.9,178.8,37,178.5,37z"/>
				<path class="st0" d="M164.5,123.5c-0.1,2.5-0.5,5-1.6,7.2c-1.8-1.2-2.1-3.8-4.1-4.8c0.1-3,1-3.7,5.5-3.9
					C164.5,122.5,164.5,123,164.5,123.5z"/>
				<path class="st64" d="M186.7,125.4c-4.4-0.9-8.9-1.8-13.3-2.6c-0.5-0.1-1.2-0.3-0.9-1c0.1-0.7,0.7-0.8,1.3-0.7
					c4.4,0.9,8.9,1.8,13.3,2.7c0.5,0.1,1.2,0.1,1,0.9C188,125.5,187.5,125.6,186.7,125.4z"/>
				<path class="st62" d="M169.6,135.6c0-3,0.8-3.7,3.7-3.1c1.4,0.3,2.9,0.7,4.2,1.2c0.9,0.3,0.9,0.9,0.1,1.2
					c-2.2,1-4.4,1.7-6.8,2.2C169.6,137.3,169.4,136.5,169.6,135.6z"/>
				<path class="st69" d="M194.4,30.9c0.5,0.8,1.2,1.7,1.7,2.5c0.4,0.5,1.4,0.9,0.8,1.7c-0.7,0.8-2.1,1.2-2.7,0.5
					c-2.4-2.7-5-5.4-5.4-9.1C190.6,27.9,191.5,30.6,194.4,30.9z"/>
				<path class="st4" d="M164.5,123.5c0-0.5-0.1-1-0.1-1.6c0.1-0.1,0.1-0.3,0.3-0.4c1.8-0.5,3.5-1.6,5.5-1.7c0,2.5-0.7,4.8-1.4,7.1
					C167,126.1,166.2,124.3,164.5,123.5z"/>
				<path class="st0" d="M194.4,30.9c-2.9-0.3-3.8-3-5.6-4.6c0.1-1,0.1-2.6,1.7-2c1.2,0.4,3.8-0.7,3.3,2.4
					C193.3,28.1,193.7,29.6,194.4,30.9z"/>
				<path class="st64" d="M156.4,124.1c-0.7,3.7-0.7,3.7-3.9,3.3c-1.6-0.1-3.1-0.4-4.8-0.9C150.5,125.6,153.2,124.8,156.4,124.1z"/>
				<path class="st4" d="M259.5,16.6c1.7,1.7,2.5,5.7,1.6,7.8c-0.1,0.3-0.4,0.7-0.5,0.7c-0.5,0.1-0.8-0.4-0.9-0.8
					C258.4,22.5,258.4,19,259.5,16.6z"/>
				<path class="st69" d="M183.5,39.8c3,0,0.7-2.2,1.4-3.1c1.3,0.9,2.5,2.1,4.1,2.7c0.9,0.3,0.7,1.2,0.5,1.8
					c-0.1,0.9-0.9,1.2-1.6,0.9C186.4,41.2,184.7,41.1,183.5,39.8z"/>
				<path class="st64" d="M245.9,146.4c-0.7,0.1-0.9,0.4-1,1c-1-0.5-2.2-1.2-3.3-1.7c-0.8-0.4-1-1.2-0.8-1.7c0.5-0.9,1,0,1.6,0.3
					C243.7,144.8,245,145.4,245.9,146.4z"/>
				<path class="st69" d="M188.8,36.6c1.2-0.1,1.3-1,1.8-1.8c0.3,0.3,0.8,0.4,0.9,0.7c0.3,0.7,2.2,0.5,0.8,1.8
					c-0.9,0.8-1.7,1.7-2.7,0.1C189.2,37.2,188.9,36.9,188.8,36.6z"/>
				<path class="st65" d="M178.5,37c0.4,0,0.8,0,0.9,0.5c0,0.5,0,1.2-0.1,1.7c-1.7,0-0.9,1.8-1.8,2.5
					C177.1,39.9,177.8,38.5,178.5,37z"/>
				<path class="st67" d="M198.8,215c-1.4,0.3-2.9,1-4.2-0.5C196.1,214.7,197.4,214.9,198.8,215z"/>
				<path class="st64" d="M165.4,298.6c-0.7,0.7-1.3,0.8-2-0.1C164.1,298.2,164.7,298.2,165.4,298.6z"/>
				<path class="st64" d="M97.8,142.2c0.7,0.5,0.7,1-0.1,1.4C97.4,143.1,97.6,142.7,97.8,142.2z"/>
				<path class="st64" d="M161.2,158.9c0.5-0.7,0.8-0.4,0.9,0.3C161.7,159.3,161.5,159.3,161.2,158.9z"/>
				<path class="st64" d="M163,159.3c0.5-0.7,0.8-0.4,0.9,0.3C163.6,159.9,163.3,159.7,163,159.3z"/>
				<path class="st64" d="M252.3,154.8c0.5,0.3,0.8,0.5,0.1,0.9C252.3,155.4,252.2,155.2,252.3,154.8z"/>
				<path class="st64" d="M158.8,298.2c-0.4,0.7-0.8,0.5-1-0.1C158.2,297.9,158.6,297.9,158.8,298.2z"/>
				<path class="st66" d="M156,137.3c0.1,0.3,0.3,0.7,0.4,0.9C155.7,138,155.5,137.8,156,137.3z"/>
				<path class="st64" d="M149,296.8c-0.5,0.7-0.8,0.4-0.9-0.1C148.4,296.4,148.8,296.4,149,296.8z"/>
				<path class="st64" d="M142.5,330.9c0.4-0.7,0.8-0.5,1,0.1C143.2,331.3,142.8,331.3,142.5,330.9z"/>
				<path class="st66" d="M157,133.1c0.5,0.4,0.1,0.7-0.3,0.9C156.5,133.6,156.6,133.2,157,133.1z"/>
				<path class="st64" d="M96.4,153.8c0.7,0.5,0.4,0.8-0.1,0.9C96,154.5,96.1,154.1,96.4,153.8z"/>
				<path class="st64" d="M136,330c0.5-0.7,0.8-0.5,0.9,0.3C136.6,330.4,136.2,330.3,136,330z"/>
				<path class="st64" d="M138.7,330.4c0.5-0.7,0.8-0.5,1,0.3C139.4,330.8,139.1,330.8,138.7,330.4z"/>
				<path class="st67" d="M91.8,168.9c0-0.1,0.1-0.1,0.1-0.3v0.1C91.9,168.7,91.8,168.7,91.8,168.9
					C91.8,168.7,91.8,168.9,91.8,168.9z"/>
				<path class="st58" d="M287.2,125.2c1.3,2,1.8,4.1,0.7,6.3l0,0c-0.5,0.3-0.9,0.7-1.4,0.9c-0.3,0.1-0.7,0.1-0.9,0.3
					c-2.2-0.1-3.7-1.2-4.8-3.1c-0.8-1.3-1.4-2.9-2.9-3.8v0.1v-0.1c-0.1-0.4-0.3-0.7-0.7-0.7c-0.1-0.1-0.4-0.3-0.5-0.5
					c-0.1-0.5-0.3-0.9-0.5-1.4c0.1-0.1,0.1-0.3,0.1-0.4c2.7-1.3,5.2-0.3,7.8,0.4c0.3,0.1,0.7,0.3,0.9,0.4c0.4,0.5,1,0.9,1.7,1v-0.1
					v0.1C286.8,125,286.9,125.1,287.2,125.2L287.2,125.2z M286,128.5c-0.1-1.4-2.4-3.5-3.8-3.5c-1,0-0.9,0.7-0.7,1.2
					c0.7,1.2,1.6,2.4,2.6,3.3c0.4,0.3,0.7,0.7,1.2,0.4C285.9,129.7,286,129.1,286,128.5z"/>
				<path class="st62" d="M292.4,23.6c1,0.4,2.5,0.1,2.7,1.6c0.4,1.7-0.9,2.5-2.1,3.3c-1.4,1-3.3,1.3-5,1.8c-3.1,0.9-6.1,2-9.1,3
					c0.9-2.4,6.7-6,9.8-6.1C292.1,27.2,292.4,26.8,292.4,23.6z"/>
				<path class="st68" d="M292.4,23.6c0,3.3-0.4,3.7-3.7,3.8c-3.1,0.1-8.9,3.7-9.8,6.1c-1.2,1.2-2.5,2.4-4.2,2.7l-0.1-0.1
					c3.9-5.9,8.9-10.6,15.9-12.4C291.2,23.4,291.9,23.6,292.4,23.6z"/>
				<path class="st68" d="M274.8,36.1c-0.1,0-0.1,0.1-0.3,0.1C274.6,36.2,274.6,36.1,274.8,36.1L274.8,36.1z"/>
				<path class="st62" d="M315.3,81.7c-2.5-1.3-4.6-3.1-8-4.1c2.9-1.3,5.1-1.6,7.4-0.7C315.3,78.6,316.4,80,315.3,81.7z"/>
				<path class="st68" d="M315.3,81.7c1.2-1.7,0.1-3.3-0.5-4.7c1.2,0,2.1,0.3,3,0.9c1,0.9,2.4,2.1,1.4,3.7
					C318.1,83.4,316.6,82.5,315.3,81.7z"/>
				<path class="st68" d="M247.8,54.8c-0.1-3.4,0.8-6,3.1-7.8c0.8-0.7,2-1.6,2.9-0.7c1,1,0,2-0.8,2.7
					C251.4,51,249.7,52.8,247.8,54.8z"/>
				<path class="st70" d="M167.9,215.8c0.5,0.8,0.1,1.3,0,2c-2.2,8.4-4.4,16.7-6.8,25.1c-4.1,14-8.2,27.8-12.5,41.8
					c-0.4,1.2-0.7,3.5-1.7,3c-1.4-0.5-0.1-2.5,0.1-3.7c3.3-11.2,6.8-22.3,9.8-33.6c3.1-11.5,7.2-22.6,10.7-34.1
					C167.5,216.2,167.7,215.9,167.9,215.8z"/>
				<path class="st70" d="M88.7,263.9c3.4-25.2,7.3-49.7,11.5-74.2C101.2,196.1,91.3,261.1,88.7,263.9z"/>
				<path class="st70" d="M130.5,209.8c-0.5,3.1-1.3,6.1-1.7,9.3c-1,9.7-4.1,18.8-6,28.2c-1.8,8.9-4.1,17.8-6.1,26.7
					c-0.1,0.7-0.4,1.2-0.7,1.7c-0.1,0.5-0.3,1.2-1,0.9c-0.7-0.3-0.5-0.9-0.4-1.4c0.3-1.3,0.5-2.7,0.9-4.1
					c4.3-18.8,8.6-37.6,13.1-56.3c0.4-1.7,0.9-3.4,1.3-5.1C130.1,209.8,130.4,209.8,130.5,209.8z"/>
				<path class="st70" d="M200.7,221.9c1,0.1,0.8,0.7,0.5,1.3c-3.4,8.6-6.3,17.5-9.8,26.1c-4.1,10.1-8.1,20-12.2,30.1
					c-0.7,1.7-1.3,3.3-2.1,4.8c-0.3,0.7-0.7,1.7-1.2,0c3.5-9.1,7.2-18.4,10.7-27.6c3.4-8.5,6.8-17.1,10.2-25.6
					C198.2,228.1,199.5,224.9,200.7,221.9z"/>
				<path class="st70" d="M190.3,219.7c0.8,3.7-19.3,61.8-22.6,66.1C174.8,263.7,182.6,242.1,190.3,219.7z"/>
				<path class="st70" d="M84.4,247.9c1.2-8.6,2.2-17.2,3.4-25.9c1.2-8.5,2.4-17,3.5-25.4c0.7-5.6,1.7-11.1,2-16.7
					c0-0.4-0.1-1,0.7-0.9c0.3,0,0.3,0.7,0.4,1c-0.7,12.4-2.1,24.7-4.2,37c-1.6,9.4-2.9,18.8-4.3,28.4
					C85.5,246.1,85.8,247.4,84.4,247.9z"/>
				<path class="st70" d="M159,282.2c6.1-21.3,12.7-42.2,19.9-63.5c0.9,2,0.3,3.4-0.1,4.7c-5.4,17.2-10.6,34.5-16.5,51.5
					c-0.8,2.1-1.4,4.2-2.1,6.4C159.9,281.7,159.8,282.2,159,282.2z"/>
				<path class="st70" d="M98.6,256.7c0.7-3.9,1.2-7.7,1.8-11.6c1.3-8.5,2.6-16.9,3.9-25.4c1-6.3,2.4-12.5,3.4-18.8
					c0.4-2.2,0.5-4.4,0.8-6.7c0-0.5,0-1.3,0.7-1.3c0.9,0,0.8,0.8,0.7,1.4c-0.5,3.9-1.2,7.8-1.6,11.6c-0.9,8.5-2.6,16.9-4.1,25.4
					c-1.3,8.2-3.1,16.3-4.8,24.6c-0.1,0.4-0.3,0.7-0.4,0.9C98.9,256.8,98.7,256.8,98.6,256.7z"/>
				<path class="st70" d="M127.5,272.1c0.8-6.3,2.5-12.4,3.9-18.4c3-12.5,6.1-25.1,9.1-37.6c0.3-0.9,0.4-1.8,0.9-2.6
					c0.1,0,0.4,0,0.5,0c-1.2,8.6-3.4,17-5.4,25.4c-2.5,10.8-6,21.4-8.6,32.1c-0.1,0.4-0.1,0.8-0.1,1.2
					C127.9,272.1,127.7,272.1,127.5,272.1z"/>
				<path class="st70" d="M138.3,270.8c5.2-19.2,9.9-38.6,16.1-57.5c1,0.4,0.7,1,0.5,1.6c-3.5,14.4-7.4,28.5-11.8,42.7
					c-1.3,4.4-2.6,8.9-3.9,13.3C139,270.8,138.6,270.8,138.3,270.8z"/>
				<path class="st70" d="M117.9,205.6c0.1,4.8-1.6,9.5-2.1,14.4c-0.9,7.8-2.6,15.7-4.1,23.4c-1.3,7.1-2.7,14.2-4.4,21.3
					c2.7-19.7,6-39.5,10.1-59.1C117.6,205.6,117.7,205.6,117.9,205.6z"/>
				<path class="st63" d="M138.3,270.8c0.3,0,0.7,0,0.9,0c-1,3.5-2.1,7.1-3,10.5c-0.3,0-0.4-0.1-0.7-0.1
					C136.5,277.6,137.4,274.2,138.3,270.8z"/>
				<path class="st63" d="M127.5,272.1c0.1,0,0.4,0,0.5,0c-0.7,2.7-1.2,5.5-2.6,8C126,277.5,126,274.6,127.5,272.1z"/>
				<path class="st63" d="M117.9,205.6c-0.1,0-0.4,0-0.5,0c-0.1-2.2,0.7-4.2,1.4-6.3C118.9,201.4,119.3,203.6,117.9,205.6z"/>
				<path class="st63" d="M130.5,209.8c-0.1,0-0.4,0-0.5,0c0-2,0.5-3.8,1-5.6C131.4,206.1,131.7,207.9,130.5,209.8z"/>
				<path class="st63" d="M142.1,213.4c-0.1,0-0.4,0-0.5,0c0.3-1.4,0.5-2.9,0.7-4.3C143.3,210.7,142.9,212.1,142.1,213.4z"/>
				<path class="st70" d="M101.1,187.2c-0.1,0.1-0.3,0.4-0.4,0.4c-0.3,0-0.4-0.3-0.3-0.4c0.1-0.1,0.3-0.3,0.5-0.4
					C100.8,186.9,101,187,101.1,187.2z"/>
				<path class="st68" d="M188.3,149.3c-1-0.1-2.9,0.4-3-0.9c-0.1-1.6,2-1.3,2.9-1.3c8-0.4,14.4-4.3,20-9.7c1.6-1.4,3-3.1,4.8-4.3
					c2.2-1.3,4.1-0.4,3.9,2.2c-0.3,4.7-2.4,8.6-5.1,12.2c-1.4,1.8-2.9,3.7-5.1,4.4c-0.8,0.3-1.4,0.8-2.1-0.1
					c-0.7-0.8,0.1-1.3,0.7-1.7c2.4-2.5,5.4-4.4,6.9-7.7c0.3-0.5,0.5-0.9,0.8-1.4c0.3-0.7,0.3-1.4-0.4-1.8c-0.7-0.4-1.2-0.1-1.7,0.3
					c-2.6,2-5.2,3.8-8.1,5.4C198.4,147.6,193.6,149.1,188.3,149.3z"/>
				<path class="st68" d="M298,94.8c0,1.2-1.8,2.6-2.9,2.1c-1.3-0.7-2.5-1.6-3.7-2.5c-0.7-0.5-0.5-1.2,0-1.8
					c1.3-1.4,2.9-0.4,4.2-0.1C296.8,92.8,297.6,93.9,298,94.8z"/>
				<path class="st70" d="M184.6,289.4c8.9-22.7,17.8-45.5,26.5-68.2c0.3,0.1,0.5,0.3,0.8,0.3c-7.8,23.1-16.6,45.9-26.3,68.3
					C185.4,289.6,185,289.5,184.6,289.4z"/>
				<path class="st70" d="M199.6,278.1c2.1-5.2,4.1-10.1,6-14.9c4.6-11.1,9.1-22.1,13.7-33.2c1.2-2.9,2.5-5.6,3.3-8.6
					c0.1-0.7,0.4-1.8,1.3-1.6c0.8,0.3,0.5,1.3,0.1,2.1c-4.6,11.9-9.3,23.9-14.5,35.5c-2.7,6.1-5.6,12.4-8.4,18.6
					C201.1,276.7,200.9,277.6,199.6,278.1z"/>
				<path class="st70" d="M197,283.9c0.8-1.7,1.4-3.3,2.2-5c0.3,2.1-0.8,3.7-1.7,5.2C197.4,284,197.3,284,197,283.9z"/>
				<path class="st66" d="M97.3,132c-0.8-0.1-1.7-0.3-1.8-1.3c-0.1-1.3,0.5-2.1,1.7-2.4c2.9-0.5,5.6-0.9,8.5-1.3
					c11.8-1.7,23.4-4.3,35-6.7c0.9-0.1,1.8-0.7,2.2,0.5c0.4,1.3-0.9,1.4-1.7,1.7c-10.8,3.8-22,6.4-33.2,8.1
					C104.5,131.1,101,131.5,97.3,132z"/>
				<path class="st68" d="M286,128.5c0,0.5-0.1,1-0.7,1.3s-0.9-0.1-1.2-0.4c-1-0.9-1.8-2-2.6-3.3c-0.4-0.7-0.4-1.2,0.7-1.2
					C283.5,125.1,285.9,127.2,286,128.5z"/>
			</g>
			<g>
			</g>
		</g>
		<g>
			<path class="st0" d="M287,123.7l0.5-0.5l0,0L287,123.7L287,123.7z"/>
			<path class="st0" d="M287,123.7l0.5-0.7l0,0L287,123.7L287,123.7z"/>
			<polygon class="st0" points="283.9,127.1 281,130.1 281,130.1 			"/>
			<path class="st0" d="M284,127.3l-0.1-0.3l-2.9,3.1c0,0.1,0.1,0.1,0.1,0.1L284,127.3z"/>
			<path class="st0" d="M126.7,102.8l2.6,1.7l-2.4-2C126.8,102.5,126.8,102.6,126.7,102.8z"/>
			<path class="st0" d="M287.8,123.7c-0.1-0.1-0.1-0.4-0.3-0.5l-0.5,0.7l-0.3,0.7h0.3L287.8,123.7z"/>
			<path class="st0" d="M287.6,123c0-0.1-0.1-0.3-0.1-0.4l-0.3,0.9L287.6,123z"/>
		</g>
	</g>
</g>
</svg>
