<?xml version="1.0" encoding="utf-8"?>
<!-- Generator: Adobe Illustrator 27.9.1, SVG Export Plug-In . SVG Version: 6.00 Build 0)  -->
<svg version="1.1" id="Layer_1" xmlns="http://www.w3.org/2000/svg" xmlns:xlink="http://www.w3.org/1999/xlink" x="0px" y="0px"
	 viewBox="0 0 250 250" style="enable-background:new 0 0 250 250;" xml:space="preserve">
<style type="text/css">
	.st0{fill:#232121;}
	.st1{fill:#FDFCFC;}
	.st2{fill:#B21F36;}
	.st3{fill:#6B230A;}
	.st4{fill:#F3F3F3;}
	.st5{fill:#5C1C07;}
	.st6{fill:#8E1830;}
	.st7{fill:#F16866;}
	.st8{fill:#AA4B2C;}
	.st9{fill:#FDD228;}
	.st10{fill:#C9C6BE;}
	.st11{fill:#DFDFDF;}
	.st12{fill:#9C9689;}
	.st13{fill:#FC771B;}
	.st14{fill:#FDE43B;}
	.st15{fill:#E6E6E6;}
	.st16{fill:#FFFFFF;}
</style>
<g>
	<g>
		<g>
			<path class="st0" d="M65,247.5c-3.7-0.8-6.5-3.2-9.3-5.5c-1.6-2.8-3.7-5.1-6.4-7c-3.3-2.3-5-5.8-6.1-9.5
				c-6.3-21.2-12.7-42.5-19-63.7C21,150.9,17.8,140,14.7,129c-1.7-6.2-1.6-12.5,1.1-18.5c1-2.1,1.1-3.7-0.3-5.9
				c-2.7-4.3-1.6-9.9,2.6-14.4c4.6-5,10.2-8.5,16.3-11.1c9.4-4.1,19.1-7.2,29.3-8.7c0.8-0.1,1.3-0.6,1.8-1.1
				c5.2-5.5,17.9-6.2,22.6-0.5c0.7,0.9,1.6,0.5,2.5,0.6c5.8,0.3,11.6,1.1,16.9,3.8c5.5,2.8,8.5,7.1,7.8,13.4c-0.1,0.8-0.1,1.5,0.6,2
				c4.1,3.5,7.6,7.5,10.3,12.5c0.9-4.1,1.8-8.2,2.6-12.3c2.2-10.4,4.5-20.6,11.6-29.1c5.1-6.2,11-11.4,17.4-16.2
				c2.4-1.8,4.9-3.6,7.3-5.4c1.2-0.9,2-2.2,2.7-3.4c0.6-1.1,0.8-1.8-0.3-2.8c-2-1.9-1.9-5.5,0.3-7.2c1.1-0.9,1.1-1.6,0.9-2.8
				c-0.4-1.9,0.1-3.9,0.4-5.8c0.5-3.1,0.9-6.2,1.7-9.2c1-3.8,3.6-6,7.5-6.5c5.4-0.8,10.8,0.2,16.1,1c7.2,1.2,14.3,2.5,21.2,5.2
				c7.1,2.8,8.9,5.8,7.6,13.2c-0.7,4-1.3,8.1-3,11.9c-0.3,0.8,0,1.2,0.2,1.8c1.5,3.4,0.4,6.5-3,7.8c-1.6,0.6-1.5,1.3-1.1,2.6
				c1,3.6,3.4,6.5,5.4,9.6c6.6,10.2,12,21,14.2,33.2c1.1,6.3,0,12.4-1.3,18.5c-2.1,9.8-4.1,19.7-6.3,29.5
				c-1.6,6.8-3.3,13.6-4.2,20.4c-0.9,7.2-4.8,12.7-7.6,18.9c-4.2,9.4-4.8,19.1-2.2,29c1.5,5.8,2.3,11.7,1.8,17.8
				c-0.8,8.6-3.9,16-11.1,21.3c-7,4.1-14.1,4.1-21.4,0.7c-2-1.3-3.9-2.7-5.5-4.5c-0.6-0.7-1-0.9-2-0.3c-3.8,2.4-8,3.7-12.5,3.9
				c-3.9,0.2-8-0.2-11.4-1.9c-3.9-1.9-7.5-4.6-10-8.4c-0.3-0.5-0.7-1.2-1.5-0.4c-2,1.8-4.7,2.3-6.8,3.6c-4.8,3.2-10.1,5.3-15.2,7.8
				c-8.2,2.9-16.5,5.3-25.1,6.6c-5.8,0.9-11.7,0.9-17.6,0.6C72.2,249.6,68.6,248.3,65,247.5z M173.5,27c-0.9-1.2-0.9-1.2-1.8-0.7
				c-2,1.2-1.6,2.8,0.9,4.3c1.2,1,2.6,1.4,4.1,1.7c8.9,3,18.1,4.9,27.5,5.4c2.9,0.7,5.9,0.6,8.9,0.1c0.5,0,1,0.1,1.4-0.1
				c1.4-0.4,2.5-1,2-2.8c-0.5-1.9-1.7-1.4-3-0.9c-1.3,0.6-2.6,0.5-4,0.6c-1.5,0.1-2.9-1-4.4-0.5c-9.2-1.1-18.3-2.9-27.1-5.6
				C176.6,27.8,175.1,27.3,173.5,27z M64.3,242.1c1.6,1.1,3.3,1.3,5.1,1.5c3.7,0.9,7.5,1.5,11.4,1.3c0.6,0,1.2,0,1.8,0
				c9.9,0.4,19.4-1.6,28.6-4.9c4.3-1.1,8.3-3.1,12.3-4.9c5.1-2.3,9.9-5.3,14.5-8.4c1.3-0.9,2.1-2,2.3-3.6c0-0.4,0.1-0.9-0.4-1
				c-0.2,0-0.6,0.2-0.8,0.3c-1.6,1.2-3.1,2.5-4.8,3.5c-2.6,1.6-5,3.6-8.2,3.9c0.1-0.1,0.1-0.2,0-0.3c1.4-0.9,2.7-1.7,4.1-2.6
				c4.1-2.5,8.4-4.6,11-8.8c-3.9,2.7-7.6,5.5-11.7,7.8c-3,1.5-5.9,3-8.9,4.4c-3.5,1.2-6.9,2.8-10.5,3.8c-10.1,3-20.5,4.8-31.1,5
				c-5.9,0.1-11.7-0.8-17.5-1.9c-1.4-0.6-2.7-1.2-5-0.9c2.1,0.9,3.1,2.4,5,2.1c5.2,1.6,10.6,1.9,16,2.3c0,0.2,0.1,0.5,0.1,0.7
				c-2.6,0.5-5.2,0.5-7.7-0.2c-1.9-0.3-3.7-0.6-5.6-0.9c-1.3-0.1-2.4-0.9-3.9-0.6C61.6,241.1,62.5,242.3,64.3,242.1z M95.2,162.5
				l-0.1-0.1L95.2,162.5c3-3.2,6.1-6.4,9.1-9.6c1.5-1.3,3-2.7,4.5-4c3.3-2.8,6.6-5.5,9.9-8.3c3.1-1.7,6.2-3.5,9.4-5.2
				c1.3-0.1,1.7-0.8,1.4-2.1c-1.5-6-3-12-4.5-17.9c-0.4-1.5-1-2.2-2.5-1c-3.1,1.2-5.8,3.1-8.3,5.4c-1.6,0.9-2.9,2-4.2,3.3
				c-7.9,7.5-15.5,15.2-23.6,22.6C72.6,158.1,57,165.4,37.8,161c-2.4-0.9-4.8-1.8-7.2-2.7c-0.7-0.6-1.4-1.2-2.6-1.5
				c3.2,11,6.3,21.9,9.4,32.7c0.3,1.2,1,1.6,2,1.8c2.2,0.9,4.6,1.1,6.9,1.4c1.1,0.2,2.3,0.3,3.4,0.1c6.4,0,12.3-1.5,17.8-4.8
				c9.8-5.5,17.3-13.7,24.5-22.1C93.3,164.9,94.3,163.8,95.2,162.5z M116.6,149.5c0.3,0,0.5,0,0.8,0.1c-3.1,3.1-6.3,6-9.1,9.3
				c-4.6,5.6-9,11.4-13.3,17.3c-8.1,10.8-16.3,21.5-29.5,26.6c-4.2,1.1-8.4,2.1-12.7,2.1c-0.8,0-1.7-0.1-2.5-0.1
				c-2.1-0.5-4.3-0.9-6.4-1.4c-0.7-0.4-1.3-1.3-2.1-0.9c-0.6,0.3-0.2,1-0.1,1.5c2.3,7.5,4.5,15,6.9,22.5c0.8,2.5,2.5,4.5,5,5.4
				c3.4,1.3,6.9,2.6,10.6,2.9c7.5,1.6,15,2,22.6,0.9c5.6-0.1,10.9-1.3,16.3-2.9c3-0.3,5.9-1.4,8.7-2.3c8.1-2.8,16-6.2,22.9-11.3
				c0.3-0.4,0.6-0.7,0.9-1.1l0,0c2.9-0.9,4.6-3.2,6.7-5.1c4.4-4,5.1-8.9,3.6-14.5c-3.6-13.7-6.8-27.6-10.4-41.3
				c-1.4-5.4-2.4-11-4.4-16.3c0.2-1-0.3-1.9-0.5-2.9c-0.2-1.1-0.8-0.7-1.4-0.2c-3.7,1.5-6.9,3.8-9.9,6.4c-2.6,1.7-4.9,3.8-7.1,5.9
				c-8.2,6.8-15,14.8-22,22.7c-0.9,0.9-1.7,1.7-2.6,2.6c-7.5,8-15.7,15.1-26.2,18.9c-0.2,0.1-0.5,0.2-0.7,0.2
				c-1.8,0.4-3.6,0.7-5.4,1.1c-4.8,0.6-9.6,0.2-14.3-1.1c-0.4-0.5-1-0.7-1.5-0.4c-0.7,0.4-0.1,1,0,1.5c0.4,1.6,0.9,3.1,1.3,4.7
				c0.2,1,0.9,1.2,1.8,1.2c3.6,1.5,7.4,1.8,11.3,1.4c3.8,0.2,7.4-0.6,10.9-2.1c0.2-0.1,0.5-0.2,0.7-0.3h0.2l0.1-0.1
				c1,0,1.8-0.6,2.7-1c10.4-5.1,17.2-14,23.9-22.9c6.9-8.2,13.4-16.8,21.1-24.2C114.4,151.2,115.5,150.4,116.6,149.5z M39,103.2
				c0.3,0.5,1,0.7,1.1,0.2c0.2-0.8-0.7-0.9-1.3-1c-1.3-0.4-1.5-1.5-1.9-2.6c0.6-0.8-0.6-2.2,0.8-2.8c0.6,0.7-0.1,1.8,0.6,2.5
				c0.1,1,0.9,1.5,1.7,1.9c6.1,3.2,18,2.8,23.1-4.5c0.8-0.8,1.7-1.6,2.5-2.4c2.6-0.8,5.2-1.7,7.8-2.3c6-1.4,10.1-5.2,12.8-10.5
				c0.9-1.7,1.3-3.5,0.8-5.4c0-3.2-1.7-5.3-4.5-6.4c-4.8-1.8-9.5-1.2-13.7,1.7c-4.5,3.2-6.7,8.1-9.2,12.8c-0.2,0.4-0.3,1,0.3,1.3
				c-0.5,1.7,1.3,3.1,0.7,4.8c-1.4,1.8-2.7,3.6-4.1,5.4c-0.8,0.8-1.7,1.5-2.5,2.3c-2.5,2.1-5.3,3.3-8.7,3.1c-0.3-0.1-0.7-0.2-1-0.4
				c-0.3-0.1-0.6-0.1-0.9-0.2c-3.8-1.8-4.1-2.5-2.6-5.9c0.8,0.3,1.5,0.3,2.4-0.2c3.4-2.4,7.1-4.2,11.1-5c3.6-0.8,3.4-3.6,4.9-6.3
				C57,84,55.6,84.5,54.1,85c-0.8,0.2-1.6,0.4-2.4,0.7c-0.3,0-0.7,0-1,0.1c-0.2-0.2-0.4-0.4-0.5-0.5c2.4-0.9,4.7-1.8,7.1-2.8
				c2.6,0.3,2.8-1.8,3.7-3.5c-1.3-0.3-2.2,0.1-3.1,0.7c-3.3,1.1-6.6,2.2-10,3.1c-3,0.8-5.7,2.4-8.9,2.4c0.5-0.9,1.4-1.1,2.2-1.4
				c6.3-2.5,12.7-4.7,19.3-6.2c1.6-0.4,2.4-1.1,3.1-2.7c-10.7,2-20.7,5-30.2,9.7c-4.8,2.3-9.2,5.3-12.6,9.5c-2,2.4-2.1,5-0.9,7.8
				c0,2.4,1.8,3.6,3.6,4.6c4.7,2.6,9.8,3.4,15.1,3.6c1.3,0.3,2.6,0.4,3.9,0.1c0.2,0,0.5,0,0.7,0c0.6,0.3,1.2,0.2,1.8,0.1
				c0.6,0,1.3,0,1.9,0c0.8,0,1.6,0.1,2.4,0.1c10.2-0.2,20.1-2,29.9-4.7c7.6-2.1,15.2-4.6,21.8-9.1c3.3-1.4,6-3.6,8.2-6.4
				c1.6-2,2.7-4.3,1.5-7c0-2.6-1.7-4.2-3.7-5.4c-5.7-3.5-12.2-4-18.8-4.3c0.2,1,0.4,1.7,0.5,2.4c0,0.3,0,0.5,0,0.8
				c0.2,2.2,0.4,4.4,3.6,3.8c0,0,0.1,0.2,0.1,0.4C91.6,81.3,90.8,81,90,81c-0.9,0-1.4,0.2-1.8,1.1c-3,7.1-8.5,11.2-16,12.7
				c-4.2,0.8-6.2,4.1-9.1,7.4c1.8-0.2,3-0.4,4.2-0.5c0.2,0.3,0.5,0.6,0.7,0.8c-11.4,2.7-22.9,3.8-34.5,1.9c-2.9-0.5-5.7-1.4-8.1-3
				c-2.8-1.8-3-4.5-0.7-6.9c0.1,1.8-2.1,4,1,5.1c1.7,1,1.3-0.7,1.8-1.4c1.5-1.7,2.9-3.4,5-4.6c0,0.3,0,0.5,0.1,0.8
				C31.7,95.2,30.8,96,30,97c-1,1.2-2.8,2.7-2.1,4.1c0.7,1.5,2.9,1.4,4.6,1.5C34.5,103.7,36.8,103.1,39,103.2z M206.7,41.3
				c-0.8-0.3-1.6-0.5-2.5-0.3c-9.1-0.7-17.9-2.6-26.6-5.2c-1.2-0.7-2.6-1-3.9-1.4c-0.7-0.5-0.9-0.1-1.2,0.5
				c-1.3,3.3-3.9,5.6-6.6,7.8c-2.5,1.9-4.9,3.8-7.4,5.7c-7.7,6-14.6,12.7-19.4,21.3c-1.1,2-2.1,4.1-2.3,7.1c1.6-1.2,3.6,0.2,4.6-1.7
				c1.5-3.3,3.3-6.3,5.7-9.1c3.3-3.8,6.7-7.4,10.4-10.8c0.4-0.4,0.8-1,1.4-0.4c0.3,0.3,0.2,0.8-0.1,1.1c-0.6,0.3-0.8,0.9-0.8,1.5
				l-0.1,0.1c-3.2,1.8-5,5-7.5,7.4c-1.3,1.2-2.6,2.7-3.1,4.5c-1.6,2-2.8,4.3-3.7,6.7c-1.5,4.4-1.4,4.7,3.1,6c3.5,1.8,7.3,2.8,11,4
				c8,2.5,16.2,4.5,24.4,6.1c7.3,1.4,14.6,3.2,22.2,3.3c5.9,1.2,11.8,1.2,17.8,1.5c2,0.1,2.5-0.6,2.5-2.5c0.2-9.6-3.6-18.2-7.2-26.7
				c0.1-0.8-0.6-1.1-1-1.6c-0.3-0.7-0.5-1.5-0.8-2.2c0.3-1.5-1.2-2.5-1.2-4c1.2,0,1.4,1,1.7,1.6c2,4.1,3.8,8.4,6,12.4
				c2.6,4.9,4.4,10.1,4.7,15.5c0.2,3.5,2.2,4.4,4.7,5.8c0.3-4.4,0.2-8.6-1-12.6c-2.6-9.4-6.9-18-11.9-26.2
				c-2.8-4.6-6.4-8.7-6.7-14.5c0-1.2-1-0.7-1.7-0.6C209,41.3,207.9,41.3,206.7,41.3z M209.2,155.5c1.8-0.2,3.6-0.2,5.3-0.5
				c4.6-0.7,5-1.1,5.8-5.9c1.6-7.7,3.3-15.5,4.9-23.2c1.6-7.7,3.2-15.4,4.8-23.2c0.3-1.3,0.9-2.6,0.7-3.7
				c-16.7,2.4-32.8-0.7-48.9-3.8c-16-3.1-31.9-6.8-46.3-15.3c-0.2,1.4-0.4,2.7-0.6,3.9c-0.6,2.4-1.2,4.7-1.7,7.1
				c-1.1,5.6-2.2,11.1-3.3,16.7c-0.6,1.5-1.3,3.1-0.8,4.7c2,7.6,3.5,15.4,5.8,22.9c-0.1,1.3,0.7,2.4,0.8,3.6
				c0.3,2.3,1.5,3.6,3.8,4.4c11.5,4.4,23.3,7.6,35.5,9.7c8.9,1.5,17.8,2.9,26.9,2.8C204.3,155.9,206.7,156.2,209.2,155.5z
				 M120.7,101.8c-1.1-2.2-2.4-4.4-4.1-6.2c-1.5-1.5-2.6-3.6-4.8-4.2c-4.7,5.3-10.7,9-17.1,11.7c-17.9,7.7-36.7,11.3-56.2,9.9
				c-5.4-0.4-10.8-1.1-15.6-3.9c-1.5-0.9-1.6-0.1-1.7,1.1c-2.5,4.6-3.3,9.5-2.3,14.7c0,0.5,0,1,0.1,1.4c2.5,8.8,5.1,17.7,7.7,26.5
				c0.4,1.2,1.2,1.9,2.4,2.1c2.3,1.3,4.7,2.3,7.3,2.7c0.7,0.3,1.3,0.8,2.1,0.6c4.2,1.1,8.5,1.3,12.8,1c1.8,0.1,3.6-0.3,5.3-0.6
				c10.8-2.1,19.7-7.9,27.8-14.9c10-8.8,18.8-19,29.4-27.1c2.6-1.8,5.3-3.5,8.4-4.5c0.8-0.2,2.1,0.1,1.7-1.4
				C122.9,107.6,122.6,104.4,120.7,101.8z M209.3,13.9c-0.2,0-0.3,0-0.5-0.1c-0.6,0-1.1-0.1-1.7-0.1c-0.4,0-0.8-0.1-1.2-0.1
				c-4.6-0.8-9.2-1.7-13.9-2.5c-3.3-1.2-6.7-2.1-10.2-2.9c-1.7-0.3-3.4-0.8-4.8-1.8c-1.5-1-1.9-0.2-2.1,1c-0.6,3-1.2,6.1-1.7,9.2
				c-0.3,2-0.9,4,0.1,6c1,1.8,3,1.9,4.7,2.6c4.5,1.9,9.1,3.1,14,3.7c1.9,0.8,4,0.9,6,1.2c4.9,0.8,9.7,1.3,14.7,1.1
				c3.4-0.1,4.1-0.8,4.9-4c0.6-2.8,1.2-5.6,1.7-8.4c0.9-5.6,0.8-4.7-4.1-4.2C213.1,14.3,211.2,14.1,209.3,13.9z M212.8,9.8
				c-0.5-0.8-1.3-0.9-2.1-1.1c-3.1-0.8-6.1-1.7-9.2-2.3C195.8,5.3,190,3.9,184.1,4c-2.5-0.2-5-0.5-7.3,1.2
				c13.5,4.2,27.1,7.1,41.3,7.3C216.6,11,214.9,9.9,212.8,9.8z M146.2,224.3c1.2-3,2.2-0.3,2.8,0.3c6.1,6.9,15.9,8.3,23.8,3.7
				c1.5-0.9,2.9-1.8,4.2-2.9c0.5-0.5,2.1-1,2-0.8c-0.3,2.2,1.7,1.3,2.5,1.9c0.9,0.7,1.8,1.2,1.3,2.5c-0.5,1.2,0.2,1.7,1,2.2
				c1.7,0.8,3.4,1.8,5.1,2.3c6.8,2,11.5-0.4,13.7-7.2c2-6,1.9-12.1,0.7-18.2c-0.8-4.5-2.2-8.9-2.6-13.4c-1.1-13,3.9-24.1,11.2-34.5
				c0.3-0.4,1.1-0.8,0.7-1.4c-0.4-0.7-1.2-0.3-1.8-0.2c-3.1,0.6-6.1,0.9-9.2,0.8c-1.1-0.1-2.3-0.4-3.4-0.4
				c-12.3-0.3-24.2-2.6-36.2-5.3c-6.1-1.4-12-3.5-18.1-5c-2.2-0.9-4.3-1.9-6.9-2.9c1.3,4.8,2.4,9.2,3.6,13.6
				c3.3,13.3,6.6,26.6,9.8,40c1.2,5.1,0.5,9.9-2.6,14.2c-1,1.4-2,3-1.9,5c-1.1,1.8-1.4,3.9-1.4,6c0,1-1.3,1.8-0.4,2.9
				c9,12.2,23.1,13.3,34.7,2.7c0.5-0.5,1.6-1.2,0.5-2.2c-0.9-0.8-1.7-1.2-3-0.2c-2.4,2-5.2,3.4-8.2,4.3c-8,2.6-16,0-20.9-6.8
				C147.2,224.6,146.9,224.3,146.2,224.3z M219.2,157.6c-3.5-0.1-5.2,1.8-6.8,4.4c-2.9,4.6-4.6,9.5-6.4,14.5c-2.9,8-3.7,16-1.4,24.3
				c2,7.1,3,14.4,1.7,21.9c-0.5,2.7-1.8,5.1-2.5,7.7c-1,3.7-2.6,5.1-6.2,4.7c-0.5,0-0.9,0.2-1.4,0.3c-4.9,1.1-9.2,0.1-12.9-3.3
				c-0.9-0.8-1.4-0.8-2.1,0.1c-0.6,0.8-1.2,1.1-0.2,2.3c8.1,9,20.7,8,26.9-2.4c4.6-7.7,4.3-15.9,2.6-24.3
				c-1.1-5.4-2.6-10.8-2.6-16.4c0-10.1,3.8-19,8.9-27.4C217.9,162,218.8,160,219.2,157.6z M227.6,96.9c0.6-0.2,1.5,0.2,1.5-0.7
				c0-0.8-0.9-1.1-1.6-1.3c-0.9-0.2-1.3,0.7-1.3,1.4C226.3,97.2,227.1,96.8,227.6,96.9z"/>
			<path class="st1" d="M118.6,242.6c5.1-2.6,10.4-4.6,15.2-7.8c2-1.4,4.8-1.9,6.8-3.6c0.8-0.7,1.2-0.1,1.5,0.4
				c2.5,3.8,6.1,6.5,10,8.4c3.5,1.7,7.5,2.1,11.4,1.9c4.5-0.2,8.7-1.6,12.5-3.9c1-0.6,1.4-0.4,2,0.3c1.6,1.8,3.6,3.1,5.5,4.5
				c-0.1,1.3-1.1,1.4-2.1,1.4c-20.3,0-40.6,0-60.9,0C119.5,244.1,118.5,244,118.6,242.6z"/>
			<path class="st2" d="M65.4,202.7c13.2-5.1,21.4-15.7,29.5-26.6c4.3-5.8,8.7-11.7,13.3-17.3c2.8-3.3,6-6.2,9.1-9.3
				c1.2-0.8,2.8-1.3,3.2-3l0,0c0.5,0,1,0,1.5,0c0.1,3.7,1.4,7.2,2.2,10.8c2.9,14,5.9,28,8.6,42.1c1.6,8.7-0.9,15.6-7.4,21.2
				c-4.9,4.1-10.3,7.5-16.6,9.2c-1.6,0.4-3.1,1.1-4.6,1.7c-0.6,0.2-1.3,0.3-1.3,1.2c-5.3,1.6-10.7,2.8-16.3,2.9
				c-3.7-1.6-7.7-1.6-11.7-1.9c-2.9-0.2-5.9,0.4-8.8-0.4c-1-0.3-2,0-2.1,1.4c-3.7-0.3-7.2-1.6-10.6-2.9c-2.5-0.9-4.2-2.9-5-5.4
				c-2.4-7.5-4.6-15-6.9-22.5c-0.2-0.5-0.5-1.3,0.1-1.5c0.9-0.4,1.5,0.5,2.1,0.9c0,2.3,0.8,4.3,1.5,6.4c1.9,5.5,2.9,11.2,5.5,16.5
				c2.7,5.5,8.6,7.3,13.4,6.2c-0.2-0.8-0.9-0.8-1.5-1.2c-2.7-1.7-4.9-4-6.3-7c-3-6.2-4.1-13-6.3-19.5c0.8,0,1.7,0.1,2.5,0.1
				c-0.2,1.1,0.2,2.1,0.6,3.1c2.1,5.7,3.9,11.4,6.1,17.1c1.1,2.9,3,4.6,5.7,5.7c2.7,1.1,5.6,1,8.4,1.7c0.4,0.1,1,0.1,1.3-0.5
				c0.2-0.5-0.2-0.9-0.5-1.3c-0.7-0.9-1.5-1.8-1.9-2.8C69.4,219.5,66.7,211.3,65.4,202.7z M107.3,175.6c0,0.5,0.3,0.5,0.6,0.5
				c3.5,0.9,5.7,0.1,6.4-2.4c1.9-2.5,1.6-5.2-0.9-6.8c-2.3-1.6-6.5-0.6-8,2C103.9,171.4,104.7,174.2,107.3,175.6L107.3,175.6z
				 M118.8,158.3c-0.8,0.1-1.3,0.5-1.3,1.4c0,0.7,0.5,1.3,1.2,1.3c0.9,0,1.5-0.6,1.5-1.6C120.1,158.7,119.6,158.4,118.8,158.3z"/>
			<path class="st2" d="M134.9,135.3c-2.3-7.5-3.8-15.3-5.8-22.9c-0.4-1.6,0.3-3.2,0.8-4.7c1.3,0.2,1.7-0.6,2-1.7c0.7-3,1.2-6,2-9
				c1-3.9,1.1-8,3.5-11.5c3.3,1.5,6.5,3.2,9.8,4.5c15.8,5.9,32.2,9.5,48.8,11.8c7,1,13.9,2.1,21,1.8c1.3,0.2,2.6,0.2,4-0.1
				c3.1,0.3,6-0.5,9-0.8c-1.6,7.7-3.2,15.4-4.8,23.2c-1.6,7.7-3.3,15.5-4.9,23.2c-3.5,0.8-7,1.5-10.7,1.6c-1,0-2,0-3,0
				c-9.3-0.2-18.4-1.4-27.6-2.7C163.8,145.9,148.9,142,134.9,135.3z M175.6,137.8c6.8,0,12.7-1.6,17.6-5.7
				c8.4-7.1,8.4-18.9-2.1-23.4c-10.1-4.4-20.2-3.9-29.6,2.1c-9.1,5.8-9.2,16.2-0.5,22.6C165.5,136.6,170.6,137.7,175.6,137.8z"/>
			<path class="st3" d="M144.1,148.7c6.1,1.5,12,3.6,18.1,5c11.9,2.6,23.9,5,36.2,5.3c1.1,0,2.3,0.3,3.4,0.4c-0.3,1.4-1.3,2-2.6,2.6
				c-3.6,1.7-6.9,3.5-7.4,8.4c-0.4,3.9-1.1,8.2-5.5,11c2.1,0,2.8,0.8,2.9,2.4c0,0.4,0.6,0.9,1,1c2.2,0.6,1.8,2.1,1.5,3.7
				c-0.5,2.4-0.5,4.9,0,7.3c1,4.7,1.9,9.3,0.2,13.9c-0.3,0.9-0.1,2.7-1.6,2.2c-1.9-0.6-2.5,0.7-2.9,1.7c-0.8,2-1.8,4-3.3,5.6
				c-0.5,0.5-0.6,1,0,1.4c0.5,0.3,1,0,1.2-0.4c0.8-1.6,2.9-2.4,2.8-4.7c-0.1-0.8,1-1.4,1.7-2c0.5-0.4,0.8-0.3,1.1,0.4
				c1.4,3.9-0.9,9.3-4.8,10.6c-1.7,0.6-3.6,1.2-4.6-1.2c-0.2-0.6-0.8-1-1.3-0.9c-2.3,0.7-4.8,0.2-7.1,1.4c-2.9,1.6-5.9,3.3-9.3,3.4
				c-5.1,0.2-9.3-1.9-12.9-5.4c-1.4-1.3-2.5-3.2-4.6-3.4c-0.2-1.9,0.8-3.5,1.9-5c3.2-4.4,3.8-9.2,2.6-14.2
				c-3.2-13.3-6.5-26.6-9.8-40c0.6,0,1.6,0.3,1.7-0.5C143,155.4,145,152.3,144.1,148.7z M187,190.7c0-2.7-1.2-3.8-3.5-3.7
				c-2.2,0.1-3.7,1.4-4.2,3.4c-0.5,2.1,0,4.2,1.7,5.8c0.6,0.5,1.7,1,2.2,0.4C184.8,194.7,187.5,193.4,187,190.7z"/>
			<path class="st2" d="M113.7,116.6c-10.6,8.2-19.3,18.4-29.4,27.1c-8.1,7.1-16.9,12.9-27.8,14.9c-1.8,0.3-3.5,0.7-5.3,0.6
				c-0.2-2.1-1.8-3.9-1.4-6.1c2.5-0.1,4.2-1.5,5.5-3.6c2-3.1,2.4-3.1,5.3-1c1.9,1.4,4,1.4,5.8-0.1c0.9-0.7,1.6-1.7,2.3-2.6
				c0.3-0.4,1.5-0.3,0.8-1.3c-0.5-0.7-1.4-0.6-2-0.4c-0.6,0.2-1,0.8-1.5,1.2c-1.8,1.8-2.8,1.8-4.5,0c-0.6-0.7-1.2-1.4-2-1.7
				c-2.7-1.2-4.6-0.4-6.7,2.7c-2.3,3.5-3.5,3.5-5.6,0.2c-0.5-4.7-2.2-9-3.7-13.4c-0.5-1.4-1.7-1.9-3.1-2c-2.4-0.1-4.9-0.3-7.3-0.5
				c-2.6-0.2-2.9,0.1-2.6,2.7c0.1,0.6,0.3,1.3,0.4,1.9c1.2,4,2.4,7.9,3.6,11.9c-0.1,0.3-0.1,0.5-0.2,0.8c0,0.8,0,1.7,0,2.5
				c-0.9,0-0.9-0.8-1.2-1.3c-2.8-5.6-3.7-11.7-4.7-17.8c-0.8-4.8-4.2-7.9-7.4-11c1.3-2.5,3.4-4.9,1-7.8c0.6,0.2,1.3,0.4,1.8,0.7
				c4.2,2.5,8.9,3.5,13.6,3.7c10.9,0.4,21.8-0.1,32.7-2.3c12.4-2.5,24.3-6.3,35.6-12.1c1.6-0.8,2.5-2.7,4.5-2.8c0.2,0.7-0.9,1.3,0,2
				c-1.8,2.2-4.2,3.6-6.8,4.4c-1.1,0-2.1-0.1-3.1,0.5c-3.6,2.3-7.6,3.7-11.6,5.1c-1.7,0.6-3.6,1.3-5.2,3.4c7.4-2,14-4.5,19.8-8.6
				c1.5,1.1,3.3,0.1,4.9,0.7C112.5,109.1,112.8,113,113.7,116.6z M35.5,126.9c2.9-0.1,5.9,0.1,8.7-1c8.7-0.3,16.9-2.7,24.7-6.5
				c-4.2-0.6-8.3,0-12.4,0.4c-3.3,0.3-6.8,0.7-10,0c-5.2-1.2-10.4-1.6-15.7-0.5c-2.1,0.4-2.6,2.3-2.9,4.1c-0.2,1.9,1.2,2.4,2.7,2.9
				C32.3,126.8,33.9,127.1,35.5,126.9z"/>
			<path class="st1" d="M37.8,161c19.2,4.4,34.8-2.9,48.6-15.4c8.1-7.3,15.7-15,23.6-22.6c1.3-1.2,2.6-2.4,4.2-3.3
				c2.4,5.4,2.2,11.5,4,17c0.4,1.3,0.6,2.6,0.5,3.9c-3.3,2.8-6.6,5.5-9.9,8.3c-1.5,1.3-3,2.6-4.5,4c-3.6-0.2-5.2,2.5-7.2,4.8
				c-1.1,1.3-2.4,2.7-1.9,4.8l-0.1-0.1l0.1,0.1c-2.7-0.2-3.1,0.2-3.1,3.3c-7.2,8.4-14.7,16.6-24.5,22.1c-0.9-1.6-2.5-1.2-3.6-0.6
				c-4.5,2.3-9.2,3.4-14.2,2.6c-1.3,0.4-2.2-0.9-3.4-1c-1-0.7-1.5-1.7-1.9-2.7c-3-7.1-4.7-14.5-6.8-21.9
				C37.3,163.4,36.2,162,37.8,161z"/>
			<path class="st3" d="M147.2,69.3c0.5-1.9,1.8-3.3,3.1-4.5c2.6-2.4,4.4-5.6,7.5-7.4c0.7,1.4,2.4,1.8,3.2,3.1
				c-0.4,0.4-0.8,0.8-1.2,1.2c-2,2.1-4.2,4-4.9,6.9c-0.4,1.6-0.3,3.1,1.2,4.2c2.3,1.8,6.5,1.3,8.2-1.1c1.1-1.5,2.3-2.8,3.6-4
				c1.2-1.1,1.8-2.2,1.9-3.8c0.9,0.2,1.7,0.4,2.6,0.5c8.8,1.5,17.6,2.9,26.4,4.4c4.1,0.7,8.2,0.6,12.3,0.5c0.3,2.2,0.9,4.3,1.2,6.5
				c0.4,2.8-0.3,6.1,3,8.1c1.2,0.7,0.6,2.7,0.1,4.1c-0.6,1.6-1.4,1.2-2.6,0.8c-0.3-0.1-1.1,0.3-1,0.9c0.7,2.8-1.8,2.8-3.2,3.8
				c-1.3,1-3.4,0.4-4.4,2c-7.5-0.1-14.8-1.9-22.2-3.3c-8.2-1.6-16.4-3.6-24.4-6.1c-3.7-1.2-7.5-2.2-11-4c-1.5-3.6-1.3-7.1,0.6-10.5
				C147.7,70.8,148,70,147.2,69.3z M155.1,81.9c1.1,0,2.1-0.8,2.2-2.3c0.2-1.9-1.4-3.7-3.2-3.6c-1.7,0-3,0.7-3.1,2.7
				C151,80.5,152.5,81.8,155.1,81.9z M211,88.9c-0.4-0.6-0.7-1.3-1.1-1.9c-0.3-0.4,0-1.6-1.1-1.2c-0.8,0.3-0.7,1.2-0.6,1.9
				c0.1,0.9,0.8,1.4,1.4,1.9C210.4,90.1,210.8,89.7,211,88.9z M215,85.4c-0.1-0.7-0.5-1.3-1.3-1.3c-0.8-0.1-1,0.6-0.9,1.2
				c0.1,0.7,0.2,1.6,1.3,1.4C214.8,86.6,215,86.1,215,85.4z"/>
			<path class="st4" d="M177.7,35.8c8.7,2.6,17.5,4.5,26.6,5.2c0,0.7,0,1.5,0.5,2.1c1.2,1.5,1.4,3.1-0.4,5.5c2.6-1.3,3.5-0.6,4,1.2
				c0.2,0.6,0.7,1.4,1.6,1c0.8-0.3,1.4-1,1-2c-0.3-0.7,0-1.7-0.8-2.2c0-1.8,0-3.6,0.1-5.3c0.6,0,1.6-0.6,1.7,0.6
				c0.2,5.8,3.9,9.9,6.7,14.5c5.1,8.2,9.3,16.9,11.9,26.2c1.1,4.1,1.2,8.2,1,12.6c-2.5-1.4-4.5-2.3-4.7-5.8
				c-0.3-5.4-2.1-10.6-4.7-15.5c-2.2-4-4-8.3-6-12.4c-0.3-0.7-0.5-1.6-1.7-1.6c0,1.5,1.4,2.5,1.2,4c-1.8-0.7-3.4-1.9-5.3-2
				c-2.4-0.9-4.8-1.3-7.4-1.3c-5.5-0.7-11.2-0.6-16.7-1.9c-3.9-0.9-7.8-2.4-11.9-2.7c-5.1-1.5-10.3-1.2-15.5-0.2
				c0.3-0.3,0.4-0.9,0.1-1.1c-0.6-0.5-1,0.1-1.4,0.4c-3.7,3.4-7.1,7-10.4,10.8c-2.4,2.8-4.2,5.8-5.7,9.1c-0.9,1.9-2.9,0.5-4.6,1.7
				c0.2-2.9,1.2-5,2.3-7.1c4.8-8.6,11.7-15.3,19.4-21.3c2.5-1.9,4.9-3.8,7.4-5.7c2.7-2.1,5.3-4.4,6.6-7.8c0.3-0.6,0.5-1,1.2-0.5
				c-0.1,1.4-0.1,2.7-0.2,4.1c-0.7,0.8-1.6,1.5-1.8,2.7c-1.3,1.3-2.7,2.5-4.4,4.2c2.6-0.1,3.3-2,4.5-3c2.4-0.3,3.4-1.8,3.8-4
				C176.4,37.5,177,36.6,177.7,35.8z"/>
			<path class="st5" d="M146.2,218.5c2.2,0.3,3.2,2.1,4.6,3.4c3.6,3.5,7.8,5.6,12.9,5.4c3.4-0.1,6.4-1.9,9.3-3.4
				c2.3-1.3,4.8-0.7,7.1-1.4c0.6-0.2,1.1,0.3,1.3,0.9c1,2.3,2.9,1.8,4.6,1.2c3.9-1.4,6.2-6.8,4.8-10.6c-0.2-0.6-0.6-0.8-1.1-0.4
				c-0.7,0.6-1.8,1.2-1.7,2c0.1,2.3-2,3.1-2.8,4.7c-0.2,0.5-0.7,0.8-1.2,0.4c-0.6-0.4-0.5-1,0-1.4c1.5-1.6,2.4-3.5,3.3-5.6
				c0.4-1.1,1-2.4,2.9-1.7c1.5,0.5,1.3-1.3,1.6-2.2c1.7-4.7,0.8-9.3-0.2-13.9c-0.5-2.4-0.5-4.9,0-7.3c0.3-1.6,0.7-3.1-1.5-3.7
				c-0.4-0.1-0.9-0.7-1-1c-0.1-1.6-0.9-2.4-2.9-2.4c4.4-2.8,5-7.1,5.5-11c0.6-4.9,3.8-6.7,7.4-8.4c1.3-0.6,2.3-1.1,2.6-2.6
				c3.1,0.1,6.2-0.3,9.2-0.8c0.6-0.1,1.4-0.4,1.8,0.2c0.4,0.6-0.4,1-0.7,1.4c-7.3,10.3-12.3,21.5-11.2,34.5c0.4,4.5,1.7,9,2.6,13.4
				c1.2,6.1,1.2,12.2-0.7,18.2c-2.2,6.8-6.9,9.3-13.7,7.2c-1.8-0.5-3.5-1.5-5.1-2.3c-0.8-0.4-1.5-1-1-2.2c0.5-1.3-0.4-1.8-1.3-2.5
				c-0.8-0.6-2.8,0.3-2.5-1.9c0-0.2-1.5,0.3-2,0.8c-1.3,1.2-2.7,2.1-4.2,2.9c-8,4.7-17.7,3.2-23.8-3.7c-0.6-0.6-1.6-3.3-2.8-0.3
				c-0.5,0-1,0.1-1.5,0.1C144.8,222.3,145.1,220.3,146.2,218.5z"/>
			<path class="st6" d="M102.9,232.8c0-0.9,0.7-1,1.3-1.2c1.5-0.6,3-1.3,4.6-1.7c6.3-1.7,11.7-5.1,16.6-9.2c6.6-5.6,9-12.5,7.4-21.2
				c-2.6-14.1-5.6-28.1-8.6-42.1c-0.7-3.6-2-7.1-2.2-10.8c0.9-1.6,3.4-1.4,3.9-3.5l0,0c0.5,0.1,0.8,0,1-0.5l0,0c0.4,0,0.8-0.1,1-0.6
				c0.3-0.2,0.6-0.3,1-0.5c0.5,0.4,0.8,1,0.9,1.7c2,8.6,3.9,17.3,5.9,25.9c2.4,10.4,5,20.7,7.2,31.1c1,4.7-0.4,9-3.4,12.8
				c-1.3,1.7-3.4,2.8-4.1,4.9l0,0c-0.5,0-1-0.2-1.3,0.3c-0.2,0.3,0.2,0.6,0.4,0.7c-7,5.2-14.8,8.5-22.9,11.3
				C108.8,231.4,105.9,232.5,102.9,232.8z"/>
			<path class="st4" d="M46.8,110.1c-0.6,0-1.3,0-1.9,0c-0.5-1.2-1.1-1.2-1.8-0.1c-0.2,0-0.5,0-0.7,0c-0.4-2.5-2.5-2.3-4.2-2.7
				c-0.9-0.2-2.3-0.9-2.7,0.9c-4.7-2.1-10-2.7-14.1-6.1c-0.4-0.4-1-0.5-1.6-0.4c-1.2-2.8-1.1-5.3,0.9-7.8c3.4-4.2,7.8-7.2,12.6-9.5
				c9.5-4.7,19.6-7.7,30.2-9.7c-0.7,1.6-1.5,2.3-3.1,2.7c-6.6,1.5-13,3.7-19.3,6.2c-0.8,0.3-1.8,0.5-2.2,1.4H39
				c-0.2-0.1-0.3,0-0.5,0.1c-3.1,1-5.5,3.3-8.5,4.7c-2.2,1-3.9,2.6-5.3,4.6c-2.4,2.4-2.1,5,0.7,6.9c2.5,1.6,5.3,2.6,8.1,3
				c11.6,1.9,23.1,0.8,34.5-1.9c0.3-0.1,0.6-0.1,0.9-0.2c0.5-0.1,1-0.2,1.5-0.4c2.5-0.3,2.5-0.3,2.6-1.4h-0.1
				c-0.1,0.7,0.1,0.9,0.8,0.6l0,0c0.3,1,0.5-0.1,0.8,0h0.2c1.9-0.5,3.7-1.1,5.6-1.6c5.4-1.4,10.5-3.6,15.5-6.2
				c0.8-0.4,1.8-0.6,2.2-1.6l0,0c2.1-0.6,3.9-1.4,5-3.5l0,0c0.6,0.4,0.7-0.1,0.9-0.5c1.6-1.7,3.5-3.3,2-6.1c0.1-1.1-0.3-1.7-1.4-1.9
				l0,0c-0.1-0.6-0.5-0.7-1-0.5l0,0c-0.4-1.1-1.5-1.2-2.4-1.4c-4-1.1-8.1-2.1-12.3-2c-0.2-0.7-0.3-1.4-0.5-2.4
				c6.6,0.3,13,0.8,18.8,4.3c2,1.2,3.7,2.8,3.7,5.4c-0.7,0.2-1.1,0.7-1.3,1.3c-1.1,3.3-3.6,5.7-5.9,8.1c-0.5,0.1-1.1,0-1.4,0.2
				c-3.3,2.7-7.4,4.2-11,6.4c-1.7,1.1-3.4,1.9-5.4,2.2c-0.8-0.9-1.3-0.6-1.5,0.5c-4,1.6-8.1,2.9-12.3,3.9c0-0.8-0.1-1.6-1.2-1.4
				c-1,0.1-1.9,0.6-1.8,1.9c-1.9,0.7-3.9,0.3-5.8,0.2c-0.8,0-1.8-0.5-2.1,0.9c-0.5,0-1,0-1.5,0.1c-0.7-0.8-0.9-0.2-1,0.4
				c-1,0-1.9,0.1-2.9,0.1c-0.8-0.9-1.3-0.7-1.5,0.4c-1.7,0.8-3.4,1-5.2,1C48.1,109.2,47,108.7,46.8,110.1z"/>
			<path class="st2" d="M173.3,22.6c-1.1-2-0.5-4-0.1-6c0.5-3.1,1.1-6.1,1.7-9.2c0.2-1.2,0.7-1.9,2.1-1c1.4,1,3.1,1.5,4.8,1.8
				c-0.4,0.7-0.9,1.6,0.3,1.9c3.2,0.8,6.4,2.1,9.9,0.9c4.6,0.8,9.2,1.7,13.9,2.5c-1,3.8-2,7.5-2.9,11.3c-0.8,3.1-1.3,3.4-4.5,3.6
				c-2.2,0.1-4.4-0.6-6.5,0.4c-4.8-0.7-9.5-1.8-13.9-3.7c0-0.3,0.2-0.7,0.1-1c-2.2-3.7-1.3-7.5-0.9-11.4c0.1-1.2,1-2.4,0.1-3.9
				c-1.1,0.9-1.2,2.2-1.5,3.3C174.9,15.7,174.2,19.1,173.3,22.6z"/>
			<path class="st4" d="M219.2,157.6c-0.3,2.4-1.3,4.4-2.4,6.3c-5.2,8.4-8.9,17.3-8.9,27.4c0,5.6,1.5,11,2.6,16.4
				c1.7,8.4,2,16.6-2.6,24.3c-6.2,10.4-18.8,11.5-26.9,2.4c-1-1.1-0.4-1.5,0.2-2.3c0.7-0.9,1.3-1,2.1-0.1c3.7,3.4,8.1,4.4,12.9,3.3
				c0.5-0.1,1-0.4,1.4-0.3c3.7,0.4,5.3-1,6.2-4.7c0.7-2.6,2-5,2.5-7.7c1.3-7.4,0.3-14.7-1.7-21.9c-2.3-8.3-1.6-16.3,1.4-24.3
				c1.8-5,3.6-10,6.4-14.5C214,159.4,215.7,157.5,219.2,157.6z"/>
			<path class="st6" d="M110.3,99.8c-2,0.1-2.9,1.9-4.5,2.8c-11.3,5.8-23.2,9.6-35.6,12.1c-10.8,2.2-21.7,2.7-32.7,2.3
				c-4.7-0.2-9.4-1.2-13.6-3.7c-0.6-0.3-1.2-0.5-1.8-0.7c-0.7-0.7-0.2-1.8-1-2.5c0.1-1.1,0.3-1.9,1.7-1.1c4.8,2.8,10.2,3.5,15.6,3.9
				c19.5,1.4,38.3-2.2,56.2-9.9c6.4-2.8,12.3-6.4,17.1-11.7c0.2,2,1.2,4,0.1,6c-0.6,0.1-1.3,0.2-0.5,1
				C111.2,99,110.9,99.5,110.3,99.8z"/>
			<path class="st4" d="M230,102.7c-3,0.3-6,1.1-9,0.8c-1.4-1.7-2.7-1.7-4,0.1c-7.1,0.3-14.1-0.8-21-1.8c-16.7-2.3-33-5.9-48.8-11.8
				c-3.4-1.3-6.6-3-9.8-4.5c-0.8-0.5-1.6-1.1-2.4-1.6c0.2-1.3,0.4-2.6,0.6-3.9c14.4,8.5,30.3,12.2,46.3,15.3
				c16,3.1,32.2,6.1,48.9,3.8C230.9,100.1,230.3,101.4,230,102.7z"/>
			<path class="st4" d="M134.9,135.3c14,6.8,28.9,10.7,44.3,12.8c9.1,1.3,18.3,2.5,27.6,2.7c0,0.6-0.2,0.9-0.8,1.3
				c-1.6,1-3.2,2-4.2,3.7c-9.1,0.1-18-1.3-26.9-2.8c-12.1-2.1-24-5.3-35.5-9.7c-2.3-0.9-3.5-2.1-3.8-4.4
				C135.5,137.6,134.8,136.5,134.9,135.3z"/>
			<path class="st7" d="M65.4,202.7c1.2,8.6,4,16.8,6.9,24.9c0.4,1,1.2,1.9,1.9,2.8c0.3,0.4,0.7,0.8,0.5,1.3
				c-0.2,0.6-0.8,0.6-1.3,0.5c-2.8-0.6-5.7-0.6-8.4-1.7c-2.7-1.1-4.5-2.8-5.7-5.7c-2.2-5.6-4-11.4-6.1-17.1c-0.4-1-0.8-2-0.6-3.1
				C57.1,204.7,61.3,203.8,65.4,202.7z"/>
			<path class="st5" d="M204.3,95.4c1-1.7,3.1-1.1,4.4-2c1.4-1,3.9-1,3.2-3.8c-0.1-0.6,0.7-1,1-0.9c1.1,0.4,2,0.8,2.6-0.8
				c0.5-1.5,1.1-3.4-0.1-4.1c-3.3-2-2.6-5.3-3-8.1c-0.3-2.2-0.8-4.3-1.2-6.5c2.2,0.1,4.2-0.9,6.2-1.6c3.6,8.6,7.4,17.1,7.2,26.7
				c0,1.9-0.5,2.6-2.5,2.5C216.1,96.6,210.1,96.6,204.3,95.4z"/>
			<path class="st8" d="M217.3,67.7c-2,0.8-3.9,1.7-6.2,1.6c-4.1,0.1-8.2,0.2-12.3-0.5c-8.8-1.5-17.6-2.9-26.4-4.4
				c-0.9-0.1-1.8-0.3-2.6-0.5c-0.4-0.7-0.6-1.6-1.4-2c0.9-0.8,3.1-0.2,2.7-2.3c-0.4-1.8-2-1.5-3.4-1.6c-0.7,0-1.3,0.2-1.6,0.9
				c-0.6,1.3,0.7,1.8,1.2,2.7c-2.1-0.1-4-1.4-6.1-1.1c-0.8-1.3-2.5-1.7-3.2-3.1l0.1-0.1c5.5-0.4,10.9-0.6,16.4,0.1
				c0.8,0.3,1.6,0.7,2.4,1c0.3,1.9,2.1,2.4,3.2,3.4c4.8,4.2,11.8,4.3,17.1,0.2c1.8-0.1,3.5-0.1,5.3-0.2c1.9,1.1,4.3,0,6,1.5
				c0.1,0.7,0.1,1.4,0.2,2.1c0.3,1.4,1.1,2.3,2.7,2c1.9-0.4,0.7-1.7,0.7-2.7c1.6-0.1,2.8,1.2,4.3,1.2
				C216.7,66.5,217.4,66.9,217.3,67.7z"/>
			<path class="st4" d="M61.6,237.2c5.8,1.1,11.6,2,17.5,1.9c10.6-0.2,20.9-1.9,31.1-5c3.6-1.1,7-2.6,10.5-3.8c0,0.5,0,1,0,1.5
				c-0.5,0.2-0.7,1.1-1.5,0.9c-0.4-0.5-0.7-0.4-1,0.1c-1.8,0.5-3.5,1-5.6,2.6c2.3-0.4,3.9-1.2,5.6-1.1l0,0c-1,1.6-2.6,2.3-4.1,3.3
				c-1,0.7-2.5,0.9-2.8,2.4c-9.2,3.3-18.7,5.3-28.6,4.9c-0.1-0.5-0.3-1-0.4-1.4c1.6-1,3.2-1.9,4.9-2.9c-1.7,0.1-3.3,0.2-5,0.3
				c-1.5-0.2-3-0.4-4.4,0c-5.4-0.4-10.8-0.8-16-2.3C61.6,238.1,61.6,237.7,61.6,237.2z"/>
			<path class="st9" d="M92.1,176.3c-6.7,9-13.6,17.8-23.9,22.9c-0.9,0.4-1.7,1-2.7,1c-0.1-3.9-0.6-4.6-4.3-6.1
				c10.5-3.8,18.7-10.9,26.2-18.9c0.8-0.9,1.7-1.7,2.6-2.6C92.7,172.7,91.9,174.8,92.1,176.3z"/>
			<path class="st10" d="M118.7,140.7c0.1-1.3-0.1-2.6-0.5-3.9c-1.8-5.6-1.6-11.6-4-17c2.5-2.2,5.2-4.1,8.3-5.4
				c1.8,7,3.7,14,5.5,21.1C124.9,137.3,121.8,139,118.7,140.7z"/>
			<path class="st2" d="M135.4,218.1c0.7-2.1,2.8-3.2,4.1-4.9c3-3.8,4.4-8.1,3.4-12.8c-2.2-10.4-4.8-20.8-7.2-31.1
				c-2-8.6-3.9-17.3-5.9-25.9c-0.1-0.6-0.4-1.3-0.9-1.7c0-0.2,0-0.3,0-0.5c0.6-0.1,1.3-0.2,1.9-0.4c2,5.3,3,10.9,4.4,16.3
				c3.6,13.7,6.9,27.6,10.4,41.3c1.5,5.6,0.8,10.5-3.6,14.5C140,214.8,138.3,217.2,135.4,218.1z"/>
			<path class="st6" d="M21.1,120.4c3.3,3.1,6.6,6.2,7.4,11c1,6.1,2,12.2,4.7,17.8c0.3,0.6,0.3,1.3,1.2,1.3c0.6,1.7,1.3,3.3,1.9,5
				c0,0.7-0.1,1.5-0.1,2.2c-2.6-0.5-5-1.5-7.3-2.7c-1.3-4.6-2.6-9.2-3.9-13.8c-1.5-5.4-2.9-10.8-4.4-16.2
				C20.9,123.4,20.3,121.9,21.1,120.4z"/>
			<path class="st6" d="M50.2,204.6c2.1,6.5,3.3,13.3,6.3,19.5c1.4,2.9,3.5,5.2,6.3,7c0.5,0.3,1.3,0.4,1.5,1.2
				c-4.8,1.1-10.7-0.6-13.4-6.2c-2.5-5.3-3.6-11-5.5-16.5c-0.7-2.1-1.5-4.1-1.5-6.4C46,203.7,48.1,204.2,50.2,204.6z"/>
			<path class="st11" d="M37.8,161c-1.5,1-0.5,2.4-0.2,3.3c2.1,7.3,3.8,14.8,6.8,21.9c0.4,1,0.9,2.1,1.9,2.7c0,1.2,0,2.5,0,3.7
				c-2.3-0.3-4.7-0.5-6.9-1.4c0.1-1.3-0.2-2.6-0.5-3.8c-2.8-9.7-5.5-19.4-8.3-29.1C33,159.2,35.4,160.1,37.8,161z"/>
			<path class="st12" d="M67.3,101.5c-1.2,0.1-2.4,0.3-4.2,0.5c2.9-3.3,4.9-6.6,9.1-7.4c7.5-1.5,12.9-5.7,16-12.7
				c0.4-0.9,0.9-1.1,1.8-1.1c0.8,0,1.6,0.4,2.4-0.1c0-0.1-0.1-0.4-0.1-0.4c-3.1,0.6-3.3-1.6-3.6-3.8c5.1,0,9.8,1.4,14.7,2.7l0,0
				c0.1,0.6,0.5,0.7,1,0.5l0,0c-0.2,0.9,0.7,1.3,1,1.9c0,0.4,0,0.9,0,1.3c-1.5-0.2-2.9-1.1-4.4-0.4c-1.8-0.7-3.6-1.3-5.5-1.6
				c-0.8-0.4-1.6-1-2.8-0.2c1,0.7,1.9,0.7,2.8,0.9c1.3,0.5,2.6,0.9,3.8,1.7c1.7,1.1,3.8,1.9,4,4.4c-0.3,0.1-0.4,0.2-0.3,0.5l0,0
				c-1.9,0.7-3.5,2-5,3.5l0,0c-1-0.1-1.7,0.7-2.6,0.8c-0.1-1,0.7-1.6,1.2-2.3c0.8-1.1,1.6-2.3,0.1-3.6c-1.2-2.4-3.9-3.8-6.4-3.5
				c-0.9,0.1-1.2,0.6-1.3,1.4c-1.1,1.7-2.2,3.4-3.3,5.2c-3.6,3.3-7.9,5.2-12.5,6.5c-2.1,0.6-4,1.6-4.8,3.8c-0.6,0.3-0.9,0.7-0.9,1.4
				C67.4,101.3,67.4,101.4,67.3,101.5z"/>
			<path class="st4" d="M144.8,224.4c0.5,0,1-0.1,1.5-0.1c0.6,0,1,0.4,1.3,0.9c4.9,6.8,12.9,9.3,20.9,6.8c3-1,5.8-2.3,8.2-4.3
				c1.2-1,2-0.6,3,0.2c1.1,1,0,1.7-0.5,2.2c-11.6,10.6-25.7,9.5-34.7-2.7C143.5,226.2,144.8,225.4,144.8,224.4z"/>
			<path class="st6" d="M192,28.9c2.1-0.9,4.3-0.2,6.5-0.4c3.2-0.2,3.7-0.5,4.5-3.6c1-3.8,1.9-7.5,2.9-11.3c0.4,0,0.8,0.1,1.2,0.1
				c-0.2,4.2-2.1,8.1-1.5,12.4c0.5,3.5,0.9,4,4.3,2.7c1.3-0.5,2.3-1.4,3-2.7c1.9-3.7,2.5-7.5,2.2-11.6c4.9-0.5,5-1.4,4.1,4.2
				c-0.5,2.8-1,5.6-1.7,8.4c-0.7,3.3-1.5,3.9-4.9,4c-4.9,0.2-9.8-0.3-14.7-1.1C195.9,29.8,193.9,29.7,192,28.9z"/>
			<path class="st6" d="M103.4,106.2c2.7-0.8,5-2.2,6.8-4.4c2.5-1.5,4.9-2.4,7.4,0c1.9,3.2,3,6.8,4.4,10.3c-3,1-5.7,2.7-8.4,4.5
				c-0.9-3.6-1.3-7.5-5.4-9.1c-1.6-0.6-3.4,0.4-4.9-0.7C103.4,106.5,103.4,106.4,103.4,106.2z"/>
			<path class="st12" d="M24.7,94.3c1.3-2,3.1-3.6,5.3-4.6c2.9-1.4,5.3-3.7,8.5-4.7c0.2,0.2,0.4,0.3,0.5-0.1h-0.1
				c3.2,0,6-1.5,8.9-2.4c3.4-1,6.7-2.1,10-3.1c0.7,1.1-1.1,1.7-0.6,2.8c-2.4,0.9-4.7,1.8-7.1,2.8c-6.1,2.3-12.5,4.1-17.7,8.4
				c-2,1.1-3.5,2.9-5,4.6c-1.1-0.2-1.5,0.5-1.8,1.4C22.7,98.3,24.8,96.1,24.7,94.3z"/>
			<path class="st4" d="M59.9,85.6c-0.6-0.3-0.5-0.9-0.3-1.3c2.5-4.7,4.7-9.6,9.2-12.8c4.2-3,8.9-3.6,13.7-1.7
				c2.8,1.1,4.5,3.2,4.5,6.4c-1.1,0.2-1.4,1-1.3,2c0,1.3-0.4,2.3-1.4,3.1c-1.2,0.3-1.5,1.3-1.5,2.4l0,0c-0.8-0.2-1.2,0.3-1.6,0.9
				c-1.8,1.5-4.2,2.2-5.9,3.9c-1.2,0.4-2.5,0.5-3.5,1.5c-1.1,0.1-1.7,0.8-2,1.8c-1.2,0.6-2.4,1.2-3.6,0c0.1-0.3,0.1-0.6,0.2-0.8l0,0
				c0.3-0.1,0.5-0.2,0.8-0.3c0.7-0.8,0.7-1.5-0.2-2.3c-0.8-0.6-1.5-1.3-2.1-2.1c-1.1-1.5-0.7-3.4,0.8-4.1c0.1,1,0.1,2.1,0.4,3.1
				c0.4,1.7,2.8,3.6,4.2,3.2c1.7-0.5,3.4-0.6,4.9-1.6c3.7-2.3,8.7-6.4,7.4-11.7c1.1-2.1-0.6-3.4-1.9-3.7c-3-0.5-6.3-0.9-9.2,0.4
				c-5,2.4-7.8,6.8-9.9,11.7C61.4,84.6,61.2,85.6,59.9,85.6z"/>
			<path class="st4" d="M178,28.6c8.9,2.7,17.9,4.5,27.2,5.6c1.7,1.9,4.3,0.7,6.3,1.6c-0.8,1.4-2,1.4-3.3,1.5s-2.8-0.5-4,0.4
				c-9.4-0.5-18.6-2.4-27.5-5.4c-0.2-1.1-1.4-1.9-1-3.2c0.8,0.3,1.6,0.6,2.5,0.3c-0.1,0.4,0.2,0.4,0.4,0.4c0.1,0,0.1-0.1,0.2-0.1
				c-0.2-0.1-0.4-0.2-0.7-0.2C178.1,29.2,178.1,28.9,178,28.6z"/>
			<path class="st7" d="M36.4,155.5c-0.6-1.7-1.3-3.3-1.9-5c0-0.8,0-1.7,0-2.5c0.4,0,1-0.2,1.2,0c1.7,1.5,3.6,1.2,5.5,0.5
				c1.4-0.5,2.5,0.1,3.3,1.3c1.2,1.8,2.9,3.1,5.2,3.2c-0.4,2.3,1.3,4,1.4,6.1c-4.3,0.3-8.6,0.1-12.8-1
				C38.4,156.9,38.1,155.7,36.4,155.5z"/>
			<path class="st2" d="M212.8,9.8c2.1,0.1,3.8,1.2,5.3,2.7c-14.2-0.2-27.8-3.1-41.3-7.3c2.3-1.7,4.8-1.3,7.3-1.2
				c0.1,0.9,0.6,1.4,1.5,1.4c4.3,0.1,8.5,0.7,12.7,1.8c2.8,0.7,5.7,1.1,8.6,1.7C208.8,9.3,210.7,10.5,212.8,9.8z"/>
			<path class="st2" d="M215.1,14.6c0.3,4.1-0.3,8-2.2,11.6c-0.7,1.3-1.7,2.2-3,2.7c-3.4,1.3-3.8,0.8-4.3-2.7
				c-0.6-4.4,1.3-8.3,1.5-12.4c0.6,0,1.1,0.1,1.7,0.1c0.2,0,0.3,0,0.5,0.1C211.2,14.1,213.1,14.3,215.1,14.6z"/>
			<path class="st10" d="M46.8,110.1c0.2-1.4,1.4-0.9,2.2-0.9c1.8,0,3.6-0.2,5.2-1c0.5,0,1.1,0.1,1.5-0.4c1,0,1.9-0.1,2.9-0.1
				c0.4,0,0.8-0.1,1-0.4c0.5,0,1,0,1.5-0.1c0.8,0,1.7,0.3,2.1-0.9c1.9,0.1,3.9,0.6,5.8-0.2c1.1,0.3,2-0.2,3-0.4
				c4.2-1,8.3-2.2,12.3-3.9c0.5,0,1.1,0,1.5-0.5c2-0.3,3.7-1.1,5.4-2.2c3.6-2.3,7.6-3.7,11-6.4c0.3-0.3,0.9-0.2,1.4-0.2
				c-0.2,1.7-2.4,2.1-2.5,3.9c-6.7,4.5-14.2,7-21.8,9.1c-9.8,2.7-19.7,4.5-29.9,4.7C48.4,110.2,47.6,110.2,46.8,110.1z"/>
			<path class="st13" d="M92.1,176.3c-0.3-1.5,0.5-3.5-2.1-3.6c7-7.9,13.8-15.9,22-22.7c0.9,0.4,0.7,1.4,1.2,2.1
				C105.5,159.5,99,168,92.1,176.3z"/>
			<path class="st10" d="M59.9,85.6c1.3,0,1.5-1.1,1.8-2c2.1-4.9,4.8-9.3,9.9-11.7c2.9-1.4,6.2-1,9.2-0.4c1.3,0.2,3,1.6,1.9,3.7
				c-0.7-0.7-1.4-1.4-2.2-1.9c-3-1.9-7.5-0.9-10,1.8c-2,2.1-3.9,4.2-4.7,7c-1.5,0.7-1.9,2.6-0.8,4.1c0.6,0.8,1.3,1.5,2.1,2.1
				c0.9,0.8,0.9,1.5,0.2,2.3c-0.3,0.1-0.7-0.2-0.8,0.3l0,0c-1.1-0.1-2.3,0.3-3.3-0.4c-0.8,0-1.7,0-2.5-0.1
				C61.3,88.7,59.5,87.4,59.9,85.6z"/>
			<path class="st14" d="M61.2,194.1c3.7,1.5,4.2,2.2,4.3,6.1l-0.1,0.1h-0.2c-0.2,0.1-0.5,0.2-0.7,0.3c-3.5,1.5-7.1,2.3-10.9,2.1
				c-2.2-4.6-2.2-4.6,1.5-6.5c2.1,0.1,4-0.2,5.4-1.9C60.8,194.3,61,194.2,61.2,194.1z"/>
			<path class="st13" d="M55.1,196.2c-3.7,1.9-3.7,1.9-1.5,6.5c-3.9,0.3-7.7,0.1-11.3-1.4c0.3-2.5-1.3-4.6-1.5-6.9
				c4.7,1.3,9.5,1.7,14.3,1.1C55.1,195.7,55.1,196,55.1,196.2z"/>
			<path class="st4" d="M30.6,158.3c2.8,9.7,5.5,19.4,8.3,29.1c0.4,1.3,0.6,2.5,0.5,3.8c-1.1-0.2-1.7-0.6-2-1.8
				c-3.1-10.8-6.2-21.6-9.4-32.7C29.1,157.1,29.9,157.7,30.6,158.3z"/>
			<path class="st2" d="M20.7,124.9c1.5,5.4,2.9,10.8,4.4,16.2c1.3,4.6,2.6,9.2,3.9,13.8c-1.2-0.2-2.1-0.9-2.4-2.1
				c-2.6-8.8-5.1-17.7-7.7-26.5c-0.1-0.5-0.1-1-0.1-1.4C19.5,124.9,20.1,124.9,20.7,124.9z"/>
			<path class="st12" d="M126,229.8c3.2-0.3,5.6-2.3,8.2-3.9c1.7-1,3.2-2.3,4.8-3.5c0.2-0.2,0.6-0.4,0.8-0.3c0.5,0.1,0.4,0.6,0.4,1
				c-0.1,1.6-1,2.7-2.3,3.6c-4.6,3.1-9.4,6.1-14.5,8.4c0.2-1.2-0.9-2.1-1-3.3c1.1-0.3,2.1-0.6,3-1.4
				C125.8,230.3,126.2,230.3,126,229.8L126,229.8z"/>
			<path class="st12" d="M43.4,100.7c0.3,0.1,0.6,0.1,0.9,0.2c0.1,0.7,0.4,1,1,0.4c3.3,0.2,6.2-1,8.7-3.1c0.9,1.2,2.2,1.2,4.1-0.1
				c1.7,0.1,3.1-1.4,4.9-1.2c-5.1,7.3-17,7.7-23.1,4.5c-0.8-0.4-1.6-0.9-1.7-1.9c1-0.4,1.4,0.6,2.1,0.9
				C41.3,100.9,42.3,102.2,43.4,100.7z"/>
			<path class="st12" d="M32.4,102.4c-1.7-0.1-3.9,0-4.6-1.5c-0.6-1.4,1.1-2.9,2.1-4.1c0.8-0.9,1.7-1.7,2.6-2.6
				c5.6-3.8,11.8-6.4,18.1-8.7c0.3,0,0.7,0,1-0.1c-0.5,1.4-1.9,1.4-3,1.8c-3.4,1.2-6.5,2.8-9.4,5c-2.1,0.6-3.3,2.3-4.8,3.6
				c-0.8-0.1-1.1,0.4-1.5,0.9C31.4,98.6,32.6,100.6,32.4,102.4z"/>
			<path class="st7" d="M117.6,101.8c-2.5-2.4-4.9-1.5-7.4,0c-0.8-0.7,0.2-1.3,0-2c0.6-0.3,0.9-0.8,1-1.5c0.4-0.2,0.5-0.6,0.5-1
				c1.1-2,0.2-4-0.1-6c2.3,0.6,3.4,2.7,4.8,4.2c1.7,1.8,3,3.9,4.1,6.2C119.7,101.8,118.7,101.8,117.6,101.8z"/>
			<path class="st4" d="M209.7,150.7c3.6-0.1,7.2-0.8,10.7-1.6c-0.8,4.8-1.2,5.2-5.8,5.9c-1.8,0.3-3.5,0.3-5.3,0.5
				C209.3,153.9,210.6,152.4,209.7,150.7z"/>
			<path class="st8" d="M144.1,148.7c0.9,3.6-1.2,6.8-1.6,10.2c-0.1,0.7-1.1,0.5-1.7,0.5c-1.2-4.4-2.3-8.8-3.6-13.6
				C139.8,146.8,142,147.8,144.1,148.7z M140.9,148.6c-0.9,0.1-1.1,0.7-1,1.4c0.1,1,0.5,1.7,1.6,1.6c0.7-0.1,1.2-0.6,1.1-1.3
				C142.5,149.3,141.8,148.7,140.9,148.6z"/>
			<path class="st7" d="M134.9,83.9c0.8,0.5,1.6,1.1,2.4,1.6c-2.3,3.5-2.4,7.6-3.5,11.5c-0.8,3-1.4,6-2,9c-0.2,1-0.7,1.8-2,1.7
				c1.1-5.6,2.2-11.1,3.3-16.7C133.7,88.6,134.4,86.3,134.9,83.9z"/>
			<path class="st12" d="M54.1,84.9c1.5-0.5,2.9-0.9,5.1-1.7c-1.6,2.7-1.3,5.5-4.9,6.3c-4,0.8-7.7,2.7-11.1,5
				c-0.8,0.6-1.6,0.5-2.4,0.2c0.1-0.3,0.2-0.6,0.2-0.8c4.5-3.8,9.9-6,15.4-7.9C55.9,85.1,54.6,86,54.1,84.9z"/>
			<path class="st4" d="M128,135.5c-1.8-7-3.7-14-5.5-21.1c1.4-1.2,2.1-0.5,2.5,1c1.5,6,2.9,12,4.5,17.9
				C129.8,134.8,129.4,135.4,128,135.5z"/>
			<path class="st7" d="M64.1,234.7c0-1.4,1-1.6,2.1-1.4c2.9,0.7,5.9,0.2,8.8,0.4c4,0.3,8,0.3,11.7,1.9
				C79.1,236.7,71.5,236.3,64.1,234.7z"/>
			<path class="st11" d="M63,96.9c-1.8-0.2-3.1,1.3-4.9,1.2c-0.3-0.9-0.9-1.6-1.6-2.2c1.4-1.8,2.7-3.6,4.1-5.4c0.8,0,1.7,0,2.5,0.1
				c0.3,1.7,1.5,1.6,2.8,1.5c-0.1,0.8-0.3,1.6-0.4,2.4C64.7,95.3,63.9,96.1,63,96.9z"/>
			<path class="st10" d="M82.1,240.9c1.7-0.1,3.3-0.2,5-0.3c-1.7,0.9-3.3,1.8-4.9,2.9c-1.2-0.3-1.4,0.5-1.4,1.4
				c-3.9,0.2-7.6-0.4-11.4-1.3c-0.2-0.8,0.3-1.5,0.6-2.2c2.6,0.7,5.1,0.7,7.7,0.2C79.2,241.4,80.8,242.3,82.1,240.9z"/>
			<path class="st7" d="M20.7,124.9c-0.6,0-1.3,0-1.9,0c-1-5.2-0.2-10.1,2.3-14.7c0.9,0.6,0.3,1.8,1,2.5c2.3,3,0.3,5.3-1,7.8
				C20.3,121.9,20.9,123.4,20.7,124.9z"/>
			<path class="st4" d="M49.7,189.9c5.1,0.8,9.7-0.3,14.2-2.6c1.1-0.6,2.7-1,3.6,0.6c-5.5,3.3-11.5,4.8-17.8,4.8
				C49.7,191.8,49.7,190.9,49.7,189.9z"/>
			<path class="st12" d="M65.6,94.5c0.1-0.8,0.3-1.6,0.4-2.4c0-0.3,0.1-0.3,0.4-0.3c1.2,1.2,2.4,0.6,3.6,0c0.7,0.3,1.3-0.4,2-0.4
				c2.4-0.4,4.7-1.1,6.4-2.9l0,0c1-0.1,1.5-0.7,1.9-1.5c0.3-0.3,0.7-0.7,1-1c0.9-0.5,1.3-1.3,1.6-2.3c0,0,0,0,0-0.1
				c1.3-0.3,1.4-1.3,1.5-2.4c1-0.8,1.5-1.9,1.4-3.1c0-1,0.2-1.8,1.3-2c0.5,1.9,0,3.7-0.8,5.4c-2.8,5.3-6.8,9.1-12.8,10.5
				C70.7,92.8,68.2,93.7,65.6,94.5z"/>
			<path class="st12" d="M19.8,101.7c0.6-0.1,1.2,0.1,1.6,0.4c4.1,3.5,9.4,4.1,14.1,6.1c0.8,0.9,2.3,0.4,3,1.6
				c-5.3-0.2-10.4-1-15.1-3.6C21.6,105.3,19.9,104.1,19.8,101.7z"/>
			<path class="st10" d="M122.5,231.8c0.1,1.2,1.2,2,1,3.3c-4,1.8-8,3.8-12.3,4.9c0.3-1.5,1.8-1.7,2.8-2.4c1.5-1,3.2-1.7,4.1-3.3
				c0-0.1,0.1-0.1,0.1-0.2c0,0.1-0.1,0.1-0.1,0.2c-1.7,0-3.3,0.7-5.6,1.1c2.1-1.6,3.8-2.1,5.6-2.6c0.4,0.5,0.7,0.4,1-0.1
				c0.8,0.2,1-0.6,1.5-0.9c0.4,0.5,0.7-0.1,1,0C121.9,231.7,122.2,231.8,122.5,231.8z"/>
			<path class="st6" d="M173.3,22.6c0.8-3.5,1.6-6.9,2.4-10.4c0.3-1.1,0.4-2.4,1.5-3.3c0.9,1.5,0.1,2.7-0.1,3.9
				c-0.4,3.9-1.3,7.8,0.9,11.4c0.1,0.2,0,0.6-0.1,1C176.4,24.5,174.4,24.4,173.3,22.6z"/>
			<path class="st10" d="M212.8,9.8c-2.1,0.7-4-0.5-6-0.9c-2.9-0.6-5.8-1-8.6-1.7c-4.2-1-8.4-1.7-12.7-1.8c-0.8,0-1.4-0.5-1.5-1.4
				c5.9-0.1,11.7,1.3,17.4,2.4c3.1,0.6,6.1,1.5,9.2,2.3C211.5,8.9,212.3,9,212.8,9.8z"/>
			<path class="st11" d="M41.1,94c-0.1,0.3-0.2,0.6-0.2,0.8c-1.5,3.5-1.2,4.2,2.6,5.9c-1.2,1.4-2.1,0.1-3.1-0.3
				c-0.7-0.3-1.1-1.3-2.1-0.9c-0.7-0.7,0-1.8-0.6-2.5c-1.3,0.6-0.2,1.9-0.8,2.8c-2-0.5-2.4-2-2.4-3.8c1.5-1.3,2.7-3.1,4.8-3.6
				C39.9,92.9,40.5,93.4,41.1,94z"/>
			<path class="st12" d="M100.9,96.4c0.1-1.8,2.3-2.2,2.5-3.9c2.4-2.4,4.8-4.8,5.9-8.1c0.2-0.7,0.6-1.1,1.3-1.3
				c1.2,2.7,0.1,4.9-1.5,7C107,92.8,104.3,95.1,100.9,96.4z"/>
			<path class="st13" d="M129,141.1c0,0.2,0,0.3,0,0.5c-0.3,0.2-0.6,0.3-1,0.5c-0.3,0.2-0.7,0.4-1,0.6l0,0c-0.4,0-0.8,0-1,0.5l0,0
				c-2.1,0.7-4,1.6-5.4,3.5l0,0c-0.2,0-0.3-0.1-0.5-0.1c0-0.9-0.3-1.7-1-2.4c3-2.6,6.2-4.9,9.9-6.4C129,138.8,129,140,129,141.1z"/>
			<path class="st10" d="M41.1,94c-0.6-0.5-1.2-1.1-1.7-1.6c2.8-2.2,6-3.8,9.4-5c1-0.4,2.5-0.4,3-1.8c0.8-0.2,1.6-0.4,2.4-0.7
				c0.4,1.1,1.7,0.2,2.4,1.2C51,88,45.6,90.2,41.1,94z"/>
			<path class="st5" d="M174.3,57.5c-5.4-0.7-10.9-0.6-16.4-0.1c0-0.7,0.2-1.2,0.8-1.5c5.2-1.1,10.3-1.4,15.5,0.2
				C174.3,56.5,174.3,57,174.3,57.5z"/>
			<path class="st11" d="M209.7,150.7c0.9,1.7-0.4,3.2-0.5,4.8c-2.4,0.7-4.9,0.5-7.4,0.3c1-1.7,2.6-2.7,4.2-3.7
				c0.6-0.4,0.8-0.7,0.8-1.3C207.7,150.7,208.7,150.7,209.7,150.7z"/>
			<path class="st15" d="M210.1,46.6c0.8,0.5,0.5,1.5,0.8,2.2c0.4,0.9-0.2,1.6-1,2c-0.9,0.4-1.4-0.4-1.6-1c-0.5-1.7-1.4-2.5-4-1.2
				c1.8-2.4,1.6-4,0.4-5.5c-0.5-0.6-0.5-1.4-0.5-2.1c0.9-0.2,1.7,0,2.5,0.3C207.4,43.4,206.7,46.3,210.1,46.6z"/>
			<path class="st2" d="M117.6,101.8c1,0,2,0,3.1,0c1.9,2.7,2.2,5.9,3.1,8.9c0.4,1.5-0.9,1.2-1.7,1.4
				C120.6,108.6,119.6,105,117.6,101.8z"/>
			<path class="st5" d="M147.2,69.3c0.8,0.7,0.5,1.5,0.1,2.2c-1.9,3.4-2.1,6.9-0.6,10.5c-4.5-1.3-4.7-1.7-3.1-6
				C144.4,73.6,145.6,71.3,147.2,69.3z"/>
			<path class="st10" d="M34.5,96c-0.1,1.8,0.4,3.3,2.4,3.8c0.3,1.1,0.5,2.3,1.9,2.6c0.1,0.3,0.1,0.5,0.2,0.8
				c-2.2-0.2-4.5,0.5-6.5-0.8c0.1-1.8-1.1-3.8,0.6-5.5C33.5,96.4,33.8,95.9,34.5,96z"/>
			<path class="st9" d="M119.1,144.1c0.7,0.6,1,1.4,1,2.4c-1.1,1.1-2.6,1.7-3.5,3c-1.1,0.9-2.2,1.7-3.3,2.6
				c-0.5-0.6-0.3-1.7-1.2-2.1C114.2,147.9,116.5,145.8,119.1,144.1z"/>
			<path class="st10" d="M204.3,37.7c1.2-0.9,2.7-0.3,4-0.4c1.2-0.1,2.4-0.1,3.3-1.5c-2.1-0.9-4.6,0.3-6.3-1.6
				c1.5-0.5,2.9,0.6,4.4,0.5c1.4-0.1,2.7,0,4-0.6c0.8,1.4,0.1,2.5-0.5,3.7C210.2,38.3,207.2,38.4,204.3,37.7z"/>
			<path class="st15" d="M95.2,162.5c-0.5-2,0.8-3.4,1.9-4.8c1.9-2.2,3.6-5,7.2-4.8C101.3,156.2,98.2,159.3,95.2,162.5z"/>
			<path class="st10" d="M129.5,225.9c4-2.4,7.8-5.2,11.7-7.8c-2.6,4.3-7,6.4-11,8.8C129.6,226.7,129.5,226.3,129.5,225.9z"/>
			<path class="st5" d="M50.7,85.7c-6.3,2.3-12.5,4.8-18.1,8.7c0-0.3,0-0.5-0.1-0.8c5.2-4.3,11.5-6.1,17.7-8.4
				C50.3,85.3,50.5,85.5,50.7,85.7z"/>
			<path class="st10" d="M192,11.1c-3.4,1.2-6.6-0.1-9.9-0.9c-1.3-0.3-0.7-1.2-0.3-1.9C185.3,9,188.7,9.9,192,11.1z"/>
			<path class="st10" d="M210.1,46.6c-3.4-0.3-2.8-3.3-3.4-5.4c1.2,0,2.3,0,3.5,0C210.2,43.1,210.1,44.9,210.1,46.6z"/>
			<path class="st15" d="M129.5,225.9c0.1,0.4,0.2,0.9,0.6,1c-1.4,0.9-2.7,1.7-4.1,2.6c-1.6,0.5-3.1,1.1-4.4,2.2
				c-0.4-0.1-0.7,0.6-1,0c0-0.5,0-1,0-1.5C123.6,228.8,126.5,227.3,129.5,225.9z"/>
			<path class="st3" d="M103.4,79.1c-4.8-1.3-9.6-2.7-14.7-2.7c0-0.3,0-0.5,0-0.8c4.2-0.1,8.3,0.9,12.3,2
				C101.9,77.9,103.1,78,103.4,79.1z"/>
			<path class="st9" d="M40.8,194.3c0.2,2.4,1.8,4.4,1.5,6.9c-0.9,0-1.5-0.2-1.8-1.2c-0.4-1.6-0.9-3.1-1.3-4.7
				c-0.1-0.5-0.7-1.1,0-1.5C39.8,193.7,40.4,193.8,40.8,194.3z"/>
			<path class="st10" d="M38.5,109.9c-0.7-1.2-2.2-0.7-3-1.6c0.4-1.8,1.8-1.1,2.7-0.9c1.7,0.4,3.8,0.2,4.2,2.7
				C41.1,110.3,39.8,110.2,38.5,109.9z"/>
			<path class="st5" d="M216.3,66.1c-1.6,0-2.7-1.3-4.3-1.2c-0.4-0.3-0.9-0.7-1.3-1c-0.2-0.7-0.3-1.4-0.5-2.1c2,0.1,3.6,1.3,5.3,2
				C215.8,64.6,216,65.3,216.3,66.1z"/>
			<path class="st12" d="M173.6,38.4c0.1-1.4,0.1-2.7,0.2-4.1c1.4,0.4,2.7,0.7,3.9,1.4c-0.6,0.8-1.3,1.7-1.9,2.5
				C175,38.4,174.3,38.4,173.6,38.4z"/>
			<path class="st12" d="M70,241.3c-0.2,0.7-0.7,1.4-0.6,2.2c-1.8-0.1-3.6-0.4-5.1-1.5c0-0.6,0.1-1.1,0.1-1.7
				C66.2,240.7,68.1,241,70,241.3z"/>
			<path class="st15" d="M49.7,189.9c0,1,0,1.9,0,2.9c-1.2,0.2-2.3,0.1-3.4-0.1c0-1.2,0-2.5,0-3.7C47.5,189,48.4,190.3,49.7,189.9z"
				/>
			<path class="st15" d="M213.1,37.9c0.6-1.2,1.3-2.4,0.5-3.7c1.2-0.6,2.4-1,3,0.9c0.5,1.8-0.6,2.4-2,2.8
				C214.1,37.9,213.6,37.8,213.1,37.9z"/>
			<path class="st12" d="M175.7,29.1c-0.4,1.3,0.8,2.1,1,3.2c-1.5-0.3-3-0.6-4.1-1.7c1.2-0.8-0.2-2,0.5-2.9
				C174,28.3,175.1,28.3,175.7,29.1z"/>
			<path class="st11" d="M173.1,27.7c-0.7,0.9,0.7,2.1-0.5,2.9c-2.5-1.5-2.8-3.1-0.9-4.3c0.9-0.5,0.9-0.5,1.8,0.7
				C172.9,27,172.9,27.3,173.1,27.7z"/>
			<path class="st8" d="M57.2,82.4c-0.6-1.1,1.3-1.7,0.6-2.8c0.9-0.6,1.8-1,3.1-0.7C60,80.5,59.8,82.7,57.2,82.4z"/>
			<path class="st10" d="M56.6,95.9c0.7,0.6,1.2,1.3,1.6,2.2c-2,1.3-3.2,1.3-4.1,0.1C54.9,97.4,55.7,96.6,56.6,95.9z"/>
			<path class="st8" d="M173.1,27.7c-0.3-0.4-0.3-0.7,0.4-0.7c1.6,0.2,3.1,0.8,4.5,1.6c0,0.3,0.1,0.5,0.1,0.8l0,0
				c-0.9,0.3-1.7,0-2.5-0.3C175.1,28.3,174,28.3,173.1,27.7z"/>
			<path class="st8" d="M64.4,240.4c0,0.6-0.1,1.1-0.1,1.7c-1.8,0.2-2.7-1-3.8-2.3C61.9,239.5,63.1,240.3,64.4,240.4z"/>
			<path class="st9" d="M129,141.1c0-1.1,0-2.3,0-3.4c0.6-0.5,1.2-0.8,1.4,0.2c0.2,0.9,0.7,1.8,0.5,2.9
				C130.2,140.9,129.6,141,129,141.1z"/>
			<path class="st10" d="M61.6,237.2c0,0.4,0,0.8,0,1.2c-1.9,0.2-2.9-1.3-5-2.1C58.8,236,60.2,236.6,61.6,237.2z"/>
			<path class="st15" d="M92.1,165.8c0-3.1,0.4-3.5,3.1-3.3C94.3,163.8,93.3,164.9,92.1,165.8z"/>
			<path class="st9" d="M55.1,196.2c0-0.3,0-0.5,0-0.8c1.8-0.4,3.6-0.7,5.4-1.1C59.1,196,57.2,196.4,55.1,196.2z"/>
			<path class="st3" d="M227.6,96.9c-0.5-0.1-1.3,0.3-1.3-0.6c0-0.7,0.3-1.6,1.3-1.4c0.6,0.1,1.6,0.5,1.6,1.3
				C229.1,97.1,228.1,96.7,227.6,96.9z"/>
			<path class="st2" d="M36.4,155.5c1.7,0.2,2,1.4,2,2.8c-0.8,0.2-1.4-0.3-2.1-0.6C36.4,157,36.4,156.2,36.4,155.5z"/>
			<path class="st5" d="M121.7,231.7c1.3-1.1,2.8-1.7,4.4-2.2c0.1,0.1,0.1,0.2,0,0.3l0,0c-0.2,0.2-0.4,0.4-0.5,0.6
				c-0.8,0.8-1.9,1.1-3,1.4C122.2,231.8,121.9,231.7,121.7,231.7z"/>
			<path class="st12" d="M82.1,240.9c-1.3,1.5-2.9,0.5-4.4,0.7c0-0.2-0.1-0.5-0.1-0.7C79.1,240.5,80.6,240.7,82.1,240.9z"/>
			<path class="st3" d="M116.6,149.5c0.9-1.3,2.4-1.9,3.5-3c0.2,0,0.3,0.1,0.5,0.1c-0.4,1.7-2,2.2-3.2,3
				C117.1,149.5,116.9,149.5,116.6,149.5z"/>
			<path class="st8" d="M25.8,99.4c0.3-0.9,0.7-1.6,1.8-1.4C27.1,98.7,27.5,100.5,25.8,99.4z"/>
			<path class="st15" d="M80.8,244.9c0-1,0.2-1.7,1.4-1.4c0.1,0.5,0.3,1,0.4,1.4C82,244.9,81.4,244.9,80.8,244.9z"/>
			<path class="st5" d="M39,103.2c-0.1-0.3-0.1-0.5-0.2-0.8c0.6,0.1,1.4,0.2,1.3,1C39.9,103.9,39.3,103.7,39,103.2z"/>
			<path class="st10" d="M43.1,110c0.6-1.1,1.2-1.2,1.8,0.1C44.2,110.3,43.7,110.3,43.1,110z"/>
			<path class="st2" d="M134.6,219.1c-0.3-0.2-0.6-0.4-0.4-0.7c0.3-0.5,0.8-0.3,1.3-0.3C135.1,218.4,134.8,218.7,134.6,219.1z"/>
			<path class="st5" d="M67.3,101.5c0.1-0.1,0.1-0.1,0.2-0.2c0.4,0,0.9,0.1,1.3,0.1c0.1,0.3,0.1,0.5,0.1,0.8
				c-0.3,0.1-0.6,0.1-0.9,0.2C67.8,102,67.6,101.7,67.3,101.5z"/>
			<path class="st11" d="M45.4,101.3c-0.6,0.7-0.9,0.4-1-0.4C44.7,101,45,101.1,45.4,101.3z"/>
			<path class="st9" d="M64.6,200.6c0.2-0.1,0.5-0.2,0.7-0.3C65,200.4,64.8,200.5,64.6,200.6z"/>
			<path class="st2" d="M209.3,13.9c-0.2,0-0.3,0-0.5-0.1C209,13.9,209.1,13.9,209.3,13.9z"/>
			<path class="st4" d="M107.3,175.7c-2.6-1.5-3.3-4.4-1.9-6.8c1.5-2.5,5.7-3.6,8-2c2.4,1.6,2.8,4.3,0.9,6.8
				c-0.8-0.5-0.5-1.4-0.6-2.1c-0.4-1.8-0.7-3.5-3.2-3.4c-3.1,0.1-4.4,2.7-3.2,6.4C107.3,175,107.3,175.3,107.3,175.7z"/>
			<path class="st10" d="M113.7,171.7c0.1,0.7-0.2,1.6,0.6,2.1c-0.7,2.5-2.9,3.4-6.4,2.4c-0.2-0.2-0.4-0.4-0.6-0.5v0.1
				c0-0.4,0-0.7,0-1.1C109.9,174.7,111.9,173.3,113.7,171.7z"/>
			<path class="st15" d="M118.8,158.3c0.8,0,1.3,0.4,1.3,1.2c0,0.9-0.5,1.6-1.5,1.6c-0.7,0-1.2-0.6-1.2-1.3
				C117.4,158.9,117.9,158.4,118.8,158.3z"/>
			<path class="st3" d="M120.6,146.6c1.4-1.8,3.3-2.8,5.4-3.5c-0.6,2-3,1.9-3.9,3.5C121.6,146.6,121.1,146.6,120.6,146.6z"/>
			<path class="st15" d="M107.3,175.6c0.2,0.2,0.4,0.4,0.6,0.5C107.6,176.2,107.3,176.1,107.3,175.6z"/>
			<path class="st14" d="M175.6,137.8c-5-0.1-10.1-1.2-14.6-4.5c-8.7-6.4-8.6-16.8,0.5-22.6c9.4-6,19.5-6.5,29.6-2.1
				c10.4,4.5,10.5,16.3,2.1,23.4C188.3,136.2,182.4,137.8,175.6,137.8z M193.4,112c-0.2-1-1-1.2-1.8-1.3c-0.5-0.1-1.1,0.1-0.9,0.7
				c0.2,0.9,0.9,1.6,1.9,1.6C193.2,113.1,193.4,112.6,193.4,112z"/>
			<path class="st11" d="M217,103.6c1.3-1.8,2.5-1.8,4-0.1C219.7,103.8,218.4,103.7,217,103.6z"/>
			<path class="st8" d="M187,190.7c0.5,2.8-2.2,4-3.8,5.9c-0.5,0.6-1.7,0.2-2.2-0.4c-1.7-1.5-2.2-3.6-1.7-5.8c0.5-2.1,2-3.3,4.2-3.4
				C185.9,186.9,187,188,187,190.7z M183.6,193.2c1.3-0.6,1.5-2,1.8-3.1c0.3-1-0.4-2-1.5-1.9c-1.3,0.1-2.3,0.8-2.4,2.3
				C181.5,191.9,182.3,192.7,183.6,193.2z"/>
			<path class="st7" d="M34.7,147.3c-1.2-4-2.4-7.9-3.6-11.9c-0.2-0.6-0.4-1.3-0.4-1.9c-0.3-2.6,0-2.9,2.6-2.7
				c2.4,0.2,4.9,0.3,7.3,0.5c1.4,0.1,2.6,0.5,3.1,2c1.5,4.4,3.2,8.7,3.7,13.4c-1.7-1.3-3.6-2.1-5.6-0.8c-1.8,1.1-3.4,2.6-5.6,1
				C35.8,146.7,35.1,147.1,34.7,147.3z"/>
			<path class="st7" d="M35.5,126.9c-1.7,0.2-3.2-0.1-4.8-0.6c-1.4-0.5-2.9-1-2.7-2.9c0.2-1.8,0.8-3.7,2.9-4.1
				c5.2-1.1,10.4-0.6,15.7,0.5c3.3,0.7,6.7,0.4,10,0c4.1-0.4,8.2-1.1,12.4-0.4c-7.8,3.8-16,6.2-24.7,6.5c0.5-0.6,1-1.1,1.3-1.7
				c0.4-0.7,1.3-1.2,0.9-2.1c-0.5-0.9-1.4-1-2.3-1c-1.5,0-2.9,0-4.4,0C35.9,121,34.4,123.1,35.5,126.9z"/>
			<path class="st4" d="M34.7,147.3c0.5-0.2,1.1-0.6,1.3-0.5c2.3,1.6,3.8,0.1,5.6-1c2-1.3,3.9-0.5,5.6,0.8c2.1,3.3,3.3,3.3,5.6-0.2
				c2.1-3.1,4-3.9,6.7-2.7c0.9,0.4,1.4,1.1,2,1.7c1.7,1.8,2.7,1.8,4.5,0c0.5-0.5,0.9-1,1.5-1.2c0.7-0.3,1.5-0.3,2,0.4
				c0.7,1-0.5,0.9-0.8,1.3c-0.7,0.9-1.4,1.8-2.3,2.6c-1.8,1.6-3.9,1.6-5.8,0.1c-2.9-2.1-3.3-2.1-5.3,1c-1.3,2-3,3.5-5.5,3.6
				c-2.4-0.1-4-1.4-5.2-3.2c-0.8-1.2-1.9-1.8-3.3-1.3c-1.9,0.7-3.8,1-5.5-0.5c-0.2-0.2-0.8,0-1.2,0
				C34.6,147.8,34.6,147.5,34.7,147.3z"/>
			<path class="st10" d="M35.5,126.9c-1.1-3.8,0.4-5.9,4.2-5.9c1.5,0,2.9,0,4.4,0c0.9,0,1.9,0.1,2.3,1c0.5,0.9-0.5,1.5-0.9,2.1
				s-0.9,1.1-1.3,1.7C41.4,127,38.4,126.8,35.5,126.9z"/>
			<path class="st7" d="M103.4,106.2c0,0.2-0.1,0.3-0.1,0.5c-5.8,4.2-12.4,6.6-19.8,8.6c1.6-2.2,3.5-2.8,5.2-3.4
				c4-1.4,8-2.8,11.6-5.1C101.3,106.1,102.4,106.2,103.4,106.2z"/>
			<path class="st4" d="M168.3,61.9c0.8,0.4,1,1.3,1.4,2c-0.1,1.6-0.7,2.8-1.9,3.8c-1.3,1.2-2.5,2.5-3.6,4c-1.7,2.4-5.9,2.9-8.2,1.1
				c-1.5-1.1-1.6-2.6-1.2-4.2c0.7-2.9,3-4.8,4.9-6.9c0.4-0.4,0.8-0.8,1.2-1.2c2.2-0.3,4,1,6.1,1.1C167.5,61.7,167.9,61.8,168.3,61.9
				z"/>
			<path class="st4" d="M155.1,81.9c-2.6-0.1-4.1-1.4-4-3.2c0.1-2,1.4-2.7,3.1-2.7c1.8-0.1,3.3,1.7,3.2,3.6
				C157.2,81.1,156.2,81.8,155.1,81.9z"/>
			<path class="st5" d="M211,88.9c-0.2,0.8-0.6,1.2-1.3,0.7c-0.7-0.4-1.3-1-1.4-1.9c-0.1-0.7-0.2-1.6,0.6-1.9
				c1.1-0.4,0.7,0.8,1.1,1.2C210.3,87.6,210.6,88.3,211,88.9z"/>
			<path class="st12" d="M215,85.4c0,0.6-0.2,1.2-0.9,1.3c-1,0.2-1.2-0.7-1.3-1.4c-0.1-0.6,0.1-1.2,0.9-1.2
				C214.5,84.2,214.8,84.7,215,85.4z"/>
			<path class="st0" d="M174.3,57.5c0-0.5,0-1,0-1.5c4.1,0.3,7.9,1.8,11.9,2.7c5.5,1.3,11.1,1.1,16.7,1.9c-0.2,0.5-0.4,0.9-0.5,1.4
				c-1.8,0.1-3.5,0.1-5.3,0.2c-4.7-0.3-9.4-0.9-13.9-2.2c-2.1-0.6-4.1-1.8-6.4-1.5C175.9,58.1,175.1,57.8,174.3,57.5z"/>
			<path class="st3" d="M202.3,61.9c0.2-0.5,0.4-0.9,0.5-1.4c2.5,0,5,0.4,7.4,1.3c0.2,0.7,0.3,1.4,0.5,2.1c-0.9,0.3-1.6-0.3-2.4-0.5
				C206.6,61.8,204.1,63,202.3,61.9z"/>
			<path class="st10" d="M173.6,38.4c0.7,0,1.5-0.1,2.2-0.1c-0.4,2.1-1.4,3.7-3.8,4c-0.1-0.4-0.1-0.8-0.2-1.1
				C172,39.9,172.8,39.2,173.6,38.4z"/>
			<path class="st5" d="M171.8,41.1c0.1,0.4,0.1,0.8,0.2,1.1c-1.3,1-1.9,2.9-4.5,3C169.1,43.6,170.5,42.4,171.8,41.1z"/>
			<path class="st3" d="M126,143.1c0.2-0.5,0.6-0.5,1-0.5C126.8,143.1,126.5,143.2,126,143.1z"/>
			<path class="st3" d="M127,142.6c0.3-0.2,0.7-0.4,1-0.6C127.8,142.5,127.4,142.6,127,142.6z"/>
			<path class="st10" d="M68.8,101.3c-0.4,0-0.9-0.1-1.3-0.1c0-0.7,0.3-1.1,0.9-1.4c3.9-0.7,7.7-1.9,11.5-3c6.5-2,12-5.6,16.8-10.3
				c1.5,1.2,0.7,2.4-0.1,3.6c-0.5,0.7-1.2,1.3-1.2,2.3c-4.8,2.7-10,4.6-15.2,6.2c-1.7,0.4-3.3,0.8-5,1.2c-0.5,0.1-1.3,0.2-0.5,1
				h-0.2c-0.3-0.3-0.6-0.3-0.8,0l0,0c0.3-0.9-0.4-0.5-0.8-0.6H73c-0.9,0-1.8,0.2-2.7,0.6C69.9,100.9,69.3,100.8,68.8,101.3z"/>
			<path class="st0" d="M105.4,82.8c0-0.4,0-0.9,0-1.3h0.2h0.2c1.5,2.7-0.3,4.4-2,6.1c-0.2,0-0.4,0-0.6,0c-0.3-2.5-2.4-3.3-4-4.4
				c-1.1-0.8-2.5-1.1-3.8-1.7c0-0.2,0-0.5,0-0.7c1.9,0.3,3.7,0.9,5.5,1.6c0.3,0.9,1.3,0.9,1.8,1.4C104.5,85.6,105.1,84.9,105.4,82.8
				z"/>
			<path class="st5" d="M80.2,98.6c5.2-1.6,10.4-3.5,15.2-6.2c0.9-0.1,1.6-1,2.6-0.8c-0.4,1-1.4,1.2-2.2,1.6
				c-5,2.5-10.1,4.8-15.5,6.2C80.3,99,80.3,98.8,80.2,98.6z"/>
			<path class="st5" d="M98,91.5c1.5-1.4,3-2.7,5-3.5C101.9,90.1,100,90.9,98,91.5z"/>
			<path class="st0" d="M80.2,98.6c0,0.2,0.1,0.5,0.1,0.7c-1.9,0.5-3.7,1.1-5.6,1.6c-0.8-0.8,0-0.9,0.5-1
				C76.9,99.4,78.6,99,80.2,98.6z"/>
			<path class="st15" d="M71.9,105.7c-1,0.2-1.9,0.7-3,0.4c-0.1-1.3,0.8-1.7,1.8-1.9C71.8,104.2,71.9,104.9,71.9,105.7z"/>
			<path class="st5" d="M70.5,100.9c0.8-0.4,1.7-0.6,2.7-0.6c-0.2,1.2-0.2,1.2-2.7,1.4C70.5,101.5,70.5,101.2,70.5,100.9z"/>
			<path class="st5" d="M105.8,81.5h-0.2h-0.2c-0.3-0.7-1.2-1-1-1.9C105.5,79.8,105.9,80.4,105.8,81.5z"/>
			<path class="st15" d="M63.1,106.3c-0.3,1.2-1.3,0.8-2.1,0.9C61.3,105.9,62.3,106.3,63.1,106.3z"/>
			<path class="st15" d="M85.7,101.3c-0.4,0.5-0.9,0.5-1.5,0.5C84.4,100.7,84.8,100.5,85.7,101.3z"/>
			<path class="st0" d="M70.5,100.9c0,0.3,0,0.6,0,0.9c-0.5,0.1-1,0.2-1.5,0.4c0-0.3-0.1-0.5-0.1-0.8
				C69.3,100.8,69.9,100.9,70.5,100.9z"/>
			<path class="st15" d="M55.7,107.8c-0.4,0.5-1,0.4-1.5,0.4C54.4,107.1,54.9,106.9,55.7,107.8z"/>
			<path class="st15" d="M59.6,107.2c-0.2,0.4-0.6,0.5-1,0.4C58.7,107,58.9,106.5,59.6,107.2z"/>
			<path class="st5" d="M103.3,87.6c0.2,0,0.4,0,0.6,0c-0.2,0.3-0.3,0.8-0.9,0.5C102.9,87.8,102.9,87.6,103.3,87.6z"/>
			<path class="st5" d="M104.4,79.6c-0.5,0.2-0.9,0-1-0.5C103.9,78.9,104.3,79,104.4,79.6z"/>
			<path class="st0" d="M38.9,85c-0.1,0.3-0.3,0.2-0.5,0.1C38.6,85,38.8,85,38.9,85z"/>
			<path class="st0" d="M73.8,100.9c0.3-0.4,0.5-0.4,0.8,0C74.4,100.7,74.1,101.8,73.8,100.9z"/>
			<path class="st0" d="M73.1,100.3c0.3,0.1,1-0.3,0.8,0.6C73.2,101.2,73,101,73.1,100.3z"/>
			<path class="st2" d="M111.8,97.4c0,0.4-0.1,0.8-0.5,1C110.5,97.6,111.1,97.5,111.8,97.4z"/>
			<path class="st3" d="M176.7,58.5c2.3-0.3,4.3,0.9,6.4,1.5c4.6,1.3,9.2,1.8,13.9,2.2c-5.3,4.1-12.3,4-17.1-0.2
				C178.8,60.8,176.9,60.4,176.7,58.5z"/>
			<path class="st10" d="M168.3,61.9c-0.4-0.1-0.8-0.2-1.2-0.3c-0.4-0.9-1.7-1.4-1.2-2.7c0.3-0.7,0.9-0.9,1.6-0.9
				c1.3,0,3-0.2,3.4,1.6C171.5,61.7,169.2,61.1,168.3,61.9z"/>
			<path class="st11" d="M208.3,63.4c0.8,0.1,1.5,0.7,2.4,0.5c0.4,0.3,0.9,0.7,1.3,1c-0.1,1,1.2,2.3-0.7,2.7c-1.6,0.3-2.4-0.6-2.7-2
				C208.4,64.9,208.4,64.1,208.3,63.4z"/>
			<path class="st15" d="M119.1,232.6c-0.3,0.5-0.6,0.6-1,0.1C118.4,232.3,118.7,232.2,119.1,232.6z"/>
			<path class="st11" d="M96.7,86.5c-4.8,4.7-10.3,8.4-16.8,10.3c-3.8,1.1-7.6,2.3-11.5,3c0.9-2.2,2.8-3.2,4.8-3.8
				c4.6-1.3,8.9-3.1,12.5-6.5c0.5,2.2,1.1,2.4,2.6,1c1.6-1.5,1.9-3.8,0.7-6.2c0.1-0.8,0.4-1.3,1.3-1.4
				C92.8,82.7,95.5,84.1,96.7,86.5z"/>
			<path class="st4" d="M89,84.4c1.2,2.4,0.9,4.7-0.7,6.2c-1.5,1.4-2.1,1.2-2.6-1C86.8,87.8,87.9,86.1,89,84.4z"/>
			<path class="st5" d="M105.4,82.8c-0.2,2-0.9,2.7-2.6,1c-0.5-0.6-1.6-0.5-1.8-1.4C102.5,81.7,103.9,82.7,105.4,82.8z"/>
			<path class="st5" d="M95.4,80.8c0,0.2,0,0.5,0,0.7c-0.9-0.1-1.8-0.2-2.8-0.9C93.8,79.9,94.6,80.4,95.4,80.8z"/>
			<path class="st0" d="M65.8,82.1c0.8-2.9,2.8-4.9,4.7-7c2.5-2.7,7-3.7,10-1.8c0.8,0.5,1.4,1.3,2.2,1.9c1.3,5.3-3.7,9.4-7.4,11.7
				c-1.5,0.9-3.3,1.1-4.9,1.6c-1.4,0.4-3.8-1.5-4.2-3.2C65.9,84.2,65.9,83.2,65.8,82.1z M76.7,79.4c0.9,0.5,1.7-0.1,2.6-0.2
				c0.5,0,1.3,0.1,1.4-0.7c0.1-0.9-0.5-1.3-1.2-1.6c-0.7-0.3-1.4-0.2-2.2,0c-5-0.1-5.7,0.2-7.4,3.2C72.2,80.4,74.4,79.5,76.7,79.4z
				 M79.7,80.8c-2.8,0-5.6,0-8.3,0.6c-1.5-0.4-2.5,0.3-3.1,1.6c-0.4,0.8-0.5,1.8,0.8,2c-0.5,1.3-0.2,2,1.3,2
				c4.2,0.1,6.8-2.6,9.3-5.4c0.2-0.2,0.3-0.4,0.5-0.6C80.1,80.9,79.9,80.8,79.7,80.8z"/>
			<path class="st10" d="M78.3,88.5c-1.8,1.8-4,2.5-6.4,2.9c0-0.5,0-0.9,0-1.4c1-1,2.3-1.1,3.5-1.5C76.3,89.6,77.3,88.1,78.3,88.5z"
				/>
			<path class="st11" d="M78.3,88.5c-1-0.3-2,1.1-2.9,0c1.7-1.7,4.1-2.4,5.9-3.9c0,0.5,0,1,0,1.4c-0.3,0.3-0.7,0.7-1,1
				C79.2,87,78.4,87.2,78.3,88.5L78.3,88.5z"/>
			<path class="st3" d="M66.3,91.8c-0.2-0.1-0.4,0-0.4,0.3c-1.2,0.1-2.5,0.2-2.8-1.5c1,0.7,2.2,0.3,3.3,0.4
				C66.4,91.2,66.4,91.5,66.3,91.8z"/>
			<path class="st11" d="M71.9,90c0,0.5,0,0.9,0,1.4c-0.7,0-1.2,0.7-2,0.4C70.1,90.7,70.8,90.1,71.9,90z"/>
			<path class="st10" d="M84.3,81.3c-0.1,1-0.2,2.1-1.5,2.4C82.8,82.5,83.1,81.6,84.3,81.3z"/>
			<path class="st10" d="M81.2,86c0-0.5,0-1,0-1.4c0.3-0.6,0.8-1.1,1.6-0.9C82.6,84.7,82.2,85.5,81.2,86z"/>
			<path class="st3" d="M66.5,91c0.1-0.6,0.5-0.3,0.8-0.3C67,90.8,66.7,90.9,66.5,91z"/>
			<path class="st8" d="M178.2,29.4c0.2,0.1,0.4,0.2,0.7,0.2c-0.1,0-0.1,0.1-0.2,0.1C178.4,29.8,178.1,29.8,178.2,29.4L178.2,29.4z"
				/>
			<path class="st0" d="M125.5,230.4c0.2-0.2,0.4-0.4,0.5-0.6C126.2,230.3,125.8,230.3,125.5,230.4z"/>
			<path class="st10" d="M140.9,148.6c1,0.1,1.6,0.7,1.7,1.7c0.1,0.7-0.4,1.3-1.1,1.3c-1.1,0.1-1.6-0.6-1.6-1.6
				C139.8,149.3,139.9,148.7,140.9,148.6z"/>
			<path class="st10" d="M78.3,88.5c0.1-1.2,0.9-1.5,1.9-1.5C79.8,87.8,79.2,88.4,78.3,88.5z"/>
			<path class="st4" d="M118.2,234.2c0-0.1,0.1-0.1,0.1-0.2C118.2,234.1,118.2,234.1,118.2,234.2
				C118.1,234.2,118.2,234.2,118.2,234.2z"/>
			<path class="st15" d="M113.7,171.7c-1.8,1.6-3.8,3-6.4,3c-1.2-3.7,0.1-6.3,3.2-6.4C113,168.1,113.3,169.9,113.7,171.7z"/>
			<path class="st11" d="M193.4,112c0,0.6-0.2,1.1-0.8,1.1c-1,0-1.7-0.7-1.9-1.6c-0.2-0.7,0.4-0.8,0.9-0.7
				C192.4,110.8,193.2,111,193.4,112z"/>
			<path class="st10" d="M183.6,193.2c-1.3-0.6-2.2-1.3-2.1-2.8c0.1-1.5,1.1-2.2,2.4-2.3c1.2-0.1,1.8,0.9,1.5,1.9
				C185.2,191.3,185,192.6,183.6,193.2z"/>
			<path class="st10" d="M79.8,81.6c-2.5,2.8-5.1,5.5-9.3,5.4c-1.6,0-1.8-0.7-1.3-2c1.6-0.7,2.6-1.7,2.2-3.6
				c2.7-0.7,5.5-0.7,8.3-0.6C79.7,81,79.7,81.3,79.8,81.6z"/>
			<path class="st12" d="M76.7,79.4c-2.3,0.2-4.5,1-6.8,0.7c1.6-3,2.3-3.3,7.4-3.2C77.1,77.7,76.9,78.5,76.7,79.4z"/>
			<path class="st8" d="M71.4,81.4c0.3,1.9-0.7,2.9-2.2,3.6c-1.3-0.2-1.2-1.2-0.8-2C68.9,81.7,69.9,81,71.4,81.4z"/>
			<path class="st5" d="M76.7,79.4c0.2-0.8,0.4-1.7,0.6-2.5c0.7-0.2,1.5-0.3,2.2,0s1.3,0.8,1.2,1.6c-0.1,0.8-0.8,0.6-1.4,0.7
				C78.4,79.2,77.6,79.9,76.7,79.4z"/>
			<path class="st12" d="M79.8,81.6c0-0.3,0-0.6,0-0.8c0.2,0.1,0.3,0.1,0.5,0.2C80.1,81.2,79.9,81.4,79.8,81.6z"/>
		</g>
	</g>
	<circle class="st0" cx="8.7" cy="52.3" r="8.6"/>
	<circle class="st16" cx="7.1" cy="49.2" r="3.1"/>
	<circle class="st0" cx="33.7" cy="66.2" r="4.5"/>
	<circle class="st16" cx="32.8" cy="64.6" r="1.6"/>
	<polygon class="st0" points="229.1,34.4 250.8,25.2 227.7,32.1 	"/>
	<polygon class="st0" points="225.5,26 250,0.6 228.6,27.7 	"/>
</g>
</svg>
