<?xml version="1.0" encoding="utf-8"?>
<!-- Generator: Adobe Illustrator 27.9.1, SVG Export Plug-In . SVG Version: 6.00 Build 0)  -->
<svg version="1.1" id="Layer_1" xmlns="http://www.w3.org/2000/svg" xmlns:xlink="http://www.w3.org/1999/xlink" x="0px" y="0px"
	 viewBox="0 0 665.4 586.3" style="enable-background:new 0 0 665.4 586.3;" xml:space="preserve">
<style type="text/css">
	.st0{fill:#FCCA1D;}
	.st1{fill:#181516;}
	.st2{fill:#FBFBFB;}
	.st3{fill:#3F383B;}
	.st4{fill:#716E6D;}
	.st5{fill:#B21F36;}
	.st6{fill:#7A1E2F;}
	.st7{opacity:0.74;fill:#FFCCD6;}
	.st8{fill:none;}
	.st9{fill:#CFCECE;}
	.st10{opacity:0.58;}
	.st11{fill:#FFFFFF;}
	.st12{fill:#FCFCFC;}
	.st13{fill:#232121;}
	.st14{fill:#8E1830;}
	.st15{fill:#D6D5D5;}
	.st16{fill:#FCCD2A;}
	.st17{fill:#FDFDFD;}
	.st18{fill:#FFDE83;}
	.st19{fill:#D1CDC5;}
	.st20{fill:#7F3211;}
</style>
<g>
	<g>
		<circle class="st0" cx="316.9" cy="297.1" r="292.6"/>
	</g>
	<g>
		<g>
			<g>
				<g>
					<path class="st12" d="M183.9,133.3c0.2,2.9,0.3,5.7,0.7,8.7c-4.1,1.1-4.9,2.8-5,6.8c0.1,0.7,0.1,1.4,0.2,1.9
						c2.7,19.1,4.9,38.2,8,57.4c5.1,30.5,11.5,60.8,19.3,90.8c5.4,21.6,11.9,42.5,20.3,63.2c0.6,1.6,0.6,2.5,0.2,4.1
						c-2.2,8.9-4.5,17.6-4.8,26.7c-0.1,5.4,2,9.4,6.9,11.6c8,3.8,15.3,2.1,21.4-3.8c7.7-7.3,14.8-7.7,23.7-2.5
						c12.7,7.1,24.1,4.7,33.4-6.3c1.6-1.7,3.4-3.4,5.3-5.3c3.6-3.4,7.9-4.5,12.5-3.1c3.6,0.9,6.5,2.5,10,3.6
						c14.1,5.1,26.8,2.5,37.5-7.9c2.2-2.1,4.3-4.1,6.6-5.9c3.6-3.1,7.8-3.8,12.2-2.7c3.8,0.9,6.9,2.8,10.6,4
						c12.2,4.4,23.2,2.8,32.8-6c2.2-2.1,4.1-4.4,6.1-6.8c4.1-4.2,9.1-5.6,14.9-4.2c2.5,0.6,4.8,1.4,7.3,2c6.4,1.8,12,1,17.4-2.6
						c5.7-4,7.5-9.7,4.6-16.1c-3.9-8.3-9.2-15.7-15-23c-0.7-0.9-1.5-1.8-1.4-3.2c0.8-18.9-1.6-37.4-3.6-56.3
						c-2-17.2-4.7-34.2-7.7-51.2c-7.4-42.6-17-84.6-29.4-126c-3.3-10.9-6.9-22.2-12.3-32.2c-0.5-0.8-0.6-1.6-0.4-2.4
						c1.5-6.2,1.6-12.6,1.8-19.1c0-4,0.1-8.2-1.8-12c-4.7-8.7-17-10.5-24.7-3.4c-1.8,1.7-3.7,3.6-5.6,5.5c-4.2,3.7-8.9,4.5-13.8,1.6
						c-2.9-1.6-5.8-3.5-8.4-5.3c-10.1-5.3-22.1-3.5-30.1,5.5c-2.3,2.7-4.5,5.8-6.8,8.5c-5,5.9-10.9,7-17.6,3.5
						c-3.6-1.8-6.8-4-10.4-5.6c-10.2-4.6-21.1-2.5-29,5.7c-2.3,2.7-4.4,5.5-6.7,8.1c-5.7,6.9-11.6,8-19.3,3.6
						c-2.5-1.5-4.9-3.1-7.4-4.4c-11.3-5.8-22.6-3.1-30.3,7.3c-1.4,2-2.6,4.1-4.1,6.1c-3.5,4.8-7.6,6-13.2,3.9
						c-2.2-0.8-4-1.9-6.1-2.9c-6-2.6-11.2-1.3-15.8,2.8c-4.8,4-6.2,9.1-4.1,14.8c2.8,7.8,6.5,15.2,11.5,21.9
						c1.1,1.4,1.2,2.7,1.3,4.3c-0.8,10,0.1,19.9,1.1,29.7C178.3,132.2,179.6,133.4,183.9,133.3z"/>
					<path class="st13" d="M183.9,133.3c-4.3,0.1-6.1-1.2-6.2-5.5c-0.9-9.9-1.8-19.8-1.1-29.7c0.2-1.6-0.5-2.9-1.3-4.3
						c-4.9-6.9-8.6-14.3-11.5-21.9c-2.2-5.7-0.7-10.8,4.1-14.8c4.8-4,10.1-4.9,15.8-2.8c2.1,1,4,1.9,6.1,2.9
						c5.6,2.1,9.5,0.9,13.2-3.9c1.7-2,2.6-4.1,4.1-6.1c7.5-10.5,18.8-13.2,30.3-7.3c2.5,1.3,5,2.9,7.4,4.4
						c7.7,4.4,13.8,3.3,19.3-3.6c2.1-2.8,4.2-5.8,6.7-8.1c7.6-8.1,18.6-10.6,29-5.7c3.6,1.6,6.9,3.8,10.4,5.6
						c7,3.3,12.7,2.1,17.6-3.5c2.3-2.7,4.5-5.8,6.8-8.5c8.1-8.9,19.8-10.8,30.2-5c2.9,1.6,5.7,3.7,8.4,5.3c5,2.6,9.6,2.1,13.8-1.6
						c1.8-1.7,3.7-3.6,5.6-5.5c7.6-7.1,19.9-5.3,24.7,3.4c1.9,3.8,1.9,7.8,1.8,12c-0.2,6.6-0.5,12.6-1.8,19.1
						c-0.2,0.9-0.2,1.6,0.4,2.4c5.5,10.3,9,21.3,12.3,32.2c12.4,41.5,22.3,83.3,29.4,126c2.7,16.9,5.7,33.9,7.7,51.2
						c2.1,18.7,4.2,37.3,3.6,56.3c-0.1,1.4,0.9,2.1,1.4,3.2c5.6,7.2,11.1,14.7,15,23c2.9,6.4,1.1,12.1-4.6,16.1
						c-5.1,3.7-11,4.4-17.4,2.6c-2.5-0.6-4.8-1.6-7.3-2c-5.8-1.2-10.6,0-14.9,4.2c-1.9,2.1-4,4.7-6.1,6.8c-9.7,8.7-20.8,10.1-32.8,6
						c-3.7-1.4-6.8-3.1-10.6-4c-4.5-1.1-8.6-0.4-12.2,2.7c-2.1,1.9-4.5,3.9-6.6,5.9c-10.8,10.4-23.4,13-37.5,7.9
						c-3.5-1.3-6.4-2.7-10-3.6c-4.7-1.1-9.1-0.3-12.5,3.1c-1.8,1.7-3.4,3.4-5.3,5.3c-9.5,10.9-20.9,13.3-33.4,6.3
						c-8.9-5.2-16.3-4.9-23.7,2.5c-5.9,5.7-13.6,7.6-21.4,3.8c-4.9-2.4-7.2-6.5-6.9-11.6c0.3-9.1,2.6-17.8,4.8-26.7
						c0.3-1.3,0.4-2.5-0.2-4.1c-8.5-20.5-14.9-41.6-20.3-63.2c-7.8-30-14.2-60.3-19.3-90.8c-3.2-18.9-5.4-38.1-8-57.4
						c-0.1-0.7-0.1-1.4-0.2-1.9c-0.4-4.1-2.3-20.7,1.7-21.8c3.5,0.4,8.8,17.3,8.8,20.1c0.3,8.6,1.8,17,3,25.5
						c2.3,15.9,4.5,32,7.5,47.8c3.3,19.4,7.6,38.7,12.2,57.9c3.6,15.5,7.4,30.8,12,45.9c3.5,11,7.2,21.8,11.5,32.5
						c0.9,2.1,2.1,2.9,4.3,2.7c28.5,1,57.2-1.3,85.4-6c30.5-5.1,61.2-11.1,91-20.9c13.9-4.7,27.8-9.6,41-15.5c1.6-0.8,2-1.6,2.3-3.5
						c0.1-8.2-0.1-16.3-0.9-24.5c-1.2-17.3-3.4-34.8-5.8-51.9c-2.4-15.4-4.9-30.4-7.6-45.7c-3.3-18.5-7.4-36.5-12-54.8
						c-4.8-19.1-9.4-38.1-15.2-57c-2.4-7.7-5-15.6-8.6-22.9c-0.7-1.1-0.9-2.1-2.3-2.2c-7-0.3-14.4-0.2-21.5,0.9
						c-1.2,0-2.4,0.1-3.6,0.1c-22.7,1.3-45,4.5-67.1,8.3c-24.1,4.1-47.7,9-71.2,15.5c-11.9,3.3-24,6.5-35.6,10.7
						c-7.3,1.8-13.9,4.7-20.9,7.2c-1.3,0.4-1.5,1.3-1.5,2.5c0,9,0.2,17.7,1.1,26.7C188,129.8,187,132.2,183.9,133.3z M316.4,364.7
						c-1.3-0.3-2.8,0-4.1,0.4c-16.8,2.3-33.7,3.9-50.6,4.5c-7.1,0.2-14.6,0-21.7,0.2c-0.9,0-2.2-0.5-2.6,1c-1.4,7-3.2,14.3-3.8,21.5
						c-0.1,2.3,1,3.6,3.1,3.8c1.8,0.4,3.5,0.1,5.1-0.6c2.9-1.4,5-4,7.7-5.7c8.3-6,16.9-7.2,26.3-2.4c2.3,1.3,4.6,2.5,7.2,3.4
						c6.1,2.9,11.7,1.4,16.1-3.2c1.9-1.9,3.9-4.3,5.7-6.2c7.5-7.6,16.6-9.9,26.9-6.7c2.8,0.9,5.6,2.3,8.4,3.2
						c3.7,1.4,7.4,2.5,11.6,1.9c1.7-0.1,3.7-0.5,5.2-0.9c2.7-0.5,5.2-2,7.3-3.7c2.4-2,4.9-4.5,7-6.6c6.1-5.6,13.2-8.8,21.9-7.7
						c4.6,0.4,9,2.7,13.5,4.5c9.7,4,17.6,2.4,24.7-5.4c1.6-1.7,3.1-3.2,5-5.2c5.6-5.5,12.2-7.7,19.9-7.2c3,0.3,6.1,1.2,9,1.7
						c0.4,0.1,0.9,0.2,1.3,0.3c0.8,0.7,1.5,0.8,2.5,0.6c1,0.7,2.1,0.3,3,0.3c5.7-0.3,7.6-3.1,4.5-7.9c-3.1-4.8-6.6-9.9-9.7-14.6
						c-1.4-2.2-2.9-2.6-5.3-1.5c-20.1,8.8-41,15.3-62.2,21.3c-4.1,1.1-8.2,1.8-12.2,3.7c-3.2,0.6-6.7,1.2-9.8,2.4
						c-1.2,0-1.9,0.2-3,0.7c-15.1,2.9-30.2,5.9-45.3,8.8c-2.1,0-4.3,0.4-6.6,0.8C320.5,364.1,318.3,364.5,316.4,364.7z M277.4,40.3
						c-1.1,0.5-1.5,1.3-1.9,2.1c-3,4.5-6.7,8.1-11.2,11.2c-0.8,0.3-1.5,0.3-2.3,0.9c-7.2,3.2-14.4,2.9-21.3-0.9
						c-3.1-1.7-6-3.6-9.1-5.3c-6.1-3.1-11.6-1.6-15.5,3.8c-1.4,1.8-2.3,3.5-3.5,5.5c-4,5.9-9.4,9.5-16.4,10.4
						c-5.3,0.6-10.1-1-14.5-3.5c-1.7-0.9-3.5-2-5.7-0.9c-2.6,1-2.9,3.3-2.1,5.6c2.4,6.5,5.8,12.2,9.1,18c0.8,1.4,1.7,0.9,2.7,0.4
						c7.5-2.7,15.3-5.5,22.7-8.2c4.9-1.6,10.1-2.7,14.6-4.9c0.5-0.1,0.8-0.3,1.3-0.4c1.4-0.1,2.4-0.4,3.5-0.8
						c4.1-1.4,8-2.1,12.4-3.4c9.5-2.4,19.1-4.8,28.6-7c22.7-5.1,45.5-9.5,68.4-12.7c9.8-1.4,19.5-2.6,29.3-4
						c0.2,0.1,0.4,0.1,0.7,0.2c13-0.9,26-2.2,39.2-2.1c1.2,0,1.5-0.3,1.5-1.3c0.7-6.7,1.8-13.5,1.1-20.3c-0.4-3.4-1.5-4.4-5.1-4.3
						c-4,0-5.4,2.9-7.9,5.2c-9.1,9.1-20.4,10.2-31.2,3.3c-2-1.4-3.9-2.6-5.9-3.8c-5.2-2.7-10.6-2.1-15,1.6c-2.1,1.9-3.8,4-5.3,6.3
						c-5.8,8.5-13.8,13-24,12.6c-6.3-1.1-11.7-4.3-17.1-7.4C290.2,32.3,282.6,33.6,277.4,40.3z"/>
					<path class="st14" d="M386.5,55.4c7.1-1.1,14.4-1,21.5-0.9c1.4-0.1,1.8,1.2,2.3,2.2c3.4,7.4,6,15.1,8.6,22.9
						c6,18.9,10.9,37.8,15.2,57c4.5,18.3,8.9,36.4,12,54.8c2.7,15.3,5.2,30.3,7.6,45.7c2.7,17.2,4.6,34.6,5.8,51.9
						c0.6,8.2,0.8,16.2,0.9,24.5c0,1.9-0.7,2.9-2.3,3.5c-13.5,5.9-27.2,10.9-41,15.5c-29.6,10.1-60,15.9-91,20.9
						c-28.3,4.7-56.7,7-85.4,6c-2.1,0-3.6-0.6-4.3-2.7c-4.3-10.7-8-21.5-11.5-32.5c-4.6-15.3-8.4-30.6-12-45.9
						c-4.8-19.1-8.6-38.4-12.2-57.9c-2.8-15.8-5.2-31.9-7.5-47.8c-1.2-8.6-2.7-16.9-3-25.5c-0.2-2.9,3.5,0,0.2-0.3
						c-0.2-2.9-6.1-10.5-6.6-13.5c3.1-1.1,4.1-3.5,3.8-6.9c-0.7-8.9-1.1-18-1.1-26.7c0.1-1.4,0.3-2.1,1.5-2.5
						c7-2.6,13.6-5.4,20.9-7.2c-0.1,1.4-1.5,1.5-2.4,2.2c-2.4,1.3-4.4,3.4-5.7,6.2c-4.1,8-4.2,16.2-4.1,24.7c0.2,4.1,1.5,8.4-2.2,12
						c-0.9,1-0.6,1.5,0.7,1.8c0.9,0.2,1.5,0.8,2.3,1c1.3,0.5,2.1,1.2,0.6,2.3c-0.9,0.7-1.3,1.6-1.1,2.8c1.5,11.4,2.7,23.1,4.4,34.6
						c1.6,9.8,2.6,19.5,4.5,29.2c3,16.1,5.9,32.3,9.8,48.4c3.1,12.5,6.2,25.1,9.8,37.5c2.7,9.4,5.6,18.6,11.3,26.6
						c5,7.6,10.6,14.8,20,17.6c-1.5,1.3-3,1.6-4.6,1.5c-2.8,0-5.4-0.1-8.2-1.1c-0.4-0.1-1.3-0.5-1.4,0.1c-0.4,0.6,0,0.9,0.3,1.5
						c1,1.9,2.4,3.9,3.8,5.6c5.3,6.2,12.6,7.5,20.1,8.4c10.2,0.8,20.4,0.7,30.8,0.4c12.9-0.7,26.1-1.5,38.9-3.6
						c17.7-2.8,35.3-6.5,52.1-12.4c11.1-3.9,22.2-7.8,32.2-14.1c8.3-5.1,15-11.5,19.9-19.9c6.1-10.8,6.8-22.4,6.7-34.5
						c-0.1-0.7-0.1-1.7-0.9-2.1c-0.8-0.4-1.5,0.3-2.1,0.9c-3.3,3-7.1,4.9-11.1,6c-1.8,0.7-3.7,1.5-6,0.4c0.8-0.5,1.4-0.8,1.7-1
						c10.3-6.5,16-15.5,16.4-27.7c-0.1-1.4-0.6-3.2-0.5-4.6c-0.5-11.5-2.3-22.5-4.2-33.3c-4.3-23.9-9-47.7-14.8-71.3
						c-1.8-7.1-3.4-14-4.8-21c-0.9-4-1.9-7.8-2.8-11.8c-2.9-9.7-5.3-19.2-8.4-28.7c-0.7-1.8-1.3-2.4-3.3-2c-3.2,0.6-6.3-0.1-9.6-1.4
						c2.3-0.9,4.2-0.9,5.9-2.1c3.4-2.2,3.5-3.6,0.4-6.5c-3.5-3-7.5-4.9-12.1-5.5C389.3,56.6,387.8,56.9,386.5,55.4z"/>
					<path class="st5" d="M386.5,55.4c1,1.7,2.8,1.1,4.2,1.2c4.6,0.6,8.8,2.6,12.1,5.5c3.2,2.4,2.8,4.2-0.4,6.5
						c-1.7,1-3.6,1-5.9,2.1c3.4,1.5,6.3,2.2,9.6,1.4c1.8-0.5,2.6-0.1,3.3,2c3.1,9.5,5.5,19,8.4,28.7c1.2,3.8,2.1,7.8,2.8,11.8
						c1.6,7,3.2,14,4.8,21c6.1,23.6,10.4,47.6,14.8,71.3c2,11.1,4.1,22.2,4.2,33.3c0.1,1.4,0.6,3.2,0.5,4.6
						c-0.1,12.2-6.1,21.4-16.4,27.7c-0.6,0.3-1.1,0.7-1.7,1c2.3,1,4.1-0.2,6-0.4c4.1-1.4,7.6-3.1,11.1-6c0.6-0.6,1.2-1.1,2.1-0.9
						c0.8,0.4,0.8,1.6,0.9,2.1c0.4,12.1-0.8,23.6-6.7,34.5c-4.7,8.5-11.6,14.9-19.9,19.9c-10.2,6.3-20.9,10.3-32.2,14.1
						c-17,5.8-34.6,9.3-52.1,12.4c-12.8,2.1-25.8,3.2-38.9,3.6c-10.2,0.4-20.7,0.7-30.8-0.4c-7.5-0.4-14.6-2.1-20.1-8.4
						c-1.5-1.8-2.6-3.7-3.8-5.6c-0.3-0.6-0.7-0.9-0.3-1.5c0.4-0.8,1.3-0.4,1.4-0.1c2.6,0.9,5.4,1.1,8.2,1.1c1.7-0.1,3.3-0.1,4.6-1.5
						c-9.4-3-15-10.2-20-17.6c-5.3-8.1-8.6-17.2-11.3-26.6c-3.8-12.5-6.7-25-9.8-37.5c-3.9-16-6.8-32.3-9.8-48.4
						c-1.7-9.6-3.1-19.4-4.5-29.2c-1.7-11.5-3-22.9-4.4-34.6c-0.2-1.2,0-2.1,1.1-2.8c1.7-1,0.9-1.9-0.6-2.3c-0.8-0.4-1.5-0.8-2.3-1
						c-1.3-0.5-1.3-1.3-0.7-1.8c3.4-3.4,2.3-7.7,2.2-12c-0.1-8.5,0.1-17,4.1-24.7c1.4-2.7,3-4.7,5.7-6.2c1.1-0.5,2.3-0.9,2.4-2.2
						c11.4-4.3,23.5-7.5,35.6-10.7c23-6.5,46.9-11.3,70.7-15.4c22.2-4.1,44.6-6.9,67.1-8.3C384.2,55.5,385.3,55.6,386.5,55.4z
						 M304.4,106.3c-3.2,0.6-6.5,1.5-9.5,2.2c-21,6-39,16.8-53.4,33.3c-20.9,24-28.5,51.6-20.2,82.6c6,22,19,39.5,37.9,52.1
						c29.1,19.3,60.4,23.6,93.8,13c22.2-6.9,40.7-20.1,54.3-39.2c16.6-23.6,22.5-49.3,15-77.5c-5.5-21.2-18-37.9-35.8-50
						C361.4,105.7,333.8,100.9,304.4,106.3z"/>
					<path class="st12" d="M314.5,44.1c10.3,0.4,18.5-4.3,24-12.6c1.7-2.2,3-4.5,5.3-6.3c4.7-3.8,9.8-4.5,15-1.6
						c2.1,1.2,3.9,2.4,5.9,3.8c10.8,6.9,22,5.8,31.4-3c2.2-2.1,3.9-5.4,7.9-5.2c1.2,4.8,0.1,9.2-1.2,13.9c-1.1,3.7-3.8,5.9-7.1,8
						c-6,3.5-13,3-19.6,4c-3.2,0.6-6.4,0.3-9.2,2c-9.8,1.4-19.4,2.4-29.3,4c-23.2,3.1-45.9,7.5-68.4,12.7c-9.7,2.1-19,4.6-28.6,7
						c-4.1,1.1-8.3,2-12.4,3.4c-1.3-1.3-2.8-1.1-3.5,0.8c-0.5,0.1-0.8,0.3-1.3,0.4c-1-0.9-1.8-0.2-2.8,0c-5.5,1.3-10.8,2.6-16.1,4.1
						c-2.8,0.7-5.8,1.4-8.7,1.7c-9.8,0.5-16-7.2-19.7-17c1.9-1,4,0,5.7,0.9c4.6,2.3,9.4,3.9,14.5,3.5c7.1-0.9,12.6-4.3,16.4-10.4
						c1.4-1.8,2.3-3.5,3.5-5.5c4-5.6,9.5-7.1,15.5-3.8c3.1,1.7,6,3.6,9.1,5.3c6.9,3.6,14.1,4.1,21.3,0.9c0.8-0.3,1.6-0.6,2.3-0.9
						c0.5,0.8,1.2,0.8,1.8,0.2c4.9-2.8,8.7-6.9,11.8-11.5c0.7-1-0.1-1.4-0.7-2.1c5.2-6.8,12.6-8,19.8-3.7c0.9,4.2,12.4,9.1,16,8.1
						C313.9,44.7,314.4,44.3,314.5,44.1z"/>
					<path class="st12" d="M466.4,349.4c-0.4-0.1-0.9-0.2-1.3-0.3c-0.2-1-0.8-1.4-1.5-1.5c-12.2-4.1-23.5-0.5-32.7,9.5
						c-3.5,3.9-6.9,8-12.5,8.5c-4.4,0.6-8.4-1.3-12.4-3.2c-2.7-1.4-5.5-2.7-8.6-3.3c-8.1-1.5-15.7,0.5-22.9,4.1
						c-3.2,1.6-6.1,3.7-8.5,6.7c-2.5,3.4-6.2,5.3-8.8,8.2c-1.6,0.8-3.5,0.8-5.2,0.9c-0.3-0.8-0.9-1.2-1.6-1.1
						c-4.3-0.6-8.4-2.5-12.2-4.4c-12.8-5.5-28.8-2-37.6,9.3c-5.8,7.6-11.7,9.2-20.6,3.3c-8.3-5.6-18-5.8-27.1-1.1
						c-3.8,1.9-6.6,5-10,7.2c-0.8,0.5-1.4,1.1-2.3,0.9c-1-0.7-1-1.7-0.8-2.6c1.1-6.6,4.3-11.9,10.6-15.4c4.7-2.9,10.5-3.4,16-3.7
						c8.7-0.7,17.5-1.9,26.1-2.6c5.3-0.4,10.6-1.9,15.9-2.3c2.9-0.2,6.2-0.2,8.7-1.9c2-0.5,4.2-0.6,6.4-1c2.3,1.3,4.5,0.1,6.6-0.8
						c15.1-2.9,30.2-5.9,45.3-8.8c1.3,0.5,2.2,0.5,3-0.7c3.1-1.1,6.6-1.7,9.8-2.4c0.4,0.1,1.1,0.5,1.3,0.3
						c7.3-1.1,14.5-3.3,21.7-4.9c2.5-0.6,4.8-1.2,7.3-2c10.1-2.7,19.9-6.3,30.3-8.2c8.4-1.7,15.5,0.2,21.5,6.6
						c2.1,2.2,3.9,4.5,2.7,7.5c-1.2,0-1.9,0.2-3-0.3C468.1,349.1,467.6,348.3,466.4,349.4z"/>
					<path class="st15" d="M316.4,364.7c-2.5,1.7-5.7,2.2-8.7,1.9c-5.5,0.1-10.6,1.7-15.9,2.3c-8.7,0.7-17.3,2.2-26.1,2.6
						c-5.3,0.4-10.8,0.9-16,3.7c-6,3.5-9.2,8.9-10.6,15.4c-0.3,1.1-0.3,2.1,0.8,2.6c1,0.7,1.7-0.3,2.3-0.9c3.2-2.5,6-5.4,10-7.2
						c9.4-4.6,18.8-4.4,27.1,1.1c9.2,6,14.8,4.1,20.6-3.3c8.9-11.3,24.8-14.8,37.6-9.3c3.9,1.6,7.9,3.6,12.2,4.4
						c0.7,0.2,1.3,0.3,1.6,1.1c-4.1,0.4-7.7-0.4-11.6-1.9c-2.8-1.1-5.6-2.3-8.4-3.2c-10.3-3.2-19.2-0.6-26.9,6.7
						c-1.9,2.1-3.9,4.3-5.7,6.2c-4.9,4.5-10.1,5.8-16.1,3.2c-2.3-1-4.9-2.4-7.2-3.4c-9.2-4.8-18-3.6-26.3,2.4c-2.6,2-5,4.2-7.7,5.7
						c-1.7,1-3.3,1.1-5.1,0.6c-2-0.5-3.4-1.5-3.1-3.8c0.3-7.2,2.1-14.6,3.8-21.5c0.4-1.6,1.7-1,2.6-1c7.1,0.1,14.6,0,21.7-0.2
						c16.9-0.4,33.7-2,50.6-4.5C313.5,365,314.8,364.4,316.4,364.7z"/>
					<path class="st15" d="M472,350.5c1-3.3-0.8-5.4-2.7-7.5c-5.8-6.4-13.1-8.4-21.5-6.6c-10.2,2-20.2,5.5-30.3,8.2
						c-2.6,0.8-4.8,1.4-7.3,2c-7.3,1.8-14.2,3.9-21.7,4.9c-0.5,0.1-0.9-0.2-1.3-0.3c3.9-1.6,8.1-2.3,12.2-3.7
						c21.3-5.9,42.2-12.4,62.2-21.3c2.3-0.9,3.7-0.8,5.3,1.5c3,5,6.6,9.9,9.7,14.6C479.4,347.3,477.7,350.3,472,350.5z"/>
					<path class="st15" d="M366.8,46.4c2.8-1.7,6.1-1.6,9.2-2c6.7-1.2,13.6-0.5,19.6-4c3.3-1.8,5.9-4,7.1-8c1.6-4.6,2.7-9,1.2-13.9
						c3.5,0.1,4.7,1.1,5.1,4.3c0.4,6.9-0.5,13.6-1.1,20.3c0,1.2-0.5,1.3-1.5,1.3c-13-0.1-26.1,0.8-39.2,2.1
						C367.2,46.7,367,46.4,366.8,46.4z"/>
					<path class="st15" d="M176,63.4c4,9.7,9.9,17.5,19.7,17c2.9-0.2,5.8-0.7,8.7-1.7c5.3-1.5,10.7-3.1,16.1-4.1
						c1-0.2,1.8-0.7,2.8,0c-4.8,2.1-10,3.2-14.6,4.9c-7.5,2.7-15.3,5.5-22.7,8.2c-1.1,0.5-1.9,1-2.7-0.4c-3.3-5.8-6.9-11.6-9.1-18
						C173.1,66.7,173.4,64.7,176,63.4z"/>
					<path class="st15" d="M356.7,378.5c2.6-3.1,6.4-5.1,8.8-8.2c2.1-3,5.2-5.1,8.5-6.7c7.3-3.7,14.6-5.9,22.9-4.1
						c3.2,0.5,5.9,1.9,8.6,3.3c3.8,1.9,7.9,3.6,12.4,3.2c5.6-0.8,9.1-4.6,12.5-8.5c9.3-10,20.5-13.4,32.7-9.5
						c0.9,0.2,1.3,0.5,1.5,1.5c-3-0.5-6-1.5-9-1.7c-7.6-0.7-14.3,1.7-19.9,7.2c-1.8,1.5-3.4,3.2-5,5.2c-7.1,7.7-15,9.3-24.7,5.4
						c-4.2-2-8.8-3.8-13.5-4.5c-8.5-0.9-15.6,2.1-21.9,7.7c-2.4,2.2-4.6,4.5-7,6.6C362.1,376.5,359.4,378,356.7,378.5z"/>
					<path class="st15" d="M277.4,40.3c0.6,0.6,1.1,1.2,0.7,2.1c-2.9,5-6.6,8.8-11.8,11.5c-0.8,0.3-1.5,0.3-1.8-0.2
						c4.7-2.9,8.2-6.7,11.2-11.2C276.1,41.7,276.6,40.8,277.4,40.3z"/>
					<path class="st15" d="M314.5,44.1c-0.2,0.7-0.7,0.8-1.2,0.9c-3.7,0.8-15.1-3.9-16-8.1C302.8,39.6,308.2,42.8,314.5,44.1z"/>
					<path class="st15" d="M329.1,362.9c-1.9,1-4.3,2.3-6.6,0.8C324.8,363.2,327,362.8,329.1,362.9z"/>
					<path class="st15" d="M224.6,74.3c0.7-2,1.9-1.9,3.5-0.8C227.1,73.9,225.8,74.3,224.6,74.3z"/>
					<path class="st15" d="M377.1,353.5c-0.8,1.2-1.7,1.2-3,0.7C375.2,353.7,376.4,353.6,377.1,353.5z"/>
					<path class="st15" d="M466.4,349.4c1.2-1.1,1.8-0.5,2.5,0.6C467.8,350.4,467.2,350.1,466.4,349.4z"/>
					<path class="st13" d="M304.4,106.3c29.6-5.1,57-0.6,82.2,16.4c17.8,12.1,30.1,28.8,35.8,50c7.6,28.3,1.6,53.9-15,77.5
						c-13.6,19.3-31.9,32.2-54.3,39.2c-33.2,10.4-64.8,6.3-93.8-13c-18.9-12.6-31.9-30.1-37.9-52.1c-8.5-31.1-0.7-58.7,20.2-82.6
						c14.2-16.6,32.6-27.3,53.4-33.3C297.9,107.8,301.2,106.9,304.4,106.3z M338.2,283.2c2.8-0.7,5.3-1.3,8-2.1
						c2.6-0.8,4.9-1.6,7.4-2.2c25.7-9.8,44.5-27,55.2-52.5c13.3-31.7,4.9-67-20.9-89.3c-23-20-49.9-25.8-79.4-20.9
						c-23.4,4-43,14.8-58.8,32.3c-26.6,29.2-28.2,72.7-2.7,102.9C270.6,279.8,302,288.6,338.2,283.2z"/>
					<path class="st12" d="M338.2,283.2c-36,5.4-67.6-3.6-91.6-32.1c-25.5-30.2-24-73.5,2.7-102.9c16-17.4,35.6-28.2,58.8-32.3
						c29.6-5.1,56.4,1.1,79.4,20.9c26,22.3,34.1,57.8,20.9,89.3c-10.7,25.5-29.5,42.9-55.2,52.5c-2.3,0.9-4.7,1.7-7.4,2.2
						C343.5,281.9,340.7,282.6,338.2,283.2z M398.6,178.2c-2.8-13.7-8.3-23-17.8-29.8c-9.7-6.6-20.3-8.9-31.5-4.5
						c-7,2.8-12.2,7.7-17.1,13.3c-4,4.7-8,9.6-12,14.3c-4,4.7-8.6,9-14.8,11.3c-7.4,2.4-14.6,1.7-21.8-0.6
						c-11.8-3.8-23.2-3.5-34.2,3.8c-5.6,3.8-9.1,8.4-9.6,15.1c-0.6,14,4.9,25.7,16.8,33.1c16.8,10.7,34.7,9.8,52.8,3.3
						c1.8-0.7,3.5-0.8,5.7,0c25.9,11.9,54.3,4.9,71.1-17.9C396.2,206.4,401.1,192,398.6,178.2z"/>
					<path class="st13" d="M395.2,178.8c2.2,13.4-2.5,27-11.4,39.7c-16.3,21.8-43.5,28.5-68.1,17.2c-1.8-0.9-3.5-0.6-5.4,0
						c-17.3,6.2-34.4,7-50.5-3.2c-11.4-7-16.5-18.5-16-31.7c0.2-6.5,3.8-10.8,9.2-14.5c10.4-6.7,21.3-7,32.7-3.6
						c6.7,2.1,13.8,2.9,20.9,0.5c5.7-2.2,10.1-6.1,14.1-10.8c3.8-4.5,7.6-9.2,11.4-13.7c4.7-5.4,9.7-10.1,16.4-12.7
						c10.8-4.4,20.9-2.2,30.1,4.4C387.5,156.8,392.5,165.7,395.2,178.8z M282.2,192.3c1.3,1.2,3.1,2.3,4.3,3.5
						c7.3,6.3,13.5,13.4,19.8,20.6c10,11,22.5,16.3,37.1,14.6c20.9-2.2,36.8-16.6,41.3-37.4c2.9-13.1,0.1-24.6-9.9-33.8
						c-7.4-6.8-19.6-10.4-30.2-0.3c-1.8,1.8-3.9,3.8-5.7,5.8c-4.3,4.8-8.4,9.7-12.6,14.6c-11,12.7-24.6,16.6-40.7,12.3
						C284.5,192.4,283.2,191.9,282.2,192.3z M304.1,227.8c-5.7-5.2-10.5-10.7-15.3-15.9c-3.2-3.5-6.9-7.1-10.4-10.2
						c-4.1-3.5-8.4-6.5-14-7.7c-6.7-1.4-11.3,2-11,9.1c0.7,9.4,4.3,17.5,12.8,22.5C278.4,232.2,290.9,231.2,304.1,227.8z"/>
					<path class="st16" d="M282.2,192.3c1.3-0.8,2.3-0.3,3.6,0c16.1,4.4,29.7,0.4,40.7-12.3c4.3-4.8,8.2-9.7,12.6-14.6
						c1.8-2,3.7-4.1,5.7-5.8c10.6-10.1,23-6.4,30.2,0.3c10,9,12.8,20.7,9.9,33.8c-4.5,20.6-20.3,35.3-41.3,37.4
						c-14.8,1.6-27.1-3.6-37.1-14.6c-6.4-7-12.8-14.2-19.8-20.6C285.2,194.8,283.5,193.5,282.2,192.3z"/>
					<path class="st16" d="M304.1,227.8c-13.3,3.6-25.9,4.3-37.5-2.5c-8.5-5-12.4-12.9-12.8-22.5c-0.4-6.9,4.1-10.5,11-9.1
						c5.4,1.1,9.8,4.4,14,7.7c3.7,3.2,7.2,6.7,10.4,10.2C293.8,217.2,298.4,222.4,304.1,227.8z"/>
				</g>
			</g>
			<polyline class="st5" points="196.6,126.7 196.9,144 202.1,141.2 205.6,133.5 			"/>
		</g>
		<polyline class="st13" points="187.2,119.2 190.5,151.4 180.1,149.6 179.6,128 		"/>
	</g>
	<g>
		<g>
			<g>
				<path class="st13" d="M559.8,405.9c0.3,0,0.5,0,0.8,0c3-0.8,5.8,0,7.6,2.8s1,5.3-0.8,7.6c-4.8,8.1-9.8,16.1-14.9,24.2
					c-10.6,16.9-21.7,33.6-31.8,50.7c-6.8,11.1-9.6,24-11.9,36.6c-0.3,1.3-0.5,2.3-0.8,3.5c-1.3,6.3-2.5,7.3-8.8,5.8
					c-6.1-1.5-10.3-5.6-13.4-10.3c-2.8-4.3-6.3-6.8-11.9-7.1c-8.6-0.3-15.1-4.8-18.7-12.6c-3.8-7.8-8.8-11.6-17.9-10.9
					c-7.3,0.5-12.6-4-16.4-9.8c-2-3-4.3-5.8-5.6-9.1c-1.8-4.3-4.5-5.3-8.8-5.3c-3,0-6.3-0.8-9.3-1.3c-8.8-1.3-15.4-6.1-19.9-13.4
					c-1-1.5-2-2.5-2.5-4c-2-6.3-6.8-8.3-13.1-9.1c-11.1-1.3-19.4-7.1-24-16.9c-3.3-7.3-8.8-9.8-15.9-11.4c-9.1-2.3-18.4-4.8-24-13.9
					c-2-3.3-1.5-5,1.5-7.3c9.6-6.6,18.4-13.4,26.2-22c8.8-9.6,14.9-20.9,21.7-31.8c14.9-24.2,29-48.4,42.4-73.4
					c1-1.5,2.3-3.3,3.5-4.8c7.3,0.8,7.8,1.5,9.3,7.1c-0.5,1.5-1,2.8-1.5,4c-10.9,20.7-22.7,40.9-35.1,60.6c-1.8,3-1.8,4.5,1.3,7.1
					c13.1,10.3,26.2,20.9,39.6,30.8c29,21.7,58.8,42.4,90.1,60.8c0,0.3,0,0.5-0.3,0.8c-0.8,1.3-1.5,2-2.3,3.3c-1.3-0.5-2-1-3.3-1.5
					c-22.2-13.6-44.2-28-65.4-43.4c-21.2-15.1-41.9-30.8-61.8-47.2c-2.8-2.3-3.8-1.5-5.3,1.3c-3.8,6.1-7.3,12.1-11.4,18.2
					c-1.5,2-1.5,3.3,0.8,5c18.9,16.4,38.9,32.3,59.3,47.2c32.6,23.7,65.9,46.2,101.9,64.1c2,1.3,3.3,1,4.3-1.3
					c4.3-7.1,8.6-13.9,13.1-20.7c1.5-2,0.8-2.8-1.3-4c-6.8-3.8-13.4-7.6-20.2-11.4c0.3-1.5,1.5-2.5,2.3-3.8
					c6.6,3.5,13.1,7.1,19.2,10.3c2.5,1.5,4.3,1.8,6.1-1.5c4.8-8.3,10.1-16.1,15.4-24.5C551.7,418.5,555,411.4,559.8,405.9z
					 M419.3,466.7c0,0.8,0.5,1.3,1,1.5c1,1.5,1.8,3.5,2.8,5c9.6,15.4,8.3,14.6,24.7,14.9c4.3,0,7.6,1.5,9.6,5.6c0.5,1.3,1.3,2,1.8,3
					c1.5,3.3,3.3,6.6,5.8,9.1c1.8,3.8,5.3,4.8,9.1,5.3c3.8,0.5,7.6,0,11.4,1c4.3,4.3,7.1,10.6,12.4,14.6c0.3-0.5,0.5-0.5,0.8-0.8
					c1.8-9.1,3-18.4,6.1-27.3c0.5-1.5-0.5-1.8-1.5-2.3c-3.8-1.8-7.3-3.8-10.9-5.6c-9.1-5-18.2-10.3-27-15.6
					c-10.3-6.3-20.4-12.6-30.8-18.9c-0.8-1.3-2-1.5-3.3-2.3c-12.1-8.3-24-16.9-36.1-25.2c-1-0.8-1.5-1.5-2.8-2
					c-2.8-2.3-5.8-4.3-8.6-6.8c-13.6-10.3-26.7-21.2-39.9-31.8c-2.3-2-4.8-4.3-7.3-6.8c-1.5-1.5-2.3-1-3.5,0.3
					c-6.6,6.6-13.9,12.1-21.7,16.9c-3.3,2-1.8,3,0.5,4.3c4.3,2.5,8.8,3.5,13.1,4.5c15.4,4.3,12.4,0.8,19.9,15.1l0.3,0.3
					c3.5,7.6,9.8,11.4,18.2,12.9c4.8,0.8,10.3,0.3,14.1,4.3c0.3,1.3,0.8,2,1.5,2.8c5.6,13.1,14.6,21.2,30,20.2c0.8,0,1.5,0,1.8,0
					C414.2,463.6,417,464.4,419.3,466.7z M497.7,479.3c-2.8-1.5-5.6-3-8.3-4.5c-32.8-18.7-64.1-39.4-94.1-62.3
					c-12.4-9.6-24.7-19.2-36.8-28.8c-4.3-4-8.8-7.6-13.1-11.6c-1.3-1.3-2.8-1.8-3.3,0.3c-0.8,2-5.6,3-2,6.3
					c4.8,4.3,10.3,8.6,15.4,13.1c0.5,0.5,1.3,1.3,1.5,1.5c43.4,35.1,88.6,67.6,138,93.9c2.3,1.3,4.5,2.5,6.8,3.8
					c4.8,2.8,4.8,2.5,7.3-2.5c1-1.8,0.8-3-1.5-4C504,482.8,501,480.8,497.7,479.3z"/>
				<path class="st13" d="M387.3,272c-0.3-1.8,12.2-22.4,13.3-23.9c3-5.3,5.8-10.9,9.3-16.1c1.5-2.5,0.5-3-1.5-3.5
					c-6.6-1.3-13.1-2.3-19.7-4c-3.3-1-6.3-2-8.8-4c-5-3.8-5.6-8.6-1-13.1c3.8-3.5,7.8-6.1,12.1-8.8c1.8-1.3,4-2.3,5.6-3.8
					c5.6-4.3,9.3-9.6,9.6-16.7c0-2.3,0.3-4.5,0.5-7.1c0.3-4.8,1.8-7.3,6.6-7.3c5.3-0.3,9.8-3,15.4-2.8c8.1,0.3,15.4,2.3,22,6.6
					c2.5,1.5,3.5,0.8,4.5-1.5c2.5-4.3,5.3-8.3,8.1-12.6c7.1-10.3,11.6-11.9,23.2-7.8s22,10.3,32.6,16.9c31,19.4,62.6,39.1,93.4,58.5
					c15.1,9.6,30.8,18.9,44.9,30c8.3,6.6,9.1,10.9,3.5,19.9c-5.8,9.6-11.9,18.9-17.9,28.3c-1.5,2-1.5,3.3,0.8,4.8
					c3,2,5.8,4.8,8.8,7.3c6.8,4.5,9.6,11.9,13.6,18.4c2.3,3.5,1.3,7.1-2.3,9.8c-2.5,1.8-5,3.5-7.8,5.3c-8.8,6.1-15.1,14.1-18.9,24.2
					c-2.3,5.3-4.3,10.9-6.3,16.1c-1.8,4.8-4.5,6.8-10.1,6.8c-8.6,0-16.1-3.8-23.5-7.6c-2.3-1.3-4.5-4.3-7.1-3.5
					c-2,1-3.3,4.3-4.5,6.6c-1.8,3-4,5.8-5.8,8.8c-1.5,2.8-3.5,5-7.1,4.5c-3.8-0.5-5-3.3-6.1-6.6c2.8-7.3,7.3-13.1,11.4-19.7
					c1.3-2,1.5-3.3-0.8-4.8c-5-3.8-9.3-8.3-13.9-12.6c-3.5-3.8-7.3-7.1-12.4-8.6c-9.3-6.1-18.9-12.1-28-18.2
					c-36.1-23.5-71.2-48.2-104.7-74.9c-5-4.3-15.5,14.4-19.1,19.7C393.9,277.4,390.6,277.8,387.3,272z M469,168.9
					c2-3.3,4.3-6.6,6.8-9.6c0.8-1,1-2.8,2.8-1.8c-6.1,10.6-13.4,20.4-20.4,30.5c-2.3,3.3-2,5.3,1,7.3c1.3,0.8,2,1.5,3,2.3
					c8.8,7.1,17.7,13.9,26.2,21.2c2,1.8,3,1.8,4.8-0.5c7.1-10.1,13.9-20.2,20.4-30.8c1.8-3,2.8-7.3,6.8-8.8c0.3,0.5,0.3,1.3,0.5,1.5
					c-7.8,13.4-16.1,27-25.2,39.6c-1.5,2-1.5,3.5,0.5,5.3c2.8,2,5,4.3,7.6,6.8c7.8,6.8,15.9,13.4,23.7,20.2c1.8,1.5,3,2,4.8-0.8
					c3.8-6.1,7.6-11.9,11.6-17.7c6.1-9.1,12.1-18.2,17.4-27.5c1-0.5,1.5-1.3,2.8-0.8c0,1.5-0.8,2.8-1.5,4c-9.3,14.6-18.7,29-28,43.7
					c-1.5,2-1.5,3.5,0.5,5c10.9,8.8,21.7,17.9,33.6,25.7c1.8,1.3,2.5,1.5,4-0.8c6.6-10.3,13.4-19.9,19.7-30.3
					c4-6.6,8.8-12.4,11.9-19.2c0.8-0.5,1.5-1,2.3-1.5c2,2.8-0.8,4.5-1.8,6.3c-9.8,15.4-19.7,30.8-29.8,45.7c-1.5,1.8-1.5,3,1,4.3
					c3.5,2,7.1,4.5,10.3,7.1c10.9,7.1,22,13.4,33.6,19.2c2.8,1.5,4.5,1.3,6.6-1.5c6.3-9.6,12.9-18.9,18.9-28.5
					c4-6.1,7.3-12.1,11.1-18.2c3-5,2.5-7.3-2-11.1c-1.3-1-2.3-2-4-2.5c-9.1-7.8-19.4-13.6-29.8-19.9c-0.3-0.3-0.3-0.5-0.5-0.8
					c-16.7-10.6-33.6-21.2-50.2-31.8c-18.2-11.4-36.3-22.2-54-33.6c-10.3-6.6-20.4-12.9-32-16.7c-2.3-0.8-4.8-2-7.3-0.8
					c-0.3,0-0.5,0-0.8,0c-3-0.8-4.3,1.8-5.6,3.5c-3.3,4.5-6.3,9.3-9.3,13.9c-3.5,5.6-6.8,11.4-10.3,17.2c-1.5,2.5,0.3,3.5,1.8,4.5
					c1.8,1.5,2.5,0.8,3.8-1C460.1,182,465.4,176,469,168.9z M429.1,176.5c0.3-1.5-1-3,1-3.8c1.5-0.8,2.5,0.8,3.8,1.5
					c3,2.8,6.1,5.6,10.3,5.6c1.5,0,6.6-5.3,6.1-6.6c-0.3-0.5-0.8-0.8-1.3-1c-0.8-0.5-1.8-0.5-2.5-1.3c-5.8-4.3-12.4-6.1-19.2-5.8
					c-5,0-9.1,4.3-14.4,4c-0.8,0-1,1-0.8,1.5c0,1-0.3,2-0.3,3c0.8,12.9-4.8,22-15.9,28.3c-3.3,1.8-6.6,3.8-9.8,6.1
					c-2,1.5-5.3,2.8-4.5,5.8c0.5,3.3,4,4,6.8,4.5c15.4,4,30.8,6.3,45.7,11.6c10.6,4.5,21.2,10.1,30.8,16.4
					c21.2,13.9,38.1,32.6,54,51.7c15.6,18.9,30.5,38.1,48.2,55.3c9.3,9.1,18.9,17.7,30.5,24.2c4.3,3.5,9.6,5.3,14.6,7.3
					c9.8,3.3,11.6,2.5,14.6-7.1c5.8-17.2,14.6-31.8,30.8-41.1c4.3-2.3,4.3-4.5,1.3-8.8c-1.3-1.5-3.5-2.5-3-4.3
					c0.8-3-1.3-4.3-2.8-5.8c-4.5-4.3-9.6-8.3-14.9-11.6c-1.5,2.3-2.8,4.3-4.3,6.6c-0.8,1.3-1,1.8-0.3,3.3c3.3,4.5,7.1,8.6,13.4,7.8
					c0.8,0,1.5-0.5,2,0.5c0.3,1-0.5,1.5-1.3,2.3c-1.8,1.5-4,1-6.1,1.5c-1.8-0.5-4-0.8-5.8-1.5c-12.1-3-22.5-9.3-33.3-15.1
					c-26.7-14.6-51-33.1-74.2-52.5c-28-23.7-55.5-48.2-85-70.2C438.9,185.6,433.1,182.3,429.1,176.5z M544.2,338.7
					c0.3-0.3,0.5-0.5,0.5-0.5c-0.3-0.5-0.5-1-0.8-1.3c-5.8-7.3-11.9-14.1-17.7-21.4c-13.1-16.1-26.2-32.3-41.4-46.4
					c-16.1-14.9-33.8-26.5-54.3-34.1c-6.8-2.5-7.1-2.3-10.3,3.5c-1.3,2-2,4.3-3.5,6.3c-1.5,2-1.3,3.3,1,4.8
					c8.6,6.6,16.9,13.1,25.5,19.7c26,19.7,53,38.1,80,56.3C530.3,329.9,537.1,334.4,544.2,338.7z"/>
				<path class="st13" d="M400.8,249.4c-0.3-1.8,0.3-3.3,1.3-4.8c3-5.3,5.8-10.9,9.3-16.1c1.5-2.5,0.5-3-1.5-3.5
					c-6.6-1.3-13.1-2.3-19.7-4c-3.3-1-6.3-2-8.8-4c-5-3.8-5.6-8.6-1-13.1c3.8-3.5,7.8-6.1,12.1-8.8c1.8-1.3,4-2.3,5.6-3.8
					c5.6-4.3,9.3-9.6,9.6-16.7c0-2.3,0.3-4.5,0.5-7.1c0.3-4.8,1.8-7.3,6.6-7.3c5.3-0.3,9.8-3,15.4-2.8c8.1,0.3,15.4,2.3,22,6.6
					c2.5,1.5,3.5,0.8,4.5-1.5c2.5-4.3,5.3-8.3,8.1-12.6c7.1-10.3,11.6-11.9,23.2-7.8s22,10.3,32.6,16.9c31,19.4,62.6,39.1,93.4,58.5
					c15.1,9.6,30.8,18.9,44.9,30c8.3,6.6,9.1,10.9,3.5,19.9c-5.8,9.6-11.9,18.9-17.9,28.3c-1.5,2-1.5,3.3,0.8,4.8
					c3,2,5.8,4.8,8.8,7.3c6.8,4.5,9.6,11.9,13.6,18.4c2.3,3.5,1.3,7.1-2.3,9.8c-2.5,1.8-5,3.5-7.8,5.3c-8.8,6.1-15.1,14.1-18.9,24.2
					c-2.3,5.3-4.3,10.9-6.3,16.1c-1.8,4.8-4.5,6.8-10.1,6.8c-8.6,0-16.1-3.8-23.5-7.6c-2.3-1.3-4.5-4.3-7.1-3.5
					c-2,1-3.3,4.3-4.5,6.6c-1.8,3-4,5.8-5.8,8.8c-1.5,2.8-3.5,5-7.1,4.5c-3.8-0.5-5-3.3-6.1-6.6c2.8-7.3,7.3-13.1,11.4-19.7
					c1.3-2,1.5-3.3-0.8-4.8c-5-3.8-9.3-8.3-13.9-12.6c-3.5-3.8-7.3-7.1-12.4-8.6c-9.3-6.1-18.9-12.1-28-18.2
					c-36.1-23.5-71.2-48.2-104.7-74.9c-5-4.3-5-4-8.6,1.3C405.4,255.5,403.9,254.7,400.8,249.4z M470.5,165.1c2-3.3,4.3-6.6,6.8-9.6
					c0.8-1,1-2.8,2.8-1.8c-6.1,10.6-13.4,20.4-20.4,30.5c-2.3,3.3-2,5.3,1,7.3c1.3,0.8,2,1.5,3,2.3c8.8,7.1,17.7,13.9,26.2,21.2
					c2,1.8,3,1.8,4.8-0.5c7.1-10.1,13.9-20.2,20.4-30.8c1.8-3,2.8-7.3,6.8-8.8c0.3,0.5,0.3,1.3,0.5,1.5c-7.8,13.4-16.1,27-25.2,39.6
					c-1.5,2-1.5,3.5,0.5,5.3c2.8,2,5,4.3,7.6,6.8c7.8,6.8,15.9,13.4,23.7,20.2c1.8,1.5,3,2,4.8-0.8c3.8-6.1,7.6-11.9,11.6-17.7
					c6.1-9.1,12.1-18.2,17.4-27.5c1-0.5,1.5-1.3,2.8-0.8c0,1.5-0.8,2.8-1.5,4c-9.3,14.6-18.7,29-28,43.7c-1.5,2-1.5,3.5,0.5,5
					c10.9,8.8,21.7,17.9,33.6,25.7c1.8,1.3,2.5,1.5,4-0.8c6.6-10.3,13.4-19.9,19.7-30.3c4-6.6,8.8-12.4,11.9-19.2
					c0.8-0.5,1.5-1,2.3-1.5c2,2.8-0.8,4.5-1.8,6.3c-9.8,15.4-19.7,30.8-29.8,45.7c-1.5,1.8-1.5,3,1,4.3c3.5,2,7.1,4.5,10.3,7.1
					c10.9,7.1,22,13.4,33.6,19.2c2.8,1.5,4.5,1.3,6.6-1.5c6.3-9.6,12.9-18.9,18.9-28.5c4-6.1,7.3-12.1,11.1-18.2c3-5,2.5-7.3-2-11.1
					c-1.3-1-2.3-2-4-2.5c-9.1-7.8-19.4-13.6-29.8-19.9c-0.3-0.3-0.3-0.5-0.5-0.8c-16.7-10.6-33.6-21.2-50.2-31.8
					c-18.2-11.4-36.3-22.2-54-33.6c-10.3-6.6-20.4-12.9-32-16.7c-2.3-0.8-4.8-2-7.3-0.8c-0.3,0-0.5,0-0.8,0c-3-0.8-4.3,1.8-5.6,3.5
					c-3.3,4.5-6.3,9.3-9.3,13.9c-3.5,5.6-6.8,11.4-10.3,17.2c-1.5,2.5,0.3,3.5,1.8,4.5c1.8,1.5,2.5,0.8,3.8-1
					C461.1,178.2,466.4,172.2,470.5,165.1z M430.6,172.7c0.3-1.5-1-3,1-3.8c1.5-0.8,2.5,0.8,3.8,1.5c3,2.8,6.1,5.6,10.3,5.6
					c1.5,0,6.6-5.3,6.1-6.6c-0.3-0.5-0.8-0.8-1.3-1c-0.8-0.5-1.8-0.5-2.5-1.3c-5.8-4.3-12.4-6.1-19.2-5.8c-5,0-9.1,4.3-14.4,4
					c-0.8,0-1,1-0.8,1.5c0,1-0.3,2-0.3,3c0.8,12.9-4.8,22-15.9,28.3c-3.3,1.8-6.6,3.8-9.8,6.1c-2,1.5-5.3,2.8-4.5,5.8
					c0.5,3.3,4,4,6.8,4.5c15.4,4,30.8,6.3,45.7,11.6c10.6,4.5,21.2,10.1,30.8,16.4c21.2,13.9,38.1,32.6,54,51.7
					c15.6,18.9,30.5,38.1,48.2,55.3c9.3,9.1,18.9,17.7,30.5,24.2c4.3,3.5,9.6,5.3,14.6,7.3c9.8,3.3,11.6,2.5,14.6-7.1
					c5.8-17.2,14.6-31.8,30.8-41.1c4.3-2.3,4.3-4.5,1.3-8.8c-1.3-1.5-3.5-2.5-3-4.3c0.8-3-1.3-4.3-2.8-5.8
					c-4.5-4.3-9.6-8.3-14.9-11.6c-1.5,2.3-2.8,4.3-4.3,6.6c-0.8,1.3-1,1.8-0.3,3.3c3.3,4.5,7.1,8.6,13.4,7.8c0.8,0,1.5-0.5,2,0.5
					c0.3,1-0.5,1.5-1.3,2.3c-1.8,1.5-4,1-6.1,1.5c-1.8-0.5-4-0.8-5.8-1.5c-12.1-3-22.5-9.3-33.3-15.1c-26.7-14.6-51-33.1-74.2-52.5
					c-28-23.7-55.5-48.2-85-70.2C439.9,181.8,434.1,178.2,430.6,172.7z M545.4,334.9c0.3-0.3,0.5-0.5,0.5-0.5
					c-0.3-0.5-0.5-1-0.8-1.3c-5.8-7.3-11.9-14.1-17.7-21.4c-13.1-16.1-26.2-32.3-41.4-46.4c-16.1-14.9-33.8-26.5-54.3-34.1
					c-6.8-2.5-7.1-2.3-10.3,3.5c-1.3,2-2,4.3-3.5,6.3c-1.5,2-1.3,3.3,1,4.8c8.6,6.6,16.9,13.1,25.5,19.7c26,19.7,53,38.1,80,56.3
					C531.3,326.1,538.6,330.4,545.4,334.9z"/>
				<path class="st0" d="M563.6,357.7c4.5,4.3,8.8,8.8,13.9,12.6c2,1.5,1.8,2.8,0.8,4.8c-4,6.6-8.6,12.6-11.4,19.7
					c-2.3,3.8-4.5,7.3-7.1,11.1c-4.8,5.8-8.1,12.6-12.1,18.9c-5.3,8.1-10.3,16.1-15.4,24.5c-1.8,3-3.5,2.5-6.1,1.5
					c-6.6-3.5-13.1-7.1-19.2-10.3l0.3-0.3c9.8-14.4,19.7-28.5,29.5-42.9C545.7,383.7,554.5,370.5,563.6,357.7z"/>
				<path class="st0" d="M402.6,269.8c2.8-4,5.8-8.1,7.3-12.9c3.5-5,3.5-5,8.6-1.3c33.6,26.7,68.6,51.5,104.7,74.9
					c9.3,6.1,18.9,12.1,28,18.2c-8.3,13.1-16.7,26.2-25.2,39.4c-9.8,14.9-19.4,30-29.3,44.9c-31.3-18.4-61.1-39.1-90.1-60.8
					c-13.4-10.1-26.7-20.4-39.6-30.8c-3-2.3-3-4-1.3-7.1c12.4-19.7,24.2-39.9,35.1-60.6C401.6,272.6,401.8,271.1,402.6,269.8z"/>
				<path class="st14" d="M504.8,443.5c6.8,3.8,13.4,7.6,20.2,11.4c1.8,1,2.5,1.8,1.3,4c-4.3,6.8-8.8,13.6-13.1,20.7
					c-1.3,1.8-2,2-4.3,1.3c-36.1-18.2-69.1-40.6-101.9-64.1c-20.4-14.9-40.1-30.5-59.3-47.2c-2-1.8-2-2.8-0.8-5
					c4-5.8,7.6-11.9,11.4-18.2c1.5-2.5,2.5-3.5,5.3-1.3c19.9,16.4,40.6,32,61.8,47.2c21.2,15.4,42.9,29.8,65.4,43.4
					c1,0.8,2,1.3,3.3,1.5c0,0.3,0,0.5,0,0.5c-4,6.3-8.1,12.6-12.1,18.9c-2.8,4.3-1,8.1,4.3,8.6c2.3,0.3,4-1,5-2.8
					c4.3-6.3,8.6-12.4,13.1-18.7C504.5,443.7,504.8,443.5,504.8,443.5z"/>
				<path class="st17" d="M459.4,496.7c-0.8-1-1.5-1.8-1.8-3c-1.8-4.3-5-5.6-9.6-5.6c-16.4-0.3-15.4,0.5-24.7-14.9
					c-1-1.5-1.8-3.5-2.8-5c4-4.8,9.1-8.1,13.9-11.9c10.3,6.3,20.4,12.9,30.8,18.9c8.8,5.3,17.9,10.3,27,15.6
					c-2,7.3-4.3,14.1-6.6,21.4c-3.8-1.3-7.6-0.5-11.4-1c-3.8-0.5-7.3-1.5-9.1-5.3c1.3-2.5,2-5,3.5-7.3c1.8-3,3.3-6.3,4.3-9.6
					c0.5-1.5,1-3.8-1.3-4.5c-1.5-0.8-2.8,0.8-3.8,1.5c-1,1.3-1.5,2.5-2.8,3.8C463.4,491.9,463.2,495.4,459.4,496.7z"/>
				<path class="st17" d="M377.9,440.4c-4-4.3-9.3-3.8-14.1-4.3c-8.3-1.5-14.4-5-18.2-12.9c0-0.3-0.3-0.3-0.3-0.3
					c-7.6-14.4-4.5-10.9-19.9-15.1c0.8-1.8,2.3-2.8,3.8-4c5-5,10.3-10.1,14.9-15.6c13.1,10.6,26.2,21.7,39.9,31.8
					c3,2,5.8,4.3,8.6,6.8c-0.8,2.5-2.8,3.8-4.3,5.3C384.4,434.9,380.6,436.9,377.9,440.4z"/>
				<path class="st17" d="M494.7,486.6c-49.5-26-94.6-58.5-138-93.9c-0.8-0.5-1.3-1.3-1.5-1.5c1.3-2.5,2-5,3.3-7.6
					c12.4,9.6,24.5,19.2,36.8,28.8c30,22.7,61.3,43.7,94.1,62.3c2.8,1.5,5.6,3,8.3,4.5C496.5,481.8,495.5,484.3,494.7,486.6z"/>
				<path class="st18" d="M496.7,433.4c9.8-14.9,19.4-30,29.3-44.9c8.6-13.1,16.9-26.2,25.2-39.4c4.8,1.5,8.8,4.8,12.4,8.6
					c-8.8,13.1-17.9,26-26.7,39.1c-9.8,14.4-19.7,28.5-29.5,42.9c-3.5-1.8-7.3-3.8-10.6-5.6C496.7,433.9,496.7,433.6,496.7,433.4z"
					/>
				<path class="st17" d="M395.3,428.6c12.1,8.3,24,16.9,36.1,25.2c-0.8,1.8-2,3.3-3.5,4.3c-3,2.5-6.3,4.3-8.1,8.1
					c-2.3-2-5.3-2.8-8.3-3c-0.8,0-1.5,0-1.8,0c-15.1,1.3-24.2-7.1-30-20.2c0.5-1.5,1.5-2.3,2.5-3.3
					C386.2,436.4,391.2,433.1,395.3,428.6z"/>
				<path class="st19" d="M343.8,388.2c-4.3,5.8-9.8,10.3-14.9,15.6c-1.5,1.5-3,2.3-3.8,4c-4.5-1.3-9.1-2-13.1-4.5
					c-2.3-1.5-3.8-2-0.5-4.3c7.6-4.8,15.1-10.3,21.7-16.9c1.3-1.3,2-1.5,3.5-0.3C339,383.9,341.5,385.9,343.8,388.2z"/>
				<path class="st19" d="M485.9,512.1c2-7.3,4.3-14.1,6.6-21.4c3.8,1.8,7.3,3.8,10.9,5.6c1,0.5,1.8,1,1.5,2.3
					c-3,8.8-4,18.2-6.1,27.3c0,0.3-0.3,0.5-0.8,0.8C492.4,522.7,490.2,516.6,485.9,512.1z"/>
				<path class="st19" d="M358.2,383.7c-1.3,2.5-2,5-3.3,7.6c-5-4.3-10.3-8.6-15.4-13.1c-3.5-3.3,1.5-4.3,2-6.3c0.8-2,2-1.5,3.3-0.3
					C349.4,375.8,353.9,379.9,358.2,383.7z"/>
				<path class="st19" d="M459.4,496.7c3.8-1,4.3-4.5,6.3-7.1c1.3-1.3,1.8-2.5,2.8-3.8c1-1.3,2-2.3,3.8-1.5c1.8,1,1.5,3,1.3,4.5
					c-1.3,3.3-2.5,6.6-4.3,9.6c-1.5,2.3-2.3,4.8-3.5,7.3C462.9,503,460.9,500,459.4,496.7z"/>
				<path class="st19" d="M494.7,486.6c1-2.5,1.8-4.8,2.8-7.3c3.3,1.5,6.6,3.3,9.8,4.8c2,1,2,1.8,1.5,4c-2.3,5-2,5-7.3,2.5
					C499.2,489.4,497,488.1,494.7,486.6z"/>
				<path class="st20" d="M496.5,434.1c3.5,1.8,7.3,3.8,10.6,5.6l-0.3,0.3c-0.8,1.5-2,2.3-2.3,3.8c0,0-0.3,0.3-0.5,0.3
					c-3.3-2.3-6.8-4.3-10.3-6.1c0-0.3,0-0.5,0-0.5C495.2,436.1,495.7,434.9,496.5,434.1z"/>
				<path class="st19" d="M395.3,428.6c-4,4.3-9.1,7.3-13.4,11.4c-1.3,1-2,1.8-2.5,3.3c-1-0.8-1.3-1.8-1.5-2.8
					c2.8-3.8,6.8-5.8,10.3-8.6c1.8-1.5,4-2.8,4.3-5.3C393.8,427.1,394.5,428.1,395.3,428.6z"/>
				<path class="st19" d="M419.3,466.7c1.8-3.8,5-5.6,8.1-8.1c1.5-1.5,3-2.5,3.5-4.3c1.3,0.5,2.5,1,3.3,2.3
					c-4.8,3.8-10.1,7.1-13.9,11.9C419.8,467.9,419.3,467.4,419.3,466.7z"/>
				<path class="st20" d="M650.4,253.2c1.5,0.5,2.8,1.5,4,2.5c4.5,3.8,5,6.1,2,11.1c-3.8,6.1-7.3,12.1-11.1,18.2
					c-6.3,9.6-12.9,18.9-18.9,28.5c-1.8,2.8-3.8,3-6.6,1.5c-11.6-5.8-22.7-12.4-33.6-19.2c-3.5-2.3-7.1-4.8-10.3-7.1
					c-2-1.5-2-2.5-1-4.3c10.1-15.4,19.9-30.5,29.8-45.7c1.3-1.5,4-3.5,1.8-6.3c-4.3-1.5-8.3-3-12.4-5.3
					c-9.6-5.3-18.7-10.6-26.2-18.7c-0.8-0.8-1.5-1.5-2.8-1c-1,0.8,0,1.8,0.3,2.5c1.3,2.3,2,4.3,0.5,7.1c-2.3,3.5-4.3,7.3-6.6,10.6
					c-2.3,1.5-2.3,4.3-3.5,6.3c2-2,4.5-3.5,5.8-6.6c1.5-3,4.5-4.8,5.8-8.1c1-2.8,2.3-2.5,4.3-0.8c4.8,4.5,10.3,8.3,16.4,11.1
					c2.5,1.3,2.5,2,1.3,4.3c-3.8,6.6-8.6,12.1-11.4,18.9c-1.5,0.8-1.5,2.3-2,3.5c-0.5,1.8-1.5,4.3,0.5,5c1.3,0.5,2-2,2.8-3.5
					c4.8-7.8,9.8-16.1,15.4-23.7c1-1.5,1.8-2,3.5-1.8c2,0.3,4.3,0.3,6.3,0.5c-3,7.1-7.8,13.1-11.9,19.2
					c-6.3,10.3-13.1,20.2-19.7,30.3c-1.5,2-2,1.8-4,0.8c-11.6-7.8-22.5-16.9-33.6-25.7c-2-1.8-1.8-3-0.5-5c9.6-14.4,18.9-29,28-43.7
					c0.8-1.3,1.5-2.5,1.5-4c-0.8-0.5-1.5-1-2-1.3c-10.3-3.3-18.9-8.6-27.8-14.9c-4.8-3.5-9.3-7.6-13.9-11.4V177c0,0,0,0.3,0.3,0.3
					c0,0.3,0,0.5-0.3,0.8c-4,1.5-4.8,5.8-6.8,8.8c-6.6,10.3-13.1,20.7-20.4,30.8c-1.5,2.5-2.8,2.3-4.8,0.5
					c-8.6-7.3-17.4-14.1-26.2-21.2c-1-1-2-1.5-3-2.3c-3.3-2-3.3-4.3-1-7.3c7.1-10.1,14.4-19.7,20.4-30.5c2.3,1.5,2.8,2.8,1.3,5
					c-2.5,3.8-4.5,7.6-7.1,11.4c-2.3,1.8-3.3,4.5-3.8,7.3c1.5-2.8,4.5-4.3,5.8-7.6c2-3,4.5-5.8,6.6-8.8c1.5-2.3,2.5-2.5,4.3-0.8
					c4.3,4.3,9.6,7.3,15.1,10.1c3.3,1.5,2.8,3,1.5,5.3c-2.8,4.5-5.6,9.3-8.1,13.9c-1.8,3.3-3.5,6.6-3.5,10.3
					c1.5-1.3,2.5-2.3,3.5-3.8c3.5-5.3,7.3-10.6,10.3-16.1c2.3-4,4.5-7.6,10.3-5.3c0,0,0.3,0,0.5,0c1,0,1.8,0,2-1.3
					c0-1-0.8-1.5-1.5-1.5c-2.8-0.3-5-2-7.3-3.3c-11.9-5.8-22.5-13.1-32-22c2.5-1.5,5-0.3,7.3,0.8c11.6,3.8,22,10.3,32,16.7
					c17.9,11.4,36.3,22.2,54,33.6c16.7,10.3,33.6,21.2,50.2,31.8c0.3,0.3,0.3,0.5,0.5,0.8c-3,2-1,3.3,0.8,4.3
					c6.8,4.5,13.6,9.3,20.4,13.6C644.3,253.2,647.4,254.5,650.4,253.2z M620.9,282c-1,1.5-2.5,2.8-2.5,4.8c0,1.5-1,3.8,0.8,4.3
					c2,1,1.5-2,2.8-3c0.5-0.5,1-1.5,1.5-1.8c4.3-6.8,8.3-13.6,12.6-20.4c2-3,4.3-5.8,8.8-4.5c1.5,0.5,3.5,0.3,5-1
					c-14.6-5.6-27.8-13.1-38.9-24.2c-0.5-0.5-1-1.5-1.8-1c-1.5,0.5-1,1.5-0.8,2.3c2.3,4.3,0,7.3-2,10.6c-2.5,4.3-5.6,8.1-7.6,13.1
					c5.3-4.3,7.6-10.3,11.9-14.6c1.3-1.3,1.8-2,3.5-0.8c4.8,4.5,10.3,8.3,16.7,11.1c3.5,1.5,3.5,3.3,1.5,6.3
					C627.9,269.3,624.4,275.6,620.9,282z M644.1,270.3c-5.3,6.6-9.8,13.4-13.4,20.9C636.5,285.5,641.6,278.9,644.1,270.3z"/>
				<path class="st19" d="M642.3,328.4c2-0.5,4.3,0,6.1-1.5c0.8-0.5,1.5-1.5,1.3-2.3c-0.3-1-1.5-0.8-2-0.5
					c-6.6,0.8-10.3-3.3-13.4-7.8c-1-1.3-0.5-2,0.3-3.3c1.5-2,2.8-4.3,4.3-6.6c5.3,3.3,10.3,7.3,14.9,11.6c1.5,1.5,3.8,2.8,2.8,5.8
					c-0.5,1.5,2,2.8,3,4.3c3,4,2.8,6.6-1.3,8.8c-16.1,9.3-25,24-30.8,41.1c-3.3,9.6-4.8,10.3-14.6,7.1c-5-1.8-10.3-3.8-14.6-7.3
					c0.3-2,0.5-4.3,1-6.3c0.5-1.8-0.3-3-1.8-3.8c-3.8-1.5-7.1-4.3-10.1-6.8c-18.2-14.4-33.3-31.8-47.9-49.7
					c-14.4-17.4-28.8-34.8-45.4-50.5c-14.9-14.1-31.8-25.2-50.7-33.3c-3.5-1.5-6.1-0.8-8.1,2.3c-14.9-5.6-30.5-7.6-45.7-11.6
					c-2.8-0.8-6.3-1.5-6.8-4.5c-0.5-3,2.8-4.3,4.5-5.8c3-2.3,6.3-4.3,9.8-6.1c10.9-6.3,16.1-15.6,15.9-28.3c0-1,0.3-2,0.3-3
					c0.8,0.5,1.5,0.5,2,1.3c1.5,2.3,7.6,2.5,3.5,7.6c-0.3,0.3,0,1,0.3,1.5c1.5,4,2,8.1,3.3,12.1c0.8,2.5,1.5,5.6,4.8,5
					c4.3-0.8,7.1-5,6.1-8.8c-0.3-1.3-1.5-2-1-4c3.3,2.3,6.6,4.3,9.3,6.8c2.3,2,5.8,2.5,5.3,8.1c-0.5,5.8,1.5,12.4,1.8,18.7
					c0,2.3,0.3,5.6,3.8,6.6c5.6,1.5,11.4,2.8,17.2,4.3c2.8,0.8,5.6,1.5,9.1,2c-9.3-10.9-16.1-22.7-27-31.3
					c23,16.9,44.4,35.6,65.9,55.3c-2.5,0.5-3.5-1-4.3-1.5c-6.3-5-12.1-10.6-18.9-14.9c-9.1-5.8-12.6-6.6-18.9-1
					c-1.8,1.5-1.5,2.5,0.3,4c6.6,4.5,12.6,9.6,18.4,14.9c1.3,1,2.3,1.8,3.8,2.3c8.1,2.5,16.1,5.3,24.7,7.3c2.5,0.5,4.3,1,3.8-3.5
					c16.1,13.9,32,25.5,48.2,37.6c-4.3-0.5-8.6-1.3-12.9-2c-4.3-1-8.6-1.5-12.9-2.5c-4-1-7.3-3.8-12.1-2.5
					c6.3,3.3,9.8,9.8,15.9,13.1c1.5,1,3.8,1.5,5.3,2.5c1.8,1,4,2.8,3.3,4.5c-0.8,2-3,0.8-4.8,0.8c-3.3-0.5-6.3-0.8-10.1,0.8
					c6.3,6.8,12.1,13.1,17.9,19.4c1,1,1.8,1.5,3,1.3c2.3-1,4.8-1,7.1-2.5c4.3-3.3,8.3-5.8,14.1-6.6c7.3-1.3,9.8-2.3,9.8-10.3
					c1.5,0,2,0.8,3.3,1.3c5.3,2.8,10.3,6.1,16.1,8.1c5,1.8,5,4.3,3.5,8.8c-1,2.8-2.8,5-5.3,6.8c-7.6,4.8-15.1,10.1-22.7,14.9
					c-1,0.5-2,1-2,2c-0.3,3.8,2.5,5.6,5.3,7.1c2.3,1.5,4.5,1.8,6.6-1c5-7.8,12.1-13.6,19.9-18.7c4.8-3,8.8-7.3,8.1-14.4
					C635.5,333.4,639.3,332.4,642.3,328.4z"/>
				<path class="st17" d="M642.3,328.4c-3,4.3-7.1,5-11.9,3c0.5,7.1-3.3,11.4-8.1,14.4c-7.8,4.8-14.9,10.6-19.9,18.7
					c-1.8,2.8-4.3,2.3-6.6,1c-2.8-1.5-5.6-3.3-5.3-7.1c0-1.3,1.5-1.5,2-2c7.6-4.8,15.1-10.1,22.7-14.9c2.5-1.5,4.3-4,5.3-6.8
					c1.5-4.3,1.5-7.1-3.5-8.8c-5.6-2-10.6-5.3-16.1-8.1c-1-0.5-1.8-1.5-3.3-1.3c0,7.8-2.5,9.1-9.8,10.3c-5.8,1-10.1,3.3-14.1,6.6
					c-2,1.5-4.5,1.5-7.1,2.5c-1.3,0.5-2.3-0.3-3-1.3c-5.8-6.3-11.6-12.9-17.9-19.4c3.5-1.5,6.8-1.3,10.1-0.8
					c1.5,0.3,4.3,1.5,4.8-0.8c0.5-1.8-1.5-3.8-3.3-4.5c-1.8-1-3.8-1.5-5.3-2.5c-6.1-3.5-9.6-9.8-15.9-13.1c4.3-1.3,8.1,1.5,12.1,2.5
					c4.3,1,8.3,1.5,12.9,2.5c4.3,1,8.3,1.5,12.9,2c-16.1-12.1-32.3-24-48.2-37.6c0.8,4.3-1.3,4.3-3.8,3.5
					c-8.3-1.8-16.4-4.3-24.7-7.3c-1.5-0.5-2.5-1.5-3.8-2.3c-6.1-5-12.1-10.3-18.4-14.9c-1.8-1.5-2-2.3-0.3-4c6.3-5.3,9.8-4.8,18.9,1
					c6.8,4.3,12.6,10.1,18.9,14.9c1,0.8,1.8,1.8,4.3,1.5c-21.7-19.7-42.9-38.4-65.9-55.3c10.6,8.6,17.7,20.4,27,31.3
					c-3.5-0.8-6.3-1.5-9.1-2c-5.8-1.5-11.4-2.8-17.2-4.3c-3.3-1-3.5-4.3-3.8-6.6c-0.3-6.3-2.3-12.9-1.8-18.7c0.5-5.6-3-6.1-5.3-8.1
					c-2.8-2.5-6.1-4.3-9.3-6.8c-0.5,1.5,0.8,2.8,1,4c1,3.5-1.8,8.1-6.1,8.8c-3.5,0.5-4.3-2.5-4.8-5c-1-4.3-1.5-8.3-3.3-12.1
					c-0.3-0.5-0.5-1.3-0.3-1.5c4.3-5-2-5.3-3.5-7.6c-0.5-0.5-1.5-0.8-2-1.3c-0.3-0.8,0-1.5,0.8-1.5c5.3,0.3,9.3-4,14.4-4
					c-0.3,0.5-0.5,1.3-1,1.5c-3.8,4.3-2.8,7.3,2.8,9.3c3.8,5.8,9.8,9.1,14.9,13.1c29.5,22,57,46.4,85,70.2
					c23.2,19.4,47.4,37.6,74.2,52.5c10.6,5.8,21.4,12.1,33.3,15.1C638.5,327.6,640.6,327.9,642.3,328.4z"/>
				<path class="st14" d="M544.2,338.7c-7.1-4.3-13.9-8.8-20.9-13.4c-27.3-18.2-54-36.6-80-56.3c-8.6-6.6-16.9-13.1-25.5-19.7
					c-2-1.5-2.3-2.8-1-4.8c1.5-1.8,2.3-4.3,3.5-6.3c3.3-6.1,3.5-6.1,10.3-3.5c20.4,7.6,38.6,19.2,54.3,34.1
					c15.4,14.1,28.3,30.5,41.4,46.4c5.8,7.3,11.6,14.1,17.7,21.4c0.3,0.5,0.5,1,0.8,1.3C544.7,338.2,544.4,338.5,544.2,338.7z"/>
				<path class="st20" d="M561.6,206c-5.3,9.3-11.4,18.7-17.4,27.5c-4,5.8-8.1,11.6-11.6,17.7c-1.5,2.8-2.8,2.3-4.8,0.8
					c-7.8-6.8-15.9-13.4-23.7-20.2c-2.5-2.3-5-4.5-7.6-6.8c-2.3-1.5-2-3.3-0.5-5.3c9.3-12.9,17.4-26,25.2-39.6
					c3.3,4.3,3.8,8.1,0,12.6c-1,1.3-1.5,2.5-2.5,4c-1.8,1.8-2.5,4.3-4.3,6.8c3.8-1,4.3-4.3,6.3-6.1c1.5-2,2.8-4,4.3-6.1
					c1.3-1.8,2.3-1.5,3.8-0.3c4.5,4.8,10.3,8.1,16.1,11.1c2.3,1.3,2.5,2,1.5,4.3c-2.8,4.3-5.6,8.6-8.1,13.1c-1.5,2.8-3.5,6.1-2,10.3
					c3.8-5.8,7.6-10.9,10.6-16.1c3-5.6,6.8-9.3,13.6-7.3C560.8,206,561.1,206,561.6,206z"/>
				<path class="st17" d="M434.4,230.5c2-3,4.8-3.8,8.1-2.3c18.9,7.8,35.8,18.9,50.7,33.3c16.4,15.6,30.8,33.1,45.4,50.5
					c14.6,17.9,29.8,35.3,47.9,49.7c3.3,2.5,6.3,5,10.1,6.8c1.5,0.8,2.3,1.8,1.8,3.8c-0.5,2-0.8,4.3-1,6.3
					c-11.4-6.6-20.9-15.1-30.5-24.2c-17.7-16.9-32.6-36.3-48.2-55.3c-16.1-19.4-32.8-37.9-54-51.7
					C455.6,240.3,445.2,235.3,434.4,230.5z"/>
				<path class="st0" d="M473,174c2.3-4,4.3-7.8,7.1-11.4c1.5-2.3,1.3-3.8-1.3-5c-1.8-1-2.3,1-2.8,1.8c-2.3,3-4.3,6.3-6.8,9.6
					c-2-1.3-0.3-2,0.3-3c1.8-5.3,7.3-9.1,6.3-15.6c0.3,0,0.5,0,0.8,0c9.6,9.1,20.4,16.1,32,22c2.5,1.3,4.5,3,7.3,3.3
					c1,0,1.5,0.8,1.5,1.5c0,1.3-1.3,1.5-2,1.3c-0.3,0-0.3,0-0.5,0c-5.6-2.3-7.8,1.5-10.3,5.3c-3.3,5.6-7.1,10.9-10.3,16.1
					c-1,1.5-2,2.5-3.5,3.8c-0.3-4,1.5-7.3,3.5-10.3c2.5-4.5,5.3-9.3,8.1-13.9c1.5-2.3,1.8-4-1.5-5.3c-5.3-2.5-10.6-5.8-15.1-10.1
					c-2-1.8-3-1.5-4.3,0.8c-2,3-4.3,5.8-6.6,8.8C474.3,174,473.5,174,473,174z"/>
				<path class="st0" d="M578,253.4c2.8-7.1,7.6-12.9,11.4-18.9c1.5-2.3,1.5-3.3-1.3-4.3c-6.1-2.8-11.6-6.6-16.4-11.1
					c-1.8-1.8-3.3-2-4.3,0.8c-1.3,3.3-4.3,5-5.8,8.1c-0.8,0-1.5,0-2.3,0.3c2-3.5,4.3-7.3,6.6-10.6c1.5-2.5,0.8-4.5-0.5-7.1
					c-0.5-0.8-1.3-1.8-0.3-2.5c1-0.8,1.8,0,2.8,1c7.6,7.8,16.7,13.4,26.2,18.7c4,2,8.1,3.5,12.4,5.3c-0.8,0.5-1.5,1-2.3,1.5
					c-2-0.3-4.3-0.3-6.3-0.5c-1.5-0.3-2.5,0.8-3.5,1.8c-5.6,7.6-10.3,15.9-15.4,23.7C576.7,257.5,579.2,255.2,578,253.4z"/>
				<path class="st0" d="M561.6,206c-0.5,0-0.8-0.3-1.3-0.3c-7.1-1.8-10.6,1.8-13.6,7.3c-3,5.6-6.8,10.3-10.6,16.1
					c-1.5-4.3,0.5-7.3,2-10.3c2.3-4.3,5.3-8.8,8.1-13.1c1.5-2,1-3-1.5-4.3c-5.8-3-11.6-6.3-16.1-11.1c-1.5-1.5-2.5-1.5-3.8,0.3
					c-1.5,2-2.8,4.3-4.3,6.1c-0.8-0.3-1.5-0.5-2-0.8c1-1.5,1.5-2.8,2.5-4c3.8-4.3,3.3-8.3,0-12.6c-0.3-0.5-0.3-1.3-0.5-1.5
					c0.3-0.3,0.3-0.5,0.3-0.8l0,0c4.5,3.8,9.1,7.8,13.9,11.4c8.3,6.3,17.4,11.6,27.8,14.9c0.8,0.3,1.5,0.8,2,1.3
					C563.1,205,562.6,205.7,561.6,206z"/>
				<path class="st20" d="M475.5,150.5c1.3,6.6-4.3,10.3-6.3,15.6c-0.5,1-2.3,1.8-0.3,3c-3.8,7.1-9.3,13.1-13.1,19.7
					c-1,1.5-1.8,2.3-3.8,1c-1.5-1.5-3.3-2-1.8-4.5c3.5-5.6,6.8-11.4,10.3-17.2c3-4.8,6.1-9.6,9.3-13.9
					C471.5,152,472.8,149.7,475.5,150.5z"/>
				<path class="st19" d="M429.1,176.5c-5.6-1.8-6.6-5-2.8-9.3c0.5-0.5,0.8-1.3,1-1.5c7.3-0.3,13.6,1.5,19.2,5.8
					c0.8,0.5,1.5,0.8,2.5,1.3c0.5,0.3,1,0.5,1.3,1c0.5,1.3-4.8,6.6-6.1,6.6c-4.3,0-7.3-2.8-10.3-5.6c-1.3-1-1.8-2.3-3.8-1.5
					C428.1,173.4,429.6,175,429.1,176.5z"/>
				<path class="st14" d="M650.4,253.2c-3.3,1-6.1,0-8.6-1.8c-7.1-4.3-13.6-9.1-20.4-13.6c-1.5-1.3-3.8-2.3-0.8-4.3
					C631,239.6,641.3,245.4,650.4,253.2z"/>
				<path class="st19" d="M494.2,437.7c3.8,1.5,7.1,3.8,10.3,6.1c-4.3,6.3-8.6,12.4-13.1,18.7c-1.5,1.8-2.8,3-5,2.8
					c-5-0.5-7.1-4.3-4.3-8.6C486.1,450.3,490.2,444,494.2,437.7z"/>
				<path class="st0" d="M620.9,282c3.8-6.3,7.3-12.6,11.1-18.7c2-3,2-4.8-1.5-6.3c-6.3-2.5-11.9-6.6-16.7-11.1
					c-1.5-1.5-2.3-0.8-3.5,0.8c-4.3,4.5-6.6,10.3-11.9,14.6c2-5,5-9.1,7.6-13.1c2-3.5,4.3-6.6,2-10.6c-0.5-0.8-0.8-1.8,0.8-2.3
					c1-0.5,1.5,0.5,1.8,1c10.9,10.9,24.2,18.7,38.9,24.2c-1.5,1.5-3.8,1.5-5,1c-4.5-1.5-7.1,1.5-8.8,4.5
					c-4.3,6.8-8.3,13.4-12.6,20.4C620.6,285.5,622.6,282.5,620.9,282z"/>
				<path class="st13" d="M644.1,270.3c-2.3,8.3-7.3,15.1-13.4,20.9C634.3,284,638.5,276.9,644.1,270.3z"/>
				<path class="st14" d="M620.9,282c1.8,1-0.3,3.8,2.3,4.3c-0.5,0.8-0.8,1.5-1.5,1.8c-1,1-0.5,3.8-2.8,3c-1.5-0.8-0.8-2.8-0.8-4.3
					C618.1,284.5,619.6,283.2,620.9,282z"/>
				<path class="st14" d="M578,253.4c1.5,1.5-1.3,4,1.3,5.3c-0.8,1.5-1.5,4-2.8,3.5c-2-1-1-3.5-0.5-5
					C576.5,255.7,576.5,254.2,578,253.4z"/>
				<path class="st14" d="M559.6,228c0.8,0,1.5,0,2.3-0.3c-1.3,2.8-3.8,4.3-5.8,6.6C557,232.2,557,229.5,559.6,228z"/>
				<path class="st14" d="M473,174c0.8,0,1.5-0.3,1.8-0.3c-1,3.3-4,5-5.8,7.6C469.5,178.7,470.7,176,473,174z"/>
				<path class="st0" d="M521,178C521,178,521,177.7,521,178C520.7,177.7,521,177.7,521,178L521,178z"/>
				<path class="st14" d="M518.7,196.7c0.8,0.3,1.5,0.5,2,0.8c-1.8,1.8-2.5,5-6.3,6.1C516.2,201,516.7,198.4,518.7,196.7z"/>
			</g>
		</g>
		<polyline class="st13" points="559.9,428.6 583.6,389.1 571.7,385.3 554.9,412.8 		"/>
	</g>
	<g>
		<g>
			<path class="st1" d="M8.2,138.1c-4.9-8.4-4.1-15.4,2.5-22.6c7.1-7.7,15.5-14.1,24.1-20c16.4-11.4,33.5-21.7,53.1-26.8
				c9.3-2.4,15.8,0.4,20.8,8.4c5.8,9.3,11.6,18.7,17.3,28.1c1,1.7,2.5,3.7,2.4,5.5c-0.4,4.2,2.2,4.7,5.2,5.7
				c8.5,2.6,11.4,8.5,8.4,15.8c-0.9,2.2-4.5,3.5-2.6,6.3c1.4,2,3.7,3.4,5.7,4.9c1.3,1,2.8,1.9,4.2,2.9c13.3,8.8,28.2,14.4,42.6,21
				c17.1,7.8,34.2,15.4,47.7,29c10.2,10.3,17.8,22.4,25.8,34.4c12.5,18.9,42.5,70.3,52,90.9c3.1,6.7,4,13.6,4.9,20.9
				c1.4,11.3,5.8,22.2,7.8,33.4c1.7,9.2,6.4,15.4,14,20.5c12.5,8.4,22.7,19,30,32.4c14.1,25.8,5.2,60.4-20,75.6
				c-11.3,6.8-23.4,9.9-36.8,6.4c-10.2-2.7-13.1-0.7-16.3,9.5c-0.7,2.2-1.5,4.5-2.3,6.7c-6.2,15.6-17.3,26.2-33.4,30.7
				c-25,7-45-2.3-61.5-20.7c-11.2-12.5-16.9-27.5-18.2-44.1c-0.6-8.6-4.2-15.2-11.1-20.6c-7.8-5.9-14.9-12.6-22.5-18.8
				c-3.3-2.7-6.3-5.3-10.7-6.9c-5.1-1.7-8-7.5-11.4-11.9c-17.3-22.9-48.9-80.2-63.1-104.9c-11.4-19.8-16.1-40.9-14.9-63.6
				c0.6-9.9,1-19.9,1.5-29.8c0.5-12.7,0.3-25.3-2.7-37.7c-1-3.8-1.9-6.4-7.2-5.5c-8.4,1.5-13.1-4-11.6-12.5
				c0.8-4.2,2.7-8.3-3.4-10.2c-1-0.3-1.7-2-2.4-3.2c-2.9-4.7-5.8-9.5-8.7-14.3C14.2,147.9,11.1,143.1,8.2,138.1z M289.7,345
				c5.2-3.7,9.8-8.3,14.7-12.3c1.9-1.5,2.1-3,1.2-5.3c-8.6-20.8-39.3-71.3-51.4-90.1c-4.1-6.4-8.8-12.4-13-18.7
				c-1.7-2.6-2.7-2.7-5.3-0.7c-12.4,9.1-24.7,18.3-37.6,26.6C169.8,263,141,281,111.2,297.4c-10.5,5.8-21,11.7-32.1,16.2
				c-3.9,1.6-5,3.2-2.6,7.5c11,20,40.6,71.9,52.8,91.1c3.4,5.4,7.2,10.6,11.3,15.5c1.8,2.1,3.1,2.2,5.5,1.2
				c24-9,46.3-21.3,68.2-34.3c3.5-2.1,6.9-4.2,10.4-6.3C247.4,375.3,268.6,360.3,289.7,345z M173.9,174.5c-4.3-2-7.5-3.6-10.8-5.1
				c-12.1-5.7-24-11.7-34-20.8c-1.8-1.6-3.1-1.7-5.1-0.1c-18.3,14.6-38.3,26.5-59.5,36.5c-1.4,0.7-3.2,1-2.3,3.6
				c5.6,16.3,5.8,33.1,4.9,50c0,0.3,0.3,0.5,0.8,1.4C101.4,215.9,136.6,194.6,173.9,174.5z M35.4,155.6c2.1,4.2,4.8,3.2,7.9,1.7
				c3.9-1.9,1.4-4.1,0.3-6.1c-4-7.1-7.1-14.6-11.8-21.2c-2-2.9-1-4.4,1.7-5.9c9-5.2,6.9-5.1,11.8,2.8c4,6.5,8,12.9,11.8,19.5
				c1.5,2.6,2.8,3.1,5.6,1.6c9.9-5.5,10-5.4,4-15.2c-3.6-5.9-7.1-11.9-10.8-17.7c-1.5-2.4-1.3-3.8,1.2-5.3c10-5.9,7.4-5.5,12.6,2.7
				c4.1,6.4,8,12.9,11.8,19.5c1.4,2.4,2.6,2.9,5.2,1.5c10.1-5.6,10.7-7.5,3.2-16.5c-3.9-4.7-6.6-10.2-10.1-15.1
				c-2.1-3-1.8-5.2,1.6-6.9c0.9-0.4,1.8-1,2.6-1.6c3-2.4,5-2.2,7.1,1.5c3.8,6.8,7.9,13.4,12.1,19.9c1.1,1.7,1.5,5.1,5,3
				c4.4-2.6,6.1-6,4-9.2c-2.7-4.3-5.7-8.3-8.5-12.5c-1.2-1.8-2.4-3.7-3.4-5.6c-6.7-11.8-6.9-10.6-19.6-5.7
				c-7.3,2.8-13.6,7.3-20.4,11.1c-12.8,7.1-25.1,15-36.2,24.5c-6,5.1-6.2,6.5-2.2,13.2c2.1,3.5,4.2,6.9,6.3,10.4c0,0,0,0,0,0
				C30.7,147.8,33.3,151.6,35.4,155.6z M314.4,420.3c2.6,1.9,4.5,1.8,6.2-1c0.6-1,1.5-1.9,2.3-2.7c3.1-3.1,3.2-5.6-0.7-8.6
				c-8.7-6.8-12.8-16.7-16.7-26.6c-3-7.7-5.9-15.4-8.8-23.1c-1.3-3.5-2.9-4.1-6.3-1.9c-10.3,6.8-10.3,6.6-5.3,17.8
				c4.5,10,8.8,20,12.1,27.5C302.7,410.7,308.1,415.9,314.4,420.3z M123.1,134.7c1.7-1.5,4.7-3,4-5.4c-0.8-3-4.3-4-6.7-5.8
				c-1.3-1-2,0.5-2.9,1.2c-20.9,17.4-43.4,32.2-68.6,42.6c-4.3,1.8-6,8-2.9,11.3c1.8,1.9,3.8,0.3,5.6-0.4
				c13.1-5.1,25.5-11.7,42.7-22C101.2,152.2,112.4,143.8,123.1,134.7z M327.6,429.5c-0.9,1.3-0.2,2.5,1.1,3.5
				c14,11.1,22.3,25.4,24.8,43.1c0.1,1,0.3,2.2,1.5,2.3c1.4,0.1,1.9-1.2,2.5-2.2c3.8-7.3,5.1-15,3.1-23
				c-3.1-12.5-9.9-22.7-19.4-31.3c-2.7-2.5-4.4-3-6.1-2C332.7,422.8,330,426.1,327.6,429.5z M212.5,212.3
				c-9.8-9.8-21.2-17.1-34.4-21.5c-3.9-1.3-6.9-0.9-8.7,3.2c-1.9,4.3-0.9,6.9,3.5,9c12.2,5.6,22.8,13,30.5,24.1
				c1.2,1.7,2.3,1.6,3.8,0.6c1.4-1,2.9-1.8,4.3-2.6C219.8,219.6,219.9,219.6,212.5,212.3z"/>
			<path class="st2" d="M68,239.9c33.5-24,68.6-45.4,105.9-65.4c-4.3-2-7.5-3.6-10.8-5.1c-12.1-5.7-24-11.7-34-20.8
				c-1.8-1.6-3.1-1.7-5.1-0.1c-18.3,14.6-38.3,26.5-59.5,36.5c-1.4,0.7-3.2,1-2.3,3.6c5.6,16.3,5.8,33.1,4.9,50
				C67.2,238.8,67.5,239.1,68,239.9z"/>
			<path class="st3" d="M28.3,143.9c2.4,3.9,5,7.7,7,11.7c2.1,4.2,4.8,3.2,7.9,1.7c3.9-1.9,1.4-4.1,0.3-6.1
				c-4-7.1-7.1-14.6-11.8-21.2c-2-2.9-1-4.4,1.7-5.9c9-5.2,6.9-5.1,11.8,2.8c4,6.5,8,12.9,11.8,19.5c1.5,2.6,2.8,3.1,5.6,1.6
				c9.9-5.5,10-5.4,4-15.2c-3.6-5.9-7.1-11.9-10.8-17.7c-1.5-2.4-1.3-3.8,1.2-5.3c10-5.9,7.4-5.5,12.6,2.7c4.1,6.4,8,12.9,11.8,19.5
				c1.4,2.4,2.6,2.9,5.2,1.5c10.1-5.6,10.7-7.5,3.2-16.5c-3.9-4.7-6.6-10.2-10.1-15.1c-2.1-3-1.8-5.2,1.6-6.9c0.9-0.4,1.8-1,2.6-1.6
				c3-2.4,5-2.2,7.1,1.5c3.8,6.8,7.9,13.4,12.1,19.9c1.1,1.7,1.5,5.1,5,3c4.4-2.6,6.1-6,4-9.2c-2.7-4.3-5.7-8.3-8.5-12.5
				c-1.2-1.8-2.4-3.7-3.4-5.6c-6.7-11.8-6.9-10.6-19.6-5.7c-7.3,2.8-13.6,7.3-20.4,11.1c-12.8,7.1-25.1,15-36.2,24.5
				c-6,5.1-6.2,6.5-2.2,13.2C24.1,136.9,26.3,140.4,28.3,143.9C28.4,143.9,28.3,143.9,28.3,143.9z"/>
			<path class="st4" d="M297.2,401.8c5.5,9,10.9,14.1,17.2,18.6c2.6,1.9,4.5,1.8,6.2-1c0.6-1,1.5-1.9,2.3-2.7
				c3.1-3.1,3.2-5.6-0.7-8.6c-8.7-6.8-12.8-16.7-16.7-26.6c-3-7.7-5.9-15.4-8.8-23.1c-1.3-3.5-2.9-4.1-6.3-1.9
				c-10.3,6.8-10.3,6.6-5.3,17.8C289.6,384.2,293.9,394.3,297.2,401.8z"/>
			<path class="st2" d="M94.3,156.2c6.9-4.1,18.1-12.5,28.8-21.5c1.7-1.5,4.7-3,4-5.4c-0.8-3-4.3-4-6.7-5.8c-1.3-1-2,0.5-2.9,1.2
				c-20.9,17.4-43.4,32.2-68.6,42.6c-4.3,1.8-6,8-2.9,11.3c1.8,1.9,3.8,0.3,5.6-0.4C64.7,173.2,77,166.6,94.3,156.2z"/>
			<path class="st4" d="M335.1,419.8c-2.3,3-5,6.3-7.5,9.7c-0.9,1.3-0.2,2.5,1.1,3.5c14,11.1,22.3,25.4,24.8,43.1
				c0.1,1,0.3,2.2,1.5,2.3c1.4,0.1,1.9-1.2,2.5-2.2c3.8-7.3,5.1-15,3.1-23c-3.1-12.5-9.9-22.7-19.4-31.3
				C338.4,419.4,336.7,418.9,335.1,419.8z"/>
			<path class="st4" d="M211.5,225.1c8.3-5.5,8.3-5.5,1-12.7c-9.8-9.8-21.2-17.1-34.4-21.5c-3.9-1.3-6.9-0.9-8.7,3.2
				c-1.9,4.3-0.9,6.9,3.5,9c12.2,5.6,22.8,13,30.5,24.1c1.2,1.7,2.3,1.6,3.8,0.6C208.6,226.8,210.1,225.9,211.5,225.1z"/>
			<path class="st5" d="M76.5,321.1c-2.3-4.2-1.3-5.9,2.6-7.5c11.1-4.6,21.6-10.5,32.1-16.2c29.8-16.4,58.6-34.4,87.1-52.9
				c12.9-8.3,25.3-17.5,37.6-26.6c2.6-1.9,3.6-1.9,5.3,0.7c4.2,6.3,8.9,12.3,13,18.7c12,18.8,42.8,69.3,51.4,90.1
				c0.9,2.3,0.7,3.7-1.2,5.3c-5,4.1-9.6,8.6-14.7,12.3c-21.1,15.2-42.3,30.3-64.8,43.4c-3.5,2.1-6.9,4.2-10.4,6.3
				c-22,13-44.3,25.3-68.2,34.3c-2.4,0.9-3.8,0.9-5.5-1.2c-4.1-4.9-7.9-10.1-11.3-15.5C117.1,393,87.5,341.2,76.5,321.1z"/>
			<path class="st7" d="M266.4,301.8c-6.2-10.2-30.5-52.6-36.6-63c-1.6-2.8-2.8-3.3-5.7-1.4c-10.4,6.9-10.5,6.8-4.1,17.3
				c11.2,18.5,40.5,69.1,51.5,87.6c2,3.4,3.4,4.5,7.1,1.7c9.2-6.8,9.4-6.6,3.5-16.3C276.9,319.1,271.6,310.4,266.4,301.8
				C266.4,301.8,266.4,301.8,266.4,301.8z"/>
		</g>
	</g>
</g>
</svg>
