<?xml version="1.0" encoding="utf-8"?>
<!-- Generator: Adobe Illustrator 27.9.1, SVG Export Plug-In . SVG Version: 6.00 Build 0)  -->
<svg version="1.1" id="Layer_1" xmlns="http://www.w3.org/2000/svg" xmlns:xlink="http://www.w3.org/1999/xlink" x="0px" y="0px"
	 viewBox="0 0 665.4 586.3" style="enable-background:new 0 0 665.4 586.3;" xml:space="preserve">
<style type="text/css">
	.st0{fill:#FCCA1D;}
	.st1{fill:#181516;}
	.st2{fill:#FBFBFB;}
	.st3{fill:#3F383B;}
	.st4{fill:#716E6D;}
	.st5{fill:#B21F36;}
	.st6{fill:#7A1E2F;}
	.st7{opacity:0.74;fill:#FFCCD6;}
	.st8{fill:none;}
	.st9{fill:#CFCECE;}
	.st10{opacity:0.58;}
	.st11{fill:#FFFFFF;}
	.st12{fill:#FCFCFC;}
	.st13{fill:#232121;}
	.st14{fill:#8E1830;}
	.st15{fill:#D6D5D5;}
	.st16{fill:#FCCD2A;}
	.st17{fill:#FDFDFD;}
	.st18{fill:#FFDE83;}
	.st19{fill:#D1CDC5;}
	.st20{fill:#7F3211;}
	.st21{fill:none;stroke:#B21F36;stroke-miterlimit:10;}
</style>
<circle class="st0" cx="335" cy="293.1" r="292.6"/>
<g>
	<g>
		<g>
			<path class="st13" d="M534.8,357.5c0.3,0,0.6,0,0.9,0c3.4-0.9,6.5,0,8.5,3.1s1.1,6-0.9,8.5c-5.4,9.1-11.1,18.1-16.7,27.2
				c-11.9,19-24.4,37.7-35.7,57c-7.7,12.5-10.8,26.9-13.3,41.1c-0.3,1.4-0.6,2.6-0.9,4c-1.4,7.1-2.8,8.2-9.9,6.5
				c-6.8-1.7-11.6-6.2-15-11.6c-3.1-4.8-7.1-7.7-13.3-7.9c-9.6-0.3-17-5.4-21-14.2c-4.3-8.8-9.9-13-20.1-12.2
				c-8.2,0.6-14.2-4.5-18.4-11.1c-2.3-3.4-4.8-6.5-6.2-10.2c-2-4.8-5.1-6-9.9-6c-3.4,0-7.1-0.9-10.5-1.4c-9.9-1.4-17.3-6.8-22.4-15
				c-1.1-1.7-2.3-2.8-2.8-4.5c-2.3-7.1-7.7-9.4-14.7-10.2c-12.5-1.4-21.8-7.9-26.9-19c-3.7-8.2-9.9-11.1-17.9-12.8
				c-10.2-2.6-20.7-5.4-26.9-15.6c-2.3-3.7-1.7-5.7,1.7-8.2c10.8-7.4,20.7-15,29.5-24.7c9.9-10.8,16.7-23.5,24.4-35.7
				c16.7-27.2,32.6-54.4,47.6-82.5c1.1-1.7,2.6-3.7,4-5.4c8.2,0.9,8.8,1.7,10.5,7.9c-0.6,1.7-1.1,3.1-1.7,4.5
				c-12.2,23.2-25.5,45.9-39.4,68c-2,3.4-2,5.1,1.4,7.9c14.7,11.6,29.5,23.5,44.5,34.6c32.6,24.4,66.1,47.6,101.2,68.3
				c0,0.3,0,0.6-0.3,0.9c-0.9,1.4-1.7,2.3-2.6,3.7c-1.4-0.6-2.3-1.1-3.7-1.7c-24.9-15.3-49.6-31.5-73.4-48.8
				c-23.8-17-47.1-34.6-69.5-53c-3.1-2.6-4.3-1.7-6,1.4c-4.3,6.8-8.2,13.6-12.8,20.4c-1.7,2.3-1.7,3.7,0.9,5.7
				c21.3,18.4,43.7,36.3,66.6,53c36.6,26.6,74,51.9,114.5,72c2.3,1.4,3.7,1.1,4.8-1.4c4.8-7.9,9.6-15.6,14.7-23.2
				c1.7-2.3,0.9-3.1-1.4-4.5c-7.7-4.3-15-8.5-22.7-12.8c0.3-1.7,1.7-2.8,2.6-4.3c7.4,4,14.7,7.9,21.5,11.6c2.8,1.7,4.8,2,6.8-1.7
				c5.4-9.4,11.3-18.1,17.3-27.5C525.7,371.7,529.4,363.8,534.8,357.5z M376.9,425.9c0,0.9,0.6,1.4,1.1,1.7c1.1,1.7,2,4,3.1,5.7
				c10.8,17.3,9.4,16.4,27.8,16.7c4.8,0,8.5,1.7,10.8,6.2c0.6,1.4,1.4,2.3,2,3.4c1.7,3.7,3.7,7.4,6.5,10.2c2,4.3,6,5.4,10.2,6
				c4.3,0.6,8.5,0,12.8,1.1c4.8,4.8,7.9,11.9,13.9,16.4c0.3-0.6,0.6-0.6,0.9-0.9c2-10.2,3.4-20.7,6.8-30.6c0.6-1.7-0.6-2-1.7-2.6
				c-4.3-2-8.2-4.3-12.2-6.2c-10.2-5.7-20.4-11.6-30.3-17.6c-11.6-7.1-23-14.2-34.6-21.3c-0.9-1.4-2.3-1.7-3.7-2.6
				c-13.6-9.4-26.9-19-40.5-28.3c-1.1-0.9-1.7-1.7-3.1-2.3c-3.1-2.6-6.5-4.8-9.6-7.7c-15.3-11.6-30-23.8-44.8-35.7
				c-2.6-2.3-5.4-4.8-8.2-7.7c-1.7-1.7-2.6-1.1-4,0.3c-7.4,7.4-15.6,13.6-24.4,19c-3.7,2.3-2,3.4,0.6,4.8c4.8,2.8,9.9,4,14.7,5.1
				c17.3,4.8,13.9,0.9,22.4,17l0.3,0.3c4,8.5,11.1,12.8,20.4,14.5c5.4,0.9,11.6,0.3,15.9,4.8c0.3,1.4,0.9,2.3,1.7,3.1
				c6.2,14.7,16.4,23.8,33.7,22.7c0.9,0,1.7,0,2,0C371.2,422.5,374.3,423.3,376.9,425.9z M465,440c-3.1-1.7-6.2-3.4-9.4-5.1
				c-36.9-21-72-44.2-105.7-70c-13.9-10.8-27.8-21.5-41.4-32.3c-4.8-4.5-9.9-8.5-14.7-13c-1.4-1.4-3.1-2-3.7,0.3
				c-0.9,2.3-6.2,3.4-2.3,7.1c5.4,4.8,11.6,9.6,17.3,14.7c0.6,0.6,1.4,1.4,1.7,1.7c48.8,39.4,99.5,76,155.1,105.5
				c2.6,1.4,5.1,2.8,7.7,4.3c5.4,3.1,5.4,2.8,8.2-2.8c1.1-2,0.9-3.4-1.7-4.5C472.1,444,468.7,441.7,465,440z"/>
			<path class="st13" d="M341,207.2c-0.3-2,13.8-25.1,14.9-26.8c3.4-6,6.5-12.2,10.5-18.1c1.7-2.8,0.6-3.4-1.7-4
				c-7.4-1.4-14.7-2.6-22.1-4.5c-3.7-1.1-7.1-2.3-9.9-4.5c-5.7-4.3-6.2-9.6-1.1-14.7c4.3-4,8.8-6.8,13.6-9.9c2-1.4,4.5-2.6,6.2-4.3
				c6.2-4.8,10.5-10.8,10.8-18.7c0-2.6,0.3-5.1,0.6-7.9c0.3-5.4,2-8.2,7.4-8.2c6-0.3,11.1-3.4,17.3-3.1c9.1,0.3,17.3,2.6,24.7,7.4
				c2.8,1.7,4,0.9,5.1-1.7c2.8-4.8,6-9.4,9.1-14.2c7.9-11.6,13-13.3,26.1-8.8s24.7,11.6,36.6,19c34.9,21.8,70.3,43.9,104.9,65.8
				c17,10.8,34.6,21.3,50.5,33.7c9.4,7.4,10.2,12.2,4,22.4c-6.5,10.8-13.3,21.3-20.1,31.8c-1.7,2.3-1.7,3.7,0.9,5.4
				c3.4,2.3,6.5,5.4,9.9,8.2c7.7,5.1,10.8,13.3,15.3,20.7c2.6,4,1.4,7.9-2.6,11.1c-2.8,2-5.7,4-8.8,6c-9.9,6.8-17,15.9-21.3,27.2
				c-2.6,6-4.8,12.2-7.1,18.1c-2,5.4-5.1,7.7-11.3,7.7c-9.6,0-18.1-4.3-26.4-8.5c-2.6-1.4-5.1-4.8-7.9-4c-2.3,1.1-3.7,4.8-5.1,7.4
				c-2,3.4-4.5,6.5-6.5,9.9c-1.7,3.1-4,5.7-7.9,5.1c-4.3-0.6-5.7-3.7-6.8-7.4c3.1-8.2,8.2-14.7,12.8-22.1c1.4-2.3,1.7-3.7-0.9-5.4
				c-5.7-4.3-10.5-9.4-15.6-14.2c-4-4.3-8.2-7.9-13.9-9.6c-10.5-6.8-21.3-13.6-31.5-20.4c-40.5-26.4-79.9-54.1-117.6-84.2
				c-5.7-4.8-17.4,16.2-21.4,22.1C348.4,213.3,344.7,213.7,341,207.2z M432.7,91.4c2.3-3.7,4.8-7.4,7.7-10.8c0.9-1.1,1.1-3.1,3.1-2
				c-6.8,11.9-15,23-23,34.3c-2.6,3.7-2.3,6,1.1,8.2c1.4,0.9,2.3,1.7,3.4,2.6c9.9,7.9,19.8,15.6,29.5,23.8c2.3,2,3.4,2,5.4-0.6
				c7.9-11.3,15.6-22.7,23-34.6c2-3.4,3.1-8.2,7.7-9.9c0.3,0.6,0.3,1.4,0.6,1.7c-8.8,15-18.1,30.3-28.3,44.5c-1.7,2.3-1.7,4,0.6,6
				c3.1,2.3,5.7,4.8,8.5,7.7c8.8,7.7,17.9,15,26.6,22.7c2,1.7,3.4,2.3,5.4-0.9c4.3-6.8,8.5-13.3,13-19.8
				c6.8-10.2,13.6-20.4,19.6-30.9c1.1-0.6,1.7-1.4,3.1-0.9c0,1.7-0.9,3.1-1.7,4.5c-10.5,16.4-21,32.6-31.5,49
				c-1.7,2.3-1.7,4,0.6,5.7c12.2,9.9,24.4,20.1,37.7,28.9c2,1.4,2.8,1.7,4.5-0.9c7.4-11.6,15-22.4,22.1-34
				c4.5-7.4,9.9-13.9,13.3-21.5c0.9-0.6,1.7-1.1,2.6-1.7c2.3,3.1-0.9,5.1-2,7.1c-11.1,17.3-22.1,34.6-33.5,51.3
				c-1.7,2-1.7,3.4,1.1,4.8c4,2.3,7.9,5.1,11.6,7.9c12.2,7.9,24.7,15,37.7,21.5c3.1,1.7,5.1,1.4,7.4-1.7c7.1-10.8,14.5-21.3,21.3-32
				c4.5-6.8,8.2-13.6,12.5-20.4c3.4-5.7,2.8-8.2-2.3-12.5c-1.4-1.1-2.6-2.3-4.5-2.8c-10.2-8.8-21.8-15.3-33.5-22.4
				c-0.3-0.3-0.3-0.6-0.6-0.9c-18.7-11.9-37.7-23.8-56.4-35.7c-20.4-12.8-40.8-24.9-60.7-37.7c-11.6-7.4-23-14.5-36-18.7
				c-2.6-0.9-5.4-2.3-8.2-0.9c-0.3,0-0.6,0-0.9,0c-3.4-0.9-4.8,2-6.2,4c-3.7,5.1-7.1,10.5-10.5,15.6c-4,6.2-7.7,12.8-11.6,19.3
				c-1.7,2.8,0.3,4,2,5.1c2,1.7,2.8,0.9,4.3-1.1C422.8,106.1,428.7,99.3,432.7,91.4z M387.9,99.9c0.3-1.7-1.1-3.4,1.1-4.3
				c1.7-0.9,2.8,0.9,4.3,1.7c3.4,3.1,6.8,6.2,11.6,6.2c1.7,0,7.4-6,6.8-7.4c-0.3-0.6-0.9-0.9-1.4-1.1c-0.9-0.6-2-0.6-2.8-1.4
				c-6.5-4.8-13.9-6.8-21.5-6.5c-5.7,0-10.2,4.8-16.2,4.5c-0.9,0-1.1,1.1-0.9,1.7c0,1.1-0.3,2.3-0.3,3.4
				c0.9,14.5-5.4,24.7-17.9,31.8c-3.7,2-7.4,4.3-11.1,6.8c-2.3,1.7-6,3.1-5.1,6.5c0.6,3.7,4.5,4.5,7.7,5.1
				c17.3,4.5,34.6,7.1,51.3,13c11.9,5.1,23.8,11.3,34.6,18.4C452,194,471,215,488.8,236.5c17.6,21.3,34.3,42.8,54.1,62.1
				c10.5,10.2,21.3,19.8,34.3,27.2c4.8,4,10.8,6,16.4,8.2c11.1,3.7,13,2.8,16.4-7.9c6.5-19.3,16.4-35.7,34.6-46.2
				c4.8-2.6,4.8-5.1,1.4-9.9c-1.4-1.7-4-2.8-3.4-4.8c0.9-3.4-1.4-4.8-3.1-6.5c-5.1-4.8-10.8-9.4-16.7-13c-1.7,2.6-3.1,4.8-4.8,7.4
				c-0.9,1.4-1.1,2-0.3,3.7c3.7,5.1,7.9,9.6,15,8.8c0.9,0,1.7-0.6,2.3,0.6c0.3,1.1-0.6,1.7-1.4,2.6c-2,1.7-4.5,1.1-6.8,1.7
				c-2-0.6-4.5-0.9-6.5-1.7c-13.6-3.4-25.2-10.5-37.4-17c-30-16.4-57.3-37.1-83.3-59c-31.5-26.6-62.4-54.1-95.5-78.8
				C399,110.1,392.5,106.4,387.9,99.9z M517.2,282.1c0.3-0.3,0.6-0.6,0.6-0.6c-0.3-0.6-0.6-1.1-0.9-1.4
				c-6.5-8.2-13.3-15.9-19.8-24.1c-14.7-18.1-29.5-36.3-46.5-52.2c-18.1-16.7-38-29.8-60.9-38.3c-7.7-2.8-7.9-2.6-11.6,4
				c-1.4,2.3-2.3,4.8-4,7.1c-1.7,2.3-1.4,3.7,1.1,5.4c9.6,7.4,19,14.7,28.6,22.1c29.2,22.1,59.5,42.8,89.9,63.2
				C501.6,272.2,509.3,277.3,517.2,282.1z"/>
			<path class="st13" d="M356.2,181.8c-0.3-2,0.3-3.7,1.4-5.4c3.4-6,6.5-12.2,10.5-18.1c1.7-2.8,0.6-3.4-1.7-4
				c-7.4-1.4-14.7-2.6-22.1-4.5c-3.7-1.1-7.1-2.3-9.9-4.5c-5.7-4.3-6.2-9.6-1.1-14.7c4.3-4,8.8-6.8,13.6-9.9c2-1.4,4.5-2.6,6.2-4.3
				c6.2-4.8,10.5-10.8,10.8-18.7c0-2.6,0.3-5.1,0.6-7.9c0.3-5.4,2-8.2,7.4-8.2c6-0.3,11.1-3.4,17.3-3.1c9.1,0.3,17.3,2.6,24.7,7.4
				c2.8,1.7,4,0.9,5.1-1.7c2.8-4.8,6-9.4,9.1-14.2c7.9-11.6,13-13.3,26.1-8.8s24.7,11.6,36.6,19c34.9,21.8,70.3,43.9,104.9,65.8
				c17,10.8,34.6,21.3,50.5,33.7c9.4,7.4,10.2,12.2,4,22.4c-6.5,10.8-13.3,21.3-20.1,31.8c-1.7,2.3-1.7,3.7,0.9,5.4
				c3.4,2.3,6.5,5.4,9.9,8.2c7.7,5.1,10.8,13.3,15.3,20.7c2.6,4,1.4,7.9-2.6,11.1c-2.8,2-5.7,4-8.8,6c-9.9,6.8-17,15.9-21.3,27.2
				c-2.6,6-4.8,12.2-7.1,18.1c-2,5.4-5.1,7.7-11.3,7.7c-9.6,0-18.1-4.3-26.4-8.5c-2.6-1.4-5.1-4.8-7.9-4c-2.3,1.1-3.7,4.8-5.1,7.4
				c-2,3.4-4.5,6.5-6.5,9.9c-1.7,3.1-4,5.7-7.9,5.1c-4.3-0.6-5.7-3.7-6.8-7.4c3.1-8.2,8.2-14.7,12.8-22.1c1.4-2.3,1.7-3.7-0.9-5.4
				c-5.7-4.3-10.5-9.4-15.6-14.2c-4-4.3-8.2-7.9-13.9-9.6c-10.5-6.8-21.3-13.6-31.5-20.4c-40.5-26.4-79.9-54.1-117.6-84.2
				c-5.7-4.8-5.7-4.5-9.6,1.4C361.3,188.6,359.6,187.7,356.2,181.8z M434.4,87.1c2.3-3.7,4.8-7.4,7.7-10.8c0.9-1.1,1.1-3.1,3.1-2
				c-6.8,11.9-15,23-23,34.3c-2.6,3.7-2.3,6,1.1,8.2c1.4,0.9,2.3,1.7,3.4,2.6c9.9,7.9,19.8,15.6,29.5,23.8c2.3,2,3.4,2,5.4-0.6
				c7.9-11.3,15.6-22.7,23-34.6c2-3.4,3.1-8.2,7.7-9.9c0.3,0.6,0.3,1.4,0.6,1.7c-8.8,15-18.1,30.3-28.3,44.5c-1.7,2.3-1.7,4,0.6,6
				c3.1,2.3,5.7,4.8,8.5,7.7c8.8,7.7,17.9,15,26.6,22.7c2,1.7,3.4,2.3,5.4-0.9c4.3-6.8,8.5-13.3,13-19.8
				c6.8-10.2,13.6-20.4,19.6-30.9c1.1-0.6,1.7-1.4,3.1-0.9c0,1.7-0.9,3.1-1.7,4.5c-10.5,16.4-21,32.6-31.5,49
				c-1.7,2.3-1.7,4,0.6,5.7c12.2,9.9,24.4,20.1,37.7,28.9c2,1.4,2.8,1.7,4.5-0.9c7.4-11.6,15-22.4,22.1-34
				c4.5-7.4,9.9-13.9,13.3-21.5c0.9-0.6,1.7-1.1,2.6-1.7c2.3,3.1-0.9,5.1-2,7.1c-11.1,17.3-22.1,34.6-33.5,51.3
				c-1.7,2-1.7,3.4,1.1,4.8c4,2.3,7.9,5.1,11.6,7.9c12.2,7.9,24.7,15,37.7,21.5c3.1,1.7,5.1,1.4,7.4-1.7c7.1-10.8,14.5-21.3,21.3-32
				c4.5-6.8,8.2-13.6,12.5-20.4c3.4-5.7,2.8-8.2-2.3-12.5c-1.4-1.1-2.6-2.3-4.5-2.8c-10.2-8.8-21.8-15.3-33.5-22.4
				c-0.3-0.3-0.3-0.6-0.6-0.9c-18.7-11.9-37.7-23.8-56.4-35.7c-20.4-12.8-40.8-24.9-60.7-37.7c-11.6-7.4-23-14.5-36-18.7
				c-2.6-0.9-5.4-2.3-8.2-0.9c-0.3,0-0.6,0-0.9,0c-3.4-0.9-4.8,2-6.2,4c-3.7,5.1-7.1,10.5-10.5,15.6c-4,6.2-7.7,12.8-11.6,19.3
				c-1.7,2.8,0.3,4,2,5.1c2,1.7,2.8,0.9,4.3-1.1C423.9,101.8,429.9,95,434.4,87.1z M389.6,95.6c0.3-1.7-1.1-3.4,1.1-4.3
				c1.7-0.9,2.8,0.9,4.3,1.7c3.4,3.1,6.8,6.2,11.6,6.2c1.7,0,7.4-6,6.8-7.4c-0.3-0.6-0.9-0.9-1.4-1.1c-0.9-0.6-2-0.6-2.8-1.4
				c-6.5-4.8-13.9-6.8-21.5-6.5c-5.7,0-10.2,4.8-16.2,4.5c-0.9,0-1.1,1.1-0.9,1.7c0,1.1-0.3,2.3-0.3,3.4
				c0.9,14.5-5.4,24.7-17.9,31.8c-3.7,2-7.4,4.3-11.1,6.8c-2.3,1.7-6,3.1-5.1,6.5c0.6,3.7,4.5,4.5,7.7,5.1
				c17.3,4.5,34.6,7.1,51.3,13c11.9,5.1,23.8,11.3,34.6,18.4c23.8,15.6,42.8,36.6,60.7,58.1c17.6,21.3,34.3,42.8,54.1,62.1
				c10.5,10.2,21.3,19.8,34.3,27.2c4.8,4,10.8,6,16.4,8.2c11.1,3.7,13,2.8,16.4-7.9c6.5-19.3,16.4-35.7,34.6-46.2
				c4.8-2.6,4.8-5.1,1.4-9.9c-1.4-1.7-4-2.8-3.4-4.8c0.9-3.4-1.4-4.8-3.1-6.5c-5.1-4.8-10.8-9.4-16.7-13c-1.7,2.6-3.1,4.8-4.8,7.4
				c-0.9,1.4-1.1,2-0.3,3.7c3.7,5.1,7.9,9.6,15,8.8c0.9,0,1.7-0.6,2.3,0.6c0.3,1.1-0.6,1.7-1.4,2.6c-2,1.7-4.5,1.1-6.8,1.7
				c-2-0.6-4.5-0.9-6.5-1.7c-13.6-3.4-25.2-10.5-37.4-17c-30-16.4-57.3-37.1-83.3-59c-31.5-26.6-62.4-54.1-95.5-78.8
				C400.1,105.8,393.6,101.8,389.6,95.6z M518.6,277.9c0.3-0.3,0.6-0.6,0.6-0.6c-0.3-0.6-0.6-1.1-0.9-1.4
				c-6.5-8.2-13.3-15.9-19.8-24.1c-14.7-18.1-29.5-36.3-46.5-52.2c-18.1-16.7-38-29.8-60.9-38.3c-7.7-2.8-7.9-2.6-11.6,4
				c-1.4,2.3-2.3,4.8-4,7.1c-1.7,2.3-1.4,3.7,1.1,5.4c9.6,7.4,19,14.7,28.6,22.1c29.2,22.1,59.5,42.8,89.9,63.2
				C502.7,268,511,272.8,518.6,277.9z"/>
			<path class="st0" d="M539,303.4c5.1,4.8,9.9,9.9,15.6,14.2c2.3,1.7,2,3.1,0.9,5.4c-4.5,7.4-9.6,14.2-12.8,22.1
				c-2.6,4.3-5.1,8.2-7.9,12.5c-5.4,6.5-9.1,14.2-13.6,21.3c-6,9.1-11.6,18.1-17.3,27.5c-2,3.4-4,2.8-6.8,1.7
				c-7.4-4-14.7-7.9-21.5-11.6l0.3-0.3c11.1-16.2,22.1-32,33.2-48.2C518.9,332.6,528.8,317.9,539,303.4z"/>
			<path class="st0" d="M358.2,204.8c3.1-4.5,6.5-9.1,8.2-14.5c4-5.7,4-5.7,9.6-1.4c37.7,30,77.1,57.8,117.6,84.2
				c10.5,6.8,21.3,13.6,31.5,20.4c-9.4,14.7-18.7,29.5-28.3,44.2c-11.1,16.7-21.8,33.7-32.9,50.5c-35.2-20.7-68.6-43.9-101.2-68.3
				c-15-11.3-30-23-44.5-34.6c-3.4-2.6-3.4-4.5-1.4-7.9c13.9-22.1,27.2-44.8,39.4-68C357,207.9,357.3,206.2,358.2,204.8z"/>
			<path class="st14" d="M473,399.8c7.7,4.3,15,8.5,22.7,12.8c2,1.1,2.8,2,1.4,4.5c-4.8,7.7-9.9,15.3-14.7,23.2
				c-1.4,2-2.3,2.3-4.8,1.4c-40.5-20.4-77.7-45.6-114.5-72c-23-16.7-45.1-34.3-66.6-53c-2.3-2-2.3-3.1-0.9-5.7
				c4.5-6.5,8.5-13.3,12.8-20.4c1.7-2.8,2.8-4,6-1.4c22.4,18.4,45.6,36,69.5,53c23.8,17.3,48.2,33.5,73.4,48.8
				c1.1,0.9,2.3,1.4,3.7,1.7c0,0.3,0,0.6,0,0.6c-4.5,7.1-9.1,14.2-13.6,21.3c-3.1,4.8-1.1,9.1,4.8,9.6c2.6,0.3,4.5-1.1,5.7-3.1
				c4.8-7.1,9.6-13.9,14.7-21C472.7,400.1,473,399.8,473,399.8z"/>
			<path class="st17" d="M421.9,459.6c-0.9-1.1-1.7-2-2-3.4c-2-4.8-5.7-6.2-10.8-6.2c-18.4-0.3-17.3,0.6-27.8-16.7
				c-1.1-1.7-2-4-3.1-5.7c4.5-5.4,10.2-9.1,15.6-13.3c11.6,7.1,23,14.5,34.6,21.3c9.9,6,20.1,11.6,30.3,17.6
				c-2.3,8.2-4.8,15.9-7.4,24.1c-4.3-1.4-8.5-0.6-12.8-1.1c-4.3-0.6-8.2-1.7-10.2-6c1.4-2.8,2.3-5.7,4-8.2c2-3.4,3.7-7.1,4.8-10.8
				c0.6-1.7,1.1-4.3-1.4-5.1c-1.7-0.9-3.1,0.9-4.3,1.7c-1.1,1.4-1.7,2.8-3.1,4.3C426.5,454.2,426.2,458.2,421.9,459.6z"/>
			<path class="st17" d="M330.4,396.4c-4.5-4.8-10.5-4.3-15.9-4.8c-9.4-1.7-16.2-5.7-20.4-14.5c0-0.3-0.3-0.3-0.3-0.3
				c-8.5-16.2-5.1-12.2-22.4-17c0.9-2,2.6-3.1,4.3-4.5c5.7-5.7,11.6-11.3,16.7-17.6c14.7,11.9,29.5,24.4,44.8,35.7
				c3.4,2.3,6.5,4.8,9.6,7.7c-0.9,2.8-3.1,4.3-4.8,6C337.7,390.2,333.5,392.4,330.4,396.4z"/>
			<path class="st17" d="M461.6,448.3c-55.6-29.2-106.3-65.8-155.1-105.5c-0.9-0.6-1.4-1.4-1.7-1.7c1.4-2.8,2.3-5.7,3.7-8.5
				c13.9,10.8,27.5,21.5,41.4,32.3c33.7,25.5,68.9,49,105.7,70c3.1,1.7,6.2,3.4,9.4,5.1C463.6,442.9,462.5,445.7,461.6,448.3z"/>
			<path class="st18" d="M463.9,388.4c11.1-16.7,21.8-33.7,32.9-50.5c9.6-14.7,19-29.5,28.3-44.2c5.4,1.7,9.9,5.4,13.9,9.6
				c-9.9,14.7-20.1,29.2-30,43.9c-11.1,16.2-22.1,32-33.2,48.2c-4-2-8.2-4.3-11.9-6.2C463.9,389,463.9,388.7,463.9,388.4z"/>
			<path class="st17" d="M349.9,383.1c13.6,9.4,26.9,19,40.5,28.3c-0.9,2-2.3,3.7-4,4.8c-3.4,2.8-7.1,4.8-9.1,9.1
				c-2.6-2.3-6-3.1-9.4-3.4c-0.9,0-1.7,0-2,0c-17,1.4-27.2-7.9-33.7-22.7c0.6-1.7,1.7-2.6,2.8-3.7
				C339.7,391.9,345.4,388.2,349.9,383.1z"/>
			<path class="st19" d="M292.1,337.7c-4.8,6.5-11.1,11.6-16.7,17.6c-1.7,1.7-3.4,2.6-4.3,4.5c-5.1-1.4-10.2-2.3-14.7-5.1
				c-2.6-1.7-4.3-2.3-0.6-4.8c8.5-5.4,17-11.6,24.4-19c1.4-1.4,2.3-1.7,4-0.3C286.7,332.9,289.6,335.2,292.1,337.7z"/>
			<path class="st19" d="M451.7,476.9c2.3-8.2,4.8-15.9,7.4-24.1c4.3,2,8.2,4.3,12.2,6.2c1.1,0.6,2,1.1,1.7,2.6
				c-3.4,9.9-4.5,20.4-6.8,30.6c0,0.3-0.3,0.6-0.9,0.9C459.1,488.8,456.5,482,451.7,476.9z"/>
			<path class="st19" d="M308.3,332.6c-1.4,2.8-2.3,5.7-3.7,8.5c-5.7-4.8-11.6-9.6-17.3-14.7c-4-3.7,1.7-4.8,2.3-7.1
				c0.9-2.3,2.3-1.7,3.7-0.3C298.3,323.8,303.4,328.4,308.3,332.6z"/>
			<path class="st19" d="M421.9,459.6c4.3-1.1,4.8-5.1,7.1-7.9c1.4-1.4,2-2.8,3.1-4.3c1.1-1.4,2.3-2.6,4.3-1.7
				c2,1.1,1.7,3.4,1.4,5.1c-1.4,3.7-2.8,7.4-4.8,10.8c-1.7,2.6-2.6,5.4-4,8.2C425.9,466.7,423.6,463.3,421.9,459.6z"/>
			<path class="st19" d="M461.6,448.3c1.1-2.8,2-5.4,3.1-8.2c3.7,1.7,7.4,3.7,11.1,5.4c2.3,1.1,2.3,2,1.7,4.5
				c-2.6,5.7-2.3,5.7-8.2,2.8C466.7,451.4,464.2,450,461.6,448.3z"/>
			<path class="st20" d="M463.6,389.3c4,2,8.2,4.3,11.9,6.2l-0.3,0.3c-0.9,1.7-2.3,2.6-2.6,4.3c0,0-0.3,0.3-0.6,0.3
				c-3.7-2.6-7.7-4.8-11.6-6.8c0-0.3,0-0.6,0-0.6C462.2,391.6,462.8,390.2,463.6,389.3z"/>
			<path class="st19" d="M349.9,383.1c-4.5,4.8-10.2,8.2-15,12.8c-1.4,1.1-2.3,2-2.8,3.7c-1.1-0.9-1.4-2-1.7-3.1
				c3.1-4.3,7.7-6.5,11.6-9.6c2-1.7,4.5-3.1,4.8-6C348.2,381.4,349.1,382.5,349.9,383.1z"/>
			<path class="st19" d="M376.9,425.9c2-4.3,5.7-6.2,9.1-9.1c1.7-1.7,3.4-2.8,4-4.8c1.4,0.6,2.8,1.1,3.7,2.6
				c-5.4,4.3-11.3,7.9-15.6,13.3C377.4,427.3,376.9,426.7,376.9,425.9z"/>
			<path class="st20" d="M636.5,186c1.7,0.6,3.1,1.7,4.5,2.8c5.1,4.3,5.7,6.8,2.3,12.5c-4.3,6.8-8.2,13.6-12.5,20.4
				c-7.1,10.8-14.5,21.3-21.3,32c-2,3.1-4.3,3.4-7.4,1.7c-13-6.5-25.5-13.9-37.7-21.5c-4-2.6-7.9-5.4-11.6-7.9
				c-2.3-1.7-2.3-2.8-1.1-4.8c11.3-17.3,22.4-34.3,33.5-51.3c1.4-1.7,4.5-4,2-7.1c-4.8-1.7-9.4-3.4-13.9-6c-10.8-6-21-11.9-29.5-21
				c-0.9-0.9-1.7-1.7-3.1-1.1c-1.1,0.9,0,2,0.3,2.8c1.4,2.6,2.3,4.8,0.6,7.9c-2.6,4-4.8,8.2-7.4,11.9c-2.6,1.7-2.6,4.8-4,7.1
				c2.3-2.3,5.1-4,6.5-7.4c1.7-3.4,5.1-5.4,6.5-9.1c1.1-3.1,2.6-2.8,4.8-0.9c5.4,5.1,11.6,9.4,18.4,12.5c2.8,1.4,2.8,2.3,1.4,4.8
				c-4.3,7.4-9.6,13.6-12.8,21.3c-1.7,0.9-1.7,2.6-2.3,4c-0.6,2-1.7,4.8,0.6,5.7c1.4,0.6,2.3-2.3,3.1-4c5.4-8.8,11.1-18.1,17.3-26.6
				c1.1-1.7,2-2.3,4-2c2.3,0.3,4.8,0.3,7.1,0.6c-3.4,7.9-8.8,14.7-13.3,21.5c-7.1,11.6-14.7,22.7-22.1,34c-1.7,2.3-2.3,2-4.5,0.9
				c-13-8.8-25.2-19-37.7-28.9c-2.3-2-2-3.4-0.6-5.7c10.8-16.2,21.3-32.6,31.5-49c0.9-1.4,1.7-2.8,1.7-4.5c-0.9-0.6-1.7-1.1-2.3-1.4
				c-11.6-3.7-21.3-9.6-31.2-16.7c-5.4-4-10.5-8.5-15.6-12.8v-0.3c0,0,0,0.3,0.3,0.3c0,0.3,0,0.6-0.3,0.9c-4.5,1.7-5.4,6.5-7.7,9.9
				c-7.4,11.6-14.7,23.2-23,34.6c-1.7,2.8-3.1,2.6-5.4,0.6c-9.6-8.2-19.6-15.9-29.5-23.8c-1.1-1.1-2.3-1.7-3.4-2.6
				c-3.7-2.3-3.7-4.8-1.1-8.2c7.9-11.3,16.2-22.1,23-34.3c2.6,1.7,3.1,3.1,1.4,5.7c-2.8,4.3-5.1,8.5-7.9,12.8
				c-2.6,2-3.7,5.1-4.3,8.2c1.7-3.1,5.1-4.8,6.5-8.5c2.3-3.4,5.1-6.5,7.4-9.9c1.7-2.6,2.8-2.8,4.8-0.9c4.8,4.8,10.8,8.2,17,11.3
				c3.7,1.7,3.1,3.4,1.7,6c-3.1,5.1-6.2,10.5-9.1,15.6c-2,3.7-4,7.4-4,11.6c1.7-1.4,2.8-2.6,4-4.3c4-6,8.2-11.9,11.6-18.1
				c2.6-4.5,5.1-8.5,11.6-6c0,0,0.3,0,0.6,0c1.1,0,2,0,2.3-1.4c0-1.1-0.9-1.7-1.7-1.7c-3.1-0.3-5.7-2.3-8.2-3.7
				c-13.3-6.5-25.2-14.7-36-24.7c2.8-1.7,5.7-0.3,8.2,0.9c13,4.3,24.7,11.6,36,18.7c20.1,12.8,40.8,24.9,60.7,37.7
				c18.7,11.6,37.7,23.8,56.4,35.7c0.3,0.3,0.3,0.6,0.6,0.9c-3.4,2.3-1.1,3.7,0.9,4.8c7.7,5.1,15.3,10.5,23,15.3
				C629.7,186,633.1,187.5,636.5,186z M603.4,218.4c-1.1,1.7-2.8,3.1-2.8,5.4c0,1.7-1.1,4.3,0.9,4.8c2.3,1.1,1.7-2.3,3.1-3.4
				c0.6-0.6,1.1-1.7,1.7-2c4.8-7.7,9.4-15.3,14.2-23c2.3-3.4,4.8-6.5,9.9-5.1c1.7,0.6,4,0.3,5.7-1.1c-16.4-6.2-31.2-14.7-43.7-27.2
				c-0.6-0.6-1.1-1.7-2-1.1c-1.7,0.6-1.1,1.7-0.9,2.6c2.6,4.8,0,8.2-2.3,11.9c-2.8,4.8-6.2,9.1-8.5,14.7c6-4.8,8.5-11.6,13.3-16.4
				c1.4-1.4,2-2.3,4-0.9c5.4,5.1,11.6,9.4,18.7,12.5c4,1.7,4,3.7,1.7,7.1C611.3,204.2,607.3,211.3,603.4,218.4z M629.5,205.3
				c-6,7.4-11.1,15-15,23.5C621,222.3,626.6,215,629.5,205.3z"/>
			<path class="st19" d="M627.5,270.5c2.3-0.6,4.8,0,6.8-1.7c0.9-0.6,1.7-1.7,1.4-2.6c-0.3-1.1-1.7-0.9-2.3-0.6
				c-7.4,0.9-11.6-3.7-15-8.8c-1.1-1.4-0.6-2.3,0.3-3.7c1.7-2.3,3.1-4.8,4.8-7.4c6,3.7,11.6,8.2,16.7,13c1.7,1.7,4.3,3.1,3.1,6.5
				c-0.6,1.7,2.3,3.1,3.4,4.8c3.4,4.5,3.1,7.4-1.4,9.9c-18.1,10.5-28.1,26.9-34.6,46.2c-3.7,10.8-5.4,11.6-16.4,7.9
				c-5.7-2-11.6-4.3-16.4-8.2c0.3-2.3,0.6-4.8,1.1-7.1c0.6-2-0.3-3.4-2-4.3c-4.3-1.7-7.9-4.8-11.3-7.7
				c-20.4-16.2-37.4-35.7-53.9-55.8c-16.2-19.6-32.3-39.1-51-56.7c-16.7-15.9-35.7-28.3-57-37.4c-4-1.7-6.8-0.9-9.1,2.6
				c-16.7-6.2-34.3-8.5-51.3-13c-3.1-0.9-7.1-1.7-7.7-5.1c-0.6-3.4,3.1-4.8,5.1-6.5c3.4-2.6,7.1-4.8,11.1-6.8
				c12.2-7.1,18.1-17.6,17.9-31.8c0-1.1,0.3-2.3,0.3-3.4c0.9,0.6,1.7,0.6,2.3,1.4c1.7,2.6,8.5,2.8,4,8.5c-0.3,0.3,0,1.1,0.3,1.7
				c1.7,4.5,2.3,9.1,3.7,13.6c0.9,2.8,1.7,6.2,5.4,5.7c4.8-0.9,7.9-5.7,6.8-9.9c-0.3-1.4-1.7-2.3-1.1-4.5c3.7,2.6,7.4,4.8,10.5,7.7
				c2.6,2.3,6.5,2.8,6,9.1c-0.6,6.5,1.7,13.9,2,21c0,2.6,0.3,6.2,4.3,7.4c6.2,1.7,12.8,3.1,19.3,4.8c3.1,0.9,6.2,1.7,10.2,2.3
				c-10.5-12.2-18.1-25.5-30.3-35.2c25.8,19,49.9,40,74,62.1c-2.8,0.6-4-1.1-4.8-1.7c-7.1-5.7-13.6-11.9-21.3-16.7
				c-10.2-6.5-14.2-7.4-21.3-1.1c-2,1.7-1.7,2.8,0.3,4.5c7.4,5.1,14.2,10.8,20.7,16.7c1.4,1.1,2.6,2,4.3,2.6
				c9.1,2.8,18.1,6,27.8,8.2c2.8,0.6,4.8,1.1,4.3-4c18.1,15.6,36,28.6,54.1,42.2c-4.8-0.6-9.6-1.4-14.5-2.3
				c-4.8-1.1-9.6-1.7-14.5-2.8c-4.5-1.1-8.2-4.3-13.6-2.8c7.1,3.7,11.1,11.1,17.9,14.7c1.7,1.1,4.3,1.7,6,2.8c2,1.1,4.5,3.1,3.7,5.1
				c-0.9,2.3-3.4,0.9-5.4,0.9c-3.7-0.6-7.1-0.9-11.3,0.9c7.1,7.7,13.6,14.7,20.1,21.8c1.1,1.1,2,1.7,3.4,1.4
				c2.6-1.1,5.4-1.1,7.9-2.8c4.8-3.7,9.4-6.5,15.9-7.4c8.2-1.4,11.1-2.6,11.1-11.6c1.7,0,2.3,0.9,3.7,1.4c6,3.1,11.6,6.8,18.1,9.1
				c5.7,2,5.7,4.8,4,9.9c-1.1,3.1-3.1,5.7-6,7.7c-8.5,5.4-17,11.3-25.5,16.7c-1.1,0.6-2.3,1.1-2.3,2.3c-0.3,4.3,2.8,6.2,6,7.9
				c2.6,1.7,5.1,2,7.4-1.1c5.7-8.8,13.6-15.3,22.4-21c5.4-3.4,9.9-8.2,9.1-16.2C619.8,276.2,624.1,275.1,627.5,270.5z"/>
			<path class="st17" d="M627.5,270.5c-3.4,4.8-7.9,5.7-13.3,3.4c0.6,7.9-3.7,12.8-9.1,16.2c-8.8,5.4-16.7,11.9-22.4,21
				c-2,3.1-4.8,2.6-7.4,1.1c-3.1-1.7-6.2-3.7-6-7.9c0-1.4,1.7-1.7,2.3-2.3c8.5-5.4,17-11.3,25.5-16.7c2.8-1.7,4.8-4.5,6-7.7
				c1.7-4.8,1.7-7.9-4-9.9c-6.2-2.3-11.9-6-18.1-9.1c-1.1-0.6-2-1.7-3.7-1.4c0,8.8-2.8,10.2-11.1,11.6c-6.5,1.1-11.3,3.7-15.9,7.4
				c-2.3,1.7-5.1,1.7-7.9,2.8c-1.4,0.6-2.6-0.3-3.4-1.4c-6.5-7.1-13-14.5-20.1-21.8c4-1.7,7.7-1.4,11.3-0.9c1.7,0.3,4.8,1.7,5.4-0.9
				c0.6-2-1.7-4.3-3.7-5.1c-2-1.1-4.3-1.7-6-2.8c-6.8-4-10.8-11.1-17.9-14.7c4.8-1.4,9.1,1.7,13.6,2.8c4.8,1.1,9.4,1.7,14.5,2.8
				c4.8,1.1,9.4,1.7,14.5,2.3c-18.1-13.6-36.3-26.9-54.1-42.2c0.9,4.8-1.4,4.8-4.3,4c-9.4-2-18.4-4.8-27.8-8.2
				c-1.7-0.6-2.8-1.7-4.3-2.6c-6.8-5.7-13.6-11.6-20.7-16.7c-2-1.7-2.3-2.6-0.3-4.5c7.1-6,11.1-5.4,21.3,1.1
				c7.7,4.8,14.2,11.3,21.3,16.7c1.1,0.9,2,2,4.8,1.7c-24.4-22.1-48.2-43.1-74-62.1c11.9,9.6,19.8,23,30.3,35.2
				c-4-0.9-7.1-1.7-10.2-2.3c-6.5-1.7-12.8-3.1-19.3-4.8c-3.7-1.1-4-4.8-4.3-7.4c-0.3-7.1-2.6-14.5-2-21c0.6-6.2-3.4-6.8-6-9.1
				c-3.1-2.8-6.8-4.8-10.5-7.7c-0.6,1.7,0.9,3.1,1.1,4.5c1.1,4-2,9.1-6.8,9.9c-4,0.6-4.8-2.8-5.4-5.7c-1.1-4.8-1.7-9.4-3.7-13.6
				c-0.3-0.6-0.6-1.4-0.3-1.7c4.8-5.7-2.3-6-4-8.5c-0.6-0.6-1.7-0.9-2.3-1.4c-0.3-0.9,0-1.7,0.9-1.7c6,0.3,10.5-4.5,16.2-4.5
				c-0.3,0.6-0.6,1.4-1.1,1.7c-4.3,4.8-3.1,8.2,3.1,10.5c4.3,6.5,11.1,10.2,16.7,14.7c33.2,24.7,64.1,52.2,95.5,78.8
				c26.1,21.8,53.3,42.2,83.3,59c11.9,6.5,24.1,13.6,37.4,17C623.2,269.7,625.5,270,627.5,270.5z"/>
			<path class="st14" d="M517.2,282.1c-7.9-4.8-15.6-9.9-23.5-15c-30.6-20.4-60.7-41.1-89.9-63.2c-9.6-7.4-19-14.7-28.6-22.1
				c-2.3-1.7-2.6-3.1-1.1-5.4c1.7-2,2.6-4.8,4-7.1c3.7-6.8,4-6.8,11.6-4c23,8.5,43.4,21.5,60.9,38.3c17.3,15.9,31.8,34.3,46.5,52.2
				c6.5,8.2,13,15.9,19.8,24.1c0.3,0.6,0.6,1.1,0.9,1.4C517.8,281.6,517.5,281.9,517.2,282.1z"/>
			<path class="st20" d="M536.8,133c-6,10.5-12.8,21-19.6,30.9c-4.5,6.5-9.1,13-13,19.8c-1.7,3.1-3.1,2.6-5.4,0.9
				c-8.8-7.7-17.9-15-26.6-22.7c-2.8-2.6-5.7-5.1-8.5-7.7c-2.6-1.7-2.3-3.7-0.6-6c10.5-14.5,19.6-29.2,28.3-44.5
				c3.7,4.8,4.3,9.1,0,14.2c-1.1,1.4-1.7,2.8-2.8,4.5c-2,2-2.8,4.8-4.8,7.7c4.3-1.1,4.8-4.8,7.1-6.8c1.7-2.3,3.1-4.5,4.8-6.8
				c1.4-2,2.6-1.7,4.3-0.3c5.1,5.4,11.6,9.1,18.1,12.5c2.6,1.4,2.8,2.3,1.7,4.8c-3.1,4.8-6.2,9.6-9.1,14.7c-1.7,3.1-4,6.8-2.3,11.6
				c4.3-6.5,8.5-12.2,11.9-18.1c3.4-6.2,7.7-10.5,15.3-8.2C535.9,133,536.2,133,536.8,133z"/>
			<path class="st17" d="M393.9,160.5c2.3-3.4,5.4-4.3,9.1-2.6c21.3,8.8,40.3,21.3,57,37.4c18.4,17.6,34.6,37.1,51,56.7
				c16.4,20.1,33.5,39.7,53.9,55.8c3.7,2.8,7.1,5.7,11.3,7.7c1.7,0.9,2.6,2,2,4.3s-0.9,4.8-1.1,7.1c-12.8-7.4-23.5-17-34.3-27.2
				c-19.8-19-36.6-40.8-54.1-62.1c-18.1-21.8-36.9-42.5-60.7-58.1C417.7,171.6,406.1,165.9,393.9,160.5z"/>
			<path class="st0" d="M437.3,97c2.6-4.5,4.8-8.8,7.9-12.8c1.7-2.6,1.4-4.3-1.4-5.7c-2-1.1-2.6,1.1-3.1,2
				c-2.6,3.4-4.8,7.1-7.7,10.8c-2.3-1.4-0.3-2.3,0.3-3.4c2-6,8.2-10.2,7.1-17.6c0.3,0,0.6,0,0.9,0c10.8,10.2,23,18.1,36,24.7
				c2.8,1.4,5.1,3.4,8.2,3.7c1.1,0,1.7,0.9,1.7,1.7c0,1.4-1.4,1.7-2.3,1.4c-0.3,0-0.3,0-0.6,0c-6.2-2.6-8.8,1.7-11.6,6
				c-3.7,6.2-7.9,12.2-11.6,18.1c-1.1,1.7-2.3,2.8-4,4.3c-0.3-4.5,1.7-8.2,4-11.6c2.8-5.1,6-10.5,9.1-15.6c1.7-2.6,2-4.5-1.7-6
				c-6-2.8-11.9-6.5-17-11.3c-2.3-2-3.4-1.7-4.8,0.9c-2.3,3.4-4.8,6.5-7.4,9.9C438.7,97,437.8,97,437.3,97z"/>
			<path class="st0" d="M555.2,186.3c3.1-7.9,8.5-14.5,12.8-21.3c1.7-2.6,1.7-3.7-1.4-4.8c-6.8-3.1-13-7.4-18.4-12.5
				c-2-2-3.7-2.3-4.8,0.9c-1.4,3.7-4.8,5.7-6.5,9.1c-0.9,0-1.7,0-2.6,0.3c2.3-4,4.8-8.2,7.4-11.9c1.7-2.8,0.9-5.1-0.6-7.9
				c-0.6-0.9-1.4-2-0.3-2.8c1.1-0.9,2,0,3.1,1.1c8.5,8.8,18.7,15,29.5,21c4.5,2.3,9.1,4,13.9,6c-0.9,0.6-1.7,1.1-2.6,1.7
				c-2.3-0.3-4.8-0.3-7.1-0.6c-1.7-0.3-2.8,0.9-4,2c-6.2,8.5-11.6,17.9-17.3,26.6C553.8,190.9,556.6,188.3,555.2,186.3z"/>
			<path class="st0" d="M536.8,133c-0.6,0-0.9-0.3-1.4-0.3c-7.9-2-11.9,2-15.3,8.2c-3.4,6.2-7.7,11.6-11.9,18.1
				c-1.7-4.8,0.6-8.2,2.3-11.6c2.6-4.8,6-9.9,9.1-14.7c1.7-2.3,1.1-3.4-1.7-4.8c-6.5-3.4-13-7.1-18.1-12.5c-1.7-1.7-2.8-1.7-4.3,0.3
				c-1.7,2.3-3.1,4.8-4.8,6.8c-0.9-0.3-1.7-0.6-2.3-0.9c1.1-1.7,1.7-3.1,2.8-4.5c4.3-4.8,3.7-9.4,0-14.2c-0.3-0.6-0.3-1.4-0.6-1.7
				c0.3-0.3,0.3-0.6,0.3-0.9l0,0c5.1,4.3,10.2,8.8,15.6,12.8c9.4,7.1,19.6,13,31.2,16.7c0.9,0.3,1.7,0.9,2.3,1.4
				C538.5,131.9,537.9,132.7,536.8,133z"/>
			<path class="st20" d="M440.1,70.7c1.4,7.4-4.8,11.6-7.1,17.6c-0.6,1.1-2.6,2-0.3,3.4c-4.3,7.9-10.5,14.7-14.7,22.1
				c-1.1,1.7-2,2.6-4.3,1.1c-1.7-1.7-3.7-2.3-2-5.1c4-6.2,7.7-12.8,11.6-19.3c3.4-5.4,6.8-10.8,10.5-15.6
				C435.6,72.4,437,69.8,440.1,70.7z"/>
			<path class="st19" d="M387.9,99.9c-6.2-2-7.4-5.7-3.1-10.5c0.6-0.6,0.9-1.4,1.1-1.7c8.2-0.3,15.3,1.7,21.5,6.5
				c0.9,0.6,1.7,0.9,2.8,1.4c0.6,0.3,1.1,0.6,1.4,1.1c0.6,1.4-5.4,7.4-6.8,7.4c-4.8,0-8.2-3.1-11.6-6.2c-1.4-1.1-2-2.6-4.3-1.7
				C386.8,96.5,388.5,98.2,387.9,99.9z"/>
			<path class="st14" d="M636.5,186c-3.7,1.1-6.8,0-9.6-2c-7.9-4.8-15.3-10.2-23-15.3c-1.7-1.4-4.3-2.6-0.9-4.8
				C614.7,170.7,626.3,177.3,636.5,186z"/>
			<path class="st19" d="M461.1,393.3c4.3,1.7,7.9,4.3,11.6,6.8c-4.8,7.1-9.6,13.9-14.7,21c-1.7,2-3.1,3.4-5.7,3.1
				c-5.7-0.6-7.9-4.8-4.8-9.6C452,407.4,456.5,400.4,461.1,393.3z"/>
			<path class="st0" d="M603.4,218.4c4.3-7.1,8.2-14.2,12.5-21c2.3-3.4,2.3-5.4-1.7-7.1c-7.1-2.8-13.3-7.4-18.7-12.5
				c-1.7-1.7-2.6-0.9-4,0.9c-4.8,5.1-7.4,11.6-13.3,16.4c2.3-5.7,5.7-10.2,8.5-14.7c2.3-4,4.8-7.4,2.3-11.9c-0.6-0.9-0.9-2,0.9-2.6
				c1.1-0.6,1.7,0.6,2,1.1c12.2,12.2,27.2,21,43.7,27.2c-1.7,1.7-4.3,1.7-5.7,1.1c-5.1-1.7-7.9,1.7-9.9,5.1c-4.8,7.7-9.4,15-14.2,23
				C603.1,222.3,605.4,218.9,603.4,218.4z"/>
			<path class="st13" d="M629.5,205.3c-2.6,9.4-8.2,17-15,23.5C618.4,220.6,623.2,212.7,629.5,205.3z"/>
			<path class="st14" d="M603.4,218.4c2,1.1-0.3,4.3,2.6,4.8c-0.6,0.9-0.9,1.7-1.7,2c-1.1,1.1-0.6,4.3-3.1,3.4
				c-1.7-0.9-0.9-3.1-0.9-4.8C600.3,221.2,602,219.8,603.4,218.4z"/>
			<path class="st14" d="M555.2,186.3c1.7,1.7-1.4,4.5,1.4,6c-0.9,1.7-1.7,4.5-3.1,4c-2.3-1.1-1.1-4-0.6-5.7
				C553.5,188.9,553.5,187.2,555.2,186.3z"/>
			<path class="st14" d="M534.5,157.7c0.9,0,1.7,0,2.6-0.3c-1.4,3.1-4.3,4.8-6.5,7.4C531.7,162.5,531.7,159.4,534.5,157.7z"/>
			<path class="st14" d="M437.3,97c0.9,0,1.7-0.3,2-0.3c-1.1,3.7-4.5,5.7-6.5,8.5C433.3,102.4,434.7,99.3,437.3,97z"/>
			<path class="st0" d="M491.1,101.6C491.1,101.6,491.1,101.3,491.1,101.6C490.8,101.3,491.1,101.3,491.1,101.6L491.1,101.6z"/>
			<path class="st14" d="M488.6,122.5c0.9,0.3,1.7,0.6,2.3,0.9c-2,2-2.8,5.7-7.1,6.8C485.7,127.4,486.3,124.5,488.6,122.5z"/>
		</g>
	</g>
	<polyline class="st13" points="558.5,344.7 538.3,377.4 529.7,363.7 545.3,340.4 	"/>
	<g>
		<g>
			<path class="st12" d="M45.5,261.4c1.1,3.4,2,6.8,3.4,10.2c-4.5,2.6-5.1,4.8-4,9.6c0.3,0.9,0.6,1.7,0.9,2.3
				c8.8,22.1,17,44.5,26.4,66.6c15,35.2,31.5,69.7,49.6,103.5c12.8,24.4,26.6,47.6,42.8,70c1.1,1.7,1.4,2.8,1.4,4.8
				c0,11.3-0.3,22.4,2,33.5c1.4,6.5,5.1,10.8,11.6,11.9c10.8,2.3,19-2,24.7-10.8c7.1-11.1,15.6-13.6,27.8-9.9
				c17.3,4.8,30.3-1.4,38.3-17.3c1.4-2.6,3.1-5.1,4.8-7.9c3.4-5.1,8.2-7.7,14.2-7.4c4.5,0,8.5,1.1,13,1.4c18.4,2,32.9-4.8,42.8-20.4
				c2-3.1,4-6.2,6.2-9.1c3.4-4.8,8.2-6.8,13.9-6.8c4.8,0,9.1,1.4,13.9,1.7c15.9,1.7,28.6-3.4,37.7-16.7c2-3.1,3.7-6.5,5.4-9.9
				c3.7-6.2,9.4-9.4,16.7-9.4c3.1,0,6.2,0.3,9.4,0.3c8.2,0.3,14.7-2.3,20.1-8.2c5.7-6.5,6.2-13.9,0.9-20.7
				c-7.1-8.8-15.6-16.2-24.7-23.2c-1.1-0.9-2.3-1.7-2.6-3.4c-4.5-23-12.8-44.5-20.7-66.6c-7.4-20.1-15.6-39.7-24.1-59.2
				c-21.3-49-45.1-96.7-72-142.9c-7.1-12.2-14.7-24.7-24.1-35.2c-0.9-0.9-1.1-1.7-1.1-2.8c0-7.9-1.7-15.6-3.4-23.5
				c-1.1-4.8-2.3-9.9-5.7-13.9c-8.2-9.1-23.5-7.7-30.6,3.1c-1.7,2.6-3.4,5.4-5.1,8.2c-4,5.7-9.4,7.9-16.2,6c-4-1.1-7.9-2.6-11.6-4
				c-13.6-3.4-27.5,2.3-34.6,15.3c-2,4-3.7,8.2-5.7,12.2c-4.3,8.5-11.1,11.6-20.1,9.4c-4.8-1.1-9.4-2.8-14.2-3.7
				c-13.6-2.6-26.1,3.1-33.2,15.3c-2,4-3.7,7.9-5.7,11.6c-4.8,9.9-11.6,13-22.1,9.9c-3.4-1.1-6.8-2.3-10.2-3.1
				c-15.3-3.7-28.1,2.8-34.3,17.6c-1.1,2.8-2,5.7-3.1,8.5c-2.8,6.8-7.4,9.4-14.7,8.5c-2.8-0.3-5.4-1.1-8.2-1.7
				c-7.9-1.4-13.9,1.7-18.1,7.9c-4.5,6.2-4.8,12.8-0.6,19c5.7,8.5,12.2,16.4,20.1,23c1.7,1.4,2.3,2.8,2.8,4.8
				c2,12.2,6,23.8,9.9,35.4C38.4,261.7,40.4,262.9,45.5,261.4z"/>
			<path class="st13" d="M470.4,424.7c-7.1-8.8-15.9-16.2-24.7-23.2c-0.9-1.1-2.3-1.7-2.6-3.4c-4.8-23-12.8-44.8-20.7-66.6
				c-7.4-20.1-15.9-39.7-24.1-59.2c-21-49.3-45.1-96.7-72-142.9c-7.1-12.2-14.5-24.4-24.1-35.2c-0.9-0.9-1.1-1.7-1.1-2.8
				c-0.3-8.2-1.7-15.6-3.4-23.5c-1.1-5.1-2.3-9.9-5.7-13.9c-8.2-9.1-23.5-7.7-30.6,3.1c-1.7,2.8-3.4,5.7-5.1,8.2
				c-4,5.7-9.4,7.7-16.2,6c-3.7-1.1-7.7-2.8-11.6-4c-14.2-4-27.8,1.7-34.9,14.7c-2,4-3.7,8.2-5.7,12.2c-4.3,8.2-10.8,11.3-20.1,9.4
				c-4.8-1.1-9.4-2.8-14.2-3.7c-13.9-2.8-26.4,3.4-33.2,15.3c-2.3,3.4-4,7.7-5.7,11.6c-4.5,9.9-11.6,13-22.1,9.9
				c-3.4-1.1-6.8-2.3-10.2-3.1c-15.6-3.7-28.3,2.8-34.3,17.6c-1.1,2.8-1.7,5.7-3.1,8.5c-3.1,6.8-7.4,9.4-14.7,8.5
				c-2.8-0.6-5.4-1.1-8.2-1.7c-7.4-0.9-13.6,1.7-18.1,7.9c-4.5,6.2-4.8,12.8-0.6,19c5.7,8.2,12.2,16.2,20.1,23
				c1.4,1.4,2.6,2.8,2.8,4.8c2,12.2,6,23.8,9.9,35.4c1.4,5.1,4,6.2,9.1,4.8c3.4-2.3,4-5.4,3.7-7.4c-3.7-10.5-6.5-21-9.1-31.8
				c-0.3-1.4-0.3-2.6,1.1-3.4c7.7-5.1,14.7-10.5,23-14.7c12.8-8.5,26.4-15.9,39.7-23.2c26.4-14.7,53.3-27.5,81.1-39.4
				c25.5-11.1,51.3-21.3,78.2-29.5c1.4-0.3,2.8-0.9,4.3-1.1c8.2-3.4,17-5.7,25.5-7.4c1.7-0.3,2.3,0.9,3.4,2
				c6.5,7.7,11.9,16.4,17,24.9c12.5,21,23.5,42.5,34.9,64.1c10.8,20.7,21,41.1,30.3,62.4c7.7,17.6,15,34.9,22.4,52.7
				c7.9,19.8,15.6,40.3,22.1,60.7c3.4,9.6,6,19.3,8.2,29.2c0.3,2.3,0,3.4-1.7,4.8c-14.2,11.1-29.5,21-44.8,30.6
				c-32.9,20.4-68,36.6-103.2,51.6c-32.6,13.9-66.3,24.9-100.9,32c-2.6,0.9-4.3,0.3-6-2c-8.2-11.6-15.9-23.5-23.2-35.7
				c-9.9-16.7-19-34-27.8-51.6c-11.1-21.8-21.8-43.7-31.5-66.1c-8.2-18.1-15.6-36.9-23-55.3c-4-9.9-8.2-19.6-11.1-29.8
				c-0.9-3.4-4-5.1-8.2-4.5c-4.5,2.6-5.7,4.8-4,9.6c0.3,0.6,0.6,1.4,0.9,2.3c8.8,22.4,17,44.8,26.4,66.6
				c15,35.2,31.5,69.7,49.6,103.5c12.8,24.4,26.6,47.9,42.8,70c1.1,1.7,1.4,3.1,1.4,4.8c0,11.3-0.3,22.4,2,33.5
				c1.1,6.2,5.1,10.5,11.6,11.9c10.5,2.3,19.3-2.3,24.7-10.8c6.8-11.1,15.6-13.6,27.8-9.9c17,4.8,30-1.4,38.3-17.3
				c1.7-2.8,3.1-5.4,4.8-7.9c3.1-5.1,8.2-7.4,14.2-7.4c4.5,0,8.5,0.9,13,1.4c18.4,2,32.9-4.8,42.8-20.4c2-3.1,4.3-6.2,6.2-9.1
				c3.4-4.8,8.2-6.8,13.9-6.8c4.8,0,9.1,1.1,13.9,1.7c15.6,1.4,28.6-3.4,37.7-16.7c2-3.1,3.7-6.8,5.4-9.9c4-6.2,9.4-9.1,16.7-9.4
				c3.1-0.3,6.2,0.3,9.4,0.3c8.2,0.3,15-2.3,20.1-8.2C475.2,438.9,475.8,431.5,470.4,424.7z"/>
			<path class="st5" d="M199,505.8c-7.4,0-13.8-2-19.6-6l-0.1-0.1c-2.5-1.9-4.6-4-6.7-6.1c-0.1-0.1-0.1-0.1-0.2-0.1
				c-2.2-2-2.2-4.2-1.7-5.7c0.6-2.3,2.6-3.8,5-3.8c0.2,0,0.4,0,0.6,0c-6.2-3.1-11.5-7.6-16.5-12.1l-0.1-0.1
				c-9.8-9.2-16.7-20.1-22-29.6c-6.8-11.4-12.9-23.2-18.8-34.7c-1.3-2.6-2.6-5.1-4-7.7c-8.6-16.7-16.4-34.1-23.8-50.9l-2.1-4.6
				c-4.9-11.1-9.5-22.7-13.9-33.8c-4.1-10.2-8-20.6-11.7-30.7c-1.2-3.2-2.4-6.4-3.6-9.7c-0.6-1.6-0.8-3-0.6-4.2l-0.2,0
				c-3.1-0.5-4.3-2.3-4.7-3.3c-0.7-1.6-0.5-3.4,0.5-5c1.5-2.4,0.8-4.9-0.5-8.9c-0.3-0.9-0.6-1.8-0.9-2.8l0-0.1
				c-2.8-11.4-5-21.7-2.3-32.9c1.1-4.7,3.1-8.2,6.4-11.2l0.1-0.1c0,0,0.6-0.4,0.6-0.5l-0.3-1.6l2.2-1.5c12.6-8.6,26.6-16.2,40-23.5
				c22.9-12.8,48.6-25.3,80.8-39.3c26.2-11.6,52.7-21.6,78.7-29.6l0.6-0.2h0.6c2.3,0,3.1-0.3,3.8-0.6l2.5-1l1.6,1.6
				c0.2,0,0.4-0.1,0.6-0.2c0.5-0.1,1-0.3,1.5-0.4l0.1,0l0.1,0c1.1-0.1,2.2-0.2,3.3-0.2c5.3,0,10.5,1.3,15.1,3.7
				c1.4,0.6,4.9,2.3,5.8,5.9c0.4,1.5,0.1,3-0.4,4.3c0.5-0.1,1-0.2,1.5-0.2c3.6,0,5.5,3,6.1,4c4.2,6.8,8.2,13.8,12,20.6
				c2.1,3.8,4.3,7.7,6.5,11.6c2.4,4,4.8,8.7,7,13.6l11.8,23.7c13.5,25.4,25.3,51.8,36.8,77.4l1.9,4.1c5.6,12.7,11.4,25.7,14.9,39.3
				c0.2,0.5,0.4,1,0.6,1.6c0.5,1.3,1.2,2.7,1.4,4.2c1.9,8.5,1.5,16.7-1.3,24.3c0.9-1.1,2.5-2.4,4.9-2.4h0.5l0.5,0.1
				c3,0.8,4,3.4,4.4,4.4l0.1,0.1l0.1,0.3l0.1,0.4c3.4,12.2,6.6,28.4,2,45.6c-3.1,11.4-9.3,21.8-19.2,31.6
				c-11.4,11.4-24.2,19.9-35.3,26.9c-19.2,12.2-39.9,21.8-59.5,30.4c-14.3,6-29.4,11.2-46.2,15.8c-13.3,3.7-25.3,6.9-37.6,8.6
				C205.4,505.5,202.1,505.8,199,505.8z M173.6,203c-23.7,13.4-40.9,31-52.7,53.8c-18,34.6-18.1,68.6-0.3,101.3
				c13,23.5,32.6,40.2,58.4,49.7c15.5,5.6,30.9,8.5,45.8,8.5c0,0,0,0,0,0c22.8,0,45.4-6.6,67.1-19.8c24.2-14.5,41.8-35,52.1-60.9
				c13.2-33.6,11.8-64.4-4.3-94c-12-22.4-30.6-38.4-55.4-47.7c-14.9-5.6-30.1-8.5-45.1-8.5c-18.2,0-36.7,4.2-55.2,12.4
				c-2.3,1.1-4.8,2.3-7.1,3.5C175.8,201.9,174.7,202.5,173.6,203z"/>
			<path class="st5" d="M266.3,108.9c1.7,1.7,3.7,0.6,5.4,0.3c5.7-0.6,11.3,0.6,16.2,3.1c4.5,2,4.5,4.3,1.4,7.9
				c-1.7,1.7-4,2.3-6.5,4.3c4.5,0.9,8.2,0.9,11.9-1.1c2-1.1,3.1-0.9,4.5,1.4c6.5,10.5,12.2,21.3,18.4,32c2.6,4.3,4.8,8.8,6.8,13.3
				c4,7.9,7.9,15.9,11.9,23.8c14.2,26.6,26.4,54.1,38.6,81.4c5.7,12.8,11.3,25.5,14.7,38.8c0.6,1.7,1.7,3.7,2,5.4
				c3.4,14.7-1.1,27.5-11.6,38c-0.6,0.6-1.1,1.1-1.7,1.7c3.1,0.6,4.8-1.4,7.1-2.3c4.5-2.8,8.2-6,11.6-10.5c0.6-0.9,1.1-1.7,2.3-1.7
				c1.1,0.3,1.4,1.7,1.7,2.3c4,14.5,6,28.6,2,43.4c-3.1,11.6-9.6,21.3-18.1,29.8c-10.5,10.5-22.1,18.4-34.6,26.4
				c-18.7,11.9-38.8,21.3-59,30c-14.7,6.2-30,11.3-45.6,15.6c-12.2,3.4-24.7,6.8-37.1,8.5c-9.1,1.7-18.1,1.7-26.6-4.3
				c-2.3-1.7-4.3-3.7-6.2-5.7c-0.6-0.6-1.1-0.9-0.9-1.7c0.3-1.1,1.4-0.9,1.7-0.6c3.4,0.3,6.8-0.3,10.2-1.1c2-0.6,4-1.1,5.1-3.1
				c-12.2-0.9-21-7.9-29.2-15.3c-8.8-8.2-15.3-18.1-21.3-28.6c-8.2-13.9-15.3-28.1-22.7-42.2c-9.4-18.1-17.6-36.9-25.8-55.3
				c-4.8-11.1-9.4-22.4-13.9-33.7c-5.4-13.3-10.2-26.6-15.3-40.3c-0.6-1.4-0.6-2.6,0.6-3.7c1.7-1.7,0.6-2.6-1.4-2.6
				c-1.1-0.3-2-0.6-3.1-0.6c-1.7-0.3-2-1.1-1.4-2c3.1-5.1,0.6-9.9-0.9-15c-2.6-10.2-4.8-20.4-2.3-30.9c0.9-3.7,2.3-6.5,5.1-9.1
				c1.1-0.9,2.6-1.7,2.3-3.4c12.5-8.5,26.1-15.9,39.7-23.2c25.8-14.5,53-27.2,80.5-39.1c25.5-11.3,51.6-21.3,78.2-29.5
				C263.5,109.8,264.9,109.5,266.3,108.9z M182.4,194c-3.7,1.7-7.4,3.7-10.8,5.4c-23.5,13.3-42,31.5-54.4,55.6
				c-18.1,34.9-19.3,70.3-0.3,105.2c13.6,24.7,34.3,42,60.7,51.6c40.5,14.7,79.4,10.8,116.5-11.6c24.7-14.7,43.1-36,53.9-62.9
				c13-33.2,12.8-65.8-4.5-97.5c-12.8-23.8-32.6-40.3-57.5-49.6C250.7,176.7,216.1,179,182.4,194z"/>
			<path class="st14" d="M266.3,108.9c8.2-3.4,17-5.4,25.5-7.4c1.7-0.6,2.6,0.9,3.4,2c6.2,7.9,11.6,16.4,17,24.9
				c12.8,21,24.1,42.2,34.9,64.1c10.8,20.7,21.3,41.1,30.3,62.4c7.7,17.6,15,34.9,22.4,52.7c8.2,19.8,15.6,40.3,22.1,60.7
				c3.1,9.6,5.7,19.3,8.2,29.2c0.6,2.3,0,3.7-1.7,4.8c-14.5,11.1-29.5,21-44.8,30.6c-32.6,20.7-67.5,36.6-103.2,51.6
				c-32.6,13.9-66.1,24.9-100.9,32c-2.6,0.6-4.5,0.3-6-2c-8.2-11.6-15.9-23.5-23.2-35.7c-9.9-17-19-34.3-27.8-51.6
				c-11.3-21.5-21.5-43.7-31.5-66.1c-7.9-18.1-15.6-36.9-23-55.3c-4-9.9-8.2-19.6-11.1-29.8c-1.1-3.4-4.3-5.1-8.2-4.5
				c-1.1-3.4-2-6.8-3.4-10.2c3.4-2.3,4-5.4,2.6-9.4c-3.4-10.5-6.5-21.3-9.1-31.8c-0.3-1.7-0.3-2.6,1.1-3.4
				c7.7-5.1,14.7-10.5,23-14.7c0.3,1.7-1.4,2.3-2.3,3.4c-2.6,2.3-4.3,5.4-5.1,9.1c-2.6,10.8-0.3,20.7,2.3,30.9
				c1.4,4.8,4.3,9.6,0.9,15c-0.9,1.4-0.3,2,1.4,2c1.1,0,2,0.6,3.1,0.6c1.7,0.3,2.8,0.9,1.4,2.6c-0.9,1.1-1.1,2.3-0.6,3.7
				c5.1,13.3,9.9,26.9,15.3,40.3c4.8,11.3,8.8,22.7,13.9,33.7c8.2,18.4,16.4,37.1,25.8,55.3c7.4,14.2,14.7,28.3,22.7,42.2
				c6,10.5,12.2,20.7,21.3,28.6c8.2,7.7,17,14.7,29.2,15.3c-1.4,2-3.1,2.8-5.1,3.1c-3.4,0.9-6.5,1.4-10.2,1.1
				c-0.6,0-1.7-0.3-1.7,0.6c-0.3,0.9,0.3,1.1,0.9,1.7c1.7,2,4,4,6.2,5.7c8.2,6,17.3,5.4,26.6,4.3c12.5-2,24.7-5.1,37.1-8.5
				c15.3-4.5,30.9-9.4,45.6-15.6c20.4-8.5,40.5-18.1,59-30c12.2-7.9,24.4-15.9,34.6-26.4c8.5-8.5,14.7-18.1,18.1-29.8
				c4.3-14.7,1.7-28.9-2-43.4c-0.3-0.9-0.6-2-1.7-2.3c-1.1-0.3-1.7,0.9-2.3,1.7c-3.1,4.5-7.1,7.9-11.6,10.5c-2,1.4-4,2.8-7.1,2.3
				c0.9-0.9,1.4-1.4,1.7-1.7c10.5-10.8,14.7-23.2,11.6-38c-0.6-1.7-1.7-3.7-2-5.4c-4-13.6-9.4-26.4-14.7-38.8
				c-12.2-27.5-24.7-54.7-38.6-81.4c-4.3-7.9-8.2-15.9-11.9-23.8c-2.3-4.5-4.5-8.8-6.8-13.3c-6.2-10.8-11.9-21.5-18.4-32
				c-1.4-2-2.3-2.6-4.5-1.4c-3.7,1.7-7.7,1.7-11.9,1.1c2.6-1.7,4.8-2.3,6.5-4.3c3.4-3.7,3.1-5.4-1.4-7.9c-5.1-2.6-10.5-3.7-16.2-3.1
				C270,109.5,268.3,110.3,266.3,108.9z"/>
			<path class="st12" d="M176.4,116.3c12.5-2.6,21-10.5,25.2-22.1c1.4-3.1,2.3-6.2,4.5-9.1c4.5-6,10.5-8.2,17.6-6.2
				c2.8,0.9,5.4,1.7,8.2,2.8c15,5.1,28.1,0.6,36.9-12.8c2-3.1,3.1-7.7,7.9-8.5c2.8,5.4,2.8,11.1,2.6,17c-0.3,4.8-2.8,8.2-6.2,11.6
				c-6.2,6-14.7,7.4-22.4,10.5c-3.7,1.7-7.7,2.3-10.5,5.1c-11.3,4.5-22.7,8.5-34,13.3c-26.9,10.5-53,22.4-78.5,35.2
				c-11.1,5.4-21.5,11.1-32.3,16.7c-4.5,2.6-9.4,4.8-13.9,7.7c-2-1.1-3.7-0.6-4,2c-0.6,0.3-0.9,0.6-1.4,0.9
				c-1.4-0.9-2.3,0.3-3.4,0.9c-6.2,3.1-12.2,6.2-18.1,9.6c-3.1,1.7-6.5,3.4-9.9,4.5c-11.6,3.4-21.3-4-28.6-14.7
				c2-1.7,4.8-1.1,7.1-0.6c6.2,1.4,12.5,2,18.4,0c8.2-3.1,13.9-8.8,16.7-17.3c1.1-2.6,1.7-4.8,2.6-7.7c3.1-7.9,9.4-11.3,17.6-9.1
				c4.3,1.1,8.2,2.6,12.5,3.7c9.4,2.3,18.1,0.9,25.8-5.1c0.9-0.6,1.7-1.1,2.6-1.7c0.9,0.9,1.7,0.6,2.3-0.3
				c5.1-4.8,8.5-10.8,10.8-17.3c0.6-1.4-0.6-1.7-1.4-2.3c4.3-9.6,12.8-13.3,22.7-10.2c2.3,4.8,17.6,7.4,21.5,5.1
				C175.9,117.2,176.4,116.6,176.4,116.3z"/>
			<path class="st12" d="M447.7,438.9c-0.6,0-1.1,0-1.7,0c-0.6-1.1-1.4-1.4-2.3-1.4c-15.9-1.4-28.3,6.2-36.6,21
				c-3.1,5.7-6,11.6-12.5,13.9c-5.1,2-10.5,0.9-15.9-0.3c-3.7-0.9-7.4-1.7-11.3-1.4c-10.2,0.6-18.7,5.1-26.4,11.6
				c-3.4,2.8-6.2,6.2-8.2,10.5c-2,4.8-6,8.2-8.2,12.5c-1.7,1.4-4,2-6,2.6c-0.6-0.9-1.4-1.1-2.3-0.9c-5.4,0.6-10.8-0.6-15.9-1.7
				c-17-2.8-35.2,6-42.5,22.1c-4.8,10.8-11.3,14.5-23.8,9.9c-11.6-4.3-23.2-1.7-32.9,6.5c-4,3.4-6.5,7.9-9.9,11.6
				c-0.9,0.9-1.4,1.7-2.6,1.7c-1.4-0.6-1.7-1.7-1.7-2.8c-0.6-8.2,1.7-15.6,8.2-21.5c4.8-4.8,11.6-7.1,18.1-9.1
				c10.2-3.4,20.4-7.4,30.6-10.8c6.2-2,12.2-5.4,18.4-7.4c3.4-1.1,7.4-2,9.9-4.8c2.3-1.1,4.8-2,7.4-3.1c3.1,0.9,5.4-1.1,7.7-2.8
				c17.3-7.9,34.6-15.9,51.9-23.8c1.7,0.3,2.8,0,3.4-1.7c3.4-2.3,7.4-4,11.1-5.7c0.6,0,1.4,0.3,1.7,0c8.5-3.4,16.4-8.2,24.7-12.2
				c2.8-1.4,5.4-2.8,8.2-4.5c11.3-6.2,22.1-13.3,34-18.7c9.6-4.5,18.7-4.3,27.8,1.7c3.1,2,6,4.3,5.4,8.2c-1.4,0.3-2.3,0.9-3.7,0.6
				C449.7,438.1,448.9,437.2,447.7,438.9z"/>
			<path class="st15" d="M272,501c-2.6,2.8-6.2,4.3-9.9,4.8c-6.5,1.7-12.2,5.1-18.4,7.4c-10.2,3.4-20.1,7.7-30.6,10.8
				c-6.2,2-12.8,4.3-18.1,9.1c-6.2,6-8.5,13.3-8.2,21.5c0,1.4,0.3,2.6,1.7,2.8c1.4,0.6,2-0.9,2.6-1.7c3.1-4,5.7-8.2,9.9-11.6
				c9.9-8.2,21.3-10.8,32.9-6.5c12.8,4.5,19,0.6,23.8-9.9c7.4-16.2,25.5-24.9,42.5-22.1c5.1,0.9,10.5,2,15.9,1.7
				c0.9,0,1.7,0,2.3,0.9c-4.8,1.7-9.4,1.7-14.5,1.1c-3.7-0.6-7.4-1.1-11.1-1.4c-13.3-0.9-23.2,4.8-30.3,15.9
				c-1.7,3.1-3.4,6.2-5.1,9.1c-4.5,6.8-10.5,9.9-18.4,8.5c-3.1-0.6-6.5-1.4-9.6-2c-12.5-3.1-22.7,0.9-30.9,10.5
				c-2.6,3.1-4.8,6.5-7.7,9.1c-1.7,1.7-3.7,2.3-6,2.3c-2.6,0-4.5-0.9-4.8-3.7c-1.7-8.8-1.7-18.1-1.7-26.9c0-2,1.7-1.7,2.8-2
				c8.5-2,17.6-4.3,26.1-6.5c20.1-5.4,40-12.2,59.5-20.1C268.6,502.1,270,501,272,501z"/>
			<path class="st15" d="M454.8,438.6c0.3-4.3-2.6-6.2-5.4-8.2c-8.8-6-18.1-6.2-27.8-1.7c-11.6,5.4-22.7,12.5-34,18.7
				c-2.8,1.7-5.4,3.1-8.2,4.5c-8.2,4.3-15.9,8.8-24.7,12.2c-0.6,0.3-1.1,0-1.7,0c4.3-3.1,9.1-5.1,13.6-7.9
				c23.8-13.3,47.1-27.2,68.6-43.7c2.6-1.7,4.3-2,6.8,0.3c5.1,5.1,10.8,9.9,15.9,14.7C462.8,432.7,461.6,436.6,454.8,438.6z"/>
			<path class="st15" d="M239.9,103.8c2.8-2.8,6.8-3.7,10.5-5.1c7.7-3.4,16.2-4.5,22.4-10.5c3.4-3.1,6-6.5,6.2-11.6
				c0.6-6,0.6-11.6-2.6-17c4.3-0.9,6,0,7.4,3.7c2.6,8.2,3.4,16.4,4.5,24.7c0.3,1.4-0.3,1.7-1.4,2c-15.6,3.7-31.2,8.5-46.5,13.9
				C240.5,104.1,240.2,103.8,239.9,103.8z"/>
			<path class="st15" d="M15.7,179.8c7.7,10.5,17,18.1,28.6,14.7c3.4-1.1,6.8-2.6,9.9-4.5c6-3.4,11.9-6.8,18.1-9.6
				c1.1-0.6,2-1.4,3.4-0.9c-5.1,4-11.1,6.8-16.2,10.2c-8.2,5.4-16.7,11.1-24.9,16.4c-1.1,0.9-2,1.7-3.4,0.3
				c-5.7-6-11.6-11.9-16.2-19C13.2,184.6,12.9,182.1,15.7,179.8z"/>
			<path class="st15" d="M324.4,505.8c2.3-4.5,6.2-7.9,8.2-12.5c1.7-4.3,4.8-7.7,8.2-10.5c7.7-6.5,15.9-11.3,26.4-11.6
				c4-0.3,7.7,0.6,11.3,1.4c5.1,1.1,10.5,2,15.9,0.3c6.5-2.6,9.6-8.2,12.5-13.9c8.2-14.7,20.7-22.1,36.6-21c1.1,0,1.7,0.3,2.3,1.4
				c-3.7,0.3-7.7,0-11.3,0.6c-9.4,1.4-16.7,6.2-21.8,14.5c-1.7,2.3-3.1,4.8-4.5,7.7c-6.2,11.3-15.3,15.6-28.1,13.6
				c-5.7-1.1-11.6-2-17.6-1.4c-10.5,1.4-18.1,7.1-24.1,15.6c-2.3,3.4-4.3,6.8-6.5,9.9C330.4,501.8,327.5,504.4,324.4,505.8z"/>
			<path class="st15" d="M130.8,122.5c0.9,0.6,1.7,1.1,1.4,2.3c-2,6.8-5.4,12.5-10.8,17.3c-0.9,0.6-1.7,0.9-2.3,0.3
				c4.8-4.8,7.9-10.5,10.2-16.7C129.7,124.5,130,123.4,130.8,122.5z"/>
			<path class="st15" d="M176.4,116.3c0,0.9-0.6,1.1-1.1,1.4c-4.3,2-19.3-0.3-21.5-5.1C161.1,114.3,168.5,116.6,176.4,116.3z"/>
			<path class="st15" d="M286.7,495c-2,1.7-4.5,4-7.7,2.8C281.6,496.7,284.2,495.6,286.7,495z"/>
			<path class="st15" d="M77.2,178.7c0.3-2.6,1.7-2.8,4-2C80.1,177.5,78.6,178.4,77.2,178.7z"/>
			<path class="st15" d="M341.7,469.8c-0.6,1.7-1.7,2-3.4,1.7C339.5,470.7,340.9,470.1,341.7,469.8z"/>
			<path class="st15" d="M447.7,438.9c1.1-1.7,2-1.1,3.1,0C449.7,439.8,448.9,439.5,447.7,438.9z"/>
			<path class="st13" d="M182.4,194c34-14.7,68.3-17.3,103.5-4.3c24.9,9.4,44.5,25.8,57.5,49.6c17.3,31.8,17.6,64.4,4.5,97.5
				c-10.8,27.2-28.9,47.9-53.9,62.9c-36.9,22.1-76,26.4-116.5,11.6c-26.4-9.6-47.1-26.9-60.7-51.6c-19.3-34.9-17.9-70.3,0.3-105.2
				c12.2-24.1,31.2-42.2,54.4-55.6C175,197.7,178.7,195.7,182.4,194z M274.5,396.7c3.1-1.7,6-3.1,9.1-4.8c2.8-1.7,5.4-3.4,8.2-4.8
				c28.1-19.3,45.6-45.4,51-79.1c6.8-42-13.6-81.9-51-101.2c-33.5-17.3-67.5-16.4-101.5-2c-26.9,11.6-47.3,30.3-61.2,55.8
				c-23.5,42.8-12.8,95.5,26.6,124.5C192.3,412.3,232.6,413.7,274.5,396.7z"/>
			<path class="st12" d="M274.5,396.7c-41.7,17-82.2,15.3-119.3-11.9c-39.4-28.9-50.2-81.4-26.6-124.5
				c14.2-25.5,34.6-44.2,61.2-55.8c34-14.7,68-15,101.5,2c37.7,19.3,57.8,59.5,51,101.2c-5.4,33.7-23,60.1-51,79.1
				c-2.6,1.7-5.1,3.4-8.2,4.8C280.5,393.6,277.4,395.3,274.5,396.7z M316.5,252.9c-7.4-15.6-16.7-25.2-30-30.6
				c-13.6-5.1-26.9-4.8-39.1,3.7c-7.7,5.4-12.5,12.8-16.7,21c-3.4,6.8-6.8,13.9-10.2,20.7s-7.7,13.3-14.5,17.9
				c-8.2,5.1-17,6.2-26.4,5.7c-15.3-1.1-28.9,2.6-40,14.5c-5.7,6.2-8.5,12.8-7.1,21c3.4,17,13.3,29.5,29.8,34.9
				c23.2,7.9,44.5,1.7,64.4-11.3c2-1.4,4-2,6.8-1.7c34.6,6.8,66.6-9.9,80.2-42.2C321.9,287.5,323.6,268.8,316.5,252.9z"/>
			<path class="st13" d="M316.5,252.9c6.8,16.2,5.1,34.6-2.3,53.3c-13.9,32.3-45.9,49-80.2,42.2c-2.6-0.6-4.5,0.3-6.8,1.7
				c-19.8,13-41.1,19.3-64.4,11.3c-16.4-5.4-26.4-18.1-29.8-34.9c-1.7-8.2,1.4-14.7,7.1-21c11.1-11.6,24.7-15.3,40-14.5
				c9.1,0.6,18.1-0.6,26.4-5.7c6.5-4.5,10.8-10.8,14.5-17.9c3.4-6.8,6.8-13.9,10.2-20.7c4.3-8.2,9.1-15.6,16.7-21
				c12.2-8.8,25.5-9.1,39.1-3.7C300,227.7,309.1,237.4,316.5,252.9z M178.7,304.3c2,1.1,4.5,2,6.5,3.1c11.1,5.7,21,12.8,31.2,19.8
				c15.9,10.8,33.2,13.6,51,7.1c25.5-9.1,41.1-32,40.5-59.5c-0.3-17.3-7.4-30.9-22.7-39.4c-11.3-6.2-27.8-7.1-38,8.8
				c-1.7,2.8-3.7,6-5.4,9.1c-4,7.4-7.7,14.7-11.3,22.1c-9.9,19.3-25.8,28.3-47.3,27.8C181.5,303.7,179.8,303.4,178.7,304.3z
				 M217,342.2c-8.8-4.8-16.4-10.2-24.1-15.3c-5.1-3.4-10.8-6.8-16.2-9.6c-6.2-3.1-12.5-5.7-19.8-5.4c-8.8,0.3-13.6,6-11.1,14.7
				c3.7,11.6,10.8,20.7,23,24.4C186.1,355.6,201.4,350.5,217,342.2z"/>
			<path class="st16" d="M178.7,304.3c1.4-1.4,2.8-1.1,4.5-1.1c21.5,0.6,37.4-8.5,47.3-27.8c4-7.4,7.4-14.7,11.3-22.1
				c1.7-3.1,3.4-6.2,5.4-9.1c10.2-15.9,26.9-15,38-8.8c15.3,8.2,22.4,22.1,22.7,39.4c0.6,27.2-14.7,50.5-40.5,59.5
				c-18.1,6.5-35.2,3.7-51-7.1c-10.2-6.8-20.4-13.9-31.2-19.8C183.2,306.5,180.7,305.4,178.7,304.3z"/>
			<path class="st16" d="M217,342.2c-15.6,8.5-31.2,13.3-47.9,8.2c-12.2-3.7-19.6-12.5-23-24.4c-2.6-8.5,2-14.5,11.1-14.7
				c7.1-0.3,13.6,2.6,19.8,5.4c5.7,2.8,11.1,6.2,16.2,9.6C200.8,332,208.2,337.1,217,342.2z"/>
		</g>
	</g>
	<polyline class="st13" points="61,288.1 45.5,242.8 32.9,247.7 49.1,291.1 	"/>
</g>
<rect x="0.5" y="0.5" class="st21" width="664.4" height="585.3"/>
</svg>
