<?xml version="1.0" encoding="utf-8"?>
<!-- Generator: Adobe Illustrator 27.9.1, SVG Export Plug-In . SVG Version: 6.00 Build 0)  -->
<svg version="1.1" id="Layer_1" xmlns="http://www.w3.org/2000/svg" xmlns:xlink="http://www.w3.org/1999/xlink" x="0px" y="0px"
	 viewBox="0 0 788.3 788.3" style="enable-background:new 0 0 788.3 788.3;" xml:space="preserve">
<style type="text/css">
	.st0{fill:#FCCA1D;}
	.st1{fill:#181516;}
	.st2{fill:#FBFBFB;}
	.st3{fill:#3F383B;}
	.st4{fill:#716E6D;}
	.st5{fill:#B21F36;}
	.st6{fill:#7A1E2F;}
	.st7{opacity:0.74;fill:#FFCCD6;}
	.st8{fill:none;}
	.st9{fill:#CFCECE;}
	.st10{opacity:0.58;}
	.st11{fill:#FFFFFF;}
	.st12{fill:#FCFCFC;}
	.st13{fill:#232121;}
	.st14{fill:#8E1830;}
	.st15{fill:#D6D5D5;}
	.st16{fill:#FCCD2A;}
	.st17{fill:#FDFDFD;}
	.st18{fill:#FFDE83;}
	.st19{fill:#D1CDC5;}
	.st20{fill:#7F3211;}
</style>
<g>
	<g>
		<circle class="st0" cx="399.9" cy="297.6" r="292.6"/>
	</g>
	<g>
		<g>
			<g>
				<g>
					<path class="st12" d="M201.5,216.9c0.3,3.7,0.3,7.3,0.9,11c-5.1,1.4-6.2,3.6-6.3,8.6c0.1,0.9,0.2,1.8,0.3,2.5
						c3.4,24.1,6.2,48.4,10.2,72.7c6.5,38.6,14.5,77.1,24.5,115c6.8,27.4,15.1,53.9,25.8,80.1c0.7,2,0.7,3.2,0.2,5.1
						c-2.7,11.3-5.7,22.2-6.1,33.8c-0.2,6.8,2.5,12,8.7,14.7c10.2,4.9,19.4,2.6,27.2-4.8c9.7-9.3,18.8-9.8,30.1-3.2
						c16.1,9,30.6,5.9,42.3-8c2-2.2,4.3-4.3,6.7-6.7c4.6-4.3,10-5.6,15.9-3.9c4.5,1.1,8.2,3.2,12.6,4.6c17.9,6.4,33.9,3.1,47.6-10
						c2.7-2.6,5.5-5.3,8.4-7.5c4.6-4,9.8-4.8,15.5-3.4c4.8,1.2,8.7,3.6,13.4,5c15.4,5.5,29.3,3.5,41.6-7.6c2.7-2.6,5.2-5.6,7.8-8.6
						c5.2-5.3,11.6-7.1,18.9-5.3c3.1,0.8,6.1,1.8,9.3,2.5c8.1,2.3,15.2,1.3,22-3.3c7.2-5.1,9.6-12.3,5.8-20.4
						c-4.9-10.5-11.6-19.9-19-29.1c-0.9-1.1-1.8-2.2-1.7-4c1-24-2-47.4-4.5-71.4c-2.5-21.8-6-43.3-9.7-64.8
						c-9.4-54-21.6-107.2-37.3-159.7c-4.1-13.9-8.7-28.1-15.5-40.8c-0.6-1.1-0.7-2-0.4-3.1c1.9-7.9,2.1-15.9,2.3-24.3
						c0-5.1,0.1-10.4-2.3-15.2c-6-11-21.6-13.3-31.3-4.3c-2.3,2.1-4.7,4.5-7.1,7c-5.3,4.7-11.2,5.7-17.5,2
						c-3.7-2.1-7.3-4.5-10.6-6.8c-12.7-6.7-27.9-4.4-38.1,6.9c-2.9,3.5-5.7,7.3-8.6,10.8c-6.3,7.4-13.8,8.9-22.3,4.5
						c-4.5-2.3-8.6-5.1-13.2-7.1c-12.9-5.8-26.7-3.2-36.7,7.3c-2.9,3.5-5.6,7-8.5,10.2c-7.2,8.7-14.7,10.2-24.4,4.6
						c-3.1-2-6.2-3.9-9.4-5.6c-14.4-7.4-28.6-3.9-38.4,9.2c-1.8,2.6-3.3,5.2-5.2,7.7c-4.5,6.1-9.6,7.5-16.7,4.9
						c-2.8-1-5.1-2.4-7.8-3.7c-7.6-3.3-14.2-1.7-20,3.5c-6,5.1-7.9,11.5-5.1,18.8c3.6,9.8,8.2,19.3,14.5,27.7
						c1.4,1.8,1.6,3.4,1.7,5.5c-1,12.6,0.2,25.2,1.3,37.7C194.3,215.5,196,217.1,201.5,216.9z"/>
					<path class="st13" d="M201.5,216.9c-5.4,0.2-7.7-1.6-7.9-7c-1.2-12.5-2.3-25.1-1.3-37.7c0.2-2-0.6-3.7-1.7-5.5
						c-6.3-8.7-10.8-18.2-14.5-27.7c-2.7-7.2-0.9-13.7,5.1-18.8c6-5.1,12.9-6.2,20-3.5c2.7,1.2,5.1,2.4,7.8,3.7
						c7.1,2.6,12,1.1,16.7-4.9c2.1-2.5,3.3-5.2,5.2-7.7c9.5-13.2,23.8-16.7,38.4-9.2c3.2,1.7,6.3,3.6,9.4,5.6
						c9.7,5.6,17.5,4.2,24.4-4.6c2.7-3.5,5.4-7.4,8.5-10.2c9.6-10.2,23.6-13.4,36.7-7.3c4.6,2,8.7,4.8,13.2,7.1
						c8.8,4.2,16.1,2.7,22.3-4.5c2.9-3.5,5.7-7.3,8.6-10.8c10.2-11.3,25.1-13.6,38.3-6.3c3.7,2.1,7.2,4.7,10.6,6.8
						c6.4,3.3,12.2,2.7,17.5-2c2.3-2.1,4.7-4.5,7.1-7c9.7-9,25.3-6.7,31.3,4.3c2.4,4.8,2.4,9.8,2.3,15.2c-0.2,8.3-0.6,16-2.3,24.3
						c-0.3,1.1-0.2,2,0.4,3.1c7,13.1,11.4,27,15.5,40.8c15.7,52.5,28.3,105.5,37.3,159.7c3.5,21.5,7.2,43,9.7,64.8
						c2.6,23.7,5.3,47.3,4.5,71.4c-0.1,1.8,1.1,2.7,1.7,4c7,9.2,14,18.6,19,29.1c3.7,8.1,1.4,15.3-5.8,20.4
						c-6.5,4.7-13.9,5.6-22,3.3c-3.1-0.8-6.1-2.1-9.3-2.5c-7.4-1.5-13.5,0-18.9,5.3c-2.4,2.7-5,6-7.8,8.6
						c-12.3,11.1-26.4,12.7-41.6,7.6c-4.7-1.7-8.6-3.9-13.4-5c-5.6-1.4-10.9-0.6-15.5,3.4c-2.7,2.3-5.7,4.9-8.4,7.5
						c-13.6,13.1-29.7,16.4-47.6,10c-4.4-1.7-8.1-3.5-12.6-4.6c-5.9-1.4-11.6-0.4-15.9,3.9c-2.3,2.1-4.3,4.3-6.7,6.7
						c-12,13.8-26.5,16.9-42.3,8c-11.3-6.6-20.6-6.2-30.1,3.2c-7.4,7.2-17.3,9.6-27.2,4.8c-6.2-3-9.1-8.2-8.7-14.7
						c0.4-11.6,3.4-22.5,6.1-33.8c0.4-1.7,0.5-3.2-0.2-5.1c-10.8-25.9-18.9-52.7-25.8-80.1c-9.9-38-18-76.4-24.5-115
						c-4.1-24-6.8-48.3-10.2-72.7c-0.1-0.9-0.2-1.8-0.3-2.5c-0.5-5.2-3-26.2,2.2-27.7c4.4,0.5,11.2,21.9,11.2,25.5
						c0.4,10.9,2.3,21.5,3.8,32.3c2.9,20.1,5.7,40.6,9.5,60.6c4.2,24.6,9.7,49,15.4,73.4c4.5,19.6,9.4,39,15.2,58.1
						c4.4,13.9,9.2,27.6,14.5,41.2c1.1,2.7,2.7,3.6,5.5,3.4c36.2,1.3,72.4-1.6,108.3-7.6c38.6-6.5,77.6-14.1,115.2-26.5
						c17.6-5.9,35.2-12.1,52-19.7c2-1,2.6-2.1,2.9-4.4c0.1-10.4-0.1-20.6-1.1-31.1c-1.6-21.9-4.3-44.1-7.4-65.8
						c-3-19.6-6.2-38.6-9.6-57.9c-4.2-23.4-9.4-46.2-15.2-69.4c-6.1-24.2-11.9-48.3-19.3-72.2c-3-9.7-6.3-19.8-10.9-29
						c-0.9-1.4-1.1-2.7-2.9-2.8c-8.9-0.4-18.2-0.2-27.2,1.2c-1.5-0.1-3,0.2-4.5,0.1c-28.8,1.7-57,5.6-85.1,10.5
						c-30.5,5.2-60.5,11.4-90.3,19.7c-15.1,4.1-30.4,8.2-45.1,13.6c-9.2,2.3-17.6,5.9-26.4,9.1c-1.6,0.5-1.9,1.6-2,3.1
						c-0.1,11.3,0.2,22.5,1.4,33.8C206.7,212.5,205.4,215.5,201.5,216.9z M369.3,510.2c-1.7-0.4-3.6,0-5.2,0.5
						c-21.3,2.9-42.7,4.9-64.2,5.7c-9,0.2-18.5,0-27.6,0.2c-1.2,0-2.8-0.7-3.3,1.3c-1.8,8.8-4.1,18.1-4.8,27.2
						c-0.1,3,1.3,4.5,3.9,4.8c2.3,0.5,4.4,0.2,6.5-0.8c3.7-1.8,6.3-5.1,9.8-7.2c10.5-7.6,21.4-9.2,33.3-3c2.9,1.6,5.8,3.2,9.1,4.3
						c7.8,3.7,14.8,1.8,20.4-4c2.4-2.4,4.9-5.4,7.3-7.8c9.5-9.7,21-12.6,34-8.5c3.6,1.2,7.1,2.9,10.7,4.1c4.7,1.7,9.4,3.2,14.7,2.4
						c2.1-0.1,4.6-0.7,6.5-1.1c3.4-0.7,6.6-2.6,9.2-4.6c3-2.6,6.2-5.7,8.9-8.3c7.7-7.1,16.8-11.2,27.8-9.7
						c5.9,0.5,11.4,3.4,17.2,5.7c12.2,5.1,22.3,3,31.2-6.8c2-2.2,4-4.1,6.4-6.5c7.1-7,15.5-9.7,25.2-9.1c3.8,0.3,7.7,1.6,11.4,2.2
						c0.6,0.1,1.1,0.3,1.7,0.4c1,0.8,1.8,1,3.1,0.8c1.3,0.9,2.6,0.3,3.8,0.3c7.3-0.3,9.6-3.9,5.7-10c-3.9-6-8.3-12.5-12.3-18.5
						c-1.7-2.8-3.7-3.3-6.7-1.9c-25.4,11.2-51.9,19.4-78.9,26.9c-5.1,1.4-10.4,2.3-15.5,4.6c-4.1,0.8-8.4,1.5-12.4,3
						c-1.5-0.1-2.5,0.3-3.8,0.9c-19.1,3.7-38.3,7.5-57.4,11.2c-2.7-0.1-5.5,0.5-8.3,1C374.6,509.4,371.8,509.9,369.3,510.2z
						 M320,99.1c-1.3,0.6-1.9,1.6-2.4,2.7c-3.8,5.7-8.5,10.2-14.2,14.2c-1,0.4-1.9,0.4-3,1.1c-9.1,4.1-18.2,3.7-26.9-1.1
						c-4-2.2-7.6-4.5-11.5-6.7c-7.7-4-14.7-2.1-19.7,4.8c-1.7,2.3-2.9,4.4-4.4,7c-5.1,7.4-11.9,12.1-20.8,13.2
						c-6.8,0.8-12.8-1.3-18.4-4.4c-2.1-1.1-4.5-2.6-7.2-1.1c-3.3,1.3-3.7,4.2-2.6,7.1c3.1,8.2,7.3,15.5,11.5,22.8
						c1.1,1.8,2.1,1.1,3.5,0.5c9.5-3.4,19.3-7,28.8-10.4c6.2-2.1,12.8-3.5,18.6-6.3c0.6-0.1,1-0.4,1.6-0.5c1.8-0.2,3.1-0.4,4.4-1
						c5.2-1.7,10.2-2.6,15.7-4.3c12.1-3.1,24.2-6.1,36.2-8.9c28.8-6.5,57.6-12.1,86.7-16.1c12.4-1.8,24.7-3.3,37.1-5.1
						c0.3,0.1,0.6,0.1,0.8,0.2c16.4-1.1,33-2.8,49.7-2.6c1.5,0.1,1.9-0.4,1.9-1.6c0.9-8.5,2.3-17.1,1.4-25.7
						c-0.5-4.3-1.9-5.6-6.5-5.4c-5.1,0-6.9,3.7-10,6.6c-11.5,11.6-25.8,12.9-39.6,4.2c-2.6-1.8-4.9-3.3-7.5-4.8
						c-6.7-3.4-13.4-2.6-19,2c-2.7,2.3-4.8,5.1-6.7,7.9c-7.4,10.8-17.4,16.4-30.5,15.9c-8-1.3-14.8-5.4-21.6-9.4
						C336.2,89,326.5,90.5,320,99.1z"/>
					<path class="st14" d="M458.2,118.2c9-1.4,18.2-1.3,27.2-1.2c1.8-0.2,2.3,1.5,2.9,2.8c4.3,9.4,7.6,19.2,10.9,29
						c7.6,24,13.8,47.9,19.3,72.2c5.7,23.2,11.3,46.1,15.2,69.4c3.4,19.4,6.6,38.4,9.6,57.9c3.4,21.8,5.8,43.9,7.4,65.8
						c0.8,10.4,1,20.6,1.1,31.1c0,2.4-0.9,3.7-2.9,4.4c-17.1,7.5-34.4,13.8-52,19.7c-37.5,12.8-76,20.2-115.2,26.5
						c-35.8,6-71.8,8.9-108.3,7.6c-2.7-0.1-4.6-0.8-5.5-3.4c-5.4-13.6-10.1-27.3-14.5-41.2c-5.8-19.3-10.6-38.8-15.2-58.1
						c-6.1-24.2-10.9-48.7-15.4-73.4c-3.5-20-6.6-40.5-9.5-60.6c-1.6-10.8-3.5-21.5-3.8-32.3c-0.3-3.7,4.4,0,0.3-0.4
						c-0.3-3.7-7.7-13.4-8.3-17.1c3.9-1.4,5.3-4.4,4.8-8.7c-0.9-11.3-1.4-22.8-1.4-33.8c0.1-1.8,0.3-2.6,2-3.1
						c8.9-3.2,17.2-6.9,26.4-9.1c-0.1,1.8-2,1.9-3.1,2.8c-3.1,1.6-5.5,4.3-7.3,7.8c-5.1,10.1-5.3,20.5-5.2,31.3
						c0.2,5.1,1.9,10.6-2.8,15.2c-1.2,1.2-0.8,1.9,0.9,2.3c1.1,0.3,1.8,1,3,1.3c1.6,0.7,2.6,1.5,0.8,2.9c-1.1,0.9-1.7,2-1.5,3.5
						c1.9,14.5,3.4,29.2,5.5,43.8c2.1,12.5,3.3,24.7,5.7,37c3.7,20.3,7.4,41,12.4,61.3c3.9,15.9,7.8,31.8,12.4,47.5
						c3.4,11.9,7.2,23.6,14.3,33.7c6.3,9.6,13.4,18.8,25.4,22.3c-1.9,1.6-3.8,2.1-5.8,1.9c-3.6,0-6.8-0.2-10.4-1.3
						c-0.6-0.1-1.6-0.7-1.8,0.2c-0.5,0.8,0,1.2,0.4,1.9c1.2,2.4,3,4.9,4.8,7.2c6.8,7.9,15.9,9.5,25.5,10.7c12.9,1,25.8,0.9,39,0.5
						c16.3-0.8,33-1.9,49.2-4.5c22.4-3.5,44.8-8.3,66-15.7c14.1-5,28.1-9.9,40.8-17.9c10.5-6.4,19.1-14.5,25.3-25.3
						c7.8-13.7,8.7-28.4,8.5-43.7c-0.1-0.9-0.1-2.1-1.1-2.7c-1.1-0.6-1.9,0.4-2.7,1.1c-4.2,3.8-9,6.2-14.1,7.6
						c-2.3,0.9-4.6,1.9-7.6,0.5c1.1-0.6,1.8-1.1,2.1-1.3c13-8.2,20.3-19.6,20.7-35c-0.2-1.8-0.8-4.1-0.7-5.8
						c-0.7-14.5-3-28.5-5.3-42.2c-5.5-30.3-11.4-60.5-18.8-90.4c-2.3-8.9-4.4-17.8-6.1-26.6c-1.2-5.1-2.4-9.8-3.6-14.9
						c-3.6-12.2-6.7-24.3-10.6-36.4c-0.9-2.3-1.6-3.1-4.2-2.5c-4.1,0.8-8-0.2-12.1-1.7c3-1.1,5.3-1.1,7.5-2.7
						c4.3-2.9,4.4-4.6,0.5-8.2c-4.5-3.8-9.6-6.2-15.3-7C461.8,119.7,459.9,120.1,458.2,118.2z"/>
					<path class="st5" d="M458.2,118.2c1.3,2.1,3.5,1.5,5.3,1.6c5.8,0.8,11.2,3.3,15.3,7c4,3.1,3.5,5.3-0.5,8.2
						c-2.1,1.3-4.5,1.3-7.5,2.7c4.3,1.9,8,2.8,12.1,1.7c2.3-0.7,3.3-0.1,4.2,2.5c4,12,7,24.1,10.6,36.4c1.5,4.9,2.7,9.9,3.6,14.9
						c2,8.9,4.1,17.7,6.1,26.6c7.7,30,13.2,60.3,18.8,90.4c2.6,14.1,5.1,28.2,5.3,42.2c0.2,1.8,0.8,4.1,0.7,5.8
						c-0.2,15.5-7.8,27.1-20.7,35c-0.7,0.4-1.4,0.9-2.1,1.3c3,1.3,5.1-0.2,7.6-0.5c5.2-1.7,9.6-3.9,14.1-7.6
						c0.8-0.7,1.5-1.4,2.7-1.1c1.1,0.6,1,2,1.1,2.7c0.5,15.4-1,30-8.5,43.7c-5.9,10.8-14.7,18.9-25.3,25.3
						c-13,7.9-26.5,13-40.8,17.9c-21.5,7.3-43.8,11.8-66,15.7c-16.2,2.7-32.7,4-49.2,4.5c-13,0.4-26.2,0.8-39-0.5
						c-9.4-0.5-18.5-2.7-25.5-10.7c-1.8-2.2-3.3-4.7-4.8-7.2c-0.4-0.7-0.9-1.1-0.4-1.9c0.6-1.1,1.6-0.5,1.8-0.2
						c3.3,1.1,6.8,1.4,10.4,1.3c2.1-0.1,4.2-0.2,5.8-1.9c-11.9-3.8-19-13-25.4-22.3c-6.8-10.3-10.9-21.8-14.3-33.7
						c-4.8-15.8-8.5-31.7-12.4-47.5c-4.9-20.3-8.6-41-12.4-61.3c-2.1-12.2-3.9-24.6-5.7-37c-2.2-14.6-3.7-29-5.5-43.8
						c-0.2-1.5,0.1-2.7,1.5-3.5c2.1-1.3,1.2-2.4-0.8-2.9c-1.1-0.6-1.8-1-3-1.3c-1.6-0.7-1.7-1.6-0.9-2.3c4.3-4.3,3-9.7,2.8-15.2
						c-0.1-10.8,0.1-21.5,5.2-31.3c1.7-3.5,3.8-5.9,7.3-7.8c1.3-0.6,3-1.1,3.1-2.8c14.5-5.5,29.8-9.5,45.1-13.6
						c29.2-8.2,59.4-14.3,89.6-19.6c28.2-5.1,56.5-8.7,85.1-10.5C455.2,118.4,456.7,118.5,458.2,118.2z M354.1,182.7
						c-4.1,0.8-8.2,1.9-12,2.8c-26.7,7.6-49.4,21.2-67.6,42.2c-26.5,30.4-36.2,65.4-25.6,104.7c7.6,27.9,24.1,50.1,48,66
						c36.8,24.5,76.5,29.9,118.9,16.5c28.1-8.7,51.6-25.5,68.8-49.7c21-29.9,28.6-62.4,19-98.2c-7-26.8-22.8-48-45.4-63.3
						C426.4,182,391.4,175.9,354.1,182.7z"/>
					<path class="st12" d="M366.9,103.9c13,0.5,23.4-5.4,30.5-15.9c2.2-2.8,3.8-5.7,6.7-7.9c6-4.8,12.4-5.7,19-2
						c2.6,1.5,5,3,7.5,4.8c13.7,8.7,27.8,7.3,39.8-3.8c2.7-2.6,5-6.9,10-6.6c1.5,6,0.2,11.7-1.6,17.6c-1.4,4.7-4.8,7.5-9,10.1
						c-7.6,4.4-16.5,3.8-24.8,5c-4.1,0.8-8.2,0.4-11.7,2.6c-12.4,1.8-24.6,3-37.1,5.1c-29.4,4-58.2,9.5-86.7,16.1
						c-12.3,2.7-24.1,5.8-36.2,8.9c-5.1,1.4-10.5,2.5-15.7,4.3c-1.7-1.6-3.5-1.5-4.4,1c-0.6,0.1-1,0.4-1.6,0.5
						c-1.2-1.2-2.3-0.3-3.6,0c-7,1.6-13.6,3.3-20.4,5.2c-3.5,0.9-7.3,1.8-11,2.1c-12.4,0.6-20.2-9.1-25-21.6c2.4-1.2,5.1,0,7.2,1.1
						c5.9,2.9,11.9,5,18.4,4.4c8.9-1.1,16-5.4,20.8-13.2c1.7-2.3,2.9-4.4,4.4-7c5-7.2,12.1-9,19.7-4.8c4,2.2,7.6,4.5,11.5,6.7
						c8.8,4.5,17.9,5.2,26.9,1.1c1-0.4,2-0.7,3-1.1c0.6,1.1,1.6,1,2.3,0.3c6.2-3.6,11.1-8.7,14.9-14.6c0.9-1.3-0.2-1.8-0.9-2.6
						c6.6-8.6,15.9-10.2,25.1-4.7c1.1,5.3,15.7,11.6,20.2,10.3C366.2,104.6,366.9,104.2,366.9,103.9z"/>
					<path class="st12" d="M559.4,490.7c-0.6-0.1-1.1-0.3-1.7-0.4c-0.3-1.3-1.1-1.8-1.9-2c-15.5-5.2-29.7-0.6-41.5,12.1
						c-4.5,4.9-8.7,10.1-15.8,10.8c-5.6,0.7-10.7-1.7-15.7-4.1c-3.5-1.7-6.9-3.5-11-4.1c-10.3-1.9-19.9,0.6-29.1,5.2
						c-4.1,2-7.7,4.7-10.7,8.5c-3.1,4.3-7.9,6.8-11.2,10.4c-2,1-4.4,1-6.5,1.1c-0.4-1-1.1-1.5-2.1-1.4c-5.5-0.7-10.6-3.2-15.4-5.5
						c-16.3-6.9-36.5-2.5-47.7,11.8c-7.4,9.6-14.8,11.7-26.1,4.1c-10.6-7-22.7-7.3-34.3-1.4c-4.8,2.4-8.4,6.3-12.7,9.2
						c-1.1,0.6-1.8,1.4-3,1.1c-1.3-0.9-1.3-2.1-1-3.2c1.4-8.3,5.5-15.1,13.4-19.5c6-3.6,13.3-4.3,20.3-4.7c11-0.9,22.1-2.4,33.1-3.3
						c6.7-0.5,13.4-2.4,20.1-2.9c3.7-0.3,7.8-0.2,11-2.4c2.5-0.6,5.3-0.8,8.1-1.3c2.9,1.6,5.6,0.2,8.3-1
						c19.1-3.7,38.3-7.5,57.4-11.2c1.6,0.7,2.8,0.7,3.8-0.9c3.9-1.4,8.3-2.2,12.4-3c0.6,0.1,1.3,0.6,1.7,0.4
						c9.3-1.3,18.4-4.2,27.5-6.2c3.2-0.7,6-1.5,9.3-2.5c12.8-3.5,25.2-7.9,38.4-10.4c10.7-2.2,19.7,0.3,27.3,8.4
						c2.6,2.7,4.9,5.7,3.4,9.5c-1.5-0.1-2.5,0.3-3.8-0.3C561.6,490.3,560.9,489.3,559.4,490.7z"/>
					<path class="st15" d="M369.3,510.2c-3.2,2.2-7.2,2.7-11,2.4c-6.9,0.1-13.4,2.1-20.1,2.9c-11,0.9-21.9,2.8-33.1,3.3
						c-6.7,0.5-13.7,1.2-20.3,4.7c-7.6,4.4-11.7,11.2-13.4,19.5c-0.3,1.4-0.3,2.6,1,3.2c1.3,0.9,2.2-0.4,3-1.1
						c4.1-3.2,7.6-6.8,12.7-9.2c11.9-5.8,23.8-5.6,34.3,1.4c11.6,7.6,18.8,5.1,26.1-4.1c11.2-14.3,31.4-18.7,47.7-11.8
						c4.9,2.1,10,4.5,15.4,5.5c0.8,0.2,1.7,0.4,2.1,1.4c-5.2,0.5-9.7-0.6-14.7-2.4c-3.5-1.5-7.1-2.9-10.7-4.1
						c-13.1-4.1-24.3-0.8-34,8.5c-2.4,2.7-4.9,5.4-7.3,7.8c-6.2,5.7-12.8,7.4-20.4,4c-3-1.3-6.2-3-9.1-4.3
						c-11.7-6.1-22.8-4.6-33.3,3c-3.3,2.5-6.4,5.3-9.8,7.2c-2.1,1.3-4.2,1.4-6.5,0.8c-2.5-0.6-4.3-1.9-3.9-4.8
						c0.4-9.2,2.7-18.5,4.8-27.2c0.5-2,2.1-1.3,3.3-1.3c9,0.1,18.5,0,27.6-0.2c21.4-0.5,42.8-2.5,64.2-5.7
						C365.7,510.5,367.4,509.7,369.3,510.2z"/>
					<path class="st15" d="M566.5,492.1c1.3-4.2-1-6.8-3.4-9.5c-7.3-8.1-16.6-10.6-27.3-8.4c-12.9,2.6-25.6,7-38.4,10.4
						c-3.2,1-6.1,1.8-9.3,2.5c-9.2,2.3-17.9,4.9-27.5,6.2c-0.6,0.1-1.1-0.3-1.7-0.4c5-2.1,10.3-2.9,15.5-4.6
						c26.9-7.5,53.4-15.8,78.9-26.9c3-1.1,4.7-1,6.7,1.9c3.9,6.3,8.3,12.5,12.3,18.5C575.9,488.1,573.8,491.8,566.5,492.1z"/>
					<path class="st15" d="M433.2,106.8c3.5-2.1,7.7-2,11.7-2.6c8.4-1.5,17.2-0.6,24.8-5c4.1-2.3,7.5-5.1,9-10.1
						c2-5.8,3.4-11.4,1.6-17.6c4.4,0.2,5.9,1.4,6.5,5.4c0.6,8.8-0.6,17.2-1.4,25.7c-0.1,1.5-0.7,1.6-1.9,1.6
						c-16.4-0.1-33.1,1-49.7,2.6C433.7,107.2,433.5,106.9,433.2,106.8z"/>
					<path class="st15" d="M191.5,128.4c5.1,12.3,12.6,22.2,25,21.6c3.7-0.3,7.4-0.9,11-2.1c6.8-2,13.5-3.9,20.4-5.2
						c1.3-0.3,2.3-0.9,3.6,0c-6,2.7-12.7,4.1-18.6,6.3c-9.5,3.4-19.3,7-28.8,10.4c-1.3,0.6-2.4,1.2-3.5-0.5
						c-4.2-7.3-8.7-14.7-11.5-22.8C187.8,132.6,188.1,130,191.5,128.4z"/>
					<path class="st15" d="M420.4,527.6c3.4-4,8.1-6.4,11.2-10.4c2.7-3.8,6.6-6.5,10.7-8.5c9.2-4.6,18.5-7.5,29.1-5.2
						c4,0.7,7.5,2.4,11,4.1c4.8,2.4,10,4.5,15.7,4.1c7.1-1,11.6-5.9,15.8-10.8c11.7-12.7,25.9-17,41.5-12.1c1.1,0.3,1.6,0.7,1.9,2
						c-3.7-0.6-7.6-1.8-11.4-2.2c-9.7-0.8-18.2,2.2-25.2,9.1c-2.2,1.8-4.3,4-6.4,6.5c-8.9,9.8-19,11.8-31.2,6.8
						c-5.4-2.5-11.1-4.8-17.2-5.7c-10.8-1.1-19.8,2.7-27.8,9.7c-3.1,2.8-5.9,5.8-8.9,8.3C427.3,525.1,423.9,527,420.4,527.6z"/>
					<path class="st15" d="M320,99.1c0.7,0.8,1.4,1.5,0.9,2.6c-3.6,6.3-8.4,11.1-14.9,14.6c-1,0.4-1.9,0.4-2.3-0.3
						c6-3.6,10.4-8.5,14.2-14.2C318.4,100.8,318.9,99.7,320,99.1z"/>
					<path class="st15" d="M366.9,103.9c-0.2,0.8-0.8,1-1.5,1.1c-4.7,1-19.1-4.9-20.2-10.3C352.2,98.2,359,102.3,366.9,103.9z"/>
					<path class="st15" d="M385.5,507.8c-2.4,1.2-5.5,2.9-8.3,1C380,508.3,382.8,507.7,385.5,507.8z"/>
					<path class="st15" d="M253.1,142.1c0.9-2.5,2.4-2.4,4.4-1C256.1,141.7,254.5,142.2,253.1,142.1z"/>
					<path class="st15" d="M446.3,495.9c-1,1.6-2.2,1.6-3.8,0.9C443.9,496.2,445.4,496,446.3,495.9z"/>
					<path class="st15" d="M559.4,490.7c1.5-1.4,2.3-0.7,3.1,0.8C561.2,492,560.4,491.6,559.4,490.7z"/>
					<path class="st13" d="M354.1,182.7c37.4-6.5,72.2-0.7,104.1,20.7c22.6,15.3,38.1,36.4,45.4,63.3c9.6,35.8,2,68.3-19,98.2
						c-17.3,24.5-40.4,40.8-68.8,49.7c-42,13.1-82,7.9-118.9-16.5c-23.9-16-40.4-38.2-48-66c-10.8-39.4-0.8-74.3,25.6-104.7
						c18-21.1,41.3-34.6,67.6-42.2C345.9,184.6,350.1,183.5,354.1,182.7z M397,406.9c3.5-0.9,6.7-1.7,10.2-2.6
						c3.2-1,6.2-2.1,9.4-2.8c32.6-12.4,56.4-34.2,69.9-66.5c16.9-40.2,6.2-84.9-26.4-113.1c-29.2-25.3-63.2-32.7-100.6-26.5
						c-29.6,5.1-54.5,18.8-74.5,40.9c-33.8,37-35.7,92.1-3.5,130.4C311.4,402.6,351.1,413.7,397,406.9z"/>
					<path class="st12" d="M397,406.9c-45.6,6.9-85.6-4.6-116-40.6c-32.3-38.3-30.4-93.2,3.5-130.4c20.3-22,45.1-35.7,74.5-40.9
						c37.4-6.5,71.4,1.4,100.6,26.5c32.9,28.3,43.3,73.3,26.4,113.1c-13.5,32.3-37.4,54.3-69.9,66.5c-3,1.1-5.9,2.2-9.4,2.8
						C403.7,405.2,400.2,406.1,397,406.9z M473.5,273.8c-3.6-17.3-10.6-29.2-22.6-37.7c-12.3-8.4-25.7-11.3-39.9-5.8
						c-8.9,3.5-15.5,9.7-21.7,16.9c-5,6-10.1,12.2-15.2,18.2c-5,6-10.8,11.4-18.7,14.3c-9.4,3.1-18.4,2.1-27.6-0.7
						c-15-4.8-29.4-4.4-43.3,4.8c-7.2,4.8-11.5,10.7-12.1,19.2c-0.7,17.8,6.2,32.6,21.2,41.9c21.2,13.5,43.9,12.4,66.8,4.2
						c2.3-0.9,4.4-1,7.2-0.1c32.8,15.1,68.8,6.2,90.1-22.7C470.5,309.5,476.7,291.3,473.5,273.8z"/>
					<path class="st13" d="M469.2,274.5c2.8,17-3.1,34.2-14.5,50.3c-20.7,27.6-55.1,36.2-86.2,21.8c-2.3-1.1-4.4-0.8-6.9,0.1
						c-21.9,7.9-43.6,8.9-64-4c-14.4-8.9-20.9-23.4-20.3-40.1c0.3-8.2,4.8-13.7,11.6-18.4c13.2-8.5,27-8.9,41.4-4.6
						c8.5,2.6,17.4,3.6,26.4,0.7c7.3-2.8,12.8-7.8,17.9-13.7c4.8-5.7,9.7-11.7,14.5-17.4c6-6.9,12.2-12.8,20.8-16.1
						c13.7-5.6,26.4-2.8,38.1,5.5C459.4,246.7,465.8,258,469.2,274.5z M326,291.7c1.6,1.5,3.9,2.9,5.5,4.5c9.2,8,17.1,17,25.1,26.1
						c12.6,13.9,28.5,20.6,47,18.5c26.4-2.8,46.6-21.1,52.4-47.4c3.7-16.6,0.1-31.2-12.5-42.8c-9.4-8.6-24.9-13.2-38.2-0.4
						c-2.3,2.3-4.9,4.8-7.2,7.4c-5.5,6.1-10.7,12.3-15.9,18.5c-13.9,16.1-31.1,21.1-51.5,15.6C328.9,291.8,327.3,291.1,326,291.7z
						 M353.8,336.7c-7.3-6.6-13.3-13.5-19.4-20.2c-4.1-4.4-8.7-9-13.2-12.9c-5.2-4.4-10.6-8.3-17.7-9.7c-8.4-1.8-14.3,2.5-13.9,11.5
						c0.8,11.9,5.5,22.2,16.3,28.5C321.2,342.3,337,340.9,353.8,336.7z"/>
					<path class="st16" d="M326,291.7c1.7-1,3-0.4,4.6,0c20.4,5.5,37.6,0.5,51.5-15.6c5.5-6.1,10.4-12.4,15.9-18.5
						c2.3-2.6,4.7-5.2,7.2-7.4c13.4-12.8,29.1-8.1,38.2,0.4c12.7,11.4,16.2,26.3,12.5,42.8c-5.7,26.1-25.7,44.7-52.4,47.4
						c-18.8,2-34.4-4.6-47-18.5c-8.2-8.8-16.3-18-25.1-26.1C329.8,294.9,327.7,293.2,326,291.7z"/>
					<path class="st16" d="M353.8,336.7c-16.8,4.5-32.8,5.5-47.6-3.2c-10.8-6.3-15.8-16.4-16.3-28.5c-0.5-8.7,5.2-13.3,13.9-11.5
						c6.8,1.4,12.4,5.6,17.7,9.7c4.8,4,9.1,8.5,13.2,12.9C340.7,323.2,346.6,329.8,353.8,336.7z"/>
				</g>
			</g>
			<polyline class="st5" points="217.6,208.5 218,230.5 224.6,226.9 228.9,217.2 			"/>
		</g>
		<polyline class="st13" points="205.6,199.1 209.8,239.8 196.6,237.5 196.1,210.2 		"/>
	</g>
	<g>
		<g>
			<g>
				<path class="st13" d="M644.5,562.3c0.3,0,0.6,0,1,0c3.8-1,7.4,0,9.6,3.5s1.3,6.7-1,9.6c-6.1,10.2-12.5,20.5-18.9,30.7
					c-13.4,21.4-27.5,42.5-40.3,64.3c-8.6,14.1-12.1,30.4-15,46.4c-0.3,1.6-0.6,2.9-1,4.5c-1.6,8-3.2,9.3-11.2,7.4
					c-7.7-1.9-13.1-7-16.9-13.1c-3.5-5.4-8-8.6-15-9c-10.9-0.3-19.2-6.1-23.7-16c-4.8-9.9-11.2-14.7-22.7-13.7
					c-9.3,0.6-16-5.1-20.8-12.5c-2.6-3.8-5.4-7.4-7-11.5c-2.2-5.4-5.8-6.7-11.2-6.7c-3.8,0-8-1-11.8-1.6
					c-11.2-1.6-19.5-7.7-25.3-16.9c-1.3-1.9-2.6-3.2-3.2-5.1c-2.6-8-8.6-10.6-16.6-11.5c-14.1-1.6-24.6-9-30.4-21.4
					C359,580.2,351.9,577,343,575c-11.5-2.9-23.3-6.1-30.4-17.6c-2.6-4.2-1.9-6.4,1.9-9.3c12.1-8.3,23.3-16.9,33.3-27.8
					c11.2-12.1,18.9-26.5,27.5-40.3c18.9-30.7,36.8-61.4,53.7-93c1.3-1.9,2.9-4.2,4.5-6.1c9.3,1,9.9,1.9,11.8,9
					c-0.6,1.9-1.3,3.5-1.9,5.1c-13.7,26.2-28.8,51.8-44.4,76.7c-2.2,3.8-2.2,5.8,1.6,9c16.6,13.1,33.3,26.5,50.2,39
					c36.8,27.5,74.5,53.7,114.1,77.1c0,0.3,0,0.6-0.3,1c-1,1.6-1.9,2.6-2.9,4.2c-1.6-0.6-2.6-1.3-4.2-1.9
					c-28.1-17.3-56-35.5-82.8-55c-26.9-19.2-53.1-39-78.3-59.8c-3.5-2.9-4.8-1.9-6.7,1.6c-4.8,7.7-9.3,15.3-14.4,23
					c-1.9,2.6-1.9,4.2,1,6.4c24,20.8,49.2,40.9,75.1,59.8c41.2,30.1,83.4,58.5,129.2,81.2c2.6,1.6,4.2,1.3,5.4-1.6
					c5.4-9,10.9-17.6,16.6-26.2c1.9-2.6,1-3.5-1.6-5.1c-8.6-4.8-16.9-9.6-25.6-14.4c0.3-1.9,1.9-3.2,2.9-4.8
					c8.3,4.5,16.6,9,24.3,13.1c3.2,1.9,5.4,2.2,7.7-1.9c6.1-10.6,12.8-20.5,19.5-31C634.3,578.2,638.4,569.3,644.5,562.3z
					 M466.4,639.3c0,1,0.6,1.6,1.3,1.9c1.3,1.9,2.2,4.5,3.5,6.4c12.1,19.5,10.6,18.5,31.3,18.9c5.4,0,9.6,1.9,12.1,7
					c0.6,1.6,1.6,2.6,2.2,3.8c1.9,4.2,4.2,8.3,7.4,11.5c2.2,4.8,6.7,6.1,11.5,6.7c4.8,0.6,9.6,0,14.4,1.3c5.4,5.4,9,13.4,15.7,18.5
					c0.3-0.6,0.6-0.6,1-1c2.2-11.5,3.8-23.3,7.7-34.5c0.6-1.9-0.6-2.2-1.9-2.9c-4.8-2.2-9.3-4.8-13.7-7c-11.5-6.4-23-13.1-34.2-19.8
					c-13.1-8-25.9-16-39-24c-1-1.6-2.6-1.9-4.2-2.9c-15.3-10.6-30.4-21.4-45.7-32c-1.3-1-1.9-1.9-3.5-2.6c-3.5-2.9-7.4-5.4-10.9-8.6
					c-17.3-13.1-33.9-26.9-50.5-40.3c-2.9-2.6-6.1-5.4-9.3-8.6c-1.9-1.9-2.9-1.3-4.5,0.3c-8.3,8.3-17.6,15.3-27.5,21.4
					c-4.2,2.6-2.2,3.8,0.6,5.4c5.4,3.2,11.2,4.5,16.6,5.8c19.5,5.4,15.7,1,25.3,19.2l0.3,0.3c4.5,9.6,12.5,14.4,23,16.3
					c6.1,1,13.1,0.3,17.9,5.4c0.3,1.6,1,2.6,1.9,3.5c7,16.6,18.5,26.9,38,25.6c1,0,1.9,0,2.2,0C460,635.5,463.5,636.4,466.4,639.3z
					 M565.8,655.3c-3.5-1.9-7-3.8-10.6-5.8c-41.6-23.7-81.2-49.9-119.3-79c-15.7-12.1-31.3-24.3-46.7-36.4
					c-5.4-5.1-11.2-9.6-16.6-14.7c-1.6-1.6-3.5-2.2-4.2,0.3c-1,2.6-7,3.8-2.6,8c6.1,5.4,13.1,10.9,19.5,16.6
					c0.6,0.6,1.6,1.6,1.9,1.9c55,44.4,112.2,85.7,174.9,118.9c2.9,1.6,5.8,3.2,8.6,4.8c6.1,3.5,6.1,3.2,9.3-3.2
					c1.3-2.2,1-3.8-1.9-5.1C573.8,659.8,570,657.2,565.8,655.3z"/>
				<path class="st13" d="M426,392.7c-0.3-2.2,15.5-28.4,16.8-30.3c3.8-6.7,7.4-13.7,11.8-20.5c1.9-3.2,0.6-3.8-1.9-4.5
					c-8.3-1.6-16.6-2.9-24.9-5.1c-4.2-1.3-8-2.6-11.2-5.1c-6.4-4.8-7-10.9-1.3-16.6c4.8-4.5,9.9-7.7,15.3-11.2
					c2.2-1.6,5.1-2.9,7-4.8c7-5.4,11.8-12.1,12.1-21.1c0-2.9,0.3-5.8,0.6-9c0.3-6.1,2.2-9.3,8.3-9.3c6.7-0.3,12.5-3.8,19.5-3.5
					c10.2,0.3,19.5,2.9,27.8,8.3c3.2,1.9,4.5,1,5.8-1.9c3.2-5.4,6.7-10.6,10.2-16c9-13.1,14.7-15,29.4-9.9s27.8,13.1,41.2,21.4
					C632,278.3,672,303.3,711,327.9c19.2,12.1,39,24,56.9,38c10.6,8.3,11.5,13.7,4.5,25.3c-7.4,12.1-15,24-22.7,35.8
					c-1.9,2.6-1.9,4.2,1,6.1c3.8,2.6,7.4,6.1,11.2,9.3c8.6,5.8,12.1,15,17.3,23.3c2.9,4.5,1.6,9-2.9,12.5c-3.2,2.2-6.4,4.5-9.9,6.7
					c-11.2,7.7-19.2,17.9-24,30.7c-2.9,6.7-5.4,13.7-8,20.5c-2.2,6.1-5.8,8.6-12.8,8.6c-10.9,0-20.5-4.8-29.7-9.6
					c-2.9-1.6-5.8-5.4-9-4.5c-2.6,1.3-4.2,5.4-5.8,8.3c-2.2,3.8-5.1,7.4-7.4,11.2c-1.9,3.5-4.5,6.4-9,5.8c-4.8-0.6-6.4-4.2-7.7-8.3
					c3.5-9.3,9.3-16.6,14.4-24.9c1.6-2.6,1.9-4.2-1-6.1c-6.4-4.8-11.8-10.6-17.6-16c-4.5-4.8-9.3-9-15.7-10.9
					c-11.8-7.7-24-15.3-35.5-23c-45.7-29.7-90.2-61.1-132.7-95c-6.4-5.4-19.7,18.2-24.1,24.9C434.3,399.5,430.1,400.1,426,392.7z
					 M529.4,262c2.6-4.2,5.4-8.3,8.6-12.1c1-1.3,1.3-3.5,3.5-2.2c-7.7,13.4-16.9,25.9-25.9,38.7c-2.9,4.2-2.6,6.7,1.3,9.3
					c1.6,1,2.6,1.9,3.8,2.9c11.2,9,22.4,17.6,33.3,26.9c2.6,2.2,3.8,2.2,6.1-0.6c9-12.8,17.6-25.6,25.9-39c2.2-3.8,3.5-9.3,8.6-11.2
					c0.3,0.6,0.3,1.6,0.6,1.9c-9.9,16.9-20.5,34.2-32,50.2c-1.9,2.6-1.9,4.5,0.6,6.7c3.5,2.6,6.4,5.4,9.6,8.6
					c9.9,8.6,20.1,16.9,30.1,25.6c2.2,1.9,3.8,2.6,6.1-1c4.8-7.7,9.6-15,14.7-22.4c7.7-11.5,15.3-23,22.1-34.9
					c1.3-0.6,1.9-1.6,3.5-1c0,1.9-1,3.5-1.9,5.1c-11.8,18.5-23.7,36.8-35.5,55.3c-1.9,2.6-1.9,4.5,0.6,6.4
					c13.7,11.2,27.5,22.7,42.5,32.6c2.2,1.6,3.2,1.9,5.1-1c8.3-13.1,16.9-25.3,24.9-38.4c5.1-8.3,11.2-15.7,15-24.3
					c1-0.6,1.9-1.3,2.9-1.9c2.6,3.5-1,5.8-2.2,8c-12.5,19.5-24.9,39-37.7,57.9c-1.9,2.2-1.9,3.8,1.3,5.4c4.5,2.6,9,5.8,13.1,9
					c13.7,9,27.8,16.9,42.5,24.3c3.5,1.9,5.8,1.6,8.3-1.9c8-12.1,16.3-24,24-36.1c5.1-7.7,9.3-15.3,14.1-23
					c3.8-6.4,3.2-9.3-2.6-14.1c-1.6-1.3-2.9-2.6-5.1-3.2c-11.5-9.9-24.6-17.3-37.7-25.3c-0.3-0.3-0.3-0.6-0.6-1
					c-21.1-13.4-42.5-26.9-63.6-40.3c-23-14.4-46-28.1-68.4-42.5c-13.1-8.3-25.9-16.3-40.6-21.1c-2.9-1-6.1-2.6-9.3-1
					c-0.3,0-0.6,0-1,0c-3.8-1-5.4,2.2-7,4.5c-4.2,5.8-8,11.8-11.8,17.6c-4.5,7-8.6,14.4-13.1,21.7c-1.9,3.2,0.3,4.5,2.2,5.8
					c2.2,1.9,3.2,1,4.8-1.3C518.2,278.7,524.9,271,529.4,262z M478.9,271.6c0.3-1.9-1.3-3.8,1.3-4.8c1.9-1,3.2,1,4.8,1.9
					c3.8,3.5,7.7,7,13.1,7c1.9,0,8.3-6.7,7.7-8.3c-0.3-0.6-1-1-1.6-1.3c-1-0.6-2.2-0.6-3.2-1.6c-7.4-5.4-15.7-7.7-24.3-7.4
					c-6.4,0-11.5,5.4-18.2,5.1c-1,0-1.3,1.3-1,1.9c0,1.3-0.3,2.6-0.3,3.8c1,16.3-6.1,27.8-20.1,35.8c-4.2,2.2-8.3,4.8-12.5,7.7
					c-2.6,1.9-6.7,3.5-5.8,7.4c0.6,4.2,5.1,5.1,8.6,5.8c19.5,5.1,39,8,57.9,14.7c13.4,5.8,26.9,12.8,39,20.8
					c26.9,17.6,48.3,41.2,68.4,65.5c19.8,24,38.7,48.3,61.1,70c11.8,11.5,24,22.4,38.7,30.7c5.4,4.5,12.1,6.7,18.5,9.3
					c12.5,4.2,14.7,3.2,18.5-9c7.4-21.7,18.5-40.3,39-52.1c5.4-2.9,5.4-5.8,1.6-11.2c-1.6-1.9-4.5-3.2-3.8-5.4
					c1-3.8-1.6-5.4-3.5-7.4c-5.8-5.4-12.1-10.6-18.9-14.7c-1.9,2.9-3.5,5.4-5.4,8.3c-1,1.6-1.3,2.2-0.3,4.2c4.2,5.8,9,10.9,16.9,9.9
					c1,0,1.9-0.6,2.6,0.6c0.3,1.3-0.6,1.9-1.6,2.9c-2.2,1.9-5.1,1.3-7.7,1.9c-2.2-0.6-5.1-1-7.4-1.9c-15.3-3.8-28.5-11.8-42.2-19.2
					c-33.9-18.5-64.6-41.9-94-66.5c-35.5-30.1-70.3-61.1-107.7-88.9C491.3,283.1,484,279,478.9,271.6z M624.7,477.2
					c0.3-0.3,0.6-0.6,0.6-0.6c-0.3-0.6-0.6-1.3-1-1.6c-7.4-9.3-15-17.9-22.4-27.2c-16.6-20.5-33.3-40.9-52.4-58.8
					c-20.5-18.9-42.8-33.6-68.7-43.2c-8.6-3.2-9-2.9-13.1,4.5c-1.6,2.6-2.6,5.4-4.5,8c-1.9,2.6-1.6,4.2,1.3,6.1
					c10.9,8.3,21.4,16.6,32.3,24.9c32.9,24.9,67.1,48.3,101.4,71.3C607.1,466,615.7,471.8,624.7,477.2z"/>
				<path class="st13" d="M443.1,364c-0.3-2.2,0.3-4.2,1.6-6.1c3.8-6.7,7.4-13.7,11.8-20.5c1.9-3.2,0.6-3.8-1.9-4.5
					c-8.3-1.6-16.6-2.9-24.9-5.1c-4.2-1.3-8-2.6-11.2-5.1c-6.4-4.8-7-10.9-1.3-16.6c4.8-4.5,9.9-7.7,15.3-11.2
					c2.2-1.6,5.1-2.9,7-4.8c7-5.4,11.8-12.1,12.1-21.1c0-2.9,0.3-5.8,0.6-9c0.3-6.1,2.2-9.3,8.3-9.3c6.7-0.3,12.5-3.8,19.5-3.5
					c10.2,0.3,19.5,2.9,27.8,8.3c3.2,1.9,4.5,1,5.8-1.9c3.2-5.4,6.7-10.6,10.2-16c9-13.1,14.7-15,29.4-9.9s27.8,13.1,41.2,21.4
					c39.3,24.6,79.3,49.6,118.3,74.2c19.2,12.1,39,24,56.9,38c10.6,8.3,11.5,13.7,4.5,25.3c-7.4,12.1-15,24-22.7,35.8
					c-1.9,2.6-1.9,4.2,1,6.1c3.8,2.6,7.4,6.1,11.2,9.3c8.6,5.8,12.1,15,17.3,23.3c2.9,4.5,1.6,9-2.9,12.5c-3.2,2.2-6.4,4.5-9.9,6.7
					c-11.2,7.7-19.2,17.9-24,30.7c-2.9,6.7-5.4,13.7-8,20.5c-2.2,6.1-5.8,8.6-12.8,8.6c-10.9,0-20.5-4.8-29.7-9.6
					c-2.9-1.6-5.8-5.4-9-4.5c-2.6,1.3-4.2,5.4-5.8,8.3c-2.2,3.8-5.1,7.4-7.4,11.2c-1.9,3.5-4.5,6.4-9,5.8c-4.8-0.6-6.4-4.2-7.7-8.3
					c3.5-9.3,9.3-16.6,14.4-24.9c1.6-2.6,1.9-4.2-1-6.1c-6.4-4.8-11.8-10.6-17.6-16c-4.5-4.8-9.3-9-15.7-10.9
					c-11.8-7.7-24-15.3-35.5-23c-45.7-29.7-90.2-61.1-132.7-95c-6.4-5.4-6.4-5.1-10.9,1.6C448.8,371.7,446.9,370.7,443.1,364z
					 M531.3,257.2c2.6-4.2,5.4-8.3,8.6-12.1c1-1.3,1.3-3.5,3.5-2.2c-7.7,13.4-16.9,25.9-25.9,38.7c-2.9,4.2-2.6,6.7,1.3,9.3
					c1.6,1,2.6,1.9,3.8,2.9c11.2,9,22.4,17.6,33.3,26.9c2.6,2.2,3.8,2.2,6.1-0.6c9-12.8,17.6-25.6,25.9-39c2.2-3.8,3.5-9.3,8.6-11.2
					c0.3,0.6,0.3,1.6,0.6,1.9c-9.9,16.9-20.5,34.2-32,50.2c-1.9,2.6-1.9,4.5,0.6,6.7c3.5,2.6,6.4,5.4,9.6,8.6
					c9.9,8.6,20.1,16.9,30.1,25.6c2.2,1.9,3.8,2.6,6.1-1c4.8-7.7,9.6-15,14.7-22.4c7.7-11.5,15.3-23,22.1-34.9
					c1.3-0.6,1.9-1.6,3.5-1c0,1.9-1,3.5-1.9,5.1c-11.8,18.5-23.7,36.8-35.5,55.3c-1.9,2.6-1.9,4.5,0.6,6.4
					c13.7,11.2,27.5,22.7,42.5,32.6c2.2,1.6,3.2,1.9,5.1-1c8.3-13.1,16.9-25.3,24.9-38.4c5.1-8.3,11.2-15.7,15-24.3
					c1-0.6,1.9-1.3,2.9-1.9c2.6,3.5-1,5.8-2.2,8c-12.5,19.5-24.9,39-37.7,57.9c-1.9,2.2-1.9,3.8,1.3,5.4c4.5,2.6,9,5.8,13.1,9
					c13.7,9,27.8,16.9,42.5,24.3c3.5,1.9,5.8,1.6,8.3-1.9c8-12.1,16.3-24,24-36.1c5.1-7.7,9.3-15.3,14.1-23
					c3.8-6.4,3.2-9.3-2.6-14.1c-1.6-1.3-2.9-2.6-5.1-3.2c-11.5-9.9-24.6-17.3-37.7-25.3c-0.3-0.3-0.3-0.6-0.6-1
					c-21.1-13.4-42.5-26.9-63.6-40.3c-23-14.4-46-28.1-68.4-42.5c-13.1-8.3-25.9-16.3-40.6-21.1c-2.9-1-6.1-2.6-9.3-1
					c-0.3,0-0.6,0-1,0c-3.8-1-5.4,2.2-7,4.5c-4.2,5.8-8,11.8-11.8,17.6c-4.5,7-8.6,14.4-13.1,21.7c-1.9,3.2,0.3,4.5,2.2,5.8
					c2.2,1.9,3.2,1,4.8-1.3C519.5,273.9,526.2,266.2,531.3,257.2z M480.8,266.8c0.3-1.9-1.3-3.8,1.3-4.8c1.9-1,3.2,1,4.8,1.9
					c3.8,3.5,7.7,7,13.1,7c1.9,0,8.3-6.7,7.7-8.3c-0.3-0.6-1-1-1.6-1.3c-1-0.6-2.2-0.6-3.2-1.6c-7.4-5.4-15.7-7.7-24.3-7.4
					c-6.4,0-11.5,5.4-18.2,5.1c-1,0-1.3,1.3-1,1.9c0,1.3-0.3,2.6-0.3,3.8c1,16.3-6.1,27.8-20.1,35.8c-4.2,2.2-8.3,4.8-12.5,7.7
					c-2.6,1.9-6.7,3.5-5.8,7.4c0.6,4.2,5.1,5.1,8.6,5.8c19.5,5.1,39,8,57.9,14.7c13.4,5.8,26.9,12.8,39,20.8
					c26.9,17.6,48.3,41.2,68.4,65.5c19.8,24,38.7,48.3,61.1,70c11.8,11.5,24,22.4,38.7,30.7c5.4,4.5,12.1,6.7,18.5,9.3
					c12.5,4.2,14.7,3.2,18.5-9c7.4-21.7,18.5-40.3,39-52.1c5.4-2.9,5.4-5.8,1.6-11.2c-1.6-1.9-4.5-3.2-3.8-5.4
					c1-3.8-1.6-5.4-3.5-7.4c-5.8-5.4-12.1-10.6-18.9-14.7c-1.9,2.9-3.5,5.4-5.4,8.3c-1,1.6-1.3,2.2-0.3,4.2c4.2,5.8,9,10.9,16.9,9.9
					c1,0,1.9-0.6,2.6,0.6c0.3,1.3-0.6,1.9-1.6,2.9c-2.2,1.9-5.1,1.3-7.7,1.9c-2.2-0.6-5.1-1-7.4-1.9c-15.3-3.8-28.5-11.8-42.2-19.2
					c-33.9-18.5-64.6-41.9-94-66.5c-35.5-30.1-70.3-61.1-107.7-88.9C492.6,278.3,485.3,273.9,480.8,266.8z M626.3,472.4
					c0.3-0.3,0.6-0.6,0.6-0.6c-0.3-0.6-0.6-1.3-1-1.6c-7.4-9.3-15-17.9-22.4-27.2c-16.6-20.5-33.3-40.9-52.4-58.8
					c-20.5-18.9-42.8-33.6-68.7-43.2c-8.6-3.2-9-2.9-13.1,4.5c-1.6,2.6-2.6,5.4-4.5,8c-1.9,2.6-1.6,4.2,1.3,6.1
					c10.9,8.3,21.4,16.6,32.3,24.9c32.9,24.9,67.1,48.3,101.4,71.3C608.4,461.2,617.6,466.7,626.3,472.4z"/>
				<path class="st0" d="M649.3,501.2c5.8,5.4,11.2,11.2,17.6,16c2.6,1.9,2.2,3.5,1,6.1c-5.1,8.3-10.9,16-14.4,24.9
					c-2.9,4.8-5.8,9.3-9,14.1c-6.1,7.4-10.2,16-15.3,24c-6.7,10.2-13.1,20.5-19.5,31c-2.2,3.8-4.5,3.2-7.7,1.9
					c-8.3-4.5-16.6-9-24.3-13.1l0.3-0.3c12.5-18.2,24.9-36.1,37.4-54.4C626.6,534.1,637.8,517.5,649.3,501.2z"/>
				<path class="st0" d="M445.3,389.9c3.5-5.1,7.4-10.2,9.3-16.3c4.5-6.4,4.5-6.4,10.9-1.6c42.5,33.9,87,65.2,132.7,95
					c11.8,7.7,24,15.3,35.5,23c-10.6,16.6-21.1,33.3-32,49.9c-12.5,18.9-24.6,38-37.1,56.9c-39.6-23.3-77.4-49.6-114.1-77.1
					c-16.9-12.8-33.9-25.9-50.2-39c-3.8-2.9-3.8-5.1-1.6-9c15.7-24.9,30.7-50.5,44.4-76.7C444,393.4,444.3,391.5,445.3,389.9z"/>
				<path class="st14" d="M574.8,609.9c8.6,4.8,16.9,9.6,25.6,14.4c2.2,1.3,3.2,2.2,1.6,5.1c-5.4,8.6-11.2,17.3-16.6,26.2
					c-1.6,2.2-2.6,2.6-5.4,1.6c-45.7-23-87.6-51.5-129.2-81.2c-25.9-18.9-50.8-38.7-75.1-59.8c-2.6-2.2-2.6-3.5-1-6.4
					c5.1-7.4,9.6-15,14.4-23c1.9-3.2,3.2-4.5,6.7-1.6c25.3,20.8,51.5,40.6,78.3,59.8c26.9,19.5,54.4,37.7,82.8,55
					c1.3,1,2.6,1.6,4.2,1.9c0,0.3,0,0.6,0,0.6c-5.1,8-10.2,16-15.3,24c-3.5,5.4-1.3,10.2,5.4,10.9c2.9,0.3,5.1-1.3,6.4-3.5
					c5.4-8,10.9-15.7,16.6-23.7C574.5,610.2,574.8,609.9,574.8,609.9z"/>
				<path class="st17" d="M517.2,677.4c-1-1.3-1.9-2.2-2.2-3.8c-2.2-5.4-6.4-7-12.1-7c-20.8-0.3-19.5,0.6-31.3-18.9
					c-1.3-1.9-2.2-4.5-3.5-6.4c5.1-6.1,11.5-10.2,17.6-15c13.1,8,25.9,16.3,39,24c11.2,6.7,22.7,13.1,34.2,19.8
					c-2.6,9.3-5.4,17.9-8.3,27.2c-4.8-1.6-9.6-0.6-14.4-1.3c-4.8-0.6-9.3-1.9-11.5-6.7c1.6-3.2,2.6-6.4,4.5-9.3
					c2.2-3.8,4.2-8,5.4-12.1c0.6-1.9,1.3-4.8-1.6-5.8c-1.9-1-3.5,1-4.8,1.9c-1.3,1.6-1.9,3.2-3.5,4.8
					C522.4,671.3,522,675.8,517.2,677.4z"/>
				<path class="st17" d="M414,606.1c-5.1-5.4-11.8-4.8-17.9-5.4c-10.6-1.9-18.2-6.4-23-16.3c0-0.3-0.3-0.3-0.3-0.3
					c-9.6-18.2-5.8-13.7-25.3-19.2c1-2.2,2.9-3.5,4.8-5.1c6.4-6.4,13.1-12.8,18.9-19.8c16.6,13.4,33.3,27.5,50.5,40.3
					c3.8,2.6,7.4,5.4,10.9,8.6c-1,3.2-3.5,4.8-5.4,6.7C422.3,599,417.5,601.6,414,606.1z"/>
				<path class="st17" d="M562,664.6c-62.7-32.9-119.9-74.2-174.9-118.9c-1-0.6-1.6-1.6-1.9-1.9c1.6-3.2,2.6-6.4,4.2-9.6
					c15.7,12.1,31,24.3,46.7,36.4c38,28.8,77.7,55.3,119.3,79c3.5,1.9,7,3.8,10.6,5.8C564.2,658.5,563,661.7,562,664.6z"/>
				<path class="st18" d="M564.6,597.1c12.5-18.9,24.6-38,37.1-56.9c10.9-16.6,21.4-33.3,32-49.9c6.1,1.9,11.2,6.1,15.7,10.9
					c-11.2,16.6-22.7,32.9-33.9,49.6c-12.5,18.2-24.9,36.1-37.4,54.4c-4.5-2.2-9.3-4.8-13.4-7C564.6,597.7,564.6,597.4,564.6,597.1z
					"/>
				<path class="st17" d="M436,591c15.3,10.6,30.4,21.4,45.7,32c-1,2.2-2.6,4.2-4.5,5.4c-3.8,3.2-8,5.4-10.2,10.2
					c-2.9-2.6-6.7-3.5-10.6-3.8c-1,0-1.9,0-2.2,0c-19.2,1.6-30.7-9-38-25.6c0.6-1.9,1.9-2.9,3.2-4.2
					C424.5,600.9,430.9,596.8,436,591z"/>
				<path class="st19" d="M370.8,539.9c-5.4,7.4-12.5,13.1-18.9,19.8c-1.9,1.9-3.8,2.9-4.8,5.1c-5.8-1.6-11.5-2.6-16.6-5.8
					c-2.9-1.9-4.8-2.6-0.6-5.4c9.6-6.1,19.2-13.1,27.5-21.4c1.6-1.6,2.6-1.9,4.5-0.3C364.7,534.4,367.9,537,370.8,539.9z"/>
				<path class="st19" d="M550.8,696.9c2.6-9.3,5.4-17.9,8.3-27.2c4.8,2.2,9.3,4.8,13.7,7c1.3,0.6,2.2,1.3,1.9,2.9
					c-3.8,11.2-5.1,23-7.7,34.5c0,0.3-0.3,0.6-1,1C559.1,710.3,556.2,702.6,550.8,696.9z"/>
				<path class="st19" d="M389,534.1c-1.6,3.2-2.6,6.4-4.2,9.6c-6.4-5.4-13.1-10.9-19.5-16.6c-4.5-4.2,1.9-5.4,2.6-8
					c1-2.6,2.6-1.9,4.2-0.3C377.8,524.2,383.6,529.3,389,534.1z"/>
				<path class="st19" d="M517.2,677.4c4.8-1.3,5.4-5.8,8-9c1.6-1.6,2.2-3.2,3.5-4.8c1.3-1.6,2.6-2.9,4.8-1.9
					c2.2,1.3,1.9,3.8,1.6,5.8c-1.6,4.2-3.2,8.3-5.4,12.1c-1.9,2.9-2.9,6.1-4.5,9.3C521.7,685.4,519.2,681.5,517.2,677.4z"/>
				<path class="st19" d="M562,664.6c1.3-3.2,2.2-6.1,3.5-9.3c4.2,1.9,8.3,4.2,12.5,6.1c2.6,1.3,2.6,2.2,1.9,5.1
					c-2.9,6.4-2.6,6.4-9.3,3.2C567.8,668.1,564.9,666.5,562,664.6z"/>
				<path class="st20" d="M564.2,598.1c4.5,2.2,9.3,4.8,13.4,7l-0.3,0.3c-1,1.9-2.6,2.9-2.9,4.8c0,0-0.3,0.3-0.6,0.3
					c-4.2-2.9-8.6-5.4-13.1-7.7c0-0.3,0-0.6,0-0.6C562.6,600.6,563.3,599,564.2,598.1z"/>
				<path class="st19" d="M436,591c-5.1,5.4-11.5,9.3-16.9,14.4c-1.6,1.3-2.6,2.2-3.2,4.2c-1.3-1-1.6-2.2-1.9-3.5
					c3.5-4.8,8.6-7.4,13.1-10.9c2.2-1.9,5.1-3.5,5.4-6.7C434.1,589.1,435.1,590.4,436,591z"/>
				<path class="st19" d="M466.4,639.3c2.2-4.8,6.4-7,10.2-10.2c1.9-1.9,3.8-3.2,4.5-5.4c1.6,0.6,3.2,1.3,4.2,2.9
					c-6.1,4.8-12.8,9-17.6,15C467,640.9,466.4,640.3,466.4,639.3z"/>
				<path class="st20" d="M759.3,368.8c1.9,0.6,3.5,1.9,5.1,3.2c5.8,4.8,6.4,7.7,2.6,14.1c-4.8,7.7-9.3,15.3-14.1,23
					c-8,12.1-16.3,24-24,36.1c-2.2,3.5-4.8,3.8-8.3,1.9c-14.7-7.4-28.8-15.7-42.5-24.3c-4.5-2.9-9-6.1-13.1-9
					c-2.6-1.9-2.6-3.2-1.3-5.4c12.8-19.5,25.3-38.7,37.7-57.9c1.6-1.9,5.1-4.5,2.2-8c-5.4-1.9-10.6-3.8-15.7-6.7
					c-12.1-6.7-23.7-13.4-33.3-23.7c-1-1-1.9-1.9-3.5-1.3c-1.3,1,0,2.2,0.3,3.2c1.6,2.9,2.6,5.4,0.6,9c-2.9,4.5-5.4,9.3-8.3,13.4
					c-2.9,1.9-2.9,5.4-4.5,8c2.6-2.6,5.8-4.5,7.4-8.3c1.9-3.8,5.8-6.1,7.4-10.2c1.3-3.5,2.9-3.2,5.4-1c6.1,5.8,13.1,10.6,20.8,14.1
					c3.2,1.6,3.2,2.6,1.6,5.4c-4.8,8.3-10.9,15.3-14.4,24c-1.9,1-1.9,2.9-2.6,4.5c-0.6,2.2-1.9,5.4,0.6,6.4c1.6,0.6,2.6-2.6,3.5-4.5
					c6.1-9.9,12.5-20.5,19.5-30.1c1.3-1.9,2.2-2.6,4.5-2.2c2.6,0.3,5.4,0.3,8,0.6c-3.8,9-9.9,16.6-15,24.3
					c-8,13.1-16.6,25.6-24.9,38.4c-1.9,2.6-2.6,2.2-5.1,1c-14.7-9.9-28.5-21.4-42.5-32.6c-2.6-2.2-2.2-3.8-0.6-6.4
					c12.1-18.2,24-36.8,35.5-55.3c1-1.6,1.9-3.2,1.9-5.1c-1-0.6-1.9-1.3-2.6-1.6c-13.1-4.2-24-10.9-35.2-18.9
					c-6.1-4.5-11.8-9.6-17.6-14.4v-0.3c0,0,0,0.3,0.3,0.3c0,0.3,0,0.6-0.3,1c-5.1,1.9-6.1,7.4-8.6,11.2c-8.3,13.1-16.6,26.2-25.9,39
					c-1.9,3.2-3.5,2.9-6.1,0.6c-10.9-9.3-22.1-17.9-33.3-26.9c-1.3-1.3-2.6-1.9-3.8-2.9c-4.2-2.6-4.2-5.4-1.3-9.3
					c9-12.8,18.2-24.9,25.9-38.7c2.9,1.9,3.5,3.5,1.6,6.4c-3.2,4.8-5.8,9.6-9,14.4c-2.9,2.2-4.2,5.8-4.8,9.3
					c1.9-3.5,5.8-5.4,7.4-9.6c2.6-3.8,5.8-7.4,8.3-11.2c1.9-2.9,3.2-3.2,5.4-1c5.4,5.4,12.1,9.3,19.2,12.8c4.2,1.9,3.5,3.8,1.9,6.7
					c-3.5,5.8-7,11.8-10.2,17.6c-2.2,4.2-4.5,8.3-4.5,13.1c1.9-1.6,3.2-2.9,4.5-4.8c4.5-6.7,9.3-13.4,13.1-20.5
					c2.9-5.1,5.8-9.6,13.1-6.7c0,0,0.3,0,0.6,0c1.3,0,2.2,0,2.6-1.6c0-1.3-1-1.9-1.9-1.9c-3.5-0.3-6.4-2.6-9.3-4.2
					c-15-7.4-28.5-16.6-40.6-27.8c3.2-1.9,6.4-0.3,9.3,1c14.7,4.8,27.8,13.1,40.6,21.1c22.7,14.4,46,28.1,68.4,42.5
					c21.1,13.1,42.5,26.9,63.6,40.3c0.3,0.3,0.3,0.6,0.6,1c-3.8,2.6-1.3,4.2,1,5.4c8.6,5.8,17.3,11.8,25.9,17.3
					C751.6,368.8,755.4,370.4,759.3,368.8z M721.9,405.3c-1.3,1.9-3.2,3.5-3.2,6.1c0,1.9-1.3,4.8,1,5.4c2.6,1.3,1.9-2.6,3.5-3.8
					c0.6-0.6,1.3-1.9,1.9-2.2c5.4-8.6,10.6-17.3,16-25.9c2.6-3.8,5.4-7.4,11.2-5.8c1.9,0.6,4.5,0.3,6.4-1.3
					c-18.5-7-35.2-16.6-49.2-30.7c-0.6-0.6-1.3-1.9-2.2-1.3c-1.9,0.6-1.3,1.9-1,2.9c2.9,5.4,0,9.3-2.6,13.4
					c-3.2,5.4-7,10.2-9.6,16.6c6.7-5.4,9.6-13.1,15-18.5c1.6-1.6,2.2-2.6,4.5-1c6.1,5.8,13.1,10.6,21.1,14.1c4.5,1.9,4.5,4.2,1.9,8
					C730.8,389.3,726.3,397.3,721.9,405.3z M751.3,390.6c-6.7,8.3-12.5,16.9-16.9,26.5C741.7,409.7,748.1,401.4,751.3,390.6z"/>
				<path class="st19" d="M749,464.1c2.6-0.6,5.4,0,7.7-1.9c1-0.6,1.9-1.9,1.6-2.9c-0.3-1.3-1.9-1-2.6-0.6c-8.3,1-13.1-4.2-16.9-9.9
					c-1.3-1.6-0.6-2.6,0.3-4.2c1.9-2.6,3.5-5.4,5.4-8.3c6.7,4.2,13.1,9.3,18.9,14.7c1.9,1.9,4.8,3.5,3.5,7.4
					c-0.6,1.9,2.6,3.5,3.8,5.4c3.8,5.1,3.5,8.3-1.6,11.2c-20.5,11.8-31.7,30.4-39,52.1c-4.2,12.1-6.1,13.1-18.5,9
					c-6.4-2.2-13.1-4.8-18.5-9.3c0.3-2.6,0.6-5.4,1.3-8c0.6-2.2-0.3-3.8-2.2-4.8c-4.8-1.9-9-5.4-12.8-8.6
					c-23-18.2-42.2-40.3-60.7-63c-18.2-22.1-36.4-44.1-57.6-63.9c-18.9-17.9-40.3-32-64.3-42.2c-4.5-1.9-7.7-1-10.2,2.9
					c-18.9-7-38.7-9.6-57.9-14.7c-3.5-1-8-1.9-8.6-5.8c-0.6-3.8,3.5-5.4,5.8-7.4c3.8-2.9,8-5.4,12.5-7.7c13.7-8,20.5-19.8,20.1-35.8
					c0-1.3,0.3-2.6,0.3-3.8c1,0.6,1.9,0.6,2.6,1.6c1.9,2.9,9.6,3.2,4.5,9.6c-0.3,0.3,0,1.3,0.3,1.9c1.9,5.1,2.6,10.2,4.2,15.3
					c1,3.2,1.9,7,6.1,6.4c5.4-1,9-6.4,7.7-11.2c-0.3-1.6-1.9-2.6-1.3-5.1c4.2,2.9,8.3,5.4,11.8,8.6c2.9,2.6,7.4,3.2,6.7,10.2
					c-0.6,7.4,1.9,15.7,2.2,23.7c0,2.9,0.3,7,4.8,8.3c7,1.9,14.4,3.5,21.7,5.4c3.5,1,7,1.9,11.5,2.6c-11.8-13.7-20.5-28.8-34.2-39.6
					c29.1,21.4,56.3,45.1,83.4,70c-3.2,0.6-4.5-1.3-5.4-1.9c-8-6.4-15.3-13.4-24-18.9c-11.5-7.4-16-8.3-24-1.3
					c-2.2,1.9-1.9,3.2,0.3,5.1c8.3,5.8,16,12.1,23.3,18.9c1.6,1.3,2.9,2.2,4.8,2.9c10.2,3.2,20.5,6.7,31.3,9.3
					c3.2,0.6,5.4,1.3,4.8-4.5c20.5,17.6,40.6,32.3,61.1,47.6c-5.4-0.6-10.9-1.6-16.3-2.6c-5.4-1.3-10.9-1.9-16.3-3.2
					c-5.1-1.3-9.3-4.8-15.3-3.2c8,4.2,12.5,12.5,20.1,16.6c1.9,1.3,4.8,1.9,6.7,3.2c2.2,1.3,5.1,3.5,4.2,5.8c-1,2.6-3.8,1-6.1,1
					c-4.2-0.6-8-1-12.8,1c8,8.6,15.3,16.6,22.7,24.6c1.3,1.3,2.2,1.9,3.8,1.6c2.9-1.3,6.1-1.3,9-3.2c5.4-4.2,10.6-7.4,17.9-8.3
					c9.3-1.6,12.5-2.9,12.5-13.1c1.9,0,2.6,1,4.2,1.6c6.7,3.5,13.1,7.7,20.5,10.2c6.4,2.2,6.4,5.4,4.5,11.2
					c-1.3,3.5-3.5,6.4-6.7,8.6c-9.6,6.1-19.2,12.8-28.8,18.9c-1.3,0.6-2.6,1.3-2.6,2.6c-0.3,4.8,3.2,7,6.7,9
					c2.9,1.9,5.8,2.2,8.3-1.3c6.4-9.9,15.3-17.3,25.3-23.7c6.1-3.8,11.2-9.3,10.2-18.2C740.4,470.5,745.2,469.2,749,464.1z"/>
				<path class="st17" d="M749,464.1c-3.8,5.4-9,6.4-15,3.8c0.6,9-4.2,14.4-10.2,18.2c-9.9,6.1-18.9,13.4-25.3,23.7
					c-2.2,3.5-5.4,2.9-8.3,1.3c-3.5-1.9-7-4.2-6.7-9c0-1.6,1.9-1.9,2.6-2.6c9.6-6.1,19.2-12.8,28.8-18.9c3.2-1.9,5.4-5.1,6.7-8.6
					c1.9-5.4,1.9-9-4.5-11.2c-7-2.6-13.4-6.7-20.5-10.2c-1.3-0.6-2.2-1.9-4.2-1.6c0,9.9-3.2,11.5-12.5,13.1
					c-7.4,1.3-12.8,4.2-17.9,8.3c-2.6,1.9-5.8,1.9-9,3.2c-1.6,0.6-2.9-0.3-3.8-1.6c-7.4-8-14.7-16.3-22.7-24.6
					c4.5-1.9,8.6-1.6,12.8-1c1.9,0.3,5.4,1.9,6.1-1c0.6-2.2-1.9-4.8-4.2-5.8c-2.2-1.3-4.8-1.9-6.7-3.2c-7.7-4.5-12.1-12.5-20.1-16.6
					c5.4-1.6,10.2,1.9,15.3,3.2c5.4,1.3,10.6,1.9,16.3,3.2c5.4,1.3,10.6,1.9,16.3,2.6c-20.5-15.3-40.9-30.4-61.1-47.6
					c1,5.4-1.6,5.4-4.8,4.5c-10.6-2.2-20.8-5.4-31.3-9.3c-1.9-0.6-3.2-1.9-4.8-2.9c-7.7-6.4-15.3-13.1-23.3-18.9
					c-2.2-1.9-2.6-2.9-0.3-5.1c8-6.7,12.5-6.1,24,1.3c8.6,5.4,16,12.8,24,18.9c1.3,1,2.2,2.2,5.4,1.9c-27.5-24.9-54.4-48.6-83.4-70
					c13.4,10.9,22.4,25.9,34.2,39.6c-4.5-1-8-1.9-11.5-2.6c-7.4-1.9-14.4-3.5-21.7-5.4c-4.2-1.3-4.5-5.4-4.8-8.3
					c-0.3-8-2.9-16.3-2.2-23.7c0.6-7-3.8-7.7-6.7-10.2c-3.5-3.2-7.7-5.4-11.8-8.6c-0.6,1.9,1,3.5,1.3,5.1c1.3,4.5-2.2,10.2-7.7,11.2
					c-4.5,0.6-5.4-3.2-6.1-6.4c-1.3-5.4-1.9-10.6-4.2-15.3c-0.3-0.6-0.6-1.6-0.3-1.9c5.4-6.4-2.6-6.7-4.5-9.6
					c-0.6-0.6-1.9-1-2.6-1.6c-0.3-1,0-1.9,1-1.9c6.7,0.3,11.8-5.1,18.2-5.1c-0.3,0.6-0.6,1.6-1.3,1.9c-4.8,5.4-3.5,9.3,3.5,11.8
					c4.8,7.4,12.5,11.5,18.9,16.6c37.4,27.8,72.3,58.8,107.7,88.9c29.4,24.6,60.1,47.6,94,66.5c13.4,7.4,27.2,15.3,42.2,19.2
					C744.2,463.1,746.8,463.5,749,464.1z"/>
				<path class="st14" d="M624.7,477.2c-9-5.4-17.6-11.2-26.5-16.9c-34.5-23-68.4-46.4-101.4-71.3c-10.9-8.3-21.4-16.6-32.3-24.9
					c-2.6-1.9-2.9-3.5-1.3-6.1c1.9-2.2,2.9-5.4,4.5-8c4.2-7.7,4.5-7.7,13.1-4.5c25.9,9.6,48.9,24.3,68.7,43.2
					c19.5,17.9,35.8,38.7,52.4,58.8c7.4,9.3,14.7,17.9,22.4,27.2c0.3,0.6,0.6,1.3,1,1.6C625.3,476.6,625,476.9,624.7,477.2z"/>
				<path class="st20" d="M646.7,309c-6.7,11.8-14.4,23.7-22.1,34.9c-5.1,7.4-10.2,14.7-14.7,22.4c-1.9,3.5-3.5,2.9-6.1,1
					c-9.9-8.6-20.1-16.9-30.1-25.6c-3.2-2.9-6.4-5.8-9.6-8.6c-2.9-1.9-2.6-4.2-0.6-6.7c11.8-16.3,22.1-32.9,32-50.2
					c4.2,5.4,4.8,10.2,0,16c-1.3,1.6-1.9,3.2-3.2,5.1c-2.2,2.2-3.2,5.4-5.4,8.6c4.8-1.3,5.4-5.4,8-7.7c1.9-2.6,3.5-5.1,5.4-7.7
					c1.6-2.2,2.9-1.9,4.8-0.3c5.8,6.1,13.1,10.2,20.5,14.1c2.9,1.6,3.2,2.6,1.9,5.4c-3.5,5.4-7,10.9-10.2,16.6
					c-1.9,3.5-4.5,7.7-2.6,13.1c4.8-7.4,9.6-13.7,13.4-20.5c3.8-7,8.6-11.8,17.3-9.3C645.8,309,646.1,309,646.7,309z"/>
				<path class="st17" d="M485.6,340c2.6-3.8,6.1-4.8,10.2-2.9c24,9.9,45.4,24,64.3,42.2c20.8,19.8,39,41.9,57.6,63.9
					c18.5,22.7,37.7,44.8,60.7,63c4.2,3.2,8,6.4,12.8,8.6c1.9,1,2.9,2.2,2.2,4.8s-1,5.4-1.3,8c-14.4-8.3-26.5-19.2-38.7-30.7
					c-22.4-21.4-41.2-46-61.1-70c-20.5-24.6-41.6-48-68.4-65.5C512.4,352.5,499.3,346.1,485.6,340z"/>
				<path class="st0" d="M534.5,268.4c2.9-5.1,5.4-9.9,9-14.4c1.9-2.9,1.6-4.8-1.6-6.4c-2.2-1.3-2.9,1.3-3.5,2.2
					c-2.9,3.8-5.4,8-8.6,12.1c-2.6-1.6-0.3-2.6,0.3-3.8c2.2-6.7,9.3-11.5,8-19.8c0.3,0,0.6,0,1,0c12.1,11.5,25.9,20.5,40.6,27.8
					c3.2,1.6,5.8,3.8,9.3,4.2c1.3,0,1.9,1,1.9,1.9c0,1.6-1.6,1.9-2.6,1.6c-0.3,0-0.3,0-0.6,0c-7-2.9-9.9,1.9-13.1,6.7
					c-4.2,7-9,13.7-13.1,20.5c-1.3,1.9-2.6,3.2-4.5,4.8c-0.3-5.1,1.9-9.3,4.5-13.1c3.2-5.8,6.7-11.8,10.2-17.6
					c1.9-2.9,2.2-5.1-1.9-6.7c-6.7-3.2-13.4-7.4-19.2-12.8c-2.6-2.2-3.8-1.9-5.4,1c-2.6,3.8-5.4,7.4-8.3,11.2
					C536.1,268.4,535.1,268.4,534.5,268.4z"/>
				<path class="st0" d="M667.5,369.1c3.5-9,9.6-16.3,14.4-24c1.9-2.9,1.9-4.2-1.6-5.4c-7.7-3.5-14.7-8.3-20.8-14.1
					c-2.2-2.2-4.2-2.6-5.4,1c-1.6,4.2-5.4,6.4-7.4,10.2c-1,0-1.9,0-2.9,0.3c2.6-4.5,5.4-9.3,8.3-13.4c1.9-3.2,1-5.8-0.6-9
					c-0.6-1-1.6-2.2-0.3-3.2s2.2,0,3.5,1.3c9.6,9.9,21.1,16.9,33.3,23.7c5.1,2.6,10.2,4.5,15.7,6.7c-1,0.6-1.9,1.3-2.9,1.9
					c-2.6-0.3-5.4-0.3-8-0.6c-1.9-0.3-3.2,1-4.5,2.2c-7,9.6-13.1,20.1-19.5,30.1C665.9,374.3,669.1,371.4,667.5,369.1z"/>
				<path class="st0" d="M646.7,309c-0.6,0-1-0.3-1.6-0.3c-9-2.2-13.4,2.2-17.3,9.3c-3.8,7-8.6,13.1-13.4,20.5
					c-1.9-5.4,0.6-9.3,2.6-13.1c2.9-5.4,6.7-11.2,10.2-16.6c1.9-2.6,1.3-3.8-1.9-5.4c-7.4-3.8-14.7-8-20.5-14.1
					c-1.9-1.9-3.2-1.9-4.8,0.3c-1.9,2.6-3.5,5.4-5.4,7.7c-1-0.3-1.9-0.6-2.6-1c1.3-1.9,1.9-3.5,3.2-5.1c4.8-5.4,4.2-10.6,0-16
					c-0.3-0.6-0.3-1.6-0.6-1.9c0.3-0.3,0.3-0.6,0.3-1l0,0c5.8,4.8,11.5,9.9,17.6,14.4c10.6,8,22.1,14.7,35.2,18.9
					c1,0.3,1.9,1,2.6,1.6C648.6,307.8,648,308.7,646.7,309z"/>
				<path class="st20" d="M537.7,238.7c1.6,8.3-5.4,13.1-8,19.8c-0.6,1.3-2.9,2.2-0.3,3.8c-4.8,9-11.8,16.6-16.6,24.9
					c-1.3,1.9-2.2,2.9-4.8,1.3c-1.9-1.9-4.2-2.6-2.2-5.8c4.5-7,8.6-14.4,13.1-21.7c3.8-6.1,7.7-12.1,11.8-17.6
					C532.6,240.6,534.2,237.7,537.7,238.7z"/>
				<path class="st19" d="M478.9,271.6c-7-2.2-8.3-6.4-3.5-11.8c0.6-0.6,1-1.6,1.3-1.9c9.3-0.3,17.3,1.9,24.3,7.4
					c1,0.6,1.9,1,3.2,1.6c0.6,0.3,1.3,0.6,1.6,1.3c0.6,1.6-6.1,8.3-7.7,8.3c-5.4,0-9.3-3.5-13.1-7c-1.6-1.3-2.2-2.9-4.8-1.9
					C477.6,267.8,479.5,269.7,478.9,271.6z"/>
				<path class="st14" d="M759.3,368.8c-4.2,1.3-7.7,0-10.9-2.2c-9-5.4-17.3-11.5-25.9-17.3c-1.9-1.6-4.8-2.9-1-5.4
					C734.7,351.6,747.8,358.9,759.3,368.8z"/>
				<path class="st19" d="M561.4,602.5c4.8,1.9,9,4.8,13.1,7.7c-5.4,8-10.9,15.7-16.6,23.7c-1.9,2.2-3.5,3.8-6.4,3.5
					c-6.4-0.6-9-5.4-5.4-10.9C551.1,618.5,556.2,610.5,561.4,602.5z"/>
				<path class="st0" d="M721.9,405.3c4.8-8,9.3-16,14.1-23.7c2.6-3.8,2.6-6.1-1.9-8c-8-3.2-15-8.3-21.1-14.1c-1.9-1.9-2.9-1-4.5,1
					c-5.4,5.8-8.3,13.1-15,18.5c2.6-6.4,6.4-11.5,9.6-16.6c2.6-4.5,5.4-8.3,2.6-13.4c-0.6-1-1-2.2,1-2.9c1.3-0.6,1.9,0.6,2.2,1.3
					c13.7,13.7,30.7,23.7,49.2,30.7c-1.9,1.9-4.8,1.9-6.4,1.3c-5.8-1.9-9,1.9-11.2,5.8c-5.4,8.6-10.6,16.9-16,25.9
					C721.5,409.7,724.1,405.9,721.9,405.3z"/>
				<path class="st13" d="M751.3,390.6c-2.9,10.6-9.3,19.2-16.9,26.5C738.8,407.8,744.2,398.9,751.3,390.6z"/>
				<path class="st14" d="M721.9,405.3c2.2,1.3-0.3,4.8,2.9,5.4c-0.6,1-1,1.9-1.9,2.2c-1.3,1.3-0.6,4.8-3.5,3.8c-1.9-1-1-3.5-1-5.4
					C718.3,408.5,720.3,406.9,721.9,405.3z"/>
				<path class="st14" d="M667.5,369.1c1.9,1.9-1.6,5.1,1.6,6.7c-1,1.9-1.9,5.1-3.5,4.5c-2.6-1.3-1.3-4.5-0.6-6.4
					C665.6,372,665.6,370.1,667.5,369.1z"/>
				<path class="st14" d="M644.2,336.8c1,0,1.9,0,2.9-0.3c-1.6,3.5-4.8,5.4-7.4,8.3C641,342.3,641,338.8,644.2,336.8z"/>
				<path class="st14" d="M534.5,268.4c1,0,1.9-0.3,2.2-0.3c-1.3,4.2-5.1,6.4-7.4,9.6C530,274.5,531.6,271,534.5,268.4z"/>
				<path class="st0" d="M595.3,273.5C595.3,273.5,595.3,273.2,595.3,273.5C594.9,273.2,595.3,273.2,595.3,273.5L595.3,273.5z"/>
				<path class="st14" d="M592.4,297.2c1,0.3,1.9,0.6,2.6,1c-2.2,2.2-3.2,6.4-8,7.7C589.2,302.6,589.8,299.4,592.4,297.2z"/>
			</g>
		</g>
		<polyline class="st13" points="644.6,591 674.6,541.1 659.6,536.2 638.2,571.1 		"/>
	</g>
	<g>
		<g>
			<path class="st1" d="M8.9,249c-6.2-10.7-5.2-19.6,3.2-28.7c9.1-9.8,19.6-17.8,30.5-25.4c20.8-14.4,42.4-27.5,67.2-34
				c11.8-3.1,20,0.5,26.3,10.6c7.4,11.8,14.7,23.7,21.9,35.6c1.3,2.2,3.2,4.7,3,6.9c-0.5,5.4,2.8,6,6.6,7.2
				c10.8,3.3,14.4,10.7,10.6,20c-1.1,2.7-5.7,4.4-3.4,8c1.7,2.6,4.7,4.3,7.2,6.3c1.7,1.3,3.5,2.4,5.3,3.6
				c16.9,11.2,35.7,18.3,54,26.6c21.6,9.8,43.3,19.6,60.4,36.8c12.9,13,22.6,28.4,32.7,43.6c15.9,23.9,53.8,89.1,65.9,115.2
				c3.9,8.5,5,17.3,6.2,26.5c1.8,14.3,7.3,28.1,9.9,42.3c2.1,11.7,8.1,19.5,17.7,25.9c15.8,10.6,28.7,24.1,38,41
				c17.9,32.7,6.6,76.5-25.3,95.8c-14.3,8.7-29.7,12.5-46.7,8.1c-13-3.4-16.5-0.8-20.7,12c-0.9,2.8-1.9,5.7-3,8.5
				c-7.9,19.7-21.9,33.2-42.3,38.9c-31.6,8.8-57-2.9-78-26.2c-14.2-15.8-21.4-34.8-23-55.9c-0.8-10.9-5.3-19.3-14.1-26
				c-9.8-7.5-18.9-16-28.5-23.9c-4.1-3.4-7.9-6.8-13.6-8.7c-6.5-2.2-10.1-9.5-14.4-15.1c-21.9-29-62-101.6-80-133
				c-14.4-25.1-20.4-51.8-18.8-80.6c0.7-12.6,1.3-25.2,1.8-37.8c0.7-16,0.4-32-3.5-47.8c-1.2-4.9-2.4-8.1-9.1-6.9
				c-10.6,1.9-16.7-5.1-14.6-15.8c1-5.4,3.4-10.5-4.3-12.9c-1.3-0.4-2.1-2.6-3-4c-3.7-6-7.3-12.1-11-18.1
				C16.4,261.4,12.6,255.3,8.9,249z M365.5,511.1c6.6-4.7,12.4-10.5,18.7-15.6c2.4-2,2.7-3.8,1.5-6.7
				c-10.9-26.3-49.8-90.4-65.1-114.1c-5.2-8.1-11.2-15.7-16.5-23.7c-2.2-3.3-3.4-3.4-6.8-0.9c-15.7,11.5-31.4,23.1-47.7,33.7
				c-36.1,23.4-72.6,46.2-110.3,67c-13.3,7.3-26.5,14.8-40.6,20.6c-4.9,2-6.3,4.1-3.3,9.5c13.9,25.4,51.4,91.1,66.9,115.4
				c4.4,6.8,9.1,13.4,14.3,19.7c2.2,2.7,3.9,2.7,7,1.6c30.4-11.5,58.6-27,86.5-43.5c4.4-2.6,8.8-5.3,13.2-8
				C311.9,549.6,338.8,530.5,365.5,511.1z M218.7,295.1c-5.4-2.6-9.5-4.5-13.7-6.5c-15.3-7.2-30.3-14.8-43-26.3
				c-2.3-2.1-3.9-2.2-6.5-0.1c-23.2,18.5-48.5,33.6-75.4,46.2c-1.8,0.9-4,1.3-2.9,4.5c7.1,20.6,7.3,41.9,6.3,63.3
				c0,0.3,0.4,0.7,1,1.7C127,347.6,171.5,320.5,218.7,295.1z M43.2,271.2c2.7,5.3,6.1,4.1,10,2.2c4.9-2.4,1.8-5.1,0.4-7.8
				c-5-8.9-9-18.5-14.9-26.8c-2.6-3.6-1.3-5.5,2.1-7.5c11.4-6.6,8.7-6.5,15,3.6c5.1,8.2,10.1,16.4,14.9,24.7c1.9,3.3,3.6,3.9,7.1,2
				c12.6-7,12.6-6.9,5.1-19.3c-4.6-7.5-9-15.1-13.7-22.5c-1.9-3-1.6-4.8,1.6-6.7c12.7-7.5,9.4-7,16,3.4c5.1,8.1,10.1,16.4,15,24.7
				c1.7,3,3.3,3.7,6.6,1.9c12.8-7,13.6-9.5,4.1-20.9c-5-6-8.4-12.9-12.8-19.2c-2.7-3.8-2.3-6.6,2.1-8.7c1.2-0.5,2.3-1.2,3.3-2
				c3.8-3.1,6.4-2.7,9,1.9c4.8,8.6,10.1,16.9,15.3,25.2c1.4,2.2,1.9,6.5,6.4,3.8c5.6-3.3,7.7-7.6,5.1-11.7
				c-3.4-5.4-7.3-10.5-10.8-15.8c-1.6-2.3-3-4.7-4.4-7.1c-8.5-14.9-8.8-13.5-24.8-7.2c-9.2,3.6-17.3,9.3-25.9,14
				c-16.2,9-31.8,19-45.9,31c-7.6,6.5-7.9,8.2-2.8,16.7c2.6,4.4,5.3,8.8,8,13.2c0,0,0,0,0,0C37.3,261.2,40.7,266,43.2,271.2z
				 M396.8,606.6c3.4,2.4,5.7,2.3,7.9-1.3c0.8-1.3,1.8-2.4,2.9-3.4c3.9-4,4-7.1-0.9-10.9c-11.1-8.6-16.2-21.2-21.1-33.7
				c-3.8-9.7-7.5-19.5-11.1-29.3c-1.6-4.4-3.6-5.3-8-2.4c-13,8.6-13.1,8.4-6.8,22.6c5.6,12.7,11.2,25.4,15.3,34.9
				C382,594.4,388.8,600.9,396.8,606.6z M154.4,244.7c2.2-1.8,5.9-3.8,5.1-6.8c-1-3.8-5.5-5.1-8.5-7.4c-1.7-1.3-2.5,0.7-3.6,1.6
				c-26.4,22.1-55,40.8-86.9,53.9c-5.5,2.2-7.6,10.2-3.7,14.4c2.3,2.5,4.9,0.4,7-0.5c16.6-6.4,32.3-14.8,54.1-27.9
				C126.6,266.8,140.8,256.2,154.4,244.7z M413.5,618.2c-1.2,1.6-0.2,3.2,1.3,4.4c17.7,14,28.3,32.2,31.5,54.6
				c0.2,1.3,0.3,2.8,1.9,2.9c1.8,0.1,2.4-1.5,3.1-2.8c4.8-9.3,6.5-19,3.9-29.2c-4-15.8-12.6-28.8-24.6-39.6
				c-3.5-3.1-5.5-3.7-7.7-2.5C420,609.7,416.6,613.8,413.5,618.2z M267.7,343c-12.5-12.4-26.8-21.6-43.6-27.2c-5-1.7-8.8-1.2-11.1,4
				c-2.4,5.4-1.2,8.8,4.4,11.3c15.4,7,28.9,16.5,38.7,30.6c1.5,2.1,2.9,2.1,4.8,0.8c1.8-1.2,3.6-2.2,5.5-3.3
				C277,352.2,277,352.2,267.7,343z"/>
			<path class="st2" d="M84.6,378c42.4-30.4,86.9-57.5,134.2-82.9c-5.4-2.6-9.5-4.5-13.7-6.5c-15.3-7.2-30.3-14.8-43-26.3
				c-2.3-2.1-3.9-2.2-6.5-0.1c-23.2,18.5-48.5,33.6-75.4,46.2c-1.8,0.9-4,1.3-2.9,4.5c7.1,20.6,7.3,41.9,6.3,63.3
				C83.5,376.6,83.9,376.9,84.6,378z"/>
			<path class="st3" d="M34.3,256.3c3,4.9,6.3,9.7,8.9,14.9c2.7,5.3,6.1,4.1,10,2.2c4.9-2.4,1.8-5.1,0.4-7.8
				c-5-8.9-9-18.5-14.9-26.8c-2.6-3.6-1.3-5.5,2.1-7.5c11.4-6.6,8.7-6.5,15,3.6c5.1,8.2,10.1,16.4,14.9,24.7c1.9,3.3,3.6,3.9,7.1,2
				c12.6-7,12.6-6.9,5.1-19.3c-4.6-7.5-9-15.1-13.7-22.5c-1.9-3-1.6-4.8,1.6-6.7c12.7-7.5,9.4-7,16,3.4c5.1,8.1,10.1,16.4,15,24.7
				c1.7,3,3.3,3.7,6.6,1.9c12.8-7,13.6-9.5,4.1-20.9c-5-6-8.4-12.9-12.8-19.2c-2.7-3.8-2.3-6.6,2.1-8.7c1.2-0.5,2.3-1.2,3.3-2
				c3.8-3.1,6.4-2.7,9,1.9c4.8,8.6,10.1,16.9,15.3,25.2c1.4,2.2,1.9,6.5,6.4,3.8c5.6-3.3,7.7-7.6,5.1-11.7
				c-3.4-5.4-7.3-10.5-10.8-15.8c-1.6-2.3-3-4.7-4.4-7.1c-8.5-14.9-8.8-13.5-24.8-7.2c-9.2,3.6-17.3,9.3-25.9,14
				c-16.2,9-31.8,19-45.9,31c-7.6,6.5-7.9,8.2-2.8,16.7C29,247.5,31.7,251.9,34.3,256.3C34.4,256.3,34.4,256.3,34.3,256.3z"/>
			<path class="st4" d="M375,583c7,11.4,13.8,17.9,21.8,23.6c3.4,2.4,5.7,2.3,7.9-1.3c0.8-1.3,1.8-2.4,2.9-3.4c3.9-4,4-7.1-0.9-10.9
				c-11.1-8.6-16.2-21.2-21.1-33.7c-3.8-9.7-7.5-19.5-11.1-29.3c-1.6-4.4-3.6-5.3-8-2.4c-13,8.6-13.1,8.4-6.8,22.6
				C365.3,560.8,370.8,573.5,375,583z"/>
			<path class="st2" d="M117.9,272c8.7-5.1,22.9-15.8,36.5-27.3c2.2-1.8,5.9-3.8,5.1-6.8c-1-3.8-5.5-5.1-8.5-7.4
				c-1.7-1.3-2.5,0.7-3.6,1.6c-26.4,22.1-55,40.8-86.9,53.9c-5.5,2.2-7.6,10.2-3.7,14.4c2.3,2.5,4.9,0.4,7-0.5
				C80.4,293.4,96,285.1,117.9,272z"/>
			<path class="st4" d="M423,605.9c-3,3.8-6.4,7.9-9.5,12.2c-1.2,1.6-0.2,3.2,1.3,4.4c17.7,14,28.3,32.2,31.5,54.6
				c0.2,1.3,0.3,2.8,1.9,2.9c1.8,0.1,2.4-1.5,3.1-2.8c4.8-9.3,6.5-19,3.9-29.2c-4-15.8-12.6-28.8-24.6-39.6
				C427.2,605.3,425.1,604.7,423,605.9z"/>
			<path class="st4" d="M266.4,359.2c10.6-6.9,10.6-6.9,1.3-16.1c-12.5-12.4-26.8-21.6-43.6-27.2c-5-1.7-8.8-1.2-11.1,4
				c-2.4,5.4-1.2,8.8,4.4,11.3c15.4,7,28.9,16.5,38.7,30.6c1.5,2.1,2.9,2.1,4.8,0.8C262.7,361.3,264.6,360.3,266.4,359.2z"/>
			<path class="st5" d="M95.4,480.9c-2.9-5.4-1.6-7.4,3.3-9.5c14.1-5.8,27.3-13.3,40.6-20.6c37.7-20.8,74.2-43.6,110.3-67
				c16.3-10.6,32-22.2,47.7-33.7c3.3-2.5,4.5-2.4,6.8,0.9c5.3,8,11.3,15.6,16.5,23.7c15.2,23.8,54.2,87.8,65.1,114.1
				c1.2,2.9,0.9,4.7-1.5,6.7c-6.3,5.1-12.1,10.9-18.7,15.6c-26.7,19.3-53.6,38.4-82.1,55c-4.4,2.7-8.8,5.4-13.2,8
				c-27.8,16.4-56.1,32-86.5,43.5c-3.1,1.2-4.8,1.1-7-1.6c-5.2-6.3-10-12.9-14.3-19.7C146.8,571.9,109.3,506.3,95.4,480.9z"/>
			<path class="st7" d="M335.9,456.3c-7.9-13-38.6-66.7-46.3-79.8c-2.1-3.5-3.5-4.2-7.2-1.7c-13.1,8.8-13.3,8.6-5.2,21.9
				c14.2,23.4,51.3,87.5,65.3,111c2.6,4.3,4.2,5.6,8.9,2.2c11.7-8.6,11.9-8.3,4.4-20.7C349.2,478.3,342.6,467.3,335.9,456.3
				C335.9,456.3,335.9,456.3,335.9,456.3z"/>
		</g>
	</g>
</g>
</svg>
