<?xml version="1.0" encoding="utf-8"?>
<!-- Generator: Adobe Illustrator 27.9.1, SVG Export Plug-In . SVG Version: 6.00 Build 0)  -->
<svg version="1.1" id="Layer_1" xmlns="http://www.w3.org/2000/svg" xmlns:xlink="http://www.w3.org/1999/xlink" x="0px" y="0px"
	 viewBox="0 0 665.4 586.3" style="enable-background:new 0 0 665.4 586.3;" xml:space="preserve">
<style type="text/css">
	.st0{fill:#FCCA1D;}
	.st1{fill:#181516;}
	.st2{fill:#FBFBFB;}
	.st3{fill:#3F383B;}
	.st4{fill:#716E6D;}
	.st5{fill:#B21F36;}
	.st6{fill:#7A1E2F;}
	.st7{opacity:0.74;fill:#FFCCD6;}
	.st8{fill:none;}
	.st9{fill:#CFCECE;}
	.st10{opacity:0.58;}
	.st11{fill:#FFFFFF;}
	.st12{fill:#FCFCFC;}
	.st13{fill:#232121;}
	.st14{fill:#8E1830;}
	.st15{fill:#D6D5D5;}
	.st16{fill:#FCCD2A;}
	.st17{fill:#FDFDFD;}
	.st18{fill:#FFDE83;}
	.st19{fill:#D1CDC5;}
	.st20{fill:#7F3211;}
	.st21{fill:none;stroke:#B21F36;stroke-miterlimit:10;}
</style>
<g>
	<circle class="st0" cx="326.1" cy="290.8" r="292.6"/>
	<g>
		<g>
			<path class="st1" d="M294.4,90.7c-4.4-9.6-2.7-17.1,5.2-24.2c8.6-7.6,18.3-13.5,28.2-19c19-10.5,38.5-19.8,60.2-23.2
				c10.3-1.6,17,2.1,21.5,11.3c5.2,10.7,10.4,21.4,15.6,32.2c0.9,2,2.3,4.3,2,6.2c-0.9,4.5,1.8,5.3,5,6.7c8.9,3.8,11.3,10.4,7.3,18
				c-1.2,2.2-5.3,3.3-3.5,6.5c1.2,2.3,3.6,4.1,5.6,6c1.3,1.3,2.8,2.4,4.2,3.5c13.4,11,28.9,18.7,43.7,27.3
				c17.6,10.3,35.2,20.4,48.3,36.6c9.9,12.2,16.8,26.2,24.1,40c11.5,21.7,38.2,80.5,46.2,103.8c2.6,7.6,2.8,15.2,3,23.1
				c0.3,12.3,3.8,24.6,4.8,36.9c0.8,10.1,5.2,17.3,12.9,23.6c12.5,10.4,22.4,23,28.8,38.2c12.4,29.4-1,65.8-29.8,79.5
				c-13,6.1-26.4,8.1-40.5,2.9c-10.8-4-14-2.1-18.7,8.4c-1,2.3-2.1,4.7-3.3,7c-8.4,16.1-21.5,26.4-39.4,29.5
				c-27.7,4.8-48.3-7.4-64.2-29c-10.8-14.7-15.3-31.5-14.8-49.6c0.3-9.4-2.8-16.9-9.8-23.4c-7.7-7.2-14.7-15.2-22.2-22.8
				c-3.2-3.3-6.2-6.5-10.8-8.6c-5.3-2.4-7.8-8.9-11-14.1c-16.1-26.6-44-91.9-56.7-120.2c-10.1-22.6-12.9-45.9-9.1-70.3
				c1.7-10.7,3.3-21.4,4.8-32.1c1.9-13.6,3.1-27.3,1.2-41c-0.6-4.2-1.3-7.1-7.2-6.7c-9.2,0.7-13.8-5.8-11.1-14.8
				c1.3-4.5,3.8-8.7-2.6-11.4c-1.1-0.5-1.6-2.4-2.2-3.7c-2.6-5.4-5.2-10.9-7.8-16.4C299.7,102,297,96.4,294.4,90.7z M575.6,344.9
				c6-3.5,11.5-7.9,17.3-11.7c2.2-1.5,2.6-3,1.8-5.5c-7-23.4-34.7-81.3-45.6-102.9c-3.7-7.3-8.1-14.3-12-21.6
				c-1.6-3-2.6-3.2-5.7-1.4c-14.4,8.5-28.7,17-43.5,24.6c-32.8,16.8-65.9,33.1-99.8,47.6c-11.9,5.1-23.9,10.3-36.4,14
				c-4.4,1.3-5.7,2.9-3.7,7.8c9.7,22.8,35.9,82,47.1,104.1c3.1,6.2,6.6,12.2,10.5,18c1.7,2.5,3.1,2.7,5.8,1.9
				c26.9-7.1,52.3-18,77.4-29.6c4-1.8,8-3.8,11.9-5.7C526.6,373,551.1,359,575.6,344.9z M469.2,148.1c-4.4-2.7-7.7-4.7-11.1-6.7
				c-12.4-7.5-24.6-15.3-34.4-26.1c-1.8-2-3.1-2.2-5.5-0.7c-21.4,13.8-44.3,24.4-68.2,32.9c-1.6,0.6-3.5,0.8-2.9,3.6
				c4.3,18.2,2.6,36.3-0.1,54.5c0,0.3,0.3,0.6,0.7,1.6C386.5,184.9,426.7,165.7,469.2,148.1z M321.7,112.6c1.8,4.7,4.9,4,8.4,2.7
				c4.4-1.6,2-4.2,1-6.6c-3.5-8-6.1-16.5-10.4-24.2c-1.9-3.3-0.6-4.8,2.5-6.2c10.3-4.7,8-4.8,12.5,4.3c3.6,7.4,7.2,14.8,10.6,22.4
				c1.3,2.9,2.7,3.6,5.9,2.3c11.3-4.9,11.4-4.8,6-16c-3.2-6.8-6.4-13.6-9.7-20.3c-1.4-2.7-0.9-4.2,1.9-5.6
				c11.5-5.3,8.6-5.1,13.3,4.3c3.7,7.4,7.2,14.8,10.6,22.3c1.2,2.7,2.5,3.4,5.5,2.2c11.5-4.9,12.4-6.9,5.3-17.5
				c-3.7-5.5-6-11.7-9.2-17.4c-1.9-3.5-1.4-5.9,2.5-7.2c1-0.4,2.1-0.8,3-1.4c3.5-2.3,5.7-1.8,7.5,2.4c3.3,7.7,7.1,15.3,10.9,22.8
				c1,2,1.1,5.7,5.1,3.8c5.1-2.3,7.2-5.8,5.3-9.5c-2.5-4.9-5.3-9.6-7.9-14.4c-1.1-2.1-2.1-4.3-3.1-6.4c-5.9-13.5-6.3-12.2-20.5-8.3
				c-8.2,2.3-15.5,6.4-23.3,9.7c-14.6,6.2-28.7,13.4-41.8,22.5c-7.1,4.9-7.4,6.3-3.8,14c1.9,4,3.8,7.9,5.7,11.9c0,0,0,0,0,0
				C317.6,103.6,320,108,321.7,112.6z M594,428.9c2.6,2.3,4.7,2.5,6.8-0.4c0.8-1,1.8-1.8,2.8-2.7c3.7-3.1,4-5.7,0.2-9.3
				c-8.7-8.3-11.9-19.4-15.1-30.6c-2.4-8.6-4.7-17.3-6.9-25.9c-1-3.9-2.6-4.8-6.6-2.7c-11.8,6.2-11.9,6-7.7,18.6
				c3.7,11.3,7.3,22.6,10,31C582.4,417.3,587.7,423.4,594,428.9z M418.7,99.6c2-1.4,5.4-2.7,4.9-5.4c-0.5-3.3-4.2-4.8-6.6-7
				c-1.3-1.2-2.2,0.3-3.2,1c-24.4,16.5-50.4,30-78.7,38.4c-4.8,1.4-7.4,8-4.4,11.9c1.7,2.3,4.1,0.7,6,0.2c14.7-4,28.8-9.8,48.5-19.1
				C393.2,116.1,406.2,108.2,418.7,99.6z M607.2,440.2c-1.1,1.3-0.4,2.7,0.8,3.8c13.9,13.5,21.3,29.9,22.1,49.2c0,1.1,0,2.4,1.4,2.7
				c1.5,0.3,2.2-1.1,2.9-2.1c4.9-7.5,7.1-15.6,5.8-24.5c-2-13.8-8.2-25.6-17.5-35.9c-2.7-2.9-4.4-3.7-6.3-2.8
				C613.5,433.6,610.3,436.8,607.2,440.2z M506.8,193.2c-9.6-11.6-21-20.7-34.8-27c-4.1-1.9-7.4-1.8-9.8,2.5
				c-2.5,4.4-1.8,7.4,2.8,10c12.5,7.3,23.2,16.6,30.3,29.4c1.1,1.9,2.3,2,4,1.1c1.6-0.9,3.3-1.6,4.9-2.4
				C513.9,201.9,513.9,201.8,506.8,193.2z"/>
			<path class="st2" d="M347.7,207.2c38.8-22.3,79-41.5,121.5-59.1c-4.4-2.7-7.7-4.7-11.1-6.7c-12.4-7.5-24.6-15.3-34.4-26.1
				c-1.8-2-3.1-2.2-5.5-0.7c-21.4,13.8-44.3,24.4-68.2,32.9c-1.6,0.6-3.5,0.8-2.9,3.6c4.3,18.2,2.6,36.3-0.1,54.5
				C346.9,205.9,347.3,206.2,347.7,207.2z"/>
			<path class="st3" d="M315.4,99.1c2.1,4.5,4.5,8.8,6.3,13.4c1.8,4.7,4.9,4,8.4,2.7c4.4-1.6,2-4.2,1-6.6c-3.5-8-6.1-16.5-10.4-24.2
				c-1.9-3.3-0.6-4.8,2.5-6.2c10.3-4.7,8-4.8,12.5,4.3c3.6,7.4,7.2,14.8,10.6,22.4c1.3,2.9,2.7,3.6,5.9,2.3c11.3-4.9,11.4-4.8,6-16
				c-3.2-6.8-6.4-13.6-9.7-20.3c-1.4-2.7-0.9-4.2,1.9-5.6c11.5-5.3,8.6-5.1,13.3,4.3c3.7,7.4,7.2,14.8,10.6,22.3
				c1.2,2.7,2.5,3.4,5.5,2.2c11.5-4.9,12.4-6.9,5.3-17.5c-3.7-5.5-6-11.7-9.2-17.4c-1.9-3.5-1.4-5.9,2.5-7.2c1-0.4,2.1-0.8,3-1.4
				c3.5-2.3,5.7-1.8,7.5,2.4c3.3,7.7,7.1,15.3,10.9,22.8c1,2,1.1,5.7,5.1,3.8c5.1-2.3,7.2-5.8,5.3-9.5c-2.5-4.9-5.3-9.6-7.9-14.4
				c-1.1-2.1-2.1-4.3-3.1-6.4c-5.9-13.5-6.3-12.2-20.5-8.3c-8.2,2.3-15.5,6.4-23.3,9.7c-14.6,6.2-28.7,13.4-41.8,22.5
				c-7.1,4.9-7.4,6.3-3.8,14C311.7,91.2,313.6,95.2,315.4,99.1C315.5,99.1,315.5,99.1,315.4,99.1z"/>
			<path class="st4" d="M577.5,407c4.9,10.3,10.2,16.5,16.5,22c2.6,2.3,4.7,2.5,6.8-0.4c0.8-1,1.8-1.8,2.8-2.7
				c3.7-3.1,4-5.7,0.2-9.3c-8.7-8.3-11.9-19.4-15.1-30.6c-2.4-8.6-4.7-17.3-6.9-25.9c-1-3.9-2.6-4.8-6.6-2.7
				c-11.8,6.2-11.9,6-7.7,18.6C571.2,387.2,574.7,398.5,577.5,407z"/>
			<path class="st2" d="M385.3,119.7c7.9-3.6,20.9-11.5,33.4-20.1c2-1.4,5.4-2.7,4.9-5.4c-0.5-3.3-4.2-4.8-6.6-7
				c-1.3-1.2-2.2,0.3-3.2,1c-24.4,16.5-50.4,30-78.7,38.4c-4.8,1.4-7.4,8-4.4,11.9c1.7,2.3,4.1,0.7,6,0.2
				C351.5,134.8,365.5,129,385.3,119.7z"/>
			<path class="st4" d="M616.4,430.6c-2.9,3-6.1,6.2-9.1,9.6c-1.1,1.3-0.4,2.7,0.8,3.8c13.9,13.5,21.3,29.9,22.1,49.2
				c0,1.1,0,2.4,1.4,2.7c1.5,0.3,2.2-1.1,2.9-2.1c4.9-7.5,7.1-15.6,5.8-24.5c-2-13.8-8.2-25.6-17.5-35.9
				C620,430.5,618.3,429.8,616.4,430.6z"/>
			<path class="st4" d="M504.3,206.9c9.6-5,9.6-5,2.5-13.6c-9.6-11.6-21-20.7-34.8-27c-4.1-1.9-7.4-1.8-9.8,2.5
				c-2.5,4.4-1.8,7.4,2.8,10c12.5,7.3,23.2,16.6,30.3,29.4c1.1,1.9,2.3,2,4,1.1C501,208.4,502.7,207.6,504.3,206.9z"/>
			<path class="st5" d="M348,295.8c-2-4.8-0.7-6.5,3.7-7.8c12.5-3.7,24.4-8.9,36.4-14c33.9-14.4,67-30.8,99.8-47.6
				c14.8-7.6,29.2-16.1,43.5-24.6c3.1-1.8,4.1-1.7,5.7,1.4c3.8,7.3,8.3,14.3,12,21.6c10.9,21.6,38.6,79.5,45.6,102.9
				c0.8,2.6,0.4,4.1-1.8,5.5c-5.8,3.8-11.3,8.2-17.3,11.7c-24.4,14.1-49,28.1-74.7,39.7c-4,1.9-7.9,3.8-11.9,5.7
				c-25.1,11.6-50.6,22.4-77.4,29.6c-2.7,0.7-4.2,0.5-5.8-1.9c-3.9-5.8-7.4-11.8-10.5-18C384,377.8,357.7,318.6,348,295.8z"/>
			<path class="st6" d="M414.2,405.4c-15.9-8.9-67.1-113.2-67.1-113.3c0,1,0.3,2.2,0.9,3.6c9.7,22.8,35.9,82,47.1,104.1
				c3.1,6.2,6.6,12.2,10.5,18c1.7,2.5,3.1,2.7,5.8,1.9c26.9-7.1,52.3-18,77.4-29.6c4-1.8,8-3.8,11.9-5.7
				c25.8-11.6,50.3-25.6,74.7-39.7C575.6,344.9,430.2,414.3,414.2,405.4z"/>
			<path class="st7" d="M555.1,295.6c-5.6-11.7-27.2-60.2-32.6-72c-1.5-3.2-2.6-3.9-6-2.1c-12,6.3-12,6.2-6.3,18.2
				c10.1,21.1,36.1,79,46.1,100.2c1.8,3.9,3.1,5.2,7.4,2.6c10.7-6.3,10.9-6,5.5-17.2C564.6,315.5,559.8,305.6,555.1,295.6
				C555.1,295.7,555.1,295.6,555.1,295.6z"/>
		</g>
	</g>
	<g>
		<g>
			<g>
				<path class="st8" d="M327.1,300.7c-0.6,1.7-1.3,3.4-2.1,5.1c-11,33-22,66.1-33,99.1c11-33,22-66.1,33-99.1
					C325.8,304.2,326.4,302.5,327.1,300.7z"/>
				<path class="st8" d="M107.9,378.9c-3.7-1.6-7.5-3.3-11.2-5C100.4,375.6,104.1,377.2,107.9,378.9z"/>
				<path class="st8" d="M96.7,373.8c-20.3-9.5-39.7-20.7-57.3-35.1c-7.3,21.9-14.8,43.7-21.9,65.6c7.1-21.9,14.6-43.8,21.9-65.6
					c0.6-1.8,1.1-3.5,1.7-5.3c-0.6,1.8-1.1,3.5-1.7,5.3C57,353.2,76.4,364.3,96.7,373.8z"/>
				<path class="st8" d="M277.5,152.6c0.5,0.3,1.1,0.7,1.6,1.1c0.6,0.3,1.2,0.5,1.7,0.8c-0.6-0.3-1.2-0.5-1.7-0.8
					C278.6,153.3,278.1,152.9,277.5,152.6z"/>
				<g>
					<path class="st1" d="M104.5,128.1c1,6.7-0.8,11.2-6.2,15.2c-8.8,6.6-14.2,15.5-17.7,26.2c-23.9,73-48.2,146-72.4,218.9
						c-1.9,5.6-3.2,11.4-5.4,16.8c-3.8,9.2-1.8,17.3,3.8,24.9c2.3,3,3.2,6.1,2.1,9.7c-3.3,11.4,1.1,20.3,9,28.1
						C30.3,480,45.2,488.4,60.6,496c26.5,13.1,54.2,23.2,82.7,30.9c24.4,6.6,49.1,12.2,74.7,11.4c3.3-0.1,6.6-0.5,9.8-0.9
						c11.1-1.5,19.5-6.9,24-17.4c1.3-3,3.3-4.7,6.3-5.6c10.2-2.9,15.9-9.5,19.1-19.8c12.4-39.2,25.7-78.1,38.6-117.2
						c0.2,0.1,0.4,0.1,0.6,0.2c13.4-40.5,26.8-81,40.3-121.5c3-9.1,2.7-18.1,0.6-27.1c-1.4-5.9-0.4-10.6,3.8-15.2
						c6.2-6.7,6.7-13,2.3-21c-6.2-11.1-15.9-18.6-26.3-25.3c-35.5-22.6-74.6-36.5-114.6-48.5c-25.2-7.6-50.8-13.9-77.4-15.1
						c-10.3-0.4-20.5,0.1-29.9,4.8C107.6,112.5,103.2,119.7,104.5,128.1z M22.2,442.4c65.4,43,137,66.6,215.3,72.2
						c-2.8,6.2-8.6,8.2-14.8,9.2c-13.9,2.2-27.7,0.6-41.3-2c-46.4-8.9-90.9-23.5-132.1-47.1c-8.7-5-17-10.7-23.6-18.5
						C22.2,452.1,20.5,447.5,22.2,442.4z M111.7,149.3c2.2-1.8,3.4-1.5,5.1,0.3c3.8,4,8.2,7.5,12.7,10.7
						c24.3,17,51.2,28.8,78.8,39.2c15.9,6,32.1,11.1,48.6,15c27,6.4,54,12.5,82.1,9.3c1.5-0.2,3.4-0.7,3.8,1.5
						c1.2,8.5,4.2,17,1.3,25.6c-1.2,3.4-2.3,6.8-3.5,10.2c-3.5,10.2-7.1,20.3-10.7,30.5c0,0,0,0,0,0c-0.8,3.1-1.7,6.1-2.8,9.1
						c-0.6,1.7-1.3,3.4-2.1,5.1c-11,33-22,66.1-33,99.1c-1.7,5.1-3.5,10.3-5.2,15.4c-7.5,22.6-14.9,45.1-22.4,67.7
						c-2.2,6.6-6.6,10.2-13.6,11.1c-5.5,0.8-11,1.5-16.5,1.6c-34.6,0.3-67.7-7.8-100.3-18c-24.3-7.6-47.9-17.3-70.3-29.6
						c-14.6-8-28.8-16.6-40.5-28.8c-5.5-5.7-8.2-12.3-5.7-19.9c7.1-21.9,14.6-43.8,21.9-65.6c0.6-1.8,1.1-3.5,1.7-5.3
						c1.1-3.3,2.1-6.7,3.2-10c9.8-29.8,19.6-59.5,29.4-89.3c1.1-3.4,2.5-6.8,3.7-10.2c0.3-1.2,0.6-2.5,0.9-3.7
						c1-3.7,2.3-7.2,3.8-10.7c2.4-7.5,5.1-15,7.4-22.6c0.8-2.5,1.5-5.1,2.2-7.6C95,167,101.7,157.1,111.7,149.3z M124.7,118.9
						c4.3-1.2,8.8-1.7,13.3-1.7c25.8,0,50.6,6,75.1,13c0,0,0,0,0,0l0.2,0.1c1,0.3,2.1,0.6,3.1,0.9c0.2,0,0.3,0.1,0.5,0.2l6.1,1.8
						c0.6,0,1.3,0.4,1.9,0.6c14.2,4.8,28.7,9.1,42.5,15.1c1.8,0.1,3.3,0.9,4.8,1.8c1.8,0.5,3.6,1.1,5.3,2c0.5,0.3,1.1,0.7,1.6,1.1
						c0.6,0.3,1.2,0.5,1.7,0.8c8.5,2.8,16.1,7.7,24.2,11.1c14.6,6.2,28.3,13.6,40.2,24.1c3.9,3.4,8.6,7.3,6.8,13.1
						c-1.8,5.6-7.7,6.4-12.9,7.2c-14.7,2.3-29.4,0.9-43.9-1.4c-38-6.1-74.5-17.6-109.7-33.1c-19-8.3-37.6-17.6-54-30.7
						c-4.9-3.9-9.5-8-12.4-13.8C116.2,124.7,117.8,120.8,124.7,118.9z"/>
					<path class="st1" d="M199.8,131c-7.2,2-14.1,4.6-15.6,13c-1.6,9.2,4.2,14.9,10.7,19.8c5.4,4.1,11.6,7.1,18.3,8.2
						c12.2,2.1,23.6,6,34.3,12.4c7.9,4.7,16.9,6.2,26.1,4.6c11.2-2,14.4-11.3,6.9-19.8c-5.2-6-11.6-10.7-19.3-12.5
						c-12.6-3-22.2-10.6-32.1-18.1c-1.8-0.7-3.5-1.4-5.3-2.2c0,0-8.8-2.8-9.2-3.6C209.8,131.8,204.8,130.9,199.8,131z M244.9,162.7
						c3.8-0.6,7.5,0.3,11.9,1.6c4.4,1.7,9.6,3.8,13,8.4c2.5,3.3,1.4,6.3-2.7,6.6c-9.9,0.6-18.2-3.2-25-10.1
						C239.3,166.3,240.7,163.3,244.9,162.7z M202.6,142.3c10.7-0.8,19.7,3,26.9,10.8c3.5,3.9,1.7,8.1-3.6,9.1
						c-4.4,0.8-8.6-0.3-12.7-1.6c-4.5-1.5-8.7-3.5-12.3-6.5c-0.5-0.4-1-0.9-1.5-1.4c-1.8-1.7-3.1-3.9-2.3-6.5
						C197.9,143.6,200.1,142.5,202.6,142.3z"/>
				</g>
				<path class="st9" d="M283.9,157.7c18.4,9.5,36.9,18.8,53.5,31.3c0.6,0.4,1.1,0.8,1.7,1.2c2.7,2.3,5.6,5.1,4.6,8.7
					c-0.9,3.1-4.8,3.6-7.9,4.1c-13,2.3-25.9,0.6-38.7-1.5c-19.6-3.3-38.6-9-57.8-14.3c-24.8-6.9-48.2-16.6-71.2-28
					c-10.6-5.3-19.8-12.6-29.7-18.9c-3.8-2.4-6.8-5.8-8.7-10.1c-1.7-3.8-0.8-5.7,3.5-6.6c9.2-1.8,18.3-0.8,27.4,0.1
					c12.9,1.2,25.6,3.7,38.3,6.2c0.4,0.1,0.6,0.7,1,1.1c-7.2,2-14.1,4.6-15.6,13c-1.6,9.2,4.2,14.9,10.7,19.8
					c5.4,4.1,11.6,7.1,18.3,8.2c12.2,2.1,23.6,6,34.3,12.4c7.9,4.7,16.9,6.2,26.1,4.6c11.2-2,14.4-11.3,6.9-19.8
					c-5.2-6-11.6-10.7-19.3-12.5c-12.6-3-22.2-10.6-32.1-18.1c2-1.3,3.7,0.1,5.4,0.6c9.2,3,18.4,6.1,27.6,9.1c1.7,0.6,3.4,2,5.4,0.5
					c1.8,0.1,3.3,0.9,4.8,1.8c0.9,4.1,3.8,3.7,6.8,3c0.6,0.3,1.2,0.5,1.7,0.8C280.2,157.1,282.5,157,283.9,157.7z"/>
				<path class="st9" d="M237.5,514.6c-2.8,6.2-8.6,8.2-14.8,9.2c-13.9,2.2-27.7,0.6-41.3-2c-46.4-8.9-90.9-23.5-132.1-47.1
					c-8.7-5-17-10.7-23.6-18.5c-3.5-4.1-5.2-8.8-3.5-13.8C87.6,485.4,159.2,509,237.5,514.6z"/>
				<path class="st2" d="M226,162.2c-4.4,0.8-8.6-0.3-12.7-1.6c-4.5-1.4-8.7-3.5-12.4-6.5c-0.5-0.4-1-0.9-1.5-1.4
					c-1.8-1.7-3.1-3.9-2.3-6.5c0.8-2.6,3-3.8,5.6-3.9c10.7-0.8,19.7,3,26.9,10.8C233.1,157,231.2,161.2,226,162.2z"/>
				<path class="st2" d="M226,162.2c-4.4,0.8-8.6-0.3-12.7-1.6c-4.5-1.5-8.7-3.5-12.3-6.5c3.6,3,7.8,5.1,12.4,6.5
					C217.4,162,221.6,163.1,226,162.2z"/>
				<path class="st2" d="M256.8,164.3c4.4,1.7,9.6,3.8,13,8.4c2.5,3.3,1.4,6.3-2.7,6.6c-9.9,0.6-18.2-3.2-25-10.1
					c-2.8-2.9-1.4-5.9,2.8-6.5C248.7,162.1,252.4,163,256.8,164.3z"/>
				<path class="st2" d="M272.3,150.6c1.8,0.5,3.6,1.1,5.3,2c0.5,0.3,1.1,0.7,1.6,1.1C276.1,154.4,273.2,154.7,272.3,150.6z"/>
				<path class="st5" d="M91.7,179.4c3.3-12.4,10-22.2,19.9-30.1c2.2-1.8,3.4-1.5,5.1,0.3c3.8,4,8.2,7.5,12.7,10.7
					c24.3,17,51.2,28.8,78.8,39.2c15.9,6,32.1,11.1,48.6,15c27,6.4,54,12.5,82.1,9.3c1.5-0.2,3.4-0.7,3.8,1.5
					c1.2,8.5,4.2,17,1.3,25.6c-1.2,3.4-2.3,6.8-3.5,10.2c-3.5,10.2-7.1,20.3-10.7,30.5c0,0,0,0,0,0c-0.8,3.1-1.7,6.1-2.8,9.1
					c-0.6,1.7-1.3,3.4-2.1,5.1c-11,33-22,66.1-33,99.1c-1.7,5.1-3.5,10.3-5.2,15.4c-7.5,22.6-14.9,45.1-22.4,67.7
					c-2.2,6.6-6.6,10.2-13.6,11.1c-5.5,0.8-11,1.5-16.5,1.6c-34.6,0.3-67.7-7.8-100.3-18c-24.3-7.6-47.9-17.3-70.3-29.6
					c-14.6-8-28.8-16.6-40.5-28.8c-5.5-5.7-8.2-12.3-5.7-19.9c7.1-21.9,14.6-43.8,21.9-65.6c15.4,12.6,32.2,22.7,49.8,31.4
					c-17.6-8.7-34.3-18.8-49.8-31.4c0.6-1.8,1.1-3.5,1.7-5.3c1.1-3.3,2.1-6.7,3.2-10c9.8-29.8,19.6-59.5,29.4-89.3
					c1.1-3.4,2.5-6.8,3.7-10.2c0.3-1.2,0.6-2.5,0.9-3.7c1-3.6,2.3-7.2,3.8-10.7c2.4-7.5,5.1-15,7.4-22.6
					C90.3,184.4,91,181.9,91.7,179.4z"/>
				<g>
					<g>
						<g>
							<path class="st6" d="M343,226.8c-0.1-0.5-0.2-1-0.2-1.6c-0.3-2.2-2.3-1.7-3.8-1.5c-8,0.9-15.9,1.1-23.8,0.7
								C324.4,225.9,333.6,226.8,343,226.8z"/>
						</g>
						<g>
							<path class="st6" d="M239.3,499.6c-34.6-0.9-67.4-10.2-99.6-21.6c-24-8.5-47.3-19-69.2-32.1c-14.3-8.5-28.2-17.6-39.4-30.2
								c-5.3-5.9-7.8-12.5-5-20.1c6.3-17.4,12.9-34.8,19.4-52.1c-2-1.5-4-3.1-6-4.8c-7.3,21.9-14.8,43.7-21.9,65.6
								c-2.5,7.7,0.3,14.2,5.7,19.9c11.7,12.2,25.9,20.8,40.5,28.8c22.4,12.3,46,22,70.3,29.6c32.6,10.3,65.7,18.4,100.3,18
								c5.6-0.1,11-0.8,16.5-1.6c0.5-0.1,0.9-0.1,1.4-0.2C247.9,499.4,243.6,499.7,239.3,499.6z"/>
						</g>
						<g>
							<path class="st6" d="M50.2,330.8c0.6-1.8,1.3-3.5,1.9-5.3c1.2-3.3,2.4-6.6,3.5-9.9c10.8-29.4,21.7-58.8,32.5-88.2
								c1.3-3.4,2.7-6.7,4.1-10.1c0.3-1.2,0.7-2.4,1.1-3.6c1.2-3.6,2.6-7.1,4.1-10.6c2.7-7.5,5.6-14.8,8.2-22.3
								c0.9-2.5,1.7-5,2.5-7.5c2.5-8.1,6.3-15,11.6-20.9c-1-0.9-2-1.9-3-2.9c-1.7-1.8-2.8-2.1-5.1-0.3c-10,7.9-16.6,17.7-19.9,30.1
								c-0.7,2.5-1.4,5.1-2.2,7.6c-2.3,7.6-5,15.1-7.4,22.6c-1.4,3.5-2.7,7.1-3.8,10.7c-0.3,1.2-0.7,2.4-0.9,3.7
								c-1.3,3.4-2.6,6.8-3.7,10.2c-9.8,29.7-19.6,59.5-29.4,89.3c-1.1,3.3-2.1,6.7-3.2,10c-0.6,1.8-1.1,3.5-1.7,5.3
								c2,1.6,4,3.2,6,4.8C47,339.3,48.6,335.1,50.2,330.8"/>
						</g>
					</g>
				</g>
				<g class="st10">
					<path class="st11" d="M208,205c-3.8-1.3-7.8-2.8-11.7-4.2c-24.8-9.3-53.7-21.3-80-39.8c-2-1.4-3.8-2.8-5.5-4.1
						c1-0.9,2-1.9,3.1-2.7c3.5,3.5,7.6,6.9,12.6,10.4c26.3,18.4,55.2,30.4,80,39.8c2.2,0.8,4.5,1.7,6.7,2.5
						C211.5,206.2,209.8,205.6,208,205z"/>
					<path class="st11" d="M125.4,474.2c28.6,9,62.7,18.1,98.7,17.8c4.9,0,9.8-0.7,14.9-1.4l1-0.1c5-0.7,7.8-3,9.3-7.6
						c5.2-15.7,22.4-67.7,22.4-67.7l5.2-15.4l33.1-99.4l0.1-0.3c0.7-1.4,1.3-3,1.9-4.7c1-2.9,1.9-5.9,2.7-8.7l0-0.2l0.1-0.2
						c1.4-4,2.8-8,4.2-12c2.2-6.2,4.3-12.3,6.5-18.5c1.2-3.4,2.3-6.8,3.5-10.2c1.7-5,0.9-10.4-0.2-16c3.1-0.1,6.2-0.3,9.3-0.6
						c0.2,1,0.4,2,0.5,2.9c1.2,6.1,2.3,11.9,0.4,17.3c-1.1,3.4-2.3,6.8-3.5,10.2c-2.1,6.2-4.3,12.4-6.5,18.5c-1.4,4-2.8,8-4.2,12
						l-0.1,0.2l0,0.2c-0.8,2.8-1.6,5.9-2.7,8.7c-0.6,1.7-1.2,3.2-1.9,4.7l-0.1,0.3l-33.1,99.4l-5.2,15.4c0,0-17.2,52-22.4,67.7
						c-1.5,4.6-4.3,6.9-9.3,7.6l-1,0.1c-5.2,0.7-10,1.4-14.9,1.4c-36,0.3-70.1-8.8-98.7-17.8c-4-1.3-8-2.6-11.9-3.9
						c-1.4-0.5-2.9-1-4.3-1.5C121.4,473,123.4,473.6,125.4,474.2z"/>
				</g>
			</g>
			<g>
				<g>
					<path class="st1" d="M317.6,309.4c-22.8,5-49.7,5.7-79.8,2.1c-10.5-1.3-20.3-3.6-29.2-6.9c-37.3-13.9-55.7-43.8-75.3-75.4
						c-10.6-17.1-21.5-34.9-35.7-49.7l-13.5-14.1l-5.8,18.7c-1.3,4.2-2.7,8.5-4.1,12.6c-1,3-2,6-3,9c-1.8,4.4-3,8-4,11.5
						c-0.3,1.2-0.6,2.4-0.9,3.5c-0.3,0.8-0.6,1.6-0.9,2.4c-0.9,2.4-1.8,4.9-2.7,7.4L54.1,257l4.7,5c17.7,18.5,35.3,42.4,57.7,72.7
						c10.5,14.1,22.3,30.2,35.7,47.6c15.7,20.5,34.1,34.8,54.7,42.5c0,0,0,0,0,0c33.4,12.4,65.9,5.1,87.3-3.3l5-1.9l3.7-10.8
						L337.3,305L317.6,309.4z"/>
				</g>
			</g>
			<path class="st11" d="M73.7,234.2c1.1-3.4,2.5-6.8,3.7-10.2c0.3-1.2,0.6-2.5,0.9-3.7c1-3.6,2.3-7.2,3.8-10.7
				c2.4-7.4,5-14.7,7.3-22.1c44.2,46.4,56.4,124.5,147.1,135.4c35.5,4.3,62.9,2.2,83.6-2.3c-9.4,28.1-18.7,56.3-28.1,84.4
				c-0.7,1.9-1.3,3.9-2,5.8c-31.9,12.5-85.7,20.9-128.7-35.4c-41.7-54.6-67.5-93.3-94.2-121.2C69.3,247.5,71.5,240.8,73.7,234.2z"/>
		</g>
		<path class="st11" d="M124.7,118.9c4.3-1.2,8.8-1.7,13.3-1.7c25.8,0,50.6,6,75.1,13c0,0,0,0,0,0l0.2,0.1c1,0.3,2.1,0.6,3.1,0.9
			c0.2,0,0.3,0.1,0.5,0.2l6.1,1.8c0.6,0,1.3,0.4,1.9,0.6c14.2,4.8,28.7,9.1,42.5,15.1c-1.9,1.4-3.7,0-5.4-0.5
			c-9.2-3-18.4-6.1-27.6-9.1c-1.7-0.6-3.4-1.9-5.4-0.6c-1.8-0.7-3.5-1.4-5.3-2.2c0,0-8.8-2.8-9.2-3.6c-4.8-0.9-9.8-1.8-14.8-1.8
			c-0.3-0.4-0.6-1-1-1.1c-12.7-2.5-25.4-5-38.3-6.2c-9.1-0.8-18.2-1.9-27.4-0.1c-4.2,0.8-5.1,2.8-3.5,6.6c1.9,4.3,4.9,7.7,8.7,10.1
			c9.9,6.3,19.1,13.6,29.7,18.9c23,11.4,46.4,21.1,71.2,28c19.2,5.3,38.2,11.1,57.8,14.3c12.8,2.1,25.7,3.8,38.7,1.5
			c3.1-0.5,7-1,7.9-4.1c1-3.5-1.9-6.4-4.6-8.7c-0.5-0.4-1.1-0.8-1.7-1.2c-16.6-12.6-35.1-21.8-53.5-31.3c-1.4-0.7-3.7-0.6-3-3.3
			c8.5,2.8,16.1,7.7,24.2,11.1c14.6,6.2,28.3,13.6,40.2,24.1c3.9,3.4,8.6,7.3,6.8,13.1c-1.8,5.6-7.7,6.4-12.9,7.2
			c-14.7,2.3-29.4,0.9-43.9-1.4c-38-6.1-74.5-17.6-109.7-33.1c-19-8.3-37.6-17.6-54-30.7c-4.9-3.9-9.5-8-12.4-13.8
			C116.2,124.7,117.8,120.8,124.7,118.9z"/>
	</g>
</g>
<rect x="0.5" y="0.5" class="st21" width="664.4" height="585.3"/>
</svg>
