<?xml version="1.0" encoding="utf-8"?>
<!-- Generator: Adobe Illustrator 27.9.1, SVG Export Plug-In . SVG Version: 6.00 Build 0)  -->
<svg version="1.1" id="Layer_1" xmlns="http://www.w3.org/2000/svg" xmlns:xlink="http://www.w3.org/1999/xlink" x="0px" y="0px"
	 viewBox="0 0 788.3 788.3" style="enable-background:new 0 0 788.3 788.3;" xml:space="preserve">
<style type="text/css">
	.st0{fill:#FCCA1D;}
	.st1{fill:#181516;}
	.st2{fill:#FBFBFB;}
	.st3{fill:#3F383B;}
	.st4{fill:#716E6D;}
	.st5{fill:#B21F36;}
	.st6{fill:#7A1E2F;}
	.st7{opacity:0.74;fill:#FFCCD6;}
	.st8{fill:none;}
	.st9{fill:#CFCECE;}
	.st10{opacity:0.58;}
	.st11{fill:#FFFFFF;}
	.st12{fill:#FCFCFC;}
	.st13{fill:#232121;}
	.st14{fill:#8E1830;}
	.st15{fill:#D6D5D5;}
	.st16{fill:#FCCD2A;}
	.st17{fill:#FDFDFD;}
	.st18{fill:#FFDE83;}
	.st19{fill:#D1CDC5;}
	.st20{fill:#7F3211;}
</style>
<g>
	<circle class="st0" cx="408.3" cy="293.6" r="292.6"/>
	<g>
		<g>
			<path class="st13" d="M644.1,524.3c0.3,0,0.7,0,1,0c4.1-1,7.8,0,10.2,3.7c2.4,3.7,1.4,7.2-1,10.2c-6.5,10.9-13.3,21.8-20.1,32.7
				c-14.3,22.8-29.3,45.3-42.9,68.5c-9.2,15-12.9,32.4-16,49.4c-0.3,1.7-0.7,3.1-1,4.8c-1.7,8.5-3.4,9.9-11.9,7.8
				c-8.2-2-14-7.5-18.1-14c-3.7-5.8-8.5-9.2-16-9.5c-11.6-0.3-20.4-6.5-25.2-17c-5.1-10.6-11.9-15.7-24.2-14.6
				c-9.9,0.7-17-5.5-22.1-13.3c-2.7-4.1-5.8-7.8-7.5-12.3c-2.4-5.8-6.1-7.2-11.9-7.2c-4.1,0-8.5-1-12.6-1.7
				c-11.9-1.7-20.8-8.2-26.9-18.1c-1.4-2-2.7-3.4-3.4-5.5c-2.7-8.5-9.2-11.2-17.7-12.3c-15-1.7-26.2-9.5-32.4-22.8
				c-4.4-9.9-11.9-13.3-21.5-15.3c-12.3-3.1-24.9-6.5-32.4-18.7c-2.7-4.4-2-6.8,2-9.9c12.9-8.9,24.9-18.1,35.4-29.6
				c11.9-12.9,20.1-28.3,29.3-42.9c20.1-32.7,39.2-65.4,57.2-99.1c1.4-2,3.1-4.4,4.8-6.5c9.9,1,10.6,2,12.6,9.5
				c-0.7,2-1.4,3.7-2,5.5c-14.6,27.9-30.7,55.2-47.4,81.8c-2.4,4.1-2.4,6.1,1.7,9.5c17.7,14,35.4,28.3,53.5,41.6
				c39.2,29.3,79.4,57.2,121.6,82.1c0,0.3,0,0.7-0.3,1c-1,1.7-2,2.7-3.1,4.4c-1.7-0.7-2.7-1.4-4.4-2c-30-18.4-59.6-37.8-88.2-58.6
				c-28.6-20.4-56.6-41.6-83.5-63.7c-3.7-3.1-5.1-2-7.2,1.7c-5.1,8.2-9.9,16.4-15.3,24.5c-2,2.7-2,4.4,1,6.8
				c25.6,22.1,52.5,43.6,80.1,63.7c43.9,32,88.9,62.3,137.6,86.5c2.7,1.7,4.4,1.4,5.8-1.7c5.8-9.5,11.6-18.7,17.7-27.9
				c2-2.7,1-3.7-1.7-5.5c-9.2-5.1-18.1-10.2-27.3-15.3c0.3-2,2-3.4,3.1-5.1c8.9,4.8,17.7,9.5,25.9,14c3.4,2,5.8,2.4,8.2-2
				c6.5-11.2,13.6-21.8,20.8-33C633.2,541.3,637.6,531.8,644.1,524.3z M454.3,606.4c0,1,0.7,1.7,1.4,2c1.4,2,2.4,4.8,3.7,6.8
				c12.9,20.8,11.2,19.8,33.4,20.1c5.8,0,10.2,2,12.9,7.5c0.7,1.7,1.7,2.7,2.4,4.1c2,4.4,4.4,8.9,7.8,12.3c2.4,5.1,7.2,6.5,12.3,7.2
				c5.1,0.7,10.2,0,15.3,1.4c5.8,5.8,9.5,14.3,16.7,19.8c0.3-0.7,0.7-0.7,1-1c2.4-12.3,4.1-24.9,8.2-36.8c0.7-2-0.7-2.4-2-3.1
				c-5.1-2.4-9.9-5.1-14.6-7.5c-12.3-6.8-24.5-14-36.5-21.1c-14-8.5-27.6-17-41.6-25.6c-1-1.7-2.7-2-4.4-3.1
				c-16.4-11.2-32.4-22.8-48.7-34.1c-1.4-1-2-2-3.7-2.7c-3.7-3.1-7.8-5.8-11.6-9.2c-18.4-14-36.1-28.6-53.8-42.9
				c-3.1-2.7-6.5-5.8-9.9-9.2c-2-2-3.1-1.4-4.8,0.3c-8.9,8.9-18.7,16.4-29.3,22.8c-4.4,2.7-2.4,4.1,0.7,5.8
				c5.8,3.4,11.9,4.8,17.7,6.1c20.8,5.8,16.7,1,26.9,20.4l0.3,0.3c4.8,10.2,13.3,15.3,24.5,17.4c6.5,1,14,0.3,19.1,5.8
				c0.3,1.7,1,2.7,2,3.7c7.5,17.7,19.8,28.6,40.5,27.3c1,0,2,0,2.4,0C447.5,602.3,451.3,603.3,454.3,606.4z M560.3,623.4
				c-3.7-2-7.5-4.1-11.2-6.1c-44.3-25.2-86.5-53.1-127.1-84.1c-16.7-12.9-33.4-25.9-49.7-38.8c-5.8-5.5-11.9-10.2-17.7-15.7
				c-1.7-1.7-3.7-2.4-4.4,0.3c-1,2.7-7.5,4.1-2.7,8.5c6.5,5.8,14,11.6,20.8,17.7c0.7,0.7,1.7,1.7,2,2
				c58.6,47.4,119.6,91.3,186.4,126.7c3.1,1.7,6.1,3.4,9.2,5.1c6.5,3.7,6.5,3.4,9.9-3.4c1.4-2.4,1-4.1-2-5.5
				C568.8,628.2,564.7,625.5,560.3,623.4z"/>
			<path class="st13" d="M411.2,343.6c-0.3-2.4,16.5-30.2,17.9-32.3c4.1-7.2,7.8-14.6,12.6-21.8c2-3.4,0.7-4.1-2-4.8
				c-8.9-1.7-17.7-3.1-26.6-5.5c-4.4-1.4-8.5-2.7-11.9-5.5c-6.8-5.1-7.5-11.6-1.4-17.7c5.1-4.8,10.6-8.2,16.4-11.9
				c2.4-1.7,5.5-3.1,7.5-5.1c7.5-5.8,12.6-12.9,12.9-22.5c0-3.1,0.3-6.1,0.7-9.5c0.3-6.5,2.4-9.9,8.9-9.9c7.2-0.3,13.3-4.1,20.8-3.7
				c10.9,0.3,20.8,3.1,29.6,8.9c3.4,2,4.8,1,6.1-2c3.4-5.8,7.2-11.2,10.9-17c9.5-14,15.7-16,31.3-10.6c15.7,5.5,29.6,14,43.9,22.8
				c41.9,26.2,84.5,52.8,126.1,79c20.4,12.9,41.6,25.6,60.6,40.5c11.2,8.9,12.3,14.6,4.8,26.9c-7.8,12.9-16,25.6-24.2,38.2
				c-2,2.7-2,4.4,1,6.5c4.1,2.7,7.8,6.5,11.9,9.9c9.2,6.1,12.9,16,18.4,24.9c3.1,4.8,1.7,9.5-3.1,13.3c-3.4,2.4-6.8,4.8-10.6,7.2
				c-11.9,8.2-20.4,19.1-25.6,32.7c-3.1,7.2-5.8,14.6-8.5,21.8c-2.4,6.5-6.1,9.2-13.6,9.2c-11.6,0-21.8-5.1-31.7-10.2
				c-3.1-1.7-6.1-5.8-9.5-4.8c-2.7,1.4-4.4,5.8-6.1,8.9c-2.4,4.1-5.5,7.8-7.8,11.9c-2,3.7-4.8,6.8-9.5,6.1c-5.1-0.7-6.8-4.4-8.2-8.9
				c3.7-9.9,9.9-17.7,15.3-26.6c1.7-2.7,2-4.4-1-6.5c-6.8-5.1-12.6-11.2-18.7-17c-4.8-5.1-9.9-9.5-16.7-11.6
				c-12.6-8.2-25.6-16.4-37.8-24.5c-48.7-31.7-96.1-65.1-141.4-101.2c-6.8-5.8-21,19.4-25.7,26.6
				C420.1,350.9,415.7,351.4,411.2,343.6z M521.4,204.4c2.7-4.4,5.8-8.9,9.2-12.9c1-1.4,1.4-3.7,3.7-2.4
				c-8.2,14.3-18.1,27.6-27.6,41.2c-3.1,4.4-2.7,7.2,1.4,9.9c1.7,1,2.7,2,4.1,3.1c11.9,9.5,23.8,18.7,35.4,28.6
				c2.7,2.4,4.1,2.4,6.5-0.7c9.5-13.6,18.7-27.3,27.6-41.6c2.4-4.1,3.7-9.9,9.2-11.9c0.3,0.7,0.3,1.7,0.7,2
				c-10.6,18.1-21.8,36.5-34.1,53.5c-2,2.7-2,4.8,0.7,7.2c3.7,2.7,6.8,5.8,10.2,9.2c10.6,9.2,21.5,18.1,32,27.3c2.4,2,4.1,2.7,6.5-1
				c5.1-8.2,10.2-16,15.7-23.8c8.2-12.3,16.4-24.5,23.5-37.1c1.4-0.7,2-1.7,3.7-1c0,2-1,3.7-2,5.5c-12.6,19.8-25.2,39.2-37.8,58.9
				c-2,2.7-2,4.8,0.7,6.8c14.6,11.9,29.3,24.2,45.3,34.7c2.4,1.7,3.4,2,5.5-1c8.9-14,18.1-26.9,26.6-40.9c5.5-8.9,11.9-16.7,16-25.9
				c1-0.7,2-1.4,3.1-2c2.7,3.7-1,6.1-2.4,8.5c-13.3,20.8-26.6,41.6-40.2,61.7c-2,2.4-2,4.1,1.4,5.8c4.8,2.7,9.5,6.1,14,9.5
				c14.6,9.5,29.6,18.1,45.3,25.9c3.7,2,6.1,1.7,8.9-2c8.5-12.9,17.4-25.6,25.6-38.5c5.5-8.2,9.9-16.4,15-24.5
				c4.1-6.8,3.4-9.9-2.7-15c-1.7-1.4-3.1-2.7-5.5-3.4c-12.3-10.6-26.2-18.4-40.2-26.9c-0.3-0.3-0.3-0.7-0.7-1
				c-22.5-14.3-45.3-28.6-67.8-42.9c-24.5-15.3-49.1-30-72.9-45.3c-14-8.9-27.6-17.4-43.3-22.5c-3.1-1-6.5-2.7-9.9-1
				c-0.3,0-0.7,0-1,0c-4.1-1-5.8,2.4-7.5,4.8c-4.4,6.1-8.5,12.6-12.6,18.7c-4.8,7.5-9.2,15.3-14,23.2c-2,3.4,0.3,4.8,2.4,6.1
				c2.4,2,3.4,1,5.1-1.4C509.5,222.1,516.7,213.9,521.4,204.4z M467.6,214.6c0.3-2-1.4-4.1,1.4-5.1c2-1,3.4,1,5.1,2
				c4.1,3.7,8.2,7.5,14,7.5c2,0,8.9-7.2,8.2-8.9c-0.3-0.7-1-1-1.7-1.4c-1-0.7-2.4-0.7-3.4-1.7c-7.8-5.8-16.7-8.2-25.9-7.8
				c-6.8,0-12.3,5.8-19.4,5.5c-1,0-1.4,1.4-1,2c0,1.4-0.3,2.7-0.3,4.1c1,17.4-6.5,29.6-21.5,38.2c-4.4,2.4-8.9,5.1-13.3,8.2
				c-2.7,2-7.2,3.7-6.1,7.8c0.7,4.4,5.5,5.5,9.2,6.1c20.8,5.5,41.6,8.5,61.7,15.7C488.7,293,503,300.5,516,309
				c28.6,18.7,51.4,43.9,72.9,69.8c21.1,25.6,41.2,51.4,65.1,74.6c12.6,12.3,25.6,23.8,41.2,32.7c5.8,4.8,12.9,7.2,19.8,9.9
				c13.3,4.4,15.7,3.4,19.8-9.5c7.8-23.2,19.8-42.9,41.6-55.5c5.8-3.1,5.8-6.1,1.7-11.9c-1.7-2-4.8-3.4-4.1-5.8
				c1-4.1-1.7-5.8-3.7-7.8c-6.1-5.8-12.9-11.2-20.1-15.7c-2,3.1-3.7,5.8-5.8,8.9c-1,1.7-1.4,2.4-0.3,4.4c4.4,6.1,9.5,11.6,18.1,10.6
				c1,0,2-0.7,2.7,0.7c0.3,1.4-0.7,2-1.7,3.1c-2.4,2-5.5,1.4-8.2,2c-2.4-0.7-5.5-1-7.8-2c-16.4-4.1-30.3-12.6-45-20.4
				c-36.1-19.8-68.8-44.6-100.2-70.9c-37.8-32-74.9-65.1-114.8-94.7C480.9,226.9,473.1,222.4,467.6,214.6z M623,433.7
				c0.3-0.3,0.7-0.7,0.7-0.7c-0.3-0.7-0.7-1.4-1-1.7c-7.8-9.9-16-19.1-23.8-29c-17.7-21.8-35.4-43.6-55.9-62.7
				c-21.8-20.1-45.7-35.8-73.2-46c-9.2-3.4-9.5-3.1-14,4.8c-1.7,2.7-2.7,5.8-4.8,8.5c-2,2.7-1.7,4.4,1.4,6.5
				c11.6,8.9,22.8,17.7,34.4,26.6c35.1,26.6,71.5,51.4,108,76C604.2,421.7,613.4,427.9,623,433.7z"/>
			<path class="st13" d="M429.5,313.1c-0.3-2.4,0.3-4.4,1.7-6.5c4.1-7.2,7.8-14.6,12.6-21.8c2-3.4,0.7-4.1-2-4.8
				c-8.9-1.7-17.7-3.1-26.6-5.5c-4.4-1.4-8.5-2.7-11.9-5.5c-6.8-5.1-7.5-11.6-1.4-17.7c5.1-4.8,10.6-8.2,16.4-11.9
				c2.4-1.7,5.5-3.1,7.5-5.1c7.5-5.8,12.6-12.9,12.9-22.5c0-3.1,0.3-6.1,0.7-9.5c0.3-6.5,2.4-9.9,8.9-9.9c7.2-0.3,13.3-4.1,20.8-3.7
				c10.9,0.3,20.8,3.1,29.6,8.9c3.4,2,4.8,1,6.1-2c3.4-5.8,7.2-11.2,10.9-17c9.5-14,15.7-16,31.3-10.6c15.7,5.5,29.6,14,43.9,22.8
				c41.9,26.2,84.5,52.8,126.1,79c20.4,12.9,41.6,25.6,60.6,40.5c11.2,8.9,12.3,14.6,4.8,26.9c-7.8,12.9-16,25.6-24.2,38.2
				c-2,2.7-2,4.4,1,6.5c4.1,2.7,7.8,6.5,11.9,9.9c9.2,6.1,12.9,16,18.4,24.9c3.1,4.8,1.7,9.5-3.1,13.3c-3.4,2.4-6.8,4.8-10.6,7.2
				c-11.9,8.2-20.4,19.1-25.6,32.7c-3.1,7.2-5.8,14.6-8.5,21.8c-2.4,6.5-6.1,9.2-13.6,9.2c-11.6,0-21.8-5.1-31.7-10.2
				c-3.1-1.7-6.1-5.8-9.5-4.8c-2.7,1.4-4.4,5.8-6.1,8.9c-2.4,4.1-5.5,7.8-7.8,11.9c-2,3.7-4.8,6.8-9.5,6.1c-5.1-0.7-6.8-4.4-8.2-8.9
				c3.7-9.9,9.9-17.7,15.3-26.6c1.7-2.7,2-4.4-1-6.5c-6.8-5.1-12.6-11.2-18.7-17c-4.8-5.1-9.9-9.5-16.7-11.6
				c-12.6-8.2-25.6-16.4-37.8-24.5C547.7,386,500.3,352.6,455,316.5c-6.8-5.8-6.8-5.5-11.6,1.7C435.6,321.2,433.5,320.2,429.5,313.1
				z M523.5,199.3c2.7-4.4,5.8-8.9,9.2-12.9c1-1.4,1.4-3.7,3.7-2.4c-8.2,14.3-18.1,27.6-27.6,41.2c-3.1,4.4-2.7,7.2,1.4,9.9
				c1.7,1,2.7,2,4.1,3.1c11.9,9.5,23.8,18.7,35.4,28.6c2.7,2.4,4.1,2.4,6.5-0.7c9.5-13.6,18.7-27.3,27.6-41.6
				c2.4-4.1,3.7-9.9,9.2-11.9c0.3,0.7,0.3,1.7,0.7,2c-10.6,18.1-21.8,36.5-34.1,53.5c-2,2.7-2,4.8,0.7,7.2c3.7,2.7,6.8,5.8,10.2,9.2
				c10.6,9.2,21.5,18.1,32,27.3c2.4,2,4.1,2.7,6.5-1c5.1-8.2,10.2-16,15.7-23.8c8.2-12.3,16.4-24.5,23.5-37.1c1.4-0.7,2-1.7,3.7-1
				c0,2-1,3.7-2,5.5c-12.6,19.8-25.2,39.2-37.8,58.9c-2,2.7-2,4.8,0.7,6.8c14.6,11.9,29.3,24.2,45.3,34.7c2.4,1.7,3.4,2,5.5-1
				c8.9-14,18.1-26.9,26.6-40.9c5.5-8.9,11.9-16.7,16-25.9c1-0.7,2-1.4,3.1-2c2.7,3.7-1,6.1-2.4,8.5c-13.3,20.8-26.6,41.6-40.2,61.7
				c-2,2.4-2,4.1,1.4,5.8c4.8,2.7,9.5,6.1,14,9.5c14.6,9.5,29.6,18.1,45.3,25.9c3.7,2,6.1,1.7,8.9-2c8.5-12.9,17.4-25.6,25.6-38.5
				c5.5-8.2,9.9-16.4,15-24.5c4.1-6.8,3.4-9.9-2.7-15c-1.7-1.4-3.1-2.7-5.5-3.4c-12.3-10.6-26.2-18.4-40.2-26.9
				c-0.3-0.3-0.3-0.7-0.7-1c-22.5-14.3-45.3-28.6-67.8-42.9c-24.5-15.3-49.1-30-72.9-45.3c-14-8.9-27.6-17.4-43.3-22.5
				c-3.1-1-6.5-2.7-9.9-1c-0.3,0-0.7,0-1,0c-4.1-1-5.8,2.4-7.5,4.8c-4.4,6.1-8.5,12.6-12.6,18.7c-4.8,7.5-9.2,15.3-14,23.2
				c-2,3.4,0.3,4.8,2.4,6.1c2.4,2,3.4,1,5.1-1.4C510.9,217,518,208.8,523.5,199.3z M469.7,209.5c0.3-2-1.4-4.1,1.4-5.1
				c2-1,3.4,1,5.1,2c4.1,3.7,8.2,7.5,14,7.5c2,0,8.9-7.2,8.2-8.9c-0.3-0.7-1-1-1.7-1.4c-1-0.7-2.4-0.7-3.4-1.7
				c-7.8-5.8-16.7-8.2-25.9-7.8c-6.8,0-12.3,5.8-19.4,5.5c-1,0-1.4,1.4-1,2c0,1.4-0.3,2.7-0.3,4.1c1,17.4-6.5,29.6-21.5,38.2
				c-4.4,2.4-8.9,5.1-13.3,8.2c-2.7,2-7.2,3.7-6.1,7.8c0.7,4.4,5.5,5.5,9.2,6.1c20.8,5.5,41.6,8.5,61.7,15.7
				c14.3,6.1,28.6,13.6,41.6,22.1c28.6,18.7,51.4,43.9,72.9,69.8c21.1,25.6,41.2,51.4,65.1,74.6c12.6,12.3,25.6,23.8,41.2,32.7
				c5.8,4.8,12.9,7.2,19.8,9.9c13.3,4.4,15.7,3.4,19.8-9.5c7.8-23.2,19.8-42.9,41.6-55.5c5.8-3.1,5.8-6.1,1.7-11.9
				c-1.7-2-4.8-3.4-4.1-5.8c1-4.1-1.7-5.8-3.7-7.8c-6.1-5.8-12.9-11.2-20.1-15.7c-2,3.1-3.7,5.8-5.8,8.9c-1,1.7-1.4,2.4-0.3,4.4
				c4.4,6.1,9.5,11.6,18.1,10.6c1,0,2-0.7,2.7,0.7c0.3,1.4-0.7,2-1.7,3.1c-2.4,2-5.5,1.4-8.2,2c-2.4-0.7-5.5-1-7.8-2
				c-16.4-4.1-30.3-12.6-45-20.4c-36.1-19.8-68.8-44.6-100.2-70.9c-37.8-32-74.9-65.1-114.8-94.7C482.3,221.8,474.4,217,469.7,209.5
				z M624.7,428.6c0.3-0.3,0.7-0.7,0.7-0.7c-0.3-0.7-0.7-1.4-1-1.7c-7.8-9.9-16-19.1-23.8-29c-17.7-21.8-35.4-43.6-55.9-62.7
				c-21.8-20.1-45.7-35.8-73.2-46c-9.2-3.4-9.5-3.1-14,4.8c-1.7,2.7-2.7,5.8-4.8,8.5c-2,2.7-1.7,4.4,1.4,6.5
				c11.6,8.9,22.8,17.7,34.4,26.6c35.1,26.6,71.5,51.4,108,76C605.6,416.6,615.5,422.4,624.7,428.6z"/>
			<path class="st0" d="M649.2,459.2c6.1,5.8,11.9,11.9,18.7,17c2.7,2,2.4,3.7,1,6.5c-5.5,8.9-11.6,17-15.3,26.6
				c-3.1,5.1-6.1,9.9-9.5,15c-6.5,7.8-10.9,17-16.4,25.6c-7.2,10.9-14,21.8-20.8,33c-2.4,4.1-4.8,3.4-8.2,2
				c-8.9-4.8-17.7-9.5-25.9-14l0.3-0.3c13.3-19.4,26.6-38.5,39.9-57.9C625,494.3,636.9,476.6,649.2,459.2z"/>
			<path class="st0" d="M431.8,340.7c3.7-5.5,7.8-10.9,9.9-17.4c4.8-6.8,4.8-6.8,11.6-1.7c45.3,36.1,92.7,69.5,141.4,101.2
				c12.6,8.2,25.6,16.4,37.8,24.5c-11.2,17.7-22.5,35.4-34.1,53.1c-13.3,20.1-26.2,40.5-39.5,60.6c-42.2-24.9-82.4-52.8-121.6-82.1
				c-18.1-13.6-36.1-27.6-53.5-41.6c-4.1-3.1-4.1-5.5-1.7-9.5c16.7-26.6,32.7-53.8,47.4-81.8C430.5,344.4,430.8,342.4,431.8,340.7z"
				/>
			<path class="st14" d="M569.8,575c9.2,5.1,18.1,10.2,27.3,15.3c2.4,1.4,3.4,2.4,1.7,5.5c-5.8,9.2-11.9,18.4-17.7,27.9
				c-1.7,2.4-2.7,2.7-5.8,1.7c-48.7-24.5-93.3-54.8-137.6-86.5c-27.6-20.1-54.2-41.2-80.1-63.7c-2.7-2.4-2.7-3.7-1-6.8
				c5.5-7.8,10.2-16,15.3-24.5c2-3.4,3.4-4.8,7.2-1.7c26.9,22.1,54.8,43.3,83.5,63.7c28.6,20.8,57.9,40.2,88.2,58.6
				c1.4,1,2.7,1.7,4.4,2c0,0.3,0,0.7,0,0.7c-5.5,8.5-10.9,17-16.4,25.6c-3.7,5.8-1.4,10.9,5.8,11.6c3.1,0.3,5.5-1.4,6.8-3.7
				c5.8-8.5,11.6-16.7,17.7-25.2C569.5,575.4,569.8,575,569.8,575z"/>
			<path class="st17" d="M508.5,646.9c-1-1.4-2-2.4-2.4-4.1c-2.4-5.8-6.8-7.5-12.9-7.5c-22.1-0.3-20.8,0.7-33.4-20.1
				c-1.4-2-2.4-4.8-3.7-6.8c5.5-6.5,12.3-10.9,18.7-16c14,8.5,27.6,17.4,41.6,25.6c11.9,7.2,24.2,14,36.5,21.1
				c-2.7,9.9-5.8,19.1-8.9,29c-5.1-1.7-10.2-0.7-15.3-1.4c-5.1-0.7-9.9-2-12.3-7.2c1.7-3.4,2.7-6.8,4.8-9.9
				c2.4-4.1,4.4-8.5,5.8-12.9c0.7-2,1.4-5.1-1.7-6.1c-2-1-3.7,1-5.1,2c-1.4,1.7-2,3.4-3.7,5.1C513.9,640.5,513.6,645.2,508.5,646.9z
				"/>
			<path class="st17" d="M398.5,571c-5.5-5.8-12.6-5.1-19.1-5.8c-11.2-2-19.4-6.8-24.5-17.4c0-0.3-0.3-0.3-0.3-0.3
				c-10.2-19.4-6.1-14.6-26.9-20.4c1-2.4,3.1-3.7,5.1-5.5c6.8-6.8,14-13.6,20.1-21.1c17.7,14.3,35.4,29.3,53.8,42.9
				c4.1,2.7,7.8,5.8,11.6,9.2c-1,3.4-3.7,5.1-5.8,7.2C407.3,563.5,402.2,566.2,398.5,571z"/>
			<path class="st17" d="M556.2,633.3c-66.8-35.1-127.8-79-186.4-126.7c-1-0.7-1.7-1.7-2-2c1.7-3.4,2.7-6.8,4.4-10.2
				c16.7,12.9,33,25.9,49.7,38.8c40.5,30.7,82.8,58.9,127.1,84.1c3.7,2,7.5,4.1,11.2,6.1C558.6,626.8,557.2,630.2,556.2,633.3z"/>
			<path class="st18" d="M558.9,561.4c13.3-20.1,26.2-40.5,39.5-60.6c11.6-17.7,22.8-35.4,34.1-53.1c6.5,2,11.9,6.5,16.7,11.6
				c-11.9,17.7-24.2,35.1-36.1,52.8c-13.3,19.4-26.6,38.5-39.9,57.9c-4.8-2.4-9.9-5.1-14.3-7.5C558.9,562.1,558.9,561.8,558.9,561.4
				z"/>
			<path class="st17" d="M422,554.9c16.4,11.2,32.4,22.8,48.7,34.1c-1,2.4-2.7,4.4-4.8,5.8c-4.1,3.4-8.5,5.8-10.9,10.9
				c-3.1-2.7-7.2-3.7-11.2-4.1c-1,0-2,0-2.4,0c-20.4,1.7-32.7-9.5-40.5-27.3c0.7-2,2-3.1,3.4-4.4C409.7,565.5,416.5,561.1,422,554.9
				z"/>
			<path class="st19" d="M352.5,500.4c-5.8,7.8-13.3,14-20.1,21.1c-2,2-4.1,3.1-5.1,5.5c-6.1-1.7-12.3-2.7-17.7-6.1
				c-3.1-2-5.1-2.7-0.7-5.8c10.2-6.5,20.4-14,29.3-22.8c1.7-1.7,2.7-2,4.8-0.3C346,494.6,349.4,497.4,352.5,500.4z"/>
			<path class="st19" d="M544.3,667.7c2.7-9.9,5.8-19.1,8.9-29c5.1,2.4,9.9,5.1,14.6,7.5c1.4,0.7,2.4,1.4,2,3.1
				c-4.1,11.9-5.5,24.5-8.2,36.8c0,0.3-0.3,0.7-1,1C553.1,682,550.1,673.8,544.3,667.7z"/>
			<path class="st19" d="M371.9,494.3c-1.7,3.4-2.7,6.8-4.4,10.2c-6.8-5.8-14-11.6-20.8-17.7c-4.8-4.4,2-5.8,2.7-8.5
				c1-2.7,2.7-2,4.4-0.3C360,483.7,366.1,489.2,371.9,494.3z"/>
			<path class="st19" d="M508.5,646.9c5.1-1.4,5.8-6.1,8.5-9.5c1.7-1.7,2.4-3.4,3.7-5.1c1.4-1.7,2.7-3.1,5.1-2
				c2.4,1.4,2,4.1,1.7,6.1c-1.7,4.4-3.4,8.9-5.8,12.9c-2,3.1-3.1,6.5-4.8,9.9C513.3,655.4,510.5,651.4,508.5,646.9z"/>
			<path class="st19" d="M556.2,633.3c1.4-3.4,2.4-6.5,3.7-9.9c4.4,2,8.9,4.4,13.3,6.5c2.7,1.4,2.7,2.4,2,5.5
				c-3.1,6.8-2.7,6.8-9.9,3.4C562.3,637,559.3,635.3,556.2,633.3z"/>
			<path class="st20" d="M558.6,562.4c4.8,2.4,9.9,5.1,14.3,7.5l-0.3,0.3c-1,2-2.7,3.1-3.1,5.1c0,0-0.3,0.3-0.7,0.3
				c-4.4-3.1-9.2-5.8-14-8.2c0-0.3,0-0.7,0-0.7C556.9,565.2,557.6,563.5,558.6,562.4z"/>
			<path class="st19" d="M422,554.9c-5.5,5.8-12.3,9.9-18.1,15.3c-1.7,1.4-2.7,2.4-3.4,4.4c-1.4-1-1.7-2.4-2-3.7
				c3.7-5.1,9.2-7.8,14-11.6c2.4-2,5.5-3.7,5.8-7.2C419.9,552.9,420.9,554.3,422,554.9z"/>
			<path class="st19" d="M454.3,606.4c2.4-5.1,6.8-7.5,10.9-10.9c2-2,4.1-3.4,4.8-5.8c1.7,0.7,3.4,1.4,4.4,3.1
				c-6.5,5.1-13.6,9.5-18.7,16C455,608.1,454.3,607.4,454.3,606.4z"/>
			<path class="st20" d="M766.4,318.2c2,0.7,3.7,2,5.5,3.4c6.1,5.1,6.8,8.2,2.7,15c-5.1,8.2-9.9,16.4-15,24.5
				c-8.5,12.9-17.4,25.6-25.6,38.5c-2.4,3.7-5.1,4.1-8.9,2c-15.7-7.8-30.7-16.7-45.3-25.9c-4.8-3.1-9.5-6.5-14-9.5
				c-2.7-2-2.7-3.4-1.4-5.8c13.6-20.8,26.9-41.2,40.2-61.7c1.7-2,5.5-4.8,2.4-8.5c-5.8-2-11.2-4.1-16.7-7.2
				c-12.9-7.2-25.2-14.3-35.4-25.2c-1-1-2-2-3.7-1.4c-1.4,1,0,2.4,0.3,3.4c1.7,3.1,2.7,5.8,0.7,9.5c-3.1,4.8-5.8,9.9-8.9,14.3
				c-3.1,2-3.1,5.8-4.8,8.5c2.7-2.7,6.1-4.8,7.8-8.9c2-4.1,6.1-6.5,7.8-10.9c1.4-3.7,3.1-3.4,5.8-1c6.5,6.1,14,11.2,22.1,15
				c3.4,1.7,3.4,2.7,1.7,5.8c-5.1,8.9-11.6,16.4-15.3,25.6c-2,1-2,3.1-2.7,4.8c-0.7,2.4-2,5.8,0.7,6.8c1.7,0.7,2.7-2.7,3.7-4.8
				c6.5-10.6,13.3-21.8,20.8-32c1.4-2,2.4-2.7,4.8-2.4c2.7,0.3,5.8,0.3,8.5,0.7c-4.1,9.5-10.6,17.7-16,25.9
				c-8.5,14-17.7,27.3-26.6,40.9c-2,2.7-2.7,2.4-5.5,1C640.7,348.2,626,335.9,611,324c-2.7-2.4-2.4-4.1-0.7-6.8
				c12.9-19.4,25.6-39.2,37.8-58.9c1-1.7,2-3.4,2-5.5c-1-0.7-2-1.4-2.7-1.7c-14-4.4-25.6-11.6-37.5-20.1
				c-6.5-4.8-12.6-10.2-18.7-15.3v-0.3c0,0,0,0.3,0.3,0.3c0,0.3,0,0.7-0.3,1c-5.5,2-6.5,7.8-9.2,11.9c-8.9,14-17.7,27.9-27.6,41.6
				c-2,3.4-3.7,3.1-6.5,0.7c-11.6-9.9-23.5-19.1-35.4-28.6c-1.4-1.4-2.7-2-4.1-3.1c-4.4-2.7-4.4-5.8-1.4-9.9
				c9.5-13.6,19.4-26.6,27.6-41.2c3.1,2,3.7,3.7,1.7,6.8c-3.4,5.1-6.1,10.2-9.5,15.3c-3.1,2.4-4.4,6.1-5.1,9.9
				c2-3.7,6.1-5.8,7.8-10.2c2.7-4.1,6.1-7.8,8.9-11.9c2-3.1,3.4-3.4,5.8-1c5.8,5.8,12.9,9.9,20.4,13.6c4.4,2,3.7,4.1,2,7.2
				c-3.7,6.1-7.5,12.6-10.9,18.7c-2.4,4.4-4.8,8.9-4.8,14c2-1.7,3.4-3.1,4.8-5.1c4.8-7.2,9.9-14.3,14-21.8c3.1-5.5,6.1-10.2,14-7.2
				c0,0,0.3,0,0.7,0c1.4,0,2.4,0,2.7-1.7c0-1.4-1-2-2-2c-3.7-0.3-6.8-2.7-9.9-4.4c-16-7.8-30.3-17.7-43.3-29.6c3.4-2,6.8-0.3,9.9,1
				c15.7,5.1,29.6,14,43.3,22.5c24.2,15.3,49.1,30,72.9,45.3c22.5,14,45.3,28.6,67.8,42.9c0.3,0.3,0.3,0.7,0.7,1
				c-4.1,2.7-1.4,4.4,1,5.8c9.2,6.1,18.4,12.6,27.6,18.4C758.2,318.2,762.3,319.9,766.4,318.2z M726.5,357c-1.4,2-3.4,3.7-3.4,6.5
				c0,2-1.4,5.1,1,5.8c2.7,1.4,2-2.7,3.7-4.1c0.7-0.7,1.4-2,2-2.4c5.8-9.2,11.2-18.4,17-27.6c2.7-4.1,5.8-7.8,11.9-6.1
				c2,0.7,4.8,0.3,6.8-1.4c-19.8-7.5-37.5-17.7-52.5-32.7c-0.7-0.7-1.4-2-2.4-1.4c-2,0.7-1.4,2-1,3.1c3.1,5.8,0,9.9-2.7,14.3
				c-3.4,5.8-7.5,10.9-10.2,17.7c7.2-5.8,10.2-14,16-19.8c1.7-1.7,2.4-2.7,4.8-1c6.5,6.1,14,11.2,22.5,15c4.8,2,4.8,4.4,2,8.5
				C736.1,340,731.3,348.5,726.5,357z M757.9,341.3c-7.2,8.9-13.3,18.1-18.1,28.3C747.7,361.8,754.5,352.9,757.9,341.3z"/>
			<path class="st19" d="M755.5,419.7c2.7-0.7,5.8,0,8.2-2c1-0.7,2-2,1.7-3.1c-0.3-1.4-2-1-2.7-0.7c-8.9,1-14-4.4-18.1-10.6
				c-1.4-1.7-0.7-2.7,0.3-4.4c2-2.7,3.7-5.8,5.8-8.9c7.2,4.4,14,9.9,20.1,15.7c2,2,5.1,3.7,3.7,7.8c-0.7,2,2.7,3.7,4.1,5.8
				c4.1,5.5,3.7,8.9-1.7,11.9c-21.8,12.6-33.7,32.4-41.6,55.5c-4.4,12.9-6.5,14-19.8,9.5c-6.8-2.4-14-5.1-19.8-9.9
				c0.3-2.7,0.7-5.8,1.4-8.5c0.7-2.4-0.3-4.1-2.4-5.1c-5.1-2-9.5-5.8-13.6-9.2c-24.5-19.4-45-42.9-64.7-67.1
				c-19.4-23.5-38.8-47-61.3-68.1c-20.1-19.1-42.9-34.1-68.5-45c-4.8-2-8.2-1-10.9,3.1c-20.1-7.5-41.2-10.2-61.7-15.7
				c-3.7-1-8.5-2-9.2-6.1c-0.7-4.1,3.7-5.8,6.1-7.8c4.1-3.1,8.5-5.8,13.3-8.2c14.6-8.5,21.8-21.1,21.5-38.2c0-1.4,0.3-2.7,0.3-4.1
				c1,0.7,2,0.7,2.7,1.7c2,3.1,10.2,3.4,4.8,10.2c-0.3,0.3,0,1.4,0.3,2c2,5.5,2.7,10.9,4.4,16.4c1,3.4,2,7.5,6.5,6.8
				c5.8-1,9.5-6.8,8.2-11.9c-0.3-1.7-2-2.7-1.4-5.5c4.4,3.1,8.9,5.8,12.6,9.2c3.1,2.7,7.8,3.4,7.2,10.9c-0.7,7.8,2,16.7,2.4,25.2
				c0,3.1,0.3,7.5,5.1,8.9c7.5,2,15.3,3.7,23.2,5.8c3.7,1,7.5,2,12.3,2.7c-12.6-14.6-21.8-30.7-36.5-42.2c31,22.8,60,48,88.9,74.6
				c-3.4,0.7-4.8-1.4-5.8-2c-8.5-6.8-16.4-14.3-25.6-20.1c-12.3-7.8-17-8.9-25.6-1.4c-2.4,2-2,3.4,0.3,5.5
				c8.9,6.1,17,12.9,24.9,20.1c1.7,1.4,3.1,2.4,5.1,3.1c10.9,3.4,21.8,7.2,33.4,9.9c3.4,0.7,5.8,1.4,5.1-4.8
				c21.8,18.7,43.3,34.4,65.1,50.8c-5.8-0.7-11.6-1.7-17.4-2.7c-5.8-1.4-11.6-2-17.4-3.4c-5.5-1.4-9.9-5.1-16.4-3.4
				c8.5,4.4,13.3,13.3,21.5,17.7c2,1.4,5.1,2,7.2,3.4c2.4,1.4,5.5,3.7,4.4,6.1c-1,2.7-4.1,1-6.5,1c-4.4-0.7-8.5-1-13.6,1
				c8.5,9.2,16.4,17.7,24.2,26.2c1.4,1.4,2.4,2,4.1,1.7c3.1-1.4,6.5-1.4,9.5-3.4c5.8-4.4,11.2-7.8,19.1-8.9
				c9.9-1.7,13.3-3.1,13.3-14c2,0,2.7,1,4.4,1.7c7.2,3.7,14,8.2,21.8,10.9c6.8,2.4,6.8,5.8,4.8,11.9c-1.4,3.7-3.7,6.8-7.2,9.2
				c-10.2,6.5-20.4,13.6-30.7,20.1c-1.4,0.7-2.7,1.4-2.7,2.7c-0.3,5.1,3.4,7.5,7.2,9.5c3.1,2,6.1,2.4,8.9-1.4
				c6.8-10.6,16.4-18.4,26.9-25.2c6.5-4.1,11.9-9.9,10.9-19.4C746.3,426.5,751.4,425.1,755.5,419.7z"/>
			<path class="st17" d="M755.5,419.7c-4.1,5.8-9.5,6.8-16,4.1c0.7,9.5-4.4,15.3-10.9,19.4c-10.6,6.5-20.1,14.3-26.9,25.2
				c-2.4,3.7-5.8,3.1-8.9,1.4c-3.7-2-7.5-4.4-7.2-9.5c0-1.7,2-2,2.7-2.7c10.2-6.5,20.4-13.6,30.7-20.1c3.4-2,5.8-5.5,7.2-9.2
				c2-5.8,2-9.5-4.8-11.9c-7.5-2.7-14.3-7.2-21.8-10.9c-1.4-0.7-2.4-2-4.4-1.7c0,10.6-3.4,12.3-13.3,14c-7.8,1.4-13.6,4.4-19.1,8.9
				c-2.7,2-6.1,2-9.5,3.4c-1.7,0.7-3.1-0.3-4.1-1.7c-7.8-8.5-15.7-17.4-24.2-26.2c4.8-2,9.2-1.7,13.6-1c2,0.3,5.8,2,6.5-1
				c0.7-2.4-2-5.1-4.4-6.1c-2.4-1.4-5.1-2-7.2-3.4c-8.2-4.8-12.9-13.3-21.5-17.7c5.8-1.7,10.9,2,16.4,3.4c5.8,1.4,11.2,2,17.4,3.4
				c5.8,1.4,11.2,2,17.4,2.7c-21.8-16.4-43.6-32.4-65.1-50.8c1,5.8-1.7,5.8-5.1,4.8c-11.2-2.4-22.1-5.8-33.4-9.9
				c-2-0.7-3.4-2-5.1-3.1c-8.2-6.8-16.4-14-24.9-20.1c-2.4-2-2.7-3.1-0.3-5.5c8.5-7.2,13.3-6.5,25.6,1.4c9.2,5.8,17,13.6,25.6,20.1
				c1.4,1,2.4,2.4,5.8,2c-29.3-26.6-57.9-51.8-88.9-74.6c14.3,11.6,23.8,27.6,36.5,42.2c-4.8-1-8.5-2-12.3-2.7
				c-7.8-2-15.3-3.7-23.2-5.8c-4.4-1.4-4.8-5.8-5.1-8.9c-0.3-8.5-3.1-17.4-2.4-25.2c0.7-7.5-4.1-8.2-7.2-10.9
				c-3.7-3.4-8.2-5.8-12.6-9.2c-0.7,2,1,3.7,1.4,5.5c1.4,4.8-2.4,10.9-8.2,11.9c-4.8,0.7-5.8-3.4-6.5-6.8c-1.4-5.8-2-11.2-4.4-16.4
				c-0.3-0.7-0.7-1.7-0.3-2c5.8-6.8-2.7-7.2-4.8-10.2c-0.7-0.7-2-1-2.7-1.7c-0.3-1,0-2,1-2c7.2,0.3,12.6-5.5,19.4-5.5
				c-0.3,0.7-0.7,1.7-1.4,2c-5.1,5.8-3.7,9.9,3.7,12.6c5.1,7.8,13.3,12.3,20.1,17.7c39.9,29.6,77,62.7,114.8,94.7
				c31.3,26.2,64,50.8,100.2,70.9c14.3,7.8,29,16.4,45,20.4C750.4,418.7,753.1,419,755.5,419.7z"/>
			<path class="st14" d="M623,433.7c-9.5-5.8-18.7-11.9-28.3-18.1c-36.8-24.5-72.9-49.4-108-76c-11.6-8.9-22.8-17.7-34.4-26.6
				c-2.7-2-3.1-3.7-1.4-6.5c2-2.4,3.1-5.8,4.8-8.5c4.4-8.2,4.8-8.2,14-4.8c27.6,10.2,52.1,25.9,73.2,46
				c20.8,19.1,38.2,41.2,55.9,62.7c7.8,9.9,15.7,19.1,23.8,29c0.3,0.7,0.7,1.4,1,1.7C623.6,433,623.3,433.3,623,433.7z"/>
			<path class="st20" d="M646.5,254.5c-7.2,12.6-15.3,25.2-23.5,37.1c-5.5,7.8-10.9,15.7-15.7,23.8c-2,3.7-3.7,3.1-6.5,1
				c-10.6-9.2-21.5-18.1-32-27.3c-3.4-3.1-6.8-6.1-10.2-9.2c-3.1-2-2.7-4.4-0.7-7.2c12.6-17.4,23.5-35.1,34.1-53.5
				c4.4,5.8,5.1,10.9,0,17c-1.4,1.7-2,3.4-3.4,5.5c-2.4,2.4-3.4,5.8-5.8,9.2c5.1-1.4,5.8-5.8,8.5-8.2c2-2.7,3.7-5.5,5.8-8.2
				c1.7-2.4,3.1-2,5.1-0.3c6.1,6.5,14,10.9,21.8,15c3.1,1.7,3.4,2.7,2,5.8c-3.7,5.8-7.5,11.6-10.9,17.7c-2,3.7-4.8,8.2-2.7,14
				c5.1-7.8,10.2-14.6,14.3-21.8c4.1-7.5,9.2-12.6,18.4-9.9C645.4,254.5,645.8,254.5,646.5,254.5z"/>
			<path class="st17" d="M474.8,287.5c2.7-4.1,6.5-5.1,10.9-3.1c25.6,10.6,48.4,25.6,68.5,45c22.1,21.1,41.6,44.6,61.3,68.1
				c19.8,24.2,40.2,47.7,64.7,67.1c4.4,3.4,8.5,6.8,13.6,9.2c2,1,3.1,2.4,2.4,5.1s-1,5.8-1.4,8.5c-15.3-8.9-28.3-20.4-41.2-32.7
				c-23.8-22.8-43.9-49.1-65.1-74.6c-21.8-26.2-44.3-51.1-72.9-69.8C503.4,300.8,489.4,294,474.8,287.5z"/>
			<path class="st0" d="M526.9,211.2c3.1-5.5,5.8-10.6,9.5-15.3c2-3.1,1.7-5.1-1.7-6.8c-2.4-1.4-3.1,1.4-3.7,2.4
				c-3.1,4.1-5.8,8.5-9.2,12.9c-2.7-1.7-0.3-2.7,0.3-4.1c2.4-7.2,9.9-12.3,8.5-21.1c0.3,0,0.7,0,1,0c12.9,12.3,27.6,21.8,43.3,29.6
				c3.4,1.7,6.1,4.1,9.9,4.4c1.4,0,2,1,2,2c0,1.7-1.7,2-2.7,1.7c-0.3,0-0.3,0-0.7,0c-7.5-3.1-10.6,2-14,7.2
				c-4.4,7.5-9.5,14.6-14,21.8c-1.4,2-2.7,3.4-4.8,5.1c-0.3-5.5,2-9.9,4.8-14c3.4-6.1,7.2-12.6,10.9-18.7c2-3.1,2.4-5.5-2-7.2
				c-7.2-3.4-14.3-7.8-20.4-13.6c-2.7-2.4-4.1-2-5.8,1c-2.7,4.1-5.8,7.8-8.9,11.9C528.6,211.2,527.6,211.2,526.9,211.2z"/>
			<path class="st0" d="M668.6,318.5c3.7-9.5,10.2-17.4,15.3-25.6c2-3.1,2-4.4-1.7-5.8c-8.2-3.7-15.7-8.9-22.1-15
				c-2.4-2.4-4.4-2.7-5.8,1c-1.7,4.4-5.8,6.8-7.8,10.9c-1,0-2,0-3.1,0.3c2.7-4.8,5.8-9.9,8.9-14.3c2-3.4,1-6.1-0.7-9.5
				c-0.7-1-1.7-2.4-0.3-3.4c1.4-1,2.4,0,3.7,1.4c10.2,10.6,22.5,18.1,35.4,25.2c5.5,2.7,10.9,4.8,16.7,7.2c-1,0.7-2,1.4-3.1,2
				c-2.7-0.3-5.8-0.3-8.5-0.7c-2-0.3-3.4,1-4.8,2.4c-7.5,10.2-14,21.5-20.8,32C666.9,324,670.3,320.9,668.6,318.5z"/>
			<path class="st0" d="M646.5,254.5c-0.7,0-1-0.3-1.7-0.3c-9.5-2.4-14.3,2.4-18.4,9.9c-4.1,7.5-9.2,14-14.3,21.8
				c-2-5.8,0.7-9.9,2.7-14c3.1-5.8,7.2-11.9,10.9-17.7c2-2.7,1.4-4.1-2-5.8c-7.8-4.1-15.7-8.5-21.8-15c-2-2-3.4-2-5.1,0.3
				c-2,2.7-3.7,5.8-5.8,8.2c-1-0.3-2-0.7-2.7-1c1.4-2,2-3.7,3.4-5.5c5.1-5.8,4.4-11.2,0-17c-0.3-0.7-0.3-1.7-0.7-2
				c0.3-0.3,0.3-0.7,0.3-1l0,0c6.1,5.1,12.3,10.6,18.7,15.3c11.2,8.5,23.5,15.7,37.5,20.1c1,0.3,2,1,2.7,1.7
				C648.5,253.1,647.8,254.1,646.5,254.5z"/>
			<path class="st20" d="M530.3,179.5c1.7,8.9-5.8,14-8.5,21.1c-0.7,1.4-3.1,2.4-0.3,4.1c-5.1,9.5-12.6,17.7-17.7,26.6
				c-1.4,2-2.4,3.1-5.1,1.4c-2-2-4.4-2.7-2.4-6.1c4.8-7.5,9.2-15.3,14-23.2c4.1-6.5,8.2-12.9,12.6-18.7
				C524.8,181.6,526.5,178.5,530.3,179.5z"/>
			<path class="st19" d="M467.6,214.6c-7.5-2.4-8.9-6.8-3.7-12.6c0.7-0.7,1-1.7,1.4-2c9.9-0.3,18.4,2,25.9,7.8c1,0.7,2,1,3.4,1.7
				c0.7,0.3,1.4,0.7,1.7,1.4c0.7,1.7-6.5,8.9-8.2,8.9c-5.8,0-9.9-3.7-14-7.5c-1.7-1.4-2.4-3.1-5.1-2
				C466.2,210.5,468.3,212.6,467.6,214.6z"/>
			<path class="st14" d="M766.4,318.2c-4.4,1.4-8.2,0-11.6-2.4c-9.5-5.8-18.4-12.3-27.6-18.4c-2-1.7-5.1-3.1-1-5.8
				C740.2,299.8,754.1,307.6,766.4,318.2z"/>
			<path class="st19" d="M555.5,567.2c5.1,2,9.5,5.1,14,8.2c-5.8,8.5-11.6,16.7-17.7,25.2c-2,2.4-3.7,4.1-6.8,3.7
				c-6.8-0.7-9.5-5.8-5.8-11.6C544.6,584.2,550.1,575.7,555.5,567.2z"/>
			<path class="st0" d="M726.5,357c5.1-8.5,9.9-17,15-25.2c2.7-4.1,2.7-6.5-2-8.5c-8.5-3.4-16-8.9-22.5-15c-2-2-3.1-1-4.8,1
				c-5.8,6.1-8.9,14-16,19.8c2.7-6.8,6.8-12.3,10.2-17.7c2.7-4.8,5.8-8.9,2.7-14.3c-0.7-1-1-2.4,1-3.1c1.4-0.7,2,0.7,2.4,1.4
				c14.6,14.6,32.7,25.2,52.5,32.7c-2,2-5.1,2-6.8,1.4c-6.1-2-9.5,2-11.9,6.1c-5.8,9.2-11.2,18.1-17,27.6
				C726.2,361.8,728.9,357.7,726.5,357z"/>
			<path class="st13" d="M757.9,341.3c-3.1,11.2-9.9,20.4-18.1,28.3C744.6,359.7,750.4,350.2,757.9,341.3z"/>
			<path class="st14" d="M726.5,357c2.4,1.4-0.3,5.1,3.1,5.8c-0.7,1-1,2-2,2.4c-1.4,1.4-0.7,5.1-3.7,4.1c-2-1-1-3.7-1-5.8
				C722.8,360.4,724.8,358.7,726.5,357z"/>
			<path class="st14" d="M668.6,318.5c2,2-1.7,5.5,1.7,7.2c-1,2-2,5.5-3.7,4.8c-2.7-1.4-1.4-4.8-0.7-6.8
				C666.6,321.6,666.6,319.5,668.6,318.5z"/>
			<path class="st14" d="M643.7,284.1c1,0,2,0,3.1-0.3c-1.7,3.7-5.1,5.8-7.8,8.9C640.3,289.9,640.3,286.1,643.7,284.1z"/>
			<path class="st14" d="M526.9,211.2c1,0,2-0.3,2.4-0.3c-1.4,4.4-5.5,6.8-7.8,10.2C522.1,217.7,523.8,213.9,526.9,211.2z"/>
			<path class="st0" d="M591.6,216.7C591.6,216.7,591.6,216.3,591.6,216.7C591.3,216.3,591.6,216.3,591.6,216.7L591.6,216.7z"/>
			<path class="st14" d="M588.6,241.9c1,0.3,2,0.7,2.7,1c-2.4,2.4-3.4,6.8-8.5,8.2C585.1,247.7,585.8,244.2,588.6,241.9z"/>
		</g>
	</g>
	<polyline class="st13" points="672.6,508.8 648.4,548.1 638,531.6 656.7,503.6 	"/>
	<g>
		<g>
			<path class="st12" d="M56.1,408.8c1.4,4.1,2.4,8.2,4.1,12.3c-5.5,3.1-6.1,5.8-4.8,11.6c0.3,1,0.7,2,1,2.7
				c10.6,26.6,20.4,53.5,31.7,80.1c18.1,42.2,37.8,83.8,59.6,124.3c15.3,29.3,32,57.2,51.4,84.1c1.4,2,1.7,3.4,1.7,5.8
				c0,13.6-0.3,26.9,2.4,40.2c1.7,7.8,6.1,12.9,14,14.3c12.9,2.7,22.8-2.4,29.6-12.9c8.5-13.3,18.7-16.4,33.4-11.9
				c20.8,5.8,36.5-1.7,46-20.8c1.7-3.1,3.7-6.1,5.8-9.5c4.1-6.1,9.9-9.2,17-8.9c5.5,0,10.2,1.4,15.7,1.7
				c22.1,2.4,39.5-5.8,51.4-24.5c2.4-3.7,4.8-7.5,7.5-10.9c4.1-5.8,9.9-8.2,16.7-8.2c5.8,0,10.9,1.7,16.7,2
				c19.1,2,34.4-4.1,45.3-20.1c2.4-3.7,4.4-7.8,6.5-11.9c4.4-7.5,11.2-11.2,20.1-11.2c3.7,0,7.5,0.3,11.2,0.3
				c9.9,0.3,17.7-2.7,24.2-9.9c6.8-7.8,7.5-16.7,1-24.9c-8.5-10.6-18.7-19.4-29.6-27.9c-1.4-1-2.7-2-3.1-4.1
				c-5.5-27.6-15.3-53.5-24.9-80.1c-8.9-24.2-18.7-47.7-29-71.2c-25.6-58.9-54.2-116.2-86.5-171.7c-8.5-14.6-17.7-29.6-29-42.2
				c-1-1-1.4-2-1.4-3.4c0-9.5-2-18.7-4.1-28.3c-1.4-5.8-2.7-11.9-6.8-16.7c-9.9-10.9-28.3-9.2-36.8,3.7c-2,3.1-4.1,6.5-6.1,9.9
				c-4.8,6.8-11.2,9.5-19.4,7.2c-4.8-1.4-9.5-3.1-14-4.8c-16.4-4.1-33,2.7-41.6,18.4c-2.4,4.8-4.4,9.9-6.8,14.6
				c-5.1,10.2-13.3,14-24.2,11.2c-5.8-1.4-11.2-3.4-17-4.4c-16.4-3.1-31.3,3.7-39.9,18.4c-2.4,4.8-4.4,9.5-6.8,14
				c-5.8,11.9-14,15.7-26.6,11.9c-4.1-1.4-8.2-2.7-12.3-3.7c-18.4-4.4-33.7,3.4-41.2,21.1c-1.4,3.4-2.4,6.8-3.7,10.2
				C51.3,293,45.9,296,37,295c-3.4-0.3-6.5-1.4-9.9-2c-9.5-1.7-16.7,2-21.8,9.5c-5.5,7.5-5.8,15.3-0.7,22.8
				c6.8,10.2,14.6,19.8,24.2,27.6c2,1.7,2.7,3.4,3.4,5.8c2.4,14.6,7.2,28.6,11.9,42.6C47.6,409.1,49.9,410.5,56.1,408.8z"/>
			<path class="st13" d="M566.8,605c-8.5-10.6-19.1-19.4-29.6-27.9c-1-1.4-2.7-2-3.1-4.1c-5.8-27.6-15.3-53.8-24.9-80.1
				c-8.9-24.2-19.1-47.7-29-71.2C455,362.5,426,305.6,393.7,250c-8.5-14.6-17.4-29.3-29-42.2c-1-1-1.4-2-1.4-3.4
				c-0.3-9.9-2-18.7-4.1-28.3c-1.4-6.1-2.7-11.9-6.8-16.7c-9.9-10.9-28.3-9.2-36.8,3.7c-2,3.4-4.1,6.8-6.1,9.9
				c-4.8,6.8-11.2,9.2-19.4,7.2c-4.4-1.4-9.2-3.4-14-4.8c-17-4.8-33.4,2-41.9,17.7c-2.4,4.8-4.4,9.9-6.8,14.6
				c-5.1,9.9-12.9,13.6-24.2,11.2c-5.8-1.4-11.2-3.4-17-4.4c-16.7-3.4-31.7,4.1-39.9,18.4c-2.7,4.1-4.8,9.2-6.8,14
				c-5.5,11.9-14,15.7-26.6,11.9c-4.1-1.4-8.2-2.7-12.3-3.7c-18.7-4.4-34.1,3.4-41.2,21.1c-1.4,3.4-2,6.8-3.7,10.2
				c-3.7,8.2-8.9,11.2-17.7,10.2c-3.4-0.7-6.5-1.4-9.9-2c-8.9-1-16.4,2-21.8,9.5c-5.5,7.5-5.8,15.3-0.7,22.8
				c6.8,9.9,14.6,19.4,24.2,27.6c1.7,1.7,3.1,3.4,3.4,5.8c2.4,14.6,7.2,28.6,11.9,42.6c1.7,6.1,4.8,7.5,10.9,5.8
				c4.1-2.7,4.8-6.5,4.4-8.9c-4.4-12.6-7.8-25.2-10.9-38.2c-0.3-1.7-0.3-3.1,1.4-4.1c9.2-6.1,17.7-12.6,27.6-17.7
				c15.3-10.2,31.7-19.1,47.7-27.9c31.7-17.7,64-33,97.4-47.4c30.7-13.3,61.7-25.6,94-35.4c1.7-0.3,3.4-1,5.1-1.4
				c9.9-4.1,20.4-6.8,30.7-8.9c2-0.3,2.7,1,4.1,2.4c7.8,9.2,14.3,19.8,20.4,30c15,25.2,28.3,51.1,41.9,77
				c12.9,24.9,25.2,49.4,36.5,74.9c9.2,21.1,18.1,41.9,26.9,63.4c9.5,23.8,18.7,48.4,26.6,72.9c4.1,11.6,7.2,23.2,9.9,35.1
				c0.3,2.7,0,4.1-2,5.8c-17,13.3-35.4,25.2-53.8,36.8c-39.5,24.5-81.8,43.9-124,62c-39.2,16.7-79.7,30-121.3,38.5
				c-3.1,1-5.1,0.3-7.2-2.4c-9.9-14-19.1-28.3-27.9-42.9c-11.9-20.1-22.8-40.9-33.4-62c-13.3-26.2-26.2-52.5-37.8-79.4
				c-9.9-21.8-18.7-44.3-27.6-66.4c-4.8-11.9-9.9-23.5-13.3-35.8c-1-4.1-4.8-6.1-9.9-5.5c-5.5,3.1-6.8,5.8-4.8,11.6
				c0.3,0.7,0.7,1.7,1,2.7c10.6,26.9,20.4,53.8,31.7,80.1c18.1,42.2,37.8,83.8,59.6,124.3c15.3,29.3,32,57.6,51.4,84.1
				c1.4,2,1.7,3.7,1.7,5.8c0,13.6-0.3,26.9,2.4,40.2c1.4,7.5,6.1,12.6,14,14.3c12.6,2.7,23.2-2.7,29.6-12.9
				c8.2-13.3,18.7-16.4,33.4-11.9c20.4,5.8,36.1-1.7,46-20.8c2-3.4,3.7-6.5,5.8-9.5c3.7-6.1,9.9-8.9,17-8.9c5.5,0,10.2,1,15.7,1.7
				c22.1,2.4,39.5-5.8,51.4-24.5c2.4-3.7,5.1-7.5,7.5-10.9c4.1-5.8,9.9-8.2,16.7-8.2c5.8,0,10.9,1.4,16.7,2
				c18.7,1.7,34.4-4.1,45.3-20.1c2.4-3.7,4.4-8.2,6.5-11.9c4.8-7.5,11.2-10.9,20.1-11.2c3.7-0.3,7.5,0.3,11.2,0.3
				c9.9,0.3,18.1-2.7,24.2-9.9C572.5,622.1,573.2,613.2,566.8,605z"/>
			<path class="st5" d="M240.6,702.5c-8.9,0-16.6-2.4-23.5-7.2l-0.1-0.1c-3-2.3-5.6-4.8-8-7.3c-0.1-0.1-0.1-0.1-0.2-0.2
				c-2.7-2.4-2.6-5-2.1-6.8c0.8-2.7,3.1-4.6,6-4.6c0.2,0,0.5,0,0.7,0c-7.4-3.8-13.8-9.1-19.8-14.5l-0.1-0.1
				c-11.8-11-20-24.2-26.5-35.6c-8.1-13.7-15.5-27.9-22.6-41.7c-1.6-3.1-3.2-6.2-4.8-9.2c-10.4-20.1-19.7-41-28.7-61.1l-2.5-5.6
				c-5.8-13.4-11.4-27.2-16.7-40.6c-5-12.3-9.6-24.8-14.1-36.9c-1.4-3.9-2.9-7.7-4.3-11.6c-0.8-1.9-0.9-3.6-0.7-5l-0.2,0
				c-3.7-0.6-5.2-2.8-5.7-4c-0.8-1.9-0.6-4.1,0.6-6c1.8-2.9,1-5.8-0.6-10.7c-0.3-1.1-0.7-2.2-1-3.4l0-0.1c-3.4-13.7-6-26.1-2.7-39.5
				c1.3-5.7,3.7-9.9,7.6-13.4l0.2-0.2c0,0,0.7-0.5,0.8-0.6l-0.3-2l2.6-1.8c15.2-10.4,31.9-19.4,48.1-28.2
				c27.5-15.4,58.4-30.4,97.2-47.2c31.5-14,63.3-26,94.5-35.6l0.7-0.2h0.8c2.7,0,3.7-0.3,4.6-0.7l3.1-1.2l1.9,1.9
				c0.2-0.1,0.5-0.1,0.7-0.2c0.5-0.1,1.2-0.3,1.9-0.4l0.2,0l0.2,0c1.3-0.1,2.6-0.2,3.9-0.2c6.4,0,12.6,1.5,18.1,4.4
				c1.6,0.7,5.9,2.7,7,7.1c0.4,1.8,0.2,3.5-0.4,5.1c0.6-0.1,1.2-0.2,1.8-0.2c4.4,0,6.6,3.6,7.4,4.8c5.1,8.2,9.8,16.6,14.4,24.7
				c2.6,4.6,5.2,9.3,7.9,13.9c2.9,4.9,5.8,10.4,8.4,16.4l14.2,28.4c16.2,30.5,30.5,62.3,44.2,93l2.2,5c6.8,15.2,13.7,30.9,17.9,47.3
				c0.2,0.5,0.5,1.2,0.8,1.9c0.7,1.5,1.4,3.2,1.7,5c2.3,10.2,1.8,20-1.6,29.2c1.1-1.3,3-2.9,5.9-2.9h0.6l0.6,0.1
				c3.6,0.9,4.8,4.1,5.3,5.3l0.1,0.2l0.2,0.4l0.1,0.5c4,14.7,7.9,34.1,2.4,54.7c-3.7,13.7-11.2,26.1-23.1,38
				c-13.6,13.6-29,23.9-42.4,32.4c-23.1,14.7-48,26.2-71.5,36.5c-17.2,7.3-35.3,13.5-55.5,19c-16,4.5-30.4,8.3-45.1,10.3
				C248.3,702.1,244.3,702.5,240.6,702.5z M210,338.6c-28.4,16.1-49.1,37.3-63.3,64.7c-21.6,41.5-21.7,82.5-0.4,121.7
				c15.6,28.3,39.2,48.4,70.2,59.7c18.6,6.8,37.1,10.2,55.1,10.2c0,0,0,0,0,0c27.4,0,54.5-8,80.6-23.7c29.1-17.4,50.2-42,62.7-73.2
				c15.9-40.4,14.2-77.4-5.2-112.9c-14.4-26.9-36.8-46.2-66.5-57.3c-17.9-6.8-36.2-10.2-54.2-10.2c-21.8,0-44.1,5-66.3,14.9
				c-2.8,1.3-5.7,2.8-8.6,4.3C212.7,337.2,211.3,337.9,210,338.6z"/>
			<path class="st5" d="M321.5,225.5c2,2,4.4,0.7,6.5,0.3c6.8-0.7,13.6,0.7,19.4,3.7c5.5,2.4,5.5,5.1,1.7,9.5c-2,2-4.8,2.7-7.8,5.1
				c5.5,1,9.9,1,14.3-1.4c2.4-1.4,3.7-1,5.5,1.7c7.8,12.6,14.6,25.6,22.1,38.5c3.1,5.1,5.8,10.6,8.2,16c4.8,9.5,9.5,19.1,14.3,28.6
				c17,32,31.7,65.1,46.3,97.8c6.8,15.3,13.6,30.7,17.7,46.7c0.7,2,2,4.4,2.4,6.5c4.1,17.7-1.4,33-14,45.7c-0.7,0.7-1.4,1.4-2,2
				c3.7,0.7,5.8-1.7,8.5-2.7c5.5-3.4,9.9-7.2,14-12.6c0.7-1,1.4-2,2.7-2c1.4,0.3,1.7,2,2,2.7c4.8,17.4,7.2,34.4,2.4,52.1
				c-3.7,14-11.6,25.6-21.8,35.8c-12.6,12.6-26.6,22.1-41.6,31.7c-22.5,14.3-46.7,25.6-70.9,36.1c-17.7,7.5-36.1,13.6-54.8,18.7
				c-14.6,4.1-29.6,8.2-44.6,10.2c-10.9,2-21.8,2-32-5.1c-2.7-2-5.1-4.4-7.5-6.8c-0.7-0.7-1.4-1-1-2c0.3-1.4,1.7-1,2-0.7
				c4.1,0.3,8.2-0.3,12.3-1.4c2.4-0.7,4.8-1.4,6.1-3.7c-14.6-1-25.2-9.5-35.1-18.4c-10.6-9.9-18.4-21.8-25.6-34.4
				c-9.9-16.7-18.4-33.7-27.3-50.8c-11.2-21.8-21.1-44.3-31-66.4c-5.8-13.3-11.2-26.9-16.7-40.5c-6.5-16-12.3-32-18.4-48.4
				c-0.7-1.7-0.7-3.1,0.7-4.4c2-2,0.7-3.1-1.7-3.1c-1.4-0.3-2.4-0.7-3.7-0.7c-2-0.3-2.4-1.4-1.7-2.4c3.7-6.1,0.7-11.9-1-18.1
				c-3.1-12.3-5.8-24.5-2.7-37.1c1-4.4,2.7-7.8,6.1-10.9c1.4-1,3.1-2,2.7-4.1c15-10.2,31.3-19.1,47.7-27.9
				c31-17.4,63.7-32.7,96.8-47c30.7-13.6,62-25.6,94-35.4C318.1,226.5,319.8,226.2,321.5,225.5z M220.6,327.7
				c-4.4,2-8.9,4.4-12.9,6.5c-28.3,16-50.4,37.8-65.4,66.8c-21.8,41.9-23.2,84.5-0.3,126.4c16.4,29.6,41.2,50.4,72.9,62
				c48.7,17.7,95.4,12.9,140-14c29.6-17.7,51.8-43.3,64.7-75.6c15.7-39.9,15.3-79-5.5-117.2c-15.3-28.6-39.2-48.4-69.2-59.6
				C302.7,306.9,261.2,309.7,220.6,327.7z"/>
			<path class="st14" d="M321.5,225.5c9.9-4.1,20.4-6.5,30.7-8.9c2-0.7,3.1,1,4.1,2.4c7.5,9.5,14,19.8,20.4,30
				c15.3,25.2,29,50.8,41.9,77c12.9,24.9,25.6,49.4,36.5,74.9c9.2,21.1,18.1,41.9,26.9,63.4c9.9,23.8,18.7,48.4,26.6,72.9
				c3.7,11.6,6.8,23.2,9.9,35.1c0.7,2.7,0,4.4-2,5.8c-17.4,13.3-35.4,25.2-53.8,36.8c-39.2,24.9-81.1,43.9-124,62
				c-39.2,16.7-79.4,30-121.3,38.5c-3.1,0.7-5.5,0.3-7.2-2.4c-9.9-14-19.1-28.3-27.9-42.9c-11.9-20.4-22.8-41.2-33.4-62
				c-13.6-25.9-25.9-52.5-37.8-79.4c-9.5-21.8-18.7-44.3-27.6-66.4c-4.8-11.9-9.9-23.5-13.3-35.8c-1.4-4.1-5.1-6.1-9.9-5.5
				c-1.4-4.1-2.4-8.2-4.1-12.3c4.1-2.7,4.8-6.5,3.1-11.2c-4.1-12.6-7.8-25.6-10.9-38.2c-0.3-2-0.3-3.1,1.4-4.1
				c9.2-6.1,17.7-12.6,27.6-17.7c0.3,2-1.7,2.7-2.7,4.1c-3.1,2.7-5.1,6.5-6.1,10.9c-3.1,12.9-0.3,24.9,2.7,37.1
				c1.7,5.8,5.1,11.6,1,18.1c-1,1.7-0.3,2.4,1.7,2.4c1.4,0,2.4,0.7,3.7,0.7c2,0.3,3.4,1,1.7,3.1c-1,1.4-1.4,2.7-0.7,4.4
				c6.1,16,11.9,32.4,18.4,48.4c5.8,13.6,10.6,27.3,16.7,40.5c9.9,22.1,19.8,44.6,31,66.4c8.9,17,17.7,34.1,27.3,50.8
				c7.2,12.6,14.6,24.9,25.6,34.4c9.9,9.2,20.4,17.7,35.1,18.4c-1.7,2.4-3.7,3.4-6.1,3.7c-4.1,1-7.8,1.7-12.3,1.4
				c-0.7,0-2-0.3-2,0.7c-0.3,1,0.3,1.4,1,2c2,2.4,4.8,4.8,7.5,6.8c9.9,7.2,20.8,6.5,32,5.1c15-2.4,29.6-6.1,44.6-10.2
				c18.4-5.5,37.1-11.2,54.8-18.7c24.5-10.2,48.7-21.8,70.9-36.1c14.6-9.5,29.3-19.1,41.6-31.7c10.2-10.2,17.7-21.8,21.8-35.8
				c5.1-17.7,2-34.7-2.4-52.1c-0.3-1-0.7-2.4-2-2.7c-1.4-0.3-2,1-2.7,2c-3.7,5.5-8.5,9.5-14,12.6c-2.4,1.7-4.8,3.4-8.5,2.7
				c1-1,1.7-1.7,2-2c12.6-12.9,17.7-27.9,14-45.7c-0.7-2-2-4.4-2.4-6.5c-4.8-16.4-11.2-31.7-17.7-46.7c-14.6-33-29.6-65.8-46.3-97.8
				c-5.1-9.5-9.9-19.1-14.3-28.6c-2.7-5.5-5.5-10.6-8.2-16c-7.5-12.9-14.3-25.9-22.1-38.5c-1.7-2.4-2.7-3.1-5.5-1.7
				c-4.4,2-9.2,2-14.3,1.4c3.1-2,5.8-2.7,7.8-5.1c4.1-4.4,3.7-6.5-1.7-9.5c-6.1-3.1-12.6-4.4-19.4-3.7
				C325.9,226.2,323.8,227.2,321.5,225.5z"/>
			<path class="st12" d="M213.5,234.4c15-3.1,25.2-12.6,30.3-26.6c1.7-3.7,2.7-7.5,5.5-10.9c5.5-7.2,12.6-9.9,21.1-7.5
				c3.4,1,6.5,2,9.9,3.4c18.1,6.1,33.7,0.7,44.3-15.3c2.4-3.7,3.7-9.2,9.5-10.2c3.4,6.5,3.4,13.3,3.1,20.4c-0.3,5.8-3.4,9.9-7.5,14
				c-7.5,7.2-17.7,8.9-26.9,12.6c-4.4,2-9.2,2.7-12.6,6.1c-13.6,5.5-27.3,10.2-40.9,16c-32.4,12.6-63.7,26.9-94.4,42.2
				c-13.3,6.5-25.9,13.3-38.8,20.1c-5.5,3.1-11.2,5.8-16.7,9.2c-2.4-1.4-4.4-0.7-4.8,2.4c-0.7,0.3-1,0.7-1.7,1c-1.7-1-2.7,0.3-4.1,1
				c-7.5,3.7-14.6,7.5-21.8,11.6c-3.7,2-7.8,4.1-11.9,5.5c-14,4.1-25.6-4.8-34.4-17.7c2.4-2,5.8-1.4,8.5-0.7c7.5,1.7,15,2.4,22.1,0
				c9.9-3.7,16.7-10.6,20.1-20.8c1.4-3.1,2-5.8,3.1-9.2c3.7-9.5,11.2-13.6,21.1-10.9c5.1,1.4,9.9,3.1,15,4.4c11.2,2.7,21.8,1,31-6.1
				c1-0.7,2-1.4,3.1-2c1,1,2,0.7,2.7-0.3c6.1-5.8,10.2-12.9,12.9-20.8c0.7-1.7-0.7-2-1.7-2.7c5.1-11.6,15.3-16,27.3-12.3
				c2.7,5.8,21.1,8.9,25.9,6.1C212.8,235.4,213.5,234.7,213.5,234.4z"/>
			<path class="st12" d="M539.5,622.1c-0.7,0-1.4,0-2,0c-0.7-1.4-1.7-1.7-2.7-1.7c-19.1-1.7-34.1,7.5-43.9,25.2
				c-3.7,6.8-7.2,14-15,16.7c-6.1,2.4-12.6,1-19.1-0.3c-4.4-1-8.9-2-13.6-1.7c-12.3,0.7-22.5,6.1-31.7,14c-4.1,3.4-7.5,7.5-9.9,12.6
				c-2.4,5.8-7.2,9.9-9.9,15c-2,1.7-4.8,2.4-7.2,3.1c-0.7-1-1.7-1.4-2.7-1c-6.5,0.7-12.9-0.7-19.1-2c-20.4-3.4-42.2,7.2-51.1,26.6
				c-5.8,12.9-13.6,17.4-28.6,11.9c-14-5.1-27.9-2-39.5,7.8c-4.8,4.1-7.8,9.5-11.9,14c-1,1-1.7,2-3.1,2c-1.7-0.7-2-2-2-3.4
				c-0.7-9.9,2-18.7,9.9-25.9c5.8-5.8,14-8.5,21.8-10.9c12.3-4.1,24.5-8.9,36.8-12.9c7.5-2.4,14.6-6.5,22.1-8.9
				c4.1-1.4,8.9-2.4,11.9-5.8c2.7-1.4,5.8-2.4,8.9-3.7c3.7,1,6.5-1.4,9.2-3.4c20.8-9.5,41.6-19.1,62.3-28.6c2,0.3,3.4,0,4.1-2
				c4.1-2.7,8.9-4.8,13.3-6.8c0.7,0,1.7,0.3,2,0c10.2-4.1,19.8-9.9,29.6-14.6c3.4-1.7,6.5-3.4,9.9-5.5c13.6-7.5,26.6-16,40.9-22.5
				c11.6-5.5,22.5-5.1,33.4,2c3.7,2.4,7.2,5.1,6.5,9.9c-1.7,0.3-2.7,1-4.4,0.7C541.9,621,540.9,620,539.5,622.1z"/>
			<path class="st15" d="M328.3,696.7c-3.1,3.4-7.5,5.1-11.9,5.8c-7.8,2-14.6,6.1-22.1,8.9c-12.3,4.1-24.2,9.2-36.8,12.9
				c-7.5,2.4-15.3,5.1-21.8,10.9c-7.5,7.2-10.2,16-9.9,25.9c0,1.7,0.3,3.1,2,3.4c1.7,0.7,2.4-1,3.1-2c3.7-4.8,6.8-9.9,11.9-14
				c11.9-9.9,25.6-12.9,39.5-7.8c15.3,5.5,22.8,0.7,28.6-11.9c8.9-19.4,30.7-30,51.1-26.6c6.1,1,12.6,2.4,19.1,2c1,0,2,0,2.7,1
				c-5.8,2-11.2,2-17.4,1.4c-4.4-0.7-8.9-1.4-13.3-1.7c-16-1-27.9,5.8-36.5,19.1c-2,3.7-4.1,7.5-6.1,10.9
				c-5.5,8.2-12.6,11.9-22.1,10.2c-3.7-0.7-7.8-1.7-11.6-2.4c-15-3.7-27.3,1-37.1,12.6c-3.1,3.7-5.8,7.8-9.2,10.9
				c-2,2-4.4,2.7-7.2,2.7c-3.1,0-5.5-1-5.8-4.4c-2-10.6-2-21.8-2-32.4c0-2.4,2-2,3.4-2.4c10.2-2.4,21.1-5.1,31.3-7.8
				c24.2-6.5,48-14.6,71.5-24.2C324.2,698,325.9,696.7,328.3,696.7z"/>
			<path class="st15" d="M548,621.7c0.3-5.1-3.1-7.5-6.5-9.9c-10.6-7.2-21.8-7.5-33.4-2c-14,6.5-27.3,15-40.9,22.5
				c-3.4,2-6.5,3.7-9.9,5.5c-9.9,5.1-19.1,10.6-29.6,14.6c-0.7,0.3-1.4,0-2,0c5.1-3.7,10.9-6.1,16.4-9.5
				c28.6-16,56.6-32.7,82.4-52.5c3.1-2,5.1-2.4,8.2,0.3c6.1,6.1,12.9,11.9,19.1,17.7C557.6,614.6,556.2,619.3,548,621.7z"/>
			<path class="st15" d="M289.8,219.4c3.4-3.4,8.2-4.4,12.6-6.1c9.2-4.1,19.4-5.5,26.9-12.6c4.1-3.7,7.2-7.8,7.5-14
				c0.7-7.2,0.7-14-3.1-20.4c5.1-1,7.2,0,8.9,4.4c3.1,9.9,4.1,19.8,5.5,29.6c0.3,1.7-0.3,2-1.7,2.4c-18.7,4.4-37.5,10.2-55.9,16.7
				C290.5,219.7,290.1,219.4,289.8,219.4z"/>
			<path class="st15" d="M20.3,310.7c9.2,12.6,20.4,21.8,34.4,17.7c4.1-1.4,8.2-3.1,11.9-5.5c7.2-4.1,14.3-8.2,21.8-11.6
				c1.4-0.7,2.4-1.7,4.1-1c-6.1,4.8-13.3,8.2-19.4,12.3c-9.9,6.5-20.1,13.3-30,19.8c-1.4,1-2.4,2-4.1,0.3
				c-6.8-7.2-14-14.3-19.4-22.8C17.2,316.5,16.9,313.4,20.3,310.7z"/>
			<path class="st15" d="M391.3,702.5c2.7-5.5,7.5-9.5,9.9-15c2-5.1,5.8-9.2,9.9-12.6c9.2-7.8,19.1-13.6,31.7-14
				c4.8-0.3,9.2,0.7,13.6,1.7c6.1,1.4,12.6,2.4,19.1,0.3c7.8-3.1,11.6-9.9,15-16.7c9.9-17.7,24.9-26.6,43.9-25.2
				c1.4,0,2,0.3,2.7,1.7c-4.4,0.3-9.2,0-13.6,0.7c-11.2,1.7-20.1,7.5-26.2,17.4c-2,2.7-3.7,5.8-5.5,9.2
				c-7.5,13.6-18.4,18.7-33.7,16.4c-6.8-1.4-14-2.4-21.1-1.7c-12.6,1.7-21.8,8.5-29,18.7c-2.7,4.1-5.1,8.2-7.8,11.9
				C398.5,697.7,395,700.8,391.3,702.5z"/>
			<path class="st15" d="M158.6,241.9c1,0.7,2,1.4,1.7,2.7c-2.4,8.2-6.5,15-12.9,20.8c-1,0.7-2,1-2.7,0.3
				c5.8-5.8,9.5-12.6,12.3-20.1C157.3,244.2,157.6,242.9,158.6,241.9z"/>
			<path class="st15" d="M213.5,234.4c0,1-0.7,1.4-1.4,1.7c-5.1,2.4-23.2-0.3-25.9-6.1C195.1,232,203.9,234.7,213.5,234.4z"/>
			<path class="st15" d="M346,689.5c-2.4,2-5.5,4.8-9.2,3.4C339.9,691.6,342.9,690.2,346,689.5z"/>
			<path class="st15" d="M94.2,309.3c0.3-3.1,2-3.4,4.8-2.4C97.6,308,95.9,309,94.2,309.3z"/>
			<path class="st15" d="M412.1,659.2c-0.7,2-2,2.4-4.1,2C409.4,660.2,411.1,659.5,412.1,659.2z"/>
			<path class="st15" d="M539.5,622.1c1.4-2,2.4-1.4,3.7,0C541.9,623.1,540.9,622.7,539.5,622.1z"/>
			<path class="st13" d="M220.6,327.7c40.9-17.7,82.1-20.8,124.3-5.1c30,11.2,53.5,31,69.2,59.6c20.8,38.2,21.1,77.3,5.5,117.2
				c-12.9,32.7-34.7,57.6-64.7,75.6c-44.3,26.6-91.3,31.7-140,14c-31.7-11.6-56.6-32.4-72.9-62c-23.2-41.9-21.5-84.5,0.3-126.4
				c14.6-29,37.5-50.8,65.4-66.8C211.8,332.1,216.2,329.8,220.6,327.7z M331.3,571.3c3.7-2,7.2-3.7,10.9-5.8c3.4-2,6.5-4.1,9.9-5.8
				c33.7-23.2,54.8-54.5,61.3-95c8.2-50.4-16.4-98.5-61.3-121.6c-40.2-20.8-81.1-19.8-122-2.4c-32.4,14-56.9,36.5-73.6,67.1
				c-28.3,51.4-15.3,114.8,32,149.6C232.5,590,280.9,591.7,331.3,571.3z"/>
			<path class="st12" d="M331.3,571.3c-50.1,20.4-98.8,18.4-143.4-14.3c-47.4-34.7-60.3-97.8-32-149.6c17-30.7,41.6-53.1,73.6-67.1
				c40.9-17.7,81.8-18.1,122,2.4c45.3,23.2,69.5,71.5,61.3,121.6c-6.5,40.5-27.6,72.2-61.3,95c-3.1,2-6.1,4.1-9.9,5.8
				C338.5,567.6,334.7,569.6,331.3,571.3z M381.8,398.6c-8.9-18.7-20.1-30.3-36.1-36.8c-16.4-6.1-32.4-5.8-47,4.4
				c-9.2,6.5-15,15.3-20.1,25.2c-4.1,8.2-8.2,16.7-12.3,24.9c-4.1,8.2-9.2,16-17.4,21.5c-9.9,6.1-20.4,7.5-31.7,6.8
				c-18.4-1.4-34.7,3.1-48,17.4c-6.8,7.5-10.2,15.3-8.5,25.2c4.1,20.4,16,35.4,35.8,41.9c27.9,9.5,53.5,2,77.3-13.6
				c2.4-1.7,4.8-2.4,8.2-2c41.6,8.2,80.1-11.9,96.4-50.8C388.2,440.1,390.3,417.7,381.8,398.6z"/>
			<path class="st13" d="M381.8,398.6c8.2,19.4,6.1,41.6-2.7,64c-16.7,38.8-55.2,58.9-96.4,50.8c-3.1-0.7-5.5,0.3-8.2,2
				c-23.8,15.7-49.4,23.2-77.3,13.6c-19.8-6.5-31.7-21.8-35.8-41.9c-2-9.9,1.7-17.7,8.5-25.2c13.3-14,29.6-18.4,48-17.4
				c10.9,0.7,21.8-0.7,31.7-6.8c7.8-5.5,12.9-12.9,17.4-21.5c4.1-8.2,8.2-16.7,12.3-24.9c5.1-9.9,10.9-18.7,20.1-25.2
				c14.6-10.6,30.7-10.9,47-4.4C362,368.3,372.9,379.8,381.8,398.6z M216.2,460.2c2.4,1.4,5.5,2.4,7.8,3.7
				c13.3,6.8,25.2,15.3,37.5,23.8c19.1,12.9,39.9,16.4,61.3,8.5c30.7-10.9,49.4-38.5,48.7-71.5c-0.3-20.8-8.9-37.1-27.3-47.4
				c-13.6-7.5-33.4-8.5-45.7,10.6c-2,3.4-4.4,7.2-6.5,10.9c-4.8,8.9-9.2,17.7-13.6,26.6c-11.9,23.2-31,34.1-56.9,33.4
				C219.6,459.6,217.6,459.2,216.2,460.2z M262.2,505.9c-10.6-5.8-19.8-12.3-29-18.4c-6.1-4.1-12.9-8.2-19.4-11.6
				c-7.5-3.7-15-6.8-23.8-6.5c-10.6,0.3-16.4,7.2-13.3,17.7c4.4,14,12.9,24.9,27.6,29.3C225,521.9,243.4,515.8,262.2,505.9z"/>
			<path class="st16" d="M216.2,460.2c1.7-1.7,3.4-1.4,5.5-1.4c25.9,0.7,45-10.2,56.9-33.4c4.8-8.9,8.9-17.7,13.6-26.6
				c2-3.7,4.1-7.5,6.5-10.9c12.3-19.1,32.4-18.1,45.7-10.6c18.4,9.9,26.9,26.6,27.3,47.4c0.7,32.7-17.7,60.6-48.7,71.5
				c-21.8,7.8-42.2,4.4-61.3-8.5c-12.3-8.2-24.5-16.7-37.5-23.8C221.6,463,218.6,461.6,216.2,460.2z"/>
			<path class="st16" d="M262.2,505.9c-18.7,10.2-37.5,16-57.6,9.9c-14.6-4.4-23.5-15-27.6-29.3c-3.1-10.2,2.4-17.4,13.3-17.7
				c8.5-0.3,16.4,3.1,23.8,6.5c6.8,3.4,13.3,7.5,19.4,11.6C242.8,493.6,251.6,499.8,262.2,505.9z"/>
		</g>
	</g>
	<polyline class="st13" points="74.7,440.8 56.1,386.4 41,392.3 60.4,444.4 	"/>
</g>
</svg>
