<?xml version="1.0" encoding="utf-8"?>
<!-- Generator: Adobe Illustrator 27.9.1, SVG Export Plug-In . SVG Version: 6.00 Build 0)  -->
<svg version="1.1" id="Layer_1" xmlns="http://www.w3.org/2000/svg" xmlns:xlink="http://www.w3.org/1999/xlink" x="0px" y="0px"
	 viewBox="0 0 788.3 788.3" style="enable-background:new 0 0 788.3 788.3;" xml:space="preserve">
<style type="text/css">
	.st0{fill:#FCCA1D;}
	.st1{fill:#181516;}
	.st2{fill:#FBFBFB;}
	.st3{fill:#3F383B;}
	.st4{fill:#716E6D;}
	.st5{fill:#B21F36;}
	.st6{fill:#7A1E2F;}
	.st7{opacity:0.74;fill:#FFCCD6;}
	.st8{fill:none;}
	.st9{fill:#CFCECE;}
	.st10{opacity:0.58;}
	.st11{fill:#FFFFFF;}
	.st12{fill:#FCFCFC;}
	.st13{fill:#232121;}
	.st14{fill:#8E1830;}
	.st15{fill:#D6D5D5;}
	.st16{fill:#FCCD2A;}
	.st17{fill:#FDFDFD;}
	.st18{fill:#FFDE83;}
	.st19{fill:#D1CDC5;}
	.st20{fill:#7F3211;}
</style>
<g>
	<circle class="st0" cx="396.1" cy="291.3" r="292.6"/>
	<g>
		<g>
			<path class="st1" d="M397.5,147.5c-3.7-12.7-0.3-21.7,10.8-29c12-7.8,25.1-13.4,38.4-18.4c25.4-9.5,51.3-17.5,78.8-17.8
				c13-0.1,20.7,5.7,24.6,17.9c4.6,14.2,9.1,28.4,13.5,42.7c0.8,2.6,2.1,5.7,1.3,8c-1.9,5.5,1.3,6.9,5,9.2
				c10.4,6.3,12.2,14.9,5.8,23.6c-1.9,2.5-7.1,3.1-5.6,7.4c1.1,3.1,3.8,5.7,5.9,8.4c1.4,1.8,3,3.4,4.5,5.1
				c14.6,16,32.4,28.4,49.2,41.8c19.9,15.9,39.9,31.7,53.2,54c10,16.9,16.1,35.5,22.6,53.8c10.3,29,32.7,106.6,38.5,137
				c1.9,9.8,0.7,19.3-0.5,29.2c-1.8,15.3,0.3,31.1-0.7,46.6c-0.8,12.7,3.3,22.4,11.7,31.6c13.6,15.2,23.6,32.6,28.8,52.5
				c10.1,38.7-13.1,81.3-51.3,93c-17.2,5.3-34.1,5.3-50.6-3.7c-12.6-6.9-17-5.2-24.6,7.1c-1.7,2.7-3.4,5.4-5.3,8
				c-13.4,18.4-31.5,28.8-54.1,29.4c-35.2,0.9-58.5-17.9-74.2-47.6c-10.7-20.1-13.2-41.8-9.3-64.1c2-11.5-0.5-21.5-7.9-30.8
				c-8.3-10.4-15.5-21.5-23.4-32.2c-3.4-4.6-6.5-9.1-11.9-12.6c-6.1-4-8.1-12.5-11-19.4C444.3,542.3,421.6,456.4,411,419
				c-8.4-29.9-7.7-59.2,1.5-88.7c4-12.9,8-25.9,11.8-38.8c4.9-16.5,8.8-33.2,8.9-50.6c0-5.4-0.3-9-7.7-9.6
				c-11.5-0.8-16-9.6-11.1-20.3c2.4-5.3,6.3-10.1-1.1-14.6c-1.2-0.8-1.5-3.2-2.1-5c-2.3-7.2-4.5-14.5-6.7-21.7
				C402.1,162.4,399.7,155,397.5,147.5z M699.8,513.2c8.1-3.2,15.6-7.6,23.5-11.3c3-1.4,3.8-3.2,3.3-6.5
				c-4.4-30.2-28.2-107-37.8-135.6c-3.3-9.8-7.5-19.2-10.9-29c-1.4-4.1-2.7-4.4-6.8-2.7c-19.3,7.9-38.6,15.9-58.4,22.6
				c-43.7,14.9-87.6,29.1-132.2,40.9c-15.7,4.1-31.5,8.4-47.6,10.8c-5.6,0.8-7.6,2.6-5.9,9c7.8,30,29.7,108.1,39.5,137.5
				c2.7,8.2,6,16.3,9.8,24.2c1.6,3.4,3.4,3.9,6.9,3.5c34.6-4,68-12.8,101.2-22.6c5.3-1.6,10.5-3.2,15.8-4.9
				C634,539.1,667,526.3,699.8,513.2z M603.7,250.2c-5-4.1-8.7-7.2-12.5-10.3c-14-11.5-27.7-23.4-37.9-38.6
				c-1.9-2.8-3.5-3.3-6.7-1.8c-29,13.2-59.2,22.3-90.4,28.4c-2.1,0.4-4.5,0.3-4.2,3.9c2,23.3-3.3,45.5-10,67.5
				c-0.1,0.3,0.2,0.8,0.6,2.1C494.5,280.8,547.9,264.3,603.7,250.2z M427.5,179.5c1.4,6.2,5.3,5.8,9.9,4.9c5.7-1.2,3.2-4.9,2.4-8
				c-2.9-10.6-4.5-21.5-8.5-31.8c-1.7-4.5,0.1-6.1,4.2-7.2c13.6-3.9,10.8-4.5,14.6,7.6c3.1,9.8,6.2,19.7,9.1,29.6
				c1.1,3.9,2.7,5,6.9,3.9c14.9-4,14.9-3.8,10.3-18.7c-2.8-9-5.4-18-8.4-26.9c-1.2-3.6-0.4-5.4,3.4-6.5c15.1-4.5,11.6-4.8,15.7,7.7
				c3.2,9.8,6.2,19.7,9.1,29.6c1,3.6,2.5,4.7,6.4,3.7c15.1-4,16.6-6.4,9.7-20.7c-3.6-7.5-5.4-15.6-8.3-23.3
				c-1.8-4.7-0.7-7.5,4.4-8.5c1.3-0.3,2.7-0.7,3.9-1.2c4.8-2.2,7.4-1.2,8.8,4.4c2.7,10.2,6,20.2,9.4,30.2c0.9,2.6,0.3,7.2,5.6,5.6
				c6.7-2,10-5.9,8.3-10.8c-2.2-6.5-4.8-12.8-7.1-19.3c-1-2.8-1.9-5.7-2.7-8.5c-4.9-17.7-5.6-16.3-23.9-14
				c-10.5,1.3-20.4,5.1-30.6,7.8c-19.2,5.1-38,11.4-55.8,20.3c-9.6,4.8-10.3,6.5-7.2,16.7c1.6,5.3,3.2,10.5,4.9,15.8c0,0,0,0,0,0
				C423.9,167.7,426.1,173.5,427.5,179.5z M707.4,620.6c2.9,3.4,5.3,3.9,8.5,0.7c1.1-1.1,2.5-2,3.9-2.8c5.1-3.1,6-6.3,1.9-11.5
				c-9.3-11.8-11.3-26.2-13.1-40.6c-1.4-11.1-2.7-22.2-3.9-33.4c-0.6-5-2.4-6.4-7.7-4.6c-15.8,5.6-15.8,5.3-12.9,21.7
				c2.6,14.6,5,29.3,6.8,40.3C695.2,604,700.6,612.6,707.4,620.6z M549.9,181c2.7-1.4,7.1-2.4,7.1-5.7c0-4.2-4.4-6.7-6.9-9.9
				c-1.4-1.8-2.8,0-4.2,0.7c-33.2,16.1-67.8,28-104.4,33.4c-6.3,0.9-10.6,8.6-7.6,14c1.7,3.2,4.9,1.7,7.5,1.4
				c19-2.3,37.4-7,63.5-14.9C515.3,196.8,532.8,189.4,549.9,181z M721.8,637c-1.7,1.4-1,3.2,0.2,4.9c14.8,19.2,21,40.8,18.5,65
				c-0.1,1.4-0.4,3,1.2,3.5c1.8,0.6,2.9-0.9,4-2.1c7.4-8.4,11.7-18.1,11.7-29.3c0-17.4-5.5-33.2-15.2-47.6c-2.8-4.1-4.8-5.3-7.3-4.6
				C730.7,629.9,726.1,633.3,721.8,637z M642.1,312.9c-9.7-16.1-22.3-29.5-38.2-39.7c-4.8-3.1-8.8-3.5-12.6,1.3
				c-3.9,5-3.5,8.8,1.6,12.9c14.2,11.3,25.7,24.7,32.2,41.9c1,2.6,2.4,2.9,4.8,2c2.1-0.8,4.4-1.4,6.6-2.1
				C649.3,324.8,649.3,324.8,642.1,312.9z"/>
			<path class="st2" d="M442.5,301.4c52-20.6,105.3-37.1,161.2-51.2c-5-4.1-8.7-7.2-12.5-10.3c-14-11.5-27.7-23.4-37.9-38.6
				c-1.9-2.8-3.5-3.3-6.7-1.8c-29,13.2-59.2,22.3-90.4,28.4c-2.1,0.4-4.5,0.3-4.2,3.9c2,23.3-3.3,45.5-10,67.5
				C441.8,299.7,442.1,300.1,442.5,301.4z"/>
			<path class="st3" d="M422.1,161.7c1.8,5.9,4,11.8,5.4,17.8c1.4,6.2,5.3,5.8,9.9,4.9c5.7-1.2,3.2-4.9,2.4-8
				c-2.9-10.6-4.5-21.5-8.5-31.8c-1.7-4.5,0.1-6.1,4.2-7.2c13.6-3.9,10.8-4.5,14.6,7.6c3.1,9.8,6.2,19.7,9.1,29.6
				c1.1,3.9,2.7,5,6.9,3.9c14.9-4,14.9-3.8,10.3-18.7c-2.8-9-5.4-18-8.4-26.9c-1.2-3.6-0.4-5.4,3.4-6.5c15.1-4.5,11.6-4.8,15.7,7.7
				c3.2,9.8,6.2,19.7,9.1,29.6c1,3.6,2.5,4.7,6.4,3.7c15.1-4,16.6-6.4,9.7-20.7c-3.6-7.5-5.4-15.6-8.3-23.3
				c-1.8-4.7-0.7-7.5,4.4-8.5c1.3-0.3,2.7-0.7,3.9-1.2c4.8-2.2,7.4-1.2,8.8,4.4c2.7,10.2,6,20.2,9.4,30.2c0.9,2.6,0.3,7.2,5.6,5.6
				c6.7-2,10-5.9,8.3-10.8c-2.2-6.5-4.8-12.8-7.1-19.3c-1-2.8-1.9-5.7-2.7-8.5c-4.9-17.7-5.6-16.3-23.9-14
				c-10.5,1.3-20.4,5.1-30.6,7.8c-19.2,5.1-38,11.4-55.8,20.3c-9.6,4.8-10.3,6.5-7.2,16.7C418.9,151.2,420.5,156.5,422.1,161.7
				C422.1,161.7,422.1,161.7,422.1,161.7z"/>
			<path class="st4" d="M690.9,590.4c4.3,13.6,9.7,22.2,16.5,30.2c2.9,3.4,5.3,3.9,8.5,0.7c1.1-1.1,2.5-2,3.9-2.8
				c5.1-3.1,6-6.3,1.9-11.5c-9.3-11.8-11.3-26.2-13.1-40.6c-1.4-11.1-2.7-22.2-3.9-33.4c-0.6-5-2.4-6.4-7.7-4.6
				c-15.8,5.6-15.8,5.3-12.9,21.7C686.7,564.8,689.1,579.4,690.9,590.4z"/>
			<path class="st2" d="M504.8,199.8c10.4-3.1,28-10.4,45.1-18.9c2.7-1.4,7.1-2.4,7.1-5.7c0-4.2-4.4-6.7-6.9-9.9
				c-1.4-1.8-2.8,0-4.2,0.7c-33.2,16.1-67.8,28-104.4,33.4c-6.3,0.9-10.6,8.6-7.6,14c1.7,3.2,4.9,1.7,7.5,1.4
				C460.3,212.4,478.7,207.8,504.8,199.8z"/>
			<path class="st4" d="M734.8,626.7c-4.1,3.2-8.7,6.6-13.1,10.3c-1.7,1.4-1,3.2,0.2,4.9c14.8,19.2,21,40.8,18.5,65
				c-0.1,1.4-0.4,3,1.2,3.5c1.8,0.6,2.9-0.9,4-2.1c7.4-8.4,11.7-18.1,11.7-29.3c0-17.4-5.5-33.2-15.2-47.6
				C739.4,627.2,737.4,626,734.8,626.7z"/>
			<path class="st4" d="M636.5,329.3c12.8-4.5,12.8-4.5,5.6-16.4c-9.7-16.1-22.3-29.5-38.2-39.7c-4.8-3.1-8.8-3.5-12.6,1.3
				c-3.9,5-3.5,8.8,1.6,12.9c14.2,11.3,25.7,24.7,32.2,41.9c1,2.6,2.4,2.9,4.8,2C632.1,330.5,634.3,330,636.5,329.3z"/>
			<path class="st5" d="M426.9,411.2c-1.7-6.4,0.3-8.2,5.9-9c16.1-2.3,31.9-6.6,47.6-10.8c44.6-11.8,88.5-26,132.2-40.9
				c19.7-6.7,39.1-14.7,58.4-22.6c4.1-1.7,5.4-1.4,6.8,2.7c3.4,9.7,7.6,19.2,10.9,29c9.6,28.7,33.4,105.5,37.8,135.6
				c0.5,3.3-0.3,5.1-3.3,6.5c-7.9,3.7-15.4,8.1-23.5,11.3C667,526.3,634,539.1,600,548.9c-5.3,1.6-10.5,3.3-15.8,4.9
				c-33.2,9.8-66.7,18.7-101.2,22.6c-3.5,0.4-5.3-0.1-6.9-3.5c-3.8-7.9-7-16-9.8-24.2C456.6,519.3,434.7,441.2,426.9,411.2z"/>
			<path class="st6" d="M489,558.9c-18.1-13.9-62.6-152.3-62.6-152.4c-0.2,1.2,0,2.7,0.5,4.7c7.8,30,29.7,108.1,39.5,137.5
				c2.7,8.2,6,16.3,9.8,24.2c1.6,3.4,3.4,3.9,6.9,3.5c34.6-4,68-12.8,101.2-22.6c5.3-1.6,10.5-3.2,15.8-4.9
				c34-9.7,66.9-22.6,99.8-35.7C699.8,513.2,507.2,572.8,489,558.9z"/>
			<path class="st7" d="M683.4,448.5c-4.8-15.5-22.7-79.4-27.3-95c-1.2-4.2-2.5-5.3-7-3.7c-16,5.7-16,5.5-11.1,21.4
				c8.7,28,30.5,104.4,38.9,132.5c1.6,5.2,2.9,7,8.7,4.6c14.4-5.9,14.5-5.5,10-20.3C691.5,474.7,687.4,461.6,683.4,448.5
				C683.4,448.5,683.4,448.5,683.4,448.5z"/>
		</g>
	</g>
	<g>
		<g>
			<g>
				<path class="st8" d="M425.9,459.1c-0.7,2.3-1.5,4.6-2.4,6.9c-12.4,44.5-24.8,89-37.2,133.6c12.4-44.5,24.8-89,37.2-133.6
					C424.4,463.7,425.2,461.4,425.9,459.1z"/>
				<path class="st8" d="M140.5,577c-5.1-1.9-10.1-3.9-15.1-5.9C130.3,573.1,135.4,575.1,140.5,577z"/>
				<path class="st8" d="M125.3,571c-27.6-11.3-54-24.8-78.3-42.7c-8.3,29.5-16.7,58.9-24.7,88.4c8-29.5,16.4-58.9,24.7-88.4
					c0.6-2.4,1.3-4.8,1.9-7.2c-0.6,2.4-1.3,4.8-1.9,7.2C71.3,546.2,97.8,559.8,125.3,571z"/>
				<path class="st8" d="M350.6,266c0.7,0.4,1.5,0.8,2.2,1.3c0.8,0.3,1.6,0.6,2.3,0.9c-0.8-0.3-1.6-0.6-2.3-0.9
					C352,266.8,351.3,266.4,350.6,266z"/>
				<g>
					<path class="st1" d="M119.6,244.8c1.8,8.8-0.4,14.9-7.2,20.5c-11.3,9.3-17.8,21.5-21.8,35.8C63.7,399.6,36.3,497.8,9,596.1
						c-2.1,7.5-3.5,15.3-6,22.7c-4.4,12.4-1.3,23.1,6.7,32.8c3.2,3.9,4.6,7.8,3.4,12.7c-3.6,15.3,2.8,26.9,13.8,36.6
						c17.3,15.3,37.7,25.3,58.5,34.4c36,15.7,73.3,27.3,111.7,35.6c32.8,7.1,65.9,13,99.8,10.3c4.3-0.3,8.7-1.1,12.9-1.9
						c14.6-2.8,25.4-10.4,30.7-24.7c1.5-4,4.1-6.5,8-7.8c13.3-4.5,20.4-13.6,24.1-27.5c13.9-52.7,28.9-105.2,43.5-157.8
						c0.3,0.1,0.6,0.2,0.9,0.2c15.1-54.6,30.2-109.2,45.5-163.7c3.4-12.2,2.4-24.2-1-36c-2.2-7.7-1.3-14,4.1-20.4
						c7.8-9.3,8.1-17.7,1.7-27.9c-8.9-14.3-22.3-23.7-36.5-31.8c-48.5-27.6-101.3-43.5-155-56.9c-34-8.4-68.3-15.2-103.5-14.9
						c-13.6,0.1-27.1,1.5-39.4,8.3C122.7,224,117.3,233.8,119.6,244.8z M31.1,666.7c89.5,52.8,185.9,79.3,290.1,81.7
						c-3.3,8.4-10.8,11.5-19,13.2c-18.3,3.8-36.7,2.5-54.9,0c-62.1-8.8-122-25.3-178.2-53.7c-11.9-6-23.2-13.1-32.5-23
						C31.7,679.6,29.1,673.6,31.1,666.7z M130.5,272.4c2.9-2.5,4.4-2.2,6.8,0.1c5.4,5.1,11.3,9.4,17.6,13.3
						c33.3,21,69.8,34.8,107,46.7c21.4,6.9,43.3,12.6,65.5,16.8c36.2,6.7,72.4,13,109.4,6.9c2-0.3,4.5-1.2,5.1,1.8
						c2.2,11.2,6.7,22.3,3.4,33.9c-1.3,4.6-2.6,9.2-4,13.7c-4,13.7-8.1,27.4-12.2,41.2c0,0,0,0,0,0c-0.9,4.1-1.9,8.2-3.1,12.3
						c-0.7,2.3-1.5,4.6-2.4,6.9c-12.4,44.5-24.8,89-37.2,133.6c-2,6.9-3.9,13.8-5.9,20.8c-8.4,30.4-16.8,60.8-25.2,91.1
						c-2.5,8.9-8.1,13.9-17.3,15.6c-7.2,1.4-14.4,2.8-21.8,3.2c-45.8,2.7-90.2-5.9-134.1-17.4c-32.7-8.5-64.7-19.8-95.1-34.6
						c-19.8-9.7-39.2-20.2-55.5-35.5c-7.6-7.2-11.7-15.7-8.9-26c8-29.5,16.4-58.9,24.7-88.4c0.6-2.4,1.3-4.8,1.9-7.2
						c1.2-4.5,2.4-9,3.6-13.4c11-40.1,22.1-80.2,33.2-120.2c1.3-4.6,2.9-9.2,4.3-13.8c0.3-1.7,0.6-3.3,1-4.9
						c1.1-4.9,2.6-9.7,4.3-14.5c2.7-10.2,5.8-20.2,8.3-30.4c0.9-3.4,1.7-6.8,2.4-10.2C109.6,296.9,117.8,283.5,130.5,272.4z
						 M145.8,231.3c5.7-1.9,11.6-2.8,17.6-3.1c34.2-1.7,67.4,4.7,100.4,12.4c0,0,0,0,0,0l0.3,0.1c1.4,0.3,2.8,0.7,4.2,1
						c0.2,0.1,0.4,0.1,0.6,0.2l8.2,2c0.8-0.1,1.8,0.4,2.5,0.6c19.2,5.5,38.7,10.1,57.4,17.2c2.4,0.1,4.5,1,6.5,2.1
						c2.4,0.5,4.9,1.2,7.1,2.3c0.7,0.4,1.5,0.8,2.2,1.3c0.8,0.3,1.6,0.6,2.3,0.9c11.4,3.2,21.8,9.1,32.8,13.1
						c19.8,7.3,38.4,16.2,54.9,29.3c5.4,4.3,11.8,9.2,9.8,16.9c-2,7.5-9.8,9-16.6,10.4c-19.3,4-38.9,3.2-58.3,1
						c-50.8-5.6-99.9-18.5-147.6-36.7c-25.8-9.8-51-20.8-73.5-37.2c-6.7-4.9-13.2-10-17.3-17.5C134.8,239.5,136.8,234.3,145.8,231.3
						z"/>
					<path class="st1" d="M246.1,242.4c-9.4,3.1-18.4,7-19.9,18.3c-1.6,12.3,6.5,19.5,15.4,25.6c7.4,5.1,15.9,8.6,24.8,9.7
						c16.3,2,31.6,6.4,46.3,14.1c10.7,5.7,22.8,7.1,34.9,4.4c14.7-3.4,18.4-15.9,7.9-26.7c-7.3-7.5-16.1-13.5-26.4-15.4
						c-16.9-3.1-30.1-12.6-43.7-21.9c-2.4-0.9-4.8-1.7-7.1-2.6c0,0-11.8-3.1-12.5-4.1C259.4,242.9,252.8,242,246.1,242.4z
						 M307.9,281.5c5-1,10-0.1,15.9,1.4c6,2,12.9,4.4,17.8,10.3c3.5,4.3,2.2,8.3-3.2,8.9c-13,1.5-24.4-3-33.8-11.8
						C300.8,286.7,302.5,282.6,307.9,281.5z M250.6,257.2c14.1-1.8,26.4,2.7,36.3,12.6c4.9,4.9,2.7,10.7-4.1,12.3
						c-5.8,1.4-11.4,0.2-17-1.3c-6.1-1.6-11.8-4-16.8-7.8c-0.7-0.5-1.4-1.1-2.1-1.7c-2.5-2.2-4.4-5-3.5-8.5
						C244.4,259.3,247.3,257.6,250.6,257.2z"/>
				</g>
				<path class="st9" d="M359.3,272.4c25,11.4,50.2,22.4,73,38c0.8,0.5,1.6,1,2.3,1.5c3.7,2.9,7.8,6.4,6.7,11.2
					c-1,4.2-6.1,5-10.2,5.9c-17.1,3.8-34.3,2.5-51.4,0.5c-26.2-3.1-51.8-9.4-77.5-15.2c-33.3-7.5-65-18.9-96.2-32.5
					c-14.4-6.3-27.1-15.3-40.6-23.1c-5.2-3-9.4-7.3-12.2-12.8c-2.5-4.9-1.4-7.6,4.2-8.9c12-3,24.2-2.2,36.3-1.7
					c17.1,0.7,34.1,3.3,51.1,5.7c0.5,0.1,0.9,0.9,1.3,1.4c-9.4,3.1-18.4,7-19.9,18.3c-1.6,12.3,6.5,19.5,15.4,25.6
					c7.4,5.1,15.9,8.6,24.8,9.7c16.3,2,31.6,6.4,46.3,14.1c10.7,5.7,22.8,7.1,34.9,4.4c14.7-3.4,18.4-15.9,7.9-26.7
					c-7.3-7.5-16.1-13.5-26.4-15.4c-16.9-3.1-30.1-12.6-43.7-21.9c2.5-1.8,4.9-0.1,7.2,0.5c12.4,3.4,24.8,6.9,37.2,10.3
					c2.3,0.6,4.7,2.4,7.2,0.4c2.4,0.1,4.5,1,6.5,2.1c1.5,5.3,5.3,4.7,9.3,3.6c0.8,0.3,1.6,0.6,2.3,0.9
					C354.4,271.7,357.4,271.5,359.3,272.4z"/>
				<path class="st9" d="M321.2,748.4c-3.3,8.4-10.8,11.5-19,13.2c-18.3,3.8-36.7,2.5-54.9,0c-62.1-8.8-122-25.3-178.2-53.7
					c-11.9-6-23.2-13.1-32.5-23c-4.9-5.2-7.5-11.3-5.6-18.1C120.6,719.5,217,746.1,321.2,748.4z"/>
				<path class="st2" d="M282.8,282.1c-5.8,1.4-11.4,0.2-17-1.3c-6.1-1.6-11.8-4-16.8-7.8c-0.7-0.5-1.4-1.1-2.1-1.7
					c-2.5-2.2-4.4-5-3.5-8.5c0.9-3.5,3.8-5.2,7.1-5.6c14.1-1.8,26.4,2.7,36.3,12.6C291.9,274.7,289.7,280.4,282.8,282.1z"/>
				<path class="st2" d="M282.8,282.1c-5.8,1.4-11.4,0.2-17-1.3c-6.1-1.6-11.8-4-16.8-7.8c5,3.8,10.7,6.2,16.8,7.8
					C271.4,282.3,277.1,283.5,282.8,282.1z"/>
				<path class="st2" d="M323.9,282.9c6,2,12.9,4.4,17.8,10.3c3.5,4.3,2.2,8.3-3.2,8.9c-13,1.5-24.4-3-33.8-11.8
					c-3.9-3.6-2.2-7.7,3.3-8.8C313,280.5,317.9,281.4,323.9,282.9z"/>
				<path class="st2" d="M343.5,263.7c2.4,0.5,4.9,1.2,7.1,2.3c0.7,0.4,1.5,0.8,2.2,1.3C348.7,268.4,345,269,343.5,263.7z"/>
				<path class="st5" d="M106,313.6c3.6-16.7,11.8-30.1,24.5-41.2c2.9-2.5,4.4-2.2,6.8,0.1c5.4,5.1,11.3,9.4,17.6,13.3
					c33.3,21,69.8,34.8,107,46.7c21.4,6.9,43.3,12.6,65.5,16.8c36.2,6.7,72.4,13,109.4,6.9c2-0.3,4.5-1.2,5.1,1.8
					c2.2,11.2,6.7,22.3,3.4,33.9c-1.3,4.6-2.6,9.2-4,13.7c-4,13.7-8.1,27.4-12.2,41.2c0,0,0,0,0,0c-0.9,4.1-1.9,8.2-3.1,12.3
					c-0.7,2.3-1.5,4.6-2.4,6.9c-12.4,44.5-24.8,89-37.2,133.6c-2,6.9-3.9,13.8-5.9,20.8c-8.4,30.4-16.8,60.8-25.2,91.1
					c-2.5,8.9-8.1,13.9-17.3,15.6c-7.2,1.4-14.4,2.8-21.8,3.2c-45.8,2.7-90.2-5.9-134.1-17.4c-32.7-8.5-64.7-19.8-95.1-34.6
					c-19.8-9.7-39.2-20.2-55.5-35.5c-7.6-7.2-11.7-15.7-8.9-26c8-29.5,16.4-58.9,24.7-88.4c21.3,15.7,44.1,28,68,38.4
					c-23.8-10.4-46.7-22.7-68-38.4c0.6-2.4,1.3-4.8,1.9-7.2c1.2-4.5,2.4-9,3.6-13.4c11-40.1,22.1-80.2,33.2-120.2
					c1.3-4.6,2.9-9.2,4.3-13.8c0.3-1.7,0.6-3.3,1-4.9c1.1-4.9,2.6-9.7,4.3-14.5c2.7-10.2,5.8-20.2,8.3-30.4
					C104.5,320.4,105.3,317,106,313.6z"/>
				<g>
					<g>
						<g>
							<path class="st6" d="M442.2,360c-0.1-0.7-0.3-1.4-0.4-2.1c-0.6-2.9-3.1-2.1-5.1-1.8c-10.5,1.7-21,2.5-31.5,2.5
								C417.4,360,429.7,360.7,442.2,360z"/>
						</g>
						<g>
							<path class="st6" d="M322.5,728.4c-45.9,1.1-90-9.1-133.5-22.1c-32.4-9.7-63.9-22.1-93.9-38C75.7,658,56.7,646.8,41,630.9
								c-7.4-7.5-11.1-16.1-8-26.3c7.3-23.5,14.8-46.9,22.3-70.3c-2.8-1.9-5.6-3.9-8.3-5.9c-8.3,29.5-16.7,58.9-24.7,88.4
								c-2.8,10.3,1.3,18.8,8.9,26c16.3,15.4,35.7,25.9,55.5,35.5c30.5,14.8,62.4,26.1,95.1,34.6c43.9,11.5,88.3,20.1,134.1,17.4
								c7.4-0.4,14.6-1.8,21.8-3.2c0.6-0.1,1.2-0.2,1.8-0.4C333.9,727.5,328.3,728.2,322.5,728.4z"/>
						</g>
						<g>
							<path class="st6" d="M60.9,517.1c0.7-2.4,1.4-4.7,2.2-7.1c1.4-4.4,2.7-8.9,4.1-13.3c12.5-39.7,24.9-79.3,37.4-119
								c1.4-4.6,3.2-9.1,4.8-13.6c0.3-1.6,0.7-3.3,1.2-4.9c1.3-4.9,3-9.6,4.8-14.3c3.1-10.1,6.5-20,9.4-30.1c1-3.4,1.9-6.7,2.8-10.1
								c2.7-10.9,7.4-20.2,14-28.4c-1.4-1.2-2.8-2.4-4.1-3.6c-2.4-2.3-3.9-2.6-6.8-0.1c-12.7,11.1-20.9,24.6-24.5,41.2
								c-0.7,3.4-1.5,6.8-2.4,10.2c-2.6,10.2-5.6,20.3-8.3,30.4c-1.6,4.8-3.2,9.6-4.3,14.5c-0.4,1.6-0.7,3.3-1,4.9
								c-1.4,4.6-3,9.1-4.3,13.8c-11.1,40.1-22.1,80.1-33.2,120.2c-1.2,4.5-2.4,9-3.6,13.4c-0.6,2.4-1.3,4.8-1.9,7.2
								c2.7,2,5.5,4,8.3,5.9C57.2,528.5,59,522.8,60.9,517.1"/>
						</g>
					</g>
				</g>
				<g class="st10">
					<path class="st11" d="M261.9,340c-5.2-1.5-10.5-3.1-15.8-4.8c-33.5-10.7-72.6-24.8-108.6-47.5c-2.7-1.7-5.2-3.4-7.6-5.1
						c1.2-1.3,2.5-2.6,3.9-3.8c4.8,4.4,10.5,8.6,17.3,12.9c36,22.7,75.1,36.7,108.6,47.5c3,1,6.1,1.9,9.1,2.8
						C266.5,341.3,264.2,340.6,261.9,340z"/>
					<path class="st11" d="M169.9,702.2c38.5,10.1,84.3,20,132,17.1c6.5-0.4,12.9-1.6,19.7-2.9l1.3-0.2c6.6-1.2,10.2-4.4,11.9-10.7
						c5.8-21.1,25.2-91.1,25.2-91.1l5.9-20.8l37.3-133.9l0.1-0.4c0.8-1.9,1.5-4,2.2-6.3c1.2-3.9,2.1-8,2.9-11.8l0.1-0.2l0.1-0.2
						c1.6-5.4,3.2-10.8,4.8-16.2c2.5-8.3,5-16.6,7.4-25c1.3-4.6,2.7-9.1,3.9-13.7c1.9-6.8,0.5-13.8-1.3-21.2
						c4.1-0.4,8.2-0.8,12.3-1.5c0.3,1.3,0.6,2.6,0.9,3.8c1.9,8,3.8,15.6,1.7,22.8c-1.3,4.6-2.6,9.1-3.9,13.7
						c-2.4,8.3-4.9,16.7-7.4,25c-1.6,5.4-3.2,10.8-4.8,16.2l-0.1,0.2l-0.1,0.2c-0.8,3.8-1.8,7.9-2.9,11.8c-0.7,2.3-1.4,4.4-2.2,6.3
						l-0.1,0.4l-37.3,133.9l-5.9,20.8c0,0-19.4,70-25.2,91.1c-1.7,6.2-5.3,9.4-11.9,10.7l-1.3,0.2c-6.8,1.3-13.2,2.5-19.7,2.9
						c-47.7,2.8-93.5-7.1-132-17.1c-5.4-1.4-10.8-2.9-16-4.4c-1.9-0.6-3.9-1.2-5.8-1.8C164.5,700.8,167.2,701.5,169.9,702.2z"/>
				</g>
			</g>
			<g>
				<g>
					<path class="st1" d="M413.9,471.2c-30,8.2-65.5,10.9-105.6,8c-14-1-27.1-3.4-39.1-7.2c-50.3-15.9-76.8-54.4-104.8-95
						c-15.2-22-30.8-44.8-50.5-63.5l-18.8-17.8l-6.4,25.1c-1.4,5.6-3.1,11.4-4.6,17c-1.1,4-2.3,8-3.3,12.1c-2.1,6-3.5,10.8-4.6,15.5
						c-0.4,1.6-0.7,3.2-1,4.7c-0.3,1.1-0.7,2.2-1.1,3.3c-1,3.2-2.1,6.6-3.1,10L61.2,419l6.6,6.3c24.6,23.4,49.6,53.9,81.2,92.5
						c14.8,18.1,31.6,38.5,50.4,60.8c22.1,26.1,47.4,43.9,75.3,52.7c0,0,0,0,0,0c45.1,14.3,87.7,2.4,115.5-10.1l6.5-2.9l4.2-14.6
						l38.9-139.6L413.9,471.2z"/>
				</g>
			</g>
			<path class="st11" d="M85.7,387.4c1.3-4.6,2.9-9.2,4.3-13.8c0.3-1.7,0.6-3.3,1-4.9c1.1-4.9,2.6-9.7,4.3-14.5
				c2.7-9.9,5.6-19.8,8.2-29.8c61.6,58.6,82.9,161.4,203.8,169.9c47.4,3.3,83.6-1.1,110.7-8.5c-10.6,37.9-21.1,75.8-31.7,113.7
				c-0.7,2.6-1.5,5.2-2.2,7.8c-41.5,18.6-112.2,33.3-173-38.6c-58.8-69.6-95.6-119.2-132.7-154.5C80.8,405.3,83.2,396.4,85.7,387.4z
				"/>
		</g>
		<path class="st11" d="M145.8,231.3c5.7-1.9,11.6-2.8,17.6-3.1c34.2-1.7,67.4,4.7,100.4,12.4c0,0,0,0,0,0l0.3,0.1
			c1.4,0.3,2.8,0.7,4.2,1c0.2,0.1,0.4,0.1,0.6,0.2l8.2,2c0.8-0.1,1.8,0.4,2.5,0.6c19.2,5.5,38.7,10.1,57.4,17.2
			c-2.5,2-4.9,0.3-7.2-0.4c-12.4-3.4-24.8-6.9-37.2-10.3c-2.3-0.6-4.7-2.3-7.2-0.5c-2.4-0.9-4.8-1.7-7.1-2.6c0,0-11.8-3.1-12.5-4.1
			c-6.5-0.9-13.1-1.8-19.7-1.4c-0.4-0.5-0.8-1.3-1.3-1.4c-17-2.5-34-5-51.1-5.7c-12.1-0.5-24.3-1.3-36.3,1.7c-5.6,1.4-6.6,4-4.2,8.9
			c2.8,5.6,7,9.8,12.2,12.8c13.5,7.7,26.2,16.8,40.6,23.1c31.2,13.6,62.9,24.9,96.2,32.5c25.7,5.8,51.3,12.2,77.5,15.2
			c17.1,2,34.3,3.3,51.4-0.5c4-0.9,9.2-1.7,10.2-5.9c1.1-4.8-2.9-8.3-6.7-11.2c-0.7-0.6-1.5-1-2.3-1.5c-22.8-15.6-48-26.6-73-38
			c-1.9-0.9-4.9-0.6-4.2-4.2c11.4,3.2,21.8,9.1,32.8,13.1c19.8,7.3,38.4,16.2,54.9,29.3c5.4,4.3,11.8,9.2,9.8,16.9
			c-2,7.5-9.8,9-16.6,10.4c-19.3,4-38.9,3.2-58.3,1c-50.8-5.6-99.9-18.5-147.6-36.7c-25.8-9.8-51-20.8-73.5-37.2
			c-6.7-4.9-13.2-10-17.3-17.5C134.8,239.5,136.8,234.3,145.8,231.3z"/>
	</g>
</g>
</svg>
