<?xml version="1.0" encoding="UTF-8"?>
<svg id="Layer_1" data-name="Layer 1" xmlns="http://www.w3.org/2000/svg" viewBox="0 0 2789.8 1704">
  <defs>
    <style>
      .cls-1 {
        fill: #f8f6f1;
      }

      .cls-1, .cls-2, .cls-3, .cls-4, .cls-5, .cls-6, .cls-7, .cls-8, .cls-9, .cls-10, .cls-11, .cls-12, .cls-13, .cls-14, .cls-15, .cls-16, .cls-17, .cls-18, .cls-19, .cls-20, .cls-21, .cls-22, .cls-23, .cls-24, .cls-25, .cls-26, .cls-27, .cls-28, .cls-29, .cls-30 {
        stroke-width: 0px;
      }

      .cls-2 {
        fill: #232121;
      }

      .cls-3 {
        fill: #e93b48;
      }

      .cls-4 {
        fill: #0e0e0e;
      }

      .cls-5 {
        fill: #b8cacd;
      }

      .cls-6 {
        fill: #f26866;
      }

      .cls-7 {
        fill: #911f36;
      }

      .cls-9 {
        fill: #cb832a;
      }

      .cls-10 {
        fill: #cd2328;
      }

      .cls-11 {
        fill: none;
      }

      .cls-12 {
        fill: #6b6b6b;
      }

      .cls-13 {
        fill: #8b6271;
      }

      .cls-14 {
        fill: #6d1628;
      }

      .cls-15 {
        fill: #ec626c;
      }

      .cls-16 {
        fill: #cfdcdc;
      }

      .cls-17 {
        fill: #606161;
      }

      .cls-18 {
        fill: #0d0d0d;
      }

      .cls-19 {
        fill: #b62225;
      }

      .cls-20 {
        fill: #fff;
      }

      .cls-21 {
        fill: #ea5661;
      }

      .cls-22 {
        fill: #65a042;
      }

      .cls-23 {
        fill: #f9f8f2;
      }

      .cls-24 {
        fill: #b31f36;
      }

      .cls-25 {
        fill: #8e192f;
      }

      .cls-26 {
        fill: #4a77a8;
      }

      .cls-27 {
        fill: #ffcd05;
      }

      .cls-31 {
        opacity: .15;
      }

      .cls-28 {
        fill: #84827e;
      }

      .cls-29 {
        fill: #f4ece5;
      }

      .cls-30 {
        fill: #54121d;
      }
    </style>
  </defs>
  <rect class="cls-27" width="2789.8" height="1704"/>
  <g>
    <path class="cls-18" d="m1768.3,864.74c-96.63,0-138.87-54.39-141.36-57.82l39.43-29.3-.16-.31c3.12,3.9,76.84,93.51,277.89-15.59,11.84-6.55,26.81-2.03,33.35,9.82,6.55,11.84,2.03,26.81-9.82,33.35-83.07,44.89-148.69,59.85-199.34,59.85Z"/>
    <g>
      <path class="cls-10" d="m1901.55,625.51c-.31.16-.62.62-.94.94-.62.16-1.4.47-2.03.62.62-.16,1.4-.47,2.03-.62.31-.31.62-.78.94-.94Z"/>
      <path class="cls-10" d="m1896.88,627.22c.31-.31.62-.31.78-.31-.16,0-.47,0-.78.31-1.09.47-2.34.78-3.43,1.25-.16,0-.31.16-.47.16.16,0,.31-.16.47-.16,1.25-.47,2.34-.94,3.43-1.25Z"/>
      <path class="cls-10" d="m1919.79,642.34c-.16-.47-.31-1.25-.62-1.71-1.71-4.52-2.65-9.2-4.83-13.56,2.18,4.21,3.12,9.04,4.83,13.56.31.47.31,1.09.62,1.71Z"/>
      <path class="cls-10" d="m1910.75,623.95c-.94-.31-1.87-.47-2.96-.31,1.09-.16,2.03,0,2.96.31Z"/>
      <path class="cls-10" d="m1897.19,738.03c1.09-.31,2.34-.78,3.43-1.09,5.14-1.71,10.29-3.43,15.59-5.14-5.14,1.71-10.29,3.43-15.59,5.14-1.09.31-2.34.62-3.43,1.09Z"/>
      <path class="cls-10" d="m1875.06,638.44c-.16.31-.16.62,0,.94-.16-.31-.16-.62,0-.94Z"/>
      <path class="cls-10" d="m1878.95,633.61c-.16,0-.31.16-.31.16-.62.16-1.09.31-1.56.62.47-.31.94-.47,1.56-.62q.16-.16.31-.16Z"/>
      <path class="cls-10" d="m1875.21,638.29h0c.16.31.16.62.31.94-.16-.31-.31-.62-.31-.94Z"/>
      <path class="cls-10" d="m1883.78,662.45c0,.16.16.31.16.62h0c0-.31-.16-.47-.16-.62h0Z"/>
      <path class="cls-10" d="m1902.64,625.66h0c1.87-1.25,3.74-1.87,5.3-2.03-1.71.16-3.43.78-5.3,2.03Z"/>
      <path class="cls-10" d="m1921.66,653.09c1.09,2.34,2.49,4.52,4.21,6.55-1.71-2.03-3.27-4.05-4.21-6.55Z"/>
      <path class="cls-10" d="m1875.52,636.73q0-.16.16-.31c-.16.16-.16.31-.16.31Z"/>
      <path class="cls-10" d="m1925.71,659.64c1.09,1.4,2.18,2.65,3.43,3.9-1.09-1.25-2.34-2.65-3.43-3.9Z"/>
      <path class="cls-10" d="m1883.94,692.06c.16-2.96.47-6.08.62-9.04,0,2.96-.31,5.92-.62,9.04Z"/>
      <path class="cls-10" d="m1916.2,731.64c2.96-.94,5.92-2.03,9.04-2.96,7.95-2.65,16.05-5.14,24-7.79-7.95,2.65-16.05,5.14-24,7.79-3.12.94-6.08,2.03-9.04,2.96Z"/>
      <path class="cls-10" d="m1963.11,705.77c-.31-.78-.62-1.4-1.09-2.18-1.25-2.03-2.65-4.05-4.05-5.92,1.4,1.87,2.81,3.9,4.05,5.92.47.78.78,1.56,1.09,2.18Z"/>
      <path class="cls-10" d="m1924.31,646.7c0-.16.16-.31,0-.62v.62h0Z"/>
      <path class="cls-10" d="m1935.37,670.86c-.94-1.09-1.87-2.34-2.81-3.43-1.09-1.4-2.18-2.65-3.27-3.9,1.09,1.25,2.34,2.65,3.27,3.9.94,1.09,1.87,2.34,2.81,3.43Z"/>
      <path class="cls-10" d="m1924.31,646.24c0-.16-.16-.47-.16-.62-.16-.47-.31-1.09-.47-1.56.16.47.31,1.25.47,1.56,0,.16.16.31.16.62Z"/>
      <path class="cls-10" d="m1966.23,715.59h0c0-.16-.16-.47-.16-.62-.31-.94-.62-1.87-.94-2.96.31.94.47,2.03.94,2.96,0,.31.16.47.16.62Z"/>
      <path class="cls-10" d="m1943.94,681.15c3.27,3.58,6.55,7.17,9.66,10.91-3.12-3.74-6.39-7.33-9.66-10.91-2.65-3.58-5.61-6.86-8.57-10.29,2.81,3.43,5.92,6.7,8.57,10.29Z"/>
      <path class="cls-10" d="m1883.94,663.07c.47-.16.78-.31,1.25-.47-.31.16-.78.31-1.25.47.16,0,0,0,0,0,.47,1.87,1.56,3.58,1.4,5.61-.31,4.83-.47,9.51-.62,14.34.16-4.83.47-9.51.62-14.34.16-2.18-.94-3.74-1.4-5.61Z"/>
      <path class="cls-10" d="m1966.86,718.24c0,.31.16.78.16,1.09-5.3,1.71-10.75,3.43-16.05,5.14,5.3-1.71,10.75-3.43,16.05-5.14,0-.31-.16-.78-.16-1.09Z"/>
      <path class="cls-10" d="m1966.39,716.06c0-.16-.16-.31-.16-.47h0c.16.16.16.31.16.47Z"/>
      <path class="cls-10" d="m1887.84,631.12h0c1.09,3.58,2.34,7.17,3.58,10.75-1.25-3.58-2.49-7.17-3.58-10.75Z"/>
      <path class="cls-10" d="m1887.84,631.12h0c1.09,3.58,2.34,7.17,3.58,10.75-1.25-3.58-2.49-7.17-3.58-10.75Z"/>
      <path class="cls-10" d="m1914.96,636.73c-2.81.94-5.61,1.87-8.42,2.81,0,.16.16.16.16.31,0-.16-.16-.16-.16-.31,3.58-1.09,7.01-2.34,10.6-3.43h0c-.62.16-1.4.47-2.18.62Z"/>
      <path class="cls-10" d="m1917.14,636.11c0,.16.16.31.16.31.62,1.87,1.25,3.74,2.03,5.45-.78-1.87-1.4-3.9-2.18-5.77Z"/>
      <path class="cls-10" d="m1916.98,635.48s0-.16,0,0c-.94-2.96-1.71-5.61-2.65-8.42.94,2.81,1.71,5.45,2.65,8.42,0-.16,0,0,0,0Z"/>
      <path class="cls-10" d="m1901.4,657.3c1.71-.62,3.27-1.09,4.99-1.71-1.71.62-3.27,1.25-4.99,1.71h0Z"/>
      <path class="cls-10" d="m1890.33,702.19c0,.94,0,2.03-.16,2.96.16-2.03.16-3.9.16-5.92h0v2.96Z"/>
      <path class="cls-10" d="m1890.33,699.23c0,.94-.16,2.03-.16,2.96.16-.94.16-2.03.16-2.96h0Z"/>
      <path class="cls-10" d="m1902.95,628.47c-.31.16-.62.16-.94.31h.16c.16-.16.47-.16.78-.31h0Z"/>
      <path class="cls-10" d="m1903.42,629.87c0,.16.16.31.16.31-.16-.31-.31-.62-.31-.94,0,.16,0,.47.16.62Z"/>
      <path class="cls-10" d="m1902.18,628.78c.31,0,.47-.16.78-.16h0c-.31,0-.47,0-.78.16Z"/>
      <path class="cls-10" d="m1899.99,631.43c-.47-.94-.94-1.71-1.4-2.65-.16-.31-.16-.62-.31-.94.16.31.16.62.31.94.47.78.94,1.71,1.4,2.65Z"/>
      <path class="cls-25" d="m1938.8,729.15c-4.05,1.4-8.1,2.65-12.16,4.05,4.52,13.4,8.88,26.96,13.4,40.37-4.52-13.4-8.88-26.96-13.4-40.37,4.05-1.25,8.1-2.65,12.16-4.05Z"/>
      <path class="cls-25" d="m1940.05,773.73c7.95-2.65,16.05-5.14,24-7.79h0c-7.95,2.49-15.9,5.14-24,7.79Z"/>
      <path class="cls-25" d="m1964.52,765.47c-3.74-8.1-6.86-16.68-9.51-25.25-1.25-4.05-2.18-8.1-3.27-12.16-.94.31-1.87.16-2.65-.31-.62-.31-1.09-.94-1.56-1.56-2.96.94-5.77,1.87-8.73,2.96-4.05,1.4-8.1,2.65-12.16,4.05,4.52,13.4,8.88,26.96,13.4,40.37,7.95-2.65,16.05-5.14,24-7.79h0c.16,0,.31-.16.47-.31Z"/>
      <path class="cls-25" d="m1926.64,733.2c4.52,13.4,8.88,26.96,13.4,40.37-4.36-13.4-8.88-26.81-13.4-40.37h0Z"/>
      <path class="cls-25" d="m1947.53,726.35c.31.62.78,1.25,1.56,1.56.78.47,1.71.47,2.65.31-.31-.94-.47-2.03-.78-2.96-1.09.31-2.18.62-3.43,1.09Z"/>
      <path class="cls-19" d="m1968.73,725.41c-.31-.78-.47-1.56-.78-2.49h0c.31.94.62,1.71.78,2.49Z"/>
      <path class="cls-19" d="m1952.05,728.06h-.16c.94,4.05,2.03,8.1,3.27,12.16,2.65,8.57,5.77,16.99,9.51,25.25,4.83-1.56,9.82-3.27,14.65-4.68,1.87-.62.94-1.56.78-2.49-2.03-4.36-3.9-8.88-5.61-13.4s-3.12-9.04-4.21-13.87c-.47-1.87-.94-3.74-1.56-5.77-.31-.78-.47-1.56-.78-2.49-1.56.78-15.9,5.3-15.9,5.3Z"/>
      <path class="cls-19" d="m1967.01,719.8h0c.31,1.09.62,2.18.94,3.27h0c-.31-1.25-.62-2.18-.94-3.27h0Z"/>
      <path class="cls-19" d="m1951.74,728.22h.16s14.49-4.68,16.05-5.14c-.31-1.09-.62-2.18-.94-3.27h0c-5.3,1.87-10.6,3.58-16.05,5.45.31.94.62,1.87.78,2.96Z"/>
      <path class="cls-3" d="m1931.16,776.69c2.96-.94,5.92-2.03,9.04-2.96-3.12.94-6.08,1.87-9.04,2.96h0Z"/>
      <path class="cls-3" d="m1926.64,733.2l-7.01,2.34c-1.71.47-1.87,1.25-1.4,2.81.94,3.27,2.65,6.23,3.74,9.51,3.43,9.51,6.08,19.17,9.04,28.83,2.96-.94,5.92-2.03,9.04-2.96-4.36-13.56-8.88-26.96-13.4-40.52h0Z"/>
      <path class="cls-3" d="m1905.45,749.57c-.47-1.4-.94-2.81-1.4-4.21q-1.71-3.9-5.77-2.65c-.94.31-2.03.62-2.96,1.09,2.81,6.08,5.14,12.47,7.33,18.7,2.49,7.01,4.21,14.34,6.08,21.66l7.01-2.34c-.78-3.12-1.71-6.23-2.49-9.35-2.18-7.79-5.3-15.27-7.79-22.91Z"/>
      <path class="cls-3" d="m1895.16,743.8h0c.94-.31,2.03-.62,2.96-1.09-.94.31-2.03.78-2.96,1.09Z"/>
      <path class="cls-10" d="m1902.95,628.47h0c.16.31.16.47.31.78-.16-.31-.31-.47-.31-.78Z"/>
      <path class="cls-10" d="m1914.33,627.07c-1.09-1.56-2.18-2.65-3.58-3.12,1.4.47,2.49,1.56,3.58,3.12Z"/>
      <path class="cls-10" d="m1902.64,625.66v.31c.16.47.31.78.47,1.25s.16.78-.16,1.25h0c.16.31.16.47.31.78.16.31.31.62.31.94,0,0,0,.16.16.16.47.62.94,1.25,1.25,1.87.94,2.03,1.25,4.36,2.18,6.39,3.27-1.09,6.7-2.34,9.97-3.43-.94-2.81-1.71-5.61-2.65-8.26-1.09-1.56-2.18-2.65-3.58-3.12-.94-.31-1.87-.47-2.96-.31-1.71.31-3.43.94-5.3,2.18h0Zm.47,1.56h0Z"/>
      <path class="cls-10" d="m1889.08,629.72c1.25-.47,2.65-.78,3.9-1.25-1.4.47-2.65.94-3.9,1.25h0Z"/>
      <path class="cls-10" d="m1889.08,629.72c-.31.47-.62.78-.78,1.25.62,1.56,1.09,3.27,1.71,4.83.62,1.71,1.09,3.43,1.56,4.99.62,2.34,1.71,2.65,3.74,1.71.94-.47,1.87-.62,2.65-.94-1.4-4.52-2.96-8.88-4.36-13.4-.16,0-.31.16-.47.16-1.56.62-2.81,1.09-4.05,1.4h0Zm1.71,8.73c-.31-.78-.62-1.71-.78-2.49.16.78.47,1.71.78,2.49Z"/>
      <path class="cls-15" d="m1889.08,629.72c-2.65.94-5.3,1.71-7.95,2.65,2.49-.78,5.14-1.71,7.95-2.65h0Z"/>
      <path class="cls-15" d="m1878.95,634.7c1.09,3.43,2.18,6.7,3.43,10.13.31,1.09.62,2.03-.94,2.34h0c0,.31.16.47.16.78q.16.16.31.31c1.56-.47,3.12-1.09,4.68-1.56,1.09-.31,2.18-.78,3.27-1.09v-1.09c-1.25-2.18-2.03-4.36-2.65-6.7-.16-.78-.31-1.56-.62-2.34-.31-1.56-.16-3.12,1.25-4.21h0c.16,0,.31-.16.31-.16h0c.31-.47.62-.78.78-1.25-2.65.94-5.3,1.71-7.95,2.65,1.71,0,2.65.47,2.96,2.34.78,2.96,1.87,5.77,2.81,8.73.31,1.09.31,1.87-.94,2.18-1.25.47-1.71-.16-2.03-1.25-.94-3.12-2.03-6.08-3.12-9.2-.31-.94-.31-2.03-1.71-1.71-.16,0-.31.16-.31.16.16.31.16.62.31.94Z"/>
      <path class="cls-15" d="m1889.71,645.61c-1.09.31-2.18.78-3.27,1.09,1.09-.47,2.18-.78,3.27-1.09h0Z"/>
      <path class="cls-15" d="m1889.08,629.72h0c-.31.47-.62.78-.78,1.25h0c.16-.31.47-.78.78-1.25Z"/>
      <path class="cls-10" d="m1900.15,637.82c-1.25-3.43-2.96-6.86-3.12-10.75-1.09.47-2.34.78-3.43,1.25,1.4,4.52,2.96,8.88,4.36,13.4,2.49-.31,2.96-1.4,2.18-3.9Z"/>
      <path class="cls-21" d="m1880.36,632.52c-.62.16-1.25.16-1.4.94.31-.62.78-.78,1.4-.94Z"/>
      <path class="cls-21" d="m1880.82,635.33c1.09,3.12,2.03,6.08,3.12,9.2.31,1.09.78,1.56,2.03,1.25,1.25-.47,1.25-1.25.94-2.18-.94-2.96-2.03-5.77-2.81-8.73-.47-1.71-1.4-2.34-2.96-2.34-.16,0-.31.16-.62.16-.62.16-1.25.16-1.4.94,1.4-.31,1.4.78,1.71,1.71Z"/>
      <path class="cls-3" d="m1917.14,636.11c-3.58,1.09-7.01,2.34-10.6,3.43,2.81-.94,5.61-1.87,8.42-2.81.78-.16,1.56-.47,2.18-.62Z"/>
      <path class="cls-3" d="m1917.14,636.11c0-.16-.16-.31-.16-.62,0,.16.16.31.16.62h0Z"/>
      <path class="cls-3" d="m1897.81,626.91c.16,0,.31,0,.47.16-.16,0-.31-.16-.47-.16Z"/>
      <path class="cls-3" d="m1902.95,628.47c.16.62.47,1.09.62,1.71q0-.16-.16-.31c-.16-.47-.31-.94-.47-1.4h0Z"/>
      <path class="cls-3" d="m1917.14,636.11h0c-.78.31-1.4.47-2.18.78.78-.31,1.56-.62,2.18-.78Z"/>
      <path class="cls-3" d="m1900.15,637.82c.78,2.49.47,3.58-2.18,3.9-.94.31-1.87.62-2.65.94-2.03.94-3.12.62-3.74-1.71-.47-1.71-1.09-3.43-1.56-4.99-.62-1.56-1.09-3.27-1.71-4.83-.16,0-.31.16-.31.16,1.09,3.58,2.34,7.17,3.58,10.75.31,1.09.62,2.03-.94,2.34,1.09.62,2.03-.16,2.96-.47,4.36-1.4,8.88-2.81,13.25-4.36,3.58-1.09,7.01-2.34,10.6-3.43,0-.16-.16-.31-.16-.62v-.16c-3.27,1.09-6.7,2.34-9.97,3.43-2.03-2.34-2.18-5.61-3.27-8.26h0s0-.16-.16-.16c0-.16-.16-.31-.16-.31q0,.16.16.31c-.16-.62-.47-1.09-.62-1.71-.31,0-.47.16-.78.16h-.16.16-.16c.47,1.25.78,2.49,1.25,3.9.47,1.25.78,2.49,1.4,3.74.31.94.47,1.56.47,2.18,0,.31-.31.62-.47.94-.47.31-1.09.62-2.03.62-.31.16-.62.16-.94,0-.16-.16-.31-.31-.47-.78-1.09-3.43-2.18-6.86-3.43-10.13-.16-.62,0-1.25.62-1.56.16-.16.31-.47.31-.62-.16,0-.31,0-.47-.16-.16,0-.31-.16-.47-.16-.31,0-.62,0-.78.31-.16,3.9,1.56,7.33,2.81,10.75Z"/>
      <path class="cls-3" d="m1903.58,630.18s0,.16.16.16h0q-.16,0-.16-.16Z"/>
      <path class="cls-3" d="m1888.15,630.96h0c.62,1.56,1.09,3.27,1.71,4.83-.47-1.56-1.09-3.12-1.71-4.83Z"/>
      <path class="cls-3" d="m1887.84,631.12h0c.16,0,.31-.16.31-.16q-.16.16-.31.16Z"/>
      <path class="cls-24" d="m1875.52,636.57c.16-.62.47-1.25.94-1.71-.47.47-.78,1.09-.94,1.71Z"/>
      <path class="cls-24" d="m1875.99,640c-.16-.31-.31-.47-.62-.62h0c.31.16.47.31.62.62Z"/>
      <path class="cls-24" d="m1875.52,639.22c-.16-.31-.16-.62-.31-.94,0-.47.16-.94.31-1.4-.16.47-.16.94-.31,1.4h0c0,.31.16.62.31.94Z"/>
      <path class="cls-24" d="m1875.52,639.22h0c.16.16.47.47.62.62.16.16.16.31.31.47.16.31.31.47.47.78,0,.16.16.16.16.31,0-.16-.16-.16-.16-.31.62,1.4.94,3.12,1.4,4.68.62,1.87,1.56,2.34,3.12,1.4h0c-.78-2.49-1.56-4.99-2.49-7.48-.62-1.71-.78-3.43,0-4.99-.16-.31-.16-.62-.31-.94-.62.16-1.09.31-1.56.62-.16.16-.47.31-.62.47-.47.47-.78,1.09-.94,1.71q0,.16-.16.31c-.16.47-.16.94-.31,1.4.16.31.31.62.47.94Z"/>
      <path class="cls-24" d="m1875.21,638.29h0c.16.31.16.62.31.94-.16-.31-.31-.62-.31-.94Z"/>
      <path class="cls-24" d="m1875.52,639.22c.31.31.62.78.78,1.09-.16-.16-.16-.31-.31-.47-.16-.16-.31-.31-.47-.62h0Z"/>
      <path class="cls-10" d="m1898.59,628.78c.47.78.94,1.71,1.4,2.65.47,1.25.94,2.34,1.25,3.58-.16-.31-.16-.62-.31-.94.16.31.16.62.31.94.16.31.16.62.31.94.16.31.16.62.31.94,0-.31-.16-.62-.31-.94.31,1.25.62,2.49.78,3.9,0,.16.16.31.16.47.94-.16,1.56-.31,2.03-.62.31-.31.47-.62.47-.94.16-.62,0-1.25-.47-2.18-.47-1.25-.94-2.49-1.4-3.74-.47-1.25-.78-2.49-1.25-3.9-.16-.31-.16-.62-.31-1.09-.31-.47-.62-.78-.94-1.25-.62.16-1.4.47-2.03.62-.16.16-.31.47-.31.62.16.31.16.62.31.94Zm5.3,5.77c-.16-.62-.47-1.25-.62-1.87.16.62.31,1.25.62,1.87Z"/>
      <path class="cls-10" d="m1902.49,640.16c.94-.16,1.56-.31,2.03-.62-.47.31-1.09.62-2.03.62h0Z"/>
      <path class="cls-10" d="m1904.98,638.6c0,.31-.31.62-.47.94.31-.31.47-.62.47-.94Z"/>
      <path class="cls-10" d="m1903.11,632.68c-.47-1.25-.78-2.49-1.25-3.9h0c.47,1.25.94,2.49,1.25,3.9Z"/>
      <path class="cls-13" d="m1920.72,650.6h0c0-.16-.16-.31-.16-.31h0s.16.16.16.31Z"/>
      <path class="cls-13" d="m1965.92,769.67c-2.18.62-4.21,1.4-6.39,2.03,2.18-.78,4.36-1.4,6.39-2.03h0Z"/>
      <path class="cls-13" d="m1940.52,778.25h0c4.21-1.56,8.42-3.12,12.62-4.52-4.21,1.4-8.57,2.81-12.62,4.52Z"/>
      <path class="cls-13" d="m1966.08,769.99h0v-.31c-2.18.62-4.21,1.4-6.39,2.03-2.18.62-4.21,1.4-6.39,2.03-4.21,1.4-8.57,2.81-12.62,4.52h1.09c7.95-2.81,16.05-5.45,24.31-8.26Z"/>
      <path class="cls-13" d="m1941.61,778.25c8.1-2.65,16.36-5.45,24.47-8.1h0c-8.26,2.65-16.36,5.3-24.47,8.1Z"/>
      <path class="cls-25" d="m1875.21,640.63c0-.47-.16-.78-.16-1.25,0,.47.16.78.16,1.25h0Z"/>
      <path class="cls-25" d="m1878.49,648.73h0c-.94-3.12-2.03-6.39-2.96-9.51.94,3.27,2.03,6.39,2.96,9.51Z"/>
      <path class="cls-25" d="m1878.33,648.89h0q-.16,0,0,0c-1.09-2.81-2.03-5.45-3.12-8.26.94,2.65,2.03,5.45,3.12,8.26q-.16,0,0,0Z"/>
      <path class="cls-25" d="m1878.17,648.89h0q.16,0,0,0c.16,0,.31,0,.31-.16h0c-.94-3.12-2.03-6.39-2.96-9.51-.16,0-.31.16-.47.16,0,.47.16.78.16,1.25.94,2.65,2.03,5.45,2.96,8.26Z"/>
      <path class="cls-25" d="m1875.21,640.63h0c.94,2.81,2.03,5.45,2.96,8.26h0c-.94-2.81-2.03-5.61-2.96-8.26Z"/>
      <path class="cls-3" d="m1902.49,625.66c-.31-.16-.62-.16-.94-.16.31-.16.47-.16.94.16Z"/>
      <path class="cls-3" d="m1900.62,626.44c.31.47.62.78.94,1.25,1.09-.16.31-1.4,1.09-1.87v-.31h-.16c-.31-.16-.62-.16-.94-.16-.31.31-.62.78-.94,1.09Z"/>
      <path class="cls-3" d="m1875.21,638.29s0,.16-.16.16c0,0,0-.16.16-.16h0Z"/>
      <path class="cls-3" d="m1875.52,639.22h0c-.16-.31-.16-.62-.31-.94,0,0,0,.16-.16.16-.16.31-.16.62,0,.94.16,0,.31,0,.47-.16h0Z"/>
      <path class="cls-10" d="m1918.23,639.07c-.31-.78-.62-1.71-.94-2.49,0-.16-.16-.31-.16-.31h0c.47.78.78,1.71,1.09,2.81Z"/>
      <path class="cls-10" d="m1919.32,642.03c-.78-1.87-1.4-3.74-2.03-5.45.31.78.62,1.71.94,2.49-.31-.94-.62-2.03-1.09-2.96-3.58,1.09-7.01,2.34-10.6,3.43,0,.16.16.16.16.31.94,1.56,1.56,3.12,2.18,4.83s0,2.34-1.56,2.81c-4.99,1.56-9.97,3.27-14.81,4.99h0l26.81-8.88c.31-.47.31-.94,0-1.56Z"/>
      <path class="cls-21" d="m1892.67,652.47q-.16,0,0,0c-1.71-2.03-1.71-4.68-2.81-6.86-1.09.31-2.18.78-3.27,1.09-1.56.47-3.12,1.09-4.68,1.56,1.56-.47,3.12-1.09,4.68-1.56-1.56.47-3.12,1.09-4.68,1.56.47,2.49,2.03,4.68,1.87,7.17l8.88-2.96Z"/>
      <path class="cls-24" d="m1881.76,648.26q-.16-.16-.31-.31c-.94.31-2.03.62-2.96.94h-.31c0,1.71.94,3.27,1.4,4.99.47,1.56.78,2.18,1.25,2.49l2.96-.94c0-2.65-1.56-4.83-2.03-7.17Z"/>
      <path class="cls-24" d="m1878.49,648.73h-.16c0,.16,0,0,.16,0Z"/>
      <path class="cls-24" d="m1903.58,630.5c1.25,2.81,1.25,5.92,3.27,8.26-.94-2.03-1.25-4.36-2.18-6.39-.16-.62-.62-1.4-1.09-1.87Z"/>
      <path class="cls-24" d="m1903.58,630.5h0c.47.62.94,1.25,1.25,1.87-.31-.62-.78-1.4-1.25-1.87Z"/>
      <path class="cls-24" d="m1903.11,627.22c-.16-.47-.31-.78-.47-1.25h0c-.62.47,0,1.56-1.09,1.87.16.31.16.62.31,1.09.31-.16.62-.16.94-.31.47-.62.47-1.09.31-1.4Z"/>
      <path class="cls-24" d="m1903.11,627.22c-.16-.47-.31-.78-.47-1.25h0c.16.31.31.78.47,1.25Z"/>
      <path class="cls-24" d="m1902.02,628.78h0c-.16-.31-.16-.62-.31-1.09,0,.47.16.78.31,1.09Z"/>
      <path class="cls-10" d="m1889.71,644.52v1.09h0c1.09,2.18,1.09,4.83,2.81,6.86,4.99-1.71,9.82-3.27,14.81-4.99,1.56-.47,2.18-1.09,1.56-2.81s-1.25-3.27-2.18-4.83c0-.16-.16-.16-.16-.31h0c-4.36,1.4-8.88,2.96-13.25,4.36-.94.31-1.87,1.09-2.96.47-.16,0-.31,0-.62.16h0Z"/>
      <path class="cls-10" d="m1906.85,639.85c.94,1.56,1.56,3.12,2.18,4.83-.62-1.71-1.4-3.27-2.18-4.83Z"/>
      <path class="cls-10" d="m1890.33,644.21c1.56-.31,1.25-1.25.94-2.34-1.25-3.58-2.34-7.17-3.58-10.75-1.4,1.09-1.56,2.81-1.25,4.21.16.78.31,1.56.62,2.34.62,2.34,1.4,4.52,2.65,6.7.31,0,.47,0,.62-.16Z"/>
      <path class="cls-10" d="m1887.21,637.82c.62,2.34,1.4,4.52,2.65,6.7h0c-1.25-2.18-2.03-4.36-2.65-6.7Z"/>
      <path class="cls-21" d="m1882.38,644.83c-1.09-3.43-2.34-6.7-3.43-10.13-.78,1.71-.62,3.27,0,4.99.94,2.49,1.71,4.99,2.49,7.48,1.4-.31,1.25-1.25.94-2.34Z"/>
      <path class="cls-3" d="m1876.3,640.47c.16.31.31.47.47.78-.16-.31-.31-.62-.47-.78Z"/>
      <path class="cls-3" d="m1881.45,647.95c0-.31-.16-.47-.16-.78-1.71.94-2.49.47-3.12-1.4-.47-1.56-.78-3.12-1.4-4.68-.16-.31-.31-.47-.47-.78-.31-.47-.47-.78-.78-1.09h0c.94,3.12,2.03,6.39,2.96,9.51.94-.31,2.03-.47,2.96-.78Z"/>
      <path class="cls-3" d="m1881.29,647.17h0c0,.31.16.47.16.78,0-.31,0-.47-.16-.78Z"/>
      <path class="cls-10" d="m1902.49,640.16c0-.16-.16-.31-.16-.47-1.25-3.58-2.49-7.33-3.58-10.91-.16-.31-.16-.62-.31-.94-.62.31-.78.78-.62,1.56,1.09,3.43,2.18,6.86,3.43,10.13.16.31.31.62.47.78,0,0,.31,0,.78-.16Z"/>
      <path class="cls-10" d="m1901.55,640.16c.16.16.47.16.94,0h0c-.47.16-.78.16-.94,0Z"/>
      <path class="cls-10" d="m1901.24,635.01c.16.31.16.62.31.94,0-.31-.16-.62-.31-.94Z"/>
      <path class="cls-10" d="m1902.33,639.69c-.16-1.25-.47-2.65-.78-3.9-.16-.31-.16-.62-.31-.94-.31-1.25-.78-2.49-1.25-3.58-.47-.94-.94-1.71-1.4-2.65,1.25,3.74,2.49,7.48,3.74,11.07Z"/>
      <g>
        <path class="cls-8" d="m2010.03,843.24l-.47-.94c-5.61-9.66-10.91-18.7-13.87-28.99-2.81-9.04-4.05-18.86-5.3-28.37-.16-1.56-.31-3.12-.62-4.83-.62-5.77-1.25-11.84-3.9-17.61-.16-.47-.31-.94-.47-1.56-.31-1.4-.78-3.12-2.03-4.83-3.58-8.1-7.17-16.83-9.35-26.03-.62-2.81-1.4-5.45-2.18-8.1-.31-.94-.62-2.03-.94-2.96,0-.16-.16-.31-.16-.47h0c-.16-1.56-.31-3.27-1.09-4.99-.31-1.09-.62-2.18-.94-3.27-.78-2.96-1.56-6.08-3.43-8.73-5.61-8.88-12.47-16.52-18.55-22.91-2.03-2.81-4.36-5.45-6.55-8.1-1.71-1.87-3.27-3.74-4.68-5.61-1.25-1.56-2.65-3.12-3.9-4.52-2.65-2.96-5.3-5.92-6.7-9.51,1.4-.62,2.34-1.56,2.96-2.96.47-1.25.47-2.81-.16-4.05q0-.16-.16-.31c-.16-.94-.62-2.81-2.49-3.9-.62-.31-1.4-.62-2.34-.62v-.16c-.62-1.56-1.09-3.27-1.71-4.99-.94-2.96-1.87-5.92-3.43-8.88-.16-.16-.16-.31-.31-.47-3.12-4.52-7.64-6.08-12.62-4.36-.94.31-1.87.62-2.81,1.25-.62,0-1.25.16-1.56.16-.94.31-1.56.78-2.03,1.4-.62-.16-1.4-.16-2.34.16-.31.16-.62.31-.94.47l-2.81.94-4.52,1.4-7.95,2.65c-.47,0-.78.16-1.25.31-.78.31-1.56.78-2.18,1.4-2.65.94-4.36,3.12-4.99,6.55-.47,1.09-.47,2.34-.16,3.43h0c-.16,1.56.31,2.81.62,3.43,0,.16.16.16.16.31.78,2.49,1.56,4.99,2.49,7.48l1.09,3.27c-.62.62-1.09,1.09-1.25,1.71-.94,2.03-.31,3.74.16,4.83,0,.16.16.31.16.31.62,2.03,1.87,2.96,2.65,3.43s2.03.78,3.58.47c0,.16.16.31.16.62.31.78.62,1.56.47,2.03-.31,4.83-.47,9.66-.62,14.34-.16,2.03-.31,4.05-.47,6.08-.31,3.9-.62,7.95-.47,12.16-.78,4.83-.94,9.82-1.09,14.49,0,1.71-.16,3.27-.16,4.99-.31,5.3-.31,10.6,1.71,15.9l.16.47c1.09,2.96,2.18,5.92,4.36,7.17-.16.31-.31.62-.31.94-.16.78-.16,1.4.16,2.18l.31.94c.31.78.47,1.56.78,2.34,4.21,10.13,8.57,21.04,10.91,32.89.47,2.18.94,4.36,2.65,5.61-.47.94-.62,1.87-.47,2.81,0,.16.16.31.16.62.31.78.47,1.4.62,2.18.62,1.87,1.09,3.9,2.18,5.77,3.58,6.86,7.48,13.56,11.07,19.79,7.64,13.09,12.16,27.59,13.56,42.86.94,10.13,2.81,21.98,9.2,32.73,2.03,3.9,4.83,8.88,9.04,13.09,3.9,4.05,9.2,5.45,14.03,3.74,3.9-1.25,7.01-4.36,8.57-8.57.47-1.09.78-1.4,1.4-1.71.31-.16.78-.31,1.09-.47.78-.31,1.87-.47,3.58.47,4.36,2.34,7.79,2.81,11.07,1.71,4.21-1.4,6.55-5.3,7.95-8.1.16-.31.31-.47.47-.78.47-.94,1.09-1.4,1.87-1.71.94-.31,1.87-.16,2.81.47,4.05,2.49,8.57,3.12,12.47,1.71,5.14-1.71,8.57-6.39,9.04-12.16,1.09-14.18-1.87-27.74-9.04-39.9Zm-79.17-157.41c-.62.16-1.4.31-2.03.47-2.18.78-4.52,1.56-6.7,2.18-2.18.78-4.52,1.56-6.7,2.18-.78.31-1.56.62-2.49,1.09v-.31c-.47.16-.94.31-1.56.62-.47.16-1.09.31-1.56.62-1.25.47-2.65.94-3.9,1.4-3.58,1.09-7.01,2.34-10.6,3.43-1.56.47-2.96.94-4.52,1.25-.16.16-.31.31-.47.31-.16,2.03-.16,3.9-.16,5.92,0-.94.16-2.03.16-2.96s0-2.03.16-2.96c-2.18.62-4.36,1.25-6.55,1.87-.16-3.12,0-6.08.16-9.2.16-2.96.47-6.08.62-9.04.16-4.83.47-9.51.62-14.34.16-2.03-.94-3.74-1.4-5.61h.16-.16c0-.16-.16-.31-.16-.62h0l27.59-9.2,9.2-3.12c0,.16.16.31.16.31.31.94.62,1.71.94,2.49,1.09,2.34,2.49,4.52,4.21,6.55,1.09,1.4,2.18,2.65,3.43,3.9,1.09,1.25,2.34,2.65,3.27,3.9s1.87,2.34,2.81,3.43c2.96,3.43,5.92,6.7,8.57,10.29-4.36,2.03-8.73,3.58-13.09,5.14Z"/>
        <g>
          <path class="cls-20" d="m2004.73,846.2l-.47-.94c-5.77-9.97-11.22-19.33-14.49-30.24-2.81-9.51-4.21-19.48-5.61-29.3-.16-1.56-.47-3.27-.62-4.99-.62-5.61-1.09-10.75-3.43-15.74-.47-.94-.62-1.87-.78-2.65-.31-.94-.47-1.87-.94-2.49-.31-.47-.62-.78-.78-1.25-3.58-7.95-7.48-17.3-9.66-27.12-.62-2.49-1.25-4.99-2.18-7.64-.31-.94-.62-2.03-.94-2.96,0-.16-.16-.94-.31-.94,0-.16,0-.47-.16-.62-.16-1.25-.31-2.34-.62-3.12-.16-.16-.16-.47-.16-.62-.31-1.09-.62-2.18-1.09-3.58-.62-2.65-1.4-5.14-2.65-7.01-4.36-6.7-9.35-12.78-14.18-18.08l-13.09,4.68c-.31.16-.47.16-.78.16l-1.71.47-12.94,4.36-2.18.94c-.62.31-1.25.31-1.87.47l-5.3,2.03-10.75,3.58-.78.16v1.71c-.16,3.43-2.96,6.08-6.39,5.92h-.31c-1.71-.16-3.27-1.09-4.21-2.34-.16,2.34-.16,4.52-.31,6.7,0,1.71-.16,3.43-.16,5.14-.31,4.83-.31,9.2,1.25,13.56l.16.47c.47,1.4,1.4,3.74,1.87,4.21,2.49,1.4,3.43,4.52,2.65,7.17v.16c.16.62.47,1.25.62,1.87,4.36,10.44,8.73,21.66,11.22,33.98.16.62.31,1.56.47,2.03,2.03,1.71,2.81,4.52,2.03,7.01.16.47.47,1.71.47,1.71.47,1.71.94,3.27,1.71,4.68,3.58,6.7,7.33,13.4,10.91,19.64,8.1,13.87,12.94,29.14,14.49,45.35.94,9.51,2.49,20.42,8.42,30.24,0,.16.16.16.16.31,1.87,3.43,4.36,7.95,7.95,11.69,1.56,1.56,3.27,2.34,4.99,2.65.94.16,1.87,0,2.81-.31,2.81-.94,4.05-3.27,4.83-4.99.94-2.34,2.18-3.9,4.05-4.99.62-.31,1.4-.78,2.18-.94,1.4-.47,2.65-.62,4.05-.47,1.4.16,2.81.62,4.21,1.4,1.71.94,3.27,1.4,4.36,1.56.62,0,1.25,0,1.87-.16,2.03-.62,3.43-3.12,4.36-4.99.16-.31.31-.78.62-1.09,1.25-2.18,3.12-3.74,5.45-4.52,1.25-.47,2.49-.47,3.74-.47,1.4.16,2.81.62,4.21,1.4s2.81,1.4,4.21,1.56c1.09.16,2.18,0,3.12-.31,2.81-.94,4.52-3.43,4.83-6.86.78-13.72-1.87-26.03-8.42-37.25Z"/>
          <path class="cls-20" d="m1891.73,697.67s2.96,11.69,3.43,17.3c.47,5.61-2.03,9.2-4.83,7.95s-7.48-15.43-7.48-16.36.78-5.92.78-5.92"/>
          <path class="cls-8" d="m1954.7,901.06c-.31,0-.62-.31-1.25-.78-3.12-3.12-5.3-7.01-6.86-10.13-.16-.31-.31-.47-.47-.62-5.14-8.57-6.7-18.7-7.48-27.59-1.56-17.14-6.7-33.2-15.27-47.85-3.58-6.08-7.33-12.78-10.91-19.33-.47-.78-.78-2.03-1.25-3.43v-.16c.62-3.58-.47-7.17-2.81-9.97h0c-2.65-12.94-7.17-24.63-11.69-35.22h0c.47-4.05-1.09-8.26-4.21-10.91-.31-.78-.62-1.71-.78-2.18l-.16-.47c-1.25-3.27-1.09-6.86-.94-11.07,0-1.25.16-2.49.16-3.58,5.14-.47,9.66-4.05,10.91-9.04l7.79-2.49,5.14-1.87c.94-.16,1.87-.47,2.81-.78l2.03-.78,12.47-4.21,1.4-.31c.47-.16.94-.31,1.56-.47,0,0,5.3-1.87,9.04-3.27,4.36,5.14,7.95,9.66,10.75,14.18.78,1.09,1.25,3.12,1.87,5.3.47,1.4.78,2.65,1.09,3.9.16.31.31.78.47,1.25,0,.16.16.78.16,1.25s.16.94.16,1.25c0,.16.31,1.25.31,1.4.31,1.09.62,2.03.94,3.12.78,2.49,1.4,4.99,2.03,7.17,2.34,10.44,6.39,19.95,10.13,28.21.31.78.78,1.56,1.25,2.18,0,.16.16.47.16.62.31.94.62,2.34,1.25,3.74,1.87,4.05,2.34,8.57,2.96,13.87.16,1.71.31,3.43.62,5.14,1.4,9.97,2.65,20.11,5.77,30.24,3.43,11.69,9.2,21.35,15.12,31.64l.47.94c5.77,9.97,8.26,21.2,7.33,33.2,0,.62-.31,1.4-.62,1.56h-.62c-.47,0-1.09-.31-1.71-.62-2.18-1.25-4.36-2.03-6.86-2.34-2.18-.16-4.21,0-6.39.62-3.74,1.25-6.86,3.9-8.88,7.48-.16.31-.47.78-.78,1.4s-.62,1.09-.78,1.4c-.31-.16-.78-.31-1.25-.62-2.18-1.09-4.36-1.87-6.55-2.03-2.18-.16-4.52,0-6.7.78-1.09.31-2.18.78-3.27,1.4-3.12,1.71-5.45,4.52-6.86,8.1-.16.47-.47,1.25-.94,1.4l.16-.62Z"/>
          <path class="cls-24" d="m1918.7,644.37c.16,0,.31-.16.47-.16-.94-.78-1.71-1.71-2.18-2.81-.62-1.71-1.25-3.43-1.71-5.3-.78-2.81-1.71-5.45-2.81-7.79-1.56-2.18-2.81-2.34-3.27-2.34-.62,0-1.4,0-2.34.31-.62.16-1.25.47-1.87.78-.78.31-1.56.62-2.34.62-1.25,1.25-2.96,1.71-4.68,1.56h0c-.16.16-.47.16-.62.31l-2.96,1.09-4.52,1.4-7.95,2.65c-.31.16-.62.16-.94.16h-.16c-.62.62-1.4,1.09-2.18,1.4-.31.16-.78.31-.94,1.87,0,.31-.16.62-.31.94,0,.16.16.47.16.62,0,.47.16.94,0,1.4,0,.16.16.31.16.47.16.16.31.62.31.94.78,2.49,1.56,4.99,2.49,7.48l1.09,3.27c.47,1.25.47,2.49,0,3.58,0-.16,37.09-12.47,37.09-12.47Z"/>
        </g>
        <path class="cls-8" d="m1878.49,648.73h0c-.94-3.12-2.03-6.39-2.96-9.51.94,3.27,2.03,6.39,2.96,9.51Z"/>
        <path class="cls-8" d="m1914.96,636.73c-2.81.94-5.61,1.87-8.42,2.81h0c2.96-.94,5.61-1.87,8.42-2.81Z"/>
        <path class="cls-8" d="m1916.98,635.48c0,.16.16.31.16.62,0,.16.16.31.16.31,0-.16-.16-.31-.16-.31,0-.31-.16-.47-.16-.62-.94-2.96-1.71-5.61-2.65-8.42.94,2.81,1.71,5.45,2.65,8.42,0-.16,0,0,0,0Z"/>
        <path class="cls-8" d="m1902.95,628.47h0c.16.47.31.94.47,1.4,0-.16-.16-.47-.16-.62-.16-.31-.31-.47-.31-.78-.31.16-.47.16-.78.31h.16c.16-.16.31-.16.62-.31Z"/>
      </g>
    </g>
    <path class="cls-8" d="m1925.24,839.03c-.16,0-.16.16-.31.16l-1.25,1.25c-.16.16-.31.31-.62.47-.16.16-.31.31-.47.47-.94-2.81-1.71-8.73-2.18-12v-.47h0v-.31h.16v-1.09h-.31v-.31l.31-.16c0-.31,0-.62-.16-.94,0-.31-.16-.47-.16-.94-.16-.31-.16-.62-.31-1.09-.16-.31-.31-.62-.31-.94l-.16-.31c-.16-.16-.16-.47-.31-.62l-.47-6.55.31-9.35c.31-.62.47-1.25.62-1.56.16-.62.16-1.09.16-1.71h0c.78-.31,1.25-.94,1.4-1.25.47-.94.31-1.87-.47-3.12-1.87-2.96-2.49-6.39-2.96-9.2-.16-1.25-.31-2.34-.47-3.58l-.31-2.81c-.16-1.87-.47-4.05-1.56-5.3-1.09-1.09-1.87-2.34-2.18-3.58-1.09-3.12.16-6.39,1.71-9.97l.78-.16-.16-1.09c.62-1.56,1.25-3.27,1.56-4.99.16-.78.31-1.56.47-2.34,1.25.78,3.12,1.71,4.83,2.81-.16-1.25-.31-2.65-.47-3.9-1.4-.94-2.81-1.71-3.74-2.34.16-1.4.31-2.81.16-4.21,0-2.03.31-3.43,1.25-4.68-.31-1.09-.62-2.18-.78-3.27-.47-1.71-.47-3.27-.47-4.68-.16.16-.47.31-.62.47-2.03-9.04-5.61-15.74-11.07-20.26-1.71-1.4-3.27-2.34-4.83-3.12-.94-.47-2.03-.94-3.43-1.56-.78-.31-1.56-.47-2.18-.78-2.96-.94-5.61-1.09-8.1-.78h-.47c-1.25.16-2.34.47-3.43.94l-.31.16c-2.18.94-4.05,2.49-5.92,4.52-5.45,6.39-4.52,14.18-2.81,21.51.47,1.87.94,3.74,1.56,5.61,1.25,4.36,2.49,8.42,2.65,12.78v.78c0,.47.16,1.25,0,1.4,0,0-.16.16-.62.16-8.1,1.56-12.94,7.79-17.46,14.49-1.4.78-2.03,2.34-2.34,3.58-.47,1.25-.62,1.71-1.09,1.87l-.78.31-.47.94v.47c0,3.27-.62,3.43-1.25,3.43-.62.16-1.71,0-3.27-.31-2.34-.47-4.05-.62-5.77-.31-2.81.31-5.14,1.71-7.01,4.21-2.81,1.25-4.99,3.9-6.23,7.01-4.05,11.07-4.21,22.6,0,34.29,5.3,19.79,15.43,31.48,31.17,35.69,2.81.78,4.99.94,7.01.78,4.21-.62,6.7-3.58,8.88-7.95,6.7,4.36,14.34,5.92,23.07,4.68.62,0,1.09-.16,1.71-.31,7.33-1.25,14.18-4.68,20.11-10.13l.47-.31.47-2.03c.47-.16,1.09-.47,1.87-.78l-2.65-7.79Zm-24,13.09c-1.09.16-2.18.47-3.27.62-1.09.16-2.34.31-3.58.31-1.56,0-3.27,0-4.83-.31-2.65-.47-5.3-1.4-7.95-2.96-2.03-1.25-3.9-2.65-5.77-4.36l-.31-.31c-.62-.94-1.25-1.71-2.03-1.87-.31-.16-.62-.16-.94-.16l-.62.16h-.31l-.47.62c-.47.78-.62,1.56-.47,2.34-.78-.31-1.87-.78-3.12-1.56-.31-.16-.62-.47-.94-.62l-.62-.16h-.47c-.47,0-1.4.47-1.87,1.87-.16.47-.16.94,0,1.4l.16.47.16.16c.31.47.78.78,1.4,1.09,1.71,2.18,3.9,3.12,6.08,3.9.47.16.78.31,1.25.47-1.25,1.71-2.65,2.03-3.58,2.18-1.71.16-3.58-.31-5.14-.78-9.35-2.81-16.52-9.97-21.82-21.82-2.03-4.52-3.43-8.88-4.21-12.94-.31-2.18-.62-4.36-.78-6.7-.31-3.12-.31-5.61,0-7.95.16-1.71.47-3.12.78-4.68.31-1.25.78-2.49,1.4-3.74.94-2.18,2.03-3.74,3.27-4.99,1.71-1.4,3.58-2.81,5.61-3.12.94-.16,2.03,0,3.12.47.78.31,1.87.78,2.03,1.4.16.31,0,.94-.16,1.56-.31,1.71-1.09,3.27-1.71,4.83-1.25,2.96-2.81,6.23-2.03,10.29-.31.62-.47,1.87.31,2.96l1.25,4.99c0,.47.16,1.09.16,1.71.16,2.34.31,5.3,3.12,8.73l2.81-1.4-1.25-5.77c.78,1.71,1.71,3.43,2.96,4.99,2.49,5.3,6.23,8.73,12.31,11.38l4.83,1.87-.62-.78.47.16-11.22-14.65-4.52-11.38-.47-3.9.16-1.87v-5.61l.16-.62h.16l.16-1.09.47-2.18h-.16c0-.47.16-.94.16-1.56.47-3.27,1.25-6.7,2.49-9.82.47-1.25.94-2.49,1.4-3.74.94-1.09,1.71-2.34,2.65-3.43,2.34-3.27,4.68-6.39,7.64-8.26-.16.31-.78,1.4-.78,1.4l1.4.78-1.71-.47c-1.56,1.56-1.71,3.12-.47,4.36.47.47,1.09.62,1.87.62,1.4-.16,2.34-1.87,2.65-2.65,8.42-7.17,10.75-16.83,6.86-28.99-1.25-3.9-2.65-8.26-3.27-12.78-.62-4.36,0-7.64,1.56-9.82,1.09-1.56,2.81-2.34,4.99-2.65,1.25-.16,2.49-.16,3.9,0,12,1.56,19.01,12.47,18.24,28.21-.62,14.34-3.9,23.85-10.44,30.86-.31.47-.78.78-1.09,1.25-.94.94-1.56,1.87-2.03,2.81-.16.16-.31.47-.47.78-.47.62-.31,1.25-.31,1.71v3.12l2.18-.78c.47-.16,1.09-.31,1.4-.62,1.71-.78,3.27-1.87,4.68-3.27.31-.31.78-.78,1.09-1.25.31-.31.62-.78.94-1.09.78-1.09,1.25-1.25,1.25-1.25,0,0,.62.31,1.25,2.18.78,2.03,1.56,4.36,1.71,6.55,0,2.81,0,5.61-.31,8.26,0,.62-.16,1.25-.31,2.03-.31,2.65-.94,5.45-1.71,8.26-1.09,4.21-2.65,8.1-4.68,12-3.58,6.7-7.95,10.44-13.72,11.38l-5.45.94,4.99,2.18c1.56.62,3.27.94,5.14.62,4.21-.62,8.57-3.43,12.31-8.26,2.96-3.58,4.83-8.1,6.7-12.62,0,1.4-.16,2.81.31,4.36l.78,6.7c0,.47.16.78.16,1.09h0l.16.31c.16,1.09.47,2.18.78,3.12l4.21,15.9c-6.08,4.68-12.16,7.64-18.39,8.88Z"/>
    <path class="cls-1" d="m1910.12,746.14c-.62,14.34-3.9,23.85-10.44,31.02-.31.47-.78.78-1.09,1.25-.94.94-1.56,1.87-2.03,2.81-.16.16-.31.47-.47.78-.47.62-.31,1.25-.31,1.71v3.12l2.18-.78c.47-.16,1.09-.31,1.4-.62,1.71-.78,3.27-1.87,4.68-3.27.31-.31.78-.78,1.09-1.25.31-.31.62-.78.94-1.09.78-1.09,1.25-1.25,1.25-1.25,0,0,.62.31,1.25,2.18.78,2.03,1.56,4.36,1.71,6.55,0,2.81,0,5.61-.31,8.26,0,.62-.16,1.25-.31,2.03-.31,2.65-.94,5.45-1.71,8.26-1.09,4.21-2.65,8.1-4.68,12-3.58,6.7-7.95,10.44-13.72,11.38l-5.45.94,4.99,2.18c1.56.62,3.27.94,5.14.62,4.21-.62,8.57-3.43,12.31-8.26,2.96-3.58,4.83-8.1,6.7-12.62,0,1.4-.16,2.81.31,4.36l.78,6.7c0,.47.16.78.16,1.09h0l.16.31c.16,1.09.47,2.18.78,3.12l4.21,15.9c-6.39,4.52-12.47,7.33-18.55,8.57-1.09.16-2.18.47-3.27.62-1.09.16-2.34.31-3.58.31-1.56,0-3.27,0-4.83-.31-2.65-.47-5.3-1.4-7.95-2.96-2.03-1.25-3.9-2.65-5.77-4.36l-.31-.31c-.62-.94-1.25-1.71-2.03-1.87-.31-.16-.62-.16-.94-.16l-.62.16h-.31l-.47.62c-.47.78-.62,1.56-.47,2.34-.78-.31-1.87-.78-3.12-1.56-.31-.16-.62-.47-.94-.62l-.62-.16h-.47c-.47,0-1.4.47-1.87,1.87-.16.47-.16.94,0,1.4l.16.47.16.16c.31.47.78.78,1.4,1.09,1.71,2.18,3.9,3.12,6.08,3.9.47.16.78.31,1.25.47-1.25,1.71-2.65,2.03-3.58,2.18-1.71.16-3.58-.31-5.14-.78-9.35-2.81-16.52-9.97-21.82-21.82-2.03-4.52-3.43-8.88-4.21-12.94-.31-2.18-.62-4.36-.78-6.7-.31-3.12-.31-5.61,0-7.95.16-1.71.47-3.12.78-4.68.31-1.25.78-2.49,1.4-3.74.94-2.18,2.03-3.74,3.27-4.99,1.71-1.4,3.58-2.81,5.61-3.12.94-.16,2.03,0,3.12.47.78.31,1.87.78,2.03,1.4.16.31,0,.94-.16,1.56-.31,1.71-1.09,3.27-1.71,4.83-1.25,2.96-2.81,6.23-2.03,10.29-.31.62-.47,1.87.31,2.96l1.25,4.99c0,.47.16,1.09.16,1.71.16,2.34.31,5.3,3.12,8.73l2.81-1.4-1.25-5.77c.78,1.71,1.71,3.43,2.96,4.99,2.49,5.3,6.23,8.73,12.31,11.38l4.83,1.87-.62-.78.47.16-11.22-14.65-4.52-11.38-.47-3.9.16-1.87v-5.61l.16-.62h.16l.16-1.09.47-2.18h-.16c0-.47.16-.94.16-1.56.47-3.27,1.25-6.7,2.49-9.82.47-1.25.94-2.49,1.4-3.74.94-1.09,1.71-2.34,2.65-3.43,2.34-3.27,4.68-6.39,7.64-8.26-.16.31-.78,1.4-.78,1.4l1.4.78-1.71-.47c-1.56,1.56-1.71,3.12-.47,4.36.47.47,1.09.62,1.87.62,1.4-.16,2.34-1.87,2.65-2.65,8.42-7.17,10.75-16.83,6.86-28.99-1.25-3.9-2.65-8.26-3.27-12.78-.62-4.36,0-7.64,1.56-9.82,1.09-1.56,2.81-2.34,4.99-2.65,1.25-.16,2.49-.16,3.9,0,12.16,1.71,19.17,12.47,18.39,28.37Z"/>
    <g>
      <path class="cls-24" d="m1993.51,770.61c-1.09-4.05-1.09-8.1-1.09-8.1h0c.16-3.58-.62-7.48-1.4-9.51-1.4-3.27-5.45-8.26-6.7-10.29-1.25-2.18-.47-5.14.31-11.84.47-4.05-.94-8.26-2.03-11.07l-5.92,2.03c1.25,1.4,2.18,3.27,2.65,5.77.16.78.31,1.56.31,2.34.16,2.96-.31,5.14-1.25,6.86-.47,1.09-1.25,1.87-1.87,2.49q-.16.16-.31.31l.31,1.09-1.4-.16c-.31.31-.62.47-.94.62l-.31.31c-.16,0-.31.16-.47.16-.78.16-1.4.47-2.18.78-.31.16-.62.16-.94.31,0,0-1.09.47-1.4.62-1.25.47-2.34.94-3.27,1.25-1.25.47-2.34,1.09-3.43,1.56-1.56.78-2.96,1.56-4.21,2.18-.62.31-1.09.62-1.56.94h-.31c-9.35-.94-17.14-6.55-13.87-15.74l-23.07,7.79c.16.62.31,1.09.47,1.71-.78,1.25-1.25,2.65-1.25,4.68,0,1.4-.16,2.81-.16,4.21.94.62,2.34,1.4,3.74,2.34.16,1.25.31,2.65.47,3.9-1.71-.94-3.43-2.03-4.83-2.81-.16.78-.31,1.56-.47,2.34-.47,1.71-.94,3.27-1.56,4.99l.16,1.09-.78.16c-1.56,3.58-2.81,6.7-1.71,9.97.47,1.25,1.09,2.49,2.18,3.58,1.25,1.25,1.4,3.43,1.56,5.3l.31,2.81c.16,1.25.31,2.34.47,3.58.31,2.81,1.09,6.23,2.96,9.2.62,1.09.78,2.18.47,3.12-.16.47-.62.94-1.4,1.25h0c0,.62,0,1.09-.16,1.71,0,.31-.16.78-.31,1.25h0v.16l47.54-16.21c.47-.62,1.09-1.09,1.71-1.71.78-.78,1.71-1.4,2.65-2.03,1.09-.62,2.18-1.4,3.27-2.03,1.09-.62,2.18-1.09,3.27-1.56.31-.16.62-.31.78-.47.47-.16.78-.31,1.25-.47.16,0,.31-.16.31-.16h0c.31-.16.47-.16.78-.31.62-.31,1.25-.47,1.87-.78h0l.62-.31c.62-.31,1.71-.78,2.96-.94h2.18c.31,0,.62,0,.94.16.62.16,1.25.31,1.71.62.16.16.47.31.62.31.31.16.62.31.94.62l5.61-1.87c-1.87-3.43-4.21-5.61-4.83-8.1Zm-7.17-3.12c-.16.31-.16.78-.31,1.09-.16.47-.31.94-.62,1.4-.62,1.25-1.25,2.18-2.03,2.81h0l-.62.62s-.16,0-.16.16h0l-.62.62c-1.09.31-2.18.78-3.12,1.09h-.16c-.47.16-.94.31-1.56.62h0c-.16,0-.31.16-.47.16-.31.16-.78.31-.78.31-1.56.62-3.12,1.4-4.68,2.18-.78.47-1.56.94-2.34,1.4h-.16c-6.39.16-12.62-1.71-15.9-5.45h0c-.16-.16-.31-.31-.31-.47-.94-1.09-1.56-2.34-1.71-3.74-.47-2.18-.16-4.68,1.25-7.64.62-1.4,1.56-2.65,2.81-3.9.94-.94,2.03-1.87,3.27-2.81.16-.16.31-.16.47-.31.47-.31,1.09-.62,1.56-1.09,1.56-.94,3.12-1.87,4.83-2.65.94-.47,1.87-.94,2.81-1.25,1.09-.47,2.34-.94,3.43-1.4.47-.16.94-.31,1.4-.47.31-.16.62-.31,1.09-.31.78-.31,1.56-.47,2.18-.78.47-.16.78-.31,1.09-.31v-.31c.47-.16,1.09,0,1.71.31.47.31,1.09.78,1.71,1.4q.16.16.31.31c.16.31.47.47.62.78,2.03,2.81,4.05,7.33,5.14,12.31.16.78.31,1.4.31,2.03-.31,1.25-.31,2.34-.47,3.27Z"/>
      <path class="cls-8" d="m1912.31,763.75c.94-3.43,1.56-7.01,2.03-10.29.31.94.62,1.71.78,2.49.94,3.58-.62,6.7-2.81,7.79Z"/>
    </g>
    <path class="cls-1" d="m1908.41,773.73s-8.88,9.04-13.09,10.91-3.12-6.23-3.12-6.23l3.12-2.18"/>
    <polyline class="cls-8" points="1925.4 838.87 1919.01 825.63 1921.03 842.46 1925.24 843.86 1925.09 842.46"/>
    <path class="cls-8" d="m1879.73,770.3s-4.52,5.45-8.42,7.17c0,0-.16-5.45,3.43-9.51"/>
    <path class="cls-1" d="m1853.55,791.03s-6.55,37.56,21.98,45.2c0,0-18.55-3.58-19.95-4.83s-6.86-4.99-7.48-6.55c-.62-1.56-2.65-7.33-2.49-10.6s0-10.29,0-10.29c0,0,0-4.05.31-4.99"/>
    <path class="cls-8" d="m1855.89,781.83s-.94-4.68,5.45-14.96c6.39-10.29,17.77-9.97,17.77-9.97l-10.6,9.51"/>
    <path class="cls-20" d="m1855.89,782.3s6.23-16.68,14.49-21.35c8.26-4.68,9.04-4.05,9.04-4.05l-15.9-.94s-8.1,5.14-9.04,7.17-2.49,4.05-3.12,5.3l-.62,1.25"/>
    <path class="cls-8" d="m1875.68,835.91s-14.34-15.59-14.65-29.3,1.56-21.51,1.56-21.51c0,0-6.08,10.29-6.08,14.34s-.62,2.34,1.09,8.1c1.71,5.77,2.81,8.42,3.74,11.07,1.09,2.65,1.56,2.03,1.4,3.27"/>
    <path class="cls-1" d="m1850.9,789s3.12.47,3.9,2.96c.78,2.34-1.71,7.17-.16,18.24,1.71,11.07,9.2,19.79,9.2,19.79l-11.38-11.84-4.36-9.2s.16-5.45,0-5.77"/>
    <path class="cls-1" d="m1872.87,853.06s-5.14-4.52-6.7-9.2c-1.56-4.68-10.29-9.35-6.55-2.34,3.74,7.17,1.87,4.52,3.12,6.08,1.25,1.71,1.87,2.49,2.81,3.74s1.87,1.56,1.87,1.56"/>
    <path class="cls-1" d="m1871,846.04s14.49,7.95,19.48,7.17,2.03-9.66-1.71-10.75-11.84-2.65-12.47-2.34c-.62.16-2.96.47-3.12.47s-1.87-.16-1.87-.16"/>
    <path class="cls-8" d="m1909.66,771.7s-6.86,12.16-14.03,14.81l.16-2.03s8.42-11.53,8.73-14.34"/>
    <path class="cls-1" d="m1905.92,767.34s-4.83,10.91-8.1,14.65c-3.27,3.74-9.35-.47-9.35-.47l1.09-4.68"/>
    <g>
      <path class="cls-8" d="m1997.09,778.87c-3.74-4.21-7.33-3.9-7.95-5.61-.62-1.71,2.49-6.86,2.49-6.86,1.4-4.05.31-10.44-.78-13.25-1.4-3.27-5.45-8.26-6.7-10.29-1.25-2.18-.47-5.14.31-11.84.62-6.7-3.43-14.03-3.43-14.03l-4.99,56.58,6.08,12.47s7.33,23.07,13.72,19.95c.78-.31,1.4-.94,2.18-1.56,0-.16.78-4.83,1.87-8.57,1.09-4.05.94-12.78-2.81-16.99Z"/>
      <path class="cls-17" d="m1970.75,715.75c.78.94,1.4,2.03,2.18,3.12-.78-.94-1.56-2.03-2.18-3.12-2.65-3.12-5.61-6.39-8.1-8.73-1.25-1.25-2.34-2.34-3.27-3.12-.78-.62-1.25-1.09-1.56-1.4.47.31.94.78,1.56,1.25.94.78,2.03,1.71,3.43,2.96,2.34,2.34,5.3,5.45,7.95,9.04Z"/>
      <path class="cls-17" d="m1978.7,732.42l.16.62c-.16-.47-.31-.78-.47-1.25-.78-2.65-1.87-5.61-2.96-8.42,1.25,2.65,2.34,5.3,3.12,8.26,0,.31.16.47.16.78Z"/>
      <path class="cls-8" d="m1984.16,748.17l-4.52,2.34c-2.03,1.09-4.36,2.03-6.86,2.81-1.87.78-4.05,1.4-6.39,1.87l-.78.31h-.78c-1.71.31-3.43.47-5.14.47-1.09,0-2.34,0-3.74-.16l-.94-.16c-8.42-.94-15.12-4.68-18.24-10.29-2.65-4.68-2.49-10.44.16-16.05,2.34-4.68,6.86-8.88,13.72-12.47,2.03-1.09,4.21-2.18,6.86-3.12,1.87-.78,3.74-1.4,5.45-2.03l2.49-2.18c.94.16,2.03.31,3.12.47l2.65,3.58c.94,1.09,1.71,2.49,2.49,3.74l.31.47c.78,1.25,1.4,2.49,2.18,3.74l.62,1.09v.16c1.4,2.96,2.49,5.92,3.27,8.88.16.31.16.62.31.94l.47,1.56v.16l3.27,13.87Z"/>
      <path class="cls-1" d="m1977.45,744.74c-1.71.78-3.74,1.71-6.08,2.49-1.87.78-4.05,1.25-6.23,1.71h-.31c-1.71.31-3.27.47-4.99.62-1.4,0-2.65,0-3.9-.16-9.97-1.09-18.08-7.33-13.25-17.46,1.87-4.05,6.23-7.33,11.22-9.82,2.03-1.09,4.21-2.03,6.39-2.96,2.18-.94,4.36-1.71,6.39-2.34h.16c.78,1.09,1.56,2.03,2.18,3.27.16.16.16.31.31.47.78,1.25,1.4,2.49,2.18,3.9q0,.16.16.31c1.25,2.65,2.34,5.45,3.12,8.42.16.31.16.47.16.78l.16.62h0l-1.09,6.08,3.43,4.05Z"/>
      <path class="cls-8" d="m1989.3,773.26c.16.47.62.78,1.25,1.09l-.94-3.43c-.31.94-.47,1.71-.31,2.34Z"/>
      <path class="cls-8" d="m1989.3,773.26c-.16-.47,0-1.4.31-2.34l-7.33-29.61-4.68-.31-2.81-.16-.94.94c-1.09.31-2.34.78-3.74,1.25,0,0-1.09.47-1.4.62-2.65.94-4.83,1.87-6.86,2.81-2.81,1.4-5.3,2.81-7.17,4.21-4.05,2.81-7.01,5.92-8.57,9.51-2.81,5.61-2.81,11.38,0,16.21,3.27,5.77,10.29,9.51,19.01,10.29,1.25.16,2.49.16,3.9.16.94,0,1.87-.16,2.81-.16h.62c2.34-.31,4.83-.78,7.33-1.56.78-.16,1.4-.47,2.03-.62,1.56-.47,3.27-1.09,4.83-1.87l5.45-2.34-1.25-5.3c-.94-.94-1.4-1.25-1.56-1.71Z"/>
      <path class="cls-1" d="m1977.92,750.5l6.23,25.4s-.16,0-.16.16c-1.4.62-2.96,1.25-4.68,1.71-.47.16-.94.31-1.4.47-2.03.62-4.21,1.09-6.39,1.4h0c-.94.16-1.87.16-2.81.16-11.38.31-22.29-6.08-16.83-17.3,1.25-2.65,3.58-4.99,6.55-7.01,2.03-1.4,4.21-2.65,6.39-3.74,2.03-1.09,4.21-1.87,6.23-2.65.47-.16.94-.31,1.4-.47,1.71-.62,3.43-1.09,4.83-1.56h0l.62,3.43Z"/>
      <path class="cls-8" d="m1989.3,773.26c.16.47.62.78,1.25,1.25l-.94-3.58c-.31.78-.47,1.71-.31,2.34Z"/>
      <path class="cls-8" d="m1989.3,773.26c-.16-.47,0-1.4.31-2.34l-.62-2.65-7.01,5.92c-1.09.31-2.18.78-3.12,1.09-.47.16-1.09.31-1.56.62-.31.16-1.25.47-1.25.47-1.56.62-3.12,1.4-4.68,2.18-2.81,1.56-5.14,3.12-7.17,4.68-2.34,2.03-4.21,4.21-5.3,6.7-1.87,3.9-2.34,7.64-1.56,10.91,1.71,7.48,8.88,12.47,18.7,13.4,1.09.16,2.34.16,3.43.16h.94c2.34-.16,4.68-.47,6.86-1.09,1.09-.31,2.03-.47,2.65-.78,1.25-.31,2.49-.78,3.58-1.25l5.3-2.03-5.3-21.82v-1.25l-1.71-6.7-1.25-4.99c-.62-.47-1.09-.78-1.25-1.25Z"/>
      <path class="cls-8" d="m1972.15,720.89s2.81,4.68,3.27,5.92,4.05,13.56,4.05,13.56c0,0,1.25.16,1.87-1.87.62-2.03,4.99-19.17-2.65-24.47-7.64-5.3-13.72-4.52-13.72-4.52"/>
      <path class="cls-8" d="m1989.61,754.4c-4.83-8.1-10.44-15.43-10.44-15.43l2.03,15.59s2.65,8.88,2.81,9.35,2.65,9.51,2.65,9.51c0,0,7.79-10.91,2.96-19.01Z"/>
      <path class="cls-8" d="m1997.09,778.87c-3.74-4.21-7.33-3.9-7.95-5.61-.31-.94.47-2.96,1.25-4.52-2.81-1.09-4.83-1.09-4.83-1.09l9.82,39.43s2.96-6.39,4.83-13.72c.62-4.52,0-11.07-3.12-14.49Z"/>
      <path class="cls-1" d="m1973.25,741.78s8.42-3.12,6.08-14.18-12.62-10.91-12.62-10.91"/>
      <path class="cls-1" d="m1981.82,774.19s6.39-3.58,4.36-12c-2.03-8.42-6.23-15.74-9.51-15.12"/>
      <path class="cls-1" d="m1997.71,785.1c-.62-9.2-11.07-5.77-12.47-5.3h-.16c-1.25.47-2.65.94-4.05,1.4-.47.16-.78.31-1.25.47-.47.16-.78.31-1.25.47-1.4.62-2.81,1.25-4.21,2.03-2.18,1.09-4.21,2.49-5.92,3.9-1.56,1.4-2.96,2.96-3.74,4.52-1.25,2.49-1.56,4.83-1.09,6.7,1.25,5.61,8.42,8.57,15.74,8.42h.78c2.03-.16,3.9-.47,5.77-.94.78-.16,1.56-.47,2.34-.62.94-.31,1.71-.62,2.49-.94h0c.16,0,.47-.16.62-.16l-.16-.47c1.56-2.34,7.01-11.07,6.55-19.48Z"/>
      <path class="cls-8" d="m1996.47,778.09l-1.25-.62v-.47c-.78-.62-1.4-1.09-2.03-1.4l-7.64,4.05s4.99.16,6.7,4.36c1.71,4.21,2.81,10.75,3.12,12.78.31,1.87,3.27-3.12,3.74-5.14.31-.94.78-2.03,1.25-3.27-.31-3.58-1.25-7.17-3.27-9.51-.16-.31-.47-.47-.62-.78Z"/>
      <path class="cls-1" d="m1994.91,793.83s1.4,6.7.31,9.04-5.3,2.96-5.3,2.96"/>
      <path class="cls-8" d="m1995.22,777s-2.81-1.56-3.74-4.05c-.94-2.49-.31-5.3.16-6.39s-1.56-2.03-2.65.16c-1.09,2.34-1.25,1.71-1.4,4.36s1.87,4.36,2.03,4.68"/>
      <path class="cls-8" d="m1998.81,809.1s5.3-12.16,2.96-21.98c-2.34-9.82-7.17-12.47-8.26-16.68-1.09-4.05-1.09-8.1-1.09-8.1,0,0-3.9,4.36-3.9,7.48-.16,3.12-2.18,3.58-.16,5.14,2.18,1.4,2.34,1.25,4.52,3.43,2.18,2.34,1.87,2.65,2.65,3.9s.47.31,1.25,2.18c.78,1.87.94,2.34,1.4,3.27s.47,1.4.47,3.27-.62,4.36-.94,6.23c-.31,1.71-.62,3.27-.78,3.9s-1.4,1.4-1.56,2.49-.62,1.56-.16,2.18"/>
      <path class="cls-1" d="m1982.91,780.58s5.61-3.43,10.29.47,3.9,12,3.9,16.21-2.18,6.39-3.27,7.01"/>
    </g>
    <path class="cls-20" d="m1947.84,698.6l-13.09-16.68,8.26-1.87s7.64,12.78,10.75,16.05"/>
    <path class="cls-20" d="m1886.75,694.55s3.58,9.66,5.77,12.31c2.18,2.81,1.56,2.96,2.18,2.81s9.04-4.83,9.66-5.3-4.68-.78,4.21-2.34c8.88-1.56,21.04-4.68,22.75-5.3,1.71-.78,2.18-3.43,5.92-3.9,3.74-.47,4.68-1.87,4.68-1.87,0,0,.62-4.83.47-5.61-.16-.94-6.39-2.18-6.39-2.18l-12.31-.62"/>
    <path class="cls-24" d="m1918.85,806.3s-1.71-15.74-4.99-24.47c-3.27-8.73-1.09-10.29,0-16.52s4.99-23.85,4.99-23.85l16.52.47s-2.65,5.61-1.09,11.84c1.56,6.23.31,11.07,1.09,15.9"/>
    <path class="cls-8" d="m1887.84,713.88s-3.74-4.83-2.49-14.65c1.25-9.82,2.81-31.95,3.12-34.44s-2.03-6.86-2.03-6.86c0,0-3.27,2.65-3.58,3.74s.94,15.12.94,16.05-.94,5.3-.94,5.3c0,0-1.4,10.13-1.56,12.62-.16,2.49-.47,7.01-.47,7.01,0,0,0,5.77.31,6.55.31.94.62,2.96.62,2.96"/>
    <path class="cls-8" d="m1887.84,710.76s-1.87-8.42.47-17.92c2.49-9.66,1.09-31.79.62-33.82s-5.77,7.17-4.83,9.66c.94,2.49.31,6.55-.16,11.84-.31,5.3-1.25,9.97-1.71,11.07-.31,1.09-.78.94-.94,2.49s0,6.7-.31,7.64-.31,3.43-.31,3.43"/>
    <path class="cls-8" d="m1918.23,648.89s5.92,14.34,14.34,23.85c8.57,9.51,16.83,20.11,21.2,25.72,4.36,5.61,9.51,14.65,9.51,14.65l3.12-2.34s-3.27-9.2-4.21-10.29c-1.09-1.09-7.95-7.01-8.73-8.73-.62-1.71-3.58-3.9-5.14-6.7-1.56-2.65-5.92-9.35-5.92-9.35"/>
    <g>
      <g class="cls-31">
        <polyline class="cls-8" points="952.86 1295.22 1224.67 1408.52 1735.88 1363.79 1598.73 1231.78"/>
      </g>
      <g>
        <path class="cls-8" d="m1606.21,1354.75h52.52c10.6,0,19.17-8.57,19.17-19.17v-94.92h-90.86v94.92c0,10.6,8.57,19.17,19.17,19.17Z"/>
        <path class="cls-18" d="m1640.18,1359.27h-15.43c-23.38,0-42.39-19.01-42.39-42.39v-81.04h100.06v81.04c.16,23.38-18.86,42.39-42.24,42.39Zm-48.47-114.09v71.85c0,18.24,14.81,33.2,33.2,33.2h15.43c18.24,0,33.2-14.81,33.2-33.2v-71.85h-81.82Z"/>
      </g>
      <g>
        <path class="cls-8" d="m1166.07,1377.2h52.52c10.6,0,19.17-8.57,19.17-19.17v-94.92h-90.86v94.92c0,10.6,8.57,19.17,19.17,19.17Z"/>
        <path class="cls-18" d="m1200.05,1381.87h-15.43c-23.38,0-42.39-19.01-42.39-42.39v-81.04h100.06v81.04c.16,23.38-18.86,42.39-42.24,42.39Zm-48.47-114.24v71.85c0,18.24,14.81,33.2,33.2,33.2h15.43c18.24,0,33.2-14.81,33.2-33.2v-71.85h-81.82Z"/>
      </g>
      <g>
        <path class="cls-8" d="m1002.11,1311.27h52.52c10.6,0,19.17-8.57,19.17-19.17v-94.92h-90.86v94.92c0,10.6,8.57,19.17,19.17,19.17Z"/>
        <path class="cls-18" d="m1036.09,1315.94h-15.43c-23.38,0-42.39-19.01-42.39-42.39v-81.04h100.06v81.04c.16,23.38-18.86,42.39-42.24,42.39Zm-48.63-114.24v71.85c0,18.24,14.81,33.2,33.2,33.2h15.43c18.24,0,33.2-14.81,33.2-33.2v-71.85h-81.82Z"/>
      </g>
      <g>
        <path class="cls-14" d="m1120.56,322.68c0-.94-.94-1.56-1.71-1.25-47.07,17.46-93.82,37.72-139.65,60.47-17.14,8.57-29.77,28.37-29.92,46.29-2.81,319.81-5.61,458.21-8.42,774.13-.16,17.61,11.84,37.09,28.68,46.29,49.56,26.65,100.06,50.65,151.02,71.54V322.68Z"/>
        <path class="cls-18" d="m1125.08,1327.01l-9.2-3.12c-50.03-20.42-98.03-44.11-148.69-71.23-18.24-9.82-31.17-31.02-31.02-50.34,1.4-156.48,2.81-271.5,4.21-382.62,1.4-113.15,2.81-230.35,4.21-391.66.16-19.95,13.87-41.15,32.42-50.34,46.44-22.91,93.67-43.33,140.11-60.63,1.87-.62,3.9-.47,5.45.62s2.49,2.96,2.49,4.83v1004.48h0Zm-9.2-999.5c-44.73,16.83-89.93,36.47-134.66,58.6-15.43,7.64-27.27,25.87-27.43,42.24-1.4,161.31-2.81,278.51-4.21,391.66-1.4,111.12-2.81,225.99-4.21,382.47-.16,15.9,11.07,33.98,26.18,42.24,48.16,25.87,96.63,48.94,144.32,68.73V327.51Z"/>
      </g>
      <g>
        <path class="cls-24" d="m1694.89,1278.54c-185,65.61-383.71,79.49-574.48,41.61V323.31c0-1.4.94-2.65,2.34-2.96,189.99-37.25,387.77-23.22,571.99,42.08,15.74,5.61,28.52,23.85,28.52,40.05v836.16c.16,16.21-12.62,34.29-28.37,39.9Z"/>
        <path class="cls-18" d="m1332.06,1345.56c-71.23,1.09-145.1,7.79-212.43-20.88l-3.74-.78V323.31c0-3.58,2.49-6.7,6.08-7.48,191.86-37.56,390.42-22.91,574.48,42.24,17.46,6.23,31.48,26.18,31.48,44.42v836.16c0,18.24-14.18,38.18-31.48,44.42h0c-117.36,41.46-240.64,62.5-364.39,62.5Zm-206.98-29.14c189.68,36.94,386.21,22.44,568.25-42.08h0c13.72-4.99,25.4-21.2,25.4-35.69V402.48c0-14.34-11.69-30.7-25.4-35.69-182.04-64.52-378.42-79.17-568.25-42.08v991.7Z"/>
      </g>
      <path class="cls-25" d="m1689.28,1278.54c15.59-5.61,28.21-23.85,28.21-40.05v-145.88c-3.43-2.49-5.3-3.9-5.3-3.9v46.13c0,20.88-33.51,55.8-131.7,74.65-98.19,18.7-324.8,31.02-386.83,11.22-62.03-19.79-67.64-204.79-67.64-204.79l-.47,7.79c0,94.45-4.99,192.32-4.99,296.44,188.9,37.87,385.58,24,568.71-41.61Z"/>
      <path class="cls-6" d="m1278.91,323.46s74.19-14.34,167.54,1.56c93.36,15.9,128.58,30.24,122.66,39.9-5.92,9.66-115.8-.31-195.29-6.7-79.49-6.39-113.15-22.44-94.92-34.76Z"/>
      <path class="cls-6" d="m1711.57,444.56v229.89c0,.16-14.96-156.48,0-229.89Z"/>
      <path class="cls-24" d="m963.93,422.74s4.05-22.91,30.24-34.44c26.18-11.53,102.4-45.67,108.32-45.2s4.05,39.74,4.05,39.74c0,0-10.6-27.43-28.05-22.29-17.46,5.14-78.55,32.89-88.37,41.3-9.82,8.42-26.18,20.88-26.18,20.88Z"/>
      <g>
        <g>
          <g>
            <path class="cls-2" d="m1277.51,992.08c-22.44,0-45.2,0-67.49-.16-22.91-.16-41.46-20.57-41.46-45.35V413.7c0-24.78,18.39-45.98,40.99-47.22,22.44-1.25,45.35-1.87,67.95-1.87,101.62,0,202.61,12.47,300.18,36.94,21.35,5.45,38.18,27.59,38.18,50.34v492.5c0,23.22-18.08,42.7-40.21,43.33-97.1,2.96-197.31,4.36-298.15,4.36Z"/>
            <path class="cls-16" d="m1178.23,946.57V413.7c0-19.64,14.18-36.63,31.79-37.56,122.5-6.7,246.09,4.83,365.17,34.76,17.14,4.36,30.86,22.91,30.86,40.99v492.5c0,18.08-13.72,33.2-30.86,33.82-119.07,3.74-242.67,5.14-365.17,4.21-17.61-.31-31.79-16.36-31.79-35.85Z"/>
          </g>
          <path class="cls-2" d="m1596.54,452.35v-.62h0c-.31-13.72-10.91-27.74-23.53-31.02-74.81-18.7-151.65-30.39-229.26-34.6-7.64-.31-15.27-.78-22.91-.94-6.08-.16-12.16-.31-18.24-.47-8.42-.16-16.83-.31-25.25-.31-12,0-24,.16-36,.62-10.29.31-20.57.78-30.86,1.25-12.16.62-22.44,13.09-22.75,27.43h0v.62h0v532.24c0,14.34,9.97,26.03,22.29,26.03,22.29.16,45.04.16,67.33.16,100.68,0,200.74-1.56,297.53-4.52,11.84-.47,21.51-11.22,21.51-24.16l.16-491.72h0Z"/>
        </g>
        <g>
          <g>
            <path class="cls-2" d="m1257.09,907.61c-11.22,0-20.26-9.04-20.26-20.26v-407.25c0-11.07,8.88-20.11,19.95-20.26,4.99,0,9.97-.16,14.96-.16,32.89,0,66.24,1.4,99.12,4.21,10.44.94,18.55,9.82,18.55,20.26v402.57c0,11.07-9.04,20.11-20.11,20.26-32.89.31-65.77.47-97.57.47l-14.65.16Z"/>
            <path class="cls-20" d="m1379.91,484.15c0-5.45-4.21-10.13-9.66-10.6-32.57-2.81-65.46-4.21-98.34-4.21-4.99,0-9.82,0-14.81.16-5.77,0-10.44,4.83-10.44,10.6v407.09c0,5.92,4.68,10.6,10.6,10.6h14.81c32.57,0,65.15-.16,97.57-.47,5.77,0,10.44-4.83,10.44-10.6v-402.57h-.16Z"/>
            <path class="cls-2" d="m1289.35,501.76c16.05.31,32.26.78,48.32,1.87,5.61.31,9.97,4.99,9.97,10.6v340.85c0,5.77-4.68,10.6-10.6,10.6-16.05.16-32.11.16-47.85.16-5.92,0-10.6-4.68-10.6-10.6v-342.88c.16-5.92,4.83-10.75,10.75-10.6Z"/>
            <path class="cls-2" d="m1421.83,907.92c-11.22,0-20.26-9.04-20.26-20.26v-397.9c0-11.22,9.04-20.26,20.26-20.26.78,0,1.56,0,2.49.16,36,4.36,72.16,10.6,107.38,18.24,9.2,2.03,15.9,10.29,15.9,19.79v377.95c0,11.07-8.73,19.95-19.79,20.26-34.76.94-70.29,1.56-105.67,2.03h-.31Z"/>
            <path class="cls-20" d="m1411.23,489.76v397.9c0,5.92,4.83,10.75,10.75,10.6,35.53-.47,70.76-1.25,105.51-2.03,5.77-.16,10.29-4.83,10.29-10.6v-377.95c0-4.99-3.43-9.35-8.26-10.44-35.07-7.64-70.6-13.72-106.45-18.08-6.39-.62-11.84,4.36-11.84,10.6Z"/>
            <path class="cls-2" d="m1443.34,514.38c20.88,2.96,41.77,6.55,62.34,10.75v339.45c-20.73.47-41.46.94-62.34,1.25v-351.45Z"/>
          </g>
          <circle class="cls-20" cx="1278.76" cy="548.36" r="24.94"/>
          <circle class="cls-20" cx="1443.34" cy="571.74" r="24.94"/>
        </g>
      </g>
      <g>
        <g>
          <path class="cls-25" d="m1554.62,1148.09c18.86-18.55,24.31-44.57,20.26-77.15-4.05-32.57-14.65-44.73-44.57-40.52-81.51,11.38-163.96,15.74-247.65-.16-17.92-3.43-33.82,4.05-35.38,25.25-2.96,37.87-2.18,76.21,32.89,100.06,1.71,1.4,3.58,2.81,5.3,4.05l2.03,1.25s35.69,33.98,112.84,30.55c76.99-3.27,124.68-11.69,154.14-43.33h0c0,.16.16.16.16,0h0Zm-279.14-67.49c-8.88-3.27-14.65-11.07-12.16-21.98,2.18-9.66,10.13-11.53,18.08-10.6,13.09,1.4,26.03,4.21,39.12,5.45,69.67,7.17,138.55,5.3,206.2-5.77,11.84-2.03,26.03-6.86,30.39,11.22,4.52,19.01-11.38,22.29-23.53,25.56-36.78,9.97-75.12,8.88-113.31,10.29-36.47.31-72.94,3.12-109.41-3.9-12-2.18-23.85-5.92-35.38-10.29Zm23.07,70.29c42.08-38.81,154.92-36.63,202.77-.16l-180.79,8.73c-7.17-2.49-14.65-5.3-21.98-8.57Z"/>
          <path class="cls-4" d="m1544.33,1141.08c18.08-17.77,23.38-42.7,19.48-73.88-3.9-31.33-14.03-42.86-42.7-38.96-78.24,10.91-157.1,15.12-237.37-.16-17.14-3.27-32.42,3.9-33.98,24.16-2.81,36.31-2.18,73.1,31.48,96.01,1.71,1.25,3.43,2.65,4.99,3.9l2.03,1.25s34.13,32.57,108.16,29.3c73.72-3.12,119.54-11.22,147.75-41.46h0c0-.16.16-.16.16-.16h0Zm-267.6-64.84c-8.42-3.12-14.03-10.6-11.53-21.04,2.18-9.35,9.82-11.07,17.3-10.29,12.47,1.4,24.94,3.9,37.56,5.3,66.86,6.86,132.79,5.14,197.62-5.61,11.38-1.87,24.94-6.55,29.14,10.75,4.36,18.24-10.91,21.35-22.44,24.47-35.22,9.66-72,8.57-108.63,9.82-34.91.31-69.98,2.96-104.89-3.74-11.69-1.87-23.07-5.45-34.13-9.66Zm22.13,67.49c40.37-37.25,148.53-35.07,194.35-.16l-173.31,8.42c-7.01-2.49-14.03-5.14-21.04-8.26Z"/>
          <path class="cls-29" d="m1415.44,1089.96c-34.91.31-69.82,2.96-104.89-3.74-11.53-2.18-22.91-5.77-33.98-9.97-8.42-3.12-14.03-10.6-11.53-21.04,2.18-9.35,9.82-11.07,17.3-10.29,12.47,1.4,24.94,3.9,37.56,5.3,66.86,6.86,132.79,5.14,197.62-5.61,11.38-1.87,24.94-6.55,29.14,10.75,4.36,18.24-10.91,21.35-22.44,24.47-35.22,9.82-72.16,8.73-108.79,10.13Z"/>
          <path class="cls-24" d="m1500.23,1149.49c-67.64,17.3-132.63,24.47-201.36-5.77,42.55-39.28,160.53-34.76,201.36,5.77Z"/>
        </g>
        <path class="cls-4" d="m1303.38,1017.48c-1.09.78-56.26-.62-65.46,61.56,0,0-29.14-71.23,64.37-60.78"/>
        <path class="cls-4" d="m1510.67,1017.95c13.09,1.4,53.61,8.73,61.25,61.1,0,0,28.68-69.67-61.25-61.1Z"/>
        <path class="cls-4" d="m1362.92,1206.38c1.4.16,43.17,23.07,120.63-4.83,0,0-63.74,51.43-119.23,5.14"/>
      </g>
      <g>
        <path class="cls-18" d="m984.19,864.59c-1.09,0-2.18-.31-2.96-1.09-1.09-.94-1.56-2.18-1.56-3.43v-75.75c0-2.18,1.56-4.05,3.74-4.52,23.85-4.68,47.85-9.35,72.16-14.03,1.4-.31,2.81.16,3.74.94,1.09.94,1.71,2.18,1.71,3.58v78.24c0,2.34-1.71,4.21-3.9,4.52-24.16,3.9-48.32,7.79-72.16,11.53-.31,0-.47,0-.78,0Zm4.68-76.52v66.55c20.88-3.27,41.77-6.7,62.81-9.97v-68.73c-21.04,4.05-41.92,8.1-62.81,12.16Zm67.49,60.47h0Z"/>
        <path class="cls-18" d="m992.45,844.48c-1.4,0-2.81-.47-3.9-1.4-1.4-1.09-2.18-2.81-2.18-4.68v-38.03c0-2.96,2.18-5.45,4.99-6.08l36-6.7c1.87-.31,3.58.16,4.99,1.25,1.4,1.09,2.18,2.96,2.18,4.68v38.65c0,2.96-2.18,5.61-5.14,6.08-12,2.03-24,4.05-36,6.08-.31.16-.62.16-.94.16Zm35.85-12.16h0Zm-29.77-26.81v25.72c7.95-1.4,15.74-2.65,23.69-4.05v-26.03l-23.69,4.36Z"/>
      </g>
      <g>
        <path class="cls-18" d="m857.48,1082.32c-12.47,0-23.22-9.51-24.47-22.13-11.07-113.31,35.85-180.32,77.15-216.64,44.42-39.12,91.8-51.12,93.67-51.59,13.09-3.27,26.5,4.83,29.77,17.92s-4.68,26.5-17.92,29.77c-6.39,1.71-150.87,40.83-133.88,215.7,1.25,13.56-8.57,25.56-22.13,26.81-.47.16-1.25.16-2.18.16Z"/>
        <path class="cls-8" d="m981.54,1042.89s77.77,106.92,44.26,157.41c0,0-50.19-43.8-52.99-46.76-2.81-3.12-11.53-40.52-11.53-40.52v-4.83"/>
        <g>
          <path class="cls-8" d="m981.39,1153.86c-11.84,0-21.82-4.83-27.74-13.72-4.83-7.01-6.55-16.21-4.21-22.29l.94-2.34,2.03-.94c1.87-1.25,4.68-2.34,8.57-2.34,4.83,0,10.29,1.87,16.21,5.45,7.64,4.83,15.74,7.48,22.6,7.48,3.9,0,7.33-.78,10.13-2.34.78-.47,1.4-.94,2.03-1.4l9.2,7.79c-2.18,4.05-15.43,24.63-39.74,24.63Z"/>
          <path class="cls-9" d="m1013.02,1128.14c-10.75,6.08-25.72,3.12-39.12-5.14-10.91-6.86-16.36-4.36-18.08-3.27,0,0-.16,0-.16.16-.31.16-.47.31-.47.31l.16-.16c-.16,0-.16.16-.31.16-2.81,7.01,3.27,27.59,26.18,27.59,21.04,0,32.57-18.08,34.6-21.51-.78.62-1.71,1.25-2.81,1.87Z"/>
          <path class="cls-8" d="m999.93,1137.49c-9.2,0-19.64-3.27-29.14-9.35-5.14-3.12-8.26-3.58-9.66-3.58-1.25,0-1.71.31-1.71.31,0,0,.16-.16.47-.31l-9.2-8.26c4.68-5.61,7.01-6.23,14.49-7.48,2.34-.47,5.45-.94,9.66-1.87,9.04-1.87,9.2-2.18,11.22-7.79.78-2.18,1.71-4.83,3.27-8.1,3.74-7.79,10.13-12.16,17.61-12.16s15.43,4.99,19.79,13.09c7.95,14.81,3.12,33.82-10.75,41.46-4.68,2.65-10.13,4.05-16.05,4.05Z"/>
          <path class="cls-27" d="m955.36,1120.19s5.45-5.45,18.7,2.81c13.25,8.26,28.21,11.22,39.12,5.14,10.75-6.08,14.81-21.2,8.26-33.2-6.55-12-20.42-13.87-26.5-1.25-6.08,12.78-2.49,15.74-18.86,19.17-16.36,3.58-16.21,1.71-20.73,7.33Z"/>
        </g>
        <g>
          <path class="cls-8" d="m1020.97,1072.97c-8.88-1.25-15.74-5.92-19.17-13.09-2.81-5.77-3.12-12.78-.78-16.99l.94-1.56,1.56-.47c1.56-.62,3.74-1.25,6.7-.94,3.58.47,7.48,2.49,11.53,5.77,5.14,4.36,10.91,7.17,16.05,7.95,2.81.47,5.45.16,7.79-.78.62-.16,1.09-.47,1.71-.78l6.08,6.86c-2.34,2.81-14.34,16.68-32.42,14.03Z"/>
          <path class="cls-9" d="m1047.31,1057.23c-8.73,3.27-19.48-.47-28.52-8.1-7.33-6.23-11.84-4.99-13.09-4.36h-.16l-.31.16.16-.16h-.16c-2.81,4.99-.47,20.88,16.52,23.22,15.59,2.18,26.18-9.97,28.05-12.31-.78.94-1.71,1.25-2.49,1.56Z"/>
          <path class="cls-8" d="m1036.56,1062.84c-6.86-.94-14.18-4.52-20.73-9.97-3.43-2.96-5.77-3.58-6.86-3.74-.94-.16-1.4,0-1.4,0,0,0,.16,0,.31-.31l-5.92-7.01c4.05-3.74,5.92-3.9,11.53-4.05,1.87,0,4.21-.16,7.48-.31,7.01-.47,7.17-.62,9.2-4.52.78-1.56,1.87-3.43,3.27-5.77,3.58-5.3,8.88-7.95,14.49-7.17,5.77.78,10.91,5.45,13.4,11.84,4.36,11.84-1.25,25.56-12.47,29.77-3.74,1.56-7.95,1.87-12.31,1.25Z"/>
          <path class="cls-27" d="m1005.07,1045.22s4.68-3.58,13.56,4.05c8.88,7.64,19.95,11.38,28.52,8.1,8.57-3.27,13.25-14.18,9.66-23.85-3.58-9.66-13.72-12.62-19.64-3.74s-3.58,11.53-16.05,12.31c-12.47.78-12-.62-16.05,3.12Z"/>
        </g>
        <g>
          <path class="cls-8" d="m1021.28,1192.66c-31.79-47.85-45.35-94.14-41.15-141.36l.94-9.97-38.34,27.59-126.87,36.31-45.35-.47,48.63,159.75,33.35-26.18,134.35-38.34h39.28l-4.83-7.33Zm-35.22,2.65l-135.91,38.81-28.68,22.44-44.89-147.13,39.74.47,128.27-36.63,30.86-22.13c-4.52,50.03,11.07,98.03,41.92,144.32l-31.33-.16Z"/>
          <g>
            <path class="cls-24" d="m970.48,1060.34l-23.53,16.99-.78.16-128.89,36.78-34.13-.31,40.99,134.81,24.16-19.01,137.46-39.12h23.53c-27.59-43.33-40.52-87.12-38.81-130.29Z"/>
            <path class="cls-7" d="m947.1,1151.67c.78-21.51-22.6-14.49-22.6-14.49,0,0-21.82,5.45-25.4,11.84-3.58,6.39-6.08,15.59-6.86,17.46l36.16,17.77c-.16.16,17.77-11.07,18.7-32.57Z"/>
            <path class="cls-27" d="m1004.61,1195.31h0s-72.32-.47-104.73-35.69c-32.42-35.38-87.43-45.51-87.43-45.51l-20.88-4.52-14.81-.16,44.73,147.13,28.83-22.6,135.91-38.81,18.39.16Z"/>
            <path class="cls-9" d="m793.11,1120.97l18.08-4.52-8.1-4.52-11.53-2.49-14.81-.16,44.73,147.28,28.83-22.6,67.33-19.17c6.23-4.68,10.29-7.79,10.29-7.79l-100.68,23.07-34.13-109.1Z"/>
            <path class="cls-9" d="m933.07,1181.29c-12.47-5.14-24.31-12.16-33.2-21.82-4.52-4.99-9.51-9.35-14.65-13.25-10.91-1.4-19.48-2.49-19.48-2.49l-20.11,6.08-3.27,27.43s17.3,19.79,45.51,19.01c23.53-.78,40.37-11.53,45.2-14.96Z"/>
            <path class="cls-8" d="m975.62,1050.99l-30.86,22.13-128.27,36.63-39.74-.47,44.73,147.28,28.83-22.6,135.91-38.81h31.33c-30.86-46.13-46.44-94.14-41.92-144.17Zm9.82,139.65l-137.46,39.12-24.16,19.01-40.99-134.81,34.13.31,128.89-36.78.78-.16,23.53-16.99c-1.56,43.17,11.38,86.97,38.65,130.29h-23.38Z"/>
          </g>
        </g>
        <g>
          <g>
            <path class="cls-8" d="m899.41,1187.99c-1.4,0-2.81-.16-4.21-.47-2.34-.62-4.68-.94-7.48-.94-2.96,0-5.92.31-9.04.62l-2.18.16c-.94.16-1.87.16-2.81.16-8.26,0-15.74-3.43-22.13-10.13-1.4.31-2.81.47-4.05.47-4.52,0-8.1-1.87-10.44-3.27-7.64-4.68-13.09-11.07-16.05-18.86l-1.25-3.27c-4.21-8.88-5.77-18.39-7.17-27.59l-.47-2.49c-2.65-13.4-2.03-26.03,1.56-38.34.94-3.12,2.03-6.39,4.05-9.51l.47-.78c-1.71-1.71-2.49-4.05-2.34-7.48v-.31c.16-4.68,2.03-11.53,10.13-17.46,14.03-10.29,29.77-16.36,46.91-18.24,1.56-.16,3.12-.31,4.52-.31,4.68,0,9.04.78,12.94,2.49,9.51,4.05,11.53,10.13,11.53,14.81,3.9,1.09,8.57,2.65,12.16,5.61,3.27-.78,6.7-1.56,9.66-3.43l1.25-.78c3.74-2.34,7.79-4.68,12.47-6.23,3.74-1.25,7.48-2.03,11.07-2.03,11.53,0,19.48,7.17,19.64,17.77.16,12-9.35,24.94-22.75,30.7-4.52,1.87-9.04,2.96-13.87,2.96h-.47c.31.94.62,1.71.94,2.65,1.25,3.43,2.65,6.86,4.36,10.13,3.43,6.08,6.39,12.78,9.04,20.26,2.34,6.7,4.68,15.59,2.03,25.72-3.12,11.69-11.22,18.86-23.53,21.04-4.68,9.2-15.43,16.36-24.47,16.36Zm-52.99-54.24c3.58.47,8.1,2.34,8.88,9.35v.47c1.56,8.57,3.74,15.27,6.86,21.35,2.18,4.21,7.33,7.01,13.09,7.48-3.58-7.01-5.3-14.49-6.86-21.82-.31-1.56-.62-3.12-1.09-4.83-.94-4.21-2.03-9.2-2.18-14.49l-.78-18.7,11.69,14.65c4.36,5.45,6.23,11.69,7.48,16.36l.78,3.27c1.71,6.86,3.27,13.4,6.39,19.17.94,1.87,2.03,3.12,3.27,4.21,1.09.94,2.81,1.4,4.83,1.4,3.58,0,7.33-1.71,9.51-4.21-6.7-5.45-8.88-12.78-11.07-19.33l-.31-1.09c-2.18-6.86-3.43-13.87-4.68-21.2l10.91-4.68c4.36,5.77,6.39,12,8.42,18.08l.78,2.34c1.4,4.21,2.65,8.1,4.99,11.38,2.03,2.96,2.81,3.27,4.21,3.27.31,0,.78,0,1.25-.16,3.12-.47,4.99-2.18,7.33-5.92,2.18-3.74,2.34-7.33.94-12.78-2.65-9.35-6.7-18.24-10.91-27.43-.94-2.03-1.87-4.05-2.81-6.08-2.18-4.99-4.68-10.75-4.68-17.46-1.87-1.09-5.3-3.58-5.14-8.42l.16-5.92h5.92c3.74,0,6.55,1.09,8.73,2.03.78.31,1.56.62,2.34.78,2.03.62,4.21.94,6.23.94,8.73,0,16.21-5.14,18.86-13.09,1.4-4.21.78-4.68.62-4.83-.47-.31-1.25-.78-2.81-.78-2.18,0-4.99.78-7.01,1.4-2.49.78-4.83,2.18-7.48,3.74-1.25.78-2.65,1.56-4.05,2.34-5.14,2.65-10.29,4.05-16.05,4.05-3.27,0-6.7-.47-10.6-1.4-3.58-.94-4.99-3.58-5.61-5.14-4.99-2.03-10.44-2.96-16.68-2.96-2.03,0-4.05.16-6.23.31l-9.35.78,1.71-5.14-3.74-.62,4.05-6.86c-5.3.94-10.44,2.49-15.59,4.83l4.36,11.07c-2.49,1.56-4.83,2.96-7.01,4.21-2.65,1.4-4.99,2.81-7.17,4.36-8.26,6.23-12.47,13.87-13.56,24.78-.78,7.95-.31,15.9.78,25.25.78,7.48,3.12,14.65,5.45,22.13l.62,2.18,1.4,2.96c2.18,4.05,4.21,7.33,7.01,10.13-1.09-4.52-1.71-9.2-2.49-13.72-.31-1.56-.47-3.27-.78-4.83l-1.4-8.1,8.26.93Z"/>
            <path class="cls-4" d="m939.3,1048.65c-4.52,1.56-8.57,4.05-12.47,6.55-3.74,2.18-7.64,3.12-11.53,4.05-1.56.31-2.96.62-4.36-.62-3.43-3.27-8.42-4.52-13.4-5.77-1.4-.31-2.96,0-2.34-2.34,1.87-6.08-1.87-9.66-7.33-12-4.36-1.87-9.35-2.34-14.49-1.71-16.05,1.71-30.7,7.48-43.95,16.99-4.68,3.43-7.48,7.64-7.64,12.62,0,1.25-.31,2.81.78,3.27,4.83,2.34,2.18,5.14-.16,8.42-1.71,2.34-2.49,5.14-3.27,7.64-3.58,12.31-3.58,24.16-1.4,35.69,1.56,9.82,2.81,19.64,7.17,28.68.47,1.09.94,2.34,1.25,3.43,2.65,6.55,7.17,11.84,13.56,15.74,3.12,2.03,6.86,3.43,11.38,1.56,2.34-.94,2.65.31,3.58,1.25,4.99,5.61,11.53,9.82,20.73,9.04,7.17-.62,13.87-1.56,20.88.16,7.48,1.87,18.08-5.14,21.66-12.62.62-1.25.31-2.34,2.96-2.65,10.91-1.4,17.3-7.17,19.79-16.68,2.03-7.95.62-15.12-1.87-22.13-2.34-6.7-5.14-13.09-8.57-19.33-1.87-3.43-3.43-7.17-4.83-10.91s-2.34-7.48-3.74-12c7.01,1.56,13.4,1.87,20.42-1.25,10.91-4.83,19.33-15.43,19.17-25.09.31-9.82-9.51-14.34-21.98-9.97Zm16.21,16.36c-4.52,13.09-18.55,20.11-32.57,16.05-2.96-.78-5.61-2.65-9.35-2.65-.16,3.58,5.3,2.96,5.14,6.55-.31,6.08,1.71,11.38,4.21,16.68,5.14,11.22,10.75,22.29,14.03,34.29,1.56,5.61,2.03,11.38-1.56,17.46-2.49,4.21-5.77,7.95-11.69,8.88-6.23.94-8.88-2.34-11.38-5.77-3.12-4.36-4.68-9.51-6.23-14.49-2.03-5.92-3.9-12-7.79-17.14,1.09,6.86,2.34,13.72,4.52,20.26,2.18,6.86,4.21,14.03,10.75,18.55,2.49,1.71,2.18,3.58.78,5.77-4.99,8.1-17.61,10.91-24.16,5.45-2.03-1.71-3.43-3.74-4.68-5.92-4.05-7.48-5.77-15.74-7.79-24-1.25-4.99-2.96-9.82-6.39-14.03.16,4.68,1.09,9.04,2.03,13.4,2.49,10.6,3.9,21.66,10.75,30.7,1.87,2.49-.78,2.65-2.65,2.96-9.97,2.03-20.57-2.34-24.78-10.29-3.74-7.17-6.08-14.96-7.48-23.07-.31-1.87.16-4.36-3.58-4.83,1.4,8.42,2.34,16.83,4.99,24.78.31,1.09,2.18,2.18.47,3.58-1.56,1.25-3.58.78-5.14.31-2.65-.62-4.36-2.03-6.08-3.58-4.21-3.74-6.86-8.26-9.35-12.94-.62-1.09-1.09-2.18-1.71-3.27-2.65-8.42-5.61-16.83-6.55-25.87-.94-8.73-1.71-17.46-.78-26.5,1.09-10.75,5.14-20.88,16.05-28.99,4.21-3.12,9.2-5.3,14.49-8.73-1.4.31-1.87.31-2.34.47-3.12,1.25-6.23,2.65-9.35,3.9-.78.31-1.87.94-2.49.78-1.87-.47-2.49-.47-3.27.78-.78,1.09-1.25,2.49-2.18,3.43-1.09.94-2.03,2.96-3.9,2.34-1.56-.47-2.81-1.56-2.81-3.27.16-3.43,1.71-6.55,4.99-9.04,14.49-10.91,30.39-17.3,48.47-17.14,5.45,0,9.2,2.34,12.16,5.45,1.09,1.09,1.4,2.49.31,4.21-1.25,2.03-2.81.94-4.21,1.09-2.03.16-3.74-.47-5.3-1.25-2.49-1.25-5.3-1.87-8.57-1.25-.16.31-.47.78-.62,1.09,1.56.31,2.96.47,4.52.78-.78,1.56-3.12,1.09-3.58,2.65,9.97-.94,19.01,0,27.27,3.74,2.34,1.09,1.25,3.74,3.27,4.21,7.17,1.87,14.34,2.03,22.13-2.03,4.05-2.18,7.95-4.99,12.47-6.39,5.45-1.71,11.22-2.81,15.43.31,3.43,2.65,2.49,7.17,1.09,11.53Z"/>
            <path class="cls-23" d="m845.95,1168.51c1.71.31,3.58.94,5.14-.31,1.87-1.4,0-2.49-.47-3.58-2.65-7.95-3.58-16.36-4.99-24.78,3.74.47,3.27,2.96,3.58,4.83,1.4,8.1,3.74,15.9,7.48,23.07,4.21,7.95,14.65,12.31,24.78,10.29,1.87-.47,4.68-.47,2.65-2.96-6.86-9.04-8.26-19.95-10.75-30.7-.94-4.36-1.87-8.73-2.03-13.4,3.27,4.21,5.14,9.04,6.39,14.03,2.03,8.1,3.74,16.52,7.79,24,1.25,2.18,2.65,4.21,4.68,5.92,6.7,5.61,19.17,2.81,24.16-5.45,1.4-2.18,1.71-4.05-.78-5.77-6.55-4.52-8.57-11.69-10.75-18.55-2.03-6.55-3.27-13.4-4.52-20.26,3.9,5.14,5.77,11.22,7.79,17.14,1.71,4.99,3.12,10.13,6.23,14.49,2.49,3.43,5.14,6.7,11.38,5.77,5.92-.94,9.2-4.68,11.69-8.88,3.58-6.08,3.12-11.84,1.56-17.46-3.27-12-8.88-23.07-14.03-34.29-2.34-5.3-4.52-10.6-4.21-16.68.16-3.58-5.3-2.96-5.14-6.55,3.74,0,6.23,1.71,9.35,2.65,14.03,3.9,28.21-2.96,32.57-16.05,1.56-4.36,2.34-8.88-1.56-11.84-4.21-3.12-9.82-2.03-15.43-.31-4.52,1.4-8.42,4.21-12.47,6.39-7.79,4.05-14.96,3.9-22.13,2.03-2.03-.47-.94-3.27-3.27-4.21-8.1-3.58-17.14-4.52-27.27-3.74.47-1.56,2.81-1.09,3.58-2.65-1.56-.31-2.96-.47-4.52-.78-.78-.47-2.65.94-2.49-.31.16-.78,1.87-1.56,3.12-.78,3.27-.62,6.08,0,8.57,1.25,1.71.78,3.27,1.4,5.3,1.25,1.4-.16,2.96.94,4.21-1.09,1.09-1.71.78-3.12-.31-4.21-2.96-3.12-6.7-5.45-12.16-5.45-18.08-.16-33.98,6.23-48.47,17.14-3.27,2.49-4.83,5.61-4.99,9.04,0,1.71,1.25,2.81,2.81,3.27,1.87.62,2.81-1.4,3.9-2.34s1.4-2.34,2.18-3.43c.94-1.25,1.56-1.25,3.27-.78.62.16,1.56-.47,2.49-.78,3.12-1.25,6.23-2.65,9.35-3.9.47-.16.94-.16,2.34-.47-5.3,3.43-10.29,5.61-14.49,8.73-11.07,8.26-14.96,18.24-16.05,28.99-.94,9.04-.16,17.77.78,26.5.94,9.04,3.9,17.46,6.55,25.87.62,1.09,1.09,2.18,1.71,3.27,2.49,4.68,5.3,9.2,9.35,12.94,2.18,1.87,3.9,3.43,6.55,3.9Z"/>
          </g>
          <path class="cls-4" d="m873.07,1048.97c-1.25-.78-2.96,0-3.12.78-.16,1.25,1.71-.16,2.49.31.16-.31.47-.62.62-1.09Z"/>
        </g>
        <line class="cls-11" x1="956.14" y1="1086.21" x2="923.72" y2="1094.94"/>
        <path class="cls-4" d="m915.61,1083.88s5.3,6.08,23.85,4.21c18.7-1.71,26.5-15.9,26.5-15.9l-9.82-3.9s-7.48,12.16-20.73,13.25-19.64-6.08-20.73-3.12c-1.09,2.96,2.03,8.1,2.03,8.1"/>
        <path class="cls-23" d="m918.42,1078.27s11.84,5.45,21.66,2.34,14.34-11.22,14.34-11.22c0,0-9.04-4.21-9.66-4.21s-10.75,1.25-10.75,1.25"/>
        <path class="cls-6" d="m968.45,1112.87s6.55,25.25,11.84,38.34c5.3,13.09,15.59,27.59,15.74,29.77.16,2.18-19.01,4.83-21.82,4.05s-25.09-6.86-25.09-6.86c0,0,23.22,3.27,30.08-.62s-9.51-38.18-10.75-49.09,0-15.59,0-15.59Z"/>
        <path class="cls-8" d="m968.45,1051.46l-53.77,26.81s15.27,12.16,17.92,16.05c2.65,3.9,16.05,1.09,16.05,1.09l14.81-12.94,2.49-10.29.94-3.43"/>
        <path class="cls-24" d="m970.94,1061.9l-44.57,19.01,7.48,17.3,4.36-1.09s8.1-1.09,12.78-2.03,10.91-3.43,10.91-3.43c0,0,5.61-7.64,6.08-9.2s1.09-9.04.94-9.66"/>
        <path class="cls-6" d="m934.16,1082.16l32.26-14.34s-.47,18.86,2.03,27.74c0,0-6.39-13.09-6.08-22.13,0,0-25.09,9.51-28.21,8.73Z"/>
        <path class="cls-30" d="m982.79,1057.54s11.22,17.77,13.4,22.44c0,0-6.55,7.01-7.64,12s-.31-.47-.31-.47c0,0-9.66-25.09-5.45-33.98Z"/>
        <path class="cls-30" d="m1021.75,1137.96s4.36,22.75,4.83,32.11-4.83,18.86-4.83,18.86c0,0-13.09-18.55-15.43-24s-5.77-12-5.77-12l21.98-14.96"/>
        <path class="cls-4" d="m824.91,1082.32s19.79-20.88,32.89-25.56c0,0-19.01,2.81-26.03,8.57-7.01,5.61-5.61-1.56-5.3-2.49.31-.78-3.9.62-4.05,3.9s0,3.9,0,5.92-.16,3.12-.16,3.12"/>
        <path class="cls-23" d="m873.07,1053.49s12.78-2.18,16.05-1.87c3.27.31-11.69-7.01-13.4-7.17-1.71-.31-5.14-2.65-6.39-.16-1.25,2.49-2.34,3.43-2.49,3.9-.16.31-.62,1.71-.78,2.18s-.94,2.03-.94,2.18"/>
        <path class="cls-4" d="m845.64,1139.83s1.87,19.17,2.81,22.13,3.43,4.21,3.43,5.14,1.87.31,1.71-.94c-.16-1.25-.78-6.08-.78-6.08"/>
        <path class="cls-4" d="m871.35,1131.1s.16,10.6.78,17.14c.78,6.7,4.99,20.42,6.86,22.91s4.52,4.68,5.45,5.3.94.78.94.78"/>
        <path class="cls-4" d="m898.94,1125.49s-1.25,12,2.81,23.38c4.05,11.38,14.34,18.55,14.34,18.55h1.71"/>
      </g>
      <g>
        <g>
          <g>
            <path class="cls-4" d="m1638.16,602.75c21.35.78,42.7,1.56,63.9,2.65v-97.57c-21.2-1.87-42.55-3.43-63.9-4.68v99.59Z"/>
            <path class="cls-18" d="m1706.58,610.39l-4.83-.31c-21.2-1.09-42.55-2.03-63.74-2.65l-4.52-.16v-108.94l4.83.31c21.35,1.25,42.86,2.81,64.06,4.68l4.21.31v106.76h0Zm-63.9-12c18.24.62,36.47,1.4,54.71,2.34v-88.53c-18.08-1.56-36.31-2.96-54.71-4.05v90.24Z"/>
          </g>
          <g>
            <path class="cls-18" d="m1709.23,485.55l-10.13-.47c-19.48-.94-39.28-1.56-58.91-2.18l-9.35-.31v-57.04l10.29.47c19.79.94,39.74,2.18,59.22,3.74l8.88.62v55.17Zm-69.2-11.84h.47c19.64.62,39.43,1.25,59.07,2.18h.62v-36.94h-.47c-19.48-1.56-39.28-2.81-59.07-3.74h-.62v38.5Z"/>
            <path class="cls-26" d="m1701.28,477.29c-20.73-.94-41.77-1.71-62.65-2.34v-41.15c20.88,1.09,41.92,2.34,62.65,3.9v39.59Z"/>
          </g>
          <g>
            <polygon class="cls-28" points="1643.61 526.07 1656.39 526.85 1656.39 509.71 1643.61 508.93 1643.61 526.07"/>
            <polygon class="cls-28" points="1643.61 571.27 1656.39 571.74 1656.39 556.15 1643.61 555.53 1643.61 571.27"/>
            <polygon class="cls-28" points="1643.61 548.67 1656.39 549.29 1656.39 533.55 1643.61 532.93 1643.61 548.67"/>
            <polygon class="cls-28" points="1664.65 549.61 1677.12 550.39 1677.12 534.64 1664.65 534.02 1664.65 549.61"/>
            <polygon class="cls-28" points="1664.65 527.01 1677.12 527.63 1677.12 510.8 1664.65 510.02 1664.65 527.01"/>
            <polygon class="cls-28" points="1664.65 572.05 1677.12 572.67 1677.12 557.09 1664.65 556.46 1664.65 572.05"/>
            <polygon class="cls-28" points="1684.45 511.11 1684.45 528.1 1696.91 528.72 1696.91 511.89 1684.45 511.11"/>
            <polygon class="cls-28" points="1684.45 572.98 1696.91 573.45 1696.91 558.02 1684.45 557.4 1684.45 572.98"/>
            <polygon class="cls-28" points="1643.61 592.31 1656.39 592.93 1656.39 577.19 1643.61 576.57 1643.61 592.31"/>
            <polygon class="cls-28" points="1664.65 593.25 1677.12 593.71 1677.12 578.13 1664.65 577.5 1664.65 593.25"/>
            <polygon class="cls-28" points="1683.82 594.03 1696.29 594.65 1696.29 579.06 1683.82 578.6 1683.82 594.03"/>
            <polygon class="cls-28" points="1684.45 550.7 1696.91 551.32 1696.91 535.74 1684.45 535.11 1684.45 550.7"/>
          </g>
          <polygon class="cls-20" points="1645.48 456.09 1643.3 453.6 1644.39 452.51 1655.92 438.95 1658.42 440.98 1645.48 456.09"/>
          <polygon class="cls-20" points="1653.43 457.34 1651.72 455.47 1652.81 454.53 1652.18 454.07 1657.48 447.83 1659.82 449.7 1653.43 457.34"/>
        </g>
        <g>
          <path class="cls-2" d="m1702.21,665.72c-21.2-1.09-42.7-2.03-63.9-2.65l-4.83-.16v83.85l4.52.16c21.35.47,42.86.94,63.74,1.56l4.68.16v-82.6l-4.21-.31Z"/>
          <polygon class="cls-16" points="1642.68 701.72 1642.68 709.98 1697.38 711.38 1697.38 702.97 1642.68 701.72"/>
          <rect class="cls-16" x="1668.43" y="694.14" width="3.12" height="52.06" transform="translate(900.85 2368.19) rotate(-88.31)"/>
        </g>
      </g>
    </g>
    <g>
      <g>
        <rect class="cls-2" x="1636.13" y="890.31" width="68.42" height="89.46"/>
        <polygon class="cls-2" points="1637.38 979.77 1630.68 982.57 1630.68 893.11 1637.38 890.31 1637.38 979.77"/>
        <rect class="cls-12" x="1641.9" y="894.51" width="53.15" height="2.34"/>
      </g>
      <rect class="cls-22" x="1643.3" y="903.09" width="50.65" height="12.62"/>
      <rect class="cls-22" x="1643.46" y="919.61" width="4.36" height="4.36"/>
      <rect class="cls-22" x="1659.51" y="919.61" width="4.36" height="4.36"/>
      <rect class="cls-12" x="1675.56" y="919.61" width="4.36" height="4.36"/>
      <rect class="cls-22" x="1691.46" y="919.61" width="4.36" height="4.36"/>
      <rect class="cls-12" x="1643.3" y="930.67" width="12.62" height="8.73"/>
      <rect class="cls-12" x="1663.09" y="930.2" width="13.87" height="9.66"/>
      <rect class="cls-22" x="1681.95" y="930.2" width="13.87" height="9.66"/>
      <path class="cls-2" d="m1670.42,972.6s-23.69-3.58-24.16-2.65c-.31.94-7.64,2.34-8.57,3.58s-1.56,1.71-1.56,2.18v.47l-5.45,6.23h73.88s-1.09-5.45,0-5.45c1.09,0-34.13-4.36-34.13-4.36"/>
      <g>
        <path class="cls-12" d="m1682.73,956.08c-.16.47-.31.78-.78,1.09-.62.31-1.25.31-1.87-.16-.47-.47-1.09-.94-1.56-1.4-2.03-1.56-4.36-2.65-6.86-2.96-3.43-.47-6.55,0-9.66,1.56-1.4.62-2.49,1.56-3.58,2.65-.16.16-.47.31-.62.47-.62.31-1.4,0-1.87-.62s-.31-1.4.31-2.03c1.87-1.87,4.05-3.27,6.55-4.21,1.71-.62,3.43-1.09,5.14-1.09,4.21-.31,8.1.78,11.53,2.96,1.09.62,2.03,1.4,2.81,2.34.16.16.31.47.47.78,0,.16,0,.47,0,.62Z"/>
        <path class="cls-12" d="m1669.17,955.3c3.74,0,6.86,1.4,9.51,3.9.94.94.62,2.34-.62,2.65-.47.16-.94,0-1.4-.31-.47-.31-.94-.78-1.4-1.09-1.4-1.09-2.96-1.71-4.68-1.87-2.49-.31-4.83.16-7.01,1.56-.62.31-1.09.78-1.56,1.25-.62.47-1.09.62-1.87.31-1.09-.47-1.25-1.71-.47-2.49.62-.62,1.25-1.09,2.03-1.71,1.87-1.25,3.9-2.03,6.08-2.18.62,0,.94,0,1.4,0Z"/>
        <path class="cls-12" d="m1669.02,961.06c1.56,0,2.96.31,4.21,1.09.62.31,1.25.78,1.71,1.25.78.62.78,1.56.16,2.34-.62.62-1.56.62-2.18.16s-1.25-.94-2.03-1.25c-1.87-.62-3.43-.31-4.99.94-.16.16-.31.16-.31.31-.62.62-1.71.47-2.18-.16-.62-.62-.47-1.56.16-2.18,1.4-1.25,2.96-2.03,4.83-2.34h.31c0-.16.16-.16.31-.16Z"/>
        <path class="cls-12" d="m1671.82,969.95c0,1.4-1.25,2.65-2.65,2.65-1.56,0-2.65-1.25-2.65-2.65,0-1.56,1.09-2.65,2.65-2.65s2.65,1.09,2.65,2.65Z"/>
      </g>
    </g>
    <g>
      <circle class="cls-4" cx="1669.17" cy="820.48" r="31.02"/>
      <circle class="cls-5" cx="1669.17" cy="820.48" r="24.94"/>
      <rect class="cls-4" x="1666.37" y="803.03" width="5.77" height="32.73"/>
    </g>
    <g>
      <g>
        <polygon class="cls-4" points="1640.34 1086.53 1640.34 1141.39 1698.16 1134.22 1698.16 1084.5 1640.34 1086.53"/>
        <path class="cls-18" d="m1635.66,1146.53v-64.37l67.02-2.34v58.45l-67.02,8.26Zm9.35-55.48v45.04l48.63-6.08v-40.83l-48.63,1.87Z"/>
      </g>
      <polygon class="cls-12" points="1669.8 1112.87 1642.21 1116.29 1642.21 1139.36 1690.99 1135 1669.8 1112.87"/>
    </g>
    <path class="cls-24" d="m1878.95,645.15l-1.87-5.45c-.62-1.87.31-3.74,2.18-4.36l8.42-2.81s4.05.16,4.36.62"/>
  </g>
</svg>