<?xml version="1.0" encoding="utf-8"?>
<!-- Generator: Adobe Illustrator 27.9.1, SVG Export Plug-In . SVG Version: 6.00 Build 0)  -->
<svg version="1.1" id="Layer_1" xmlns="http://www.w3.org/2000/svg" xmlns:xlink="http://www.w3.org/1999/xlink" x="0px" y="0px"
	 viewBox="0 0 801.8 714.6" style="enable-background:new 0 0 801.8 714.6;" xml:space="preserve">
<style type="text/css">
	.st0{fill:#0D0D0D;}
	.st1{fill:#CD2328;}
	.st2{fill:#8E192F;}
	.st3{fill:#B62225;}
	.st4{fill:#E93B48;}
	.st5{fill:#EC626C;}
	.st6{fill:#EA5661;}
	.st7{fill:#B31F36;}
	.st8{fill:#8B6271;}
	.st9{fill:#FFFFFF;}
	.st10{fill:#F8F6F1;}
	.st11{fill:#606161;}
	.st12{opacity:0.15;}
	.st13{fill:#6D1628;}
	.st14{fill:#F26866;}
	.st15{fill:#232121;}
	.st16{fill:#CFDCDC;}
	.st17{fill:#0E0E0E;}
	.st18{fill:#F4ECE5;}
	.st19{fill:#CB832A;}
	.st20{fill:#FFCD05;}
	.st21{fill:#911F36;}
	.st22{fill:#F9F8F2;}
	.st23{fill:none;}
	.st24{fill:#54121D;}
	.st25{fill:#4A77A8;}
	.st26{fill:#84827E;}
	.st27{fill:#6B6B6B;}
	.st28{fill:#65A042;}
	.st29{fill:#B8CACD;}
</style>
<g>
	<g>
		<g>
			<path class="st0" d="M640.5,365.7c-62,0-89.1-34.9-90.7-37.1l25.3-18.8l-0.1-0.2c2,2.5,49.3,60,178.3-10
				c7.6-4.2,17.2-1.3,21.4,6.3c4.2,7.6,1.3,17.2-6.3,21.4C715.1,356.1,673,365.7,640.5,365.7z"/>
		</g>
	</g>
	<g>
		<g>
			<g>
				<path class="st1" d="M726,212.2c-0.2,0.1-0.4,0.4-0.6,0.6c-0.4,0.1-0.9,0.3-1.3,0.4c0.4-0.1,0.9-0.3,1.3-0.4
					C725.6,212.6,725.8,212.3,726,212.2z"/>
			</g>
		</g>
		<g>
			<g>
				<path class="st1" d="M723,213.3c0.2-0.2,0.4-0.2,0.5-0.2C723.4,213.1,723.2,213.1,723,213.3c-0.7,0.3-1.5,0.5-2.2,0.8
					c-0.1,0-0.2,0.1-0.3,0.1c0.1,0,0.2-0.1,0.3-0.1C721.6,213.8,722.3,213.5,723,213.3z"/>
			</g>
		</g>
		<g>
			<g>
				<path class="st1" d="M737.7,223c-0.1-0.3-0.2-0.8-0.4-1.1c-1.1-2.9-1.7-5.9-3.1-8.7c1.4,2.7,2,5.8,3.1,8.7
					C737.5,222.2,737.5,222.6,737.7,223z"/>
			</g>
		</g>
		<g>
			<g>
				<path class="st1" d="M731.9,211.2c-0.6-0.2-1.2-0.3-1.9-0.2C730.7,210.9,731.3,211,731.9,211.2z"/>
			</g>
		</g>
		<g>
			<g>
				<path class="st1" d="M723.2,284.4c0.7-0.2,1.5-0.5,2.2-0.7c3.3-1.1,6.6-2.2,10-3.3c-3.3,1.1-6.6,2.2-10,3.3
					C724.7,283.9,723.9,284.1,723.2,284.4z"/>
			</g>
		</g>
		<g>
			<g>
				<path class="st1" d="M709,220.5c-0.1,0.2-0.1,0.4,0,0.6C708.9,220.9,708.9,220.7,709,220.5z"/>
			</g>
		</g>
		<g>
			<g>
				<path class="st1" d="M711.5,217.4c-0.1,0-0.2,0.1-0.2,0.1c-0.4,0.1-0.7,0.2-1,0.4c0.3-0.2,0.6-0.3,1-0.4
					C711.4,217.4,711.4,217.4,711.5,217.4z"/>
			</g>
		</g>
		<g>
			<g>
				<path class="st1" d="M709.1,220.4L709.1,220.4c0.1,0.2,0.1,0.4,0.2,0.6C709.2,220.8,709.1,220.6,709.1,220.4z"/>
			</g>
		</g>
		<g>
			<g>
				<path class="st1" d="M714.6,235.9c0,0.1,0.1,0.2,0.1,0.4l0,0C714.7,236.1,714.6,236,714.6,235.9L714.6,235.9z"/>
			</g>
		</g>
		<g>
			<g>
				<path class="st1" d="M726.7,212.3L726.7,212.3c1.2-0.8,2.4-1.2,3.4-1.3C729,211.1,727.9,211.5,726.7,212.3z"/>
			</g>
		</g>
		<g>
			<g>
				<path class="st1" d="M738.9,229.9c0.7,1.5,1.6,2.9,2.7,4.2C740.5,232.8,739.5,231.5,738.9,229.9z"/>
			</g>
		</g>
		<g>
			<g>
				<path class="st1" d="M709.3,219.4c0-0.1,0-0.1,0.1-0.2C709.3,219.3,709.3,219.4,709.3,219.4z"/>
			</g>
		</g>
		<g>
			<g>
				<path class="st1" d="M741.5,234.1c0.7,0.9,1.4,1.7,2.2,2.5C743,235.8,742.2,234.9,741.5,234.1z"/>
			</g>
		</g>
		<g>
			<g>
				<path class="st1" d="M714.7,254.9c0.1-1.9,0.3-3.9,0.4-5.8C715.1,251,714.9,252.9,714.7,254.9z"/>
			</g>
		</g>
		<g>
			<g>
				<path class="st1" d="M735.4,280.3c1.9-0.6,3.8-1.3,5.8-1.9c5.1-1.7,10.3-3.3,15.4-5c-5.1,1.7-10.3,3.3-15.4,5
					C739.2,279,737.3,279.7,735.4,280.3z"/>
			</g>
		</g>
		<g>
			<g>
				<path class="st1" d="M765.5,263.7c-0.2-0.5-0.4-0.9-0.7-1.4c-0.8-1.3-1.7-2.6-2.6-3.8c0.9,1.2,1.8,2.5,2.6,3.8
					C765.1,262.8,765.3,263.3,765.5,263.7z"/>
			</g>
		</g>
		<g>
			<g>
				<path class="st1" d="M740.6,225.8c0-0.1,0.1-0.2,0-0.4C740.6,225.6,740.6,225.7,740.6,225.8L740.6,225.8z"/>
			</g>
		</g>
		<g>
			<g>
				<path class="st1" d="M747.7,241.3c-0.6-0.7-1.2-1.5-1.8-2.2c-0.7-0.9-1.4-1.7-2.1-2.5c0.7,0.8,1.5,1.7,2.1,2.5
					C746.5,239.8,747.1,240.6,747.7,241.3z"/>
			</g>
		</g>
		<g>
			<g>
				<path class="st1" d="M740.6,225.5c0-0.1-0.1-0.3-0.1-0.4c-0.1-0.3-0.2-0.7-0.3-1c0.1,0.3,0.2,0.8,0.3,1
					C740.5,225.2,740.6,225.3,740.6,225.5z"/>
			</g>
		</g>
		<g>
			<g>
				<path class="st1" d="M767.5,270L767.5,270c0-0.1-0.1-0.3-0.1-0.4c-0.2-0.6-0.4-1.2-0.6-1.9c0.2,0.6,0.3,1.3,0.6,1.9
					C767.4,269.8,767.5,269.9,767.5,270z"/>
			</g>
		</g>
		<g>
			<g>
				<path class="st1" d="M753.2,247.9c2.1,2.3,4.2,4.6,6.2,7C757.4,252.5,755.3,250.2,753.2,247.9c-1.7-2.3-3.6-4.4-5.5-6.6
					C749.5,243.5,751.5,245.6,753.2,247.9z"/>
			</g>
		</g>
		<g>
			<g>
				<path class="st1" d="M714.7,236.3c0.3-0.1,0.5-0.2,0.8-0.3C715.3,236.1,715,236.2,714.7,236.3
					C714.8,236.3,714.7,236.3,714.7,236.3c0.3,1.2,1,2.3,0.9,3.6c-0.2,3.1-0.3,6.1-0.4,9.2c0.1-3.1,0.3-6.1,0.4-9.2
					C715.7,238.5,715,237.5,714.7,236.3z"/>
			</g>
		</g>
		<g>
			<g>
				<path class="st1" d="M767.9,271.7c0,0.2,0.1,0.5,0.1,0.7c-3.4,1.1-6.9,2.2-10.3,3.3c3.4-1.1,6.9-2.2,10.3-3.3
					C768,272.2,767.9,271.9,767.9,271.7z"/>
			</g>
		</g>
		<g>
			<g>
				<path class="st1" d="M767.6,270.3c0-0.1-0.1-0.2-0.1-0.3l0,0C767.6,270.1,767.6,270.2,767.6,270.3z"/>
			</g>
		</g>
		<g>
			<g>
				<path class="st1" d="M717.2,215.8L717.2,215.8c0.7,2.3,1.5,4.6,2.3,6.9C718.7,220.4,717.9,218.1,717.2,215.8z"/>
			</g>
		</g>
		<g>
			<g>
				<path class="st1" d="M717.2,215.8L717.2,215.8L717.2,215.8c0.7,2.3,1.5,4.6,2.3,6.9C718.7,220.4,717.9,218.1,717.2,215.8z"/>
			</g>
		</g>
		<g>
			<g>
				<path class="st1" d="M734.6,219.4c-1.8,0.6-3.6,1.2-5.4,1.8c0,0.1,0.1,0.1,0.1,0.2c0-0.1-0.1-0.1-0.1-0.2
					c2.3-0.7,4.5-1.5,6.8-2.2l0,0C735.6,219.1,735.1,219.3,734.6,219.4z"/>
			</g>
		</g>
		<g>
			<g>
				<path class="st1" d="M736,219c0,0.1,0.1,0.2,0.1,0.2c0.4,1.2,0.8,2.4,1.3,3.5C736.9,221.5,736.5,220.2,736,219z"/>
			</g>
		</g>
		<g>
			<g>
				<path class="st1" d="M735.9,218.6C735.9,218.6,735.9,218.5,735.9,218.6c-0.6-1.9-1.1-3.6-1.7-5.4
					C734.8,215,735.3,216.7,735.9,218.6C735.9,218.5,735.9,218.6,735.9,218.6z"/>
			</g>
		</g>
		<g>
			<g>
				<path class="st1" d="M725.9,232.6c1.1-0.4,2.1-0.7,3.2-1.1C728,231.9,727,232.3,725.9,232.6L725.9,232.6L725.9,232.6z"/>
			</g>
		</g>
		<g>
			<g>
				<path class="st1" d="M718.8,261.4c0,0.6,0,1.3-0.1,1.9c0.1-1.3,0.1-2.5,0.1-3.8l0,0C718.8,260.1,718.8,260.8,718.8,261.4z"/>
			</g>
		</g>
		<g>
			<g>
				<path class="st1" d="M718.8,259.5c0,0.6-0.1,1.3-0.1,1.9C718.8,260.8,718.8,260.1,718.8,259.5L718.8,259.5z"/>
			</g>
		</g>
		<g>
			<g>
				<path class="st1" d="M726.9,214.1c-0.2,0.1-0.4,0.1-0.6,0.2h0.1C726.5,214.2,726.7,214.2,726.9,214.1L726.9,214.1z"/>
			</g>
		</g>
		<g>
			<g>
				<path class="st1" d="M727.2,215c0,0.1,0.1,0.2,0.1,0.2c-0.1-0.2-0.2-0.4-0.2-0.6C727.1,214.7,727.1,214.9,727.2,215z"/>
			</g>
		</g>
		<g>
			<g>
				<path class="st1" d="M726.4,214.3c0.2,0,0.3-0.1,0.5-0.1l0,0C726.7,214.2,726.6,214.2,726.4,214.3z"/>
			</g>
		</g>
		<g>
			<g>
				<path class="st1" d="M725,216c-0.3-0.6-0.6-1.1-0.9-1.7c-0.1-0.2-0.1-0.4-0.2-0.6c0.1,0.2,0.1,0.4,0.2,0.6
					C724.4,214.8,724.7,215.4,725,216z"/>
			</g>
		</g>
		<g>
			<g>
				<path class="st2" d="M749.9,278.7c-2.6,0.9-5.2,1.7-7.8,2.6c2.9,8.6,5.7,17.3,8.6,25.9c-2.9-8.6-5.7-17.3-8.6-25.9
					C744.7,280.5,747.3,279.6,749.9,278.7z"/>
			</g>
		</g>
		<g>
			<g>
				<path class="st2" d="M750.7,307.3c5.1-1.7,10.3-3.3,15.4-5l0,0C761,303.9,755.9,305.6,750.7,307.3z"/>
			</g>
		</g>
		<g>
			<g>
				<path class="st2" d="M766.4,302c-2.4-5.2-4.4-10.7-6.1-16.2c-0.8-2.6-1.4-5.2-2.1-7.8c-0.6,0.2-1.2,0.1-1.7-0.2
					c-0.4-0.2-0.7-0.6-1-1c-1.9,0.6-3.7,1.2-5.6,1.9c-2.6,0.9-5.2,1.7-7.8,2.6c2.9,8.6,5.7,17.3,8.6,25.9c5.1-1.7,10.3-3.3,15.4-5
					l0,0l0,0C766.2,302.2,766.3,302.1,766.4,302z"/>
			</g>
		</g>
		<g>
			<g>
				<path class="st2" d="M742.1,281.3c2.9,8.6,5.7,17.3,8.6,25.9C747.9,298.6,745,290,742.1,281.3L742.1,281.3z"/>
			</g>
		</g>
		<g>
			<g>
				<path class="st2" d="M755.5,276.9c0.2,0.4,0.5,0.8,1,1c0.5,0.3,1.1,0.3,1.7,0.2c-0.2-0.6-0.3-1.3-0.5-1.9
					C757,276.4,756.3,276.6,755.5,276.9z"/>
			</g>
		</g>
		<g>
			<g>
				<path class="st3" d="M769.1,276.3c-0.2-0.5-0.3-1-0.5-1.6l0,0C768.8,275.3,769,275.8,769.1,276.3z"/>
			</g>
		</g>
		<g>
			<g>
				<path class="st3" d="M758.4,278L758.4,278c0.5,2.6,1.2,5.2,2,7.8c1.7,5.5,3.7,10.9,6.1,16.2c3.1-1,6.3-2.1,9.4-3
					c1.2-0.4,0.6-1,0.5-1.6c-1.3-2.8-2.5-5.7-3.6-8.6s-2-5.8-2.7-8.9c-0.3-1.2-0.6-2.4-1-3.7c-0.2-0.5-0.3-1-0.5-1.6
					C767.6,275.1,758.4,278,758.4,278z"/>
			</g>
		</g>
		<g>
			<g>
				<path class="st3" d="M768,272.7L768,272.7c0.2,0.7,0.4,1.4,0.6,2.1l0,0C768.4,274,768.2,273.4,768,272.7L768,272.7z"/>
			</g>
		</g>
		<g>
			<g>
				<path class="st3" d="M758.2,278.1L758.2,278.1c0.1,0,9.4-3,10.4-3.3c-0.2-0.7-0.4-1.4-0.6-2.1l0,0c-3.4,1.2-6.8,2.3-10.3,3.5
					C757.9,276.8,758.1,277.4,758.2,278.1z"/>
			</g>
		</g>
		<g>
			<g>
				<path class="st4" d="M745,309.2c1.9-0.6,3.8-1.3,5.8-1.9C748.8,307.9,746.9,308.5,745,309.2L745,309.2z"/>
			</g>
		</g>
		<g>
			<g>
				<path class="st4" d="M742.1,281.3c-1.5,0.5-3,1-4.5,1.5c-1.1,0.3-1.2,0.8-0.9,1.8c0.6,2.1,1.7,4,2.4,6.1
					c2.2,6.1,3.9,12.3,5.8,18.5c1.9-0.6,3.8-1.3,5.8-1.9C747.9,298.6,745,290,742.1,281.3L742.1,281.3z"/>
			</g>
		</g>
		<g>
			<g>
				<path class="st4" d="M728.5,291.8c-0.3-0.9-0.6-1.8-0.9-2.7c-1.1-2.5-1.1-2.5-3.7-1.7c-0.6,0.2-1.3,0.4-1.9,0.7
					c1.8,3.9,3.3,8,4.7,12c1.6,4.5,2.7,9.2,3.9,13.9c1.5-0.5,3-1,4.5-1.5c-0.5-2-1.1-4-1.6-6C732.1,301.5,730.1,296.7,728.5,291.8z"
					/>
			</g>
		</g>
		<g>
			<g>
				<path class="st4" d="M721.9,288.1L721.9,288.1c0.6-0.2,1.3-0.4,1.9-0.7C723.2,287.6,722.5,287.9,721.9,288.1z"/>
			</g>
		</g>
		<g>
			<g>
				<path class="st1" d="M726.9,214.1L726.9,214.1c0.1,0.2,0.1,0.3,0.2,0.5C727,214.4,726.9,214.3,726.9,214.1z"/>
			</g>
		</g>
		<g>
			<g>
				<path class="st1" d="M734.2,213.2c-0.7-1-1.4-1.7-2.3-2C732.8,211.5,733.5,212.2,734.2,213.2z"/>
			</g>
		</g>
		<g>
			<g>
				<path class="st1" d="M726.7,212.3c0,0.1,0,0.1,0,0.2c0.1,0.3,0.2,0.5,0.3,0.8s0.1,0.5-0.1,0.8l0,0l0,0c0.1,0.2,0.1,0.3,0.2,0.5
					c0.1,0.2,0.2,0.4,0.2,0.6c0,0,0,0.1,0.1,0.1c0.3,0.4,0.6,0.8,0.8,1.2c0.6,1.3,0.8,2.8,1.4,4.1c2.1-0.7,4.3-1.5,6.4-2.2
					c-0.6-1.8-1.1-3.6-1.7-5.3c-0.7-1-1.4-1.7-2.3-2c-0.6-0.2-1.2-0.3-1.9-0.2C729,211.1,727.9,211.5,726.7,212.3L726.7,212.3
					L726.7,212.3z M727,213.3L727,213.3L727,213.3z"/>
			</g>
		</g>
		<g>
			<g>
				<path class="st1" d="M718,214.9c0.8-0.3,1.7-0.5,2.5-0.8C719.6,214.4,718.8,214.7,718,214.9L718,214.9L718,214.9z"/>
			</g>
		</g>
		<g>
			<g>
				<path class="st1" d="M718,214.9c-0.2,0.3-0.4,0.5-0.5,0.8c0.4,1,0.7,2.1,1.1,3.1c0.4,1.1,0.7,2.2,1,3.2c0.4,1.5,1.1,1.7,2.4,1.1
					c0.6-0.3,1.2-0.4,1.7-0.6c-0.9-2.9-1.9-5.7-2.8-8.6c-0.1,0-0.2,0.1-0.3,0.1C719.6,214.4,718.8,214.7,718,214.9L718,214.9z
					 M719.1,220.5c-0.2-0.5-0.4-1.1-0.5-1.6C718.7,219.4,718.9,220,719.1,220.5z"/>
			</g>
		</g>
		<g>
			<g>
				<path class="st5" d="M718,214.9c-1.7,0.6-3.4,1.1-5.1,1.7C714.5,216.1,716.2,215.5,718,214.9L718,214.9z"/>
			</g>
		</g>
		<g>
			<g>
				<path class="st5" d="M711.5,218.1c0.7,2.2,1.4,4.3,2.2,6.5c0.2,0.7,0.4,1.3-0.6,1.5l0,0c0,0.2,0.1,0.3,0.1,0.5
					c0.1,0.1,0.1,0.1,0.2,0.2c1-0.3,2-0.7,3-1c0.7-0.2,1.4-0.5,2.1-0.7c0-0.2,0-0.5,0-0.7c-0.8-1.4-1.3-2.8-1.7-4.3
					c-0.1-0.5-0.2-1-0.4-1.5c-0.2-1-0.1-2,0.8-2.7l0,0l0,0l0,0l0,0l0,0c0.1,0,0.2-0.1,0.2-0.1l0,0c0.2-0.3,0.4-0.5,0.5-0.8
					c-1.7,0.6-3.4,1.1-5.1,1.7c1.1,0,1.7,0.3,1.9,1.5c0.5,1.9,1.2,3.7,1.8,5.6c0.2,0.7,0.2,1.2-0.6,1.4c-0.8,0.3-1.1-0.1-1.3-0.8
					c-0.6-2-1.3-3.9-2-5.9c-0.2-0.6-0.2-1.3-1.1-1.1c-0.1,0-0.2,0.1-0.2,0.1C711.4,217.7,711.4,217.9,711.5,218.1z"/>
			</g>
		</g>
		<g>
			<g>
				<path class="st5" d="M718.4,225.1c-0.7,0.2-1.4,0.5-2.1,0.7C717,225.5,717.7,225.3,718.4,225.1L718.4,225.1z"/>
			</g>
		</g>
		<g>
			<g>
				<path class="st5" d="M718,214.9L718,214.9c-0.2,0.3-0.4,0.5-0.5,0.8l0,0l0,0C717.6,215.5,717.8,215.2,718,214.9z"/>
			</g>
		</g>
		<g>
			<g>
				<path class="st1" d="M725.1,220.1c-0.8-2.2-1.9-4.4-2-6.9c-0.7,0.3-1.5,0.5-2.2,0.8c0.9,2.9,1.9,5.7,2.8,8.6
					C725.3,222.4,725.6,221.7,725.1,220.1z"/>
			</g>
		</g>
		<g>
			<g>
				<path class="st6" d="M712.4,216.7c-0.4,0.1-0.8,0.1-0.9,0.6C711.7,216.9,712,216.8,712.4,216.7z"/>
			</g>
		</g>
		<g>
			<g>
				<path class="st6" d="M712.7,218.5c0.7,2,1.3,3.9,2,5.9c0.2,0.7,0.5,1,1.3,0.8c0.8-0.3,0.8-0.8,0.6-1.4c-0.6-1.9-1.3-3.7-1.8-5.6
					c-0.3-1.1-0.9-1.5-1.9-1.5c-0.1,0-0.2,0.1-0.4,0.1c-0.4,0.1-0.8,0.1-0.9,0.6C712.5,217.2,712.5,217.9,712.7,218.5z"/>
			</g>
		</g>
		<g>
			<g>
				<path class="st4" d="M736,219c-2.3,0.7-4.5,1.5-6.8,2.2c1.8-0.6,3.6-1.2,5.4-1.8C735.1,219.3,735.6,219.1,736,219z"/>
			</g>
		</g>
		<g>
			<g>
				<path class="st4" d="M736,219c0-0.1-0.1-0.2-0.1-0.4C735.9,218.7,736,218.8,736,219L736,219L736,219z"/>
			</g>
		</g>
		<g>
			<g>
				<path class="st4" d="M723.6,213.1c0.1,0,0.2,0,0.3,0.1C723.8,213.2,723.7,213.1,723.6,213.1z"/>
			</g>
		</g>
		<g>
			<g>
				<path class="st4" d="M726.9,214.1c0.1,0.4,0.3,0.7,0.4,1.1c0-0.1,0-0.1-0.1-0.2C727.1,214.7,727,214.4,726.9,214.1L726.9,214.1z
					"/>
			</g>
		</g>
		<g>
			<g>
				<path class="st4" d="M736,219L736,219c-0.5,0.2-0.9,0.3-1.4,0.5C735.1,219.3,735.6,219.1,736,219z"/>
			</g>
		</g>
		<g>
			<g>
				<path class="st4" d="M725.1,220.1c0.5,1.6,0.3,2.3-1.4,2.5c-0.6,0.2-1.2,0.4-1.7,0.6c-1.3,0.6-2,0.4-2.4-1.1
					c-0.3-1.1-0.7-2.2-1-3.2c-0.4-1-0.7-2.1-1.1-3.1c-0.1,0-0.2,0.1-0.2,0.1c0.7,2.3,1.5,4.6,2.3,6.9c0.2,0.7,0.4,1.3-0.6,1.5
					c0.7,0.4,1.3-0.1,1.9-0.3c2.8-0.9,5.7-1.8,8.5-2.8c2.3-0.7,4.5-1.5,6.8-2.2c0-0.1-0.1-0.2-0.1-0.4v-0.1
					c-2.1,0.7-4.3,1.5-6.4,2.2c-1.3-1.5-1.4-3.6-2.1-5.3l0,0c0,0,0-0.1-0.1-0.1c0-0.1-0.1-0.2-0.1-0.2c0,0.1,0,0.1,0.1,0.2
					c-0.1-0.4-0.3-0.7-0.4-1.1c-0.2,0-0.3,0.1-0.5,0.1h-0.1h0.1h-0.1l0,0c0.3,0.8,0.5,1.6,0.8,2.5c0.3,0.8,0.5,1.6,0.9,2.4
					c0.2,0.6,0.3,1,0.3,1.4c0,0.2-0.2,0.4-0.3,0.6c-0.3,0.2-0.7,0.4-1.3,0.4c-0.2,0.1-0.4,0.1-0.6,0c-0.1-0.1-0.2-0.2-0.3-0.5
					c-0.7-2.2-1.4-4.4-2.2-6.5c-0.1-0.4,0-0.8,0.4-1c0.1-0.1,0.2-0.3,0.2-0.4c-0.1,0-0.2,0-0.3-0.1c-0.1,0-0.2-0.1-0.3-0.1
					c-0.2,0-0.4,0-0.5,0.2C723.2,215.7,724.3,217.9,725.1,220.1z"/>
			</g>
		</g>
		<g>
			<g>
				<path class="st4" d="M727.3,215.2c0,0,0,0.1,0.1,0.1l0,0l0,0C727.3,215.3,727.3,215.3,727.3,215.2z"/>
			</g>
		</g>
		<g>
			<g>
				<path class="st4" d="M717.4,215.7L717.4,215.7c0.4,1,0.7,2.1,1.1,3.1C718.2,217.8,717.8,216.8,717.4,215.7z"/>
			</g>
		</g>
		<g>
			<g>
				<path class="st4" d="M717.2,215.8L717.2,215.8c0.1,0,0.2-0.1,0.2-0.1C717.3,215.8,717.3,215.8,717.2,215.8z"/>
			</g>
		</g>
		<g>
			<g>
				<path class="st7" d="M709.3,219.3c0.1-0.4,0.3-0.8,0.6-1.1C709.6,218.5,709.4,218.9,709.3,219.3z"/>
			</g>
		</g>
		<g>
			<g>
				<path class="st7" d="M709.6,221.5c-0.1-0.2-0.2-0.3-0.4-0.4l0,0C709.4,221.2,709.5,221.3,709.6,221.5z"/>
			</g>
		</g>
		<g>
			<g>
				<path class="st7" d="M709.3,221c-0.1-0.2-0.1-0.4-0.2-0.6c0-0.3,0.1-0.6,0.2-0.9c-0.1,0.3-0.1,0.6-0.2,0.9l0,0l0,0
					C709.1,220.6,709.2,220.8,709.3,221z"/>
			</g>
		</g>
		<g>
			<g>
				<path class="st7" d="M709.3,221L709.3,221c0.1,0.1,0.3,0.3,0.4,0.4c0.1,0.1,0.1,0.2,0.2,0.3c0.1,0.2,0.2,0.3,0.3,0.5
					c0,0.1,0.1,0.1,0.1,0.2c0-0.1-0.1-0.1-0.1-0.2c0.4,0.9,0.6,2,0.9,3c0.4,1.2,1,1.5,2,0.9l0,0l0,0c-0.5-1.6-1-3.2-1.6-4.8
					c-0.4-1.1-0.5-2.2,0-3.2c-0.1-0.2-0.1-0.4-0.2-0.6c-0.4,0.1-0.7,0.2-1,0.4c-0.1,0.1-0.3,0.2-0.4,0.3c-0.3,0.3-0.5,0.7-0.6,1.1
					c0,0.1,0,0.1-0.1,0.2c-0.1,0.3-0.1,0.6-0.2,0.9C709.1,220.6,709.2,220.8,709.3,221z"/>
			</g>
		</g>
		<g>
			<g>
				<path class="st7" d="M709.1,220.4L709.1,220.4c0.1,0.2,0.1,0.4,0.2,0.6C709.2,220.8,709.1,220.6,709.1,220.4z"/>
			</g>
		</g>
		<g>
			<g>
				<path class="st7" d="M709.3,221c0.2,0.2,0.4,0.5,0.5,0.7c-0.1-0.1-0.1-0.2-0.2-0.3C709.5,221.3,709.4,221.2,709.3,221L709.3,221
					z"/>
			</g>
		</g>
		<g>
			<g>
				<path class="st1" d="M724.1,214.3c0.3,0.5,0.6,1.1,0.9,1.7c0.3,0.8,0.6,1.5,0.8,2.3c-0.1-0.2-0.1-0.4-0.2-0.6
					c0.1,0.2,0.1,0.4,0.2,0.6c0.1,0.2,0.1,0.4,0.2,0.6c0.1,0.2,0.1,0.4,0.2,0.6c0-0.2-0.1-0.4-0.2-0.6c0.2,0.8,0.4,1.6,0.5,2.5
					c0,0.1,0.1,0.2,0.1,0.3c0.6-0.1,1-0.2,1.3-0.4c0.2-0.2,0.3-0.4,0.3-0.6c0.1-0.4,0-0.8-0.3-1.4c-0.3-0.8-0.6-1.6-0.9-2.4
					c-0.3-0.8-0.5-1.6-0.8-2.5c-0.1-0.2-0.1-0.4-0.2-0.7c-0.2-0.3-0.4-0.5-0.6-0.8c-0.4,0.1-0.9,0.3-1.3,0.4
					c-0.1,0.1-0.2,0.3-0.2,0.4C724,213.9,724,214.1,724.1,214.3z M727.5,218c-0.1-0.4-0.3-0.8-0.4-1.2
					C727.2,217.2,727.3,217.6,727.5,218z"/>
			</g>
		</g>
		<g>
			<g>
				<path class="st1" d="M726.6,221.6c0.6-0.1,1-0.2,1.3-0.4C727.6,221.4,727.2,221.6,726.6,221.6L726.6,221.6z"/>
			</g>
		</g>
		<g>
			<g>
				<path class="st1" d="M728.2,220.6c0,0.2-0.2,0.4-0.3,0.6C728.1,221,728.2,220.8,728.2,220.6z"/>
			</g>
		</g>
		<g>
			<g>
				<path class="st1" d="M727,216.8c-0.3-0.8-0.5-1.6-0.8-2.5l0,0l0,0C726.5,215.1,726.8,215.9,727,216.8z"/>
			</g>
		</g>
		<g>
			<g>
				<path class="st8" d="M738.3,228.3L738.3,228.3c0-0.1-0.1-0.2-0.1-0.2l0,0C738.2,228.1,738.3,228.2,738.3,228.3z"/>
			</g>
		</g>
		<g>
			<g>
				<path class="st8" d="M767.3,304.7c-1.4,0.4-2.7,0.9-4.1,1.3C764.6,305.5,766,305.1,767.3,304.7L767.3,304.7z"/>
			</g>
		</g>
		<g>
			<g>
				<path class="st8" d="M751,310.2L751,310.2c2.7-1,5.4-2,8.1-2.9C756.4,308.2,753.6,309.1,751,310.2z"/>
			</g>
		</g>
		<g>
			<g>
				<path class="st8" d="M767.4,304.9L767.4,304.9L767.4,304.9c0-0.1,0-0.2,0-0.2c-1.4,0.4-2.7,0.9-4.1,1.3
					c-1.4,0.4-2.7,0.9-4.1,1.3c-2.7,0.9-5.5,1.8-8.1,2.9c0.2,0,0.5,0,0.7,0C756.9,308.4,762.1,306.7,767.4,304.9z"/>
			</g>
		</g>
		<g>
			<g>
				<path class="st8" d="M751.7,310.2c5.2-1.7,10.5-3.5,15.7-5.2l0,0C762.1,306.7,756.9,308.4,751.7,310.2z"/>
			</g>
		</g>
		<g>
			<g>
				<path class="st2" d="M709.1,221.9c0-0.3-0.1-0.5-0.1-0.8C709,221.4,709.1,221.6,709.1,221.9L709.1,221.9L709.1,221.9z"/>
			</g>
		</g>
		<g>
			<g>
				<path class="st2" d="M711.2,227.1L711.2,227.1c-0.6-2-1.3-4.1-1.9-6.1C709.9,223.1,710.6,225.1,711.2,227.1z"/>
			</g>
		</g>
		<g>
			<g>
				<path class="st2" d="M711.1,227.2L711.1,227.2C711,227.2,711,227.2,711.1,227.2c-0.7-1.8-1.3-3.5-2-5.3
					C709.7,223.6,710.4,225.4,711.1,227.2C711,227.2,711,227.2,711.1,227.2z"/>
			</g>
		</g>
		<g>
			<g>
				<path class="st2" d="M711,227.2L711,227.2C711.1,227.2,711.1,227.2,711,227.2c0.1,0,0.2,0,0.2-0.1l0,0l0,0
					c-0.6-2-1.3-4.1-1.9-6.1c-0.1,0-0.2,0.1-0.3,0.1c0,0.3,0.1,0.5,0.1,0.8C709.7,223.6,710.4,225.4,711,227.2z"/>
			</g>
		</g>
		<g>
			<g>
				<path class="st2" d="M709.1,221.9L709.1,221.9c0.6,1.8,1.3,3.5,1.9,5.3l0,0C710.4,225.4,709.7,223.6,709.1,221.9z"/>
			</g>
		</g>
		<g>
			<g>
				<path class="st4" d="M726.6,212.3c-0.2-0.1-0.4-0.1-0.6-0.1C726.2,212.1,726.3,212.1,726.6,212.3z"/>
			</g>
		</g>
		<g>
			<g>
				<path class="st4" d="M725.4,212.8c0.2,0.3,0.4,0.5,0.6,0.8c0.7-0.1,0.2-0.9,0.7-1.2c0-0.1,0-0.1,0-0.2h-0.1
					c-0.2-0.1-0.4-0.1-0.6-0.1C725.8,212.3,725.6,212.6,725.4,212.8z"/>
			</g>
		</g>
		<g>
			<g>
				<path class="st4" d="M709.1,220.4c0,0,0,0.1-0.1,0.1C709,220.5,709,220.4,709.1,220.4L709.1,220.4z"/>
			</g>
		</g>
		<g>
			<g>
				<path class="st4" d="M709.3,221L709.3,221c-0.1-0.2-0.1-0.4-0.2-0.6c0,0,0,0.1-0.1,0.1c-0.1,0.2-0.1,0.4,0,0.6
					C709.1,221.1,709.2,221.1,709.3,221L709.3,221z"/>
			</g>
		</g>
		<g>
			<g>
				<path class="st1" d="M736.7,220.9c-0.2-0.5-0.4-1.1-0.6-1.6c0-0.1-0.1-0.2-0.1-0.2l0,0C736.3,219.6,736.5,220.2,736.7,220.9z"/>
			</g>
		</g>
		<g>
			<g>
				<path class="st1" d="M737.4,222.8c-0.5-1.2-0.9-2.4-1.3-3.5c0.2,0.5,0.4,1.1,0.6,1.6c-0.2-0.6-0.4-1.3-0.7-1.9
					c-2.3,0.7-4.5,1.5-6.8,2.2c0,0.1,0.1,0.1,0.1,0.2c0.6,1,1,2,1.4,3.1s0,1.5-1,1.8c-3.2,1-6.4,2.1-9.5,3.2l0,0l17.2-5.7
					C737.6,223.5,737.6,223.2,737.4,222.8z"/>
			</g>
		</g>
		<g>
			<g>
				<path class="st6" d="M720.3,229.5C720.2,229.5,720.2,229.5,720.3,229.5c-1.1-1.3-1.1-3-1.8-4.4c-0.7,0.2-1.4,0.5-2.1,0.7
					c-1,0.3-2,0.7-3,1c1-0.3,2-0.7,3-1c-1,0.3-2,0.7-3,1c0.3,1.6,1.3,3,1.2,4.6L720.3,229.5z"/>
			</g>
		</g>
		<g>
			<g>
				<path class="st7" d="M713.3,226.8c-0.1-0.1-0.1-0.1-0.2-0.2c-0.6,0.2-1.3,0.4-1.9,0.6l0,0l0,0c-0.1,0-0.1,0-0.2,0l0,0l0,0l0,0
					c0,1.1,0.6,2.1,0.9,3.2c0.3,1,0.5,1.4,0.8,1.6l1.9-0.6C714.6,229.7,713.6,228.3,713.3,226.8z"/>
			</g>
		</g>
		<g>
			<g>
				<path class="st7" d="M711.2,227.1L711.2,227.1C711.1,227.1,711.1,227.1,711.2,227.1L711.2,227.1
					C711.1,227.2,711.1,227.1,711.2,227.1z"/>
			</g>
		</g>
		<g>
			<g>
				<path class="st7" d="M727.3,215.4c0.8,1.8,0.8,3.8,2.1,5.3c-0.6-1.3-0.8-2.8-1.4-4.1C727.9,216.2,727.6,215.7,727.3,215.4z"/>
			</g>
		</g>
		<g>
			<g>
				<path class="st7" d="M727.3,215.4L727.3,215.4c0.3,0.4,0.6,0.8,0.8,1.2C727.9,216.2,727.6,215.7,727.3,215.4z"/>
			</g>
		</g>
		<g>
			<g>
				<path class="st7" d="M727,213.3c-0.1-0.3-0.2-0.5-0.3-0.8l0,0c-0.4,0.3,0,1-0.7,1.2c0.1,0.2,0.1,0.4,0.2,0.7
					c0.2-0.1,0.4-0.1,0.6-0.2C727.1,213.8,727.1,213.5,727,213.3z"/>
			</g>
		</g>
		<g>
			<g>
				<path class="st7" d="M727,213.3c-0.1-0.3-0.2-0.5-0.3-0.8l0,0l0,0C726.8,212.7,726.9,213,727,213.3z"/>
			</g>
		</g>
		<g>
			<g>
				<path class="st7" d="M726.3,214.3L726.3,214.3c-0.1-0.2-0.1-0.4-0.2-0.7C726.1,213.9,726.2,214.1,726.3,214.3z"/>
			</g>
		</g>
		<g>
			<g>
				<path class="st1" d="M718.4,224.4c0,0.2,0,0.5,0,0.7l0,0l0,0l0,0c0.7,1.4,0.7,3.1,1.8,4.4c3.2-1.1,6.3-2.1,9.5-3.2
					c1-0.3,1.4-0.7,1-1.8s-0.8-2.1-1.4-3.1c0-0.1-0.1-0.1-0.1-0.2l0,0l0,0c-2.8,0.9-5.7,1.9-8.5,2.8c-0.6,0.2-1.2,0.7-1.9,0.3
					C718.7,224.3,718.6,224.3,718.4,224.4L718.4,224.4z"/>
			</g>
		</g>
		<g>
			<g>
				<path class="st1" d="M729.4,221.4c0.6,1,1,2,1.4,3.1C730.4,223.4,729.9,222.4,729.4,221.4z"/>
			</g>
		</g>
		<g>
			<g>
				<path class="st1" d="M718.8,224.2c1-0.2,0.8-0.8,0.6-1.5c-0.8-2.3-1.5-4.6-2.3-6.9c-0.9,0.7-1,1.8-0.8,2.7
					c0.1,0.5,0.2,1,0.4,1.5c0.4,1.5,0.9,2.9,1.7,4.3C718.6,224.3,718.7,224.3,718.8,224.2z"/>
			</g>
		</g>
		<g>
			<g>
				<path class="st1" d="M716.8,220.1c0.4,1.5,0.9,2.9,1.7,4.3l0,0C717.7,223,717.2,221.6,716.8,220.1z"/>
			</g>
		</g>
		<g>
			<g>
				<path class="st6" d="M713.7,224.6c-0.7-2.2-1.5-4.3-2.2-6.5c-0.5,1.1-0.4,2.1,0,3.2c0.6,1.6,1.1,3.2,1.6,4.8
					C714,225.9,713.9,225.3,713.7,224.6z"/>
			</g>
		</g>
		<g>
			<g>
				<path class="st4" d="M709.8,221.8c0.1,0.2,0.2,0.3,0.3,0.5C710,222.1,709.9,221.9,709.8,221.8z"/>
			</g>
		</g>
		<g>
			<g>
				<path class="st4" d="M713.1,226.6c0-0.2-0.1-0.3-0.1-0.5c-1.1,0.6-1.6,0.3-2-0.9c-0.3-1-0.5-2-0.9-3c-0.1-0.2-0.2-0.3-0.3-0.5
					c-0.2-0.3-0.3-0.5-0.5-0.7l0,0c0.6,2,1.3,4.1,1.9,6.1C711.8,226.9,712.5,226.8,713.1,226.6z"/>
			</g>
		</g>
		<g>
			<g>
				<path class="st4" d="M713,226.1L713,226.1c0,0.2,0.1,0.3,0.1,0.5C713.1,226.4,713.1,226.3,713,226.1z"/>
			</g>
		</g>
		<g>
			<g>
				<path class="st1" d="M726.6,221.6c0-0.1-0.1-0.2-0.1-0.3c-0.8-2.3-1.6-4.7-2.3-7c-0.1-0.2-0.1-0.4-0.2-0.6
					c-0.4,0.2-0.5,0.5-0.4,1c0.7,2.2,1.4,4.4,2.2,6.5c0.1,0.2,0.2,0.4,0.3,0.5C726.1,221.7,726.3,221.7,726.6,221.6z"/>
			</g>
		</g>
		<g>
			<g>
				<path class="st1" d="M726,221.6c0.1,0.1,0.3,0.1,0.6,0l0,0C726.3,221.7,726.1,221.7,726,221.6z"/>
			</g>
		</g>
		<g>
			<g>
				<path class="st1" d="M725.8,218.3c0.1,0.2,0.1,0.4,0.2,0.6C726,218.7,725.9,218.5,725.8,218.3z"/>
			</g>
		</g>
		<g>
			<g>
				<path class="st1" d="M726.5,221.3c-0.1-0.8-0.3-1.7-0.5-2.5c-0.1-0.2-0.1-0.4-0.2-0.6c-0.2-0.8-0.5-1.6-0.8-2.3
					c-0.3-0.6-0.6-1.1-0.9-1.7C724.9,216.6,725.7,219,726.5,221.3z"/>
			</g>
		</g>
		<g>
			<g>
				<g>
					<path d="M795.6,351.9l-0.3-0.6c-3.6-6.2-7-12-8.9-18.6c-1.8-5.8-2.6-12.1-3.4-18.2c-0.1-1-0.2-2-0.4-3.1
						c-0.4-3.7-0.8-7.6-2.5-11.3c-0.1-0.3-0.2-0.6-0.3-1c-0.2-0.9-0.5-2-1.3-3.1c-2.3-5.2-4.6-10.8-6-16.7c-0.4-1.8-0.9-3.5-1.4-5.2
						c-0.2-0.6-0.4-1.3-0.6-1.9c0-0.1-0.1-0.2-0.1-0.3l0,0c-0.1-1-0.2-2.1-0.7-3.2c-0.2-0.7-0.4-1.4-0.6-2.1c-0.5-1.9-1-3.9-2.2-5.6
						c-3.6-5.7-8-10.6-11.9-14.7c-1.3-1.8-2.8-3.5-4.2-5.2c-1.1-1.2-2.1-2.4-3-3.6c-0.8-1-1.7-2-2.5-2.9c-1.7-1.9-3.4-3.8-4.3-6.1
						c0.9-0.4,1.5-1,1.9-1.9c0.3-0.8,0.3-1.8-0.1-2.6c0-0.1,0-0.1-0.1-0.2c-0.1-0.6-0.4-1.8-1.6-2.5c-0.4-0.2-0.9-0.4-1.5-0.4v-0.1
						c-0.4-1-0.7-2.1-1.1-3.2c-0.6-1.9-1.2-3.8-2.2-5.7c-0.1-0.1-0.1-0.2-0.2-0.3c-2-2.9-4.9-3.9-8.1-2.8c-0.6,0.2-1.2,0.4-1.8,0.8
						c-0.4,0-0.8,0.1-1,0.1c-0.6,0.2-1,0.5-1.3,0.9c-0.4-0.1-0.9-0.1-1.5,0.1c-0.2,0.1-0.4,0.2-0.6,0.3l-1.8,0.6l-2.9,0.9l-5.1,1.7
						c-0.3,0-0.5,0.1-0.8,0.2c-0.5,0.2-1,0.5-1.4,0.9c-1.7,0.6-2.8,2-3.2,4.2c-0.3,0.7-0.3,1.5-0.1,2.2l0,0c-0.1,1,0.2,1.8,0.4,2.2
						c0,0.1,0.1,0.1,0.1,0.2c0.5,1.6,1,3.2,1.6,4.8l0.7,2.1c-0.4,0.4-0.7,0.7-0.8,1.1c-0.6,1.3-0.2,2.4,0.1,3.1
						c0,0.1,0.1,0.2,0.1,0.2c0.4,1.3,1.2,1.9,1.7,2.2s1.3,0.5,2.3,0.3c0,0.1,0.1,0.2,0.1,0.4c0.2,0.5,0.4,1,0.3,1.3
						c-0.2,3.1-0.3,6.2-0.4,9.2c-0.1,1.3-0.2,2.6-0.3,3.9c-0.2,2.5-0.4,5.1-0.3,7.8c-0.5,3.1-0.6,6.3-0.7,9.3c0,1.1-0.1,2.1-0.1,3.2
						c-0.2,3.4-0.2,6.8,1.1,10.2l0.1,0.3c0.7,1.9,1.4,3.8,2.8,4.6c-0.1,0.2-0.2,0.4-0.2,0.6c-0.1,0.5-0.1,0.9,0.1,1.4l0.2,0.6
						c0.2,0.5,0.3,1,0.5,1.5c2.7,6.5,5.5,13.5,7,21.1c0.3,1.4,0.6,2.8,1.7,3.6c-0.3,0.6-0.4,1.2-0.3,1.8c0,0.1,0.1,0.2,0.1,0.4
						c0.2,0.5,0.3,0.9,0.4,1.4c0.4,1.2,0.7,2.5,1.4,3.7c2.3,4.4,4.8,8.7,7.1,12.7c4.9,8.4,7.8,17.7,8.7,27.5
						c0.6,6.5,1.8,14.1,5.9,21c1.3,2.5,3.1,5.7,5.8,8.4c2.5,2.6,5.9,3.5,9,2.4c2.5-0.8,4.5-2.8,5.5-5.5c0.3-0.7,0.5-0.9,0.9-1.1
						c0.2-0.1,0.5-0.2,0.7-0.3c0.5-0.2,1.2-0.3,2.3,0.3c2.8,1.5,5,1.8,7.1,1.1c2.7-0.9,4.2-3.4,5.1-5.2c0.1-0.2,0.2-0.3,0.3-0.5
						c0.3-0.6,0.7-0.9,1.2-1.1c0.6-0.2,1.2-0.1,1.8,0.3c2.6,1.6,5.5,2,8,1.1c3.3-1.1,5.5-4.1,5.8-7.8
						C802.1,368.4,800.2,359.7,795.6,351.9z M744.8,250.9c-0.4,0.1-0.9,0.2-1.3,0.3c-1.4,0.5-2.9,1-4.3,1.4c-1.4,0.5-2.9,1-4.3,1.4
						c-0.5,0.2-1,0.4-1.6,0.7c0,0,0,0,0-0.1v-0.1c-0.3,0.1-0.6,0.2-1,0.4c-0.3,0.1-0.7,0.2-1,0.4c-0.8,0.3-1.7,0.6-2.5,0.9
						c-2.3,0.7-4.5,1.5-6.8,2.2c-1,0.3-1.9,0.6-2.9,0.8c-0.1,0.1-0.2,0.2-0.3,0.2c-0.1,1.3-0.1,2.5-0.1,3.8c0-0.6,0.1-1.3,0.1-1.9
						s0-1.3,0.1-1.9c-1.4,0.4-2.8,0.8-4.2,1.2c-0.1-2,0-3.9,0.1-5.9c0.1-1.9,0.3-3.9,0.4-5.8c0.1-3.1,0.3-6.1,0.4-9.2
						c0.1-1.3-0.6-2.4-0.9-3.6h0.1h-0.1c0-0.1-0.1-0.2-0.1-0.4l0,0l17.7-5.9l5.9-2c0,0.1,0.1,0.2,0.1,0.2c0.2,0.6,0.4,1.1,0.6,1.6
						c0.7,1.5,1.6,2.9,2.7,4.2c0.7,0.9,1.4,1.7,2.2,2.5c0.7,0.8,1.5,1.7,2.1,2.5s1.2,1.5,1.8,2.2c1.9,2.2,3.8,4.3,5.5,6.6
						C750.4,248.9,747.6,249.9,744.8,250.9z"/>
				</g>
			</g>
			<g>
				<g>
					<g>
						<path class="st9" d="M792.2,353.8l-0.3-0.6c-3.7-6.4-7.2-12.4-9.3-19.4c-1.8-6.1-2.7-12.5-3.6-18.8c-0.1-1-0.3-2.1-0.4-3.2
							c-0.4-3.6-0.7-6.9-2.2-10.1c-0.3-0.6-0.4-1.2-0.5-1.7c-0.2-0.6-0.3-1.2-0.6-1.6c-0.2-0.3-0.4-0.5-0.5-0.8
							c-2.3-5.1-4.8-11.1-6.2-17.4c-0.4-1.6-0.8-3.2-1.4-4.9c-0.2-0.6-0.4-1.3-0.6-1.9c0-0.1-0.1-0.6-0.2-0.6c0-0.1,0-0.3-0.1-0.4
							c-0.1-0.8-0.2-1.5-0.4-2c-0.1-0.1-0.1-0.3-0.1-0.4c-0.2-0.7-0.4-1.4-0.7-2.3c-0.4-1.7-0.9-3.3-1.7-4.5
							c-2.8-4.3-6-8.2-9.1-11.6l-8.4,3c-0.2,0.1-0.3,0.1-0.5,0.1l-1.1,0.3l-8.3,2.8l-1.4,0.6c-0.4,0.2-0.8,0.2-1.2,0.3L730,260
							l-6.9,2.3l-0.5,0.1c0,0.2,0,0.3,0,0.5v0.6c-0.1,2.2-1.9,3.9-4.1,3.8c-0.1,0-0.2,0-0.2,0c-1.1-0.1-2.1-0.7-2.7-1.5
							c-0.1,1.5-0.1,2.9-0.2,4.3c0,1.1-0.1,2.2-0.1,3.3c-0.2,3.1-0.2,5.9,0.8,8.7l0.1,0.3c0.3,0.9,0.9,2.4,1.2,2.7
							c1.6,0.9,2.2,2.9,1.7,4.6v0.1c0.1,0.4,0.3,0.8,0.4,1.2c2.8,6.7,5.6,13.9,7.2,21.8c0.1,0.4,0.2,1,0.3,1.3
							c1.3,1.1,1.8,2.9,1.3,4.5c0.1,0.3,0.3,1.1,0.3,1.1c0.3,1.1,0.6,2.1,1.1,3c2.3,4.3,4.7,8.6,7,12.6c5.2,8.9,8.3,18.7,9.3,29.1
							c0.6,6.1,1.6,13.1,5.4,19.4c0,0.1,0.1,0.1,0.1,0.2c1.2,2.2,2.8,5.1,5.1,7.5c1,1,2.1,1.5,3.2,1.7c0.6,0.1,1.2,0,1.8-0.2
							c1.8-0.6,2.6-2.1,3.1-3.2c0.6-1.5,1.4-2.5,2.6-3.2c0.4-0.2,0.9-0.5,1.4-0.6c0.9-0.3,1.7-0.4,2.6-0.3c0.9,0.1,1.8,0.4,2.7,0.9
							c1.1,0.6,2.1,0.9,2.8,1c0.4,0,0.8,0,1.2-0.1c1.3-0.4,2.2-2,2.8-3.2c0.1-0.2,0.2-0.5,0.4-0.7c0.8-1.4,2-2.4,3.5-2.9
							c0.8-0.3,1.6-0.3,2.4-0.3c0.9,0.1,1.8,0.4,2.7,0.9s1.8,0.9,2.7,1c0.7,0.1,1.4,0,2-0.2c1.8-0.6,2.9-2.2,3.1-4.4
							C798.1,368.9,796.4,361,792.2,353.8z"/>
					</g>
				</g>
				<g>
					<g>
						<path class="st9" d="M719.7,258.5c0,0,1.9,7.5,2.2,11.1s-1.3,5.9-3.1,5.1s-4.8-9.9-4.8-10.5s0.5-3.8,0.5-3.8"/>
					</g>
				</g>
				<g>
					<g>
						<path d="M760.1,389c-0.2,0-0.4-0.2-0.8-0.5c-2-2-3.4-4.5-4.4-6.5c-0.1-0.2-0.2-0.3-0.3-0.4c-3.3-5.5-4.3-12-4.8-17.7
							c-1-11-4.3-21.3-9.8-30.7c-2.3-3.9-4.7-8.2-7-12.4c-0.3-0.5-0.5-1.3-0.8-2.2v-0.1c0.4-2.3-0.3-4.6-1.8-6.4l0,0
							c-1.7-8.3-4.6-15.8-7.5-22.6l0,0c0.3-2.6-0.7-5.3-2.7-7c-0.2-0.5-0.4-1.1-0.5-1.4l-0.1-0.3c-0.8-2.1-0.7-4.4-0.6-7.1
							c0-0.8,0.1-1.6,0.1-2.3c3.3-0.3,6.2-2.6,7-5.8l5-1.6l3.3-1.2c0.6-0.1,1.2-0.3,1.8-0.5l1.3-0.5l8-2.7l0.9-0.2
							c0.3-0.1,0.6-0.2,1-0.3c0,0,3.4-1.2,5.8-2.1c2.8,3.3,5.1,6.2,6.9,9.1c0.5,0.7,0.8,2,1.2,3.4c0.3,0.9,0.5,1.7,0.7,2.5
							c0.1,0.2,0.2,0.5,0.3,0.8c0,0.1,0.1,0.5,0.1,0.8s0.1,0.6,0.1,0.8c0,0.1,0.2,0.8,0.2,0.9c0.2,0.7,0.4,1.3,0.6,2
							c0.5,1.6,0.9,3.2,1.3,4.6c1.5,6.7,4.1,12.8,6.5,18.1c0.2,0.5,0.5,1,0.8,1.4c0,0.1,0.1,0.3,0.1,0.4c0.2,0.6,0.4,1.5,0.8,2.4
							c1.2,2.6,1.5,5.5,1.9,8.9c0.1,1.1,0.2,2.2,0.4,3.3c0.9,6.4,1.7,12.9,3.7,19.4c2.2,7.5,5.9,13.7,9.7,20.3l0.3,0.6
							c3.7,6.4,5.3,13.6,4.7,21.3c0,0.4-0.2,0.9-0.4,1c-0.1,0-0.2,0-0.4,0c-0.3,0-0.7-0.2-1.1-0.4c-1.4-0.8-2.8-1.3-4.4-1.5
							c-1.4-0.1-2.7,0-4.1,0.4c-2.4,0.8-4.4,2.5-5.7,4.8c-0.1,0.2-0.3,0.5-0.5,0.9s-0.4,0.7-0.5,0.9c-0.2-0.1-0.5-0.2-0.8-0.4
							c-1.4-0.7-2.8-1.2-4.2-1.3c-1.4-0.1-2.9,0-4.3,0.5c-0.7,0.2-1.4,0.5-2.1,0.9c-2,1.1-3.5,2.9-4.4,5.2c-0.1,0.3-0.3,0.8-0.6,0.9
							L760.1,389z"/>
					</g>
				</g>
				<g>
					<g>
						<path class="st7" d="M737,224.3c0.1,0,0.2-0.1,0.3-0.1c-0.6-0.5-1.1-1.1-1.4-1.8c-0.4-1.1-0.8-2.2-1.1-3.4
							c-0.5-1.8-1.1-3.5-1.8-5c-1-1.4-1.8-1.5-2.1-1.5c-0.4,0-0.9,0-1.5,0.2c-0.4,0.1-0.8,0.3-1.2,0.5c-0.5,0.2-1,0.4-1.5,0.4
							c-0.8,0.8-1.9,1.1-3,1l0,0c-0.1,0.1-0.3,0.1-0.4,0.2l-1.9,0.7l-2.9,0.9l-5.1,1.7c-0.2,0.1-0.4,0.1-0.6,0.1c0,0,0,0-0.1,0
							c-0.4,0.4-0.9,0.7-1.4,0.9c-0.2,0.1-0.5,0.2-0.6,1.2c0,0.2-0.1,0.4-0.2,0.6c0,0.1,0.1,0.3,0.1,0.4c0,0.3,0.1,0.6,0,0.9
							c0,0.1,0.1,0.2,0.1,0.3c0.1,0.1,0.2,0.4,0.2,0.6c0.5,1.6,1,3.2,1.6,4.8l0.7,2.1c0.3,0.8,0.3,1.6,0,2.3
							C713.2,232.2,737,224.3,737,224.3z"/>
					</g>
				</g>
			</g>
			<g>
				<g>
					<path d="M711.2,227.1L711.2,227.1c-0.6-2-1.3-4.1-1.9-6.1C709.9,223.1,710.6,225.1,711.2,227.1z"/>
				</g>
			</g>
			<g>
				<g>
					<path d="M734.6,219.4c-1.8,0.6-3.6,1.2-5.4,1.8l0,0C731.1,220.6,732.8,220,734.6,219.4z"/>
				</g>
			</g>
			<g>
				<g>
					<path d="M735.9,218.6c0,0.1,0.1,0.2,0.1,0.4c0,0.1,0.1,0.2,0.1,0.2c0-0.1-0.1-0.2-0.1-0.2C736,218.8,735.9,218.7,735.9,218.6
						c-0.6-1.9-1.1-3.6-1.7-5.4C734.8,215,735.3,216.7,735.9,218.6C735.9,218.5,735.9,218.6,735.9,218.6z"/>
				</g>
			</g>
			<g>
				<g>
					<path d="M726.9,214.1L726.9,214.1c0.1,0.3,0.2,0.6,0.3,0.9c0-0.1-0.1-0.3-0.1-0.4C727,214.4,726.9,214.3,726.9,214.1
						c-0.2,0.1-0.3,0.1-0.5,0.2c0,0,0,0,0.1,0C726.6,214.2,726.7,214.2,726.9,214.1z"/>
				</g>
			</g>
		</g>
	</g>
	<g>
		<g>
			<path d="M741.2,349.2c-0.1,0-0.1,0.1-0.2,0.1l-0.8,0.8c-0.1,0.1-0.2,0.2-0.4,0.3c-0.1,0.1-0.2,0.2-0.3,0.3
				c-0.6-1.8-1.1-5.6-1.4-7.7c0-0.1,0-0.2,0-0.3l0,0c0-0.1,0-0.2,0-0.2h0.1v-0.2c0-0.2,0-0.3,0-0.5H738c0-0.1,0-0.2,0-0.2l0.2-0.1
				c0-0.2,0-0.4-0.1-0.6c0-0.2-0.1-0.3-0.1-0.6c-0.1-0.2-0.1-0.4-0.2-0.7c-0.1-0.2-0.2-0.4-0.2-0.6l-0.1-0.2
				c-0.1-0.1-0.1-0.3-0.2-0.4l-0.3-4.2l0.2-6c0.2-0.4,0.3-0.8,0.4-1c0.1-0.4,0.1-0.7,0.1-1.1l0,0c0.5-0.2,0.8-0.6,0.9-0.8
				c0.3-0.6,0.2-1.2-0.3-2c-1.2-1.9-1.6-4.1-1.9-5.9c-0.1-0.8-0.2-1.5-0.3-2.3l-0.2-1.8c-0.1-1.2-0.3-2.6-1-3.4
				c-0.7-0.7-1.2-1.5-1.4-2.3c-0.7-2,0.1-4.1,1.1-6.4l0.5-0.1l-0.1-0.7c0.4-1,0.8-2.1,1-3.2c0.1-0.5,0.2-1,0.3-1.5
				c0.8,0.5,2,1.1,3.1,1.8c-0.1-0.8-0.2-1.7-0.3-2.5c-0.9-0.6-1.8-1.1-2.4-1.5c0.1-0.9,0.2-1.8,0.1-2.7c0-1.3,0.2-2.2,0.8-3
				c-0.2-0.7-0.4-1.4-0.5-2.1c-0.3-1.1-0.3-2.1-0.3-3c-0.1,0.1-0.3,0.2-0.4,0.3c-1.3-5.8-3.6-10.1-7.1-13c-1.1-0.9-2.1-1.5-3.1-2
				c-0.6-0.3-1.3-0.6-2.2-1c-0.5-0.2-1-0.3-1.4-0.5c-1.9-0.6-3.6-0.7-5.2-0.5h-0.3c-0.8,0.1-1.5,0.3-2.2,0.6l-0.2,0.1
				c-1.4,0.6-2.6,1.6-3.8,2.9c-3.5,4.1-2.9,9.1-1.8,13.8c0.3,1.2,0.6,2.4,1,3.6c0.8,2.8,1.6,5.4,1.7,8.2v0.5c0,0.3,0.1,0.8,0,0.9
				c0,0-0.1,0.1-0.4,0.1c-5.2,1-8.3,5-11.2,9.3c-0.9,0.5-1.3,1.5-1.5,2.3c-0.3,0.8-0.4,1.1-0.7,1.2l-0.5,0.2l-0.3,0.6v0.3
				c0,2.1-0.4,2.2-0.8,2.2c-0.4,0.1-1.1,0-2.1-0.2c-1.5-0.3-2.6-0.4-3.7-0.2c-1.8,0.2-3.3,1.1-4.5,2.7c-1.8,0.8-3.2,2.5-4,4.5
				c-2.6,7.1-2.7,14.5,0,22c3.4,12.7,9.9,20.2,20,22.9c1.8,0.5,3.2,0.6,4.5,0.5c2.7-0.4,4.3-2.3,5.7-5.1c4.3,2.8,9.2,3.8,14.8,3
				c0.4,0,0.7-0.1,1.1-0.2c4.7-0.8,9.1-3,12.9-6.5l0.3-0.2l0.3-1.3c0.3-0.1,0.7-0.3,1.2-0.5L741.2,349.2z M725.8,357.6
				c-0.7,0.1-1.4,0.3-2.1,0.4c-0.7,0.1-1.5,0.2-2.3,0.2c-1,0-2.1,0-3.1-0.2c-1.7-0.3-3.4-0.9-5.1-1.9c-1.3-0.8-2.5-1.7-3.7-2.8
				l-0.2-0.2c-0.4-0.6-0.8-1.1-1.3-1.2c-0.2-0.1-0.4-0.1-0.6-0.1l-0.4,0.1h-0.2l-0.3,0.4c-0.3,0.5-0.4,1-0.3,1.5
				c-0.5-0.2-1.2-0.5-2-1c-0.2-0.1-0.4-0.3-0.6-0.4l-0.4-0.1h-0.3c-0.3,0-0.9,0.3-1.2,1.2c-0.1,0.3-0.1,0.6,0,0.9l0.1,0.3l0.1,0.1
				c0.2,0.3,0.5,0.5,0.9,0.7c1.1,1.4,2.5,2,3.9,2.5c0.3,0.1,0.5,0.2,0.8,0.3c-0.8,1.1-1.7,1.3-2.3,1.4c-1.1,0.1-2.3-0.2-3.3-0.5
				c-6-1.8-10.6-6.4-14-14c-1.3-2.9-2.2-5.7-2.7-8.3c-0.2-1.4-0.4-2.8-0.5-4.3c-0.2-2-0.2-3.6,0-5.1c0.1-1.1,0.3-2,0.5-3
				c0.2-0.8,0.5-1.6,0.9-2.4c0.6-1.4,1.3-2.4,2.1-3.2c1.1-0.9,2.3-1.8,3.6-2c0.6-0.1,1.3,0,2,0.3c0.5,0.2,1.2,0.5,1.3,0.9
				c0.1,0.2,0,0.6-0.1,1c-0.2,1.1-0.7,2.1-1.1,3.1c-0.8,1.9-1.8,4-1.3,6.6c-0.2,0.4-0.3,1.2,0.2,1.9l0.8,3.2c0,0.3,0.1,0.7,0.1,1.1
				c0.1,1.5,0.2,3.4,2,5.6l1.8-0.9l-0.8-3.7c0.5,1.1,1.1,2.2,1.9,3.2c1.6,3.4,4,5.6,7.9,7.3l3.1,1.2l-0.4-0.5l0.3,0.1l-7.2-9.4
				l-2.9-7.3l-0.3-2.5l0.1-1.2v-2.6v-1l0.1-0.4h0.1l0.1-0.7l0.3-1.4h-0.1c0-0.3,0.1-0.6,0.1-1c0.3-2.1,0.8-4.3,1.6-6.3
				c0.3-0.8,0.6-1.6,0.9-2.4c0.6-0.7,1.1-1.5,1.7-2.2c1.5-2.1,3-4.1,4.9-5.3c-0.1,0.2-0.5,0.9-0.5,0.9l0.9,0.5l-1.1-0.3
				c-1,1-1.1,2-0.3,2.8c0.3,0.3,0.7,0.4,1.2,0.4c0.9-0.1,1.5-1.2,1.7-1.7c5.4-4.6,6.9-10.8,4.4-18.6c-0.8-2.5-1.7-5.3-2.1-8.2
				c-0.4-2.8,0-4.9,1-6.3c0.7-1,1.8-1.5,3.2-1.7c0.8-0.1,1.6-0.1,2.5,0c7.7,1,12.2,8,11.7,18.1c-0.4,9.2-2.5,15.3-6.7,19.8
				c-0.2,0.3-0.5,0.5-0.7,0.8c-0.6,0.6-1,1.2-1.3,1.8c-0.1,0.1-0.2,0.3-0.3,0.5c-0.3,0.4-0.2,0.8-0.2,1.1c0,0.1,0,0.3,0,0.5v1.5
				l1.4-0.5c0.3-0.1,0.7-0.2,0.9-0.4c1.1-0.5,2.1-1.2,3-2.1c0.2-0.2,0.5-0.5,0.7-0.8c0.2-0.2,0.4-0.5,0.6-0.7
				c0.5-0.7,0.8-0.8,0.8-0.8s0.4,0.2,0.8,1.4c0.5,1.3,1,2.8,1.1,4.2c0,1.8,0,3.6-0.2,5.3c0,0.4-0.1,0.8-0.2,1.3
				c-0.2,1.7-0.6,3.5-1.1,5.3c-0.7,2.7-1.7,5.2-3,7.7c-2.3,4.3-5.1,6.7-8.8,7.3l-3.5,0.6l3.2,1.4c1,0.4,2.1,0.6,3.3,0.4
				c2.7-0.4,5.5-2.2,7.9-5.3c1.9-2.3,3.1-5.2,4.3-8.1c0,0.9-0.1,1.8,0.2,2.8l0.5,4.3c0,0.3,0.1,0.5,0.1,0.7l0,0l0.1,0.2
				c0.1,0.7,0.3,1.4,0.5,2l2.7,10.2C733.7,354.9,729.8,356.8,725.8,357.6z"/>
		</g>
	</g>
	<g>
		<g>
			<path class="st10" d="M731.5,289.6c-0.4,9.2-2.5,15.3-6.7,19.9c-0.2,0.3-0.5,0.5-0.7,0.8c-0.6,0.6-1,1.2-1.3,1.8
				c-0.1,0.1-0.2,0.3-0.3,0.5c-0.3,0.4-0.2,0.8-0.2,1.1c0,0.1,0,0.3,0,0.5v1.5l1.4-0.5c0.3-0.1,0.7-0.2,0.9-0.4
				c1.1-0.5,2.1-1.2,3-2.1c0.2-0.2,0.5-0.5,0.7-0.8c0.2-0.2,0.4-0.5,0.6-0.7c0.5-0.7,0.8-0.8,0.8-0.8s0.4,0.2,0.8,1.4
				c0.5,1.3,1,2.8,1.1,4.2c0,1.8,0,3.6-0.2,5.3c0,0.4-0.1,0.8-0.2,1.3c-0.2,1.7-0.6,3.5-1.1,5.3c-0.7,2.7-1.7,5.2-3,7.7
				c-2.3,4.3-5.1,6.7-8.8,7.3l-3.5,0.6l3.2,1.4c1,0.4,2.1,0.6,3.3,0.4c2.7-0.4,5.5-2.2,7.9-5.3c1.9-2.3,3.1-5.2,4.3-8.1
				c0,0.9-0.1,1.8,0.2,2.8l0.5,4.3c0,0.3,0.1,0.5,0.1,0.7l0,0l0.1,0.2c0.1,0.7,0.3,1.4,0.5,2l2.7,10.2c-4.1,2.9-8,4.7-11.9,5.5
				c-0.7,0.1-1.4,0.3-2.1,0.4c-0.7,0.1-1.5,0.2-2.3,0.2c-1,0-2.1,0-3.1-0.2c-1.7-0.3-3.4-0.9-5.1-1.9c-1.3-0.8-2.5-1.7-3.7-2.8
				l-0.2-0.2c-0.4-0.6-0.8-1.1-1.3-1.2c-0.2-0.1-0.4-0.1-0.6-0.1l-0.4,0.1h-0.2l-0.3,0.4c-0.3,0.5-0.4,1-0.3,1.5
				c-0.5-0.2-1.2-0.5-2-1c-0.2-0.1-0.4-0.3-0.6-0.4l-0.4-0.1h-0.3c-0.3,0-0.9,0.3-1.2,1.2c-0.1,0.3-0.1,0.6,0,0.9l0.1,0.3l0.1,0.1
				c0.2,0.3,0.5,0.5,0.9,0.7c1.1,1.4,2.5,2,3.9,2.5c0.3,0.1,0.5,0.2,0.8,0.3c-0.8,1.1-1.7,1.3-2.3,1.4c-1.1,0.1-2.3-0.2-3.3-0.5
				c-6-1.8-10.6-6.4-14-14c-1.3-2.9-2.2-5.7-2.7-8.3c-0.2-1.4-0.4-2.8-0.5-4.3c-0.2-2-0.2-3.6,0-5.1c0.1-1.1,0.3-2,0.5-3
				c0.2-0.8,0.5-1.6,0.9-2.4c0.6-1.4,1.3-2.4,2.1-3.2c1.1-0.9,2.3-1.8,3.6-2c0.6-0.1,1.3,0,2,0.3c0.5,0.2,1.2,0.5,1.3,0.9
				c0.1,0.2,0,0.6-0.1,1c-0.2,1.1-0.7,2.1-1.1,3.1c-0.8,1.9-1.8,4-1.3,6.6c-0.2,0.4-0.3,1.2,0.2,1.9l0.8,3.2c0,0.3,0.1,0.7,0.1,1.1
				c0.1,1.5,0.2,3.4,2,5.6l1.8-0.9l-0.8-3.7c0.5,1.1,1.1,2.2,1.9,3.2c1.6,3.4,4,5.6,7.9,7.3l3.1,1.2l-0.4-0.5l0.3,0.1l-7.2-9.4
				l-2.9-7.3l-0.3-2.5l0.1-1.2v-2.6v-1l0.1-0.4h0.1l0.1-0.7l0.3-1.4h-0.1c0-0.3,0.1-0.6,0.1-1c0.3-2.1,0.8-4.3,1.6-6.3
				c0.3-0.8,0.6-1.6,0.9-2.4c0.6-0.7,1.1-1.5,1.7-2.2c1.5-2.1,3-4.1,4.9-5.3c-0.1,0.2-0.5,0.9-0.5,0.9l0.9,0.5l-1.1-0.3
				c-1,1-1.1,2-0.3,2.8c0.3,0.3,0.7,0.4,1.2,0.4c0.9-0.1,1.5-1.2,1.7-1.7c5.4-4.6,6.9-10.8,4.4-18.6c-0.8-2.5-1.7-5.3-2.1-8.2
				c-0.4-2.8,0-4.9,1-6.3c0.7-1,1.8-1.5,3.2-1.7c0.8-0.1,1.6-0.1,2.5,0C727.5,272.5,732,279.4,731.5,289.6z"/>
		</g>
	</g>
	<g>
		<g>
			<g>
				<g>
					<path class="st7" d="M785,305.3c-0.7-2.6-0.7-5.2-0.7-5.2l0,0c0.1-2.3-0.4-4.8-0.9-6.1c-0.9-2.1-3.5-5.3-4.3-6.6
						c-0.8-1.4-0.3-3.3,0.2-7.6c0.3-2.6-0.6-5.3-1.3-7.1l-3.8,1.3c0.8,0.9,1.4,2.1,1.7,3.7c0.1,0.5,0.2,1,0.2,1.5
						c0.1,1.9-0.2,3.3-0.8,4.4c-0.3,0.7-0.8,1.2-1.2,1.6c-0.1,0.1-0.1,0.1-0.2,0.2l0.2,0.7l-0.9-0.1c-0.2,0.2-0.4,0.3-0.6,0.4
						l-0.2,0.2c-0.1,0-0.2,0.1-0.3,0.1c-0.5,0.1-0.9,0.3-1.4,0.5c-0.2,0.1-0.4,0.1-0.6,0.2c0,0-0.7,0.3-0.9,0.4
						c-0.8,0.3-1.5,0.6-2.1,0.8c-0.8,0.3-1.5,0.7-2.2,1c-1,0.5-1.9,1-2.7,1.4c-0.4,0.2-0.7,0.4-1,0.6c-0.1,0-0.1,0-0.2,0
						c-6-0.6-11-4.2-8.9-10.1l-14.8,5c0.1,0.4,0.2,0.7,0.3,1.1c-0.5,0.8-0.8,1.7-0.8,3c0,0.9-0.1,1.8-0.1,2.7
						c0.6,0.4,1.5,0.9,2.4,1.5c0.1,0.8,0.2,1.7,0.3,2.5c-1.1-0.6-2.2-1.3-3.1-1.8c-0.1,0.5-0.2,1-0.3,1.5c-0.3,1.1-0.6,2.1-1,3.2
						l0.1,0.7l-0.5,0.1c-1,2.3-1.8,4.3-1.1,6.4c0.3,0.8,0.7,1.6,1.4,2.3c0.8,0.8,0.9,2.2,1,3.4l0.2,1.8c0.1,0.8,0.2,1.5,0.3,2.3
						c0.2,1.8,0.7,4,1.9,5.9c0.4,0.7,0.5,1.4,0.3,2c-0.1,0.3-0.4,0.6-0.9,0.8l0,0c0,0.4,0,0.7-0.1,1.1c0,0.2-0.1,0.5-0.2,0.8l0,0
						c0,0,0,0,0,0.1l30.5-10.4c0.3-0.4,0.7-0.7,1.1-1.1c0.5-0.5,1.1-0.9,1.7-1.3c0.7-0.4,1.4-0.9,2.1-1.3c0.7-0.4,1.4-0.7,2.1-1
						c0.2-0.1,0.4-0.2,0.5-0.3c0.3-0.1,0.5-0.2,0.8-0.3c0.1,0,0.2-0.1,0.2-0.1l0,0c0.2-0.1,0.3-0.1,0.5-0.2c0.4-0.2,0.8-0.3,1.2-0.5
						l0,0c0,0,0.2-0.1,0.4-0.2c0.4-0.2,1.1-0.5,1.9-0.6c0.1,0,0.3,0,0.4,0c0.3,0,0.7,0,1,0c0.2,0,0.4,0,0.6,0.1
						c0.4,0.1,0.8,0.2,1.1,0.4c0.1,0.1,0.3,0.2,0.4,0.2c0.2,0.1,0.4,0.2,0.6,0.4l3.6-1.2C786.9,308.3,785.4,306.9,785,305.3z
						 M780.4,303.3c-0.1,0.2-0.1,0.5-0.2,0.7c-0.1,0.3-0.2,0.6-0.4,0.9c-0.4,0.8-0.8,1.4-1.3,1.8l0,0l-0.4,0.4c0,0-0.1,0-0.1,0.1
						l0,0l-0.4,0.4c-0.7,0.2-1.4,0.5-2,0.7c0,0,0,0-0.1,0c-0.3,0.1-0.6,0.2-1,0.4l0,0c-0.1,0-0.2,0.1-0.3,0.1
						c-0.2,0.1-0.5,0.2-0.5,0.2c-1,0.4-2,0.9-3,1.4c-0.5,0.3-1,0.6-1.5,0.9h-0.1c-4.1,0.1-8.1-1.1-10.2-3.5l0,0
						c-0.1-0.1-0.2-0.2-0.2-0.3c-0.6-0.7-1-1.5-1.1-2.4c-0.3-1.4-0.1-3,0.8-4.9c0.4-0.9,1-1.7,1.8-2.5c0.6-0.6,1.3-1.2,2.1-1.8
						c0.1-0.1,0.2-0.1,0.3-0.2c0.3-0.2,0.7-0.4,1-0.7c1-0.6,2-1.2,3.1-1.7c0.6-0.3,1.2-0.6,1.8-0.8c0.7-0.3,1.5-0.6,2.2-0.9
						c0.3-0.1,0.6-0.2,0.9-0.3c0.2-0.1,0.4-0.2,0.7-0.2c0.5-0.2,1-0.3,1.4-0.5c0.3-0.1,0.5-0.2,0.7-0.2v-0.2c0.3-0.1,0.7,0,1.1,0.2
						c0.3,0.2,0.7,0.5,1.1,0.9c0.1,0.1,0.1,0.1,0.2,0.2c0.1,0.2,0.3,0.3,0.4,0.5c1.3,1.8,2.6,4.7,3.3,7.9c0.1,0.5,0.2,0.9,0.2,1.3
						C780.5,302,780.5,302.7,780.4,303.3z"/>
				</g>
			</g>
			<g>
				<g>
					<path d="M732.9,300.9c0.6-2.2,1-4.5,1.3-6.6c0.2,0.6,0.4,1.1,0.5,1.6C735.3,298.2,734.3,300.2,732.9,300.9z"/>
				</g>
			</g>
		</g>
	</g>
	<g>
		<g>
			<path class="st10" d="M730.4,307.3c0,0-5.7,5.8-8.4,7s-2-4-2-4l2-1.4"/>
		</g>
	</g>
	<g>
		<g>
			<polyline points="741.3,349.1 737.2,340.6 738.5,351.4 741.2,352.3 741.1,351.4 			"/>
		</g>
	</g>
	<g>
		<g>
			<path d="M712,305.1c0,0-2.9,3.5-5.4,4.6c0,0-0.1-3.5,2.2-6.1"/>
		</g>
	</g>
	<g>
		<g>
			<path class="st10" d="M695.2,318.4c0,0-4.2,24.1,14.1,29c0,0-11.9-2.3-12.8-3.1s-4.4-3.2-4.8-4.2c-0.4-1-1.7-4.7-1.6-6.8
				s0-6.6,0-6.6s0-2.6,0.2-3.2"/>
		</g>
	</g>
	<g>
		<g>
			<path d="M696.7,312.5c0,0-0.6-3,3.5-9.6s11.4-6.4,11.4-6.4l-6.8,6.1"/>
		</g>
	</g>
	<g>
		<g>
			<path class="st9" d="M696.7,312.8c0,0,4-10.7,9.3-13.7s5.8-2.6,5.8-2.6l-10.2-0.6c0,0-5.2,3.3-5.8,4.6s-1.6,2.6-2,3.4
				s-0.4,0.8-0.4,0.8"/>
		</g>
	</g>
	<g>
		<g>
			<path d="M709.4,347.2c0,0-9.2-10-9.4-18.8s1-13.8,1-13.8s-3.9,6.6-3.9,9.2s-0.4,1.5,0.7,5.2c1.1,3.7,1.8,5.4,2.4,7.1
				c0.7,1.7,1,1.3,0.9,2.1"/>
		</g>
	</g>
	<g>
		<g>
			<path class="st10" d="M693.5,317.1c0,0,2,0.3,2.5,1.9c0.5,1.5-1.1,4.6-0.1,11.7c1.1,7.1,5.9,12.7,5.9,12.7l-7.3-7.6l-2.8-5.9
				c0,0,0.1-3.5,0-3.7"/>
		</g>
	</g>
	<g>
		<g>
			<path class="st10" d="M707.6,358.2c0,0-3.3-2.9-4.3-5.9s-6.6-6-4.2-1.5c2.4,4.6,1.2,2.9,2,3.9c0.8,1.1,1.2,1.6,1.8,2.4
				s1.2,1,1.2,1"/>
		</g>
	</g>
	<g>
		<g>
			<path class="st10" d="M706.4,353.7c0,0,9.3,5.1,12.5,4.6s1.3-6.2-1.1-6.9s-7.6-1.7-8-1.5c-0.4,0.1-1.9,0.3-2,0.3
				s-1.2-0.1-1.2-0.1"/>
		</g>
	</g>
	<g>
		<g>
			<path d="M731.2,306c0,0-4.4,7.8-9,9.5l0.1-1.3c0,0,5.4-7.4,5.6-9.2"/>
		</g>
	</g>
	<g>
		<g>
			<path class="st10" d="M728.8,303.2c0,0-3.1,7-5.2,9.4c-2.1,2.4-6-0.3-6-0.3l0.7-3"/>
		</g>
	</g>
	<g>
		<g>
			<g>
				<path d="M787.3,310.6c-2.4-2.7-4.7-2.5-5.1-3.6c-0.4-1.1,1.6-4.4,1.6-4.4c0.9-2.6,0.2-6.7-0.5-8.5c-0.9-2.1-3.5-5.3-4.3-6.6
					c-0.8-1.4-0.3-3.3,0.2-7.6c0.4-4.3-2.2-9-2.2-9l-3.2,36.3l3.9,8c0,0,4.7,14.8,8.8,12.8c0.5-0.2,0.9-0.6,1.4-1
					c0-0.1,0.5-3.1,1.2-5.5C789.8,318.9,789.7,313.3,787.3,310.6z"/>
			</g>
		</g>
		<g>
			<g>
				<path class="st11" d="M770.4,270.1c0.5,0.6,0.9,1.3,1.4,2C771.3,271.5,770.8,270.8,770.4,270.1c-1.7-2-3.6-4.1-5.2-5.6
					c-0.8-0.8-1.5-1.5-2.1-2c-0.5-0.4-0.8-0.7-1-0.9c0.3,0.2,0.6,0.5,1,0.8c0.6,0.5,1.3,1.1,2.2,1.9
					C766.8,265.8,768.7,267.8,770.4,270.1z"/>
			</g>
		</g>
		<g>
			<g>
				<path class="st11" d="M775.5,280.8l0.1,0.4c-0.1-0.3-0.2-0.5-0.3-0.8c-0.5-1.7-1.2-3.6-1.9-5.4c0.8,1.7,1.5,3.4,2,5.3
					C775.4,280.5,775.5,280.6,775.5,280.8z"/>
			</g>
		</g>
		<g>
			<g>
				<path d="M779,290.9l-2.9,1.5c-1.3,0.7-2.8,1.3-4.4,1.8c-1.2,0.5-2.6,0.9-4.1,1.2l-0.5,0.2h-0.5c-1.1,0.2-2.2,0.3-3.3,0.3
					c-0.7,0-1.5,0-2.4-0.1l-0.6-0.1c-5.4-0.6-9.7-3-11.7-6.6c-1.7-3-1.6-6.7,0.1-10.3c1.5-3,4.4-5.7,8.8-8c1.3-0.7,2.7-1.4,4.4-2
					c1.2-0.5,2.4-0.9,3.5-1.3l1.6-1.4c0.6,0.1,1.3,0.2,2,0.3l1.7,2.3c0.6,0.7,1.1,1.6,1.6,2.4l0.2,0.3c0.5,0.8,0.9,1.6,1.4,2.4
					l0.4,0.7v0.1c0.9,1.9,1.6,3.8,2.1,5.7c0.1,0.2,0.1,0.4,0.2,0.6l0.3,1v0.1L779,290.9z"/>
			</g>
		</g>
		<g>
			<g>
				<path class="st10" d="M774.7,288.7c-1.1,0.5-2.4,1.1-3.9,1.6c-1.2,0.5-2.6,0.8-4,1.1c0,0-0.1,0-0.2,0c-1.1,0.2-2.1,0.3-3.2,0.4
					c-0.9,0-1.7,0-2.5-0.1c-6.4-0.7-11.6-4.7-8.5-11.2c1.2-2.6,4-4.7,7.2-6.3c1.3-0.7,2.7-1.3,4.1-1.9c1.4-0.6,2.8-1.1,4.1-1.5h0.1
					c0.5,0.7,1,1.3,1.4,2.1c0.1,0.1,0.1,0.2,0.2,0.3c0.5,0.8,0.9,1.6,1.4,2.5c0,0.1,0,0.1,0.1,0.2c0.8,1.7,1.5,3.5,2,5.4
					c0.1,0.2,0.1,0.3,0.1,0.5l0.1,0.4l0,0l-0.7,3.9L774.7,288.7z"/>
			</g>
		</g>
		<g>
			<g>
				<path d="M782.3,307c0.1,0.3,0.4,0.5,0.8,0.7l-0.6-2.2C782.3,306.1,782.2,306.6,782.3,307z"/>
			</g>
		</g>
		<g>
			<g>
				<path d="M782.3,307c-0.1-0.3,0-0.9,0.2-1.5l-4.7-19l-3-0.2l-1.8-0.1l-0.6,0.6c-0.7,0.2-1.5,0.5-2.4,0.8c0,0-0.7,0.3-0.9,0.4
					c-1.7,0.6-3.1,1.2-4.4,1.8c-1.8,0.9-3.4,1.8-4.6,2.7c-2.6,1.8-4.5,3.8-5.5,6.1c-1.8,3.6-1.8,7.3,0,10.4
					c2.1,3.7,6.6,6.1,12.2,6.6c0.8,0.1,1.6,0.1,2.5,0.1c0.6,0,1.2-0.1,1.8-0.1h0.4c1.5-0.2,3.1-0.5,4.7-1c0.5-0.1,0.9-0.3,1.3-0.4
					c1-0.3,2.1-0.7,3.1-1.2l3.5-1.5l-0.8-3.4C782.7,307.5,782.4,307.3,782.3,307z"/>
			</g>
		</g>
		<g>
			<g>
				<path class="st10" d="M775,292.4l4,16.3c0,0-0.1,0-0.1,0.1c-0.9,0.4-1.9,0.8-3,1.1c-0.3,0.1-0.6,0.2-0.9,0.3
					c-1.3,0.4-2.7,0.7-4.1,0.9l0,0c-0.6,0.1-1.2,0.1-1.8,0.1c-7.3,0.2-14.3-3.9-10.8-11.1c0.8-1.7,2.3-3.2,4.2-4.5
					c1.3-0.9,2.7-1.7,4.1-2.4c1.3-0.7,2.7-1.2,4-1.7c0.3-0.1,0.6-0.2,0.9-0.3c1.1-0.4,2.2-0.7,3.1-1l0,0L775,292.4z"/>
			</g>
		</g>
		<g>
			<g>
				<path d="M782.3,307c0.1,0.3,0.4,0.5,0.8,0.8l-0.6-2.3C782.3,306,782.2,306.6,782.3,307z"/>
			</g>
		</g>
		<g>
			<g>
				<path d="M782.3,307c-0.1-0.3,0-0.9,0.2-1.5l-0.4-1.7l-4.5,3.8c-0.7,0.2-1.4,0.5-2,0.7c-0.3,0.1-0.7,0.2-1,0.4
					c-0.2,0.1-0.8,0.3-0.8,0.3c-1,0.4-2,0.9-3,1.4c-1.8,1-3.3,2-4.6,3c-1.5,1.3-2.7,2.7-3.4,4.3c-1.2,2.5-1.5,4.9-1,7
					c1.1,4.8,5.7,8,12,8.6c0.7,0.1,1.5,0.1,2.2,0.1h0.6c1.5-0.1,3-0.3,4.4-0.7c0.7-0.2,1.3-0.3,1.7-0.5c0.8-0.2,1.6-0.5,2.3-0.8
					l3.4-1.3l-3.4-14v-0.3v-0.5l-1.1-4.3l-0.8-3.2C782.7,307.5,782.4,307.3,782.3,307z"/>
			</g>
		</g>
		<g>
			<g>
				<path d="M771.3,273.4c0,0,1.8,3,2.1,3.8s2.6,8.7,2.6,8.7s0.8,0.1,1.2-1.2c0.4-1.3,3.2-12.3-1.7-15.7c-4.9-3.4-8.8-2.9-8.8-2.9"
					/>
			</g>
		</g>
		<g>
			<g>
				<path d="M782.5,294.9c-3.1-5.2-6.7-9.9-6.7-9.9l1.3,10c0,0,1.7,5.7,1.8,6s1.7,6.1,1.7,6.1S785.6,300.1,782.5,294.9z"/>
			</g>
		</g>
		<g>
			<g>
				<path d="M787.3,310.6c-2.4-2.7-4.7-2.5-5.1-3.6c-0.2-0.6,0.3-1.9,0.8-2.9c-1.8-0.7-3.1-0.7-3.1-0.7l6.3,25.3
					c0,0,1.9-4.1,3.1-8.8C789.7,317,789.3,312.8,787.3,310.6z"/>
			</g>
		</g>
		<g>
			<g>
				<path class="st10" d="M772,286.8c0,0,5.4-2,3.9-9.1s-8.1-7-8.1-7"/>
			</g>
		</g>
		<g>
			<g>
				<path class="st10" d="M777.5,307.6c0,0,4.1-2.3,2.8-7.7c-1.3-5.4-4-10.1-6.1-9.7"/>
			</g>
		</g>
		<g>
			<g>
				<path class="st10" d="M787.7,314.6c-0.4-5.9-7.1-3.7-8-3.4l0,0h-0.1c-0.8,0.3-1.7,0.6-2.6,0.9c-0.3,0.1-0.5,0.2-0.8,0.3
					c-0.3,0.1-0.5,0.2-0.8,0.3c-0.9,0.4-1.8,0.8-2.7,1.3c-1.4,0.7-2.7,1.6-3.8,2.5c-1,0.9-1.9,1.9-2.4,2.9c-0.8,1.6-1,3.1-0.7,4.3
					c0.8,3.6,5.4,5.5,10.1,5.4c0.1,0,0.3,0,0.5,0c1.3-0.1,2.5-0.3,3.7-0.6c0.5-0.1,1-0.3,1.5-0.4c0.6-0.2,1.1-0.4,1.6-0.6l0,0l0,0
					c0.1,0,0.3-0.1,0.4-0.1l-0.1-0.3C784.5,325.6,788,320,787.7,314.6z"/>
			</g>
		</g>
		<g>
			<g>
				<path d="M786.9,310.1c-0.4-0.2-0.8-0.4-0.8-0.4v-0.3c-0.5-0.4-0.9-0.7-1.3-0.9l-4.9,2.6c0,0,3.2,0.1,4.3,2.8
					c1.1,2.7,1.8,6.9,2,8.2c0.2,1.2,2.1-2,2.4-3.3c0.2-0.6,0.5-1.3,0.8-2.1c-0.2-2.3-0.8-4.6-2.1-6.1
					C787.2,310.4,787,310.3,786.9,310.1z"/>
			</g>
		</g>
		<g>
			<g>
				<path class="st10" d="M785.9,320.2c0,0,0.9,4.3,0.2,5.8s-3.4,1.9-3.4,1.9"/>
			</g>
		</g>
		<g>
			<g>
				<path d="M786.1,309.4c0,0-1.8-1-2.4-2.6c-0.6-1.6-0.2-3.4,0.1-4.1s-1-1.3-1.7,0.1c-0.7,1.5-0.8,1.1-0.9,2.8s1.2,2.8,1.3,3"/>
			</g>
		</g>
		<g>
			<g>
				<path d="M788.4,330c0,0,3.4-7.8,1.9-14.1c-1.5-6.3-4.6-8-5.3-10.7c-0.7-2.6-0.7-5.2-0.7-5.2s-2.5,2.8-2.5,4.8
					c-0.1,2-1.4,2.3-0.1,3.3c1.4,0.9,1.5,0.8,2.9,2.2c1.4,1.5,1.2,1.7,1.7,2.5s0.3,0.2,0.8,1.4c0.5,1.2,0.6,1.5,0.9,2.1
					s0.3,0.9,0.3,2.1s-0.4,2.8-0.6,4c-0.2,1.1-0.4,2.1-0.5,2.5s-0.9,0.9-1,1.6s-0.4,1-0.1,1.4"/>
			</g>
		</g>
		<g>
			<g>
				<path class="st10" d="M778.2,311.7c0,0,3.6-2.2,6.6,0.3s2.5,7.7,2.5,10.4c0,2.8-1.4,4.1-2.1,4.5"/>
			</g>
		</g>
	</g>
	<g>
		<g>
			<path class="st9" d="M755.7,259.1l-8.4-10.7l5.3-1.2c0,0,4.9,8.2,6.9,10.3"/>
		</g>
	</g>
	<g>
		<g>
			<path class="st9" d="M716.5,256.5c0,0,2.3,6.2,3.7,7.9c1.4,1.8,1,1.9,1.4,1.8s5.8-3.1,6.2-3.4s-3-0.5,2.7-1.5s13.5-3,14.6-3.4
				c1.1-0.5,1.4-2.2,3.8-2.5c2.4-0.3,3-1.2,3-1.2s0.4-3.1,0.3-3.6c-0.1-0.6-4.1-1.4-4.1-1.4l-7.9-0.4"/>
		</g>
	</g>
	<g>
		<g>
			<path class="st7" d="M737.1,328.2c0,0-1.1-10.1-3.2-15.7c-2.1-5.6-0.7-6.6,0-10.6s3.2-15.3,3.2-15.3l10.6,0.3
				c0,0-1.7,3.6-0.7,7.6s0.2,7.1,0.7,10.2"/>
		</g>
	</g>
	<g>
		<g>
			<path d="M717.2,268.9c0,0-2.4-3.1-1.6-9.4c0.8-6.3,1.8-20.5,2-22.1s-1.3-4.4-1.3-4.4s-2.1,1.7-2.3,2.4s0.6,9.7,0.6,10.3
				s-0.6,3.4-0.6,3.4s-0.9,6.5-1,8.1c-0.1,1.6-0.3,4.5-0.3,4.5s0,3.7,0.2,4.2c0.2,0.6,0.4,1.9,0.4,1.9"/>
		</g>
	</g>
	<g>
		<g>
			<path d="M717.2,266.9c0,0-1.2-5.4,0.3-11.5c1.6-6.2,0.7-20.4,0.4-21.7s-3.7,4.6-3.1,6.2c0.6,1.6,0.2,4.2-0.1,7.6
				c-0.2,3.4-0.8,6.4-1.1,7.1c-0.2,0.7-0.5,0.6-0.6,1.6s0,4.3-0.2,4.9s-0.2,2.2-0.2,2.2"/>
		</g>
	</g>
	<g>
		<g>
			<path d="M736.7,227.2c0,0,3.8,9.2,9.2,15.3c5.5,6.1,10.8,12.9,13.6,16.5s6.1,9.4,6.1,9.4l2-1.5c0,0-2.1-5.9-2.7-6.6
				c-0.7-0.7-5.1-4.5-5.6-5.6c-0.4-1.1-2.3-2.5-3.3-4.3c-1-1.7-3.8-6-3.8-6"/>
		</g>
	</g>
	<g>
		<g class="st12">
			<g>
				<g>
					<polyline points="117.3,641.9 291.7,714.6 619.7,685.9 531.7,601.2 					"/>
				</g>
			</g>
		</g>
		<g>
			<g>
				<g>
					<path d="M536.5,680.1h33.7c6.8,0,12.3-5.5,12.3-12.3v-60.9h-58.3v60.9C524.2,674.6,529.7,680.1,536.5,680.1z"/>
				</g>
			</g>
			<g>
				<g>
					<path class="st0" d="M558.3,683h-9.9c-15,0-27.2-12.2-27.2-27.2v-52h64.2v52C585.5,670.8,573.3,683,558.3,683z M527.2,609.8
						v46.1c0,11.7,9.5,21.3,21.3,21.3h9.9c11.7,0,21.3-9.5,21.3-21.3v-46.1H527.2z"/>
				</g>
			</g>
		</g>
		<g>
			<g>
				<g>
					<path d="M254.1,694.5h33.7c6.8,0,12.3-5.5,12.3-12.3v-60.9h-58.3v60.9C241.8,689,247.3,694.5,254.1,694.5z"/>
				</g>
			</g>
			<g>
				<g>
					<path class="st0" d="M275.9,697.5H266c-15,0-27.2-12.2-27.2-27.2v-52H303v52C303.1,685.3,290.9,697.5,275.9,697.5z
						 M244.8,624.2v46.1c0,11.7,9.5,21.3,21.3,21.3h9.9c11.7,0,21.3-9.5,21.3-21.3v-46.1H244.8z"/>
				</g>
			</g>
		</g>
		<g>
			<g>
				<g>
					<path d="M148.9,652.2h33.7c6.8,0,12.3-5.5,12.3-12.3V579h-58.3v60.9C136.6,646.7,142.1,652.2,148.9,652.2z"/>
				</g>
			</g>
			<g>
				<g>
					<path class="st0" d="M170.7,655.2h-9.9c-15,0-27.2-12.2-27.2-27.2v-52h64.2v52C197.9,643,185.7,655.2,170.7,655.2z
						 M139.5,581.9V628c0,11.7,9.5,21.3,21.3,21.3h9.9c11.7,0,21.3-9.5,21.3-21.3v-46.1H139.5z"/>
				</g>
			</g>
		</g>
		<g>
			<g>
				<g>
					<path class="st13" d="M224.9,17.9c0-0.6-0.6-1-1.1-0.8c-30.2,11.2-60.2,24.2-89.6,38.8c-11,5.5-19.1,18.2-19.2,29.7
						c-1.8,205.2-3.6,294-5.4,496.7c-0.1,11.3,7.6,23.8,18.4,29.7c31.8,17.1,64.2,32.5,96.9,45.9V17.9z"/>
				</g>
			</g>
			<g>
				<g>
					<path class="st0" d="M227.8,662.3l-5.9-2c-32.1-13.1-62.9-28.3-95.4-45.7c-11.7-6.3-20-19.9-19.9-32.3
						c0.9-100.4,1.8-174.2,2.7-245.5c0.9-72.6,1.8-147.8,2.7-251.3c0.1-12.8,8.9-26.4,20.8-32.3c29.8-14.7,60.1-27.8,89.9-38.9
						c1.2-0.4,2.5-0.3,3.5,0.4s1.6,1.9,1.6,3.1L227.8,662.3L227.8,662.3z M221.9,21c-28.7,10.8-57.7,23.4-86.4,37.6
						c-9.9,4.9-17.5,16.6-17.6,27.1c-0.9,103.5-1.8,178.7-2.7,251.3c-0.9,71.3-1.8,145-2.7,245.4c-0.1,10.2,7.1,21.8,16.8,27.1
						c30.9,16.6,62,31.4,92.6,44.1V21z"/>
				</g>
			</g>
		</g>
		<g>
			<g>
				<g>
					<path class="st7" d="M593.4,631.2c-118.7,42.1-246.2,51-368.6,26.7V18.3c0-0.9,0.6-1.7,1.5-1.9c121.9-23.9,248.8-14.9,367,27
						c10.1,3.6,18.3,15.3,18.3,25.7c0,217.2,0,319.3,0,536.5C611.7,616,603.5,627.6,593.4,631.2z"/>
				</g>
			</g>
			<g>
				<g>
					<path class="st0" d="M360.6,674.2c-45.7,0.7-93.1,5-136.3-13.4l-2.4-0.5v-642c0-2.3,1.6-4.3,3.9-4.8
						C348.9-10.6,476.3-1.2,594.4,40.6c11.2,4,20.2,16.8,20.2,28.5v536.5c0,11.7-9.1,24.5-20.2,28.5l0,0
						C519.1,660.7,440,674.2,360.6,674.2z M227.8,655.5c121.7,23.7,247.8,14.4,364.6-27l0,0c8.8-3.2,16.3-13.6,16.3-22.9V69.1
						c0-9.2-7.5-19.7-16.3-22.9C475.6,4.8,349.6-4.6,227.8,19.2V655.5z"/>
				</g>
			</g>
		</g>
		<g>
			<g>
				<g>
					<path class="st2" d="M589.8,631.2c10-3.6,18.1-15.3,18.1-25.7c0-32.4,0-63.5,0-93.6c-2.2-1.6-3.4-2.5-3.4-2.5s0,16.2,0,29.6
						S583,574.8,520,586.9c-63,12-208.4,19.9-248.2,7.2s-43.4-131.4-43.4-131.4l-0.3,5c0,60.6-3.2,123.4-3.2,190.2
						C346.1,682.2,472.3,673.3,589.8,631.2z"/>
				</g>
			</g>
		</g>
		<g>
			<g>
				<g>
					<path class="st14" d="M326.5,18.4c0,0,47.6-9.2,107.5,1s82.5,19.4,78.7,25.6s-74.3-0.2-125.3-4.3S314.8,26.3,326.5,18.4z"/>
				</g>
			</g>
		</g>
		<g>
			<g>
				<g>
					<path class="st14" d="M604.1,96.1v147.5C604.1,243.7,594.5,143.2,604.1,96.1z"/>
				</g>
			</g>
		</g>
		<g>
			<g>
				<g>
					<path class="st7" d="M124.4,82.1c0,0,2.6-14.7,19.4-22.1s65.7-29.3,69.5-29s2.6,25.5,2.6,25.5s-6.8-17.6-18-14.3
						s-50.4,21.1-56.7,26.5S124.4,82.1,124.4,82.1z"/>
				</g>
			</g>
		</g>
		<g>
			<g>
				<g>
					<g>
						<g>
							<g>
								<path class="st15" d="M325.6,447.4c-14.4,0-29,0-43.3-0.1c-14.7-0.1-26.6-13.2-26.6-29.1V76.3c0-15.9,11.8-29.5,26.3-30.3
									c14.4-0.8,29.1-1.2,43.6-1.2c65.2,0,130,8,192.6,23.7c13.7,3.5,24.5,17.7,24.5,32.3v316c0,14.9-11.6,27.4-25.8,27.8
									C454.6,446.5,390.3,447.4,325.6,447.4z"/>
							</g>
						</g>
					</g>
					<g>
						<g>
							<g>
								<path class="st16" d="M261.9,418.2c0-112.8,0-229.1,0-341.9c0-12.6,9.1-23.5,20.4-24.1c78.6-4.3,157.9,3.1,234.3,22.3
									c11,2.8,19.8,14.7,19.8,26.3c0,104.2,0,211.8,0,316c0,11.6-8.8,21.3-19.8,21.7c-76.4,2.4-155.7,3.3-234.3,2.7
									C271,441,261.9,430.7,261.9,418.2z"/>
							</g>
						</g>
					</g>
				</g>
				<g>
					<g>
						<g>
							<path class="st15" d="M530.3,101.1c0-0.1,0-0.1,0-0.2v-0.2l0,0c-0.2-8.8-7-17.8-15.1-19.9c-48-12-97.3-19.5-147.1-22.2
								c-4.9-0.2-9.8-0.5-14.7-0.6c-3.9-0.1-7.8-0.2-11.7-0.3c-5.4-0.1-10.8-0.2-16.2-0.2c-7.7,0-15.4,0.1-23.1,0.4
								c-6.6,0.2-13.2,0.5-19.8,0.8c-7.8,0.4-14.4,8.4-14.6,17.6l0,0v0.4l0,0l0,0v341.5c0,9.2,6.4,16.7,14.3,16.7
								c14.3,0.1,28.9,0.1,43.2,0.1c64.6,0,128.8-1,190.9-2.9c7.6-0.3,13.8-7.2,13.8-15.5L530.3,101.1L530.3,101.1z"/>
						</g>
					</g>
				</g>
			</g>
			<g>
				<g>
					<g>
						<g>
							<g>
								<path class="st15" d="M312.5,393.2c-7.2,0-13-5.8-13-13V118.9c0-7.1,5.7-12.9,12.8-13c3.2,0,6.4-0.1,9.6-0.1
									c21.1,0,42.5,0.9,63.6,2.7c6.7,0.6,11.9,6.3,11.9,13v258.3c0,7.1-5.8,12.9-12.9,13c-21.1,0.2-42.2,0.3-62.6,0.3L312.5,393.2
									z"/>
							</g>
						</g>
					</g>
					<g>
						<g>
							<g>
								<path class="st9" d="M391.3,121.5c0-3.5-2.7-6.5-6.2-6.8c-20.9-1.8-42-2.7-63.1-2.7c-3.2,0-6.3,0-9.5,0.1
									c-3.7,0-6.7,3.1-6.7,6.8v261.2c0,3.8,3,6.8,6.8,6.8c3.2,0,6.3,0,9.5,0c20.9,0,41.8-0.1,62.6-0.3c3.7,0,6.7-3.1,6.7-6.8
									L391.3,121.5L391.3,121.5z"/>
							</g>
						</g>
					</g>
					<g>
						<g>
							<g>
								<path class="st15" d="M333.2,132.8c10.3,0.2,20.7,0.5,31,1.2c3.6,0.2,6.4,3.2,6.4,6.8v218.7c0,3.7-3,6.8-6.8,6.8
									c-10.3,0.1-20.6,0.1-30.7,0.1c-3.8,0-6.8-3-6.8-6.8v-220C326.4,135.8,329.4,132.7,333.2,132.8z"/>
							</g>
						</g>
					</g>
					<g>
						<g>
							<g>
								<path class="st15" d="M418.2,393.4c-7.2,0-13-5.8-13-13V125.1c0-7.2,5.8-13,13-13c0.5,0,1,0,1.6,0.1
									c23.1,2.8,46.3,6.8,68.9,11.7c5.9,1.3,10.2,6.6,10.2,12.7v242.5c0,7.1-5.6,12.8-12.7,13c-22.3,0.6-45.1,1-67.8,1.3
									L418.2,393.4L418.2,393.4z"/>
							</g>
						</g>
					</g>
					<g>
						<g>
							<g>
								<path class="st9" d="M411.4,125.1v255.3c0,3.8,3.1,6.9,6.9,6.8c22.8-0.3,45.4-0.8,67.7-1.3c3.7-0.1,6.6-3.1,6.6-6.8V136.6
									c0-3.2-2.2-6-5.3-6.7c-22.5-4.9-45.3-8.8-68.3-11.6C414.9,117.9,411.4,121.1,411.4,125.1z"/>
							</g>
						</g>
					</g>
					<g>
						<g>
							<g>
								<path class="st15" d="M432,140.9c13.4,1.9,26.8,4.2,40,6.9v217.8c-13.3,0.3-26.6,0.6-40,0.8V140.9z"/>
							</g>
						</g>
					</g>
				</g>
				<g>
					<g>
						<g>
							<circle class="st9" cx="326.4" cy="162.7" r="16"/>
						</g>
					</g>
				</g>
				<g>
					<g>
						<g>
							<circle class="st9" cx="432" cy="177.7" r="16"/>
						</g>
					</g>
				</g>
			</g>
		</g>
		<g>
			<g>
				<g>
					<g>
						<g>
							<path class="st2" d="M503.4,547.5c12.1-11.9,15.6-28.6,13-49.5c-2.6-20.9-9.4-28.7-28.6-26c-52.3,7.3-105.2,10.1-158.9-0.1
								c-11.5-2.2-21.7,2.6-22.7,16.2c-1.9,24.3-1.4,48.9,21.1,64.2c1.1,0.9,2.3,1.8,3.4,2.6l1.3,0.8c0,0,22.9,21.8,72.4,19.6
								c49.4-2.1,80-7.5,98.9-27.8l0,0C503.3,547.6,503.4,547.6,503.4,547.5L503.4,547.5z M324.3,504.2c-5.7-2.1-9.4-7.1-7.8-14.1
								c1.4-6.2,6.5-7.4,11.6-6.8c8.4,0.9,16.7,2.7,25.1,3.5c44.7,4.6,88.9,3.4,132.3-3.7c7.6-1.3,16.7-4.4,19.5,7.2
								c2.9,12.2-7.3,14.3-15.1,16.4c-23.6,6.4-48.2,5.7-72.7,6.6c-23.4,0.2-46.8,2-70.2-2.5C339.3,509.4,331.7,507,324.3,504.2z
								 M339.1,549.3c27-24.9,99.4-23.5,130.1-0.1l-116,5.6C348.6,553.2,343.8,551.4,339.1,549.3z"/>
						</g>
					</g>
				</g>
				<g>
					<g>
						<g>
							<path class="st17" d="M496.8,543c11.6-11.4,15-27.4,12.5-47.4c-2.5-20.1-9-27.5-27.4-25c-50.2,7-100.8,9.7-152.3-0.1
								c-11-2.1-20.8,2.5-21.8,15.5c-1.8,23.3-1.4,46.9,20.2,61.6c1.1,0.8,2.2,1.7,3.2,2.5l1.3,0.8c0,0,21.9,20.9,69.4,18.8
								C449.2,567.7,478.6,562.5,496.8,543L496.8,543C496.7,543,496.8,543,496.8,543L496.8,543z M325.1,501.4c-5.4-2-9-6.8-7.4-13.5
								c1.4-6,6.3-7.1,11.1-6.6c8,0.9,16,2.5,24.1,3.4c42.9,4.4,85.2,3.3,126.8-3.6c7.3-1.2,16-4.2,18.7,6.9
								c2.8,11.7-7,13.7-14.4,15.7c-22.6,6.2-46.2,5.5-69.7,6.3c-22.4,0.2-44.9,1.9-67.3-2.4C339.5,506.4,332.2,504.1,325.1,501.4z
								 M339.3,544.7c25.9-23.9,95.3-22.5,124.7-0.1L352.8,550C348.3,548.4,343.8,546.7,339.3,544.7z"/>
						</g>
					</g>
				</g>
				<g>
					<g>
						<g>
							<path class="st18" d="M414.1,510.2c-22.4,0.2-44.8,1.9-67.3-2.4c-7.4-1.4-14.7-3.7-21.8-6.4c-5.4-2-9-6.8-7.4-13.5
								c1.4-6,6.3-7.1,11.1-6.6c8,0.9,16,2.5,24.1,3.4c42.9,4.4,85.2,3.3,126.8-3.6c7.3-1.2,16-4.2,18.7,6.9
								c2.8,11.7-7,13.7-14.4,15.7C461.3,510,437.6,509.3,414.1,510.2z"/>
						</g>
					</g>
				</g>
				<g>
					<g>
						<g>
							<path class="st7" d="M468.5,548.4c-43.4,11.1-85.1,15.7-129.2-3.7C366.6,519.5,442.3,522.4,468.5,548.4z"/>
						</g>
					</g>
				</g>
			</g>
			<g>
				<g>
					<g>
						<path class="st17" d="M342.2,463.7c-0.7,0.5-36.1-0.4-42,39.5c0,0-18.7-45.7,41.3-39"/>
					</g>
				</g>
			</g>
			<g>
				<g>
					<g>
						<path class="st17" d="M475.2,464c8.4,0.9,34.4,5.6,39.3,39.2C514.5,503.2,532.9,458.5,475.2,464z"/>
					</g>
				</g>
			</g>
			<g>
				<g>
					<g>
						<path class="st17" d="M380.4,584.9c0.9,0.1,27.7,14.8,77.4-3.1c0,0-40.9,33-76.5,3.3"/>
					</g>
				</g>
			</g>
		</g>
		<g>
			<g>
				<g>
					<g>
						<path class="st0" d="M137.4,365.6c-0.7,0-1.4-0.2-1.9-0.7c-0.7-0.6-1-1.4-1-2.2v-48.6c0-1.4,1-2.6,2.4-2.9
							c15.3-3,30.7-6,46.3-9c0.9-0.2,1.8,0.1,2.4,0.6c0.7,0.6,1.1,1.4,1.1,2.3v50.2c0,1.5-1.1,2.7-2.5,2.9c-15.5,2.5-31,5-46.3,7.4
							C137.7,365.6,137.6,365.6,137.4,365.6z M140.4,316.5v42.7c13.4-2.1,26.8-4.3,40.3-6.4v-44.1
							C167.2,311.3,153.8,313.9,140.4,316.5z M183.7,355.3L183.7,355.3L183.7,355.3z"/>
					</g>
				</g>
			</g>
			<g>
				<g>
					<g>
						<path class="st0" d="M142.7,352.7c-0.9,0-1.8-0.3-2.5-0.9c-0.9-0.7-1.4-1.8-1.4-3v-24.4c0-1.9,1.4-3.5,3.2-3.9l23.1-4.3
							c1.2-0.2,2.3,0.1,3.2,0.8c0.9,0.7,1.4,1.9,1.4,3v24.8c0,1.9-1.4,3.6-3.3,3.9c-7.7,1.3-15.4,2.6-23.1,3.9
							C143.1,352.7,142.9,352.7,142.7,352.7z M165.7,344.9L165.7,344.9L165.7,344.9z M146.6,327.7v16.5c5.1-0.9,10.1-1.7,15.2-2.6
							v-16.7L146.6,327.7z"/>
					</g>
				</g>
			</g>
		</g>
		<g>
			<g>
				<g>
					<g>
						<path class="st0" d="M56.1,505.3c-8,0-14.9-6.1-15.7-14.2c-7.1-72.7,23-115.7,49.5-139c28.5-25.1,58.9-32.8,60.1-33.1
							c8.4-2.1,17,3.1,19.1,11.5s-3,17-11.5,19.1c-4.1,1.1-96.8,26.2-85.9,138.4c0.8,8.7-5.5,16.4-14.2,17.2
							C57.2,505.3,56.7,505.3,56.1,505.3z"/>
					</g>
				</g>
			</g>
			<g>
				<g>
					<g>
						<path d="M135.7,480c0,0,49.9,68.6,28.4,101c0,0-32.2-28.1-34-30c-1.8-2-7.4-26-7.4-26v-3.1"/>
					</g>
				</g>
			</g>
			<g>
				<g>
					<g>
						<g>
							<path d="M135.6,551.2c-7.6,0-14-3.1-17.8-8.8c-3.1-4.5-4.2-10.4-2.7-14.3l0.6-1.5l1.3-0.6c1.2-0.8,3-1.5,5.5-1.5
								c3.1,0,6.6,1.2,10.4,3.5c4.9,3.1,10.1,4.8,14.5,4.8c2.5,0,4.7-0.5,6.5-1.5c0.5-0.3,0.9-0.6,1.3-0.9l5.9,5
								C159.7,538,151.2,551.2,135.6,551.2z"/>
						</g>
					</g>
				</g>
				<g>
					<g>
						<g>
							<path class="st19" d="M155.9,534.7c-6.9,3.9-16.5,2-25.1-3.3c-7-4.4-10.5-2.8-11.6-2.1c0,0-0.1,0-0.1,0.1
								c-0.2,0.1-0.3,0.2-0.3,0.2l0.1-0.1c-0.1,0-0.1,0.1-0.2,0.1c-1.8,4.5,2.1,17.7,16.8,17.7c13.5,0,20.9-11.6,22.2-13.8
								C157.2,533.9,156.6,534.3,155.9,534.7z"/>
						</g>
					</g>
				</g>
				<g>
					<g>
						<g>
							<path d="M147.5,540.7c-5.9,0-12.6-2.1-18.7-6c-3.3-2-5.3-2.3-6.2-2.3c-0.8,0-1.1,0.2-1.1,0.2s0.1-0.1,0.3-0.2l-5.9-5.3
								c3-3.6,4.5-4,9.3-4.8c1.5-0.3,3.5-0.6,6.2-1.2c5.8-1.2,5.9-1.4,7.2-5c0.5-1.4,1.1-3.1,2.1-5.2c2.4-5,6.5-7.8,11.3-7.8
								c5,0,9.9,3.2,12.7,8.4c5.1,9.5,2,21.7-6.9,26.6C154.8,539.8,151.3,540.7,147.5,540.7z"/>
						</g>
					</g>
				</g>
				<g>
					<g>
						<g>
							<path class="st20" d="M118.9,529.6c0,0,3.5-3.5,12,1.8s18.1,7.2,25.1,3.3c6.9-3.9,9.5-13.6,5.3-21.3s-13.1-8.9-17-0.8
								c-3.9,8.2-1.6,10.1-12.1,12.3C121.7,527.2,121.8,526,118.9,529.6z"/>
						</g>
					</g>
				</g>
			</g>
			<g>
				<g>
					<g>
						<g>
							<path d="M161,499.3c-5.7-0.8-10.1-3.8-12.3-8.4c-1.8-3.7-2-8.2-0.5-10.9l0.6-1l1-0.3c1-0.4,2.4-0.8,4.3-0.6
								c2.3,0.3,4.8,1.6,7.4,3.7c3.3,2.8,7,4.6,10.3,5.1c1.8,0.3,3.5,0.1,5-0.5c0.4-0.1,0.7-0.3,1.1-0.5l3.9,4.4
								C180.3,492.1,172.6,501,161,499.3z"/>
						</g>
					</g>
				</g>
				<g>
					<g>
						<g>
							<path class="st19" d="M177.9,489.2c-5.6,2.1-12.5-0.3-18.3-5.2c-4.7-4-7.6-3.2-8.4-2.8c0,0,0,0-0.1,0
								c-0.2,0.1-0.2,0.1-0.2,0.1s0,0,0.1-0.1h-0.1c-1.8,3.2-0.3,13.4,10.6,14.9c10,1.4,16.8-6.4,18-7.9
								C179,488.8,178.4,489,177.9,489.2z"/>
						</g>
					</g>
				</g>
				<g>
					<g>
						<g>
							<path d="M171,492.8c-4.4-0.6-9.1-2.9-13.3-6.4c-2.2-1.9-3.7-2.3-4.4-2.4c-0.6-0.1-0.9,0-0.9,0s0.1,0,0.2-0.2l-3.8-4.5
								c2.6-2.4,3.8-2.5,7.4-2.6c1.2,0,2.7-0.1,4.8-0.2c4.5-0.3,4.6-0.4,5.9-2.9c0.5-1,1.2-2.2,2.1-3.7c2.3-3.4,5.7-5.1,9.3-4.6
								c3.7,0.5,7,3.5,8.6,7.6c2.8,7.6-0.8,16.4-8,19.1C176.5,493,173.8,493.2,171,492.8z"/>
						</g>
					</g>
				</g>
				<g>
					<g>
						<g>
							<path class="st20" d="M150.8,481.5c0,0,3-2.3,8.7,2.6s12.8,7.3,18.3,5.2s8.5-9.1,6.2-15.3c-2.3-6.2-8.8-8.1-12.6-2.4
								s-2.3,7.4-10.3,7.9S153.4,479.1,150.8,481.5z"/>
						</g>
					</g>
				</g>
			</g>
			<g>
				<g>
					<g>
						<g>
							<path d="M161.2,576.1c-20.4-30.7-29.1-60.4-26.4-90.7l0.6-6.4l-24.6,17.7L29.4,520l-29.1-0.3l31.2,102.5l21.4-16.8l86.2-24.6
								h25.2L161.2,576.1z M138.6,577.8l-87.2,24.9L33,617.1L4.2,522.7l25.5,0.3l82.3-23.5l19.8-14.2c-2.9,32.1,7.1,62.9,26.9,92.6
								L138.6,577.8z"/>
						</g>
					</g>
				</g>
				<g>
					<g>
						<g>
							<g>
								<path class="st7" d="M128.6,491.2l-15.1,10.9l-0.5,0.1l-82.7,23.6l-21.9-0.2l26.3,86.5l15.5-12.2l88.2-25.1h15.1
									C135.8,547,127.5,518.9,128.6,491.2z"/>
							</g>
						</g>
					</g>
					<g>
						<g>
							<g>
								<path class="st21" d="M113.6,549.8c0.5-13.8-14.5-9.3-14.5-9.3s-14,3.5-16.3,7.6c-2.3,4.1-3.9,10-4.4,11.2l23.2,11.4
									C101.5,570.8,113,563.6,113.6,549.8z"/>
							</g>
						</g>
					</g>
					<g>
						<g>
							<g>
								<path class="st20" d="M150.5,577.8L150.5,577.8c0,0-46.4-0.3-67.2-22.9c-20.8-22.7-56.1-29.2-56.1-29.2l-13.4-2.9l-9.5-0.1
									L33,617.1l18.5-14.5l87.2-24.9L150.5,577.8z"/>
							</g>
						</g>
					</g>
					<g>
						<g>
							<g>
								<path class="st19" d="M14.8,530.1l11.6-2.9l-5.2-2.9l-7.4-1.6l-9.5-0.1L33,617.1l18.5-14.5l43.2-12.3c4-3,6.6-5,6.6-5
									l-64.6,14.8L14.8,530.1z"/>
							</g>
						</g>
					</g>
					<g>
						<g>
							<g>
								<path class="st19" d="M104.6,568.8c-8-3.3-15.6-7.8-21.3-14c-2.9-3.2-6.1-6-9.4-8.5c-7-0.9-12.5-1.6-12.5-1.6l-12.9,3.9
									l-2.1,17.6c0,0,11.1,12.7,29.2,12.2C90.7,577.9,101.5,571,104.6,568.8z"/>
							</g>
						</g>
					</g>
					<g>
						<g>
							<g>
								<path d="M131.9,485.2l-19.8,14.2l-82.3,23.5l-25.5-0.3L33,617.1l18.5-14.5l87.2-24.9h20.1C139,548.1,129,517.3,131.9,485.2z
									 M138.2,574.8L50,599.9l-15.5,12.2L8.2,525.6l21.9,0.2l82.7-23.6l0.5-0.1l15.1-10.9c-1,27.7,7.3,55.8,24.8,83.6H138.2z"/>
							</g>
						</g>
					</g>
				</g>
			</g>
			<g>
				<g>
					<g>
						<g>
							<g>
								<path d="M83,573.1c-0.9,0-1.8-0.1-2.7-0.3c-1.5-0.4-3-0.6-4.8-0.6c-1.9,0-3.8,0.2-5.8,0.4l-1.4,0.1
									c-0.6,0.1-1.2,0.1-1.8,0.1c-5.3,0-10.1-2.2-14.2-6.5c-0.9,0.2-1.8,0.3-2.6,0.3c-2.9,0-5.2-1.2-6.7-2.1
									c-4.9-3-8.4-7.1-10.3-12.1l-0.8-2.1c-2.7-5.7-3.7-11.8-4.6-17.7L27,531c-1.7-8.6-1.3-16.7,1-24.6c0.6-2,1.3-4.1,2.6-6.1
									l0.3-0.5c-1.1-1.1-1.6-2.6-1.5-4.8v-0.2c0.1-3,1.3-7.4,6.5-11.2c9-6.6,19.1-10.5,30.1-11.7c1-0.1,2-0.2,2.9-0.2
									c3,0,5.8,0.5,8.3,1.6c6.1,2.6,7.4,6.5,7.4,9.5c2.5,0.7,5.5,1.7,7.8,3.6c2.1-0.5,4.3-1,6.2-2.2l0.8-0.5c2.4-1.5,5-3,8-4
									c2.4-0.8,4.8-1.3,7.1-1.3c7.4,0,12.5,4.6,12.6,11.4c0.1,7.7-6,16-14.6,19.7c-2.9,1.2-5.8,1.9-8.9,1.9c-0.1,0-0.2,0-0.3,0
									c0.2,0.6,0.4,1.1,0.6,1.7c0.8,2.2,1.7,4.4,2.8,6.5c2.2,3.9,4.1,8.2,5.8,13c1.5,4.3,3,10,1.3,16.5c-2,7.5-7.2,12.1-15.1,13.5
									C95.7,568.5,88.8,573.1,83,573.1z M49,538.3c2.3,0.3,5.2,1.5,5.7,6c0,0.1,0,0.2,0,0.3c1,5.5,2.4,9.8,4.4,13.7
									c1.4,2.7,4.7,4.5,8.4,4.8c-2.3-4.5-3.4-9.3-4.4-14c-0.2-1-0.4-2-0.7-3.1c-0.6-2.7-1.3-5.9-1.4-9.3l-0.5-12l7.5,9.4
									c2.8,3.5,4,7.5,4.8,10.5l0.5,2.1c1.1,4.4,2.1,8.6,4.1,12.3c0.6,1.2,1.3,2,2.1,2.7c0.7,0.6,1.8,0.9,3.1,0.9
									c2.3,0,4.7-1.1,6.1-2.7c-4.3-3.5-5.7-8.2-7.1-12.4l-0.2-0.7c-1.4-4.4-2.2-8.9-3-13.6l7-3c2.8,3.7,4.1,7.7,5.4,11.6l0.5,1.5
									c0.9,2.7,1.7,5.2,3.2,7.3c1.3,1.9,1.8,2.1,2.7,2.1c0.2,0,0.5,0,0.8-0.1c2-0.3,3.2-1.4,4.7-3.8c1.4-2.4,1.5-4.7,0.6-8.2
									c-1.7-6-4.3-11.7-7-17.6c-0.6-1.3-1.2-2.6-1.8-3.9c-1.4-3.2-3-6.9-3-11.2c-1.2-0.7-3.4-2.3-3.3-5.4l0.1-3.8h3.8
									c2.4,0,4.2,0.7,5.6,1.3c0.5,0.2,1,0.4,1.5,0.5c1.3,0.4,2.7,0.6,4,0.6c5.6,0,10.4-3.3,12.1-8.4c0.9-2.7,0.5-3,0.4-3.1
									c-0.3-0.2-0.8-0.5-1.8-0.5c-1.4,0-3.2,0.5-4.5,0.9c-1.6,0.5-3.1,1.4-4.8,2.4c-0.8,0.5-1.7,1-2.6,1.5
									c-3.3,1.7-6.6,2.6-10.3,2.6c-2.1,0-4.3-0.3-6.8-0.9c-2.3-0.6-3.2-2.3-3.6-3.3c-3.2-1.3-6.7-1.9-10.7-1.9
									c-1.3,0-2.6,0.1-4,0.2l-6,0.5l1.1-3.3l-2.4-0.4l2.6-4.4c-3.4,0.6-6.7,1.6-10,3.1l2.8,7.1c-1.6,1-3.1,1.9-4.5,2.7
									c-1.7,0.9-3.2,1.8-4.6,2.8c-5.3,4-8,8.9-8.7,15.9c-0.5,5.1-0.2,10.2,0.5,16.2c0.5,4.8,2,9.4,3.5,14.2l0.4,1.4l0.9,1.9
									c1.4,2.6,2.7,4.7,4.5,6.5c-0.7-2.9-1.1-5.9-1.6-8.8c-0.2-1-0.3-2.1-0.5-3.1l-0.9-5.2L49,538.3z"/>
							</g>
						</g>
					</g>
					<g>
						<g>
							<g>
								<path class="st17" d="M108.6,483.7c-2.9,1-5.5,2.6-8,4.2c-2.4,1.4-4.9,2-7.4,2.6c-1,0.2-1.9,0.4-2.8-0.4
									c-2.2-2.1-5.4-2.9-8.6-3.7c-0.9-0.2-1.9,0-1.5-1.5c1.2-3.9-1.2-6.2-4.7-7.7c-2.8-1.2-6-1.5-9.3-1.1
									c-10.3,1.1-19.7,4.8-28.2,10.9c-3,2.2-4.8,4.9-4.9,8.1c0,0.8-0.2,1.8,0.5,2.1c3.1,1.5,1.4,3.3-0.1,5.4
									c-1.1,1.5-1.6,3.3-2.1,4.9c-2.3,7.9-2.3,15.5-0.9,22.9c1,6.3,1.8,12.6,4.6,18.4c0.3,0.7,0.6,1.5,0.8,2.2
									c1.7,4.2,4.6,7.6,8.7,10.1c2,1.3,4.4,2.2,7.3,1c1.5-0.6,1.7,0.2,2.3,0.8c3.2,3.6,7.4,6.3,13.3,5.8c4.6-0.4,8.9-1,13.4,0.1
									c4.8,1.2,11.6-3.3,13.9-8.1c0.4-0.8,0.2-1.5,1.9-1.7c7-0.9,11.1-4.6,12.7-10.7c1.3-5.1,0.4-9.7-1.2-14.2
									c-1.5-4.3-3.3-8.4-5.5-12.4c-1.2-2.2-2.2-4.6-3.1-7s-1.5-4.8-2.4-7.7c4.5,1,8.6,1.2,13.1-0.8c7-3.1,12.4-9.9,12.3-16.1
									C122.9,483.8,116.6,480.9,108.6,483.7z M119,494.2c-2.9,8.4-11.9,12.9-20.9,10.3c-1.9-0.5-3.6-1.7-6-1.7
									c-0.1,2.3,3.4,1.9,3.3,4.2c-0.2,3.9,1.1,7.3,2.7,10.7c3.3,7.2,6.9,14.3,9,22c1,3.6,1.3,7.3-1,11.2c-1.6,2.7-3.7,5.1-7.5,5.7
									c-4,0.6-5.7-1.5-7.3-3.7c-2-2.8-3-6.1-4-9.3c-1.3-3.8-2.5-7.7-5-11c0.7,4.4,1.5,8.8,2.9,13c1.4,4.4,2.7,9,6.9,11.9
									c1.6,1.1,1.4,2.3,0.5,3.7c-3.2,5.2-11.3,7-15.5,3.5c-1.3-1.1-2.2-2.4-3-3.8c-2.6-4.8-3.7-10.1-5-15.4
									c-0.8-3.2-1.9-6.3-4.1-9c0.1,3,0.7,5.8,1.3,8.6c1.6,6.8,2.5,13.9,6.9,19.7c1.2,1.6-0.5,1.7-1.7,1.9
									c-6.4,1.3-13.2-1.5-15.9-6.6c-2.4-4.6-3.9-9.6-4.8-14.8c-0.2-1.2,0.1-2.8-2.3-3.1c0.9,5.4,1.5,10.8,3.2,15.9
									c0.2,0.7,1.4,1.4,0.3,2.3c-1,0.8-2.3,0.5-3.3,0.2c-1.7-0.4-2.8-1.3-3.9-2.3c-2.7-2.4-4.4-5.3-6-8.3
									c-0.4-0.7-0.7-1.4-1.1-2.1c-1.7-5.4-3.6-10.8-4.2-16.6c-0.6-5.6-1.1-11.2-0.5-17c0.7-6.9,3.3-13.4,10.3-18.6
									c2.7-2,5.9-3.4,9.3-5.6c-0.9,0.2-1.2,0.2-1.5,0.3c-2,0.8-4,1.7-6,2.5c-0.5,0.2-1.2,0.6-1.6,0.5c-1.2-0.3-1.6-0.3-2.1,0.5
									c-0.5,0.7-0.8,1.6-1.4,2.2c-0.7,0.6-1.3,1.9-2.5,1.5c-1-0.3-1.8-1-1.8-2.1c0.1-2.2,1.1-4.2,3.2-5.8c9.3-7,19.5-11.1,31.1-11
									c3.5,0,5.9,1.5,7.8,3.5c0.7,0.7,0.9,1.6,0.2,2.7c-0.8,1.3-1.8,0.6-2.7,0.7c-1.3,0.1-2.4-0.3-3.4-0.8
									c-1.6-0.8-3.4-1.2-5.5-0.8c-0.1,0.2-0.3,0.5-0.4,0.7c1,0.2,1.9,0.3,2.9,0.5c-0.5,1-2,0.7-2.3,1.7c6.4-0.6,12.2,0,17.5,2.4
									c1.5,0.7,0.8,2.4,2.1,2.7c4.6,1.2,9.2,1.3,14.2-1.3c2.6-1.4,5.1-3.2,8-4.1c3.5-1.1,7.2-1.8,9.9,0.2
									C120.5,488.5,119.9,491.4,119,494.2z"/>
							</g>
						</g>
					</g>
					<g>
						<g>
							<g>
								<path class="st22" d="M48.7,560.6c1.1,0.2,2.3,0.6,3.3-0.2c1.2-0.9,0-1.6-0.3-2.3c-1.7-5.1-2.3-10.5-3.2-15.9
									c2.4,0.3,2.1,1.9,2.3,3.1c0.9,5.2,2.4,10.2,4.8,14.8c2.7,5.1,9.4,7.9,15.9,6.6c1.2-0.3,3-0.3,1.7-1.9
									c-4.4-5.8-5.3-12.8-6.9-19.7c-0.6-2.8-1.2-5.6-1.3-8.6c2.1,2.7,3.3,5.8,4.1,9c1.3,5.2,2.4,10.6,5,15.4
									c0.8,1.4,1.7,2.7,3,3.8c4.3,3.6,12.3,1.8,15.5-3.5c0.9-1.4,1.1-2.6-0.5-3.7c-4.2-2.9-5.5-7.5-6.9-11.9
									c-1.3-4.2-2.1-8.6-2.9-13c2.5,3.3,3.7,7.2,5,11c1.1,3.2,2,6.5,4,9.3c1.6,2.2,3.3,4.3,7.3,3.7c3.8-0.6,5.9-3,7.5-5.7
									c2.3-3.9,2-7.6,1-11.2c-2.1-7.7-5.7-14.8-9-22c-1.5-3.4-2.9-6.8-2.7-10.7c0.1-2.3-3.4-1.9-3.3-4.2c2.4,0,4,1.1,6,1.7
									c9,2.5,18.1-1.9,20.9-10.3c1-2.8,1.5-5.7-1-7.6c-2.7-2-6.3-1.3-9.9-0.2c-2.9,0.9-5.4,2.7-8,4.1c-5,2.6-9.6,2.5-14.2,1.3
									c-1.3-0.3-0.6-2.1-2.1-2.7c-5.2-2.3-11-2.9-17.5-2.4c0.3-1,1.8-0.7,2.3-1.7c-1-0.2-1.9-0.3-2.9-0.5
									c-0.5-0.3-1.7,0.6-1.6-0.2c0.1-0.5,1.2-1,2-0.5c2.1-0.4,3.9,0,5.5,0.8c1.1,0.5,2.1,0.9,3.4,0.8c0.9-0.1,1.9,0.6,2.7-0.7
									c0.7-1.1,0.5-2-0.2-2.7c-1.9-2-4.3-3.5-7.8-3.5c-11.6-0.1-21.8,4-31.1,11c-2.1,1.6-3.1,3.6-3.2,5.8c0,1.1,0.8,1.8,1.8,2.1
									c1.2,0.4,1.8-0.9,2.5-1.5s0.9-1.5,1.4-2.2c0.6-0.8,1-0.8,2.1-0.5c0.4,0.1,1-0.3,1.6-0.5c2-0.8,4-1.7,6-2.5
									c0.3-0.1,0.6-0.1,1.5-0.3c-3.4,2.2-6.6,3.6-9.3,5.6c-7.1,5.3-9.6,11.7-10.3,18.6c-0.6,5.8-0.1,11.4,0.5,17
									c0.6,5.8,2.5,11.2,4.2,16.6c0.4,0.7,0.7,1.4,1.1,2.1c1.6,3,3.4,5.9,6,8.3C45.9,559.3,47,560.3,48.7,560.6z"/>
							</g>
						</g>
					</g>
				</g>
				<g>
					<g>
						<g>
							<path class="st17" d="M66.1,483.9c-0.8-0.5-1.9,0-2,0.5c-0.1,0.8,1.1-0.1,1.6,0.2C65.8,484.4,66,484.2,66.1,483.9z"/>
						</g>
					</g>
				</g>
			</g>
			<g>
				<g>
					<g>
						<line class="st23" x1="119.4" y1="507.8" x2="98.6" y2="513.4"/>
					</g>
				</g>
			</g>
			<g>
				<g>
					<g>
						<path class="st17" d="M93.4,506.3c0,0,3.4,3.9,15.3,2.7c12-1.1,17-10.2,17-10.2l-6.3-2.5c0,0-4.8,7.8-13.3,8.5
							s-12.6-3.9-13.3-2c-0.7,1.9,1.3,5.2,1.3,5.2"/>
					</g>
				</g>
			</g>
			<g>
				<g>
					<g>
						<path class="st22" d="M95.2,502.7c0,0,7.6,3.5,13.9,1.5s9.2-7.2,9.2-7.2s-5.8-2.7-6.2-2.7c-0.4,0-6.9,0.8-6.9,0.8"/>
					</g>
				</g>
			</g>
			<g>
				<g>
					<g>
						<path class="st14" d="M127.3,524.9c0,0,4.2,16.2,7.6,24.6c3.4,8.4,10,17.7,10.1,19.1c0.1,1.4-12.2,3.1-14,2.6
							s-16.1-4.4-16.1-4.4s14.9,2.1,19.3-0.4s-6.1-24.5-6.9-31.5S127.3,524.9,127.3,524.9z"/>
					</g>
				</g>
			</g>
			<g>
				<g>
					<g>
						<path d="M127.3,485.5l-34.5,17.2c0,0,9.8,7.8,11.5,10.3s10.3,0.7,10.3,0.7l9.5-8.3l1.6-6.6l0.6-2.2"/>
					</g>
				</g>
			</g>
			<g>
				<g>
					<g>
						<path class="st7" d="M128.9,492.2l-28.6,12.2l4.8,11.1l2.8-0.7c0,0,5.2-0.7,8.2-1.3s7-2.2,7-2.2s3.6-4.9,3.9-5.9
							s0.7-5.8,0.6-6.2"/>
					</g>
				</g>
			</g>
			<g>
				<g>
					<g>
						<path class="st14" d="M105.3,505.2L126,496c0,0-0.3,12.1,1.3,17.8c0,0-4.1-8.4-3.9-14.2C123.4,499.6,107.3,505.7,105.3,505.2z
							"/>
					</g>
				</g>
			</g>
			<g>
				<g>
					<g>
						<path class="st24" d="M136.5,489.4c0,0,7.2,11.4,8.6,14.4c0,0-4.2,4.5-4.9,7.7s-0.2-0.3-0.2-0.3S133.8,495.1,136.5,489.4z"/>
					</g>
				</g>
			</g>
			<g>
				<g>
					<g>
						<path class="st24" d="M161.5,541c0,0,2.8,14.6,3.1,20.6s-3.1,12.1-3.1,12.1s-8.4-11.9-9.9-15.4s-3.7-7.7-3.7-7.7L162,541"/>
					</g>
				</g>
			</g>
			<g>
				<g>
					<g>
						<path class="st17" d="M35.2,505.3c0,0,12.7-13.4,21.1-16.4c0,0-12.2,1.8-16.7,5.5c-4.5,3.6-3.6-1-3.4-1.6
							c0.2-0.5-2.5,0.4-2.6,2.5s0,2.5,0,3.8s-0.1,2-0.1,2"/>
					</g>
				</g>
			</g>
			<g>
				<g>
					<g>
						<path class="st22" d="M66.1,486.8c0,0,8.2-1.4,10.3-1.2c2.1,0.2-7.5-4.5-8.6-4.6c-1.1-0.2-3.3-1.7-4.1-0.1
							c-0.8,1.6-1.5,2.2-1.6,2.5c-0.1,0.2-0.4,1.1-0.5,1.4s-0.6,1.3-0.6,1.4"/>
					</g>
				</g>
			</g>
			<g>
				<g>
					<g>
						<path class="st17" d="M48.5,542.2c0,0,1.2,12.3,1.8,14.2s2.2,2.7,2.2,3.3s1.2,0.2,1.1-0.6c-0.1-0.8-0.5-3.9-0.5-3.9"/>
					</g>
				</g>
			</g>
			<g>
				<g>
					<g>
						<path class="st17" d="M65,536.6c0,0,0.1,6.8,0.5,11c0.5,4.3,3.2,13.1,4.4,14.7s2.9,3,3.5,3.4s0.6,0.5,0.6,0.5"/>
					</g>
				</g>
			</g>
			<g>
				<g>
					<g>
						<path class="st17" d="M82.7,533c0,0-0.8,7.7,1.8,15c2.6,7.3,9.2,11.9,9.2,11.9h1.1"/>
					</g>
				</g>
			</g>
		</g>
		<g>
			<g>
				<g>
					<g>
						<g>
							<path class="st17" d="M557,197.6c13.7,0.5,27.4,1,41,1.7c0-26.9,0-35.7,0-62.6c-13.6-1.2-27.3-2.2-41-3
								C557,161.1,557,170.3,557,197.6z"/>
						</g>
					</g>
					<g>
						<g>
							<path class="st0" d="M600.9,202.5l-3.1-0.2c-13.6-0.7-27.3-1.3-40.9-1.7l-2.9-0.1v-69.9l3.1,0.2c13.7,0.8,27.5,1.8,41.1,3
								l2.7,0.2L600.9,202.5L600.9,202.5z M559.9,194.8c11.7,0.4,23.4,0.9,35.1,1.5v-56.8c-11.6-1-23.3-1.9-35.1-2.6V194.8z"/>
						</g>
					</g>
				</g>
				<g>
					<g>
						<g>
							<g>
								<path class="st0" d="M602.6,122.4l-6.5-0.3c-12.5-0.6-25.2-1-37.8-1.4l-6-0.2V83.9l6.6,0.3c12.7,0.6,25.5,1.4,38,2.4
									l5.7,0.4V122.4z M558.2,114.8h0.3c12.6,0.4,25.3,0.8,37.9,1.4h0.4V92.5h-0.3c-12.5-1-25.2-1.8-37.9-2.4h-0.4V114.8z"/>
							</g>
						</g>
					</g>
					<g>
						<g>
							<g>
								<path class="st25" d="M597.5,117.1c-13.3-0.6-26.8-1.1-40.2-1.5V89.2c13.4,0.7,26.9,1.5,40.2,2.5V117.1z"/>
							</g>
						</g>
					</g>
				</g>
				<g>
					<g>
						<g>
							<g>
								<polygon class="st26" points="560.5,148.4 568.7,148.9 568.7,137.9 560.5,137.4 								"/>
							</g>
						</g>
					</g>
					<g>
						<g>
							<g>
								<polygon class="st26" points="560.5,177.4 568.7,177.7 568.7,167.7 560.5,167.3 								"/>
							</g>
						</g>
					</g>
					<g>
						<g>
							<g>
								<polygon class="st26" points="560.5,162.9 568.7,163.3 568.7,153.2 560.5,152.8 								"/>
							</g>
						</g>
					</g>
					<g>
						<g>
							<g>
								<polygon class="st26" points="574,163.5 582,164 582,153.9 574,153.5 								"/>
							</g>
						</g>
					</g>
					<g>
						<g>
							<g>
								<polygon class="st26" points="574,149 582,149.4 582,138.6 574,138.1 								"/>
							</g>
						</g>
					</g>
					<g>
						<g>
							<g>
								<polygon class="st26" points="574,177.9 582,178.3 582,168.3 574,167.9 								"/>
							</g>
						</g>
					</g>
					<g>
						<g>
							<g>
								<polygon class="st26" points="586.7,138.8 586.7,149.7 594.7,150.1 594.7,139.3 								"/>
							</g>
						</g>
					</g>
					<g>
						<g>
							<g>
								<polygon class="st26" points="586.7,178.5 594.7,178.8 594.7,168.9 586.7,168.5 								"/>
							</g>
						</g>
					</g>
					<g>
						<g>
							<g>
								<polygon class="st26" points="560.5,190.9 568.7,191.3 568.7,181.2 560.5,180.8 								"/>
							</g>
						</g>
					</g>
					<g>
						<g>
							<g>
								<polygon class="st26" points="574,191.5 582,191.8 582,181.8 574,181.4 								"/>
							</g>
						</g>
					</g>
					<g>
						<g>
							<g>
								<polygon class="st26" points="586.3,192 594.3,192.4 594.3,182.4 586.3,182.1 								"/>
							</g>
						</g>
					</g>
					<g>
						<g>
							<g>
								<polygon class="st26" points="586.7,164.2 594.7,164.6 594.7,154.6 586.7,154.2 								"/>
							</g>
						</g>
					</g>
				</g>
				<g>
					<g>
						<g>
							<polygon class="st9" points="561.7,103.5 560.3,101.9 561,101.2 568.4,92.5 570,93.8 							"/>
						</g>
					</g>
				</g>
				<g>
					<g>
						<g>
							<polygon class="st9" points="566.8,104.3 565.7,103.1 566.4,102.5 566,102.2 569.4,98.2 570.9,99.4 							"/>
						</g>
					</g>
				</g>
			</g>
			<g>
				<g>
					<g>
						<g>
							<path class="st15" d="M598.1,238c-13.6-0.7-27.4-1.3-41-1.7l-3.1-0.1V290l2.9,0.1c13.7,0.3,27.5,0.6,40.9,1l3,0.1v-53
								L598.1,238z"/>
						</g>
					</g>
				</g>
				<g>
					<g>
						<g>
							<polygon class="st16" points="559.9,261.1 559.9,266.4 595,267.3 595,261.9 							"/>
						</g>
					</g>
				</g>
				<g>
					<g>
						<g>
							
								<rect x="576.4" y="256.2" transform="matrix(2.950639e-02 -0.9996 0.9996 2.950639e-02 287.5661 842.0592)" class="st16" width="2" height="33.4"/>
						</g>
					</g>
				</g>
			</g>
		</g>
	</g>
	<g>
		<g>
			<g>
				<g>
					<g>
						<rect x="555.7" y="382.1" class="st15" width="43.9" height="57.4"/>
					</g>
				</g>
			</g>
			<g>
				<g>
					<g>
						<polygon class="st15" points="556.5,439.5 552.2,441.3 552.2,383.9 556.5,382.1 						"/>
					</g>
				</g>
			</g>
			<g>
				<g>
					<g>
						<rect x="559.4" y="384.8" class="st27" width="34.1" height="1.5"/>
					</g>
				</g>
			</g>
		</g>
		<g>
			<g>
				<g>
					<rect x="560.3" y="390.3" class="st28" width="32.5" height="8.1"/>
				</g>
			</g>
		</g>
		<g>
			<g>
				<g>
					<rect x="560.4" y="400.9" class="st28" width="2.8" height="2.8"/>
				</g>
			</g>
		</g>
		<g>
			<g>
				<g>
					<rect x="570.7" y="400.9" class="st28" width="2.8" height="2.8"/>
				</g>
			</g>
		</g>
		<g>
			<g>
				<g>
					<rect x="581" y="400.9" class="st27" width="2.8" height="2.8"/>
				</g>
			</g>
		</g>
		<g>
			<g>
				<g>
					<rect x="591.2" y="400.9" class="st28" width="2.8" height="2.8"/>
				</g>
			</g>
		</g>
		<g>
			<g>
				<g>
					<rect x="560.3" y="408" class="st27" width="8.1" height="5.6"/>
				</g>
			</g>
		</g>
		<g>
			<g>
				<g>
					<rect x="573" y="407.7" class="st27" width="8.9" height="6.2"/>
				</g>
			</g>
		</g>
		<g>
			<g>
				<g>
					<rect x="585.1" y="407.7" class="st28" width="8.9" height="6.2"/>
				</g>
			</g>
		</g>
		<g>
			<g>
				<g>
					<path class="st15" d="M577.7,434.9c0,0-15.2-2.3-15.5-1.7c-0.2,0.6-4.9,1.5-5.5,2.3s-1,1.1-1,1.4s0,0.3,0,0.3l-3.5,4h47.4
						c0,0-0.7-3.5,0-3.5C600.3,437.7,577.7,434.9,577.7,434.9"/>
				</g>
			</g>
		</g>
		<g>
			<g>
				<g>
					<g>
						<g>
							<path class="st27" d="M585.6,424.3c-0.1,0.3-0.2,0.5-0.5,0.7c-0.4,0.2-0.8,0.2-1.2-0.1c-0.3-0.3-0.7-0.6-1-0.9
								c-1.3-1-2.8-1.7-4.4-1.9c-2.2-0.3-4.2,0-6.2,1c-0.9,0.4-1.6,1-2.3,1.7c-0.1,0.1-0.3,0.2-0.4,0.3c-0.4,0.2-0.9,0-1.2-0.4
								s-0.2-0.9,0.2-1.3c1.2-1.2,2.6-2.1,4.2-2.7c1.1-0.4,2.2-0.7,3.3-0.7c2.7-0.2,5.2,0.5,7.4,1.9c0.7,0.4,1.3,0.9,1.8,1.5
								c0.1,0.1,0.2,0.3,0.3,0.5C585.6,424,585.6,424.2,585.6,424.3z"/>
						</g>
					</g>
				</g>
				<g>
					<g>
						<g>
							<path class="st27" d="M576.9,423.8c2.4,0,4.4,0.9,6.1,2.5c0.6,0.6,0.4,1.5-0.4,1.7c-0.3,0.1-0.6,0-0.9-0.2
								c-0.3-0.2-0.6-0.5-0.9-0.7c-0.9-0.7-1.9-1.1-3-1.2c-1.6-0.2-3.1,0.1-4.5,1c-0.4,0.2-0.7,0.5-1,0.8c-0.4,0.3-0.7,0.4-1.2,0.2
								c-0.7-0.3-0.8-1.1-0.3-1.6c0.4-0.4,0.8-0.7,1.3-1.1c1.2-0.8,2.5-1.3,3.9-1.4C576.4,423.8,576.6,423.8,576.9,423.8z"/>
						</g>
					</g>
				</g>
				<g>
					<g>
						<g>
							<path class="st27" d="M576.8,427.5c1,0,1.9,0.2,2.7,0.7c0.4,0.2,0.8,0.5,1.1,0.8c0.5,0.4,0.5,1,0.1,1.5
								c-0.4,0.4-1,0.4-1.4,0.1s-0.8-0.6-1.3-0.8c-1.2-0.4-2.2-0.2-3.2,0.6c-0.1,0.1-0.2,0.1-0.2,0.2c-0.4,0.4-1.1,0.3-1.4-0.1
								c-0.4-0.4-0.3-1,0.1-1.4c0.9-0.8,1.9-1.3,3.1-1.5c0.1,0,0.1,0,0.2,0C576.6,427.5,576.7,427.5,576.8,427.5z"/>
						</g>
					</g>
				</g>
				<g>
					<g>
						<g>
							<path class="st27" d="M578.6,433.2c0,0.9-0.8,1.7-1.7,1.7c-1,0-1.7-0.8-1.7-1.7c0-1,0.7-1.7,1.7-1.7
								C577.9,431.5,578.6,432.2,578.6,433.2z"/>
						</g>
					</g>
				</g>
			</g>
		</g>
	</g>
	<g>
		<g>
			<g>
				<g>
					<circle class="st17" cx="576.9" cy="337.3" r="19.9"/>
				</g>
			</g>
		</g>
		<g>
			<g>
				<g>
					<circle class="st29" cx="576.9" cy="337.3" r="16"/>
				</g>
			</g>
		</g>
		<g>
			<g>
				<g>
					<rect x="575.1" y="326.1" class="st17" width="3.7" height="21"/>
				</g>
			</g>
		</g>
	</g>
	<g>
		<g>
			<g>
				<polygon class="st17" points="558.4,508 558.4,543.2 595.5,538.6 595.5,506.7 				"/>
			</g>
			<g>
				<path class="st0" d="M555.4,546.5v-41.3l43-1.5v37.5L555.4,546.5z M561.4,510.9v28.9l31.2-3.9v-26.2L561.4,510.9z"/>
			</g>
		</g>
		<g>
			<g>
				<polygon class="st27" points="577.3,524.9 559.6,527.1 559.6,541.9 590.9,539.1 				"/>
			</g>
		</g>
	</g>
	<g>
		<g>
			<path class="st7" d="M711.5,224.8l-1.2-3.5c-0.4-1.2,0.2-2.4,1.4-2.8l5.4-1.8c0,0,2.6,0.1,2.8,0.4"/>
		</g>
	</g>
</g>
</svg>
