<?xml version="1.0" encoding="utf-8"?>
<!-- Generator: Adobe Illustrator 27.9.1, SVG Export Plug-In . SVG Version: 6.00 Build 0)  -->
<svg version="1.1" id="Layer_1" xmlns="http://www.w3.org/2000/svg" xmlns:xlink="http://www.w3.org/1999/xlink" x="0px" y="0px"
	 viewBox="0 0 490.7 437.4" style="enable-background:new 0 0 490.7 437.4;" xml:space="preserve">
<style type="text/css">
	.st0{opacity:0.27;}
	.st1{fill:#232121;}
	.st2{fill:#CD2328;}
	.st3{fill:#8E192F;}
	.st4{fill:#B62225;}
	.st5{fill:#E93B48;}
	.st6{fill:#F26866;}
	.st7{fill:#EA5661;}
	.st8{fill:#B31F36;}
	.st9{fill:#8B6271;}
	.st10{fill:#FFFFFF;}
	.st11{fill:#F8F6F1;}
	.st12{fill:#6D1628;}
	.st13{fill:#CFDCDC;}
	.st14{fill:#F4ECE5;}
	.st15{fill:#CB832A;}
	.st16{fill:#FFCD05;}
	.st17{fill:#911F36;}
	.st18{fill:#F9F8F2;}
	.st19{fill:none;}
	.st20{fill:#4A77A8;}
	.st21{fill:#84827E;}
	.st22{fill:#65A042;}
</style>
<g>
	<g class="st0">
		<g>
			<g>
				<polyline class="st1" points="71.7,392.9 178.5,437.4 379.4,419.8 325.5,368 				"/>
			</g>
		</g>
	</g>
	<g>
		<g>
			<g>
				<g>
					<path class="st1" d="M392.1,223.7c-38,0-54.6-21.4-55.6-22.7l15.5-11.5l-0.1-0.1c1.2,1.5,30.2,36.7,109.2-6.1
						c4.7-2.6,10.5-0.8,13.1,3.9s0.8,10.5-3.9,13.1C437.8,217.8,412,223.7,392.1,223.7z"/>
				</g>
			</g>
			<g>
				<g>
					<g>
						<path class="st2" d="M444.9,129.8C444.8,129.8,444.8,129.8,444.9,129.8C444.8,129.8,444.8,129.8,444.9,129.8L444.9,129.8z"/>
					</g>
				</g>
				<g>
					<g>
						<path class="st2" d="M444.5,129.7c-0.1,0.1-0.2,0.2-0.4,0.4c-0.2,0.1-0.6,0.2-0.8,0.2c0.2-0.1,0.6-0.2,0.8-0.2
							C444.2,129.9,444.4,129.8,444.5,129.7z"/>
					</g>
				</g>
				<g>
					<g>
						<path class="st2" d="M442.6,130.4c0.1-0.1,0.2-0.1,0.3-0.1C442.9,130.2,442.8,130.2,442.6,130.4c-0.4,0.2-0.9,0.3-1.3,0.5
							c-0.1,0-0.1,0.1-0.2,0.1c0.1,0,0.1-0.1,0.2-0.1C441.8,130.7,442.2,130.5,442.6,130.4z"/>
					</g>
				</g>
				<g>
					<g>
						<path class="st2" d="M451.6,136.3c-0.1-0.2-0.1-0.5-0.2-0.7c-0.7-1.8-1-3.6-1.9-5.3c0.9,1.7,1.2,3.6,1.9,5.3
							C451.5,135.8,451.5,136.1,451.6,136.3z"/>
					</g>
				</g>
				<g>
					<g>
						<path class="st2" d="M448.1,129.1c-0.4-0.1-0.7-0.2-1.2-0.1C447.4,128.9,447.7,129,448.1,129.1z"/>
					</g>
				</g>
				<g>
					<g>
						<path class="st2" d="M442.8,173.9c0.4-0.1,0.9-0.3,1.3-0.4c2-0.7,4-1.3,6.1-2c-2,0.7-4,1.3-6.1,2
							C443.7,173.6,443.2,173.7,442.8,173.9z"/>
					</g>
				</g>
				<g>
					<g>
						<path class="st2" d="M434.1,134.8c-0.1,0.1-0.1,0.2,0,0.4C434,135,434,134.9,434.1,134.8z"/>
					</g>
				</g>
				<g>
					<g>
						<path class="st2" d="M435.6,132.9c-0.1,0-0.1,0.1-0.1,0.1c-0.2,0.1-0.4,0.1-0.6,0.2c0.2-0.1,0.4-0.2,0.6-0.2
							C435.5,132.9,435.5,132.9,435.6,132.9z"/>
					</g>
				</g>
				<g>
					<g>
						<path class="st2" d="M453,136.7L453,136.7L453,136.7C453,136.7,453,136.7,453,136.7z"/>
					</g>
				</g>
				<g>
					<g>
						<path class="st2" d="M434.1,134.7L434.1,134.7c0.1,0.1,0.1,0.2,0.1,0.4C434.2,135,434.1,134.8,434.1,134.7z"/>
					</g>
				</g>
				<g>
					<g>
						<path class="st2" d="M437.5,144.2c0,0.1,0.1,0.1,0.1,0.2l0,0C437.6,144.3,437.5,144.3,437.5,144.2L437.5,144.2z"/>
					</g>
				</g>
				<g>
					<g>
						<path class="st2" d="M444.9,129.8L444.9,129.8c0.7-0.5,1.5-0.7,2.1-0.8C446.3,129,445.6,129.3,444.9,129.8z"/>
					</g>
				</g>
				<g>
					<g>
						<path class="st2" d="M452.4,140.5c0.4,0.9,1,1.8,1.7,2.6C453.4,142.3,452.7,141.5,452.4,140.5z"/>
					</g>
				</g>
				<g>
					<g>
						<path class="st2" d="M434.3,134.1c0-0.1,0-0.1,0.1-0.1C434.3,134,434.3,134.1,434.3,134.1z"/>
					</g>
				</g>
				<g>
					<g>
						<path class="st2" d="M454,143.1c0.4,0.6,0.9,1,1.3,1.5C454.9,144.2,454.4,143.6,454,143.1z"/>
					</g>
				</g>
				<g>
					<g>
						<path class="st2" d="M437.6,155.8c0.1-1.2,0.2-2.4,0.2-3.6C437.8,153.5,437.7,154.6,437.6,155.8z"/>
					</g>
				</g>
				<g>
					<g>
						<path class="st2" d="M450.2,171.4c1.2-0.4,2.3-0.8,3.6-1.2c3.1-1,6.3-2,9.4-3.1c-3.1,1-6.3,2-9.4,3.1
							C452.6,170.6,451.4,171,450.2,171.4z"/>
					</g>
				</g>
				<g>
					<g>
						<path class="st2" d="M468.7,161.2c-0.1-0.3-0.2-0.6-0.4-0.9c-0.5-0.8-1-1.6-1.6-2.3c0.6,0.7,1.1,1.5,1.6,2.3
							C468.4,160.7,468.6,161,468.7,161.2z"/>
					</g>
				</g>
				<g>
					<g>
						<path class="st2" d="M453.4,138c0-0.1,0.1-0.1,0-0.2C453.4,137.9,453.4,138,453.4,138L453.4,138z"/>
					</g>
				</g>
				<g>
					<g>
						<path class="st2" d="M457.8,147.5c-0.4-0.4-0.7-0.9-1.1-1.3c-0.4-0.6-0.9-1-1.3-1.5c0.4,0.5,0.9,1,1.3,1.5
							C457,146.6,457.4,147.1,457.8,147.5z"/>
					</g>
				</g>
				<g>
					<g>
						<path class="st2" d="M453.4,137.8c0-0.1-0.1-0.2-0.1-0.2c-0.1-0.2-0.1-0.4-0.2-0.6c0.1,0.2,0.1,0.5,0.2,0.6
							C453.4,137.7,453.4,137.7,453.4,137.8z"/>
					</g>
				</g>
				<g>
					<g>
						<path class="st2" d="M469.9,165.1L469.9,165.1c0-0.1-0.1-0.2-0.1-0.2c-0.1-0.4-0.2-0.7-0.4-1.2c0.1,0.4,0.2,0.8,0.4,1.2
							C469.8,165,469.9,165,469.9,165.1z"/>
					</g>
				</g>
				<g>
					<g>
						<path class="st2" d="M461.1,151.6c1.3,1.4,2.6,2.8,3.8,4.3C463.7,154.4,462.4,153,461.1,151.6c-1-1.4-2.2-2.7-3.4-4
							C458.9,148.9,460.1,150.2,461.1,151.6z"/>
					</g>
				</g>
				<g>
					<g>
						<path class="st2" d="M437.6,144.5c0.2-0.1,0.3-0.1,0.5-0.2C437.9,144.3,437.7,144.4,437.6,144.5
							C437.6,144.5,437.6,144.5,437.6,144.5c0.2,0.7,0.6,1.4,0.6,2.2c-0.1,1.9-0.2,3.7-0.2,5.6c0.1-1.9,0.2-3.7,0.2-5.6
							C438.2,145.8,437.7,145.2,437.6,144.5z"/>
					</g>
				</g>
				<g>
					<g>
						<path class="st2" d="M470.1,166.1c0,0.1,0.1,0.3,0.1,0.4c-2.1,0.7-4.2,1.3-6.3,2c2.1-0.7,4.2-1.3,6.3-2
							C470.2,166.4,470.1,166.3,470.1,166.1z"/>
					</g>
				</g>
				<g>
					<g>
						<path class="st2" d="M470,165.3c0-0.1-0.1-0.1-0.1-0.2l0,0C470,165.2,470,165.2,470,165.3z"/>
					</g>
				</g>
				<g>
					<g>
						<path class="st2" d="M439.1,131.9L439.1,131.9c0.4,1.4,0.9,2.8,1.4,4.2C440,134.7,439.5,133.3,439.1,131.9z"/>
					</g>
				</g>
				<g>
					<g>
						<path class="st2" d="M439.1,131.9L439.1,131.9L439.1,131.9c0.4,1.4,0.9,2.8,1.4,4.2C440,134.7,439.5,133.3,439.1,131.9z"/>
					</g>
				</g>
				<g>
					<g>
						<path class="st2" d="M435.4,138.8L435.4,138.8L435.4,138.8z"/>
					</g>
				</g>
				<g>
					<g>
						<path class="st2" d="M449.7,134.1c-1.1,0.4-2.2,0.7-3.3,1.1c0,0.1,0.1,0.1,0.1,0.1c0-0.1-0.1-0.1-0.1-0.1
							c1.4-0.4,2.8-0.9,4.2-1.3l0,0C450.4,133.9,450.1,134,449.7,134.1z"/>
					</g>
				</g>
				<g>
					<g>
						<path class="st2" d="M450.6,133.9c0,0.1,0.1,0.1,0.1,0.1c0.2,0.7,0.5,1.5,0.8,2.1C451.2,135.4,450.9,134.6,450.6,133.9z"/>
					</g>
				</g>
				<g>
					<g>
						<path class="st2" d="M450.5,133.6C450.5,133.6,450.5,133.6,450.5,133.6c-0.4-1.2-0.7-2.2-1-3.3
							C449.9,131.4,450.2,132.5,450.5,133.6C450.5,133.6,450.5,133.6,450.5,133.6z"/>
					</g>
				</g>
				<g>
					<g>
						<path class="st2" d="M444.4,142.2c0.7-0.2,1.3-0.4,2-0.7C445.7,141.8,445.1,142,444.4,142.2L444.4,142.2L444.4,142.2z"/>
					</g>
				</g>
				<g>
					<g>
						<path class="st2" d="M440.1,159.8c0,0.4,0,0.8-0.1,1.2c0.1-0.8,0.1-1.5,0.1-2.3l0,0C440.1,159,440.1,159.5,440.1,159.8z"/>
					</g>
				</g>
				<g>
					<g>
						<path class="st2" d="M440.1,158.7c0,0.4-0.1,0.8-0.1,1.2C440.1,159.5,440.1,159,440.1,158.7L440.1,158.7z"/>
					</g>
				</g>
				<g>
					<g>
						<path class="st2" d="M445,130.9c-0.1,0.1-0.2,0.1-0.4,0.1h0.1C444.8,130.9,444.9,130.9,445,130.9L445,130.9z"/>
					</g>
				</g>
				<g>
					<g>
						<path class="st2" d="M445.2,131.4c0,0.1,0.1,0.1,0.1,0.1c-0.1-0.1-0.1-0.2-0.1-0.4C445.2,131.2,445.2,131.4,445.2,131.4z"/>
					</g>
				</g>
				<g>
					<g>
						<path class="st2" d="M444.7,131c0.1,0,0.2-0.1,0.3-0.1l0,0C444.9,130.9,444.8,130.9,444.7,131z"/>
					</g>
				</g>
				<g>
					<g>
						<path class="st2" d="M443.9,132c-0.2-0.4-0.4-0.7-0.6-1c-0.1-0.1-0.1-0.2-0.1-0.4c0.1,0.1,0.1,0.2,0.1,0.4
							C443.5,131.3,443.7,131.7,443.9,132z"/>
					</g>
				</g>
				<g>
					<g>
						<path class="st3" d="M459.1,170.4c-1.6,0.6-3.2,1-4.8,1.6c1.8,5.3,3.5,10.6,5.3,15.9c-1.8-5.3-3.5-10.6-5.3-15.9
							C455.9,171.5,457.5,171,459.1,170.4z"/>
					</g>
				</g>
				<g>
					<g>
						<path class="st3" d="M459.6,187.9c3.1-1,6.3-2,9.4-3.1l0,0C465.9,185.9,462.8,186.9,459.6,187.9z"/>
					</g>
				</g>
				<g>
					<g>
						<path class="st3" d="M469.2,184.7c-1.5-3.2-2.7-6.6-3.7-9.9c-0.5-1.6-0.9-3.2-1.3-4.8c-0.4,0.1-0.7,0.1-1-0.1
							c-0.2-0.1-0.4-0.4-0.6-0.6c-1.2,0.4-2.3,0.7-3.4,1.2c-1.6,0.6-3.2,1-4.8,1.6c1.8,5.3,3.5,10.6,5.3,15.9c3.1-1,6.3-2,9.4-3.1
							l0,0l0,0C469.1,184.8,469.2,184.8,469.2,184.7z"/>
					</g>
				</g>
				<g>
					<g>
						<path class="st3" d="M454.3,172c1.8,5.3,3.5,10.6,5.3,15.9C457.9,182.6,456.1,177.3,454.3,172L454.3,172z"/>
					</g>
				</g>
				<g>
					<g>
						<path class="st3" d="M462.5,169.3c0.1,0.2,0.3,0.5,0.6,0.6c0.3,0.2,0.7,0.2,1,0.1c-0.1-0.4-0.2-0.8-0.3-1.2
							C463.5,169,463,169.1,462.5,169.3z"/>
					</g>
				</g>
				<g>
					<g>
						<path class="st4" d="M470.9,169c-0.1-0.3-0.2-0.6-0.3-1l0,0C470.7,168.3,470.8,168.7,470.9,169z"/>
					</g>
				</g>
				<g>
					<g>
						<path class="st4" d="M464.3,170L464.3,170c0.3,1.6,0.7,3.2,1.2,4.8c1,3.4,2.3,6.7,3.7,9.9c1.9-0.6,3.9-1.3,5.8-1.8
							c0.7-0.2,0.4-0.6,0.3-1c-0.8-1.7-1.5-3.5-2.2-5.3c-0.7-1.8-1.2-3.6-1.7-5.5c-0.2-0.7-0.4-1.5-0.6-2.3c-0.1-0.3-0.2-0.6-0.3-1
							C470,168.2,464.3,170,464.3,170z"/>
					</g>
				</g>
				<g>
					<g>
						<path class="st4" d="M470.2,166.8L470.2,166.8c0.1,0.4,0.2,0.9,0.4,1.3l0,0C470.4,167.5,470.3,167.2,470.2,166.8L470.2,166.8z
							"/>
					</g>
				</g>
				<g>
					<g>
						<path class="st4" d="M464.2,170.1L464.2,170.1c0.1,0,5.8-1.8,6.4-2c-0.1-0.4-0.2-0.9-0.4-1.3l0,0c-2.1,0.7-4.2,1.4-6.3,2.1
							C464,169.3,464.1,169.6,464.2,170.1z"/>
					</g>
				</g>
				<g>
					<g>
						<path class="st5" d="M456.1,189.1c1.2-0.4,2.3-0.8,3.6-1.2C458.4,188.3,457.3,188.7,456.1,189.1L456.1,189.1z"/>
					</g>
				</g>
				<g>
					<g>
						<path class="st5" d="M454.3,172c-0.9,0.3-1.8,0.6-2.8,0.9c-0.7,0.2-0.7,0.5-0.6,1.1c0.4,1.3,1,2.4,1.5,3.7
							c1.3,3.7,2.4,7.5,3.6,11.3c1.2-0.4,2.3-0.8,3.6-1.2C457.9,182.6,456.1,177.3,454.3,172L454.3,172z"/>
					</g>
				</g>
				<g>
					<g>
						<path class="st5" d="M446,178.5c-0.2-0.6-0.4-1.1-0.6-1.7c-0.7-1.5-0.7-1.5-2.3-1c-0.4,0.1-0.8,0.2-1.2,0.4
							c1.1,2.4,2,4.9,2.9,7.3c1,2.8,1.7,5.6,2.4,8.5c0.9-0.3,1.8-0.6,2.8-0.9c-0.3-1.2-0.7-2.4-1-3.7
							C448.2,184.4,447,181.5,446,178.5z"/>
					</g>
				</g>
				<g>
					<g>
						<path class="st5" d="M442,176.2L442,176.2c0.4-0.1,0.8-0.2,1.2-0.4C442.8,175.9,442.3,176.1,442,176.2z"/>
					</g>
				</g>
				<g>
					<g>
						<path class="st2" d="M445,130.9L445,130.9c0.1,0.1,0.1,0.2,0.1,0.3C445.1,131,445,131,445,130.9z"/>
					</g>
				</g>
				<g>
					<g>
						<path class="st2" d="M449.5,130.3c-0.4-0.6-0.9-1-1.4-1.2C448.6,129.3,449.1,129.7,449.5,130.3z"/>
					</g>
				</g>
				<g>
					<g>
						<path class="st2" d="M444.9,129.8c0,0.1,0,0.1,0,0.1c0.1,0.2,0.1,0.3,0.2,0.5c0.1,0.2,0.1,0.3-0.1,0.5l0,0l0,0
							c0.1,0.1,0.1,0.2,0.1,0.3c0.1,0.1,0.1,0.2,0.1,0.4c0,0,0,0.1,0.1,0.1c0.2,0.2,0.4,0.5,0.5,0.7c0.4,0.8,0.5,1.7,0.9,2.5
							c1.3-0.4,2.6-0.9,3.9-1.3c-0.4-1.1-0.7-2.2-1-3.2c-0.4-0.6-0.9-1-1.4-1.2c-0.4-0.1-0.7-0.2-1.2-0.1
							C446.3,129,445.6,129.3,444.9,129.8L444.9,129.8L444.9,129.8z M445.1,130.4L445.1,130.4L445.1,130.4z"/>
					</g>
				</g>
				<g>
					<g>
						<path class="st2" d="M439.6,131.4c0.5-0.2,1-0.3,1.5-0.5C440.6,131,440.1,131.2,439.6,131.4L439.6,131.4L439.6,131.4z"/>
					</g>
				</g>
				<g>
					<g>
						<path class="st2" d="M439.6,131.4c-0.1,0.2-0.2,0.3-0.3,0.5c0.2,0.6,0.4,1.3,0.7,1.9c0.2,0.7,0.4,1.3,0.6,2
							c0.2,0.9,0.7,1,1.5,0.7c0.4-0.2,0.7-0.2,1-0.4c-0.6-1.8-1.2-3.5-1.7-5.3c-0.1,0-0.1,0.1-0.2,0.1
							C440.6,131,440.1,131.2,439.6,131.4L439.6,131.4z M440.3,134.8c-0.1-0.3-0.2-0.7-0.3-1C440,134.1,440.1,134.5,440.3,134.8z"/>
					</g>
				</g>
				<g>
					<g>
						<path class="st6" d="M439.6,131.4c-1,0.4-2.1,0.7-3.1,1C437.4,132.1,438.5,131.7,439.6,131.4L439.6,131.4z"/>
					</g>
				</g>
				<g>
					<g>
						<path class="st6" d="M439.1,131.9L439.1,131.9L439.1,131.9z"/>
					</g>
				</g>
				<g>
					<g>
						<path class="st6" d="M435.6,133.3c0.4,1.3,0.9,2.6,1.3,4c0.1,0.4,0.2,0.8-0.4,0.9l0,0c0,0.1,0.1,0.2,0.1,0.3
							c0.1,0.1,0.1,0.1,0.1,0.1c0.6-0.2,1.2-0.4,1.8-0.6c0.4-0.1,0.9-0.3,1.3-0.4c0-0.1,0-0.3,0-0.4c-0.5-0.9-0.8-1.7-1-2.6
							c-0.1-0.3-0.1-0.6-0.2-0.9c-0.1-0.6-0.1-1.2,0.5-1.7l0,0l0,0l0,0l0,0l0,0c0.1,0,0.1-0.1,0.1-0.1l0,0c0.1-0.2,0.2-0.3,0.3-0.5
							c-1,0.4-2.1,0.7-3.1,1c0.7,0,1,0.2,1.2,0.9c0.3,1.2,0.7,2.3,1.1,3.4c0.1,0.4,0.1,0.7-0.4,0.9c-0.5,0.2-0.7-0.1-0.8-0.5
							c-0.4-1.2-0.8-2.4-1.2-3.6c-0.1-0.4-0.1-0.8-0.7-0.7c-0.1,0-0.1,0.1-0.1,0.1C435.5,133.1,435.5,133.2,435.6,133.3z"/>
					</g>
				</g>
				<g>
					<g>
						<path class="st6" d="M439.8,137.6c-0.4,0.1-0.9,0.3-1.3,0.4C439,137.8,439.4,137.7,439.8,137.6L439.8,137.6z"/>
					</g>
				</g>
				<g>
					<g>
						<path class="st6" d="M439.6,131.4L439.6,131.4L439.6,131.4z"/>
					</g>
				</g>
				<g>
					<g>
						<path class="st6" d="M439.6,131.4L439.6,131.4c-0.1,0.2-0.2,0.3-0.3,0.5l0,0l0,0C439.3,131.7,439.5,131.5,439.6,131.4z"/>
					</g>
				</g>
				<g>
					<g>
						<path class="st2" d="M443.9,134.5c-0.5-1.3-1.2-2.7-1.2-4.2c-0.4,0.2-0.9,0.3-1.3,0.5c0.6,1.8,1.2,3.5,1.7,5.3
							C444.1,135.9,444.2,135.5,443.9,134.5z"/>
					</g>
				</g>
				<g>
					<g>
						<path class="st7" d="M436.1,132.5c-0.2,0.1-0.5,0.1-0.6,0.4C435.7,132.6,435.9,132.5,436.1,132.5z"/>
					</g>
				</g>
				<g>
					<g>
						<path class="st7" d="M436.3,133.6c0.4,1.2,0.8,2.4,1.2,3.6c0.1,0.4,0.3,0.6,0.8,0.5c0.5-0.2,0.5-0.5,0.4-0.9
							c-0.4-1.2-0.8-2.3-1.1-3.4c-0.2-0.7-0.6-0.9-1.2-0.9c-0.1,0-0.1,0.1-0.2,0.1c-0.2,0.1-0.5,0.1-0.6,0.4
							C436.2,132.8,436.2,133.2,436.3,133.6z"/>
					</g>
				</g>
				<g>
					<g>
						<path class="st5" d="M450.6,133.9c-1.4,0.4-2.8,0.9-4.2,1.3c1.1-0.4,2.2-0.7,3.3-1.1C450.1,134,450.4,133.9,450.6,133.9z"/>
					</g>
				</g>
				<g>
					<g>
						<path class="st5" d="M450.6,133.9c0-0.1-0.1-0.1-0.1-0.2C450.5,133.7,450.6,133.7,450.6,133.9L450.6,133.9L450.6,133.9z"/>
					</g>
				</g>
				<g>
					<g>
						<path class="st5" d="M444.7,131L444.7,131C444.7,131,444.7,131,444.7,131L444.7,131z"/>
					</g>
				</g>
				<g>
					<g>
						<path class="st5" d="M443,130.2c0.1,0,0.1,0,0.2,0.1C443.1,130.3,443.1,130.2,443,130.2z"/>
					</g>
				</g>
				<g>
					<g>
						<path class="st5" d="M445,130.9c0.1,0.2,0.2,0.4,0.2,0.7c0-0.1,0-0.1-0.1-0.1C445.2,131.2,445.1,131,445,130.9L445,130.9z"/>
					</g>
				</g>
				<g>
					<g>
						<path class="st5" d="M450.6,133.9L450.6,133.9c-0.3,0.1-0.6,0.2-0.9,0.3C450.1,134,450.4,133.9,450.6,133.9z"/>
					</g>
				</g>
				<g>
					<g>
						<path class="st5" d="M443.9,134.5c0.3,1,0.2,1.4-0.9,1.5c-0.4,0.1-0.7,0.2-1,0.4c-0.8,0.4-1.2,0.2-1.5-0.7
							c-0.2-0.7-0.4-1.3-0.6-2c-0.2-0.6-0.4-1.3-0.7-1.9c-0.1,0-0.1,0.1-0.1,0.1c0.4,1.4,0.9,2.8,1.4,4.2c0.1,0.4,0.2,0.8-0.4,0.9
							c0.4,0.2,0.8-0.1,1.2-0.2c1.7-0.6,3.5-1.1,5.2-1.7c1.4-0.4,2.8-0.9,4.2-1.3c0-0.1-0.1-0.1-0.1-0.2v-0.1
							c-1.3,0.4-2.6,0.9-3.9,1.3c-0.8-0.9-0.9-2.2-1.3-3.2l0,0c0,0,0-0.1-0.1-0.1c0-0.1-0.1-0.1-0.1-0.1c0,0.1,0,0.1,0.1,0.1
							c-0.1-0.2-0.2-0.4-0.2-0.7c-0.1,0-0.2,0.1-0.3,0.1h-0.1h0.1h-0.1l0,0c0.2,0.5,0.3,1,0.5,1.5c0.2,0.5,0.3,1,0.6,1.5
							c0.1,0.4,0.2,0.6,0.2,0.9c0,0.1-0.1,0.2-0.2,0.4c-0.2,0.1-0.4,0.2-0.8,0.2c-0.1,0.1-0.2,0.1-0.4,0c-0.1-0.1-0.1-0.1-0.2-0.3
							c-0.4-1.3-0.9-2.7-1.3-4c-0.1-0.2,0-0.5,0.2-0.6c0.1-0.1,0.1-0.2,0.1-0.2c-0.1,0-0.1,0-0.2-0.1c-0.1,0-0.1-0.1-0.2-0.1
							c-0.1,0-0.2,0-0.3,0.1C442.8,131.8,443.4,133.2,443.9,134.5z"/>
					</g>
				</g>
				<g>
					<g>
						<path class="st5" d="M445.3,131.5C445.3,131.5,445.3,131.6,445.3,131.5L445.3,131.5L445.3,131.5
							C445.3,131.6,445.3,131.6,445.3,131.5z"/>
					</g>
				</g>
				<g>
					<g>
						<path class="st5" d="M439.2,131.8L439.2,131.8c0.2,0.6,0.4,1.3,0.7,1.9C439.7,133.1,439.5,132.5,439.2,131.8z"/>
					</g>
				</g>
				<g>
					<g>
						<path class="st5" d="M439.1,131.9L439.1,131.9c0.1,0,0.1-0.1,0.1-0.1C439.2,131.9,439.2,131.9,439.1,131.9z"/>
					</g>
				</g>
				<g>
					<g>
						<path class="st8" d="M434.3,134c0.1-0.2,0.2-0.5,0.4-0.7C434.4,133.6,434.3,133.8,434.3,134z"/>
					</g>
				</g>
				<g>
					<g>
						<path class="st8" d="M434.4,135.4c-0.1-0.1-0.1-0.2-0.2-0.2l0,0C434.3,135.2,434.4,135.3,434.4,135.4z"/>
					</g>
				</g>
				<g>
					<g>
						<path class="st8" d="M434.3,135.1c-0.1-0.1-0.1-0.2-0.1-0.4c0-0.2,0.1-0.4,0.1-0.6c-0.1,0.2-0.1,0.4-0.1,0.6l0,0l0,0
							C434.1,134.8,434.2,135,434.3,135.1z"/>
					</g>
				</g>
				<g>
					<g>
						<path class="st8" d="M434.3,135.1L434.3,135.1c0.1,0.1,0.2,0.2,0.2,0.2c0.1,0.1,0.1,0.1,0.1,0.2c0.1,0.1,0.1,0.2,0.2,0.3
							c0,0.1,0.1,0.1,0.1,0.1c0-0.1-0.1-0.1-0.1-0.1c0.2,0.6,0.4,1.2,0.6,1.8c0.2,0.7,0.6,0.9,1.2,0.6l0,0l0,0c-0.3-1-0.6-2-1-2.9
							c-0.2-0.7-0.3-1.3,0-2c-0.1-0.1-0.1-0.2-0.1-0.4c-0.2,0.1-0.4,0.1-0.6,0.2c-0.1,0.1-0.2,0.1-0.2,0.2c-0.2,0.2-0.3,0.4-0.4,0.7
							c0,0.1,0,0.1-0.1,0.1c-0.1,0.2-0.1,0.4-0.1,0.6C434.1,134.8,434.2,135,434.3,135.1z"/>
					</g>
				</g>
				<g>
					<g>
						<path class="st8" d="M434.1,134.7L434.1,134.7c0.1,0.1,0.1,0.2,0.1,0.4C434.2,135,434.1,134.8,434.1,134.7z"/>
					</g>
				</g>
				<g>
					<g>
						<path class="st8" d="M434.3,135.1c0.1,0.1,0.2,0.3,0.3,0.4c-0.1-0.1-0.1-0.1-0.1-0.2C434.4,135.3,434.3,135.2,434.3,135.1
							L434.3,135.1z"/>
					</g>
				</g>
				<g>
					<g>
						<polygon class="st8" points="436.6,138.2 436.5,138.2 436.5,138.2 436.5,138.2 						"/>
					</g>
				</g>
				<g>
					<g>
						<path class="st2" d="M443.3,131c0.2,0.3,0.4,0.7,0.6,1c0.2,0.5,0.4,0.9,0.5,1.4c-0.1-0.1-0.1-0.2-0.1-0.4
							c0.1,0.1,0.1,0.2,0.1,0.4s0.1,0.2,0.1,0.4s0.1,0.2,0.1,0.4c0-0.1-0.1-0.2-0.1-0.4c0.1,0.5,0.2,1,0.3,1.5
							c0,0.1,0.1,0.1,0.1,0.2c0.4-0.1,0.6-0.1,0.8-0.2c0.1-0.1,0.2-0.2,0.2-0.4c0.1-0.2,0-0.5-0.2-0.9c-0.2-0.5-0.4-1-0.6-1.5
							c-0.2-0.5-0.3-1-0.5-1.5c-0.1-0.1-0.1-0.2-0.1-0.4c-0.1-0.2-0.2-0.3-0.4-0.5c-0.2,0.1-0.6,0.2-0.8,0.2
							c-0.1,0.1-0.1,0.2-0.1,0.2C443.3,130.7,443.3,130.9,443.3,131z M445.4,133.2c-0.1-0.2-0.2-0.5-0.2-0.7
							C445.2,132.8,445.3,133,445.4,133.2z"/>
					</g>
				</g>
				<g>
					<g>
						<path class="st2" d="M444.8,135.5c0.4-0.1,0.6-0.1,0.8-0.2C445.5,135.3,445.2,135.5,444.8,135.5L444.8,135.5z"/>
					</g>
				</g>
				<g>
					<g>
						<path class="st2" d="M445.8,134.8c0,0.1-0.1,0.2-0.2,0.4C445.8,135.1,445.8,135,445.8,134.8z"/>
					</g>
				</g>
				<g>
					<g>
						<path class="st2" d="M445.1,132.5c-0.2-0.5-0.3-1-0.5-1.5l0,0l0,0C444.8,131.5,445,132,445.1,132.5z"/>
					</g>
				</g>
				<g>
					<g>
						<path class="st9" d="M452,139.6L452,139.6c0-0.1-0.1-0.1-0.1-0.1l0,0C452,139.4,452,139.5,452,139.6z"/>
					</g>
				</g>
				<g>
					<g>
						<path class="st9" d="M469.8,186.4c-0.9,0.2-1.7,0.6-2.5,0.8C468.1,186.8,469,186.6,469.8,186.4L469.8,186.4z"/>
					</g>
				</g>
				<g>
					<g>
						<path class="st9" d="M459.8,189.7L459.8,189.7c1.7-0.6,3.3-1.2,5-1.8C463.1,188.5,461.4,189,459.8,189.7z"/>
					</g>
				</g>
				<g>
					<g>
						<path class="st9" d="M469.8,186.5L469.8,186.5L469.8,186.5c0-0.1,0-0.1,0-0.1c-0.9,0.2-1.7,0.6-2.5,0.8
							c-0.9,0.2-1.7,0.6-2.5,0.8c-1.7,0.6-3.4,1.1-5,1.8c0.1,0,0.3,0,0.4,0C463.4,188.6,466.6,187.6,469.8,186.5z"/>
					</g>
				</g>
				<g>
					<g>
						<path class="st9" d="M460.2,189.7c3.2-1,6.4-2.1,9.6-3.2l0,0C466.6,187.6,463.4,188.6,460.2,189.7z"/>
					</g>
				</g>
				<g>
					<g>
						<path class="st3" d="M434.1,135.6c0-0.2-0.1-0.3-0.1-0.5C434.1,135.3,434.1,135.5,434.1,135.6L434.1,135.6L434.1,135.6z"/>
					</g>
				</g>
				<g>
					<g>
						<path class="st3" d="M435.4,138.8L435.4,138.8c-0.4-1.2-0.8-2.5-1.2-3.7C434.6,136.4,435,137.6,435.4,138.8z"/>
					</g>
				</g>
				<g>
					<g>
						<path class="st3" d="M435.4,138.9L435.4,138.9C435.3,138.9,435.3,138.9,435.4,138.9c-0.4-1.1-0.8-2.1-1.2-3.2
							C434.5,136.7,434.9,137.8,435.4,138.9C435.3,138.9,435.3,138.9,435.4,138.9z"/>
					</g>
				</g>
				<g>
					<g>
						<path class="st3" d="M435.3,138.9L435.3,138.9C435.4,138.9,435.4,138.9,435.3,138.9c0.1,0,0.1,0,0.1-0.1l0,0l0,0
							c-0.4-1.2-0.8-2.5-1.2-3.7c-0.1,0-0.1,0.1-0.2,0.1c0,0.2,0.1,0.3,0.1,0.5C434.5,136.7,434.9,137.8,435.3,138.9z"/>
					</g>
				</g>
				<g>
					<g>
						<path class="st3" d="M434.1,135.6L434.1,135.6c0.4,1.1,0.8,2.1,1.2,3.2l0,0C434.9,137.8,434.5,136.7,434.1,135.6z"/>
					</g>
				</g>
				<g>
					<g>
						<path class="st5" d="M444.8,129.8c-0.1-0.1-0.2-0.1-0.4-0.1C444.6,129.6,444.7,129.6,444.8,129.8z"/>
					</g>
				</g>
				<g>
					<g>
						<path class="st5" d="M444.1,130.1c0.1,0.2,0.2,0.3,0.4,0.5c0.4-0.1,0.1-0.6,0.4-0.7c0-0.1,0-0.1,0-0.1h-0.1
							c-0.1-0.1-0.2-0.1-0.4-0.1C444.4,129.8,444.2,129.9,444.1,130.1z"/>
					</g>
				</g>
				<g>
					<g>
						<path class="st5" d="M444.9,129.8L444.9,129.8L444.9,129.8c0,0.1,0,0.1,0,0.1l0,0C444.9,129.8,444.9,129.8,444.9,129.8z"/>
					</g>
				</g>
				<g>
					<g>
						<path class="st5" d="M434.1,134.7C434.1,134.7,434.1,134.8,434.1,134.7C434.1,134.8,434.1,134.7,434.1,134.7L434.1,134.7z"/>
					</g>
				</g>
				<g>
					<g>
						<path class="st5" d="M434.3,135.1L434.3,135.1c-0.1-0.1-0.1-0.2-0.1-0.4c0,0,0,0.1-0.1,0.1c-0.1,0.1-0.1,0.2,0,0.4
							C434.1,135.1,434.2,135.1,434.3,135.1L434.3,135.1z"/>
					</g>
				</g>
				<g>
					<g>
						<polygon class="st5" points="434.3,135.1 434.3,135.1 434.3,135.1 						"/>
					</g>
				</g>
				<g>
					<g>
						<polygon class="st5" points="434.3,135.1 434.3,135.1 434.3,135.1 434.3,135.1 434.3,135.1 434.3,135.1 						"/>
					</g>
				</g>
				<g>
					<g>
						<path class="st2" d="M451,135c-0.1-0.3-0.2-0.7-0.4-1c0-0.1-0.1-0.1-0.1-0.1l0,0C450.8,134.2,450.9,134.6,451,135z"/>
					</g>
				</g>
				<g>
					<g>
						<path class="st2" d="M451.5,136.2c-0.3-0.7-0.6-1.5-0.8-2.1c0.1,0.3,0.2,0.7,0.4,1c-0.1-0.4-0.2-0.8-0.4-1.2
							c-1.4,0.4-2.8,0.9-4.2,1.3c0,0.1,0.1,0.1,0.1,0.1c0.4,0.6,0.6,1.2,0.9,1.9c0.2,0.7,0,0.9-0.6,1.1c-2,0.6-3.9,1.3-5.8,2l0,0
							l10.5-3.5C451.6,136.6,451.6,136.4,451.5,136.2z"/>
					</g>
				</g>
				<g>
					<g>
						<path class="st7" d="M441,140.3C440.9,140.3,440.9,140.3,441,140.3c-0.7-0.8-0.7-1.8-1.1-2.7c-0.4,0.1-0.9,0.3-1.3,0.4
							c-0.6,0.2-1.2,0.4-1.8,0.6c0.6-0.2,1.2-0.4,1.8-0.6c-0.6,0.2-1.2,0.4-1.8,0.6c0.2,1,0.8,1.8,0.7,2.8L441,140.3z"/>
					</g>
				</g>
				<g>
					<g>
						<path class="st8" d="M435.3,138.9L435.3,138.9L435.3,138.9L435.3,138.9z"/>
					</g>
				</g>
				<g>
					<g>
						<path class="st8" d="M436.7,138.6c-0.1-0.1-0.1-0.1-0.1-0.1c-0.4,0.1-0.8,0.2-1.2,0.4l0,0l0,0c-0.1,0-0.1,0-0.1,0l0,0l0,0l0,0
							c0,0.7,0.4,1.3,0.6,2c0.2,0.6,0.3,0.9,0.5,1l1.2-0.4C437.5,140.4,436.9,139.6,436.7,138.6z"/>
					</g>
				</g>
				<g>
					<g>
						<path class="st8" d="M435.3,138.9L435.3,138.9L435.3,138.9L435.3,138.9L435.3,138.9z"/>
					</g>
				</g>
				<g>
					<g>
						<path class="st8" d="M435.4,138.8L435.4,138.8C435.4,138.8,435.4,138.8,435.4,138.8L435.4,138.8
							C435.4,138.9,435.4,138.8,435.4,138.8z"/>
					</g>
				</g>
				<g>
					<g>
						<path class="st8" d="M445.3,131.7c0.5,1.1,0.5,2.3,1.3,3.2c-0.4-0.8-0.5-1.7-0.9-2.5C445.6,132.1,445.5,131.8,445.3,131.7z"/>
					</g>
				</g>
				<g>
					<g>
						<path class="st8" d="M445.3,131.7L445.3,131.7c0.2,0.2,0.4,0.5,0.5,0.7C445.6,132.1,445.5,131.8,445.3,131.7z"/>
					</g>
				</g>
				<g>
					<g>
						<path class="st8" d="M445.1,130.4c-0.1-0.2-0.1-0.3-0.2-0.5l0,0c-0.2,0.2,0,0.6-0.4,0.7c0.1,0.1,0.1,0.2,0.1,0.4
							c0.1-0.1,0.2-0.1,0.4-0.1C445.2,130.7,445.2,130.5,445.1,130.4z"/>
					</g>
				</g>
				<g>
					<g>
						<path class="st8" d="M445.1,130.4c-0.1-0.2-0.1-0.3-0.2-0.5l0,0l0,0C445,130,445,130.2,445.1,130.4z"/>
					</g>
				</g>
				<g>
					<g>
						<path class="st8" d="M444.7,131L444.7,131c-0.1-0.1-0.1-0.2-0.1-0.4C444.5,130.7,444.6,130.9,444.7,131z"/>
					</g>
				</g>
				<g>
					<g>
						<path class="st2" d="M446.5,135.2L446.5,135.2L446.5,135.2z"/>
					</g>
				</g>
				<g>
					<g>
						<path class="st2" d="M439.8,137.2c0,0.1,0,0.3,0,0.4l0,0l0,0l0,0c0.4,0.9,0.4,1.9,1.1,2.7c2-0.7,3.9-1.3,5.8-2
							c0.6-0.2,0.9-0.4,0.6-1.1c-0.2-0.7-0.5-1.3-0.9-1.9c0-0.1-0.1-0.1-0.1-0.1l0,0l0,0c-1.7,0.6-3.5,1.2-5.2,1.7
							c-0.4,0.1-0.7,0.4-1.2,0.2C440,137.1,439.9,137.1,439.8,137.2L439.8,137.2z"/>
					</g>
				</g>
				<g>
					<g>
						<path class="st2" d="M439.8,137.2L439.8,137.2L439.8,137.2c0,0.1,0,0.3,0,0.4l0,0C439.8,137.4,439.8,137.3,439.8,137.2z"/>
					</g>
				</g>
				<g>
					<g>
						<path class="st2" d="M439.8,137.6L439.8,137.6L439.8,137.6z"/>
					</g>
				</g>
				<g>
					<g>
						<path class="st2" d="M446.6,135.3c0.4,0.6,0.6,1.2,0.9,1.9C447.2,136.6,446.9,135.9,446.6,135.3z"/>
					</g>
				</g>
				<g>
					<g>
						<path class="st2" d="M440.1,137c0.6-0.1,0.5-0.5,0.4-0.9c-0.5-1.4-0.9-2.8-1.4-4.2c-0.6,0.4-0.6,1.1-0.5,1.7
							c0.1,0.3,0.1,0.6,0.2,0.9c0.2,0.9,0.6,1.8,1,2.6C439.9,137.1,440,137.1,440.1,137z"/>
					</g>
				</g>
				<g>
					<g>
						<path class="st2" d="M438.8,134.5c0.2,0.9,0.6,1.8,1,2.6l0,0C439.4,136.3,439.1,135.5,438.8,134.5z"/>
					</g>
				</g>
				<g>
					<g>
						<path class="st7" d="M436.9,137.3c-0.4-1.3-0.9-2.6-1.3-4c-0.3,0.7-0.2,1.3,0,2c0.4,1,0.7,2,1,2.9
							C437.1,138.1,437.1,137.7,436.9,137.3z"/>
					</g>
				</g>
				<g>
					<g>
						<path class="st5" d="M434.6,135.6c0.1,0.1,0.1,0.2,0.2,0.3C434.7,135.8,434.6,135.6,434.6,135.6z"/>
					</g>
				</g>
				<g>
					<g>
						<path class="st5" d="M436.6,138.5c0-0.1-0.1-0.2-0.1-0.3c-0.7,0.4-1,0.2-1.2-0.6c-0.2-0.6-0.3-1.2-0.6-1.8
							c-0.1-0.1-0.1-0.2-0.2-0.3c-0.1-0.2-0.2-0.3-0.3-0.4l0,0c0.4,1.2,0.8,2.5,1.2,3.7C435.8,138.7,436.2,138.6,436.6,138.5z"/>
					</g>
				</g>
				<g>
					<g>
						<path class="st5" d="M436.5,138.2L436.5,138.2c0,0.1,0.1,0.2,0.1,0.3C436.6,138.4,436.6,138.3,436.5,138.2z"/>
					</g>
				</g>
				<g>
					<g>
						<path class="st5" d="M434.3,135.1L434.3,135.1L434.3,135.1z"/>
					</g>
				</g>
				<g>
					<g>
						<path class="st2" d="M444.8,135.5c0-0.1-0.1-0.1-0.1-0.2c-0.5-1.4-1-2.9-1.4-4.3c-0.1-0.1-0.1-0.2-0.1-0.4
							c-0.2,0.1-0.3,0.3-0.2,0.6c0.4,1.3,0.9,2.7,1.3,4c0.1,0.1,0.1,0.2,0.2,0.3C444.5,135.5,444.7,135.5,444.8,135.5z"/>
					</g>
				</g>
				<g>
					<g>
						<path class="st2" d="M444.5,135.5c0.1,0.1,0.2,0.1,0.4,0l0,0C444.7,135.5,444.5,135.5,444.5,135.5z"/>
					</g>
				</g>
				<g>
					<g>
						<path class="st2" d="M444.4,133.4c0.1,0.1,0.1,0.2,0.1,0.4C444.5,133.7,444.4,133.6,444.4,133.4z"/>
					</g>
				</g>
				<g>
					<g>
						<path class="st2" d="M444.8,135.3c-0.1-0.5-0.2-1-0.3-1.5c-0.1-0.1-0.1-0.2-0.1-0.4c-0.1-0.5-0.3-1-0.5-1.4
							c-0.2-0.4-0.4-0.7-0.6-1C443.8,132.4,444.3,133.9,444.8,135.3z"/>
					</g>
				</g>
				<g>
					<g>
						<g>
							<path class="st1" d="M487.1,215.3l-0.2-0.4c-2.2-3.8-4.3-7.3-5.5-11.4c-1.1-3.6-1.6-7.4-2.1-11.1c-0.1-0.6-0.1-1.2-0.2-1.9
								c-0.2-2.3-0.5-4.7-1.5-6.9c-0.1-0.2-0.1-0.4-0.2-0.6c-0.1-0.6-0.3-1.2-0.8-1.9c-1.4-3.2-2.8-6.6-3.7-10.2
								c-0.2-1.1-0.6-2.1-0.9-3.2c-0.1-0.4-0.2-0.8-0.4-1.2c0-0.1-0.1-0.1-0.1-0.2l0,0c-0.1-0.6-0.1-1.3-0.4-2
								c-0.1-0.4-0.2-0.9-0.4-1.3c-0.3-1.2-0.6-2.4-1.3-3.4c-2.2-3.5-4.9-6.5-7.3-9c-0.8-1.1-1.7-2.1-2.6-3.2
								c-0.7-0.7-1.3-1.5-1.8-2.2c-0.5-0.6-1-1.2-1.5-1.8c-1-1.2-2.1-2.3-2.6-3.7c0.6-0.2,0.9-0.6,1.2-1.2c0.2-0.5,0.2-1.1-0.1-1.6
								c0-0.1,0-0.1-0.1-0.1c-0.1-0.4-0.2-1.1-1-1.5c-0.2-0.1-0.6-0.2-0.9-0.2V135c-0.2-0.6-0.4-1.3-0.7-2c-0.4-1.2-0.7-2.3-1.3-3.5
								c-0.1-0.1-0.1-0.1-0.1-0.2c-1.2-1.8-3-2.4-5-1.7c-0.4,0.1-0.7,0.2-1.1,0.5c-0.2,0-0.5,0.1-0.6,0.1c-0.4,0.1-0.6,0.3-0.8,0.6
								c-0.2-0.1-0.6-0.1-0.9,0.1c-0.1,0.1-0.2,0.1-0.4,0.2l-1.1,0.4l-1.8,0.6l-3.1,1c-0.2,0-0.3,0.1-0.5,0.1
								c-0.3,0.1-0.6,0.3-0.9,0.6c-1,0.4-1.7,1.2-2,2.6c-0.2,0.4-0.2,0.9-0.1,1.3l0,0c-0.1,0.6,0.1,1.1,0.2,1.3
								c0,0.1,0.1,0.1,0.1,0.1c0.3,1,0.6,2,1,2.9l0.4,1.3c-0.2,0.2-0.4,0.4-0.5,0.7c-0.4,0.8-0.1,1.5,0.1,1.9c0,0.1,0.1,0.1,0.1,0.1
								c0.2,0.8,0.7,1.2,1,1.3s0.8,0.3,1.4,0.2c0,0.1,0.1,0.1,0.1,0.2c0.1,0.3,0.2,0.6,0.2,0.8c-0.1,1.9-0.2,3.8-0.2,5.6
								c-0.1,0.8-0.1,1.6-0.2,2.4c-0.1,1.5-0.2,3.1-0.2,4.8c-0.3,1.9-0.4,3.9-0.4,5.7c0,0.7-0.1,1.3-0.1,2c-0.1,2.1-0.1,4.2,0.7,6.2
								l0.1,0.2c0.4,1.2,0.9,2.3,1.7,2.8c-0.1,0.1-0.1,0.2-0.1,0.4c-0.1,0.3-0.1,0.6,0.1,0.9l0.1,0.4c0.1,0.3,0.2,0.6,0.3,0.9
								c1.7,4,3.4,8.3,4.3,12.9c0.2,0.9,0.4,1.7,1,2.2c-0.2,0.4-0.2,0.7-0.2,1.1c0,0.1,0.1,0.1,0.1,0.2c0.1,0.3,0.2,0.6,0.2,0.9
								c0.2,0.7,0.4,1.5,0.9,2.3c1.4,2.7,2.9,5.3,4.3,7.8c3,5.1,4.8,10.8,5.3,16.8c0.4,4,1.1,8.6,3.6,12.9c0.8,1.5,1.9,3.5,3.6,5.1
								c1.5,1.6,3.6,2.1,5.5,1.5c1.5-0.5,2.8-1.7,3.4-3.4c0.2-0.4,0.3-0.6,0.6-0.7c0.1-0.1,0.3-0.1,0.4-0.2c0.3-0.1,0.7-0.2,1.4,0.2
								c1.7,0.9,3.1,1.1,4.3,0.7c1.7-0.6,2.6-2.1,3.1-3.2c0.1-0.1,0.1-0.2,0.2-0.3c0.2-0.4,0.4-0.6,0.7-0.7c0.4-0.1,0.7-0.1,1.1,0.2
								c1.6,1,3.4,1.2,4.9,0.7c2-0.7,3.4-2.5,3.6-4.8C491.1,225.4,489.9,220,487.1,215.3z M456,153.4c-0.2,0.1-0.6,0.1-0.8,0.2
								c-0.9,0.3-1.8,0.6-2.6,0.9c-0.9,0.3-1.8,0.6-2.6,0.9c-0.3,0.1-0.6,0.2-1,0.4c0,0,0,0,0-0.1v-0.1c-0.2,0.1-0.4,0.1-0.6,0.2
								c-0.2,0.1-0.4,0.1-0.6,0.2c-0.5,0.2-1,0.4-1.5,0.6c-1.4,0.4-2.8,0.9-4.2,1.3c-0.6,0.2-1.2,0.4-1.8,0.5
								c-0.1,0.1-0.1,0.1-0.2,0.1c-0.1,0.8-0.1,1.5-0.1,2.3c0-0.4,0.1-0.8,0.1-1.2s0-0.8,0.1-1.2c-0.9,0.2-1.7,0.5-2.6,0.7
								c-0.1-1.2,0-2.4,0.1-3.6c0.1-1.2,0.2-2.4,0.2-3.6c0.1-1.9,0.2-3.7,0.2-5.6c0.1-0.8-0.4-1.5-0.6-2.2h0.1h-0.1
								c0-0.1-0.1-0.1-0.1-0.2l0,0l10.8-3.6l3.6-1.2c0,0.1,0.1,0.1,0.1,0.1c0.1,0.4,0.2,0.7,0.4,1c0.4,0.9,1,1.8,1.7,2.6
								c0.4,0.6,0.9,1,1.3,1.5c0.4,0.5,0.9,1,1.3,1.5c0.4,0.5,0.7,0.9,1.1,1.3c1.2,1.3,2.3,2.6,3.4,4
								C459.4,152.2,457.7,152.8,456,153.4z"/>
						</g>
					</g>
					<g>
						<g>
							<g>
								<path class="st10" d="M485,216.4l-0.2-0.4c-2.3-3.9-4.4-7.6-5.7-11.9c-1.1-3.7-1.7-7.7-2.2-11.5c-0.1-0.6-0.2-1.3-0.2-2
									c-0.2-2.2-0.4-4.2-1.3-6.2c-0.2-0.4-0.2-0.7-0.3-1c-0.1-0.4-0.2-0.7-0.4-1c-0.1-0.2-0.2-0.3-0.3-0.5
									c-1.4-3.1-2.9-6.8-3.8-10.7c-0.2-1-0.5-2-0.9-3c-0.1-0.4-0.2-0.8-0.4-1.2c0-0.1-0.1-0.4-0.1-0.4c0-0.1,0-0.2-0.1-0.2
									c-0.1-0.5-0.1-0.9-0.2-1.2c-0.1-0.1-0.1-0.2-0.1-0.2c-0.1-0.4-0.2-0.9-0.4-1.4c-0.2-1-0.6-2-1-2.8c-1.7-2.6-3.7-5-5.6-7.1
									l-5.1,1.8c-0.1,0.1-0.2,0.1-0.3,0.1l-0.7,0.2l-5.1,1.7l-0.9,0.4c-0.2,0.1-0.5,0.1-0.7,0.2l-2.1,0.8l-4.2,1.4l-0.3,0.1
									c0,0.1,0,0.2,0,0.3v0.4c-0.1,1.3-1.2,2.4-2.5,2.3c-0.1,0-0.1,0-0.1,0c-0.7-0.1-1.3-0.4-1.7-0.9c-0.1,0.9-0.1,1.8-0.1,2.6
									c0,0.7-0.1,1.3-0.1,2c-0.1,1.9-0.1,3.6,0.5,5.3l0.1,0.2c0.2,0.6,0.6,1.5,0.7,1.7c1,0.6,1.3,1.8,1,2.8v0.1
									c0.1,0.2,0.2,0.5,0.2,0.7c1.7,4.1,3.4,8.5,4.4,13.4c0.1,0.2,0.1,0.6,0.2,0.8c0.8,0.7,1.1,1.8,0.8,2.8
									c0.1,0.2,0.2,0.7,0.2,0.7c0.2,0.7,0.4,1.3,0.7,1.8c1.4,2.6,2.9,5.3,4.3,7.7c3.2,5.5,5.1,11.5,5.7,17.8c0.4,3.7,1,8,3.3,11.9
									c0,0.1,0.1,0.1,0.1,0.1c0.7,1.3,1.7,3.1,3.1,4.6c0.6,0.6,1.3,0.9,2,1c0.4,0.1,0.7,0,1.1-0.1c1.1-0.4,1.6-1.3,1.9-2
									c0.4-0.9,0.9-1.5,1.6-2c0.2-0.1,0.6-0.3,0.9-0.4c0.6-0.2,1-0.2,1.6-0.2c0.6,0.1,1.1,0.2,1.7,0.6c0.7,0.4,1.3,0.6,1.7,0.6
									c0.2,0,0.5,0,0.7-0.1c0.8-0.2,1.3-1.2,1.7-2c0.1-0.1,0.1-0.3,0.2-0.4c0.5-0.9,1.2-1.5,2.1-1.8c0.5-0.2,1-0.2,1.5-0.2
									c0.6,0.1,1.1,0.2,1.7,0.6c0.6,0.3,1.1,0.6,1.7,0.6c0.4,0.1,0.9,0,1.2-0.1c1.1-0.4,1.8-1.3,1.9-2.7
									C488.6,225.7,487.6,220.8,485,216.4z"/>
							</g>
						</g>
						<g>
							<g>
								<path class="st10" d="M440.6,158.1c0,0,1.2,4.6,1.3,6.8c0.2,2.2-0.8,3.6-1.9,3.1c-1.1-0.5-2.9-6.1-2.9-6.4
									c0-0.4,0.3-2.3,0.3-2.3"/>
							</g>
						</g>
						<g>
							<g>
								<path class="st1" d="M465.4,238c-0.1,0-0.2-0.1-0.5-0.3c-1.2-1.2-2.1-2.8-2.7-4c-0.1-0.1-0.1-0.2-0.2-0.2
									c-2-3.4-2.6-7.3-2.9-10.8c-0.6-6.7-2.6-13-6-18.8c-1.4-2.4-2.9-5-4.3-7.6c-0.2-0.3-0.3-0.8-0.5-1.3v-0.1
									c0.2-1.4-0.2-2.8-1.1-3.9l0,0c-1-5.1-2.8-9.7-4.6-13.8l0,0c0.2-1.6-0.4-3.2-1.7-4.3c-0.1-0.3-0.2-0.7-0.3-0.9l-0.1-0.2
									c-0.5-1.3-0.4-2.7-0.4-4.3c0-0.5,0.1-1,0.1-1.4c2-0.2,3.8-1.6,4.3-3.6l3.1-1l2-0.7c0.4-0.1,0.7-0.2,1.1-0.3l0.8-0.3l4.9-1.7
									l0.6-0.1c0.2-0.1,0.4-0.1,0.6-0.2c0,0,2.1-0.7,3.6-1.3c1.7,2,3.1,3.8,4.2,5.6c0.3,0.4,0.5,1.2,0.7,2.1
									c0.2,0.6,0.3,1,0.4,1.5c0.1,0.1,0.1,0.3,0.2,0.5c0,0.1,0.1,0.3,0.1,0.5c0,0.2,0.1,0.4,0.1,0.5c0,0.1,0.1,0.5,0.1,0.6
									c0.1,0.4,0.2,0.8,0.4,1.2c0.3,1,0.6,2,0.8,2.8c0.9,4.1,2.5,7.8,4,11.1c0.1,0.3,0.3,0.6,0.5,0.9c0,0.1,0.1,0.2,0.1,0.2
									c0.1,0.4,0.2,0.9,0.5,1.5c0.7,1.6,0.9,3.4,1.2,5.5c0.1,0.7,0.1,1.3,0.2,2c0.6,3.9,1,7.9,2.3,11.9c1.3,4.6,3.6,8.4,5.9,12.4
									l0.2,0.4c2.3,3.9,3.2,8.3,2.9,13c0,0.2-0.1,0.6-0.2,0.6c-0.1,0-0.1,0-0.2,0c-0.2,0-0.4-0.1-0.7-0.2
									c-0.9-0.5-1.7-0.8-2.7-0.9c-0.9-0.1-1.7,0-2.5,0.2c-1.5,0.5-2.7,1.5-3.5,2.9c-0.1,0.1-0.2,0.3-0.3,0.6
									c-0.1,0.2-0.2,0.4-0.3,0.6c-0.1-0.1-0.3-0.1-0.5-0.2c-0.9-0.4-1.7-0.7-2.6-0.8c-0.9-0.1-1.8,0-2.6,0.3
									c-0.4,0.1-0.9,0.3-1.3,0.6c-1.2,0.7-2.1,1.8-2.7,3.2c-0.1,0.2-0.2,0.5-0.4,0.6L465.4,238z"/>
							</g>
						</g>
						<g>
							<g>
								<path class="st8" d="M451.2,137.1c0.1,0,0.1-0.1,0.2-0.1c-0.4-0.3-0.7-0.7-0.9-1.1c-0.2-0.7-0.5-1.3-0.7-2.1
									c-0.3-1.1-0.7-2.1-1.1-3.1c-0.6-0.9-1.1-0.9-1.3-0.9c-0.2,0-0.6,0-0.9,0.1c-0.2,0.1-0.5,0.2-0.7,0.3
									c-0.3,0.1-0.6,0.2-0.9,0.2c-0.5,0.5-1.2,0.7-1.8,0.6l0,0c-0.1,0.1-0.2,0.1-0.2,0.1l-1.2,0.4l-1.8,0.6l-3.1,1
									c-0.1,0.1-0.2,0.1-0.4,0.1c0,0,0,0-0.1,0c-0.2,0.2-0.6,0.4-0.9,0.6c-0.1,0.1-0.3,0.1-0.4,0.7c0,0.1-0.1,0.2-0.1,0.4
									c0,0.1,0.1,0.2,0.1,0.2c0,0.2,0.1,0.4,0,0.6c0,0.1,0.1,0.1,0.1,0.2c0.1,0.1,0.1,0.2,0.1,0.4c0.3,1,0.6,2,1,2.9l0.4,1.3
									c0.2,0.5,0.2,1,0,1.4C436.6,141.9,451.2,137.1,451.2,137.1z"/>
							</g>
						</g>
					</g>
					<g>
						<g>
							<path class="st1" d="M435.4,138.8L435.4,138.8c-0.4-1.2-0.8-2.5-1.2-3.7C434.6,136.4,435,137.6,435.4,138.8z"/>
						</g>
					</g>
					<g>
						<g>
							<path class="st1" d="M449.7,134.1c-1.1,0.4-2.2,0.7-3.3,1.1l0,0C447.6,134.8,448.6,134.5,449.7,134.1z"/>
						</g>
					</g>
					<g>
						<g>
							<path class="st1" d="M450.5,133.6c0,0.1,0.1,0.1,0.1,0.2c0,0.1,0.1,0.1,0.1,0.1c0-0.1-0.1-0.1-0.1-0.1
								C450.6,133.7,450.5,133.7,450.5,133.6c-0.4-1.2-0.7-2.2-1-3.3C449.9,131.4,450.2,132.5,450.5,133.6
								C450.5,133.6,450.5,133.6,450.5,133.6z"/>
						</g>
					</g>
					<g>
						<g>
							<path class="st1" d="M445,130.9L445,130.9c0.1,0.2,0.1,0.4,0.2,0.6c0-0.1-0.1-0.2-0.1-0.2C445.1,131,445,131,445,130.9
								c-0.1,0.1-0.2,0.1-0.3,0.1c0,0,0,0,0.1,0C444.8,130.9,444.9,130.9,445,130.9z"/>
						</g>
					</g>
				</g>
			</g>
			<g>
				<g>
					<path class="st11" d="M447.8,177.1c-0.2,5.6-1.5,9.4-4.1,12.2c-0.1,0.2-0.3,0.3-0.4,0.5c-0.4,0.4-0.6,0.7-0.8,1.1
						c-0.1,0.1-0.1,0.2-0.2,0.3c-0.2,0.2-0.1,0.5-0.1,0.7c0,0.1,0,0.2,0,0.3v0.9l0.9-0.3c0.2-0.1,0.4-0.1,0.6-0.2
						c0.7-0.3,1.3-0.7,1.8-1.3c0.1-0.1,0.3-0.3,0.4-0.5c0.1-0.1,0.2-0.3,0.4-0.4c0.3-0.4,0.5-0.5,0.5-0.5s0.2,0.1,0.5,0.9
						c0.3,0.8,0.6,1.7,0.7,2.6c0,1.1,0,2.2-0.1,3.2c0,0.2-0.1,0.5-0.1,0.8c-0.1,1-0.4,2.1-0.7,3.2c-0.4,1.7-1,3.2-1.8,4.7
						c-1.4,2.6-3.1,4.1-5.4,4.5l-2.1,0.4l2,0.9c0.6,0.2,1.3,0.4,2,0.2c1.7-0.2,3.4-1.3,4.8-3.2c1.2-1.4,1.9-3.2,2.6-5
						c0,0.6-0.1,1.1,0.1,1.7l0.3,2.6c0,0.2,0.1,0.3,0.1,0.4l0,0l0.1,0.1c0.1,0.4,0.2,0.9,0.3,1.2l1.7,6.2c-2.5,1.8-4.9,2.9-7.3,3.4
						c-0.4,0.1-0.9,0.2-1.3,0.2c-0.4,0.1-0.9,0.1-1.4,0.1c-0.6,0-1.3,0-1.9-0.1c-1-0.2-2.1-0.6-3.1-1.2c-0.8-0.5-1.5-1-2.3-1.7
						l-0.1-0.1c-0.2-0.4-0.5-0.7-0.8-0.7c-0.1-0.1-0.2-0.1-0.4-0.1l-0.2,0.1h-0.1l-0.2,0.2c-0.2,0.3-0.2,0.6-0.2,0.9
						c-0.3-0.1-0.7-0.3-1.2-0.6c-0.1-0.1-0.2-0.2-0.4-0.2l-0.2-0.1h-0.2c-0.2,0-0.6,0.2-0.7,0.7c-0.1,0.2-0.1,0.4,0,0.6l0.1,0.2
						l0.1,0.1c0.1,0.2,0.3,0.3,0.6,0.4c0.7,0.9,1.5,1.2,2.4,1.5c0.2,0.1,0.3,0.1,0.5,0.2c-0.5,0.7-1,0.8-1.4,0.9
						c-0.7,0.1-1.4-0.1-2-0.3c-3.7-1.1-6.5-3.9-8.6-8.6c-0.8-1.8-1.3-3.5-1.7-5.1c-0.1-0.9-0.2-1.7-0.3-2.6c-0.1-1.2-0.1-2.2,0-3.1
						c0.1-0.7,0.2-1.2,0.3-1.8c0.1-0.5,0.3-1,0.6-1.5c0.4-0.9,0.8-1.5,1.3-2c0.7-0.6,1.4-1.1,2.2-1.2c0.4-0.1,0.8,0,1.2,0.2
						c0.3,0.1,0.7,0.3,0.8,0.6c0.1,0.1,0,0.4-0.1,0.6c-0.1,0.7-0.4,1.3-0.7,1.9c-0.5,1.2-1.1,2.4-0.8,4c-0.1,0.2-0.2,0.7,0.1,1.2
						l0.5,2c0,0.2,0.1,0.4,0.1,0.7c0.1,0.9,0.1,2.1,1.2,3.4l1.1-0.6l-0.5-2.3c0.3,0.7,0.7,1.3,1.2,2c1,2.1,2.4,3.4,4.8,4.5l1.9,0.7
						l-0.2-0.3l0.2,0.1l-4.4-5.8l-1.8-4.5l-0.2-1.5l0.1-0.7v-1.6v-0.6l0.1-0.2h0.1l0.1-0.4l0.2-0.9h-0.1c0-0.2,0.1-0.4,0.1-0.6
						c0.2-1.3,0.5-2.6,1-3.9c0.2-0.5,0.4-1,0.6-1.5c0.4-0.4,0.7-0.9,1-1.3c0.9-1.3,1.8-2.5,3-3.2c-0.1,0.1-0.3,0.6-0.3,0.6l0.6,0.3
						l-0.7-0.2c-0.6,0.6-0.7,1.2-0.2,1.7c0.2,0.2,0.4,0.2,0.7,0.2c0.6-0.1,0.9-0.7,1-1c3.3-2.8,4.2-6.6,2.7-11.4
						c-0.5-1.5-1-3.2-1.3-5c-0.2-1.7,0-3,0.6-3.9c0.4-0.6,1.1-0.9,2-1c0.5-0.1,1-0.1,1.5,0C445.4,166.6,448.2,170.9,447.8,177.1z"/>
				</g>
			</g>
			<g>
				<g>
					<g>
						<g>
							<path class="st8" d="M480.6,186.7c-0.4-1.6-0.4-3.2-0.4-3.2l0,0c0.1-1.4-0.2-2.9-0.6-3.7c-0.6-1.3-2.1-3.2-2.6-4
								c-0.5-0.9-0.2-2,0.1-4.7c0.2-1.6-0.4-3.2-0.8-4.3l-2.3,0.8c0.5,0.6,0.9,1.3,1,2.3c0.1,0.3,0.1,0.6,0.1,0.9
								c0.1,1.2-0.1,2-0.5,2.7c-0.2,0.4-0.5,0.7-0.7,1c-0.1,0.1-0.1,0.1-0.1,0.1l0.1,0.4l-0.6-0.1c-0.1,0.1-0.2,0.2-0.4,0.2
								l-0.1,0.1c-0.1,0-0.1,0.1-0.2,0.1c-0.3,0.1-0.6,0.2-0.9,0.3c-0.1,0.1-0.2,0.1-0.4,0.1c0,0-0.4,0.2-0.6,0.2
								c-0.5,0.2-0.9,0.4-1.3,0.5c-0.5,0.2-0.9,0.4-1.3,0.6c-0.6,0.3-1.2,0.6-1.7,0.9c-0.2,0.1-0.4,0.2-0.6,0.4c-0.1,0-0.1,0-0.1,0
								c-3.7-0.4-6.7-2.6-5.5-6.2l-9.1,3.1c0.1,0.2,0.1,0.4,0.2,0.7c-0.3,0.5-0.5,1-0.5,1.8c0,0.6-0.1,1.1-0.1,1.7
								c0.4,0.2,0.9,0.6,1.5,0.9c0.1,0.5,0.1,1,0.2,1.5c-0.7-0.4-1.3-0.8-1.9-1.1c-0.1,0.3-0.1,0.6-0.2,0.9c-0.2,0.7-0.4,1.3-0.6,2
								l0.1,0.4l-0.3,0.1c-0.6,1.4-1.1,2.6-0.7,3.9c0.2,0.5,0.4,1,0.9,1.4c0.5,0.5,0.6,1.3,0.6,2.1l0.1,1.1c0.1,0.5,0.1,0.9,0.2,1.4
								c0.1,1.1,0.4,2.4,1.2,3.6c0.2,0.4,0.3,0.9,0.2,1.2c-0.1,0.2-0.2,0.4-0.6,0.5l0,0c0,0.2,0,0.4-0.1,0.7c0,0.1-0.1,0.3-0.1,0.5
								l0,0c0,0,0,0,0,0.1l18.7-6.4c0.2-0.2,0.4-0.4,0.7-0.7c0.3-0.3,0.7-0.6,1-0.8c0.4-0.2,0.9-0.6,1.3-0.8
								c0.4-0.2,0.9-0.4,1.3-0.6c0.1-0.1,0.2-0.1,0.3-0.2c0.2-0.1,0.3-0.1,0.5-0.2c0.1,0,0.1-0.1,0.1-0.1l0,0
								c0.1-0.1,0.2-0.1,0.3-0.1c0.2-0.1,0.5-0.2,0.7-0.3l0,0c0,0,0.1-0.1,0.2-0.1c0.2-0.1,0.7-0.3,1.2-0.4c0.1,0,0.2,0,0.2,0
								c0.2,0,0.4,0,0.6,0c0.1,0,0.2,0,0.4,0.1c0.2,0.1,0.5,0.1,0.7,0.2c0.1,0.1,0.2,0.1,0.2,0.1c0.1,0.1,0.2,0.1,0.4,0.2l2.2-0.7
								C481.8,188.6,480.9,187.7,480.6,186.7z M477.8,185.5c-0.1,0.1-0.1,0.3-0.1,0.4c-0.1,0.2-0.1,0.4-0.2,0.6
								c-0.2,0.5-0.5,0.9-0.8,1.1l0,0l-0.2,0.2c0,0-0.1,0-0.1,0.1l0,0l-0.2,0.2c-0.4,0.1-0.9,0.3-1.2,0.4c0,0,0,0-0.1,0
								c-0.2,0.1-0.4,0.1-0.6,0.2l0,0c-0.1,0-0.1,0.1-0.2,0.1c-0.1,0.1-0.3,0.1-0.3,0.1c-0.6,0.2-1.2,0.6-1.8,0.9
								c-0.3,0.2-0.6,0.4-0.9,0.6h-0.1c-2.5,0.1-5-0.7-6.2-2.1l0,0c-0.1-0.1-0.1-0.1-0.1-0.2c-0.4-0.4-0.6-0.9-0.7-1.5
								c-0.2-0.9-0.1-1.8,0.5-3c0.2-0.6,0.6-1,1.1-1.5c0.4-0.4,0.8-0.7,1.3-1.1c0.1-0.1,0.1-0.1,0.2-0.1c0.2-0.1,0.4-0.2,0.6-0.4
								c0.6-0.4,1.2-0.7,1.9-1c0.4-0.2,0.7-0.4,1.1-0.5c0.4-0.2,0.9-0.4,1.3-0.6c0.2-0.1,0.4-0.1,0.6-0.2c0.1-0.1,0.2-0.1,0.4-0.1
								c0.3-0.1,0.6-0.2,0.9-0.3c0.2-0.1,0.3-0.1,0.4-0.1v-0.1c0.2-0.1,0.4,0,0.7,0.1c0.2,0.1,0.4,0.3,0.7,0.6
								c0.1,0.1,0.1,0.1,0.1,0.1c0.1,0.1,0.2,0.2,0.2,0.3c0.8,1.1,1.6,2.9,2,4.8c0.1,0.3,0.1,0.6,0.1,0.8
								C477.9,184.7,477.9,185.1,477.8,185.5z"/>
						</g>
					</g>
					<g>
						<g>
							<path class="st1" d="M448.7,184c0.4-1.3,0.6-2.8,0.8-4c0.1,0.4,0.2,0.7,0.3,1C450.2,182.4,449.6,183.6,448.7,184z"/>
						</g>
					</g>
				</g>
			</g>
			<g>
				<g>
					<path class="st11" d="M447.2,187.9c0,0-3.5,3.6-5.1,4.3s-1.2-2.4-1.2-2.4l1.2-0.9"/>
				</g>
			</g>
			<g>
				<g>
					<polyline class="st1" points="453.9,213.5 451.3,208.3 452.1,215 453.8,215.5 453.7,215 					"/>
				</g>
			</g>
			<g>
				<g>
					<path class="st1" d="M435.9,186.6c0,0-1.8,2.1-3.3,2.8c0,0-0.1-2.1,1.3-3.7"/>
				</g>
			</g>
			<g>
				<g>
					<path class="st11" d="M425.6,194.7c0,0-2.6,14.8,8.6,17.8c0,0-7.3-1.4-7.8-1.9c-0.6-0.5-2.7-2-2.9-2.6c-0.2-0.6-1-2.9-1-4.2
						c0.1-1.3,0-4,0-4s0-1.6,0.1-2"/>
				</g>
			</g>
			<g>
				<g>
					<path class="st1" d="M434.3,212.4c0,0-5.6-6.1-5.8-11.5c-0.1-5.4,0.6-8.5,0.6-8.5s-2.4,4-2.4,5.6c0,1.6-0.2,0.9,0.4,3.2
						c0.7,2.3,1.1,3.3,1.5,4.3c0.4,1,0.6,0.8,0.6,1.3"/>
				</g>
			</g>
			<g>
				<g>
					<path class="st11" d="M424.6,193.9c0,0,1.2,0.2,1.5,1.2c0.3,0.9-0.7,2.8-0.1,7.2c0.7,4.3,3.6,7.8,3.6,7.8l-4.5-4.7l-1.7-3.6
						c0,0,0.1-2.1,0-2.3"/>
				</g>
			</g>
			<g>
				<g>
					<path class="st11" d="M433.2,219.1c0,0-2-1.8-2.6-3.6s-4-3.7-2.6-0.9c1.5,2.8,0.7,1.8,1.2,2.4c0.5,0.7,0.7,1,1.1,1.5
						c0.4,0.5,0.7,0.6,0.7,0.6"/>
				</g>
			</g>
			<g>
				<g>
					<path class="st11" d="M432.5,216.4c0,0,5.7,3.1,7.7,2.8s0.8-3.8-0.7-4.2s-4.7-1-4.9-0.9c-0.2,0.1-1.2,0.2-1.2,0.2
						c-0.1,0-0.7-0.1-0.7-0.1"/>
				</g>
			</g>
			<g>
				<g>
					<path class="st1" d="M447.7,187.1c0,0-2.7,4.8-5.5,5.8l0.1-0.8c0,0,3.3-4.5,3.4-5.6"/>
				</g>
			</g>
			<g>
				<g>
					<path class="st11" d="M446.2,185.4c0,0-1.9,4.3-3.2,5.8c-1.3,1.5-3.7-0.2-3.7-0.2l0.4-1.8"/>
				</g>
			</g>
			<g>
				<g>
					<g>
						<path class="st1" d="M482,190c-1.5-1.7-2.9-1.5-3.1-2.2c-0.2-0.7,1-2.7,1-2.7c0.6-1.6,0.1-4.1-0.3-5.2c-0.6-1.3-2.1-3.2-2.6-4
							c-0.5-0.9-0.2-2,0.1-4.7c0.2-2.6-1.3-5.5-1.3-5.5l-2,22.2l2.4,4.9c0,0,2.9,9.1,5.4,7.8c0.3-0.1,0.6-0.4,0.9-0.6
							c0-0.1,0.3-1.9,0.7-3.4C483.6,195,483.5,191.6,482,190z"/>
					</g>
				</g>
				<g>
					<g>
						<path class="st1" d="M471.7,165.2c0.3,0.4,0.6,0.8,0.9,1.2C472.2,166,471.9,165.6,471.7,165.2c-1-1.2-2.2-2.5-3.2-3.4
							c-0.5-0.5-0.9-0.9-1.3-1.2c-0.3-0.2-0.5-0.4-0.6-0.6c0.2,0.1,0.4,0.3,0.6,0.5c0.4,0.3,0.8,0.7,1.3,1.2
							C469.5,162.5,470.6,163.8,471.7,165.2z"/>
					</g>
				</g>
				<g>
					<g>
						<path class="st1" d="M474.8,171.7l0.1,0.2c-0.1-0.2-0.1-0.3-0.2-0.5c-0.3-1-0.7-2.2-1.2-3.3c0.5,1,0.9,2.1,1.2,3.2
							C474.7,171.5,474.8,171.6,474.8,171.7z"/>
					</g>
				</g>
				<g>
					<g>
						<path class="st1" d="M476.9,177.9l-1.8,0.9c-0.8,0.4-1.7,0.8-2.7,1.1c-0.7,0.3-1.6,0.6-2.5,0.7l-0.3,0.1h-0.3
							c-0.7,0.1-1.3,0.2-2,0.2c-0.4,0-0.9,0-1.5-0.1l-0.4-0.1c-3.3-0.4-5.9-1.8-7.2-4c-1-1.8-1-4.1,0.1-6.3c0.9-1.8,2.7-3.5,5.4-4.9
							c0.8-0.4,1.7-0.9,2.7-1.2c0.7-0.3,1.5-0.6,2.1-0.8l1-0.9c0.4,0.1,0.8,0.1,1.2,0.2l1,1.4c0.4,0.4,0.7,1,1,1.5l0.1,0.2
							c0.3,0.5,0.6,1,0.9,1.5l0.2,0.4v0.1c0.6,1.2,1,2.3,1.3,3.5c0.1,0.1,0.1,0.2,0.1,0.4l0.2,0.6v0.1L476.9,177.9z"/>
					</g>
				</g>
				<g>
					<g>
						<path class="st11" d="M474.3,176.6c-0.7,0.3-1.5,0.7-2.4,1c-0.7,0.3-1.6,0.5-2.4,0.7c0,0-0.1,0-0.1,0c-0.7,0.1-1.3,0.2-2,0.2
							c-0.6,0-1,0-1.5-0.1c-3.9-0.4-7.1-2.9-5.2-6.9c0.7-1.6,2.4-2.9,4.4-3.9c0.8-0.4,1.7-0.8,2.5-1.2c0.9-0.4,1.7-0.7,2.5-0.9h0.1
							c0.3,0.4,0.6,0.8,0.9,1.3c0.1,0.1,0.1,0.1,0.1,0.2c0.3,0.5,0.6,1,0.9,1.5c0,0.1,0,0.1,0.1,0.1c0.5,1,0.9,2.1,1.2,3.3
							c0.1,0.1,0.1,0.2,0.1,0.3l0.1,0.2l0,0L473,175L474.3,176.6z"/>
					</g>
				</g>
				<g>
					<g>
						<path class="st1" d="M479,187.8c0.1,0.2,0.2,0.3,0.5,0.4l-0.4-1.3C479,187.2,478.9,187.5,479,187.8z"/>
					</g>
				</g>
				<g>
					<g>
						<path class="st1" d="M479,187.8c-0.1-0.2,0-0.6,0.1-0.9l-2.9-11.6l-1.8-0.1l-1.1-0.1l-0.4,0.4c-0.4,0.1-0.9,0.3-1.5,0.5
							c0,0-0.4,0.2-0.6,0.2c-1,0.4-1.9,0.7-2.7,1.1c-1.1,0.6-2.1,1.1-2.8,1.7c-1.6,1.1-2.8,2.3-3.4,3.7c-1.1,2.2-1.1,4.5,0,6.4
							c1.3,2.3,4,3.7,7.5,4c0.5,0.1,1,0.1,1.5,0.1c0.4,0,0.7-0.1,1.1-0.1h0.2c0.9-0.1,1.9-0.3,2.9-0.6c0.3-0.1,0.6-0.2,0.8-0.2
							c0.6-0.2,1.3-0.4,1.9-0.7l2.1-0.9l-0.5-2.1C479.2,188.1,479,187.9,479,187.8z"/>
					</g>
				</g>
				<g>
					<g>
						<path class="st11" d="M474.5,178.8l2.4,10c0,0-0.1,0-0.1,0.1c-0.6,0.2-1.2,0.5-1.8,0.7c-0.2,0.1-0.4,0.1-0.6,0.2
							c-0.8,0.2-1.7,0.4-2.5,0.6l0,0c-0.4,0.1-0.7,0.1-1.1,0.1c-4.5,0.1-8.8-2.4-6.6-6.8c0.5-1,1.4-2,2.6-2.8c0.8-0.6,1.7-1,2.5-1.5
							c0.8-0.4,1.7-0.7,2.4-1c0.2-0.1,0.4-0.1,0.6-0.2c0.7-0.2,1.3-0.4,1.9-0.6l0,0L474.5,178.8z"/>
					</g>
				</g>
				<g>
					<g>
						<path class="st1" d="M479,187.8c0.1,0.2,0.2,0.3,0.5,0.5l-0.4-1.4C479,187.1,478.9,187.5,479,187.8z"/>
					</g>
				</g>
				<g>
					<g>
						<path class="st1" d="M479,187.8c-0.1-0.2,0-0.6,0.1-0.9l-0.2-1l-2.8,2.3c-0.4,0.1-0.9,0.3-1.2,0.4c-0.2,0.1-0.4,0.1-0.6,0.2
							c-0.1,0.1-0.5,0.2-0.5,0.2c-0.6,0.2-1.2,0.6-1.8,0.9c-1.1,0.6-2,1.2-2.8,1.8c-0.9,0.8-1.7,1.7-2.1,2.6c-0.7,1.5-0.9,3-0.6,4.3
							c0.7,2.9,3.5,4.9,7.3,5.3c0.4,0.1,0.9,0.1,1.3,0.1h0.4c0.9-0.1,1.8-0.2,2.7-0.4c0.4-0.1,0.8-0.2,1-0.3c0.5-0.1,1-0.3,1.4-0.5
							l2.1-0.8l-2.1-8.6v-0.2v-0.3l-0.7-2.6l-0.5-2C479.2,188.1,479,187.9,479,187.8z"/>
					</g>
				</g>
				<g>
					<g>
						<path class="st1" d="M472.2,167.2c0,0,1.1,1.8,1.3,2.3s1.6,5.3,1.6,5.3s0.5,0.1,0.7-0.7c0.2-0.8,2-7.5-1-9.6
							c-3-2.1-5.4-1.8-5.4-1.8"/>
					</g>
				</g>
				<g>
					<g>
						<path class="st1" d="M479.1,180.3c-1.9-3.2-4.1-6.1-4.1-6.1l0.8,6.1c0,0,1,3.5,1.1,3.7c0.1,0.2,1,3.7,1,3.7
							S481,183.5,479.1,180.3z"/>
					</g>
				</g>
				<g>
					<g>
						<path class="st1" d="M482,190c-1.5-1.7-2.9-1.5-3.1-2.2c-0.1-0.4,0.2-1.2,0.5-1.8c-1.1-0.4-1.9-0.4-1.9-0.4l3.9,15.5
							c0,0,1.2-2.5,1.9-5.4C483.5,193.9,483.2,191.3,482,190z"/>
					</g>
				</g>
				<g>
					<g>
						<path class="st11" d="M472.7,175.4c0,0,3.3-1.2,2.4-5.6c-0.9-4.3-5-4.3-5-4.3"/>
					</g>
				</g>
				<g>
					<g>
						<path class="st11" d="M476,188.1c0,0,2.5-1.4,1.7-4.7c-0.8-3.3-2.4-6.2-3.7-5.9"/>
					</g>
				</g>
				<g>
					<g>
						<path class="st11" d="M482.3,192.4c-0.2-3.6-4.3-2.3-4.9-2.1l0,0h-0.1c-0.5,0.2-1,0.4-1.6,0.6c-0.2,0.1-0.3,0.1-0.5,0.2
							c-0.2,0.1-0.3,0.1-0.5,0.2c-0.6,0.2-1.1,0.5-1.7,0.8c-0.9,0.4-1.7,1-2.3,1.5c-0.6,0.6-1.2,1.2-1.5,1.8c-0.5,1-0.6,1.9-0.4,2.6
							c0.5,2.2,3.3,3.4,6.2,3.3c0.1,0,0.2,0,0.3,0c0.8-0.1,1.5-0.2,2.3-0.4c0.3-0.1,0.6-0.2,0.9-0.2c0.4-0.1,0.7-0.2,1-0.4l0,0l0,0
							c0.1,0,0.2-0.1,0.2-0.1l-0.1-0.2C480.3,199.2,482.5,195.7,482.3,192.4z"/>
					</g>
				</g>
				<g>
					<g>
						<path class="st1" d="M481.8,189.7c-0.2-0.1-0.5-0.2-0.5-0.2v-0.2c-0.3-0.2-0.6-0.4-0.8-0.6l-3,1.6c0,0,2,0.1,2.6,1.7
							c0.7,1.7,1.1,4.2,1.2,5c0.1,0.7,1.3-1.2,1.5-2c0.1-0.4,0.3-0.8,0.5-1.3c-0.1-1.4-0.5-2.8-1.3-3.7
							C482,189.8,481.8,189.8,481.8,189.7z"/>
					</g>
				</g>
				<g>
					<g>
						<path class="st11" d="M481.2,195.8c0,0,0.6,2.6,0.1,3.6s-2.1,1.2-2.1,1.2"/>
					</g>
				</g>
				<g>
					<g>
						<path class="st1" d="M481.3,189.2c0,0-1.1-0.6-1.5-1.6c-0.4-1-0.1-2.1,0.1-2.5c0.2-0.4-0.6-0.8-1,0.1
							c-0.4,0.9-0.5,0.7-0.6,1.7c-0.1,1,0.7,1.7,0.8,1.8"/>
					</g>
				</g>
				<g>
					<g>
						<path class="st1" d="M482.7,201.8c0,0,2.1-4.8,1.2-8.6c-0.9-3.9-2.8-4.9-3.2-6.6c-0.4-1.6-0.4-3.2-0.4-3.2s-1.5,1.7-1.5,2.9
							c-0.1,1.2-0.9,1.4-0.1,2c0.9,0.6,0.9,0.5,1.8,1.3c0.9,0.9,0.7,1,1,1.5c0.3,0.5,0.2,0.1,0.5,0.9c0.3,0.7,0.4,0.9,0.6,1.3
							c0.2,0.4,0.2,0.6,0.2,1.3s-0.2,1.7-0.4,2.4c-0.1,0.7-0.2,1.3-0.3,1.5c-0.1,0.2-0.6,0.6-0.6,1c-0.1,0.4-0.2,0.6-0.1,0.9"/>
					</g>
				</g>
				<g>
					<g>
						<path class="st11" d="M476.5,190.6c0,0,2.2-1.3,4,0.2c1.8,1.5,1.5,4.7,1.5,6.4c0,1.7-0.9,2.5-1.3,2.8"/>
					</g>
				</g>
			</g>
			<g>
				<g>
					<path class="st10" d="M462.7,158.4l-5.1-6.6l3.2-0.7c0,0,3,5,4.2,6.3"/>
				</g>
			</g>
			<g>
				<g>
					<path class="st10" d="M438.7,156.8c0,0,1.4,3.8,2.3,4.8c0.9,1.1,0.6,1.2,0.9,1.1c0.2-0.1,3.6-1.9,3.8-2.1
						c0.2-0.2-1.8-0.3,1.7-0.9c3.5-0.6,8.3-1.8,8.9-2.1c0.7-0.3,0.9-1.3,2.3-1.5c1.5-0.2,1.8-0.7,1.8-0.7s0.2-1.9,0.2-2.2
						c-0.1-0.4-2.5-0.9-2.5-0.9l-4.8-0.2"/>
				</g>
			</g>
			<g>
				<g>
					<path class="st8" d="M451.3,200.7c0,0-0.7-6.2-2-9.6c-1.3-3.4-0.4-4,0-6.5c0.4-2.4,2-9.4,2-9.4l6.5,0.2c0,0-1,2.2-0.4,4.7
						s0.1,4.3,0.4,6.2"/>
				</g>
			</g>
			<g>
				<g>
					<path class="st1" d="M439.1,164.4c0,0-1.5-1.9-1-5.8s1.1-12.6,1.2-13.5s-0.8-2.7-0.8-2.7s-1.3,1-1.4,1.5
						c-0.1,0.4,0.4,5.9,0.4,6.3s-0.4,2.1-0.4,2.1s-0.6,4-0.6,5c-0.1,1-0.2,2.8-0.2,2.8s0,2.3,0.1,2.6c0.1,0.4,0.2,1.2,0.2,1.2"/>
				</g>
			</g>
			<g>
				<g>
					<path class="st1" d="M439.1,163.2c0,0-0.7-3.3,0.2-7c1-3.8,0.4-12.5,0.2-13.3s-2.3,2.8-1.9,3.8c0.4,1,0.1,2.6-0.1,4.7
						c-0.1,2.1-0.5,3.9-0.7,4.3c-0.1,0.4-0.3,0.4-0.4,1c-0.1,0.6,0,2.6-0.1,3c-0.1,0.4-0.1,1.3-0.1,1.3"/>
				</g>
			</g>
			<g>
				<g>
					<path class="st1" d="M451,138.9c0,0,2.3,5.6,5.6,9.4c3.4,3.7,6.6,7.9,8.3,10.1c1.7,2.2,3.7,5.8,3.7,5.8l1.2-0.9
						c0,0-1.3-3.6-1.7-4c-0.4-0.4-3.1-2.8-3.4-3.4c-0.2-0.7-1.4-1.5-2-2.6c-0.6-1-2.3-3.7-2.3-3.7"/>
				</g>
			</g>
			<g>
				<g>
					<g>
						<g>
							<path class="st1" d="M328.4,416.3h20.6c4.2,0,7.5-3.4,7.5-7.5v-37.3h-35.7v37.3C320.9,412.9,324.2,416.3,328.4,416.3z"/>
						</g>
					</g>
					<g>
						<g>
							<path class="st1" d="M341.8,418.1h-6.1c-9.2,0-16.7-7.5-16.7-16.7v-31.8h39.3v31.8C358.4,410.6,351,418.1,341.8,418.1z
								 M322.7,373.2v28.2c0,7.2,5.8,13,13,13h6.1c7.2,0,13-5.8,13-13v-28.2H322.7z"/>
						</g>
					</g>
				</g>
				<g>
					<g>
						<g>
							<path class="st1" d="M155.4,425.1h20.6c4.2,0,7.5-3.4,7.5-7.5v-37.3h-35.7v37.3C147.9,421.7,151.3,425.1,155.4,425.1z"/>
						</g>
					</g>
					<g>
						<g>
							<path class="st1" d="M168.8,426.9h-6.1c-9.2,0-16.7-7.5-16.7-16.7v-31.8h39.3v31.8C185.5,419.5,178,426.9,168.8,426.9z
								 M149.8,382v28.2c0,7.2,5.8,13,13,13h6.1c7.2,0,13-5.8,13-13V382H149.8z"/>
						</g>
					</g>
				</g>
				<g>
					<g>
						<g>
							<path class="st1" d="M91,399.2h20.6c4.2,0,7.5-3.4,7.5-7.5v-37.3H83.5v37.3C83.5,395.8,86.9,399.2,91,399.2z"/>
						</g>
					</g>
					<g>
						<g>
							<path class="st1" d="M104.4,401h-6.1c-9.2,0-16.7-7.5-16.7-16.7v-31.8H121v31.8C121,393.6,113.6,401,104.4,401z M85.3,356.1
								v28.2c0,7.2,5.8,13,13,13h6.1c7.2,0,13-5.8,13-13v-28.2H85.3z"/>
						</g>
					</g>
				</g>
				<g>
					<g>
						<g>
							<path class="st12" d="M137.6,10.7c0-0.4-0.4-0.6-0.7-0.5C118.4,17.1,100,25,82,34c-6.7,3.4-11.7,11.1-11.8,18.2
								c-1.1,125.7-2.2,180.1-3.3,304.2c-0.1,6.9,4.7,14.6,11.3,18.2c19.5,10.5,39.3,19.9,59.3,28.1V10.7z"/>
						</g>
					</g>
					<g>
						<g>
							<path class="st1" d="M139.3,405.4l-3.6-1.2c-19.7-8-38.5-17.3-58.4-28c-7.2-3.9-12.2-12.2-12.2-19.8
								c0.6-61.5,1.1-106.7,1.7-150.4c0.6-44.5,1.1-90.5,1.7-153.9c0.1-7.8,5.5-16.2,12.7-19.8c18.3-9,36.8-17,55.1-23.8
								c0.7-0.2,1.5-0.2,2.1,0.2c0.6,0.4,1,1.2,1,1.9V405.4L139.3,405.4z M135.7,12.6c-17.6,6.6-35.3,14.3-52.9,23
								c-6.1,3-10.7,10.2-10.8,16.6c-0.6,63.4-1.1,109.5-1.7,153.9c-0.6,43.7-1.1,88.8-1.7,150.3c-0.1,6.2,4.3,13.4,10.3,16.6
								c18.9,10.2,38,19.2,56.7,27V12.6z"/>
						</g>
					</g>
				</g>
				<g>
					<g>
						<g>
							<path class="st8" d="M363.3,386.3c-72.7,25.8-150.8,31.2-225.8,16.4V10.9c0-0.6,0.4-1,0.9-1.2
								c74.7-14.6,152.4-9.1,224.8,16.5c6.2,2.2,11.2,9.4,11.2,15.7c0,133,0,195.6,0,328.6C374.5,377,369.5,384.1,363.3,386.3z"/>
						</g>
					</g>
					<g>
						<g>
							<path class="st1" d="M220.7,412.7c-28,0.4-57,3.1-83.5-8.2l-1.5-0.3V10.9c0-1.4,1-2.6,2.4-2.9c75.4-14.8,153.4-9,225.8,16.6
								c6.9,2.4,12.4,10.3,12.4,17.5v328.6c0,7.2-5.6,15-12.4,17.5l0,0C317.8,404.4,269.3,412.7,220.7,412.7z M139.3,401.2
								c74.5,14.5,151.8,8.8,223.3-16.5l0,0c5.4-2,10-8.3,10-14V42.1c0-5.6-4.6-12.1-10-14C291.1,2.7,213.9-3.1,139.3,11.5V401.2z"
								/>
						</g>
					</g>
				</g>
				<g>
					<g>
						<g>
							<path class="st3" d="M361.1,386.3c6.1-2.2,11.1-9.4,11.1-15.7c0-19.8,0-38.9,0-57.3c-1.3-1-2.1-1.5-2.1-1.5s0,9.9,0,18.1
								c0,8.2-13.2,21.9-51.8,29.3c-38.6,7.3-127.6,12.2-152,4.4c-24.4-7.8-26.6-80.5-26.6-80.5l-0.2,3.1c0,37.1-2,75.6-2,116.5
								C211.8,417.6,289.1,412.1,361.1,386.3z"/>
						</g>
					</g>
				</g>
				<g>
					<g>
						<g>
							<path class="st6" d="M199.8,11c0,0,29.2-5.6,65.8,0.6s50.5,11.9,48.2,15.7c-2.3,3.8-45.5-0.1-76.7-2.6S192.6,15.8,199.8,11z"
								/>
						</g>
					</g>
				</g>
				<g>
					<g>
						<g>
							<path class="st6" d="M369.8,58.6v90.3C369.8,149,363.9,87.4,369.8,58.6z"/>
						</g>
					</g>
				</g>
				<g>
					<g>
						<g>
							<path class="st8" d="M76,50c0,0,1.6-9,11.9-13.5s40.2-17.9,42.6-17.8s1.6,15.6,1.6,15.6s-4.2-10.8-11-8.8
								c-6.9,2-30.9,12.9-34.7,16.2S76,50,76,50z"/>
						</g>
					</g>
				</g>
				<g>
					<g>
						<g>
							<g>
								<g>
									<g>
										<path class="st1" d="M199.2,273.8c-8.8,0-17.8,0-26.5-0.1c-9-0.1-16.3-8.1-16.3-17.8V46.5c0-9.7,7.2-18.1,16.1-18.6
											c8.8-0.5,17.8-0.7,26.7-0.7c39.9,0,79.6,4.9,118,14.5c8.4,2.1,15,10.8,15,19.8V255c0,9.1-7.1,16.8-15.8,17
											C278.3,273.2,238.9,273.8,199.2,273.8z"/>
									</g>
								</g>
							</g>
							<g>
								<g>
									<g>
										<path class="st13" d="M160.2,255.9c0-69.1,0-140.3,0-209.4c0-7.7,5.6-14.4,12.5-14.8c48.1-2.6,96.7,1.9,143.5,13.7
											c6.7,1.7,12.1,9,12.1,16.1c0,63.8,0,129.7,0,193.5c0,7.1-5.4,13-12.1,13.3c-46.8,1.5-95.4,2-143.5,1.7
											C165.8,269.8,160.2,263.5,160.2,255.9z"/>
									</g>
								</g>
							</g>
						</g>
						<g>
							<g>
								<g>
									<path class="st1" d="M324.6,61.6c0-0.1,0-0.1,0-0.1v-0.1l0,0c-0.1-5.4-4.3-10.9-9.2-12.2c-29.4-7.3-59.6-11.9-90.1-13.6
										c-3-0.1-6-0.3-9-0.4c-2.4-0.1-4.8-0.1-7.2-0.2c-3.3-0.1-6.6-0.1-9.9-0.1c-4.7,0-9.4,0.1-14.1,0.2c-4,0.1-8.1,0.3-12.1,0.5
										c-4.8,0.2-8.8,5.1-8.9,10.8l0,0v0.2l0,0l0,0v209.2c0,5.6,3.9,10.2,8.8,10.2c8.8,0.1,17.7,0.1,26.5,0.1
										c39.6,0,78.9-0.6,116.9-1.8c4.7-0.2,8.5-4.4,8.5-9.5L324.6,61.6L324.6,61.6z"/>
								</g>
							</g>
						</g>
					</g>
					<g>
						<g>
							<g>
								<g>
									<g>
										<path class="st1" d="M191.2,240.6c-4.4,0-8-3.6-8-8v-160c0-4.3,3.5-7.9,7.8-8c2,0,3.9-0.1,5.9-0.1c12.9,0,26,0.6,39,1.7
											c4.1,0.4,7.3,3.9,7.3,8v158.2c0,4.3-3.6,7.9-7.9,8c-12.9,0.1-25.8,0.2-38.3,0.2L191.2,240.6z"/>
									</g>
								</g>
							</g>
							<g>
								<g>
									<g>
										<path class="st10" d="M239.5,74.1c0-2.1-1.7-4-3.8-4.2c-12.8-1.1-25.7-1.7-38.6-1.7c-2,0-3.9,0-5.8,0.1
											c-2.3,0-4.1,1.9-4.1,4.2v160c0,2.3,1.8,4.2,4.2,4.2c2,0,3.9,0,5.8,0c12.8,0,25.6-0.1,38.3-0.2c2.3,0,4.1-1.9,4.1-4.2
											L239.5,74.1L239.5,74.1z"/>
									</g>
								</g>
							</g>
							<g>
								<g>
									<g>
										<path class="st1" d="M203.9,81.1c6.3,0.1,12.7,0.3,19,0.7c2.2,0.1,3.9,2,3.9,4.2v134c0,2.3-1.8,4.2-4.2,4.2
											c-6.3,0.1-12.6,0.1-18.8,0.1c-2.3,0-4.2-1.8-4.2-4.2V85.2C199.7,82.9,201.6,81,203.9,81.1z"/>
									</g>
								</g>
							</g>
							<g>
								<g>
									<g>
										<path class="st1" d="M256,240.7c-4.4,0-8-3.6-8-8V76.3c0-4.4,3.6-8,8-8c0.3,0,0.6,0,1,0.1c14.1,1.7,28.4,4.2,42.2,7.2
											c3.6,0.8,6.2,4,6.2,7.8v148.5c0,4.3-3.4,7.8-7.8,8c-13.7,0.4-27.6,0.6-41.5,0.8L256,240.7L256,240.7z"/>
									</g>
								</g>
							</g>
							<g>
								<g>
									<g>
										<path class="st10" d="M251.8,76.3v156.4c0,2.3,1.9,4.2,4.2,4.2c14-0.2,27.8-0.5,41.5-0.8c2.3-0.1,4-1.9,4-4.2V83.4
											c0-2-1.3-3.7-3.2-4.1c-13.8-3-27.7-5.4-41.8-7.1C253.9,71.9,251.8,73.9,251.8,76.3z"/>
									</g>
								</g>
							</g>
							<g>
								<g>
									<g>
										<path class="st1" d="M264.4,86c8.2,1.2,16.4,2.6,24.5,4.2v133.4c-8.1,0.2-16.3,0.4-24.5,0.5V86z"/>
									</g>
								</g>
							</g>
						</g>
						<g>
							<g>
								<g>
									<circle class="st10" cx="199.7" cy="99.4" r="9.8"/>
								</g>
							</g>
						</g>
						<g>
							<g>
								<g>
									<circle class="st10" cx="264.4" cy="108.6" r="9.8"/>
								</g>
							</g>
						</g>
					</g>
				</g>
				<g>
					<g>
						<g>
							<g>
								<g>
									<path class="st3" d="M308.1,335.1c7.4-7.3,9.6-17.5,8-30.3c-1.6-12.8-5.8-17.6-17.5-15.9c-32,4.5-64.4,6.2-97.3-0.1
										c-7-1.3-13.3,1.6-13.9,9.9c-1.2,14.9-0.9,30,12.9,39.3c0.7,0.6,1.4,1.1,2.1,1.6l0.8,0.5c0,0,14,13.4,44.3,12
										C277.8,350.8,296.5,347.5,308.1,335.1L308.1,335.1C308.1,335.1,308.1,335.1,308.1,335.1L308.1,335.1z M198.4,308.5
										c-3.5-1.3-5.8-4.3-4.8-8.6c0.9-3.8,4-4.5,7.1-4.2c5.1,0.6,10.2,1.7,15.4,2.1c27.4,2.8,54.4,2.1,81-2.3
										c4.7-0.8,10.2-2.7,11.9,4.4c1.8,7.5-4.5,8.8-9.2,10c-14.5,3.9-29.5,3.5-44.5,4c-14.3,0.1-28.7,1.2-43-1.5
										C207.6,311.7,203,310.3,198.4,308.5z M207.5,336.2c16.5-15.3,60.9-14.4,79.7-0.1l-71,3.4
										C213.3,338.6,210.4,337.5,207.5,336.2z"/>
								</g>
							</g>
						</g>
						<g>
							<g>
								<g>
									<path class="st1" d="M304.1,332.3c7.1-7,9.2-16.8,7.7-29c-1.5-12.3-5.5-16.8-16.8-15.3c-30.7,4.3-61.7,5.9-93.3-0.1
										c-6.7-1.3-12.7,1.5-13.4,9.5c-1.1,14.3-0.9,28.7,12.4,37.7c0.7,0.5,1.3,1,2,1.5l0.8,0.5c0,0,13.4,12.8,42.5,11.5
										C274.9,347.4,293,344.2,304.1,332.3L304.1,332.3C304,332.3,304.1,332.3,304.1,332.3L304.1,332.3z M198.9,306.8
										c-3.3-1.2-5.5-4.2-4.5-8.3c0.9-3.7,3.9-4.3,6.8-4c4.9,0.6,9.8,1.5,14.8,2.1c26.3,2.7,52.2,2,77.7-2.2
										c4.5-0.7,9.8-2.6,11.5,4.2c1.7,7.2-4.3,8.4-8.8,9.6c-13.8,3.8-28.3,3.4-42.7,3.9c-13.7,0.1-27.5,1.2-41.2-1.5
										C207.8,309.9,203.3,308.5,198.9,306.8z M207.6,333.3c15.9-14.6,58.4-13.8,76.4-0.1l-68.1,3.3
										C213.1,335.6,210.4,334.6,207.6,333.3z"/>
								</g>
							</g>
						</g>
						<g>
							<g>
								<g>
									<path class="st14" d="M253.4,312.2c-13.7,0.1-27.4,1.2-41.2-1.5c-4.5-0.9-9-2.3-13.4-3.9c-3.3-1.2-5.5-4.2-4.5-8.3
										c0.9-3.7,3.9-4.3,6.8-4c4.9,0.6,9.8,1.5,14.8,2.1c26.3,2.7,52.2,2,77.7-2.2c4.5-0.7,9.8-2.6,11.5,4.2
										c1.7,7.2-4.3,8.4-8.8,9.6C282.4,312.1,267.8,311.7,253.4,312.2z"/>
								</g>
							</g>
						</g>
						<g>
							<g>
								<g>
									<path class="st8" d="M286.8,335.6c-26.6,6.8-52.1,9.6-79.1-2.3C224.4,317.9,270.7,319.7,286.8,335.6z"/>
								</g>
							</g>
						</g>
					</g>
					<g>
						<g>
							<g>
								<path class="st1" d="M209.4,283.7c-0.4,0.3-22.1-0.2-25.7,24.2c0,0-11.5-28,25.3-23.9"/>
							</g>
						</g>
					</g>
					<g>
						<g>
							<g>
								<path class="st1" d="M290.9,283.9c5.1,0.6,21.1,3.4,24.1,24C314.9,307.9,326.2,280.6,290.9,283.9z"/>
							</g>
						</g>
					</g>
					<g>
						<g>
							<g>
								<path class="st1" d="M232.8,358c0.6,0.1,17,9.1,47.4-1.9c0,0-25.1,20.2-46.9,2"/>
							</g>
						</g>
					</g>
				</g>
				<g>
					<g>
						<g>
							<g>
								<path class="st1" d="M84,223.7c-0.4,0-0.9-0.1-1.2-0.4c-0.4-0.4-0.6-0.9-0.6-1.3v-29.8c0-0.9,0.6-1.6,1.5-1.8
									c9.4-1.8,18.8-3.7,28.4-5.5c0.6-0.1,1.1,0.1,1.5,0.4c0.4,0.4,0.7,0.9,0.7,1.4v30.7c0,0.9-0.7,1.7-1.5,1.8
									c-9.5,1.5-19,3.1-28.4,4.5C84.2,223.7,84.1,223.7,84,223.7z M85.8,193.6v26.2c8.2-1.3,16.4-2.6,24.7-3.9v-27
									C102.2,190.4,94,192,85.8,193.6z M112.3,217.3L112.3,217.3L112.3,217.3z"/>
							</g>
						</g>
					</g>
					<g>
						<g>
							<g>
								<path class="st1" d="M87.2,215.8c-0.6,0-1.1-0.2-1.5-0.6c-0.6-0.4-0.9-1.1-0.9-1.8v-14.9c0-1.2,0.9-2.1,2-2.4l14.1-2.6
									c0.7-0.1,1.4,0.1,2,0.5c0.6,0.4,0.9,1.2,0.9,1.8v15.2c0,1.2-0.9,2.2-2,2.4c-4.7,0.8-9.4,1.6-14.1,2.4
									C87.5,215.8,87.3,215.8,87.2,215.8z M101.3,211L101.3,211L101.3,211z M89.6,200.4v10.1c3.1-0.6,6.2-1,9.3-1.6v-10.2
									L89.6,200.4z"/>
							</g>
						</g>
					</g>
				</g>
				<g>
					<g>
						<g>
							<g>
								<path class="st1" d="M34.2,309.2c-4.9,0-9.1-3.7-9.6-8.7c-4.3-44.5,14.1-70.9,30.3-85.1C72.3,200,91,195.3,91.7,195.1
									c5.1-1.3,10.4,1.9,11.7,7c1.3,5.1-1.8,10.4-7,11.7c-2.5,0.7-59.3,16-52.6,84.8c0.5,5.3-3.4,10-8.7,10.5
									C34.9,309.2,34.5,309.2,34.2,309.2z"/>
							</g>
						</g>
					</g>
					<g>
						<g>
							<g>
								<path class="st1" d="M82.9,293.7c0,0,30.6,42,17.4,61.9c0,0-19.7-17.2-20.8-18.4c-1.1-1.2-4.5-15.9-4.5-15.9v-1.9"/>
							</g>
						</g>
					</g>
					<g>
						<g>
							<g>
								<g>
									<path class="st1" d="M82.9,337.3c-4.7,0-8.6-1.9-10.9-5.4c-1.9-2.8-2.6-6.4-1.7-8.8l0.4-0.9l0.8-0.4
										c0.7-0.5,1.8-0.9,3.4-0.9c1.9,0,4,0.7,6.4,2.1c3,1.9,6.2,2.9,8.9,2.9c1.5,0,2.9-0.3,4-0.9c0.3-0.2,0.6-0.4,0.8-0.6l3.6,3.1
										C97.6,329.2,92.4,337.3,82.9,337.3z"/>
								</g>
							</g>
						</g>
						<g>
							<g>
								<g>
									<path class="st15" d="M95.3,327.2c-4.2,2.4-10.1,1.2-15.4-2c-4.3-2.7-6.4-1.7-7.1-1.3c0,0-0.1,0-0.1,0.1
										c-0.1,0.1-0.2,0.1-0.2,0.1l0.1-0.1c-0.1,0-0.1,0.1-0.1,0.1c-1.1,2.8,1.3,10.8,10.3,10.8c8.3,0,12.8-7.1,13.6-8.5
										C96.1,326.7,95.7,327,95.3,327.2z"/>
								</g>
							</g>
						</g>
						<g>
							<g>
								<g>
									<path class="st1" d="M90.2,330.9c-3.6,0-7.7-1.3-11.5-3.7c-2-1.2-3.2-1.4-3.8-1.4c-0.5,0-0.7,0.1-0.7,0.1s0.1-0.1,0.2-0.1
										l-3.6-3.2c1.8-2.2,2.8-2.4,5.7-2.9c0.9-0.2,2.1-0.4,3.8-0.7c3.6-0.7,3.6-0.9,4.4-3.1c0.3-0.9,0.7-1.9,1.3-3.2
										c1.5-3.1,4-4.8,6.9-4.8c3.1,0,6.1,2,7.8,5.1c3.1,5.8,1.2,13.3-4.2,16.3C94.6,330.3,92.5,330.9,90.2,330.9z"/>
								</g>
							</g>
						</g>
						<g>
							<g>
								<g>
									<path class="st16" d="M72.6,324.1c0,0,2.1-2.1,7.3,1.1c5.2,3.2,11.1,4.4,15.4,2c4.2-2.4,5.8-8.3,3.2-13
										c-2.6-4.7-8-5.5-10.4-0.5c-2.4,5-1,6.2-7.4,7.5C74.4,322.6,74.4,321.9,72.6,324.1z"/>
								</g>
							</g>
						</g>
					</g>
					<g>
						<g>
							<g>
								<g>
									<path class="st1" d="M98.4,305.5c-3.5-0.5-6.2-2.3-7.5-5.1c-1.1-2.3-1.2-5-0.3-6.7l0.4-0.6l0.6-0.2
										c0.6-0.2,1.5-0.5,2.6-0.4c1.4,0.2,2.9,1,4.5,2.3c2,1.7,4.3,2.8,6.3,3.1c1.1,0.2,2.1,0.1,3.1-0.3c0.2-0.1,0.4-0.2,0.7-0.3
										l2.4,2.7C110.2,301.1,105.5,306.6,98.4,305.5z"/>
								</g>
							</g>
						</g>
						<g>
							<g>
								<g>
									<path class="st15" d="M108.8,299.4c-3.4,1.3-7.7-0.2-11.2-3.2c-2.9-2.4-4.7-2-5.1-1.7c0,0,0,0-0.1,0
										c-0.1,0.1-0.1,0.1-0.1,0.1s0,0,0.1-0.1h-0.1c-1.1,2-0.2,8.2,6.5,9.1c6.1,0.9,10.3-3.9,11-4.8
										C109.5,299.1,109.1,299.2,108.8,299.4z"/>
								</g>
							</g>
						</g>
						<g>
							<g>
								<g>
									<path class="st1" d="M104.6,301.6c-2.7-0.4-5.6-1.8-8.1-3.9c-1.3-1.2-2.3-1.4-2.7-1.5c-0.4-0.1-0.6,0-0.6,0s0.1,0,0.1-0.1
										l-2.3-2.8c1.6-1.5,2.3-1.5,4.5-1.6c0.7,0,1.7-0.1,2.9-0.1c2.8-0.2,2.8-0.2,3.6-1.8c0.3-0.6,0.7-1.3,1.3-2.3
										c1.4-2.1,3.5-3.1,5.7-2.8c2.3,0.3,4.3,2.1,5.3,4.7c1.7,4.7-0.5,10-4.9,11.7C107.9,301.7,106.3,301.8,104.6,301.6z"/>
								</g>
							</g>
						</g>
						<g>
							<g>
								<g>
									<path class="st16" d="M92.2,294.6c0,0,1.8-1.4,5.3,1.6c3.5,3,7.8,4.5,11.2,3.2c3.4-1.3,5.2-5.6,3.8-9.4
										c-1.4-3.8-5.4-5-7.7-1.5c-2.3,3.5-1.4,4.5-6.3,4.8S93.8,293.2,92.2,294.6z"/>
								</g>
							</g>
						</g>
					</g>
					<g>
						<g>
							<g>
								<g>
									<path class="st1" d="M98.5,352.6c-12.5-18.8-17.8-37-16.2-55.6l0.4-3.9l-15.1,10.8l-49.9,14.3L0,318l19.1,62.8l13.1-10.3
										L85,355.5h15.4L98.5,352.6z M84.7,353.6l-53.4,15.3L20,377.7L2.4,319.9l15.6,0.2l50.4-14.4l12.1-8.7
										c-1.8,19.7,4.3,38.5,16.5,56.7L84.7,353.6z"/>
								</g>
							</g>
						</g>
						<g>
							<g>
								<g>
									<g>
										<path class="st8" d="M78.6,300.6l-9.2,6.7l-0.3,0.1l-50.7,14.5L5,321.6l16.1,53l9.5-7.5l54-15.4h9.2
											C83,334.8,77.9,317.5,78.6,300.6z"/>
									</g>
								</g>
							</g>
							<g>
								<g>
									<g>
										<path class="st17" d="M69.4,336.5c0.3-8.5-8.9-5.7-8.9-5.7s-8.6,2.1-10,4.7c-1.4,2.5-2.4,6.1-2.7,6.9l14.2,7
											C62,349.3,69,344.9,69.4,336.5z"/>
									</g>
								</g>
							</g>
							<g>
								<g>
									<g>
										<path class="st16" d="M92,353.6L92,353.6c0,0-28.4-0.2-41.2-14c-12.7-13.9-34.4-17.9-34.4-17.9l-8.2-1.8l-5.8-0.1
											L20,377.7l11.3-8.9l53.4-15.3L92,353.6z"/>
									</g>
								</g>
							</g>
							<g>
								<g>
									<g>
										<path class="st15" d="M8.9,324.4l7.1-1.8l-3.2-1.8l-4.5-1l-5.8-0.1L20,377.7l11.3-8.9l26.5-7.5c2.4-1.8,4-3.1,4-3.1
											l-39.6,9.1L8.9,324.4z"/>
									</g>
								</g>
							</g>
							<g>
								<g>
									<g>
										<path class="st15" d="M63.9,348.1c-4.9-2-9.6-4.8-13-8.6c-1.8-2-3.7-3.7-5.8-5.2c-4.3-0.6-7.7-1-7.7-1l-7.9,2.4l-1.3,10.8
											c0,0,6.8,7.8,17.9,7.5C55.4,353.7,62,349.5,63.9,348.1z"/>
									</g>
								</g>
							</g>
							<g>
								<g>
									<g>
										<path class="st1" d="M80.6,296.9l-12.1,8.7L18.1,320l-15.6-0.2L20,377.7l11.3-8.9l53.4-15.3h12.3
											C85,335.4,78.8,316.6,80.6,296.9z M84.5,351.8l-54,15.4l-9.5,7.5l-16.1-53l13.4,0.1l50.7-14.5l0.3-0.1l9.2-6.7
											c-0.6,17,4.5,34.2,15.2,51.2H84.5z"/>
									</g>
								</g>
							</g>
						</g>
					</g>
					<g>
						<g>
							<g>
								<g>
									<g>
										<path class="st1" d="M50.7,350.7c-0.6,0-1.1-0.1-1.7-0.2c-0.9-0.2-1.8-0.4-2.9-0.4c-1.2,0-2.3,0.1-3.6,0.2l-0.9,0.1
											c-0.4,0.1-0.7,0.1-1.1,0.1c-3.2,0-6.2-1.3-8.7-4c-0.6,0.1-1.1,0.2-1.6,0.2c-1.8,0-3.2-0.7-4.1-1.3c-3-1.8-5.1-4.3-6.3-7.4
											l-0.5-1.3c-1.7-3.5-2.3-7.2-2.8-10.8l-0.2-1c-1-5.3-0.8-10.2,0.6-15.1c0.4-1.2,0.8-2.5,1.6-3.7l0.2-0.3
											c-0.7-0.7-1-1.6-0.9-2.9v-0.1c0.1-1.8,0.8-4.5,4-6.9c5.5-4,11.7-6.4,18.4-7.2c0.6-0.1,1.2-0.1,1.8-0.1
											c1.8,0,3.6,0.3,5.1,1c3.7,1.6,4.5,4,4.5,5.8c1.5,0.4,3.4,1,4.8,2.2c1.3-0.3,2.6-0.6,3.8-1.3l0.5-0.3
											c1.5-0.9,3.1-1.8,4.9-2.4c1.5-0.5,2.9-0.8,4.3-0.8c4.5,0,7.7,2.8,7.7,7c0.1,4.7-3.7,9.8-8.9,12.1
											c-1.8,0.7-3.6,1.2-5.5,1.2c-0.1,0-0.1,0-0.2,0c0.1,0.4,0.2,0.7,0.4,1c0.5,1.3,1,2.7,1.7,4c1.3,2.4,2.5,5,3.6,8
											c0.9,2.6,1.8,6.1,0.8,10.1c-1.2,4.6-4.4,7.4-9.2,8.3C58.4,347.9,54.2,350.7,50.7,350.7z M29.8,329.4
											c1.4,0.2,3.2,0.9,3.5,3.7c0,0.1,0,0.1,0,0.2c0.6,3.4,1.5,6,2.7,8.4c0.9,1.7,2.9,2.8,5.1,2.9c-1.4-2.8-2.1-5.7-2.7-8.6
											c-0.1-0.6-0.2-1.2-0.4-1.9c-0.4-1.7-0.8-3.6-0.9-5.7l-0.3-7.3l4.6,5.8c1.7,2.1,2.4,4.6,2.9,6.4l0.3,1.3
											c0.7,2.7,1.3,5.3,2.5,7.5c0.4,0.7,0.8,1.2,1.3,1.7c0.4,0.4,1.1,0.6,1.9,0.6c1.4,0,2.9-0.7,3.7-1.7c-2.6-2.1-3.5-5-4.3-7.6
											l-0.1-0.4c-0.9-2.7-1.3-5.5-1.8-8.3l4.3-1.8c1.7,2.3,2.5,4.7,3.3,7.1l0.3,0.9c0.6,1.7,1,3.2,2,4.5
											c0.8,1.2,1.1,1.3,1.7,1.3c0.1,0,0.3,0,0.5-0.1c1.2-0.2,2-0.9,2.9-2.3c0.9-1.5,0.9-2.9,0.4-5c-1-3.7-2.6-7.2-4.3-10.8
											c-0.4-0.8-0.7-1.6-1.1-2.4c-0.9-2-1.8-4.2-1.8-6.9c-0.7-0.4-2.1-1.4-2-3.3l0.1-2.3h2.3c1.5,0,2.6,0.4,3.4,0.8
											c0.3,0.1,0.6,0.2,0.9,0.3c0.8,0.2,1.7,0.4,2.4,0.4c3.4,0,6.4-2,7.4-5.1c0.6-1.7,0.3-1.8,0.2-1.9c-0.2-0.1-0.5-0.3-1.1-0.3
											c-0.9,0-2,0.3-2.8,0.6c-1,0.3-1.9,0.9-2.9,1.5c-0.5,0.3-1,0.6-1.6,0.9c-2,1-4,1.6-6.3,1.6c-1.3,0-2.6-0.2-4.2-0.6
											c-1.4-0.4-2-1.4-2.2-2c-2-0.8-4.1-1.2-6.6-1.2c-0.8,0-1.6,0.1-2.4,0.1l-3.7,0.3l0.7-2l-1.5-0.2l1.6-2.7
											c-2.1,0.4-4.1,1-6.1,1.9l1.7,4.3c-1,0.6-1.9,1.2-2.8,1.7c-1,0.6-2,1.1-2.8,1.7c-3.2,2.4-4.9,5.5-5.3,9.7
											c-0.3,3.1-0.1,6.2,0.3,9.9c0.3,2.9,1.2,5.8,2.1,8.7l0.2,0.9l0.6,1.2c0.9,1.6,1.7,2.9,2.8,4c-0.4-1.8-0.7-3.6-1-5.4
											c-0.1-0.6-0.2-1.3-0.3-1.9l-0.6-3.2L29.8,329.4z"/>
									</g>
								</g>
							</g>
							<g>
								<g>
									<g>
										<path class="st1" d="M66.3,296c-1.8,0.6-3.4,1.6-4.9,2.6c-1.5,0.9-3,1.2-4.5,1.6c-0.6,0.1-1.2,0.2-1.7-0.2
											c-1.3-1.3-3.3-1.8-5.3-2.3c-0.6-0.1-1.2,0-0.9-0.9c0.7-2.4-0.7-3.8-2.9-4.7c-1.7-0.7-3.7-0.9-5.7-0.7
											c-6.3,0.7-12.1,2.9-17.3,6.7c-1.8,1.3-2.9,3-3,5c0,0.5-0.1,1.1,0.3,1.3c1.9,0.9,0.9,2-0.1,3.3c-0.7,0.9-1,2-1.3,3
											c-1.4,4.8-1.4,9.5-0.6,14c0.6,3.9,1.1,7.7,2.8,11.3c0.2,0.4,0.4,0.9,0.5,1.3c1,2.6,2.8,4.7,5.3,6.2
											c1.2,0.8,2.7,1.3,4.5,0.6c0.9-0.4,1,0.1,1.4,0.5c2,2.2,4.5,3.9,8.1,3.6c2.8-0.2,5.5-0.6,8.2,0.1c2.9,0.7,7.1-2,8.5-5
											c0.2-0.5,0.1-0.9,1.2-1c4.3-0.6,6.8-2.8,7.8-6.6c0.8-3.1,0.2-5.9-0.7-8.7c-0.9-2.6-2-5.1-3.4-7.6
											c-0.7-1.3-1.3-2.8-1.9-4.3c-0.6-1.5-0.9-2.9-1.5-4.7c2.8,0.6,5.3,0.7,8-0.5c4.3-1.9,7.6-6.1,7.5-9.9
											C75.1,296,71.2,294.3,66.3,296z M72.7,302.4c-1.8,5.1-7.3,7.9-12.8,6.3c-1.2-0.3-2.2-1-3.7-1c-0.1,1.4,2.1,1.2,2,2.6
											c-0.1,2.4,0.7,4.5,1.7,6.6c2,4.4,4.2,8.8,5.5,13.5c0.6,2.2,0.8,4.5-0.6,6.9c-1,1.7-2.3,3.1-4.6,3.5
											c-2.4,0.4-3.5-0.9-4.5-2.3c-1.2-1.7-1.8-3.7-2.4-5.7c-0.8-2.3-1.5-4.7-3.1-6.7c0.4,2.7,0.9,5.4,1.8,8
											c0.9,2.7,1.7,5.5,4.2,7.3c1,0.7,0.9,1.4,0.3,2.3c-2,3.2-6.9,4.3-9.5,2.1c-0.8-0.7-1.3-1.5-1.8-2.3
											c-1.6-2.9-2.3-6.2-3.1-9.4c-0.5-2-1.2-3.9-2.5-5.5c0.1,1.8,0.4,3.6,0.8,5.3c1,4.2,1.5,8.5,4.2,12.1c0.7,1-0.3,1-1,1.2
											c-3.9,0.8-8.1-0.9-9.7-4c-1.5-2.8-2.4-5.9-2.9-9.1c-0.1-0.7,0.1-1.7-1.4-1.9c0.6,3.3,0.9,6.6,2,9.7
											c0.1,0.4,0.9,0.9,0.2,1.4c-0.6,0.5-1.4,0.3-2,0.1c-1-0.2-1.7-0.8-2.4-1.4c-1.7-1.5-2.7-3.2-3.7-5.1
											c-0.2-0.4-0.4-0.9-0.7-1.3c-1-3.3-2.2-6.6-2.6-10.2c-0.4-3.4-0.7-6.9-0.3-10.4c0.4-4.2,2-8.2,6.3-11.4
											c1.7-1.2,3.6-2.1,5.7-3.4c-0.6,0.1-0.7,0.1-0.9,0.2c-1.2,0.5-2.4,1-3.7,1.5c-0.3,0.1-0.7,0.4-1,0.3
											c-0.7-0.2-1-0.2-1.3,0.3c-0.3,0.4-0.5,1-0.9,1.3c-0.4,0.4-0.8,1.2-1.5,0.9c-0.6-0.2-1.1-0.6-1.1-1.3
											c0.1-1.3,0.7-2.6,2-3.6c5.7-4.3,11.9-6.8,19-6.7c2.1,0,3.6,0.9,4.8,2.1c0.4,0.4,0.6,1,0.1,1.7c-0.5,0.8-1.1,0.4-1.7,0.4
											c-0.8,0.1-1.5-0.2-2.1-0.5c-1-0.5-2.1-0.7-3.4-0.5c-0.1,0.1-0.2,0.3-0.2,0.4c0.6,0.1,1.2,0.2,1.8,0.3
											c-0.3,0.6-1.2,0.4-1.4,1c3.9-0.4,7.5,0,10.7,1.5c0.9,0.4,0.5,1.5,1.3,1.7c2.8,0.7,5.6,0.8,8.7-0.8c1.6-0.9,3.1-2,4.9-2.5
											c2.1-0.7,4.4-1.1,6.1,0.1C73.6,298.9,73.3,300.7,72.7,302.4z"/>
									</g>
								</g>
							</g>
							<g>
								<g>
									<g>
										<path class="st18" d="M29.6,343.1c0.7,0.1,1.4,0.4,2-0.1c0.7-0.6,0-1-0.2-1.4c-1-3.1-1.4-6.4-2-9.7
											c1.5,0.2,1.3,1.2,1.4,1.9c0.6,3.2,1.5,6.2,2.9,9.1c1.7,3.1,5.8,4.8,9.7,4c0.7-0.2,1.8-0.2,1-1.2
											c-2.7-3.6-3.2-7.8-4.2-12.1c-0.4-1.7-0.7-3.4-0.8-5.3c1.3,1.7,2,3.6,2.5,5.5c0.8,3.2,1.5,6.5,3.1,9.4
											c0.5,0.9,1,1.7,1.8,2.3c2.6,2.2,7.5,1.1,9.5-2.1c0.6-0.9,0.7-1.6-0.3-2.3c-2.6-1.8-3.4-4.6-4.2-7.3
											c-0.8-2.6-1.3-5.3-1.8-8c1.5,2,2.3,4.4,3.1,6.7c0.7,2,1.2,4,2.4,5.7c1,1.3,2,2.6,4.5,2.3c2.3-0.4,3.6-1.8,4.6-3.5
											c1.4-2.4,1.2-4.7,0.6-6.9c-1.3-4.7-3.5-9.1-5.5-13.5c-0.9-2.1-1.8-4.2-1.7-6.6c0.1-1.4-2.1-1.2-2-2.6c1.5,0,2.4,0.7,3.7,1
											c5.5,1.5,11.1-1.2,12.8-6.3c0.6-1.7,0.9-3.5-0.6-4.7c-1.7-1.2-3.9-0.8-6.1-0.1c-1.8,0.6-3.3,1.7-4.9,2.5
											c-3.1,1.6-5.9,1.5-8.7,0.8c-0.8-0.2-0.4-1.3-1.3-1.7c-3.2-1.4-6.7-1.8-10.7-1.5c0.2-0.6,1.1-0.4,1.4-1
											c-0.6-0.1-1.2-0.2-1.8-0.3c-0.3-0.2-1,0.4-1-0.1c0.1-0.3,0.7-0.6,1.2-0.3c1.3-0.2,2.4,0,3.4,0.5c0.7,0.3,1.3,0.6,2.1,0.5
											c0.6-0.1,1.2,0.4,1.7-0.4c0.4-0.7,0.3-1.2-0.1-1.7c-1.2-1.2-2.6-2.1-4.8-2.1c-7.1-0.1-13.4,2.4-19,6.7
											c-1.3,1-1.9,2.2-2,3.6c0,0.7,0.5,1.1,1.1,1.3c0.7,0.2,1.1-0.6,1.5-0.9s0.6-0.9,0.9-1.3c0.4-0.5,0.6-0.5,1.3-0.3
											c0.2,0.1,0.6-0.2,1-0.3c1.2-0.5,2.4-1,3.7-1.5c0.2-0.1,0.4-0.1,0.9-0.2c-2.1,1.3-4,2.2-5.7,3.4c-4.3,3.2-5.9,7.2-6.3,11.4
											c-0.4,3.6-0.1,7,0.3,10.4c0.4,3.6,1.5,6.9,2.6,10.2c0.2,0.4,0.4,0.9,0.7,1.3c1,1.8,2.1,3.6,3.7,5.1
											C27.9,342.3,28.6,342.9,29.6,343.1z"/>
									</g>
								</g>
							</g>
						</g>
						<g>
							<g>
								<g>
									<path class="st1" d="M40.3,296.1c-0.5-0.3-1.2,0-1.2,0.3c-0.1,0.5,0.7-0.1,1,0.1C40.1,296.4,40.2,296.3,40.3,296.1z"/>
								</g>
							</g>
						</g>
					</g>
					<g>
						<g>
							<g>
								<line class="st19" x1="72.9" y1="310.7" x2="60.2" y2="314.2"/>
							</g>
						</g>
					</g>
					<g>
						<g>
							<g>
								<path class="st1" d="M57,309.8c0,0,2.1,2.4,9.4,1.7c7.3-0.7,10.4-6.2,10.4-6.2l-3.9-1.5c0,0-2.9,4.8-8.1,5.2
									c-5.2,0.4-7.7-2.4-8.1-1.2c-0.4,1.2,0.8,3.2,0.8,3.2"/>
							</g>
						</g>
					</g>
					<g>
						<g>
							<g>
								<path class="st18" d="M58.1,307.6c0,0,4.7,2.1,8.5,0.9s5.6-4.4,5.6-4.4s-3.6-1.7-3.8-1.7s-4.2,0.5-4.2,0.5"/>
							</g>
						</g>
					</g>
					<g>
						<g>
							<g>
								<path class="st6" d="M77.8,321.2c0,0,2.6,9.9,4.7,15.1c2.1,5.1,6.1,10.8,6.2,11.7c0.1,0.9-7.5,1.9-8.6,1.6
									c-1.1-0.3-9.9-2.7-9.9-2.7s9.1,1.3,11.8-0.2c2.7-1.5-3.7-15-4.2-19.3S77.8,321.2,77.8,321.2z"/>
							</g>
						</g>
					</g>
					<g>
						<g>
							<g>
								<path class="st1" d="M77.8,297.1l-21.1,10.5c0,0,6,4.8,7,6.3c1,1.5,6.3,0.4,6.3,0.4l5.8-5.1l1-4l0.4-1.3"/>
							</g>
						</g>
					</g>
					<g>
						<g>
							<g>
								<path class="st8" d="M78.8,301.2l-17.5,7.5l2.9,6.8l1.7-0.4c0,0,3.2-0.4,5-0.8c1.8-0.4,4.3-1.3,4.3-1.3s2.2-3,2.4-3.6
									c0.2-0.6,0.4-3.6,0.4-3.8"/>
							</g>
						</g>
					</g>
					<g>
						<g>
							<g>
								<path class="st6" d="M64.3,309.2l12.7-5.6c0,0-0.2,7.4,0.8,10.9c0,0-2.5-5.1-2.4-8.7C75.4,305.7,65.5,309.5,64.3,309.2z"/>
							</g>
						</g>
					</g>
					<g>
						<g>
							<g>
								<path class="st1" d="M83.4,299.5c0,0,4.4,7,5.3,8.8c0,0-2.6,2.8-3,4.7c-0.4,2-0.1-0.2-0.1-0.2S81.8,303,83.4,299.5z"/>
							</g>
						</g>
					</g>
					<g>
						<g>
							<g>
								<path class="st1" d="M98.7,331.1c0,0,1.7,8.9,1.9,12.6s-1.9,7.4-1.9,7.4s-5.1-7.3-6.1-9.4c-0.9-2.1-2.3-4.7-2.3-4.7l8.6-5.9
									"/>
							</g>
						</g>
					</g>
					<g>
						<g>
							<g>
								<path class="st1" d="M21.4,309.2c0,0,7.8-8.2,12.9-10c0,0-7.5,1.1-10.2,3.4c-2.8,2.2-2.2-0.6-2.1-1c0.1-0.3-1.5,0.2-1.6,1.5
									c-0.1,1.3,0,1.5,0,2.3c0,0.8-0.1,1.2-0.1,1.2"/>
							</g>
						</g>
					</g>
					<g>
						<g>
							<g>
								<path class="st18" d="M40.3,297.9c0,0,5-0.9,6.3-0.7c1.3,0.1-4.6-2.8-5.3-2.8c-0.7-0.1-2-1-2.5-0.1c-0.5,1-0.9,1.3-1,1.5
									c-0.1,0.1-0.2,0.7-0.3,0.9c-0.1,0.2-0.4,0.8-0.4,0.9"/>
							</g>
						</g>
					</g>
					<g>
						<g>
							<g>
								<path class="st1" d="M29.5,331.8c0,0,0.7,7.5,1.1,8.7c0.4,1.2,1.3,1.7,1.3,2c0,0.4,0.7,0.1,0.7-0.4
									c-0.1-0.5-0.3-2.4-0.3-2.4"/>
							</g>
						</g>
					</g>
					<g>
						<g>
							<g>
								<path class="st1" d="M39.6,328.4c0,0,0.1,4.2,0.3,6.7c0.3,2.6,2,8,2.7,9c0.7,1,1.8,1.8,2.1,2.1c0.4,0.2,0.4,0.3,0.4,0.3"/>
							</g>
						</g>
					</g>
					<g>
						<g>
							<g>
								<path class="st1" d="M50.5,326.2c0,0-0.5,4.7,1.1,9.2c1.6,4.5,5.6,7.3,5.6,7.3h0.7"/>
							</g>
						</g>
					</g>
				</g>
				<g>
					<g>
						<g>
							<g>
								<g>
									<path class="st1" d="M341,120.8c8.4,0.3,16.8,0.6,25.1,1c0-16.5,0-21.9,0-38.3c-8.3-0.7-16.7-1.3-25.1-1.8
										C341,98.4,341,104,341,120.8z"/>
								</g>
							</g>
							<g>
								<g>
									<path class="st1" d="M367.9,123.8l-1.9-0.1c-8.3-0.4-16.7-0.8-25.1-1l-1.8-0.1V79.7l1.9,0.1c8.4,0.5,16.8,1.1,25.2,1.8
										l1.7,0.1L367.9,123.8L367.9,123.8z M342.7,119c7.2,0.2,14.3,0.6,21.5,0.9V85.2c-7.1-0.6-14.3-1.2-21.5-1.6V119z"/>
								</g>
							</g>
						</g>
						<g>
							<g>
								<g>
									<g>
										<path class="st1" d="M368.9,74.7l-4-0.2c-7.7-0.4-15.4-0.6-23.2-0.9l-3.7-0.1V51.1l4,0.2c7.8,0.4,15.6,0.9,23.3,1.5
											l3.5,0.2V74.7z M341.7,70h0.2c7.7,0.2,15.5,0.5,23.2,0.9h0.2V56.4h-0.2c-7.7-0.6-15.4-1.1-23.2-1.5h-0.2V70z"/>
									</g>
								</g>
							</g>
							<g>
								<g>
									<g>
										<path class="st20" d="M365.8,71.4c-8.1-0.4-16.4-0.7-24.6-0.9V54.4c8.2,0.4,16.5,0.9,24.6,1.5V71.4z"/>
									</g>
								</g>
							</g>
						</g>
						<g>
							<g>
								<g>
									<g>
										<polygon class="st21" points="343.1,90.6 348.1,90.9 348.1,84.2 343.1,83.9 										"/>
									</g>
								</g>
							</g>
							<g>
								<g>
									<g>
										<polygon class="st21" points="343.1,108.4 348.1,108.6 348.1,102.4 343.1,102.2 										"/>
									</g>
								</g>
							</g>
							<g>
								<g>
									<g>
										<polygon class="st21" points="343.1,99.5 348.1,99.7 348.1,93.6 343.1,93.3 										"/>
									</g>
								</g>
							</g>
							<g>
								<g>
									<g>
										<polygon class="st21" points="351.4,99.9 356.3,100.2 356.3,94 351.4,93.7 										"/>
									</g>
								</g>
							</g>
							<g>
								<g>
									<g>
										<polygon class="st21" points="351.4,91 356.3,91.2 356.3,84.6 351.4,84.3 										"/>
									</g>
								</g>
							</g>
							<g>
								<g>
									<g>
										<polygon class="st21" points="351.4,108.7 356.3,108.9 356.3,102.8 351.4,102.6 										"/>
									</g>
								</g>
							</g>
							<g>
								<g>
									<g>
										<polygon class="st21" points="359.2,84.7 359.2,91.4 364.1,91.7 364.1,85 										"/>
									</g>
								</g>
							</g>
							<g>
								<g>
									<g>
										<polygon class="st21" points="359.2,109.1 364.1,109.2 364.1,103.2 359.2,102.9 										"/>
									</g>
								</g>
							</g>
							<g>
								<g>
									<g>
										<polygon class="st21" points="343.1,116.7 348.1,116.9 348.1,110.7 343.1,110.5 										"/>
									</g>
								</g>
							</g>
							<g>
								<g>
									<g>
										<polygon class="st21" points="351.4,117 356.3,117.2 356.3,111.1 351.4,110.8 										"/>
									</g>
								</g>
							</g>
							<g>
								<g>
									<g>
										<polygon class="st21" points="358.9,117.3 363.8,117.6 363.8,111.4 358.9,111.3 										"/>
									</g>
								</g>
							</g>
							<g>
								<g>
									<g>
										<polygon class="st21" points="359.2,100.3 364.1,100.5 364.1,94.4 359.2,94.2 										"/>
									</g>
								</g>
							</g>
						</g>
						<g>
							<g>
								<g>
									<polygon class="st10" points="343.8,63.1 343,62.1 343.4,61.7 348,56.4 348.9,57.2 									"/>
								</g>
							</g>
						</g>
						<g>
							<g>
								<g>
									<polygon class="st10" points="347,63.6 346.3,62.9 346.7,62.5 346.5,62.3 348.6,59.9 349.5,60.6 									"/>
								</g>
							</g>
						</g>
					</g>
					<g>
						<g>
							<g>
								<g>
									<path class="st1" d="M366.1,145.5c-8.3-0.4-16.8-0.8-25.1-1l-1.9-0.1v33l1.8,0.1c8.4,0.2,16.8,0.4,25.1,0.6l1.8,0.1v-32.5
										L366.1,145.5z"/>
								</g>
							</g>
						</g>
						<g>
							<g>
								<g>
									<polygon class="st13" points="342.7,159.6 342.7,162.9 364.2,163.4 364.2,160.1 									"/>
								</g>
							</g>
						</g>
						<g>
							<g>
								<g>
									
										<rect x="352.9" y="156.7" transform="matrix(2.950639e-02 -0.9996 0.9996 2.950639e-02 176.2238 515.2996)" class="st13" width="1.2" height="20.5"/>
								</g>
							</g>
						</g>
					</g>
				</g>
			</g>
			<g>
				<g>
					<g>
						<g>
							<g>
								<rect x="340.2" y="233.8" class="st1" width="26.9" height="35.2"/>
							</g>
						</g>
					</g>
					<g>
						<g>
							<g>
								<polygon class="st1" points="340.7,268.9 338,270 338,234.9 340.7,233.8 								"/>
							</g>
						</g>
					</g>
					<g>
						<g>
							<g>
								<rect x="342.4" y="235.4" class="st1" width="20.9" height="0.9"/>
							</g>
						</g>
					</g>
				</g>
				<g>
					<g>
						<g>
							<rect x="343" y="238.8" class="st22" width="19.9" height="5"/>
						</g>
					</g>
				</g>
				<g>
					<g>
						<g>
							<rect x="343.1" y="245.3" class="st22" width="1.7" height="1.7"/>
						</g>
					</g>
				</g>
				<g>
					<g>
						<g>
							<rect x="349.4" y="245.3" class="st22" width="1.7" height="1.7"/>
						</g>
					</g>
				</g>
				<g>
					<g>
						<g>
							<rect x="355.7" y="245.3" class="st1" width="1.7" height="1.7"/>
						</g>
					</g>
				</g>
				<g>
					<g>
						<g>
							<rect x="361.9" y="245.3" class="st22" width="1.7" height="1.7"/>
						</g>
					</g>
				</g>
				<g>
					<g>
						<g>
							<rect x="343" y="249.6" class="st1" width="5" height="3.4"/>
						</g>
					</g>
				</g>
				<g>
					<g>
						<g>
							<rect x="350.8" y="249.4" class="st1" width="5.5" height="3.8"/>
						</g>
					</g>
				</g>
				<g>
					<g>
						<g>
							<rect x="358.2" y="249.4" class="st22" width="5.5" height="3.8"/>
						</g>
					</g>
				</g>
				<g>
					<g>
						<g>
							<path class="st1" d="M353.6,266.1c0,0-9.3-1.4-9.5-1c-0.1,0.4-3,0.9-3.4,1.4c-0.4,0.5-0.6,0.7-0.6,0.9s0,0.2,0,0.2L338,270
								h29c0,0-0.4-2.1,0-2.1C367.5,267.8,353.6,266.1,353.6,266.1"/>
						</g>
					</g>
				</g>
				<g>
					<g>
						<g>
							<g>
								<g>
									<path class="st1" d="M358.5,259.6c-0.1,0.2-0.1,0.3-0.3,0.4c-0.2,0.1-0.5,0.1-0.7-0.1c-0.2-0.2-0.4-0.4-0.6-0.6
										c-0.8-0.6-1.7-1-2.7-1.2c-1.3-0.2-2.6,0-3.8,0.6c-0.6,0.2-1,0.6-1.4,1c-0.1,0.1-0.2,0.1-0.2,0.2c-0.2,0.1-0.6,0-0.7-0.2
										c-0.2-0.2-0.1-0.6,0.1-0.8c0.7-0.7,1.6-1.3,2.6-1.7c0.7-0.2,1.3-0.4,2-0.4c1.7-0.1,3.2,0.3,4.5,1.2
										c0.4,0.2,0.8,0.6,1.1,0.9c0.1,0.1,0.1,0.2,0.2,0.3C358.5,259.4,358.5,259.5,358.5,259.6z"/>
								</g>
							</g>
						</g>
						<g>
							<g>
								<g>
									<path class="st1" d="M353.2,259.3c1.5,0,2.7,0.6,3.7,1.5c0.4,0.4,0.2,0.9-0.2,1c-0.2,0.1-0.4,0-0.6-0.1
										c-0.2-0.1-0.4-0.3-0.6-0.4c-0.6-0.4-1.2-0.7-1.8-0.7c-1-0.1-1.9,0.1-2.8,0.6c-0.2,0.1-0.4,0.3-0.6,0.5
										c-0.2,0.2-0.4,0.2-0.7,0.1c-0.4-0.2-0.5-0.7-0.2-1c0.2-0.2,0.5-0.4,0.8-0.7c0.7-0.5,1.5-0.8,2.4-0.9
										C352.9,259.3,353,259.3,353.2,259.3z"/>
								</g>
							</g>
						</g>
						<g>
							<g>
								<g>
									<path class="st1" d="M353.1,261.6c0.6,0,1.2,0.1,1.7,0.4c0.2,0.1,0.5,0.3,0.7,0.5c0.3,0.2,0.3,0.6,0.1,0.9
										c-0.2,0.2-0.6,0.2-0.9,0.1c-0.2-0.2-0.5-0.4-0.8-0.5c-0.7-0.2-1.3-0.1-2,0.4c-0.1,0.1-0.1,0.1-0.1,0.1
										c-0.2,0.2-0.7,0.2-0.9-0.1c-0.2-0.2-0.2-0.6,0.1-0.9c0.6-0.5,1.2-0.8,1.9-0.9c0.1,0,0.1,0,0.1,0
										C353,261.6,353,261.6,353.1,261.6z"/>
								</g>
							</g>
						</g>
						<g>
							<g>
								<g>
									<path class="st1" d="M354.2,265.1c0,0.6-0.5,1-1,1c-0.6,0-1-0.5-1-1c0-0.6,0.4-1,1-1C353.8,264,354.2,264.4,354.2,265.1z"
										/>
								</g>
							</g>
						</g>
					</g>
				</g>
			</g>
			<g>
				<g>
					<g>
						<g>
							<circle class="st1" cx="353.2" cy="206.3" r="12.2"/>
						</g>
					</g>
				</g>
				<g>
					<g>
						<g>
							<circle class="st13" cx="353.2" cy="206.3" r="9.8"/>
						</g>
					</g>
				</g>
				<path class="st10" d="M353.2,197.4c-4.4,0-8,3.6-8,8c0,4.4,3.6,8,8,8c-4.2,0-7.6-3.4-7.6-7.6s3.4-7.6,7.6-7.6s7.6,3.4,7.6,7.6
					s-3.4,7.6-7.6,7.6c4.4,0,8-3.6,8-8C361.1,201,357.6,197.4,353.2,197.4z"/>
				<path class="st21" d="M353.2,213.7c-5,0-9.1-3.8-9.7-8.6c0,0.4-0.1,0.8-0.1,1.2c0,5.4,4.4,9.8,9.8,9.8c5.4,0,9.8-4.4,9.8-9.8
					c0-0.4,0-0.8-0.1-1.2C362.3,210,358.2,213.7,353.2,213.7z"/>
				<g>
					<g>
						<g>
							<rect x="352.1" y="199.5" class="st1" width="2.3" height="12.9"/>
						</g>
					</g>
				</g>
			</g>
			<g>
				<g>
					<g>
						<polygon class="st1" points="341.8,310.9 341.8,332.4 364.6,329.6 364.6,310.1 						"/>
					</g>
					<g>
						<path class="st1" d="M340,334.4v-25.3l26.3-0.9v23L340,334.4z M343.7,312.6v17.7l19.1-2.4v-16L343.7,312.6z"/>
					</g>
				</g>
				<g>
					<g>
						<polygon class="st1" points="353.4,321.2 342.6,322.6 342.6,331.6 361.7,329.9 						"/>
					</g>
				</g>
			</g>
			<g>
				<g>
					<path class="st8" d="M435.6,137.4l-0.7-2.1c-0.2-0.7,0.1-1.5,0.9-1.7l3.3-1.1c0,0,1.6,0.1,1.7,0.2"/>
				</g>
			</g>
		</g>
		<path class="st1" d="M453.8,213.6c-0.1,0-0.1,0.1-0.1,0.1l-0.5,0.5c-0.1,0.1-0.1,0.1-0.2,0.2c-0.1,0.1-0.1,0.1-0.2,0.2
			c-0.4-1.1-0.7-3.4-0.9-4.7c0-0.1,0-0.1,0-0.2c0-0.1,0-0.1,0-0.1h0.1v-0.1c0-0.1,0-0.2,0-0.3h-0.1c0-0.1,0-0.1,0-0.1l0.1-0.1
			c0-0.1,0-0.2-0.1-0.4c0-0.1-0.1-0.2-0.1-0.4c-0.1-0.1-0.1-0.2-0.1-0.4c-0.1-0.1-0.1-0.2-0.1-0.4l-0.1-0.1
			c-0.1-0.1-0.1-0.2-0.1-0.2l-0.2-2.6l0.1-3.7c0.1-0.2,0.2-0.5,0.2-0.6c0.1-0.2,0.1-0.4,0.1-0.7c0.3-0.1,0.5-0.4,0.6-0.5
			c0.2-0.4,0.1-0.7-0.2-1.2c-0.7-1.2-1-2.5-1.2-3.6c-0.1-0.5-0.1-0.9-0.2-1.4l-0.1-1.1c-0.1-0.7-0.2-1.6-0.6-2.1
			c-0.4-0.4-0.7-0.9-0.9-1.4c-0.4-1.2,0.1-2.5,0.7-3.9l0.3-0.1l-0.1-0.4c0.2-0.6,0.5-1.3,0.6-2c0.1-0.3,0.1-0.6,0.2-0.9
			c0.5,0.3,1.2,0.7,1.9,1.1c-0.1-0.5-0.1-1-0.2-1.5c-0.6-0.4-1.1-0.7-1.5-0.9c0.1-0.6,0.1-1.1,0.1-1.7c0-0.8,0.1-1.3,0.5-1.8
			c-0.1-0.4-0.2-0.9-0.3-1.3c-0.2-0.7-0.2-1.3-0.2-1.8c-0.1,0.1-0.2,0.1-0.2,0.2c-0.8-3.6-2.2-6.2-4.3-8c-0.7-0.6-1.3-0.9-1.9-1.2
			c-0.4-0.2-0.8-0.4-1.3-0.6c-0.3-0.1-0.6-0.2-0.9-0.3c-1.2-0.4-2.2-0.4-3.2-0.3H439c-0.5,0.1-0.9,0.2-1.3,0.4l-0.1,0.1
			c-0.9,0.4-1.6,1-2.3,1.8c-2.1,2.5-1.8,5.6-1.1,8.5c0.2,0.7,0.4,1.5,0.6,2.2c0.5,1.7,1,3.3,1,5v0.3c0,0.2,0.1,0.5,0,0.6
			c0,0-0.1,0.1-0.2,0.1c0,0,0,0,0,0l0.1-0.1c0,0,0,0,0,0c-0.3,0.1-1.2,0.3-3.4,1.6c-2.8,1.6-5,6.7-5.6,8l0.1-0.1
			c-0.1,0.3-0.1,0.4-0.2,0.4c0,0,0,0.1,0,0.1l0,0c-0.1,0-0.1,0-0.2,0c-0.2,0.1-0.7,0-1.3-0.1c-0.9-0.2-1.6-0.2-2.3-0.1
			c-1.1,0.1-2,0.7-2.8,1.7c-1.1,0.5-2,1.5-2.4,2.8c-1.6,4.3-1.7,8.9,0,13.5c2.1,7.8,6.1,12.4,12.2,14c1.1,0.3,2,0.4,2.8,0.3
			c1.7-0.2,2.6-1.4,3.5-3.1c2.6,1.7,5.6,2.3,9.1,1.8c0.2,0,0.4-0.1,0.7-0.1c2.9-0.5,5.6-1.8,7.9-4l0.2-0.1l0.2-0.8
			c0.2-0.1,0.4-0.2,0.7-0.3L453.8,213.6z M444.4,218.8c-0.4,0.1-0.9,0.2-1.3,0.2c-0.4,0.1-0.9,0.1-1.4,0.1c-0.6,0-1.3,0-1.9-0.1
			c-1-0.2-2.1-0.6-3.1-1.2c-0.8-0.5-1.5-1-2.3-1.7l-0.1-0.1c-0.2-0.4-0.5-0.7-0.8-0.7c-0.1-0.1-0.2-0.1-0.4-0.1l-0.2,0.1h-0.1
			l-0.2,0.2c-0.2,0.3-0.2,0.6-0.2,0.9c-0.3-0.1-0.7-0.3-1.2-0.6c-0.1-0.1-0.2-0.2-0.4-0.2l-0.2-0.1h-0.2c-0.2,0-0.6,0.2-0.7,0.7
			c-0.1,0.2-0.1,0.4,0,0.6l0.1,0.2l0.1,0.1c0.1,0.2,0.3,0.3,0.6,0.4c0.7,0.9,1.5,1.2,2.4,1.5c0.2,0.1,0.3,0.1,0.5,0.2
			c-0.5,0.7-1,0.8-1.4,0.9c-0.7,0.1-1.4-0.1-2-0.3c-3.7-1.1-6.5-3.9-8.6-8.6c-0.8-1.8-1.3-3.5-1.7-5.1c-0.1-0.9-0.2-1.7-0.3-2.6
			c-0.1-1.2-0.1-2.2,0-3.1c0.1-0.7,0.2-1.2,0.3-1.8c0.1-0.5,0.3-1,0.6-1.5c0.4-0.9,0.8-1.5,1.3-2c0.7-0.6,1.4-1.1,2.2-1.2
			c0.4-0.1,0.8,0,1.2,0.2c0.3,0.1,0.7,0.3,0.8,0.6c0.1,0.1,0,0.4-0.1,0.6c-0.1,0.7-0.4,1.3-0.7,1.9c-0.5,1.2-1.1,2.4-0.8,4
			c-0.1,0.2-0.2,0.7,0.1,1.2l0.5,2c0,0.2,0.1,0.4,0.1,0.7c0.1,0.9,0.1,2.1,1.2,3.4l1.1-0.6l-0.5-2.3c0.3,0.7,0.7,1.3,1.2,2
			c1,2.1,2.5,3.4,4.8,4.5l1.9,0.7l-0.2-0.3l0.2,0.1l-4.4-5.8l-1.8-4.5l-0.2-1.5l0.1-0.7v-1.6v-0.6l0.1-0.2h0.1l0.1-0.4l0.2-0.9h-0.1
			c0-0.2,0.1-0.4,0.1-0.6c0.2-1.3,0.5-2.6,1-3.9c0.2-0.5,0.4-1,0.6-1.5c0.4-0.4,0.7-0.9,1-1.3c0.9-1.3,1.8-2.5,3-3.2
			c-0.1,0.1-0.3,0.6-0.3,0.6l0.6,0.3l-0.7-0.2c-0.6,0.6-0.7,1.2-0.2,1.7c0.2,0.2,0.4,0.2,0.7,0.2c0.6-0.1,0.9-0.7,1-1
			c3.3-2.8,4.2-6.6,2.7-11.4c-0.5-1.5-1-3.2-1.3-5c-0.2-1.7,0-3,0.6-3.9c0.4-0.6,1.1-0.9,2-1c0.5-0.1,1-0.1,1.5,0
			c4.7,0.6,7.5,4.9,7.2,11.1c-0.2,5.6-1.5,9.4-4.1,12.1c-0.1,0.2-0.3,0.3-0.4,0.5c-0.4,0.4-0.6,0.7-0.8,1.1
			c-0.1,0.1-0.1,0.2-0.2,0.3c-0.2,0.2-0.1,0.5-0.1,0.7c0,0.1,0,0.2,0,0.3v0.9l0.9-0.3c0.2-0.1,0.4-0.1,0.6-0.2
			c0.7-0.3,1.3-0.7,1.8-1.3c0.1-0.1,0.3-0.3,0.4-0.5c0.1-0.1,0.2-0.3,0.4-0.4c0.3-0.4,0.5-0.5,0.5-0.5s0.2,0.1,0.5,0.9
			c0.3,0.8,0.6,1.7,0.7,2.6c0,1.1,0,2.2-0.1,3.2c0,0.2-0.1,0.5-0.1,0.8c-0.1,1-0.4,2.1-0.7,3.2c-0.4,1.7-1,3.2-1.8,4.7
			c-1.4,2.6-3.1,4.1-5.4,4.5l-2.1,0.4l2,0.9c0.6,0.2,1.3,0.4,2,0.2c1.7-0.2,3.4-1.3,4.8-3.2c1.2-1.4,1.9-3.2,2.6-5
			c0,0.6-0.1,1.1,0.1,1.7l0.3,2.6c0,0.2,0.1,0.3,0.1,0.4l0.1,0.1c0.1,0.4,0.2,0.9,0.3,1.2l1.7,6.2
			C449.2,217.1,446.8,218.3,444.4,218.8z"/>
	</g>
</g>
</svg>
