<?xml version="1.0" encoding="utf-8"?>
<!-- Generator: Adobe Illustrator 27.9.1, SVG Export Plug-In . SVG Version: 6.00 Build 0)  -->
<svg version="1.1" id="Layer_1" xmlns="http://www.w3.org/2000/svg" xmlns:xlink="http://www.w3.org/1999/xlink" x="0px" y="0px"
	 viewBox="0 0 300 300" style="enable-background:new 0 0 300 300;" xml:space="preserve">
<style type="text/css">
	.st0{fill:#FDFDFD;}
	.st1{fill:#232121;}
	.st2{fill:#B21F37;}
	.st3{fill:#FFFFFF;}
	.st4{opacity:0.49;fill:#B21F37;enable-background:new    ;}
	.st5{fill:#FECE43;}
	.st6{fill:#4B78A9;}
	.st7{fill:#215483;}
	.st8{fill:#ABB4CE;}
	.st9{fill:#DEE2F2;}
	.st10{fill:#FDCF23;}
	.st11{fill:#BD9158;}
	.st12{fill:#0C0B0A;}
	.st13{fill:#2F2F2E;}
	.st14{fill:#FCFCFB;}
	.st15{fill:#4F2F09;}
	.st16{fill:#A67A45;}
	.st17{fill:#D5D5D5;}
	.st18{fill:#3C3C3C;}
	.st19{fill:#666666;}
	.st20{fill:#C9A375;}
	.st21{fill:#623F19;}
	.st22{fill:#B21F36;}
	.st23{fill:#BC9720;}
	.st24{fill:#976A34;}
	.st25{fill:#8E192F;}
	.st26{fill:#D6D5D2;}
	.st27{fill:#8F2438;}
	.st28{fill:#B8CACD;}
	.st29{fill:#F26966;}
	.st30{fill:#999999;}
	.st31{opacity:0.38;fill:#FFFFFF;enable-background:new    ;}
	.st32{fill:#0D0F10;}
	.st33{fill:#4F5051;}
	.st34{fill:#65A042;}
	.st35{fill:#6B6C6C;}
	.st36{fill:#C3E2ED;}
	.st37{fill:#9FABB0;}
	.st38{fill:#170F09;}
	.st39{fill:#222221;}
	.st40{fill:#D89A53;}
	.st41{fill:#592A07;}
	.st42{fill:#B88346;}
	.st43{fill:#DBDADA;}
	.st44{fill:#383837;}
	.st45{fill:#804118;}
	.st46{fill:#646463;}
	.st47{fill:#E5AF73;}
	.st48{fill:#2D2D2C;}
	.st49{fill:#693309;}
	.st50{fill:#DB9D56;}
	.st51{fill:#613214;}
</style>
<rect class="st0" width="300" height="300"/>
<g>
	<path class="st1" d="M58.6,279.4c-8.4,0-15.2-6.8-15.2-15.2V28.5c0-8.4,6.8-15.2,15.2-15.2h182.8c8.4,0,15.2,6.8,15.2,15.2v223.7
		c0,15-12.2,27.2-27.2,27.2H58.6z"/>
	<path class="st2" d="M229.3,273.5H58.6c-5.1,0-9.3-4.1-9.3-9.3V28.5c0-5.1,4.1-9.3,9.3-9.3h182.8c5.1,0,9.3,4.1,9.3,9.3v223.7
		C250.7,264,241.1,273.5,229.3,273.5z"/>
	<path class="st25" d="M229.3,263H58.6c-5.1,0-9.3-4.1-9.3-9.3v10.5c0,5.1,4.1,9.3,9.3,9.3h170.8c11.8,0,21.3-9.6,21.3-21.3v-10.5
		C250.7,253.5,241.1,263,229.3,263z"/>
	<path class="st1" d="M70.5,212.5c-5.1,0-9.2-4.1-9.2-9.1V39.1c0-5,4.1-9.1,9.1-9.1h117.5c5,0,9.1,4.1,9.1,9.1v164.3
		c0,5-4.1,9.1-9.1,9.1H70.5z"/>
	<path class="st1" d="M65.4,203.4V39.1c0-2.8,2.2-5,5-5h117.5c2.8,0,5,2.2,5,5v164.3c0,2.8-2.2,5-5,5H70.5
		C67.7,208.4,65.4,206.2,65.4,203.4z"/>
	<g>
		<path class="st7" d="M74,79.4c-1.3,0-2.4-0.9-2.4-2.1v-1.4c0-1.2,1.1-2.1,2.4-2.1h108.8c1.3,0,2.4,0.9,2.4,2.1v1.4
			c0,1.2-1.1,2.1-2.4,2.1H74z"/>
		<g>
			<path class="st1" d="M74,79.2c-1.9,0-3.5-1.4-3.5-3.1v-1.4c0-1.7,1.6-3.1,3.5-3.1h108.8c1.9,0,3.5,1.4,3.5,3.1v1.4
				c0,1.7-1.6,3.1-3.5,3.1H74z"/>
			<path class="st1" d="M74,78.2c-1.3,0-2.4-0.9-2.4-2.1v-1.4c0-1.2,1.1-2.1,2.4-2.1h108.8c1.3,0,2.4,0.9,2.4,2.1v1.4
				c0,1.2-1.1,2.1-2.4,2.1H74z"/>
			<path class="st3" d="M182.8,73.5H74c-0.8,0-1.4,0.5-1.4,1.2v1.4c0,0.6,0.6,1.2,1.4,1.2h108.8c0.8,0,1.4-0.5,1.4-1.2v-1.4
				C184.2,74.1,183.6,73.5,182.8,73.5z"/>
			<path class="st26" d="M182.8,75.7H74c-0.8,0-1.4-0.5-1.4-1.1v0.1v1.4c0,0.6,0.6,1.2,1.4,1.2h108.8c0.8,0,1.4-0.5,1.4-1.2v-1.4
				v-0.1C184.2,75.2,183.6,75.7,182.8,75.7z"/>
		</g>
	</g>
	<g>
		<path class="st1" d="M74,118.6c-1.9,0-3.5-1.4-3.5-3.1V114c0-1.7,1.6-3.1,3.5-3.1h108.8c1.9,0,3.5,1.4,3.5,3.1v1.4
			c0,1.7-1.6,3.1-3.5,3.1H74z"/>
		<path class="st1" d="M74,117.6c-1.3,0-2.4-0.9-2.4-2.1v-1.4c0-1.2,1.1-2.1,2.4-2.1h108.8c1.3,0,2.4,0.9,2.4,2.1v1.4
			c0,1.2-1.1,2.1-2.4,2.1H74z"/>
		<path class="st3" d="M182.8,112.8H74c-0.8,0-1.4,0.5-1.4,1.2v1.4c0,0.6,0.6,1.2,1.4,1.2h108.8c0.8,0,1.4-0.5,1.4-1.2V114
			C184.2,113.4,183.6,112.8,182.8,112.8z"/>
		<path class="st26" d="M182.8,115H74c-0.8,0-1.4-0.5-1.4-1.1v0.1v1.4c0,0.6,0.6,1.2,1.4,1.2h108.8c0.8,0,1.4-0.5,1.4-1.2V114v-0.1
			C184.2,114.6,183.6,115,182.8,115z"/>
	</g>
	<g>
		<path class="st1" d="M74,164.4c-1.9,0-3.5-1.4-3.5-3.1v-1.4c0-1.7,1.6-3.1,3.5-3.1h108.8c1.9,0,3.5,1.4,3.5,3.1v1.4
			c0,1.7-1.6,3.1-3.5,3.1H74z"/>
		<path class="st1" d="M74,163.3c-1.3,0-2.4-0.9-2.4-2.1v-1.4c0-1.2,1.1-2.1,2.4-2.1h108.8c1.3,0,2.4,0.9,2.4,2.1v1.4
			c0,1.2-1.1,2.1-2.4,2.1H74z"/>
		<path class="st3" d="M182.8,158.7H74c-0.8,0-1.4,0.5-1.4,1.2v1.4c0,0.6,0.6,1.2,1.4,1.2h108.8c0.8,0,1.4-0.5,1.4-1.2v-1.4
			C184.2,159.2,183.6,158.7,182.8,158.7z"/>
		<path class="st26" d="M182.8,160.8H74c-0.8,0-1.4-0.5-1.4-1.1v0.1v1.4c0,0.6,0.6,1.2,1.4,1.2h108.8c0.8,0,1.4-0.5,1.4-1.2v-1.4
			v-0.1C184.2,160.4,183.6,160.8,182.8,160.8z"/>
	</g>
	<g>
		<path class="st1" d="M74,205.7c-1.9,0-3.5-1.4-3.5-3.1v-1.4c0-1.7,1.6-3.1,3.5-3.1h108.8c1.9,0,3.5,1.4,3.5,3.1v1.4
			c0,1.7-1.6,3.1-3.5,3.1L74,205.7L74,205.7z"/>
		<path class="st1" d="M74,204.6c-1.3,0-2.4-0.9-2.4-2.1v-1.4c0-1.2,1.1-2.1,2.4-2.1h108.8c1.3,0,2.4,0.9,2.4,2.1v1.4
			c0,1.2-1.1,2.1-2.4,2.1H74z"/>
		<path class="st3" d="M182.8,199.9H74c-0.8,0-1.4,0.5-1.4,1.2v1.4c0,0.6,0.6,1.2,1.4,1.2h108.8c0.8,0,1.4-0.5,1.4-1.2v-1.4
			C184.2,200.5,183.6,199.9,182.8,199.9z"/>
		<path class="st26" d="M182.8,202.1H74c-0.8,0-1.4-0.5-1.4-1.1v0.1v1.4c0,0.6,0.6,1.2,1.4,1.2h108.8c0.8,0,1.4-0.5,1.4-1.2v-1.4
			v-0.1C184.2,201.6,183.6,202.1,182.8,202.1z"/>
	</g>
	<g>
		<path class="st1" d="M95.4,134.9c-0.3,0-0.6,0-0.9-0.1c-0.9-0.1-1.8-0.2-2.8-0.2c-0.9,0-1.9,0.1-2.8,0.2c-0.3,0.1-0.6,0.1-0.9,0.1
			c-2.7,0-4.8-1.8-4.8-4.1v-6c0-1.9,1.5-3.6,3.7-4c1.5-0.3,3.1-0.5,4.7-0.5c1.6,0,3.2,0.2,4.7,0.5c2.2,0.4,3.7,2.1,3.7,4v6
			c0,1.1-0.5,2.2-1.5,3C97.8,134.5,96.7,134.9,95.4,134.9z"/>
		<path class="st1" d="M95.4,133.8c-0.2,0-0.5,0-0.6-0.1c-1-0.2-2-0.2-2.9-0.2c-1,0-2,0.1-2.9,0.2c-0.2,0.1-0.5,0.1-0.6,0.1
			c-2,0-3.7-1.4-3.7-3.1v-6c0-1.4,1.2-2.7,2.8-3c1.5-0.3,2.9-0.4,4.5-0.4s3,0.1,4.5,0.4c1.7,0.4,2.8,1.6,2.8,3v6
			c0,0.8-0.4,1.7-1.1,2.2C97.3,133.5,96.4,133.8,95.4,133.8z"/>
		<path class="st2" d="M95.9,123.2c-2.7-0.5-5.5-0.5-8.2,0c-0.9,0.2-1.6,0.9-1.6,1.7v6c0,1.1,1.2,1.8,2.4,1.7c2.2-0.4,4.4-0.4,6.5,0
			c1.2,0.2,2.4-0.6,2.4-1.7v-6C97.4,124,96.8,123.4,95.9,123.2z"/>
		<path class="st3" d="M95.9,123.2c-2.7-0.5-5.5-0.5-8.2,0c-0.9,0.2-1.6,0.9-1.6,1.7v0.8c0-0.8,0.6-1.5,1.6-1.7
			c2.7-0.5,5.5-0.5,8.2,0c0.9,0.2,1.6,0.9,1.6,1.7v-0.8C97.4,124,96.8,123.4,95.9,123.2z"/>
		<path class="st1" d="M83.6,159.7c-3.7,0-6.6-2.5-6.6-5.6V138c0-6.8,6.7-12.4,14.9-12.4c8.2,0,14.9,5.5,14.9,12.4v16.1
			c0,3.1-2.9,5.6-6.6,5.6H83.6z"/>
		<path class="st1" d="M83.6,158.7c-3,0-5.5-2.1-5.5-4.6V138c0-6.2,6.1-11.4,13.7-11.4c7.5,0,13.7,5.1,13.7,11.4v16.1
			c0,2.5-2.5,4.6-5.5,4.6H83.6z"/>
		<path class="st2" d="M100.3,157.2H83.2c-1.9,0-3.5-1.6-3.5-3.5V139c0-6.1,4.9-11,11-11h2.2c6.1,0,11,4.9,11,11v14.8
			C103.9,155.7,102.3,157.2,100.3,157.2z"/>
		<path class="st25" d="M101.7,132.4c0.8,1.4,1.2,2.9,1.2,4.5v14.2c0,1.7-1.5,3.1-3.4,3.1H84c-1.8,0-3.4-1.4-3.4-3.1v-14.2
			c0-1.7,0.5-3.2,1.2-4.5c-1.4,1.7-2.2,3.8-2.2,6.1v15.3c0,1.8,1.7,3.4,3.7,3.4h16.9c2,0,3.7-1.5,3.7-3.4v-15.3
			C103.9,136.3,103,134.1,101.7,132.4z"/>
		<path class="st1" d="M91.8,149.6c-4.2,0-8.4-0.4-12.6-1.1l-0.6-0.1c-0.2-0.1-0.4-0.1-0.6-0.3c-0.5-0.1-1-0.5-1-1.1v-9
			c0-0.2,0-0.3,0-0.4l0.1-1.7c0-0.3,0.2-0.6,0.4-0.8c0.2-0.2,0.5-0.2,0.7-0.2c0.1,0,0.1,0,0.2,0l1.8,0.3c3.8,0.6,7.7,1,11.6,1
			c3.8,0,7.7-0.4,11.5-1l1.9-0.4c0.1,0,0.1,0,0.2,0c0.2,0,0.5,0.1,0.7,0.2c0.2,0.2,0.4,0.5,0.4,0.8l0.1,1.7c0,0.1,0,0.3,0,0.4v9
			c0,0.5-0.4,0.9-1,1.1c-0.2,0.1-0.4,0.2-0.6,0.3l-0.6,0.1C100.2,149.2,96,149.6,91.8,149.6z"/>
		<path class="st1" d="M91.8,148.5c-4.1,0-8.3-0.4-12.4-1.1l-0.6-0.1l0.1-0.3h-0.7v-9c0-0.1,0-0.2,0-0.4l0.1-1.7l1.8,0.3
			c3.9,0.7,7.8,1,11.7,1s7.8-0.4,11.7-1l1.9-0.4l0.1,1.7c0,0.1,0,0.2,0,0.4v9h-0.7l0.1,0.3l-0.6,0.1
			C100.1,148.2,95.9,148.5,91.8,148.5z"/>
		<path class="st1" d="M91.8,147.9c-4.1,0-8.2-0.4-12.3-1.1l0.1-0.4h-0.9V138c0-0.1,0-0.2,0-0.4l0.1-0.9l1.1,0.2
			c3.9,0.7,7.9,1.1,11.9,1.1c4,0,8-0.4,11.9-1.1l1.1-0.2l0.1,1c0,0.1,0,0.2,0,0.4v8.4h-0.9l0.1,0.4C100,147.6,95.9,147.9,91.8,147.9
			z"/>
		<path class="st3" d="M103.9,137.6c-8,1.4-16.2,1.4-24.1,0c0,0.1,0,0.2,0,0.4v1v6.4v1c0-0.1,0-0.2,0-0.4c8,1.4,16.2,1.4,24.1,0
			c0,0.1,0,0.2,0,0.4v-1V139v-1C103.9,137.8,103.9,137.7,103.9,137.6z"/>
	</g>
	<g>
		<path class="st1" d="M134.2,134.9c-0.3,0-0.6,0-0.9-0.1c-0.9-0.1-1.8-0.2-2.8-0.2s-1.9,0.1-2.8,0.2c-0.3,0.1-0.6,0.1-0.9,0.1
			c-2.7,0-4.8-1.8-4.8-4.1v-6c0-1.9,1.5-3.6,3.7-4c1.5-0.3,3.1-0.5,4.7-0.5s3.2,0.2,4.7,0.5c2.2,0.4,3.7,2.1,3.7,4v6
			c0,1.1-0.5,2.2-1.5,3C136.6,134.5,135.5,134.9,134.2,134.9z"/>
		<path class="st1" d="M134.2,133.8c-0.2,0-0.5,0-0.6-0.1c-1-0.2-2-0.2-2.9-0.2c-1,0-2,0.1-2.9,0.2c-0.2,0.1-0.5,0.1-0.6,0.1
			c-2,0-3.7-1.4-3.7-3.1v-6c0-1.4,1.2-2.7,2.8-3c1.5-0.3,2.9-0.4,4.5-0.4c1.5,0,3,0.1,4.5,0.4c1.7,0.4,2.8,1.6,2.8,3v6
			c0,0.8-0.4,1.7-1.1,2.2C136.1,133.5,135.2,133.8,134.2,133.8z"/>
		<path class="st5" d="M134.7,123.2c-2.7-0.5-5.5-0.5-8.2,0c-0.9,0.2-1.6,0.9-1.6,1.7v6c0,1.1,1.2,1.8,2.4,1.7
			c2.2-0.4,4.4-0.4,6.5,0c1.2,0.2,2.4-0.6,2.4-1.7v-6C136.2,124,135.6,123.4,134.7,123.2z"/>
		<path class="st3" d="M134.7,123.2c-2.7-0.5-5.5-0.5-8.2,0c-0.9,0.2-1.6,0.9-1.6,1.7v0.8c0-0.8,0.6-1.5,1.6-1.7
			c2.7-0.5,5.5-0.5,8.2,0c0.9,0.2,1.6,0.9,1.6,1.7v-0.8C136.2,124,135.6,123.4,134.7,123.2z"/>
		<path class="st1" d="M122.4,159.7c-3.7,0-6.6-2.5-6.6-5.6V138c0-6.8,6.7-12.4,14.9-12.4s14.9,5.5,14.9,12.4v16.1
			c0,3.1-2.9,5.6-6.6,5.6H122.4z"/>
		<path class="st1" d="M122.4,158.7c-3,0-5.5-2.1-5.5-4.6V138c0-6.2,6.1-11.4,13.7-11.4c7.5,0,13.7,5.1,13.7,11.4v16.1
			c0,2.5-2.5,4.6-5.5,4.6H122.4z"/>
		<path class="st5" d="M139.2,157.2H122c-1.9,0-3.5-1.6-3.5-3.5V139c0-6.1,4.9-11,11-11h2.2c6.1,0,11,4.9,11,11v14.8
			C142.7,155.7,141.1,157.2,139.2,157.2z"/>
		<path class="st4" d="M140.5,132.4c0.8,1.4,1.2,2.9,1.2,4.5v14.2c0,1.7-1.5,3.1-3.4,3.1h-15.6c-1.8,0-3.4-1.4-3.4-3.1v-14.2
			c0-1.7,0.5-3.2,1.2-4.5c-1.4,1.7-2.2,3.8-2.2,6.1v15.3c0,1.8,1.7,3.4,3.7,3.4H139c2,0,3.7-1.5,3.7-3.4v-15.3
			C142.7,136.3,141.8,134.1,140.5,132.4z"/>
		<path class="st1" d="M130.6,149.6c-4.2,0-8.4-0.4-12.6-1.1l-0.6-0.1c-0.2-0.1-0.4-0.1-0.6-0.3c-0.5-0.1-1-0.5-1-1.1v-9
			c0-0.2,0-0.3,0-0.4l0.1-1.7c0-0.3,0.2-0.6,0.4-0.8c0.2-0.2,0.5-0.2,0.7-0.2c0.1,0,0.1,0,0.2,0l1.8,0.3c3.8,0.6,7.7,1,11.6,1
			c3.8,0,7.7-0.4,11.5-1l1.9-0.4c0.1,0,0.1,0,0.2,0c0.2,0,0.5,0.1,0.7,0.2c0.2,0.2,0.4,0.5,0.4,0.8l0.1,1.7c0,0.1,0,0.3,0,0.4v9
			c0,0.5-0.4,0.9-1,1.1c-0.2,0.1-0.4,0.2-0.6,0.3l-0.6,0.1C139,149.2,134.8,149.6,130.6,149.6z"/>
		<path class="st1" d="M130.6,148.5c-4.1,0-8.3-0.4-12.4-1.1l-0.6-0.1l0.1-0.3h-0.7v-9c0-0.1,0-0.2,0-0.4l0.1-1.7l1.8,0.3
			c3.9,0.7,7.8,1,11.7,1c3.9,0,7.8-0.4,11.7-1l1.9-0.4l0.1,1.7c0,0.1,0,0.2,0,0.4v9h-0.7l0.1,0.3l-0.6,0.1
			C138.9,148.2,134.7,148.5,130.6,148.5z"/>
		<path class="st1" d="M130.6,147.9c-4.1,0-8.2-0.4-12.3-1.1l0.1-0.4h-0.9V138c0-0.1,0-0.2,0-0.4l0.1-0.9l1.1,0.2
			c3.9,0.7,7.9,1.1,11.9,1.1c4,0,8-0.4,11.9-1.1l1.1-0.2l0.1,1c0,0.1,0,0.2,0,0.4v8.4h-0.9l0.1,0.4
			C138.8,147.6,134.7,147.9,130.6,147.9z"/>
		<path class="st3" d="M142.7,137.6c-8,1.4-16.2,1.4-24.1,0c0,0.1,0,0.2,0,0.4v1v6.4v1c0-0.1,0-0.2,0-0.4c8,1.4,16.2,1.4,24.1,0
			c0,0.1,0,0.2,0,0.4v-1V139v-1C142.7,137.8,142.7,137.7,142.7,137.6z"/>
	</g>
	<g>
		<path class="st1" d="M173,134.9c-0.3,0-0.6,0-0.9-0.1c-0.9-0.1-1.8-0.2-2.8-0.2c-0.9,0-1.9,0.1-2.8,0.2c-0.3,0.1-0.6,0.1-0.9,0.1
			c-2.7,0-4.8-1.8-4.8-4.1v-6c0-1.9,1.5-3.6,3.7-4c1.5-0.3,3.1-0.5,4.7-0.5c1.6,0,3.2,0.2,4.7,0.5c2.2,0.4,3.7,2.1,3.7,4v6
			c0,1.1-0.5,2.2-1.5,3C175.4,134.5,174.3,134.9,173,134.9z"/>
		<path class="st1" d="M173,133.8c-0.2,0-0.5,0-0.6-0.1c-1-0.2-2-0.2-2.9-0.2c-1,0-2,0.1-2.9,0.2c-0.2,0.1-0.5,0.1-0.6,0.1
			c-2,0-3.7-1.4-3.7-3.1v-6c0-1.4,1.2-2.7,2.8-3c1.5-0.3,2.9-0.4,4.5-0.4c1.5,0,3,0.1,4.5,0.4c1.7,0.4,2.8,1.6,2.8,3v6
			c0,0.8-0.4,1.7-1.1,2.2C174.9,133.5,174,133.8,173,133.8z"/>
		<path class="st6" d="M173.5,123.2c-2.7-0.5-5.5-0.5-8.2,0c-0.9,0.2-1.6,0.9-1.6,1.7v6c0,1.1,1.2,1.8,2.4,1.7
			c2.2-0.4,4.4-0.4,6.5,0c1.2,0.2,2.4-0.6,2.4-1.7v-6C175,124,174.4,123.4,173.5,123.2z"/>
		<path class="st3" d="M173.5,123.2c-2.7-0.5-5.5-0.5-8.2,0c-0.9,0.2-1.6,0.9-1.6,1.7v0.8c0-0.8,0.6-1.5,1.6-1.7
			c2.7-0.5,5.5-0.5,8.2,0c0.9,0.2,1.6,0.9,1.6,1.7v-0.8C175,124,174.4,123.4,173.5,123.2z"/>
		<path class="st1" d="M161.2,159.7c-3.7,0-6.6-2.5-6.6-5.6V138c0-6.8,6.7-12.4,14.9-12.4s14.9,5.5,14.9,12.4v16.1
			c0,3.1-2.9,5.6-6.6,5.6H161.2z"/>
		<path class="st1" d="M161.2,158.7c-3,0-5.5-2.1-5.5-4.6V138c0-6.2,6.1-11.4,13.7-11.4c7.5,0,13.7,5.1,13.7,11.4v16.1
			c0,2.5-2.5,4.6-5.5,4.6H161.2z"/>
		<path class="st6" d="M178,157.2h-17.2c-1.9,0-3.5-1.6-3.5-3.5V139c0-6.1,4.9-11,11-11h2.2c6.1,0,11,4.9,11,11v14.8
			C181.5,155.7,179.9,157.2,178,157.2z"/>
		<path class="st7" d="M179.3,132.4c0.8,1.4,1.2,2.9,1.2,4.5v14.2c0,1.7-1.5,3.1-3.4,3.1h-15.6c-1.8,0-3.4-1.4-3.4-3.1v-14.2
			c0-1.7,0.5-3.2,1.2-4.5c-1.4,1.7-2.2,3.8-2.2,6.1v15.3c0,1.8,1.7,3.4,3.7,3.4h16.9c2,0,3.7-1.5,3.7-3.4v-15.3
			C181.5,136.3,180.6,134.1,179.3,132.4z"/>
		<path class="st1" d="M169.4,149.6c-4.2,0-8.4-0.4-12.6-1.1l-0.6-0.1c-0.2-0.1-0.4-0.1-0.6-0.3c-0.5-0.1-1-0.5-1-1.1v-9
			c0-0.2,0-0.3,0-0.4l0.1-1.7c0-0.3,0.2-0.6,0.4-0.8c0.2-0.2,0.5-0.2,0.7-0.2c0.1,0,0.1,0,0.2,0l1.8,0.3c3.8,0.6,7.7,1,11.6,1
			s7.7-0.4,11.5-1l1.9-0.4c0.1,0,0.1,0,0.2,0c0.2,0,0.5,0.1,0.7,0.2c0.2,0.2,0.4,0.5,0.4,0.8l0.1,1.7c0,0.1,0,0.3,0,0.4v9
			c0,0.5-0.4,0.9-1,1.1c-0.2,0.1-0.4,0.2-0.6,0.3l-0.6,0.1C177.8,149.2,173.6,149.6,169.4,149.6z"/>
		<path class="st1" d="M169.4,148.5c-4.1,0-8.3-0.4-12.4-1.1l-0.6-0.1l0.1-0.3h-0.7v-9c0-0.1,0-0.2,0-0.4l0.1-1.7l1.8,0.3
			c3.9,0.7,7.8,1,11.7,1c3.9,0,7.8-0.4,11.7-1l1.9-0.4l0.1,1.7c0,0.1,0,0.2,0,0.4v9h-0.7l0.1,0.3l-0.6,0.1
			C177.7,148.2,173.5,148.5,169.4,148.5z"/>
		<path class="st1" d="M169.4,147.9c-4.1,0-8.2-0.4-12.3-1.1l0.1-0.4h-0.9V138c0-0.1,0-0.2,0-0.4l0.1-0.9l1.1,0.2
			c3.9,0.7,7.9,1.1,11.9,1.1c4,0,8-0.4,11.9-1.1l1.1-0.2l0.1,1c0,0.1,0,0.2,0,0.4v8.4h-0.9l0.1,0.4
			C177.6,147.6,173.5,147.9,169.4,147.9z"/>
		<path class="st3" d="M181.5,137.6c-8,1.4-16.2,1.4-24.1,0c0,0.1,0,0.2,0,0.4v1v6.4v1c0-0.1,0-0.2,0-0.4c8,1.4,16.2,1.4,24.1,0
			c0,0.1,0,0.2,0,0.4v-1V139v-1C181.5,137.8,181.5,137.7,181.5,137.6z"/>
	</g>
	<g>
		<g>
			<path class="st1" d="M107.6,42.3c-0.5-0.7-1.2-1.1-2.1-1.1c-0.4,0-0.6,0.1-0.9,0.2c-1.1,0.5-2.2,1-3.4,1.5
				c-0.8-0.7-1.6-1.4-2.4-2.1c-0.5-0.4-1-0.6-1.6-0.6c-0.6,0-1.2,0.2-1.6,0.6c-0.5,0.5-1,0.9-1.5,1.4c-0.7-0.6-1.4-1.2-2.1-1.8
				c-0.4-0.4-1-0.6-1.5-0.6c-0.6,0-1.1,0.2-1.5,0.6c-0.8,0.6-1.4,1.2-2.1,1.8c-0.5-0.5-1.1-0.9-1.5-1.4c-0.4-0.4-1-0.6-1.6-0.6
				c-0.6,0-1.2,0.2-1.6,0.6c-0.7,0.6-1.5,1.4-2.4,2.1c-1.2-0.5-2.3-1-3.4-1.5c-0.3-0.1-0.6-0.2-0.9-0.2c-0.8,0-1.6,0.4-2.1,1.1
				c-0.4,0.6-0.5,1.3-0.3,1.9c0.2,0.8,0.5,1.7,0.7,2.5c0.2,0.8,0.9,1.4,1.7,1.6c4.4,1.1,9.2,2.2,14.5,3.5c0.2,0.1,0.4,0.1,0.6,0.1
				c0.2,0,0.4,0,0.6-0.1c5.3-1.2,10.1-2.4,14.6-3.5c0.8-0.2,1.4-0.8,1.7-1.6c0.2-0.8,0.5-1.7,0.7-2.5
				C108,43.6,107.9,42.9,107.6,42.3z"/>
			<path class="st3" d="M100.4,44.4c-0.9-0.8-1.8-1.6-2.7-2.4c-0.4-0.3-0.8-0.3-1.1,0c-0.6,0.6-1.3,1.2-2,1.9
				c-0.3,0.3-0.8,0.3-1.1,0c-0.9-0.7-1.7-1.5-2.6-2.2c-0.3-0.2-0.8-0.2-1.1,0c-0.8,0.7-1.7,1.5-2.6,2.2c-0.3,0.3-0.8,0.2-1.1,0
				c-0.7-0.6-1.4-1.2-2-1.9c-0.3-0.3-0.8-0.3-1.1,0c-0.9,0.8-1.8,1.6-2.7,2.4c-0.2,0.2-0.6,0.3-0.9,0.2c-1.3-0.6-2.5-1.1-3.8-1.7
				c-0.6-0.3-1.4,0.3-1.2,0.9c0.2,0.8,0.5,1.7,0.7,2.4c0.1,0.2,0.2,0.4,0.5,0.5c4.7,1.2,9.6,2.3,14.5,3.5c0.1,0.1,0.3,0.1,0.4,0
				c5-1.2,9.8-2.3,14.5-3.5c0.2-0.1,0.5-0.2,0.5-0.5c0.2-0.8,0.5-1.7,0.7-2.4c0.2-0.6-0.6-1.2-1.2-0.9c-1.2,0.6-2.5,1.1-3.8,1.7
				C101,44.7,100.7,44.6,100.4,44.4z"/>
			<path class="st1" d="M107.1,47.1l-0.2-1.4h-33l-0.2,1.4c-0.9,8.1-0.8,16.4,0.3,24.5l0.2,1.3h32.4l0.2-1.3
				C107.9,63.5,108,55.2,107.1,47.1z"/>
			<path class="st2" d="M105.2,71.5c-9.8,0-19.8,0-29.6,0c-1.1-8-1.2-16.2-0.3-24.2c10.1,0,20.1,0,30.2,0
				C106.5,55.3,106.3,63.4,105.2,71.5z"/>
			<path class="st27" d="M105.5,47.3c-0.1,0-0.3,0-0.4,0c0.7,5.8-1.2,12.3-2.2,18.2c-0.2,1.2-1.4,2.2-2.8,2.2c-6.4,0-12.9,0-19.3,0
				c-1.4,0-2.5-0.9-2.8-2.1c-1.1-6-3.4-12.4-2.7-18.3c-0.9,8-0.8,16.2,0.3,24.2c9.8,0,19.8,0,29.6,0
				C106.3,63.4,106.5,55.3,105.5,47.3z"/>
		</g>
		<path class="st1" d="M90.4,51.8c-5.3,0-9.8,3.1-9.8,6.7c0.1,3.7,4.5,6.7,9.8,6.7l0,0c5.3,0,9.8-3.1,9.8-6.7
			C100.1,54.8,95.7,51.8,90.4,51.8z"/>
		<path class="st3" d="M98.6,58.5c-0.1,2.9-4,5.2-8.3,5.2s-8.2-2.3-8.3-5.2c0.1-2.9,4-5.2,8.3-5.2C94.6,53.2,98.6,55.6,98.6,58.5z"
			/>
	</g>
	<g>
		<g>
			<path class="st1" d="M145.5,42.3c-0.5-0.7-1.2-1.1-2.1-1.1c-0.4,0-0.6,0.1-0.9,0.2c-1.1,0.5-2.2,1-3.4,1.5
				c-0.8-0.7-1.6-1.4-2.4-2.1c-0.5-0.4-1-0.6-1.6-0.6c-0.6,0-1.2,0.2-1.6,0.6c-0.5,0.5-1,0.9-1.5,1.4c-0.7-0.6-1.4-1.2-2.1-1.8
				c-0.4-0.4-1-0.6-1.5-0.6c-0.6,0-1.1,0.2-1.5,0.6c-0.8,0.6-1.4,1.2-2.1,1.8c-0.5-0.5-1.1-0.9-1.5-1.4c-0.4-0.4-1-0.6-1.6-0.6
				c-0.6,0-1.2,0.2-1.6,0.6c-0.8,0.6-1.5,1.4-2.4,2.1c-1.2-0.5-2.3-1-3.4-1.5c-0.3-0.1-0.6-0.2-0.9-0.2c-0.8,0-1.6,0.4-2.1,1.1
				c-0.4,0.6-0.5,1.3-0.3,1.9c0.2,0.8,0.5,1.7,0.7,2.5c0.2,0.8,0.9,1.4,1.7,1.6c4.4,1.1,9.2,2.2,14.6,3.5c0.2,0.1,0.4,0.1,0.6,0.1
				c0.2,0,0.4,0,0.6-0.1c5.4-1.2,10.1-2.4,14.6-3.5c0.8-0.2,1.4-0.8,1.7-1.6s0.5-1.7,0.7-2.5C146,43.6,145.8,42.9,145.5,42.3z"/>
			<path class="st3" d="M138.4,44.4c-0.9-0.8-1.8-1.6-2.7-2.4c-0.4-0.3-0.8-0.3-1.1,0c-0.6,0.6-1.3,1.2-2,1.9
				c-0.3,0.3-0.8,0.3-1.1,0c-0.9-0.7-1.7-1.5-2.6-2.2c-0.3-0.2-0.8-0.2-1.1,0c-0.8,0.7-1.7,1.5-2.6,2.2c-0.3,0.3-0.8,0.2-1.1,0
				c-0.7-0.6-1.4-1.2-2-1.9c-0.3-0.3-0.8-0.3-1.1,0c-0.9,0.8-1.8,1.6-2.7,2.4c-0.2,0.2-0.6,0.3-0.9,0.2c-1.3-0.6-2.5-1.1-3.8-1.7
				c-0.6-0.3-1.4,0.3-1.2,0.9c0.2,0.8,0.5,1.7,0.7,2.4c0.1,0.2,0.2,0.4,0.5,0.5c4.7,1.2,9.6,2.3,14.5,3.5c0.1,0.1,0.3,0.1,0.4,0
				c5-1.2,9.8-2.3,14.5-3.5c0.2-0.1,0.5-0.2,0.5-0.5c0.2-0.8,0.5-1.7,0.7-2.4c0.2-0.6-0.6-1.2-1.2-0.9c-1.2,0.6-2.5,1.1-3.8,1.7
				C139,44.7,138.6,44.6,138.4,44.4z"/>
			<path class="st1" d="M145,47.1l-0.2-1.4h-33l-0.2,1.4c-0.9,8.1-0.8,16.4,0.3,24.5l0.2,1.3h32.4l0.2-1.3
				C145.9,63.5,146,55.2,145,47.1z"/>
			<path class="st5" d="M143.2,71.5c-9.8,0-19.8,0-29.6,0c-1.1-8-1.2-16.2-0.3-24.2c10.1,0,20.1,0,30.2,0
				C144.4,55.3,144.3,63.4,143.2,71.5z"/>
			<path class="st4" d="M143.4,47.3c-0.1,0-0.3,0-0.4,0c0.7,5.8-1.2,12.3-2.2,18.2c-0.2,1.2-1.4,2.2-2.8,2.2c-6.4,0-12.9,0-19.3,0
				c-1.4,0-2.5-0.9-2.8-2.1c-1.1-6-3.4-12.4-2.7-18.3c-0.9,8-0.8,16.2,0.3,24.2c9.8,0,19.8,0,29.6,0
				C144.3,63.4,144.4,55.3,143.4,47.3z"/>
		</g>
		<path class="st1" d="M128.3,51.8c-5.3,0-9.8,3.1-9.8,6.7c0.1,3.7,4.5,6.7,9.8,6.7l0,0c5.3,0,9.8-3.1,9.8-6.7
			C138.1,54.8,133.6,51.8,128.3,51.8z"/>
		<path class="st3" d="M136.5,58.5c-0.1,2.9-4,5.2-8.3,5.2c-4.2,0-8.2-2.3-8.3-5.2c0.1-2.9,4-5.2,8.3-5.2
			C132.6,53.2,136.5,55.6,136.5,58.5z"/>
	</g>
	<g>
		<g>
			<path class="st1" d="M183.4,42.3c-0.5-0.7-1.2-1.1-2.1-1.1c-0.4,0-0.6,0.1-0.9,0.2c-1.1,0.5-2.2,1-3.4,1.5
				c-0.8-0.7-1.6-1.4-2.4-2.1c-0.5-0.4-1-0.6-1.6-0.6s-1.2,0.2-1.6,0.6c-0.5,0.5-1,0.9-1.5,1.4c-0.7-0.6-1.4-1.2-2.1-1.8
				c-0.4-0.4-1-0.6-1.5-0.6c-0.6,0-1.1,0.2-1.5,0.6c-0.8,0.6-1.4,1.2-2.1,1.8c-0.5-0.5-1-0.9-1.5-1.4c-0.4-0.4-1-0.6-1.6-0.6
				c-0.6,0-1.2,0.2-1.6,0.6c-0.8,0.6-1.5,1.4-2.4,2.1c-1.2-0.5-2.3-1-3.4-1.5c-0.3-0.1-0.6-0.2-0.9-0.2c-0.8,0-1.6,0.4-2.1,1.1
				c-0.4,0.6-0.5,1.3-0.3,1.9c0.2,0.8,0.5,1.7,0.7,2.5c0.2,0.8,0.9,1.4,1.7,1.6c4.4,1.1,9.2,2.2,14.6,3.5c0.2,0.1,0.4,0.1,0.6,0.1
				c0.2,0,0.4,0,0.6-0.1c5.3-1.2,10.1-2.4,14.6-3.5c0.8-0.2,1.4-0.8,1.7-1.6c0.2-0.8,0.5-1.7,0.7-2.5
				C183.9,43.6,183.8,42.9,183.4,42.3z"/>
			<path class="st3" d="M176.3,44.4c-0.9-0.8-1.8-1.6-2.7-2.4c-0.4-0.3-0.8-0.3-1.1,0c-0.6,0.6-1.3,1.2-2,1.9
				c-0.3,0.3-0.8,0.3-1.1,0c-0.9-0.7-1.7-1.5-2.6-2.2c-0.3-0.2-0.8-0.2-1.1,0c-0.8,0.7-1.7,1.5-2.6,2.2c-0.3,0.3-0.8,0.2-1.1,0
				c-0.7-0.6-1.4-1.2-2-1.9c-0.3-0.3-0.8-0.3-1.1,0c-0.9,0.8-1.8,1.6-2.7,2.4c-0.2,0.2-0.6,0.3-0.9,0.2c-1.3-0.6-2.5-1.1-3.8-1.7
				c-0.6-0.3-1.4,0.3-1.2,0.9c0.2,0.8,0.5,1.7,0.7,2.4c0.1,0.2,0.2,0.4,0.5,0.5c4.7,1.2,9.6,2.3,14.5,3.5c0.1,0.1,0.3,0.1,0.4,0
				c5-1.2,9.8-2.3,14.5-3.5c0.2-0.1,0.5-0.2,0.5-0.5c0.2-0.8,0.5-1.7,0.7-2.4c0.2-0.6-0.6-1.2-1.2-0.9c-1.2,0.6-2.5,1.1-3.8,1.7
				C176.9,44.7,176.6,44.6,176.3,44.4z"/>
			<path class="st1" d="M150.1,72.9l-0.2-1.3c-1.1-8.1-1.2-16.4-0.3-24.5l0.2-1.4h33l0.2,1.4c0.9,8.1,0.8,16.4-0.3,24.5l-0.2,1.3
				L150.1,72.9L150.1,72.9z"/>
			<path class="st1" d="M150.7,72.3l-0.1-0.8c-1.1-8.1-1.2-16.3-0.3-24.4l0.1-0.8h31.8l0.1,0.8c0.9,8.1,0.8,16.3-0.3,24.4l-0.1,0.8
				L150.7,72.3L150.7,72.3z"/>
			<path class="st6" d="M181.1,71.5c-9.8,0-19.8,0-29.6,0c-1.1-8-1.2-16.2-0.3-24.2c10.1,0,20.1,0,30.2,0
				C182.3,55.3,182.2,63.4,181.1,71.5z"/>
			<path class="st7" d="M181.4,47.3c-0.1,0-0.3,0-0.4,0c0.7,5.8-1.2,12.3-2.2,18.2c-0.2,1.2-1.4,2.2-2.8,2.2c-6.4,0-12.9,0-19.3,0
				c-1.4,0-2.5-0.9-2.8-2.1c-1.1-6-3.4-12.4-2.7-18.3c-0.9,8-0.8,16.2,0.3,24.2c9.8,0,19.8,0,29.6,0
				C182.2,63.4,182.3,55.3,181.4,47.3z"/>
		</g>
		<path class="st1" d="M166.2,51.8c-5.3,0-9.8,3.1-9.8,6.7c0.1,3.7,4.5,6.7,9.8,6.7l0,0c5.3,0,9.8-3.1,9.8-6.7
			C176,54.8,171.5,51.8,166.2,51.8z"/>
		<path class="st3" d="M174.5,58.5c-0.1,2.9-4,5.2-8.3,5.2c-4.2,0-8.2-2.3-8.3-5.2c0.1-2.9,4-5.2,8.3-5.2
			C170.5,53.2,174.4,55.6,174.5,58.5z"/>
	</g>
	<g>
		<path class="st1" d="M93.6,199.4c-7,0-10.4-0.9-11.2-3.1l-1.2-1.9c-0.6-0.2-1.1-0.8-1.1-1.5v-20.1c0-0.3,0.1-0.6,0.2-0.8l2.7-4.1
			c0.3-0.5,0.9-0.8,1.5-0.8h18.2c0.6,0,1.2,0.3,1.5,0.8l2.6,4.1c0.2,0.2,0.2,0.5,0.2,0.8v18.5c0,0.1,0,0.2-0.1,0.4l-0.4,1.7
			c-0.1,0.2-0.1,0.3-0.2,0.5l-1.7,2.7C103.8,198.5,100.3,199.4,93.6,199.4z"/>
		<path class="st1" d="M93.6,198.3c-6.2,0-9.7-0.8-10.1-2.4l-1.5-2.4h-0.1c-0.4,0-0.6-0.3-0.6-0.6v-20.2c0-0.1,0.1-0.2,0.1-0.3
			l2.7-4.1c0.1-0.2,0.4-0.3,0.5-0.3h18.2c0.2,0,0.5,0.1,0.5,0.3l2.6,4.1c0.1,0.1,0.1,0.2,0.1,0.3v18.5c0,0.1,0,0.1,0,0.1l-0.4,1.7
			c0,0.1-0.1,0.1-0.1,0.2l-1.8,2.8C103,197.6,99.6,198.3,93.6,198.3z"/>
		<path class="st5" d="M104.4,192.1V173l-2.2-3.5h-17l-2.2,3.5v19.2h0.1l2.1,3.3c0,0,0,0,0,0.1c0,0.8,3.8,1.4,8.6,1.4
			c4.7,0,8.5-0.6,8.6-1.4L104.4,192.1L104.4,192.1L104.4,192.1L104.4,192.1L104.4,192.1z"/>
		<path class="st1" d="M93.6,173.5c-4.9,0-11.4-0.4-11.4-3.9c0-3.5,6.5-3.9,11.4-3.9s11.4,0.4,11.4,3.9
			C105,173,98.5,173.5,93.6,173.5z"/>
		<path class="st1" d="M93.6,172.4c-6.8,0-10.2-0.9-10.2-2.8c0-1.9,3.4-2.8,10.2-2.8s10.2,0.9,10.2,2.8
			C103.9,171.5,100.4,172.4,93.6,172.4z"/>
		<ellipse class="st8" cx="93.6" cy="169.6" rx="8.6" ry="1.4"/>
		<ellipse class="st9" cx="91.7" cy="169.6" rx="6.7" ry="1.1"/>
		<path class="st1" d="M81.9,193l2.2,3.1l0.8-0.5l-2.3-3.8l-0.8,0.9C81.9,192.6,81.8,192.9,81.9,193z"/>
		<g>
			<path class="st1" d="M81.9,192.6c-0.4,0-0.8-0.1-1.1-0.4c-0.4-0.3-0.7-0.8-0.7-1.3v-10.8c0-0.8,0.5-1.4,1.4-1.6l23.5-5.6
				c0.2-0.1,0.3-0.1,0.5-0.1c0.4,0,0.8,0.1,1.1,0.4c0.4,0.3,0.7,0.8,0.7,1.3v11.3c0,0.8-0.6,1.4-1.4,1.6l-23.5,5.2
				C82.1,192.6,82,192.6,81.9,192.6z"/>
			<path class="st1" d="M81.9,191.5c-0.1,0-0.3-0.1-0.4-0.1c-0.2-0.1-0.2-0.3-0.2-0.5v-10.8c0-0.3,0.2-0.5,0.5-0.6l23.5-5.6
				c0.1,0,0.1,0,0.2,0c0.1,0,0.3,0.1,0.4,0.1c0.2,0.1,0.2,0.3,0.2,0.5v11.3c0,0.3-0.2,0.5-0.5,0.6L82,191.5
				C81.9,191.5,81.9,191.5,81.9,191.5z"/>
			<polygon class="st9" points="82.8,180.6 82.8,189.7 104.4,185.2 104.4,175.6 			"/>
		</g>
		<ellipse class="st9" cx="90.5" cy="169.4" rx="2.7" ry="0.7"/>
	</g>
	<g>
		<path class="st1" d="M129.3,199.4c-7,0-10.4-0.9-11.2-3.1l-1.2-1.9c-0.6-0.2-1.1-0.8-1.1-1.5v-20.1c0-0.3,0.1-0.6,0.2-0.8l2.7-4.1
			c0.3-0.5,0.9-0.8,1.5-0.8h18.2c0.6,0,1.2,0.3,1.5,0.8l2.6,4.1c0.2,0.2,0.2,0.5,0.2,0.8v18.5c0,0.1,0,0.2-0.1,0.4l-0.4,1.7
			c-0.1,0.2-0.1,0.3-0.2,0.5l-1.7,2.7C139.5,198.5,136.1,199.4,129.3,199.4z"/>
		<path class="st1" d="M129.3,198.3c-6.2,0-9.7-0.8-10.1-2.4l-1.5-2.4h-0.1c-0.4,0-0.6-0.3-0.6-0.6v-20.2c0-0.1,0.1-0.2,0.1-0.3
			l2.7-4.1c0.1-0.2,0.4-0.3,0.5-0.3h18.2c0.2,0,0.5,0.1,0.5,0.3l2.6,4.1c0.1,0.1,0.1,0.2,0.1,0.3v18.5c0,0.1,0,0.1,0,0.1l-0.4,1.7
			c0,0.1-0.1,0.1-0.1,0.2l-1.8,2.8C138.8,197.6,135.3,198.3,129.3,198.3z"/>
		<path class="st6" d="M140.1,192.1V173l-2.2-3.5h-17l-2.2,3.5v19.2h0.1l2.1,3.3c0,0,0,0,0,0.1c0,0.8,3.8,1.4,8.6,1.4
			c4.7,0,8.5-0.6,8.6-1.4L140.1,192.1L140.1,192.1L140.1,192.1L140.1,192.1L140.1,192.1z"/>
		<path class="st1" d="M129.3,173.5c-4.9,0-11.4-0.4-11.4-3.9c0-3.5,6.5-3.9,11.4-3.9c4.9,0,11.4,0.4,11.4,3.9
			C140.7,173,134.2,173.5,129.3,173.5z"/>
		<path class="st1" d="M129.3,172.4c-6.8,0-10.2-0.9-10.2-2.8c0-1.9,3.4-2.8,10.2-2.8c6.8,0,10.2,0.9,10.2,2.8
			C139.5,171.5,136.1,172.4,129.3,172.4z"/>
		<ellipse class="st8" cx="129.3" cy="169.6" rx="8.6" ry="1.4"/>
		<ellipse class="st9" cx="127.4" cy="169.6" rx="6.7" ry="1.1"/>
		<path class="st1" d="M117.7,193l2.2,3.1l0.8-0.5l-2.3-3.8l-0.8,0.9C117.5,192.6,117.4,192.9,117.7,193z"/>
		<g>
			<path class="st1" d="M117.5,192.6c-0.4,0-0.8-0.1-1.1-0.4c-0.4-0.3-0.7-0.8-0.7-1.3v-10.8c0-0.8,0.5-1.4,1.4-1.6l23.5-5.6
				c0.2-0.1,0.3-0.1,0.5-0.1c0.4,0,0.8,0.1,1.1,0.4c0.4,0.3,0.7,0.8,0.7,1.3v11.3c0,0.8-0.6,1.4-1.4,1.6l-23.5,5.2
				C117.8,192.6,117.7,192.6,117.5,192.6z"/>
			<path class="st1" d="M117.5,191.5c-0.1,0-0.3-0.1-0.4-0.1c-0.2-0.1-0.2-0.3-0.2-0.5v-10.8c0-0.3,0.2-0.5,0.5-0.6l23.5-5.6
				c0.1,0,0.1,0,0.2,0c0.1,0,0.3,0.1,0.4,0.1c0.2,0.1,0.2,0.3,0.2,0.5v11.3c0,0.3-0.2,0.5-0.5,0.6l-23.5,5.2
				C117.7,191.5,117.6,191.5,117.5,191.5z"/>
			<polygon class="st9" points="118.5,180.6 118.5,189.7 140.1,185.2 140.1,175.6 			"/>
		</g>
	</g>
	<g>
		<path class="st1" d="M165,199.4c-7,0-10.4-0.9-11.2-3.1l-1.2-1.9c-0.6-0.2-1.1-0.8-1.1-1.5v-20.1c0-0.3,0.1-0.6,0.2-0.8l2.7-4.1
			c0.3-0.5,0.9-0.8,1.5-0.8h18.2c0.6,0,1.2,0.3,1.5,0.8l2.6,4.1c0.2,0.2,0.2,0.5,0.2,0.8v18.5c0,0.1,0,0.2-0.1,0.4l-0.4,1.7
			c-0.1,0.2-0.1,0.3-0.2,0.5l-1.7,2.7C175.2,198.5,171.7,199.4,165,199.4z"/>
		<path class="st1" d="M165,198.3c-6.2,0-9.7-0.8-10.1-2.4l-1.5-2.4h-0.1c-0.4,0-0.6-0.3-0.6-0.6v-20.2c0-0.1,0.1-0.2,0.1-0.3
			l2.7-4.1c0.1-0.2,0.4-0.3,0.5-0.3h18.2c0.2,0,0.5,0.1,0.5,0.3l2.6,4.1c0.1,0.1,0.1,0.2,0.1,0.3v18.5c0,0.1,0,0.1,0,0.1l-0.4,1.7
			c0,0.1-0.1,0.1-0.1,0.2l-1.8,2.8C174.4,197.6,171,198.3,165,198.3z"/>
		<path class="st2" d="M175.8,192.1V173l-2.2-3.5h-17l-2.2,3.5v19.2h0.1l2.1,3.3c0,0,0,0,0,0.1c0,0.8,3.8,1.4,8.6,1.4
			c4.7,0,8.5-0.6,8.6-1.4L175.8,192.1L175.8,192.1L175.8,192.1L175.8,192.1L175.8,192.1z"/>
		<path class="st1" d="M165,173.5c-4.9,0-11.4-0.4-11.4-3.9c0-3.5,6.5-3.9,11.4-3.9s11.4,0.4,11.4,3.9
			C176.4,173,169.9,173.5,165,173.5z"/>
		<path class="st1" d="M165,172.4c-6.8,0-10.2-0.9-10.2-2.8c0-1.9,3.4-2.8,10.2-2.8c6.8,0,10.2,0.9,10.2,2.8
			C175.3,171.5,171.8,172.4,165,172.4z"/>
		<ellipse class="st8" cx="165" cy="169.6" rx="8.6" ry="1.4"/>
		<ellipse class="st9" cx="163.1" cy="169.6" rx="6.7" ry="1.1"/>
		<path class="st1" d="M153.3,193l2.2,3.1l0.8-0.5l-2.3-3.8l-0.8,0.9C153.2,192.6,153.2,192.9,153.3,193z"/>
		<g>
			<path class="st1" d="M153.2,192.6c-0.4,0-0.8-0.1-1.1-0.4c-0.4-0.3-0.7-0.8-0.7-1.3v-10.8c0-0.8,0.5-1.4,1.4-1.6l23.5-5.6
				c0.2-0.1,0.3-0.1,0.5-0.1c0.4,0,0.8,0.1,1.1,0.4c0.4,0.3,0.7,0.8,0.7,1.3v11.3c0,0.8-0.6,1.4-1.4,1.6l-23.5,5.2
				C153.5,192.6,153.4,192.6,153.2,192.6z"/>
			<path class="st1" d="M153.2,191.5c-0.1,0-0.3-0.1-0.4-0.1c-0.2-0.1-0.2-0.3-0.2-0.5v-10.8c0-0.3,0.2-0.5,0.5-0.6l23.5-5.6
				c0.1,0,0.1,0,0.2,0c0.1,0,0.3,0.1,0.4,0.1c0.2,0.1,0.2,0.3,0.2,0.5v11.3c0,0.3-0.2,0.5-0.5,0.6l-23.5,5.2
				C153.3,191.5,153.3,191.5,153.2,191.5z"/>
			<polygon class="st9" points="154.2,180.6 154.2,189.7 175.8,185.2 175.8,175.6 			"/>
		</g>
	</g>
	<path class="st1" d="M192.4,247.5H64c-1.5,0-2.7-1.2-2.7-2.6v-19c0-1.5,1.2-2.6,2.7-2.6h130.4c1.5,0,2.7,1.2,2.7,2.6V243
		C197.1,245.5,195,247.5,192.4,247.5z"/>
	<path class="st1" d="M221.9,169.6c-7.4,0-13.5-5.6-13.5-12.4s6.1-12.4,13.5-12.4c7.4,0,13.5,5.6,13.5,12.4S229.3,169.6,221.9,169.6
		z"/>
	<ellipse class="st1" cx="221.9" cy="157.2" rx="12.3" ry="11.4"/>
	<path class="st28" d="M221.9,167.1c-5.9,0-10.7-4.4-10.7-9.9c0-5.5,4.8-9.9,10.7-9.9c5.9,0,10.7,4.4,10.7,9.9
		C232.6,162.7,227.8,167.1,221.9,167.1z"/>
	<path class="st19" d="M221.9,164.5c-5.4,0-10-3.8-10.6-8.6c-0.1,0.4-0.1,0.8-0.1,1.3c0,5.4,4.8,9.9,10.7,9.9
		c5.9,0,10.7-4.4,10.7-9.9c0-0.4-0.1-0.9-0.1-1.3C231.9,160.8,227.3,164.5,221.9,164.5z"/>
	<path class="st1" d="M106,285.6H82c-2.3,0-4.2-1.9-4.2-4.2v-7.9h32.4v7.9C110.2,283.8,108.3,285.6,106,285.6z"/>
	<path class="st1" d="M215.7,285.6h-24c-2.3,0-4.2-1.9-4.2-4.2v-7.9h32.4v7.9C219.8,283.8,218,285.6,215.7,285.6z"/>
	<rect x="220.3" y="150.1" class="st1" width="3.2" height="14"/>
	<g>
		<rect x="200.3" y="69.4" class="st1" width="15.7" height="14.6"/>
		<rect x="214.4" y="69.4" class="st1" width="15.7" height="14.6"/>
	</g>
	<path class="st1" d="M241.5,56.3h-11.3h-1.6h-12.6h-1.6h-11.3c-1.5,0-2.8,1.2-2.8,2.6v12h14.2h1.6h12.6v11.6h-12.6h-1.6h-14.2v28
		c0,0.9,0.8,1.6,1.8,1.6h12.4h1.6h12.6h1.6h11.3c1.5,0,2.8-1.2,2.8-2.6V83.9v-1.5V70.9v-1.5V59C244.3,57.5,243.1,56.3,241.5,56.3z"
		/>
	<ellipse class="st29" cx="150.9" cy="23.5" rx="48.7" ry="2.3"/>
	<g>
		<path class="st30" d="M212,68.2h-7.1c-0.8,0-1.5-0.6-1.5-1.5v-6.4c0-0.8,0.6-1.5,1.5-1.5h7.1c0.8,0,1.5,0.6,1.5,1.5v6.4
			C213.5,67.6,212.8,68.2,212,68.2z"/>
		<path class="st19" d="M212.4,59c0.3,0.2,0.4,0.5,0.4,0.9v5.7c0,0.7-0.6,1.2-1.4,1.2h-6.1c-0.8,0-1.4-0.6-1.4-1.2v-5.7
			c0-0.4,0.2-0.7,0.4-0.9c-0.6,0.2-1.1,0.7-1.1,1.4v6.5c0,0.8,0.7,1.4,1.5,1.4h7c0.8,0,1.5-0.6,1.5-1.4v-6.5
			C213.5,59.8,213,59.2,212.4,59z"/>
	</g>
	<g>
		<path class="st30" d="M226.1,68.2H219c-0.8,0-1.5-0.6-1.5-1.5v-6.4c0-0.8,0.6-1.5,1.5-1.5h7.1c0.8,0,1.5,0.6,1.5,1.5v6.4
			C227.6,67.6,227,68.2,226.1,68.2z"/>
		<path class="st19" d="M226.6,59c0.3,0.2,0.4,0.5,0.4,0.9v5.7c0,0.7-0.6,1.2-1.4,1.2h-6.1c-0.8,0-1.4-0.6-1.4-1.2v-5.7
			c0-0.4,0.2-0.7,0.4-0.9c-0.6,0.2-1.1,0.7-1.1,1.4v6.5c0,0.8,0.7,1.4,1.5,1.4h7c0.8,0,1.5-0.6,1.5-1.4v-6.5
			C227.6,59.8,227.2,59.2,226.6,59z"/>
	</g>
	<g>
		<path class="st30" d="M240.3,68.2h-7.1c-0.8,0-1.5-0.6-1.5-1.5v-6.4c0-0.8,0.6-1.5,1.5-1.5h7.1c0.8,0,1.5,0.6,1.5,1.5v6.4
			C241.8,67.6,241.1,68.2,240.3,68.2z"/>
		<path class="st19" d="M240.7,59c0.3,0.2,0.4,0.5,0.4,0.9v5.7c0,0.7-0.6,1.2-1.4,1.2h-6.1c-0.8,0-1.4-0.6-1.4-1.2v-5.7
			c0-0.4,0.2-0.7,0.4-0.9c-0.6,0.2-1.1,0.7-1.1,1.4v6.5c0,0.8,0.7,1.4,1.5,1.4h7c0.8,0,1.5-0.6,1.5-1.4v-6.5
			C241.8,59.8,241.3,59.2,240.7,59z"/>
	</g>
	<g>
		<path class="st30" d="M212,81.2h-7.1c-0.8,0-1.5-0.6-1.5-1.5v-6.4c0-0.8,0.6-1.5,1.5-1.5h7.1c0.8,0,1.5,0.6,1.5,1.5v6.4
			C213.5,80.6,212.8,81.2,212,81.2z"/>
		<path class="st19" d="M212.4,72c0.3,0.2,0.4,0.5,0.4,0.9v5.7c0,0.7-0.6,1.2-1.4,1.2h-6.1c-0.8,0-1.4-0.6-1.4-1.2v-5.7
			c0-0.4,0.2-0.7,0.4-0.9c-0.6,0.2-1.1,0.7-1.1,1.4v6.5c0,0.8,0.7,1.4,1.5,1.4h7c0.8,0,1.5-0.6,1.5-1.4v-6.5
			C213.5,72.7,213,72.1,212.4,72z"/>
	</g>
	<g>
		<path class="st30" d="M212,107h-7.1c-0.8,0-1.5-0.6-1.5-1.5v-6.4c0-0.8,0.6-1.5,1.5-1.5h7.1c0.8,0,1.5,0.6,1.5,1.5v6.4
			C213.5,106.4,212.8,107,212,107z"/>
		<path class="st19" d="M212.4,97.8c0.3,0.2,0.4,0.5,0.4,0.9v5.7c0,0.7-0.6,1.2-1.4,1.2h-6.1c-0.8,0-1.4-0.6-1.4-1.2v-5.7
			c0-0.4,0.2-0.7,0.4-0.9c-0.6,0.2-1.1,0.7-1.1,1.4v6.5c0,0.8,0.7,1.4,1.5,1.4h7c0.8,0,1.5-0.6,1.5-1.4v-6.5
			C213.5,98.5,213,98,212.4,97.8z"/>
	</g>
	<g>
		<path class="st30" d="M226.1,107H219c-0.8,0-1.5-0.6-1.5-1.5v-6.4c0-0.8,0.6-1.5,1.5-1.5h7.1c0.8,0,1.5,0.6,1.5,1.5v6.4
			C227.6,106.4,226.9,107,226.1,107z"/>
		<path class="st19" d="M226.5,97.8c0.3,0.2,0.4,0.5,0.4,0.9v5.7c0,0.7-0.6,1.2-1.4,1.2h-6.1c-0.8,0-1.4-0.6-1.4-1.2v-5.7
			c0-0.4,0.2-0.7,0.4-0.9c-0.6,0.2-1.1,0.7-1.1,1.4v6.5c0,0.8,0.7,1.4,1.5,1.4h7c0.8,0,1.5-0.6,1.5-1.4v-6.5
			C227.6,98.5,227.1,98,226.5,97.8z"/>
	</g>
	<g>
		<path class="st30" d="M240.2,107h-7.1c-0.8,0-1.5-0.6-1.5-1.5v-6.4c0-0.8,0.6-1.5,1.5-1.5h7.1c0.8,0,1.5,0.6,1.5,1.5v6.4
			C241.7,106.4,241.1,107,240.2,107z"/>
		<path class="st19" d="M240.7,97.8c0.3,0.2,0.4,0.5,0.4,0.9v5.7c0,0.7-0.6,1.2-1.4,1.2h-6.1c-0.8,0-1.4-0.6-1.4-1.2v-5.7
			c0-0.4,0.2-0.7,0.4-0.9c-0.6,0.2-1.1,0.7-1.1,1.4v6.5c0,0.8,0.7,1.4,1.5,1.4h7c0.8,0,1.5-0.6,1.5-1.4v-6.5
			C241.7,98.5,241.2,98,240.7,97.8z"/>
	</g>
	<g>
		<path class="st30" d="M226.1,81.2H219c-0.8,0-1.5-0.6-1.5-1.5v-6.4c0-0.8,0.6-1.5,1.5-1.5h7.1c0.8,0,1.5,0.6,1.5,1.5v6.4
			C227.6,80.6,227,81.2,226.1,81.2z"/>
		<path class="st19" d="M226.6,72c0.3,0.2,0.4,0.5,0.4,0.9v5.7c0,0.7-0.6,1.2-1.4,1.2h-6.1c-0.8,0-1.4-0.6-1.4-1.2v-5.7
			c0-0.4,0.2-0.7,0.4-0.9c-0.6,0.2-1.1,0.7-1.1,1.4v6.5c0,0.8,0.7,1.4,1.5,1.4h7c0.8,0,1.5-0.6,1.5-1.4v-6.5
			C227.6,72.7,227.2,72.1,226.6,72z"/>
	</g>
	<g>
		<path class="st30" d="M240.3,81.2h-7.1c-0.8,0-1.5-0.6-1.5-1.5v-6.4c0-0.8,0.6-1.5,1.5-1.5h7.1c0.8,0,1.5,0.6,1.5,1.5v6.4
			C241.8,80.6,241.1,81.2,240.3,81.2z"/>
		<path class="st19" d="M240.7,72c0.3,0.2,0.4,0.5,0.4,0.9v5.7c0,0.7-0.6,1.2-1.4,1.2h-6.1c-0.8,0-1.4-0.6-1.4-1.2v-5.7
			c0-0.4,0.2-0.7,0.4-0.9c-0.6,0.2-1.1,0.7-1.1,1.4v6.5c0,0.8,0.7,1.4,1.5,1.4h7c0.8,0,1.5-0.6,1.5-1.4v-6.5
			C241.8,72.7,241.3,72.1,240.7,72z"/>
	</g>
	<g>
		<path class="st30" d="M212,94.1h-7.1c-0.8,0-1.5-0.6-1.5-1.5v-6.4c0-0.8,0.6-1.5,1.5-1.5h7.1c0.8,0,1.5,0.6,1.5,1.5v6.4
			C213.5,93.5,212.8,94.1,212,94.1z"/>
		<path class="st19" d="M212.4,84.9c0.3,0.2,0.4,0.5,0.4,0.9v5.7c0,0.7-0.6,1.2-1.4,1.2h-6.1c-0.8,0-1.4-0.6-1.4-1.2v-5.7
			c0-0.4,0.2-0.7,0.4-0.9c-0.6,0.2-1.1,0.7-1.1,1.4v6.5c0,0.8,0.7,1.4,1.5,1.4h7c0.8,0,1.5-0.6,1.5-1.4v-6.5
			C213.5,85.6,213,85.1,212.4,84.9z"/>
	</g>
	<g>
		<path class="st30" d="M226.1,94.1H219c-0.8,0-1.5-0.6-1.5-1.5v-6.4c0-0.8,0.6-1.5,1.5-1.5h7.1c0.8,0,1.5,0.6,1.5,1.5v6.4
			C227.6,93.5,227,94.1,226.1,94.1z"/>
		<path class="st19" d="M226.6,84.9c0.3,0.2,0.4,0.5,0.4,0.9v5.7c0,0.7-0.6,1.2-1.4,1.2h-6.1c-0.8,0-1.4-0.6-1.4-1.2v-5.7
			c0-0.4,0.2-0.7,0.4-0.9c-0.6,0.2-1.1,0.7-1.1,1.4v6.5c0,0.8,0.7,1.4,1.5,1.4h7c0.8,0,1.5-0.6,1.5-1.4v-6.5
			C227.6,85.6,227.2,85.1,226.6,84.9z"/>
	</g>
	<g>
		<path class="st30" d="M240.3,94.1h-7.1c-0.8,0-1.5-0.6-1.5-1.5v-6.4c0-0.8,0.6-1.5,1.5-1.5h7.1c0.8,0,1.5,0.6,1.5,1.5v6.4
			C241.8,93.5,241.1,94.1,240.3,94.1z"/>
		<path class="st19" d="M240.7,84.9c0.3,0.2,0.4,0.5,0.4,0.9v5.7c0,0.7-0.6,1.2-1.4,1.2h-6.1c-0.8,0-1.4-0.6-1.4-1.2v-5.7
			c0-0.4,0.2-0.7,0.4-0.9c-0.6,0.2-1.1,0.7-1.1,1.4v6.5c0,0.8,0.7,1.4,1.5,1.4h7c0.8,0,1.5-0.6,1.5-1.4v-6.5
			C241.8,85.6,241.3,85.1,240.7,84.9z"/>
	</g>
	<g>
		<g>
			<g>
				<g>
					<path class="st1" d="M105.5,94.8c-0.5,0-1-0.1-1.5-0.3c-2.1-0.8-4.2-1.7-6.6-2.5c-0.4-0.2-0.8-0.4-1.1-0.6
						c-0.4-0.3-0.6-0.6-0.8-0.9c-1.2-1.9-2.2-3.7-3.2-5.4c-0.4-0.6-0.5-1.4-0.4-2.1c0.1-0.6,0.3-1.1,0.4-1.7
						c0.3-1.1,1.1-1.9,2.2-2.2c0.4-0.1,0.8-0.2,1.2-0.2c1,0,2,0.4,2.7,0.9c0.4,0.3,0.7,0.6,0.9,1.1c0.3,0.6,0.6,1.2,1,1.9
						c0.5-0.1,1.1-0.2,1.5-0.2c0.2-0.1,0.4-0.1,0.6-0.1c0.9,0,1.9,0.3,2.6,0.9c0.9,0.8,1.4,1.9,1.2,3c-0.1,0.4-0.1,0.6-0.2,1
						c0.8,0.2,1.5,0.5,2.2,0.8c0.5,0.2,0.9,0.4,1.2,0.7c1.2,0.9,1.6,2.4,1,3.7c-0.4,0.9-1.4,1.7-2.5,1.9c-0.6,0.1-1.4,0.2-2,0.4
						C105.9,94.8,105.7,94.8,105.5,94.8z"/>
					<path class="st5" d="M103.3,88.1c0.1-0.7,0.2-1.4,0.4-2.1c0.1-0.6-0.6-1.2-1.4-1.1c-0.8,0.1-1.7,0.2-2.6,0.4
						c-0.5,0.1-1.1-0.2-1.4-0.7c-0.5-0.9-0.9-1.8-1.4-2.7c-0.4-0.8-1.8-0.9-2.1-0.2c-0.1,0.5-0.3,1.1-0.4,1.6
						c-0.1,0.2,0,0.4,0.1,0.5c1,1.8,2.1,3.5,3.2,5.4c0.2,0.2,0.4,0.5,0.7,0.6c2.2,0.9,4.4,1.7,6.5,2.5c0.2,0.1,0.4,0.1,0.6,0.1
						c0.6-0.1,1.3-0.2,1.9-0.4c0.9-0.2,0.6-1.4-0.3-1.7c-1.1-0.4-2.1-0.7-3.2-1.1C103.6,89.1,103.3,88.6,103.3,88.1z"/>
					<path class="st1" d="M85.5,113.6c-1,0-2-0.4-2.7-0.9c-0.4-0.3-0.7-0.6-0.9-1.1c-0.3-0.6-0.6-1.2-1-1.9
						c-0.5,0.1-1.1,0.1-1.5,0.2c-0.2,0.1-0.4,0.1-0.6,0.1c-0.9,0-1.9-0.3-2.6-0.9c-0.9-0.8-1.4-1.9-1.2-3c0.1-0.4,0.1-0.6,0.2-1
						c-0.8-0.2-1.5-0.5-2.2-0.8c-0.5-0.2-0.9-0.4-1.2-0.7c-1.2-0.9-1.6-2.4-1-3.7c0.4-0.9,1.4-1.7,2.5-1.9c0.6-0.1,1.4-0.2,2-0.4
						c0.2-0.1,0.5-0.1,0.7-0.1c0.5,0,1,0.1,1.5,0.3c2.1,0.8,4.2,1.6,6.6,2.5c0.4,0.2,0.8,0.4,1.1,0.6c0.4,0.3,0.6,0.6,0.8,0.9
						c1.2,1.9,2.2,3.7,3.2,5.4c0.4,0.6,0.5,1.4,0.4,2.1c-0.1,0.6-0.3,1.2-0.4,1.7c-0.3,1.1-1.1,1.9-2.2,2.2
						C86.4,113.5,85.9,113.6,85.5,113.6z"/>
					<path class="st5" d="M78,104.2c-0.1,0.7-0.2,1.4-0.4,2.1c-0.1,0.6,0.6,1.2,1.4,1.1c0.8-0.1,1.7-0.2,2.6-0.4
						c0.5-0.1,1.1,0.2,1.4,0.7c0.5,0.9,0.9,1.8,1.4,2.7c0.4,0.8,1.8,0.9,2.1,0.2c0.1-0.5,0.3-1.1,0.4-1.6c0.1-0.2,0-0.4-0.1-0.5
						c-1-1.8-2.1-3.5-3.2-5.4c-0.2-0.2-0.4-0.5-0.7-0.6c-2.2-0.9-4.4-1.7-6.5-2.5c-0.2-0.1-0.4-0.1-0.6-0.1
						c-0.6,0.1-1.3,0.2-1.9,0.4c-0.9,0.2-0.6,1.4,0.3,1.7c1.1,0.4,2.1,0.7,3.2,1.1C77.7,103.4,78.1,103.8,78,104.2z"/>
					<path class="st1" d="M87.9,110c-0.3,0-0.5-0.1-0.8-0.2L74.3,99.2c-0.2-0.2-0.4-0.5-0.4-0.8c0-0.3,0.1-0.6,0.3-0.8l1.1-1
						c5.1-4.9,10.6-9.6,16.5-13.9l1.1-0.8c0.2-0.2,0.5-0.2,0.7-0.2c0.3,0,0.5,0.1,0.8,0.2l13,10.6c0.2,0.2,0.4,0.5,0.4,0.8
						c0,0.3-0.1,0.6-0.3,0.8l-1.1,1c-5.1,4.9-10.7,9.6-16.6,13.8l-1.1,0.8C88.5,109.9,88.2,110,87.9,110z"/>
					<path class="st1" d="M75,98.4l1.1-1c5-4.9,10.6-9.5,16.4-13.7l1.1-0.8l13,10.6l-1.1,1c-5.1,4.9-10.6,9.5-16.5,13.7l-1.1,0.8
						L75,98.4z"/>
					<path class="st3" d="M88.1,107.1c-3.7-2.9-7.3-5.9-10.9-8.8c5-4.8,10.4-9.4,16.2-13.6c3.7,2.9,7.3,6,11,8.9
						C99.3,98.4,93.9,102.9,88.1,107.1z"/>
				</g>
			</g>
		</g>
		<path class="st1" d="M91.5,106.7c-0.6,0-1.2-0.2-1.6-0.6l-10.6-9.8c-0.4-0.4-0.6-0.9-0.6-1.5s0.2-1.1,0.7-1.5
			c2.8-2.5,5.8-5.1,9-7.5c0.4-0.4,0.9-0.5,1.5-0.5c0.6,0,1.2,0.2,1.6,0.6l10.7,9.8c0.4,0.4,0.6,0.9,0.6,1.5c0,0.6-0.2,1.1-0.7,1.5
			c-2.8,2.5-5.8,5-9,7.5C92.5,106.5,92.1,106.7,91.5,106.7z"/>
		<path class="st5" d="M100.4,97.2l-10.7-9.8c-3.1,2.4-6,4.8-8.8,7.4l10.6,9.8C94.6,102.2,97.6,99.8,100.4,97.2z"/>
		<ellipse class="st1" cx="90.1" cy="95.2" rx="4.5" ry="4.1"/>
		<ellipse class="st3" cx="90.1" cy="95.2" rx="2" ry="1.8"/>
	</g>
	<g>
		<g>
			<g>
				<g>
					<path class="st1" d="M144,94.8c-0.5,0-1-0.1-1.5-0.3c-2.1-0.8-4.2-1.7-6.6-2.5c-0.4-0.2-0.8-0.4-1.1-0.6
						c-0.4-0.3-0.6-0.6-0.8-0.9c-1.2-1.9-2.2-3.7-3.2-5.4c-0.4-0.6-0.5-1.4-0.4-2.1c0.1-0.6,0.3-1.1,0.4-1.7
						c0.3-1.1,1.1-1.9,2.2-2.2c0.4-0.1,0.8-0.2,1.2-0.2c1,0,2,0.4,2.7,0.9c0.4,0.3,0.7,0.6,0.9,1.1c0.3,0.6,0.6,1.2,1,1.9
						c0.5-0.1,1.1-0.2,1.5-0.2c0.2-0.1,0.4-0.1,0.6-0.1c0.9,0,1.9,0.3,2.6,0.9c0.9,0.8,1.4,1.9,1.2,3c-0.1,0.4-0.1,0.6-0.2,1
						c0.8,0.2,1.5,0.5,2.2,0.8c0.5,0.2,0.9,0.4,1.2,0.7c1.2,0.9,1.6,2.4,1,3.7c-0.4,0.9-1.4,1.7-2.5,1.9c-0.6,0.1-1.4,0.2-2,0.4
						C144.5,94.8,144.3,94.8,144,94.8z"/>
					<path class="st6" d="M141.9,88.1c0.1-0.7,0.2-1.4,0.4-2.1c0.1-0.6-0.6-1.2-1.4-1.1c-0.8,0.1-1.7,0.2-2.6,0.4
						c-0.5,0.1-1.1-0.2-1.4-0.7c-0.5-0.9-0.9-1.8-1.4-2.7c-0.4-0.8-1.8-0.9-2.1-0.2c-0.1,0.5-0.3,1.1-0.4,1.6
						c-0.1,0.2,0,0.4,0.1,0.5c1,1.8,2.1,3.5,3.2,5.4c0.2,0.2,0.4,0.5,0.7,0.6c2.2,0.9,4.4,1.7,6.5,2.5c0.2,0.1,0.4,0.1,0.6,0.1
						c0.6-0.1,1.3-0.2,1.9-0.4c0.9-0.2,0.6-1.4-0.3-1.7c-1.1-0.4-2.1-0.7-3.2-1.1C142.2,89.1,141.8,88.6,141.9,88.1z"/>
					<path class="st1" d="M124,113.6c-1,0-2-0.4-2.7-0.9c-0.4-0.3-0.7-0.6-0.9-1.1c-0.3-0.6-0.6-1.2-1-1.9c-0.5,0.1-1.1,0.1-1.5,0.2
						c-0.2,0.1-0.4,0.1-0.6,0.1c-0.9,0-1.9-0.3-2.6-0.9c-0.9-0.8-1.4-1.9-1.2-3c0.1-0.4,0.1-0.6,0.2-1c-0.8-0.2-1.5-0.5-2.2-0.8
						c-0.5-0.2-0.9-0.4-1.2-0.7c-1.2-0.9-1.6-2.4-1-3.7c0.4-0.9,1.4-1.7,2.5-1.9c0.6-0.1,1.4-0.2,2-0.4c0.2-0.1,0.5-0.1,0.7-0.1
						c0.5,0,1,0.1,1.5,0.3c2.1,0.8,4.2,1.6,6.6,2.5c0.4,0.2,0.8,0.4,1.1,0.6c0.4,0.3,0.6,0.6,0.8,0.9c1.2,1.9,2.2,3.7,3.2,5.4
						c0.4,0.6,0.5,1.4,0.4,2.1c-0.1,0.6-0.3,1.2-0.4,1.7c-0.3,1.1-1.1,1.9-2.2,2.2C124.9,113.5,124.4,113.6,124,113.6z"/>
					<path class="st6" d="M116.5,104.2c-0.1,0.7-0.2,1.4-0.4,2.1c-0.1,0.6,0.6,1.2,1.4,1.1c0.8-0.1,1.7-0.2,2.6-0.4
						c0.5-0.1,1.1,0.2,1.4,0.7c0.5,0.9,0.9,1.8,1.4,2.7c0.4,0.8,1.8,0.9,2.1,0.2c0.1-0.5,0.3-1.1,0.4-1.6c0.1-0.2,0-0.4-0.1-0.5
						c-1-1.8-2.1-3.5-3.2-5.4c-0.2-0.2-0.4-0.5-0.7-0.6c-2.2-0.9-4.4-1.7-6.5-2.5c-0.2-0.1-0.4-0.1-0.6-0.1
						c-0.6,0.1-1.3,0.2-1.9,0.4c-0.9,0.2-0.6,1.4,0.3,1.7c1.1,0.4,2.1,0.7,3.2,1.1C116.2,103.4,116.7,103.8,116.5,104.2z"/>
					<path class="st1" d="M126.5,110c-0.3,0-0.5-0.1-0.8-0.2l-12.9-10.5c-0.2-0.2-0.4-0.5-0.4-0.8c0-0.3,0.1-0.6,0.3-0.8l1.1-1
						c5.1-4.9,10.6-9.6,16.5-13.9l1.1-0.8c0.2-0.2,0.5-0.2,0.7-0.2c0.3,0,0.5,0.1,0.8,0.2l13,10.6c0.2,0.2,0.4,0.5,0.4,0.8
						c0,0.3-0.1,0.6-0.3,0.8l-1.1,1c-5.1,4.9-10.7,9.6-16.6,13.8l-1.1,0.8C127,109.9,126.7,110,126.5,110z"/>
					<path class="st1" d="M113.6,98.4l1.1-1c5-4.9,10.6-9.5,16.4-13.7l1.1-0.8l13,10.6l-1.1,1c-5.1,4.9-10.6,9.5-16.5,13.7l-1.1,0.8
						L113.6,98.4z"/>
					<path class="st3" d="M126.7,107.1c-3.7-2.9-7.3-5.9-10.9-8.8c5-4.8,10.4-9.4,16.2-13.6c3.7,2.9,7.3,6,11,8.9
						C137.9,98.4,132.5,102.9,126.7,107.1z"/>
				</g>
			</g>
		</g>
		<path class="st1" d="M130.1,106.7c-0.6,0-1.2-0.2-1.6-0.6l-10.6-9.8c-0.4-0.4-0.6-0.9-0.6-1.5s0.2-1.1,0.7-1.5
			c2.8-2.5,5.8-5.1,9-7.5c0.4-0.4,0.9-0.5,1.5-0.5c0.6,0,1.2,0.2,1.6,0.6l10.7,9.8c0.4,0.4,0.6,0.9,0.6,1.5c0,0.6-0.2,1.1-0.7,1.5
			c-2.8,2.5-5.8,5-9,7.5C131.1,106.5,130.6,106.7,130.1,106.7z"/>
		<path class="st6" d="M139,97.2l-10.7-9.8c-3.1,2.4-6,4.8-8.8,7.4l10.6,9.8C133.2,102.2,136.2,99.8,139,97.2z"/>
		<ellipse class="st1" cx="128.7" cy="95.2" rx="4.5" ry="4.1"/>
		<ellipse class="st3" cx="128.7" cy="95.2" rx="2" ry="1.8"/>
	</g>
	<g>
		<g>
			<g>
				<g>
					<path class="st1" d="M181.1,94.8c-0.5,0-1-0.1-1.5-0.3c-2.1-0.8-4.2-1.7-6.6-2.5c-0.4-0.2-0.8-0.4-1.1-0.6
						c-0.4-0.3-0.6-0.6-0.8-0.9c-1.2-1.9-2.2-3.7-3.2-5.4c-0.4-0.6-0.5-1.4-0.4-2.1c0.1-0.6,0.3-1.1,0.4-1.7
						c0.3-1.1,1.1-1.9,2.2-2.2c0.4-0.1,0.8-0.2,1.2-0.2c1,0,2,0.4,2.7,0.9c0.4,0.3,0.7,0.6,0.9,1.1c0.3,0.6,0.6,1.2,1,1.9
						c0.5-0.1,1.1-0.2,1.5-0.2c0.2-0.1,0.4-0.1,0.6-0.1c0.9,0,1.9,0.3,2.6,0.9c0.9,0.8,1.4,1.9,1.2,3c-0.1,0.4-0.1,0.6-0.2,1
						c0.8,0.2,1.5,0.5,2.2,0.8c0.5,0.2,0.9,0.4,1.2,0.7c1.2,0.9,1.6,2.4,1,3.7c-0.4,0.9-1.4,1.7-2.5,1.9c-0.6,0.1-1.4,0.2-2,0.4
						C181.5,94.8,181.3,94.8,181.1,94.8z"/>
					<path class="st2" d="M179,88.1c0.1-0.7,0.2-1.4,0.4-2.1c0.1-0.6-0.6-1.2-1.4-1.1c-0.8,0.1-1.7,0.2-2.6,0.4
						c-0.5,0.1-1.1-0.2-1.4-0.7c-0.5-0.9-0.9-1.8-1.4-2.7c-0.4-0.8-1.8-0.9-2.1-0.2c-0.1,0.5-0.3,1.1-0.4,1.6
						c-0.1,0.2,0,0.4,0.1,0.5c1,1.8,2.1,3.5,3.2,5.4c0.2,0.2,0.4,0.5,0.7,0.6c2.2,0.9,4.4,1.7,6.5,2.5c0.2,0.1,0.4,0.1,0.6,0.1
						c0.6-0.1,1.3-0.2,1.9-0.4c0.9-0.2,0.6-1.4-0.3-1.7c-1.1-0.4-2.1-0.7-3.2-1.1C179.3,89.1,178.9,88.6,179,88.1z"/>
					<path class="st1" d="M161.1,113.6c-1,0-2-0.4-2.7-0.9c-0.4-0.3-0.7-0.6-0.9-1.1c-0.3-0.6-0.6-1.2-1-1.9
						c-0.5,0.1-1.1,0.1-1.5,0.2c-0.2,0.1-0.4,0.1-0.6,0.1c-0.9,0-1.9-0.3-2.6-0.9c-0.9-0.8-1.4-1.9-1.2-3c0.1-0.4,0.1-0.6,0.2-1
						c-0.8-0.2-1.5-0.5-2.2-0.8c-0.5-0.2-0.9-0.4-1.2-0.7c-1.2-0.9-1.6-2.4-1-3.7c0.4-0.9,1.4-1.7,2.5-1.9c0.6-0.1,1.4-0.2,2-0.4
						c0.2-0.1,0.5-0.1,0.7-0.1c0.5,0,1,0.1,1.5,0.3c2.1,0.8,4.2,1.6,6.6,2.5c0.4,0.2,0.8,0.4,1.1,0.6c0.4,0.3,0.6,0.6,0.8,0.9
						c1.2,1.9,2.2,3.7,3.2,5.4c0.4,0.6,0.5,1.4,0.4,2.1c-0.1,0.6-0.3,1.2-0.4,1.7c-0.3,1.1-1.1,1.9-2.2,2.2
						C161.9,113.5,161.5,113.6,161.1,113.6z"/>
					<path class="st2" d="M153.6,104.2c-0.1,0.7-0.2,1.4-0.4,2.1c-0.1,0.6,0.6,1.2,1.4,1.1c0.8-0.1,1.7-0.2,2.6-0.4
						c0.5-0.1,1.1,0.2,1.4,0.7c0.5,0.9,0.9,1.8,1.4,2.7c0.4,0.8,1.8,0.9,2.1,0.2c0.1-0.5,0.3-1.1,0.4-1.6c0.1-0.2,0-0.4-0.1-0.5
						c-1-1.8-2.1-3.5-3.2-5.4c-0.2-0.2-0.4-0.5-0.7-0.6c-2.2-0.9-4.4-1.7-6.5-2.5c-0.2-0.1-0.4-0.1-0.6-0.1
						c-0.6,0.1-1.3,0.2-1.9,0.4c-0.9,0.2-0.6,1.4,0.3,1.7c1.1,0.4,2.1,0.7,3.2,1.1C153.3,103.4,153.7,103.8,153.6,104.2z"/>
					<path class="st1" d="M163.6,110c-0.3,0-0.5-0.1-0.8-0.2l-12.9-10.5c-0.2-0.2-0.4-0.5-0.4-0.8c0-0.3,0.1-0.6,0.3-0.8l1.1-1
						c5.1-4.9,10.6-9.6,16.5-13.9l1.1-0.8c0.2-0.2,0.5-0.2,0.7-0.2c0.3,0,0.5,0.1,0.8,0.2l13,10.6c0.2,0.2,0.4,0.5,0.4,0.8
						c0,0.3-0.1,0.6-0.3,0.8l-1.1,1c-5.1,4.9-10.7,9.6-16.6,13.8l-1.1,0.8C164.1,109.9,163.8,110,163.6,110z"/>
					<path class="st1" d="M150.7,98.4l1.1-1c5-4.9,10.6-9.5,16.4-13.7l1.1-0.8l13,10.6l-1.1,1c-5.1,4.9-10.6,9.5-16.5,13.7l-1.1,0.8
						L150.7,98.4z"/>
					<path class="st3" d="M163.7,107.1c-3.7-2.9-7.3-5.9-10.9-8.8c5-4.8,10.4-9.4,16.2-13.6c3.7,2.9,7.3,6,11,8.9
						C175,98.4,169.5,102.9,163.7,107.1z"/>
				</g>
			</g>
		</g>
		<path class="st1" d="M167.2,106.7c-0.6,0-1.2-0.2-1.6-0.6L155,96.3c-0.4-0.4-0.6-0.9-0.6-1.5s0.2-1.1,0.7-1.5
			c2.8-2.5,5.8-5.1,9-7.5c0.4-0.4,0.9-0.5,1.5-0.5c0.6,0,1.2,0.2,1.6,0.6l10.7,9.8c0.4,0.4,0.6,0.9,0.6,1.5c0,0.6-0.2,1.1-0.7,1.5
			c-2.8,2.5-5.8,5-9,7.5C168.2,106.5,167.7,106.7,167.2,106.7z"/>
		<path class="st2" d="M176,97.2l-10.6-9.8c-3.1,2.4-6,4.8-8.8,7.4l10.6,9.8C170.3,102.2,173.2,99.8,176,97.2z"/>
		<ellipse class="st1" cx="165.8" cy="95.2" rx="4.5" ry="4.1"/>
		<ellipse class="st3" cx="165.8" cy="95.2" rx="2" ry="1.8"/>
	</g>
	<polygon class="st31" points="175.3,84.3 168.6,90.4 130.7,55.4 137.3,49.3 	"/>
	<path class="st31" d="M181,70.2L152.6,44c-0.1-0.1-0.4-0.2-0.5-0.2s-0.4,0.1-0.5,0.2l-5,4.6c-0.1,0.1-0.2,0.3-0.2,0.5
		s0.1,0.4,0.2,0.5L175,75.7c0.2,0.1,0.4,0.2,0.5,0.2c0.2,0,0.4-0.1,0.5-0.2l5-4.6c0.1-0.1,0.2-0.3,0.2-0.5
		C181.2,70.5,181.1,70.3,181,70.2z"/>
	<path class="st31" d="M184.6,56.5l-17.2-15.9c-0.4-0.4-0.9-0.5-1.4-0.5c-0.5,0-1.1,0.2-1.4,0.5l-3,2.8c-0.4,0.4-0.6,0.8-0.6,1.3
		c0,0.5,0.2,0.9,0.6,1.3l17.2,15.9c0.4,0.4,0.9,0.5,1.4,0.5c0.5,0,1.1-0.2,1.4-0.5l3-2.8c0.4-0.4,0.6-0.8,0.6-1.3
		C185.2,57.3,185.1,56.8,184.6,56.5z"/>
	<path class="st32" d="M242.6,247.9h-35.3c-1.8,0-3.3-1.5-3.3-3.3v-18.1c0-1.8,1.5-3.3,3.3-3.3h35.3c1.8,0,3.3,1.5,3.3,3.3v18.1
		C245.8,246.4,244.4,247.9,242.6,247.9z"/>
	<polygon class="st33" points="208.2,243.8 214.1,233.1 235.8,233.1 241.7,243.8 	"/>
	<path class="st29" d="M193,240.3v-10.5c0-1.4-1.1-2.5-2.5-2.5H67.9c-1.4,0-2.5,1.1-2.5,2.5v11.1c0,1.4,1.1,2.5,2.5,2.5h122.7
		C190.6,243.4,193,243.3,193,240.3z"/>
	<path class="st2" d="M190.6,239.3H67.9c-1.4,0-2.5-1.1-2.5-2.5v4.1c0,1.4,1.1,2.5,2.5,2.5h122.7c0,0,2.4-0.1,2.4-3.1v-4.1
		C193,239.1,190.6,239.3,190.6,239.3z"/>
	<path class="st1" d="M239.3,51.2h-34.7c-2.1,0-3.8-1.7-3.8-3.8V32.7c0-2.1,1.7-3.8,3.8-3.8h34.7c2.1,0,3.8,1.7,3.8,3.8v14.7
		C243.1,49.5,241.4,51.2,239.3,51.2z"/>
	<path class="st6" d="M204.6,48.3c-0.5,0-0.8-0.4-0.8-0.8V32.7c0-0.5,0.4-0.8,0.8-0.8h34.7c0.5,0,0.8,0.4,0.8,0.8v14.7
		c0,0.5-0.4,0.8-0.8,0.8H204.6z"/>
	<path class="st31" d="M239.3,31.9h-34.7c-0.5,0-0.8,0.4-0.8,0.8v1.5c0-0.5,0.4-0.8,0.8-0.8h34.7c0.5,0,0.8,0.4,0.8,0.8v-1.5
		C240.1,32.3,239.7,31.9,239.3,31.9z"/>
	<rect x="200.8" y="117.6" class="st1" width="43.9" height="22.1"/>
	<polygon class="st30" points="239.6,128 204.6,128 207,122.8 237.2,122.8 	"/>
	<rect x="205" y="131.5" class="st30" width="34.6" height="2.1"/>
	<g>
		
			<rect x="230.5" y="35.4" transform="matrix(0.7071 -0.7071 0.7071 0.7071 40.1174 174.8694)" class="st31" width="1.3" height="7.1"/>
		
			<rect x="228.9" y="36" transform="matrix(0.7071 -0.7071 0.7071 0.7071 38.5019 174.2002)" class="st31" width="1.3" height="9.3"/>
		
			<rect x="232.1" y="35.5" transform="matrix(0.7071 -0.7071 0.7071 0.7071 41.6809 175.517)" class="st31" width="1.3" height="4"/>
	</g>
	<rect x="70.4" y="48.3" class="st31" width="6.6" height="147.8"/>
	<g>
		<path class="st1" d="M225.5,213c-6,0-12.2-0.3-18.2-1c-1.8-0.2-3.3-1.7-3.3-3.4v-26.9c0-1.7,1.5-3.2,3.3-3.4c6-0.6,12.1-1,18.2-1
			c6,0,12.2,0.3,18.2,1c1.8,0.2,3.3,1.7,3.3,3.4v26.9c0,1.7-1.5,3.2-3.3,3.4C237.7,212.6,231.6,213,225.5,213z"/>
		<path class="st1" d="M205.2,208.6c0-9,0-18,0-26.9c0-1.2,1.1-2.3,2.4-2.4c12-1.2,24.1-1.2,36.1,0c1.3,0.1,2.4,1.2,2.4,2.4
			c0,9,0,18,0,26.9c0,1.2-1.1,2.3-2.4,2.4c-12,1.2-24.1,1.2-36.1,0C206.2,210.9,205.2,209.8,205.2,208.6z"/>
		<path class="st34" d="M240.7,192.2c-10.1-0.2-20.2-0.2-30.2,0c-1.6,0-2.8-1.1-2.8-2.6c0-1.8,0-3.6,0-5.4c0-1.5,1.2-2.8,2.8-2.9
			c10.1-0.7,20.2-0.7,30.2,0c1.6,0.1,2.8,1.4,2.8,2.9c0,1.8,0,3.6,0,5.4C243.5,191.1,242.2,192.2,240.7,192.2z"/>
		<path class="st1" d="M219.6,198.5c-4,0-8-0.1-11.9-0.2c0-1.6,0-3.2,0-4.7c4-0.1,7.9-0.1,11.9-0.1
			C219.6,195.2,219.6,196.8,219.6,198.5z"/>
		<path class="st34" d="M209.2,196L209.2,196c0-0.5,0.5-0.9,1-0.9c2.3,0,4.6,0,6.9,0c0.5,0,1,0.5,1,1l0,0c0,0.5-0.5,1-1,1
			c-2.3,0-4.6-0.1-6.9-0.1C209.6,196.9,209.2,196.5,209.2,196z"/>
		<path class="st35" d="M221.2,196L221.2,196c0-0.5,0.5-1,1-1c2.3,0,4.6,0,6.9,0c0.5,0,1,0.5,1,1l0,0c0,0.5-0.5,1-1,1
			c-2.3,0-4.6,0-6.9,0C221.6,197,221.2,196.5,221.2,196z"/>
		<path class="st35" d="M233.1,196L233.1,196c0-0.5,0.5-1,1-1c2.3,0,4.6,0,6.9,0c0.5,0,1,0.4,1,0.9l0,0c0,0.5-0.5,0.9-1,0.9
			c-2.3,0-4.6,0.1-6.9,0.1C233.5,197,233.1,196.5,233.1,196z"/>
		<g>
			<g>
				<path class="st35" d="M225.9,208.5c0,0.5-0.4,0.8-0.9,0.8c-0.5,0-0.9-0.4-0.9-0.8c0-0.5,0.4-0.8,0.9-0.8
					C225.5,207.7,225.9,208.1,225.9,208.5z"/>
			</g>
			<path class="st35" d="M229.2,203.6c-0.6-0.6-1.2-1.1-2-1.4c-0.5-0.2-1.1-0.3-1.6-0.4c-0.1,0-0.3,0-0.4,0s-0.3,0-0.4,0
				c-0.6,0.1-1.2,0.2-1.6,0.4c-0.8,0.3-1.5,0.7-2,1.4c-0.2,0.2-0.2,0.5-0.1,0.7c0.1,0.2,0.4,0.3,0.6,0.2c0.1-0.1,0.1-0.1,0.2-0.2
				c0.4-0.4,0.8-0.7,1.2-0.8c0.7-0.3,1.5-0.6,2.3-0.6s1.5,0.2,2.3,0.6c0.4,0.2,0.8,0.5,1.2,0.8c0.1,0.1,0.1,0.1,0.2,0.2
				c0.2,0.1,0.5,0,0.6-0.2C229.4,204.1,229.4,203.8,229.2,203.6z"/>
			<path class="st35" d="M227.9,205c-0.4-0.4-0.9-0.7-1.4-0.9c-0.3-0.1-0.7-0.2-1.1-0.3c-0.1,0-0.2,0-0.3,0c-0.1,0-0.2,0-0.3,0
				c-0.4,0.1-0.8,0.1-1.1,0.2c-0.5,0.2-1,0.5-1.4,0.9c-0.2,0.2-0.2,0.5-0.1,0.6c0.1,0.1,0.2,0.2,0.4,0.2c0.1,0,0.1,0,0.2-0.1l0,0
				c0.1-0.1,0.1-0.1,0.2-0.1c0.2-0.2,0.5-0.4,0.7-0.5c0.5-0.2,0.9-0.3,1.4-0.3h0.1c0.5,0,0.9,0.1,1.4,0.3c0.2,0.1,0.5,0.3,0.7,0.5
				c0.1,0.1,0.1,0.1,0.2,0.1l0,0c0.1,0,0.1,0.1,0.2,0.1c0.2,0,0.3-0.1,0.4-0.2C228,205.4,228,205.2,227.9,205z"/>
			<path class="st35" d="M226.8,206.4c-0.3-0.3-0.6-0.5-0.8-0.6c-0.2-0.1-0.5-0.1-0.7-0.2c-0.1,0-0.1,0-0.2,0c-0.1,0-0.1,0-0.2,0
				c-0.2,0.1-0.5,0.1-0.7,0.2c-0.3,0.1-0.6,0.3-0.8,0.6c-0.2,0.2-0.2,0.4-0.1,0.6c0.1,0.1,0.2,0.2,0.4,0.2c0.1,0,0.1,0,0.2-0.1l0,0
				c0.1-0.1,0.1-0.1,0.1-0.1c0.1-0.1,0.2-0.2,0.4-0.3c0.2-0.1,0.5-0.2,0.7-0.2c0.2,0,0.5,0.1,0.7,0.2c0.1,0.1,0.2,0.2,0.4,0.3
				l0.1,0.1c0,0,0,0,0.1,0l0,0c0.1,0,0.1,0.1,0.2,0.1c0.2,0,0.3-0.1,0.4-0.2C227,206.8,227,206.5,226.8,206.4z"/>
		</g>
	</g>
	<path class="st8" d="M88.4,169.5c0-0.5,1.2-0.9,2.9-0.9c-0.2,0-0.4,0-0.6,0c-1.9,0-3.5,0.4-3.5,1c0,0.5,1.6,1,3.5,1
		c0.2,0,0.4,0,0.6,0C89.6,170.4,88.4,170,88.4,169.5z"/>
	<path class="st8" d="M92.7,169.5c0-0.4-0.9-0.7-2.2-0.7c0.2,0,0.3,0,0.5,0c1.5,0,2.7,0.3,2.7,0.7c0,0.4-1.2,0.7-2.7,0.7
		c-0.2,0-0.3,0-0.5,0C91.7,170.2,92.7,169.9,92.7,169.5z"/>
	<path class="st8" d="M123.9,169.5c0-0.5,1.2-0.9,2.9-0.9c-0.2,0-0.4,0-0.6,0c-1.9,0-3.5,0.4-3.5,1c0,0.5,1.6,1,3.5,1
		c0.2,0,0.4,0,0.6,0C125.2,170.4,123.9,170,123.9,169.5z"/>
	<path class="st8" d="M128.2,169.5c0-0.4-0.9-0.7-2.2-0.7c0.2,0,0.3,0,0.5,0c1.5,0,2.7,0.3,2.7,0.7c0,0.4-1.2,0.7-2.7,0.7
		c-0.2,0-0.3,0-0.5,0C127.2,170.2,128.2,169.9,128.2,169.5z"/>
	<path class="st8" d="M159.5,169.5c0-0.5,1.2-0.9,2.9-0.9c-0.2,0-0.4,0-0.6,0c-1.9,0-3.5,0.4-3.5,1c0,0.5,1.6,1,3.5,1
		c0.2,0,0.4,0,0.6,0C160.7,170.4,159.5,170,159.5,169.5z"/>
	<path class="st8" d="M163.7,169.5c0-0.4-0.9-0.7-2.2-0.7c0.2,0,0.3,0,0.5,0c1.5,0,2.7,0.3,2.7,0.7c0,0.4-1.2,0.7-2.7,0.7
		c-0.2,0-0.3,0-0.5,0C162.8,170.2,163.7,169.9,163.7,169.5z"/>
</g>
</svg>
