<?xml version="1.0" encoding="utf-8"?>
<!-- Generator: Adobe Illustrator 27.9.1, SVG Export Plug-In . SVG Version: 6.00 Build 0)  -->
<svg version="1.1" id="Layer_1" xmlns="http://www.w3.org/2000/svg" xmlns:xlink="http://www.w3.org/1999/xlink" x="0px" y="0px"
	 viewBox="0 0 300 300" style="enable-background:new 0 0 300 300;" xml:space="preserve">
<style type="text/css">
	.st0{fill:#FDFDFD;}
	.st1{fill:#232121;}
	.st2{fill:#B21F37;}
	.st3{fill:#FFFFFF;}
	.st4{opacity:0.49;fill:#B21F37;enable-background:new    ;}
	.st5{fill:#FECE43;}
	.st6{fill:#4B78A9;}
	.st7{fill:#215483;}
	.st8{fill:#ABB4CE;}
	.st9{fill:#DEE2F2;}
	.st10{fill:#FDCF23;}
	.st11{fill:#BD9158;}
	.st12{fill:#0C0B0A;}
	.st13{fill:#2F2F2E;}
	.st14{fill:#FCFCFB;}
	.st15{fill:#4F2F09;}
	.st16{fill:#A67A45;}
	.st17{fill:#D5D5D5;}
	.st18{fill:#3C3C3C;}
	.st19{fill:#666666;}
	.st20{fill:#C9A375;}
	.st21{fill:#623F19;}
	.st22{fill:#B21F36;}
	.st23{fill:#BC9720;}
	.st24{fill:#976A34;}
	.st25{fill:#8E192F;}
	.st26{fill:#D6D5D2;}
	.st27{fill:#8F2438;}
	.st28{fill:#B8CACD;}
	.st29{fill:#F26966;}
	.st30{fill:#999999;}
	.st31{opacity:0.38;fill:#FFFFFF;enable-background:new    ;}
	.st32{fill:#0D0F10;}
	.st33{fill:#4F5051;}
	.st34{fill:#65A042;}
	.st35{fill:#6B6C6C;}
	.st36{fill:#C3E2ED;}
	.st37{fill:#9FABB0;}
	.st38{fill:#170F09;}
	.st39{fill:#222221;}
	.st40{fill:#D89A53;}
	.st41{fill:#592A07;}
	.st42{fill:#B88346;}
	.st43{fill:#DBDADA;}
	.st44{fill:#383837;}
	.st45{fill:#804118;}
	.st46{fill:#646463;}
	.st47{fill:#E5AF73;}
	.st48{fill:#2D2D2C;}
	.st49{fill:#693309;}
	.st50{fill:#DB9D56;}
	.st51{fill:#613214;}
</style>
<rect class="st0" width="300" height="300"/>
<g>
	<g>
		<g>
			<path class="st38" d="M217.1,121.7c0.2,0.3,0.4,0.5,0.7,0.8c0,0.3,0.1,0.5,0.5,0.5c2.5,2.8,4.4,6,4.7,9.9
				c0.4,5.1-1.9,8.9-6.7,10.4c-1.9,0.6-3,1.7-4,3.3c-5.1,8.4-10.4,16.8-15.8,25c-0.8,1.2-1.5,2.4-2.3,3.6c-0.2,0.3-0.2,0.4,0,0.7
				c1,0.9,1.2,2.2,1.1,3.5c-0.1,1.8-0.8,3.4-1.7,4.8c-5.8,8.7-11.7,17.4-17.5,26.2c-6.3,9.4-12.6,18.8-18.9,28.2c-1.3,2-2.8,3.9-4,6
				c-1.5,2.5-3.8,3.8-6.6,4.3c-0.9,0.2-1.5,0.5-2,1.4c-4.9,7.8-9.9,15.6-14.8,23.4c-1.7,2.7-3.5,5.4-5.1,8.2
				c-0.8,1.5-2.3,2.5-3.8,3.3c-5.8,3.3-12.2,3.3-18.6,3.1c-9.4-0.3-18.3-3-27-6.2c-12.3-4.5-23.9-10.4-34.4-18.3
				c-5.6-4.2-10.6-8.9-14.7-14.6c-2.6-3.6-4.7-7.5-5-12.1c-0.1-2.6,0.8-4.9,1.5-7.3C26,219,29.5,208.5,33,197.9
				c0.1-0.3,0.1-0.5-0.1-0.8c-2.1-3.1-2-6.4-1-9.8c3.7-12.6,7.3-25.2,11.1-37.8c3.2-10.6,6.3-21.2,9.5-31.7c0.8-2.7,2.3-4.9,5.2-5.7
				c0.3-0.1,0.4-0.3,0.5-0.6c2.1-7.7,4.7-15.3,7-23c-2-0.2-4.1-0.3-6.1-0.5c-2.3-0.1-4.4-0.7-6.4-1.6c-2.4-1.1-3.3-3.2-3.3-5.7
				c0-2.7,0.1-5.4,0.2-8.1c0-0.5,0-1-0.1-1.5c-1.5-4.9,1.2-8.1,4.2-10.2c0.3-0.2,0.6-0.4,0.9-0.5c1.9-0.5,2.3-1.7,2.2-3.5
				c-0.2-2.1,0-4.3-0.1-6.5c-0.1-3.3,1.4-5.8,4.1-7.6c2.7-1.8,5.7-3.1,8.8-4.3c9.7-3.7,19.6-6.4,29.6-8.8
				c12.5-3.1,25.1-5.7,37.8-7.9c11.3-1.9,22.6-3.6,34-4.4c4.7-0.3,9.4-0.5,14.1,0.1c1.6,0.2,3.1,0.8,4.5,1.5
				c1.4,0.7,2.2,1.8,2.9,3.2c1.5,2.9,3.2,5.7,4.8,8.5c0.3,0.5,0.6,0.3,1,0.3c2.2,0.1,4.4,0.2,6.4,1.3c2.8,1.5,4.4,3.9,4.4,7.1
				c0,0.7,0.2,1.2,0.7,1.8c1.8,2.4,3.5,5,5,7.6c0.7,1.1,0.6,1.3,0.1,4.4c1.5-1.1,3-2.2,4.4-3.2c5.7-4.2,11.6-8.1,17.9-11.4
				c9.7-5.1,20-8.5,31.1-8.7c4.5-0.1,8.9,0.4,13,2.5c2.7,1.4,4.9,3.3,6.3,6c2.7,5.4,0.5,11.4-5.1,14.2c-4.3,2.1-8.9,2.8-13.6,3
				c-4.7,0.3-9.4,0.1-14.1,0.7c-5.2,0.6-10.1,2.2-14.1,5.8c-0.7,0.6-1.3,1.2-1.8,1.9c-0.8,1.3-0.5,2.4,0.8,3.2
				c1.1,0.7,2.3,1,3.6,1.1c3.2,0.3,6.4,0.3,9.5,0.8c3.6,0.6,7,1.8,10.1,3.9c2.1,1.4,3.8,3.2,5,5.4c3.9,6.7-0.7,15.2-8.4,15.9
				c-4.9,0.5-9.3-0.9-13.6-2.9c-4-1.9-7.9-4.1-12.2-5.3c-3.8-1.1-7.6-1.1-11.4,0.3c-0.6,0.2-1.2,0.5-1.7,1.1
				c0.7,0.3,1.3,0.6,1.9,0.9c1.3,0.7,2.2,1.7,2.2,3.2c0,1.7-0.7,3.1-2.3,3.9c-0.6,0.3-1.1,0.4-1.7,0.3c-4.9-1.1-9.3,0.3-13.4,2.9
				c-3.5,2.3-5.9,5.5-7.9,9.1c-0.3,0.6-0.2,0.8,0.4,1.1c4.9,2.5,9.4,5.8,13.6,9.3c0.6,0.5,1.1,1,1.6,1.5c0,0.4,0.2,0.6,0.6,0.6
				c0,0.6,0.4,0.8,0.9,0.9l0,0C216.6,121.5,216.8,121.7,217.1,121.7z M167.7,75.1c-1.7,0.4-3.4,0.8-5.3,1.2c0.4,0.2,0.8,0.3,0.9,0.5
				c0.9,1.1,1.6,0.6,2.4-0.1C166.3,76.1,167.2,75.9,167.7,75.1c0,0,0.1,0,0.1,0c0,0,0-0.1,0-0.1C167.8,75,167.7,75.1,167.7,75.1z
				 M76.6,88c-0.1,0-0.3,0-0.4,0c-1-0.1-2.1-0.1-3.2,0c0.2,0.3,0.4,0.4,0.5,0.6c3.5,3.4,7.3,6.4,11.3,9.2
				c9.8,6.8,20.1,12.6,30.8,17.8c2,1,4.1,2,6.1,2.9c2.1,1,4.2,2.1,6.5,2.8c0.4,0.2,0.8,0.4,1.2,0.6c9.8,4.1,19.9,7.8,30.1,10.9
				c4.6,1.4,9.3,2.8,14,3.8c1,0.2,2,0.5,2.9,0.7c8.5,2.1,17.1,3.6,25.9,4c3.6,0.1,7.1,0,10.6-0.8c3.6-0.8,5.3-2.5,5.9-5.8
				c0-0.3-0.1-0.6-0.1-0.9c0.3-1.6-0.2-3.1-0.9-4.5c-1.4-3.1-3.7-5.6-6.3-7.7c-4.4-3.7-9.1-7-14.3-9.7c-0.6,1.7-0.6,1.7,0.9,2.6
				c4,2.4,7.8,5.1,11.3,8.3c1.5,1.3,2.8,2.8,3.8,4.6c1.5,2.8,0.6,4.9-2.3,6c-3.8,1.3-7.7,1.3-11.5,1c-6.4-0.4-12.6-1.4-18.9-2.8
				c-10.1-2.2-20-5-29.7-8.4c-15.8-5.6-31.2-12-45.8-20.3c-7.5-4.3-14.9-8.6-21.1-14.6c-0.4-0.3-0.7-0.5-1.1-0.3
				c-1.5-0.1-2.9-0.1-4.4,0.1c-0.1,0-0.2,0-0.4,0c-0.2,0-0.4,0-0.6,0C77,87.9,76.8,88,76.6,88z M217.8,88.9
				c-0.9-1.1-0.7-2.2,0.1-3.3c1.1-1.6,2.7-2.5,4.6-3c5.4-1.5,10.6-0.8,15.7,1.3c3.4,1.3,6.5,3.1,9.8,4.5c3.2,1.4,6.5,2.6,10.1,2.5
				c2.4-0.1,4.7-0.6,6.2-2.7c2-2.8,1.8-5.7,0.2-8.6c-1-1.8-2.5-3-4.2-4.1c-3-1.8-6.3-2.8-9.7-3.2c-3.5-0.4-7-0.3-10.4-1.1
				c-0.4-0.2-0.8-0.4-1.2-0.6c-3.4-1.2-4.9-4.8-3.3-7.9c1.8-3.6,5.1-5.6,8.5-7.3c2.1-1,4.4-1.5,6.6-2.3c0.9-0.1,1.8-0.2,2.7-0.6
				c1.1-0.1,2.1-0.2,3.2-0.2c4.3-0.2,8.5,0,12.8-0.4c3.7-0.3,7.5-0.7,10.9-2.4c3.5-1.7,5.1-4.5,4.3-8.1c-0.6-2.6-2.3-4.3-4.6-5.6
				c-3.9-2.2-8.2-2.5-12.5-2.4c-9.6,0.2-18.6,3.2-27.1,7.4c-7.4,3.7-14.2,8.2-20.8,13.1c-2.4,1.8-4.9,3.5-7.8,4.5
				c-2,0.7-4,1.5-5.9,2.5c-2,1-4.1,1.6-5.5,3.6c-1.2,1.7-2.8,3.1-4.3,4.6c-2.3,2.3-4.9,4.3-8.3,4.7c-2.1,0.2-4.1-0.1-6.1-0.4
				c-1.4-0.2-2.8-0.1-4.2,0.3c-2.8,0.9-5.3,2.3-7.8,3.8c-5.4,3.4-9.3,8.3-12.6,13.7c-1.7,2.8-3.9,5.3-6.7,7.2
				c-4.8,3.3-10.2,4.9-16,5.2c-4.2,0.2-8.4-0.1-12.5-1.4c-2.4-0.8-4.7-1.7-6.9-3.1c-1.4-1.1-2.8-2.2-3.7-3.8c0.8-0.2,1.6-0.8,2.6,0
				c3,2.6,6.8,3.6,10.6,4.6c3.7,0.9,7.5,1,11.4,0.5c2.3-0.3,4.5-0.7,6.7-1.6c-0.8-0.4-1.6-0.7-2.3-0.9c-7.2-2.5-14.5-4.8-21.9-6.6
				c-4.3-1-8.6-1.8-12.9-2.8c-1.2-0.3-2.5-0.5-3.5-1.3c-0.2-0.2-0.5-0.1-0.8-0.1c-2.4,0.1-4.9,0.2-7.3,0.3c-2.4,0.1-4.7,0.3-7.3,0.4
				c0.3,0.2,0.3,0.3,0.4,0.4c3.6,3.1,7.5,5.8,11.6,8.2c5.2,3.2,10.4,6.2,15.8,8.9c5.2,2.6,10.6,5,16,7.2c5.1,2.1,10.2,4.4,15.5,6.3
				c5.7,2.1,11.5,4,17.3,5.8c3.8,1.1,7.6,2.2,11.4,3.2c3.7,0.9,7.4,1.6,11.1,2.4c3.4,0.7,6.9,1.1,10.4,1.4c0.4,0,0.8,0,1.4-0.1
				c-0.9-1.1-1.8-1.8-2.4-2.9c-3-5.4-3.5-11.1-1.5-16.9c2.3-6.6,6.1-12.3,12.2-16.2c2.6-1.7,5.4-2.7,8.5-3.1c1.9-0.2,3.9,0,5.8-0.1
				c0.4,0,0.9,0.1,1-0.5c0.1-0.5-0.2-0.9-0.7-1C219.6,90.2,218.7,89.6,217.8,88.9z M202.3,47.1c-2.1,0.8-3.9,2-6,2.9
				c-5,2.1-10.1,4.3-15.2,6.2c-4.5,1.4-8.9,2.9-13.4,4.3c-1,0.3-1.9,0.6-2.9,0.9c-0.1,0-0.2,0-0.3,0c-9,2.6-18.1,4.6-27.2,6.4
				c-6.1,1.2-12.2,2.2-18.3,3.1c-8.9,1.4-17.8,2.3-26.8,3c-6.5,0.5-13.1,0.7-19.6,0.7c-4.1,0-8.2-0.2-12.3-0.7
				c-2.1-0.2-4.2-0.7-6.2-1.3c-0.4-0.1-0.7-0.1-0.7,0.4c0,1.3,0,2.7,0,4c-0.2,1.4-0.1,2.7-0.1,4.1c0,1.1,0.6,1.8,1.7,2.2
				c2.2,0.7,4.4,1,6.7,1.3c4.6,0.6,9.1,0.7,13.7,0.8c6,0.1,12-0.2,18-0.7c8.6-0.7,17.1-1.6,25.6-2.9c2.5-0.4,5.1-0.6,7.6-1.3
				c0.4,0,0.8,0,1.2-0.1c4.2-0.7,8.5-1.4,12.7-2.2c5.9-1.1,11.8-2.4,17.7-3.8c2.7-0.7,5.4-1.3,8-2.2c1.9-0.2,3.6-0.9,5.4-1.4
				c4.5-1.2,8.9-2.6,13.2-4.2c3.6-1.3,7.2-2.6,10.8-4c4.3-1.6,8.3-3.6,12.2-6c1.5-0.9,3-1.9,4-3.4c0.2-0.4,0.4-0.7,0.2-1.2
				c-1.4-2.7-2.9-5.4-4.6-7.8c-0.4-0.5-0.6-0.5-1.1-0.2c-0.9,0.7-1.8,1.5-2.7,2.2C203.2,46.5,202.5,46.5,202.3,47.1z M58.7,116.2
				c-1.4,0.6-1.6,2-2,3.2c-2.5,8.5-5,17-7.6,25.4c-2.6,8.7-5.2,17.5-7.8,26.2c-1.9,6.3-3.6,12.6-5.6,18.9c-0.4,1.3-0.5,2.6,0,3.8
				c0.4,1.1,0.9,2.1,1.6,3c1.3,2,2.6,3.9,4.3,5.6c1.9,2,3.8,4.1,5.9,6c2.6,2.3,5.2,4.5,7.8,6.6c2.9,2.3,5.9,4.3,9,6.3
				c12.4,8,25.7,14,39.6,18.6c4,1.3,8.1,2.6,12.3,3.3c0.4,0.1,0.8,0.3,1.2,0.4c3.4,0.6,6.8,1.4,10.3,1.6c5.6,0.4,11.3,1,16.9-0.1
				c2.3-0.5,3.8-1.2,5.1-3.3c5.2-8,10.5-15.9,15.8-23.8c3.1-4.7,6.3-9.4,9.4-14.2c2.1-3.2,4.2-6.4,6.4-9.5c3.1-4.5,6.2-9.1,9.2-13.6
				c0.3-0.5,0.6-1.1,0.7-1.7c0-0.5,0-1.1-0.8-0.6c-1.5,0.9-3.1,1.6-4.9,1.6c-7.4,1-14.7,0.2-22-1c-2.3-0.4-4.5-0.9-6.8-1.3
				c-0.3-0.1-0.7-0.2-1-0.3c-8.2-1.8-16.3-4.3-24.2-7.2c-13.1-4.8-25.6-10.8-37.4-18.2c-9.2-5.7-17.8-12-25.6-19.5
				c-2.4-2.4-4.7-4.9-6.7-7.6C60,122.4,58.3,119.7,58.7,116.2c0.1,0,0.1,0,0.2-0.1c0,0,0,0-0.1-0.1
				C58.7,116.1,58.7,116.2,58.7,116.2z M84,234.6c0-0.1-0.1-0.3-0.2-0.3c-0.4-0.1-0.7-0.4-1.2-0.4c-0.8-0.5-1.6-1-2.5-1.4
				c-2.7-1.2-5.3-2.6-7.8-4c-10.5-6-20.5-12.6-29.1-21.3c-2.2-2.2-4.3-4.5-6.3-7c-0.2,0.7-0.5,1.3-0.7,1.9
				c-3.1,9.8-6.2,19.6-9.3,29.4c-0.5,1.6-1.2,3.3-1.2,5c0.1,2.6,1,4.8,2.3,7c3.3,5.7,8,10.2,13,14.3c8.9,7.3,18.8,12.8,29.5,17.2
				c3.5,1.4,7,2.9,10.6,3.9c0.1,0.1,0.2,0.2,0.4,0.2c7.5,2.4,15.2,4.1,23.1,4.4c4.1,0.2,8.2,0.1,12.1-1.3c1.9-0.7,3.6-1.6,4.8-3.5
				c2.4-3.9,4.9-7.7,7.3-11.5c3.7-5.8,7.3-11.6,11-17.4c0.4-0.6,1-1.4,0.9-1.8c-0.3-0.6-1.3-0.2-1.9-0.2c-4.8,0.1-9.6-0.4-14.4-0.9
				c-3.5-0.4-7-1.1-10.5-2c-8.7-2.3-17.2-5-25.5-8.5C86.9,235.6,85.6,234.7,84,234.6z M162.4,53.4c1.4-0.4,2.9-0.7,4.3-1.2
				c6.7-2.1,13.4-4.1,19.8-6.8c3.7-1.5,7.3-3,10.6-5.3c0.8-0.6,0.8-1.1,0.3-1.8c-2.3-3.9-4.6-7.7-6.7-11.7c-0.7-1.3-0.7-1.3-1.9-0.4
				c-1.7,1.4-3.7,2.3-5.7,3.2c-6.3,3-12.9,5.3-19.5,7.4c-1.4,0.5-2.9,1-4.3,1.5c-2.2,0.6-4.4,1.1-6.6,1.7
				c-10.8,2.9-21.7,5.1-32.7,7.1c-6,1.1-12.1,1.9-18.1,2.7c-6.8,0.8-13.6,1.5-20.4,1.7c-4.2,0.1-8.4,0.3-12.6,0
				c-2.5-0.2-4.9-0.4-7.3-1.3c-0.9-0.4-1.1-0.1-1.1,0.7c0,1.5,0,3-0.1,4.4c-0.1,3.1-0.2,6.1-0.4,9.2c0,0.6,0.1,0.9,0.6,1
				c1,0.3,1.9,0.7,3,0.7c3.6,0.1,7.1,0.3,10.7,0.3c6.2,0,12.5-0.3,18.7-0.8c9.1-0.8,18.1-1.9,27.1-3.4c9-1.5,18-3.2,26.9-5.3
				C152.3,56.2,157.4,54.9,162.4,53.4z M157.6,175.6c0.2,0.1,0.3,0.1,0.5,0.2c5.8,1.3,11.7,2.1,17.7,2.5c3.8,0.2,7.6,0.3,11.3-0.7
				c0.4-0.1,0.8-0.2,1-0.7c1.1-2,2.4-3.8,3.6-5.7c4.6-7.1,9.1-14.2,13.5-21.3c1.4-2.3,2.9-4.7,4.4-7.2c-0.4,0-0.5,0-0.7,0
				c-4.3,0.3-8.6,0-12.9-0.5c-10.4-1.2-20.7-3.5-30.8-6.3c-12.7-3.6-25.1-8-37.2-13.2c-11.8-5-23.4-10.7-34.3-17.4
				c-6.5-4.1-12.9-8.4-18.7-13.5c-1.2-1.1-2.4-2.2-3.5-3.4c-0.3-0.3-0.7-0.6-1.1-0.5c-0.4,0.1-0.4,0.5-0.5,0.9
				c-0.2,0.6-0.3,1.2-0.5,1.8c-0.4,1.3-0.9,2.5-1.3,3.8c-2.3,7.5-4.6,14.9-7,22.4c-0.4,1.1-0.3,2,0.2,3.1c1.1,2.3,2.5,4.4,4.2,6.4
				c5.4,6.2,11.6,11.4,18.2,16.3c9,6.6,18.6,12.2,28.5,17.1c9.6,4.8,19.6,8.8,29.9,12c4.4,1.4,8.9,2.7,13.4,3.6
				c0.2,0,0.4,0.1,0.6,0.1C156.6,175.4,157.1,175.5,157.6,175.6z M58.8,62.7c-1.8,0.6-3.5,1.7-4.4,2.9c-2.4,2.9-1.4,5.7,2.3,6.4
				c4.2,0.8,8.4,1.2,12.7,1.2c9.4,0.1,18.7-0.3,28.1-1.1c12.1-1,24.1-2.8,36-5c9.5-1.7,18.8-3.9,28.1-6.4c6.3-1.7,12.4-3.6,18.5-5.8
				c6.1-2.2,12.2-4.7,18.1-7.4c2.1-1,4.2-1.9,5.9-3.6c2.4-2.4,2.2-6.4-0.4-8c-1.9-1.1-4-1.4-6.3-1.3c0.4,0.8,0.7,1.5,1,2.1
				c1.4,2.3,1.4,2.6-0.6,4.3c-0.3,0.3-0.7,0.6-1.1,0.8c-3.7,2.3-7.7,4.1-11.7,5.8c-8.9,3.6-18.1,6.3-27.4,8.7
				c-11.6,3.1-23.4,5.5-35.3,7.4c-10.7,1.8-21.4,3.1-32.2,3.8c-3.8,0.2-7.6,0.5-11.4,0.5c-4.4,0-8.8,0-13.1-0.4
				c-1.9-0.2-3.7-0.4-5.5-1.2c-0.9-0.4-1.6-1-1.3-2.2C58.9,63.9,58.8,63.4,58.8,62.7z M65,49.9c3.3,0.5,6.3,0.5,9.3,0.5
				c12.4-0.1,24.7-1.3,36.9-3.2c11.6-1.8,23.1-4.1,34.5-6.8c12.4-3,24.6-6.8,36.3-11.9c2.1-0.9,4.1-1.9,5.9-3.4
				c1.9-1.5,1-2.4-0.6-3.1c-0.1-0.1-0.3-0.1-0.4-0.1c-3.3-1.1-6.6-1-10-1c-6.4,0.1-12.8,0.8-19.2,1.5c-9.7,1.2-19.3,2.9-28.9,4.6
				c-8.5,1.5-17,3.4-25.4,5.5c-10.8,2.6-21.6,5.4-32.1,9.3c-3,1.1-6,2.3-8.6,4.1c-0.6,0.4-1.2,0.9-1.5,1.6c-0.2,0.6-0.3,1,0.5,1.4
				C62.9,49.5,64.1,49.8,65,49.9z M103.4,86.5c0.2,0.2,0.2,0.3,0.3,0.3c0.3,0.1,0.6,0.1,0.9,0.2c8,1.2,16,2.7,23.7,5.2
				c5.6,1.8,11.3,3.3,16.6,5.8c0.2,0.1,0.5,0.2,0.7,0c1.6-0.7,3.1-1.7,4.4-2.8c-1.7-0.6-3.3-1.3-5-1.9c-8-2.7-16-5.4-24.2-7.1
				c-1.9-0.4-3.8-1.1-5.7-0.9c-1.6,0.1-3.2,0.3-4.7,0.5C108.1,86,105.8,86.3,103.4,86.5z M132.7,82.7c0,0.1,0,0.1,0,0.2
				c0.2,0,0.3,0.1,0.5,0.1c6.9,1.6,13.6,3.9,20.3,6.4c0.6,0.2,0.9,0.2,1.3-0.4c1.6-2.4,3.1-4.8,5-7c-1.8-1-3.5-2.1-4.9-3.7
				c-0.2-0.3-0.5-0.1-0.7,0c-4.7,1.1-9.3,2.2-14.1,3C137.6,81.8,135.2,82.3,132.7,82.7z M196.3,115c-0.1,1.5-0.2,2.8-0.3,4
				c-0.1,0.7,0.2,1.1,0.7,1.5c2.8,1.9,5.6,3.9,8.1,6.1c1.4,1.3,2.7,2.7,3.4,4.4c0.5,1.2,0.5,1.3,1.7,0.7c0.4-0.2,0.8-0.4,1.1-0.6
				c1.1-0.8,1.3-1.5,0.8-2.7c-0.3-0.8-0.8-1.5-1.3-2.2c-2.8-3.5-6.6-6-10.2-8.6C199.1,116.7,197.7,115.9,196.3,115z M119.6,84.6
				c2,0.4,3.8,0.8,5.6,1.2c8.4,2,16.6,4.8,24.7,7.8c1.5,0.6,1.5,0.6,2.4-0.8c-0.4-0.2-0.8-0.4-1.2-0.5c-7.4-2.7-14.8-5.1-22.4-7.1
				c-1.4-0.4-2.9-0.8-4.3-1.1C122.9,83.8,121.3,84.1,119.6,84.6z M202.8,132.2c1.1,0,2.2,0,3.3,0c0.7,0,0.9-0.4,0.6-1.1
				c-0.5-1-1.2-1.9-1.9-2.6c-2.3-2.3-4.8-4.3-7.6-6c-0.2-0.1-0.4-0.4-0.7-0.2c-0.3,0.2-0.1,0.5,0,0.7c0.3,1.3,0.6,2.6,1.3,3.8
				c0.8,1.6,2.2,2.7,3.1,4.2C201.2,131.7,201.9,132.1,202.8,132.2z M183.4,70.3c4.5,0.7,8.3-0.2,11-4.1
				C190.9,67.9,187.1,69,183.4,70.3z M160.7,77.3c-0.4-0.1-2,0.3-2,0.6c0,0.6,0.6,0.8,0.9,1.2c0.2,0.2,0.5,0.4,0.8,0.6
				c0.9,0.7,1.3,0.6,2.1-0.5c0.5-0.8-0.4-0.9-0.8-1.3C161.5,77.6,161.1,77.5,160.7,77.3z"/>
			<path class="st38" d="M270,18c-0.3,2-1.5,3.3-3.2,4.3c-2.9,1.6-6.2,2.2-9.5,2.5c-4.8,0.4-9.4,1.2-13.7,3.3
				c-0.7,0.3-1.4,0.6-2,1.2c-0.6,0.6-1.2,0.6-1.8,0.2c-0.7-0.5-0.4-1.2-0.1-1.7c1.8-4.1,4.2-7.7,7.6-10.6c3.9-3.3,8.2-5.5,13.4-5.9
				c2.6-0.2,5,0.2,7.2,1.7C269.5,14.1,270.2,15.8,270,18z M244.2,23.5c-0.4,0.2-0.6,0.7-0.8,1.1c-0.2,0.3-0.7,0.6-0.4,1
				c0.3,0.3,0.7-0.1,1.1-0.2c4.5-1.7,9.2-2.5,13.9-3c2.8-0.3,5.6-0.9,7.9-2.7c1.6-1.2,1.9-3,0.9-4.3c-0.4-0.7-1.1-1-1.7-1.3
				c-2.4-1-4.8-0.8-7.3-0.2c-3.1,0.8-5.8,2.2-8.3,4.1C247.5,19.6,245.5,21.2,244.2,23.5z"/>
			<path class="st38" d="M90.9,292.3c-5.7-0.9-14.2-3.3-22.2-7.3c-0.3-0.1-0.6-0.3-0.8-0.5c-0.4-0.3-0.8-0.7-0.5-1.2
				c0.3-0.5,0.8-0.6,1.4-0.3c1.4,0.8,2.8,1.4,4.3,2c4.7,1.9,9.6,3.3,14.6,4.4c7.6,1.8,15.3,2.6,23.1,2.3c6.7-0.3,13.2-1.6,19.1-5
				c1.2-0.7,2.3-1.5,3.4-2.3c0.3-0.2,0.6-0.5,1-0.5c0.4-0.1,0.8,0.1,1,0.5c0.2,0.4,0.1,0.7-0.2,0.9c-0.5,0.4-0.9,0.9-1.4,1.3
				c-6,4.5-12.9,6.4-20.2,7.1C106.9,294.3,100.4,293.7,90.9,292.3z"/>
			<path class="st38" d="M77,296.7c-7.9-1.2-15.5-3.4-22.9-6.3c-9.6-3.7-18.8-8.3-27.2-14.2c-1.1-0.8-2.1-1.7-3.1-2.6
				c-0.3-0.3-0.8-0.6-0.4-1.1c0.5-0.5,0.9-0.2,1.3,0.1c3.3,2.6,6.8,4.8,10.5,6.8c7.6,4.1,15.5,7.8,23.7,10.6
				c7.8,2.7,15.7,5,23.9,6.3c0.6,0.1,1.2,0.1,1.8,0.3c0.3,0.1,0.8-0.1,0.8,0.4c0,0.5-0.5,0.5-0.9,0.5c-1.2,0-2.3,0-3.5-0.1
				C79.7,297.2,78.3,296.9,77,296.7z"/>
			<path class="st38" d="M281.3,62.9c2.7,0.5,5.5,1.4,7.5,3.7c1.8,2,2.3,4.7,1.1,6.9c-1.2,2.1-3.9,3.1-6.5,2.5
				c-3.1-0.7-5.3-2.8-7.4-5c-1.5-1.6-3.2-2.9-5.2-3.8c-0.4-0.2-0.8-0.3-1.2-0.4c-0.8-0.1-1.2-0.6-1.3-1.3c-0.1-0.8,0.4-1.2,1-1.4
				C273.3,62.8,277.2,62.3,281.3,62.9z M275.9,65c-1.1-0.1-2.2,0.1-3.4,0.7c1.2,0.8,2.3,1.5,3.3,2.3c1.2,1,2.3,2.2,3.5,3.2
				c1.3,1.1,2.6,2.3,4.4,2.6c0.3,0,0.6,0.1,0.8,0.1c0.3,0,0.6,0.2,0.9-0.1c1.3-0.1,2.1-0.8,2.4-1.8c0.5-1.7-0.2-3.6-1.6-4.7
				C283.2,64.9,279.6,64.8,275.9,65z"/>
			<path class="st38" d="M216.3,37.2c0.4-3.4,1.3-6.7,3.9-9.1c0.9-0.8,1.9-1.5,3-1.9c1.9-0.7,3.9-0.2,5.1,1.3c1.1,1.4,1.1,3.7,0,5.3
				c-0.6,0.9-1.4,1.6-2.3,2.1c-1.4,0.9-2.9,1.8-4.3,2.7c-1.2,0.7-2.2,1.5-3.1,2.5c-0.5,0.6-1.1,1-1.9,0.6c-0.8-0.4-0.8-1.1-0.6-1.8
				C216.1,38.2,216.2,37.7,216.3,37.2z M225.5,28.2c-1.1-0.2-2.1,0.1-2.9,0.7c-2.3,1.7-3.5,4.2-4.1,7c-0.1,0.3-0.1,0.6,0.3,0.7
				c1.8-0.7,3.3-2,5-2.9c1.3-0.7,2.4-1.5,2.9-3C227,29.5,226.7,28.7,225.5,28.2z"/>
			<path class="st38" d="M231.4,93.6c1.9,0.3,3.8,0.8,5.3,2.2c1.5,1.3,2.3,2.9,2,4.9c-0.2,1.6-1.1,2.8-2.6,3.3
				c-1.7,0.6-3.3,0.3-4.7-0.8c-0.8-0.6-1.4-1.5-1.9-2.4c-1-1.8-1.9-3.6-3.1-5.2c-0.3-0.5-0.6-1-0.2-1.6c0.4-0.6,0.9-0.8,1.6-0.7
				C229.1,93.4,230.2,93.5,231.4,93.6z M235.9,98.6c-0.4-1.2-1.3-2-2.5-2.3c-1.2-0.5-2.4-0.6-3.6-0.8c-0.3,0-0.6-0.2-0.8,0.1
				c-0.2,0.3,0.1,0.5,0.3,0.7c0.8,1.1,1.7,2.3,2.3,3.6c0.3,0.6,0.7,1.2,1.3,1.7c1,0.8,2.1,0.7,3-0.2
				C236.7,100.7,236.7,99.6,235.9,98.6z"/>
			<path class="st38" d="M15.7,231.4c-1.1,3.3-1.5,6.4-1.1,9.6c0.7,5.1,3.1,9.4,6.3,13.4c0.4,0.4,0.7,0.9,1,1.4
				c0.3,0.4,0.2,0.8-0.2,1.1c-0.4,0.4-0.8,0.2-1.1-0.1c-2.5-2.3-4.5-5.1-6-8.2c-1.7-3.4-2.6-7-2.5-10.7c0.1-2.3,0.5-4.6,1.5-6.7
				c0.3-0.5,0.7-1,1.4-0.7C15.6,230.7,15.8,231.1,15.7,231.4z"/>
			<path class="st38" d="M4.2,237.4c0.6,0.2,0.9,0.6,0.8,1.2c-0.4,4.3,1,8.2,3.2,11.9c0.3,0.4,0.5,0.9,0.7,1.4
				c0.1,0.3,0,0.6-0.2,0.8c-0.3,0.3-0.6,0.1-0.8-0.1c-0.1-0.1-0.3-0.2-0.4-0.4c-3.2-4-5.2-8.4-4.4-13.7
				C3.1,237.8,3.3,237.3,4.2,237.4z"/>
			<path class="st39" d="M216.6,121.2c-0.5-0.1-0.9-0.3-0.9-0.9C216.1,120.6,216.4,120.8,216.6,121.2z"/>
			<path class="st39" d="M215.7,120.4c-0.4,0-0.6-0.2-0.6-0.6C215.4,120,215.6,120.2,215.7,120.4z"/>
			<path class="st39" d="M217.1,121.7c-0.3,0-0.5-0.1-0.4-0.5C216.8,121.3,217,121.5,217.1,121.7z"/>
			<path class="st39" d="M218.2,122.9c-0.3,0-0.5-0.1-0.5-0.5C217.9,122.5,218.1,122.7,218.2,122.9z"/>
			<path class="st40" d="M156.9,177.7c2.3,0.4,4.5,0.9,6.8,1.3c7.3,1.2,14.6,2,22,1c0.4,0.6,0.2,0.9-0.4,1.1
				c-1.2,0.5-2.5,0.8-3.9,1.1c-4.6,0.8-9.2,0.5-13.8,0c-3.3-0.4-6.7-0.8-10-1.3c-0.8-0.1-1.3,0.1-1.7,0.8c-1.5,2.4-3,4.8-4.6,7.3
				c-2.9,4.7-5.9,9.4-8.8,14.1c-2.8,4.5-5.6,9-8.4,13.5c-2.8,4.4-5.5,9-8.4,13.4c-2.4,3.7-4.9,7.3-7.7,10.8
				c-0.6,0.8-1.7,1.3-1.8,2.4c-4.2-0.7-8.3-1.9-12.3-3.3c-14-4.6-27.3-10.6-39.6-18.6c-3.1-2-6.1-4-9-6.3c-2.7-2.1-5.3-4.3-7.8-6.6
				c-2.1-1.9-4-4-5.9-6c-1.6-1.7-3-3.6-4.3-5.6c1.1,0.1,1.3-0.2,1.7-1.9c0.6,0.2,0.9-0.2,1.3-0.5c0.9-0.7,1.6-0.5,1.9,0.6
				c0.3,1,1.4,1.6,1.5,2.8c0,0.3,0.5,0.3,0.7,0.3c0.2,0.1,0.5,0.1,0.7,0.2c0.8,0.8,1.5,1.1,2.2,0c0.2-0.3,0.5-0.2,0.8-0.1
				c0.4,0.2,0,0.5-0.1,0.7c-0.2,0.3-0.4,0.6-0.1,1c0.3,0.3,0.3,0.6,0,0.9c-0.3,0.3-0.2,0.7,0,1c0.2,0.2,0.2,0.4,0,0.7
				c-0.5,0.9,0,1.6,0.6,2c1.2,0.6,2.3,1.3,3.7,1.6c0.5,0.1,0.8,0.3,0.6,0.8c-0.2,0.7,0.2,1.1,0.7,1.4c0.5,0.4,1.1,0.7,1.3,1.4
				c0.7,2.1,2.9,1.9,4.3,3c0,0,0.2,0,0.2,0c0.7-0.6,1.7-0.5,2.5-1.1c0.4-0.3,1.2-0.8,1.5,0c0.3,0.7,0.8,0.8,1.4,0.7
				c0.4-0.1,0.7,0,0.6,0.5c-0.1,0.5-0.1,1,0.6,1.1c0.2,0,0.3,0.2,0.2,0.4c-0.2,0.9,0.3,1.2,1,1.3c0.7,0.1,1.4,0.4,1.9-0.2
				c0.4-0.4,0.7-0.5,1.2-0.6c1-0.1,0.9-0.6,0.7-1.3c-0.1-0.3-0.5-0.3-0.3-0.7c0.5-0.1,0.7,0.5,1.1,0.5c0.3,0,0.6,0.1,0.8-0.2
				c0.2-0.2,0.2-0.5,0.1-0.7c-0.2-0.4-0.5-0.3-0.7-0.2c-0.4,0.2-0.6,0-0.7-0.4c-0.1-0.3-0.3-0.5-0.6-0.5c-0.3-0.1-0.8-0.1-0.7-0.6
				c0.1-0.3,0.6-0.1,0.9,0c0.2,0,0.3,0.1,0.5,0.2c1.3,0.7,1.5,0.6,1.9-0.8c0.4-1.4,1-2.7-0.5-3.7c-0.1-0.1-0.1-0.2-0.2-0.4
				c-0.2-1.2-1.1-2.2-1.5-3.4c-0.4-1.3-1.2-2.5-1.5-3.9c-0.1-0.3-0.2-0.6-0.4-0.8c-0.9-0.9-1.5-1.9-2.2-2.9c-0.6-0.9-0.5-1.6,0-2.4
				c0.9-1.5,2-2.8,3.1-4.1c0.7-0.8,1.4-1.4,2.5-1.3c1.3,0.1,1.8-1.3,2.9-1.6c0,0,0.1-0.1,0.1-0.2c0.8-1.8,1.4-3.7,2.4-5.3
				c0.5-0.8,0.4-1.8,1.1-2.4c0.5-0.5,0.8-0.9,0.9-1.7c0-0.6,0.6-1.2,0.2-1.9c0,0,0.1-0.2,0.2-0.3c0.5-0.4,0.6-0.8,0.5-1.4
				c-0.1-0.5-0.1-1.2,0.8-0.8c0.3,0.1,0.5-0.2,0.6-0.5c0.1-0.5,0.4-0.7,0.8-1c0.7-0.5,1.8-0.5,2.1-1.6c0,0,0.1-0.1,0.2-0.1
				c0.9-0.1,1.6-0.6,2.6-0.6c0.6,0,1.5,0,1.6-0.8c0.1-0.8,0.5-1,1.2-0.8c0.3,0.1,0.6-0.1,0.9-0.3c1.5-0.9,3.1-0.4,4.6-0.2
				c1.2,0.1,2-0.1,1.8-1.4c-0.3-1.5,0.3-2.3,1.4-3.1c0.6-0.4,0.6-0.9,0.1-1.4c-1-1.1-2.3-2-3.7-2c-2,0-4-0.5-6-0.7
				c-2.4-0.3-4.1-1.7-6-2.9c-0.8-0.5-0.7-1.4,0.1-1.7c1.1-0.4,0.8-0.9,0.3-1.5c-0.7-1-1.8-1.4-3-1.6c-1.4-0.3-2.7-0.8-3.5-2
				c-0.4-0.7-0.8-1.4-1.2-2.1c-0.2-0.3-0.5-0.6-0.5-1c2.8,1.9,5.6,3.8,8.3,5.7c3.8,2.6,7.8,4.9,11.9,7.1c9,4.8,18.2,9.4,27.8,12.9
				c3.3,1.2,6.6,2.6,9.9,3.7c3.8,1.3,7.5,2.5,11.4,3.6c3.3,0.9,6.7,1.8,10.1,2.4c0.8,0.1,1.1-0.2,1.3-0.8
				C156.8,178.4,156.8,178,156.9,177.7z M92.1,182.2L92.1,182.2L92.1,182.2c-0.3-0.1-0.5,0-0.5,0.4c-0.2,0.2-0.5,0.3-0.7,0.5
				c-0.5-0.1-0.7,0.1-0.8,0.6c-0.9,0.4-1.4,1.2-2,1.8c-2.2,2-3.7,4.4-4.5,7.2c-0.6,2.1-0.6,4.3,0.3,6.3c0.4,1,1.1,1.3,1.8,0.8
				c0.9-0.6,2-0.9,3.1-1.2c2.3-0.6,4.6-1,6.8-1.8c3.3-1.2,6.1-3.1,8.8-5.2c3.1-2.4,6.5-3.6,10.4-3.8c1.9-0.1,3.9-0.2,5.8-0.5
				c0.5-0.1,0.9-0.2,1.2-0.5c0.5-0.6,0.9-0.7,1.3,0.1c0.1,0.2,0.3,0.3,0.4,0.5c0.4,0.3,0.9,0.3,1.2,0c0.4-0.3,0-0.7-0.2-0.9
				c-1.2-1.8-2.7-3.5-4.6-4.7c-5.3-3.4-11.1-3.9-17.1-3.2c-3,0.4-5.8,1-8.5,2.5c-0.3-0.1-0.5,0-0.5,0.3c-0.5,0.2-0.9,0.5-1.4,0.7
				C92.3,181.9,92.2,181.9,92.1,182.2z M99.2,210.4c6.2,0.7,12.8-0.7,18.8-4.8c3.3-2.2,5.9-5,7.3-8.7c0.9-2.3,1.2-4.7,0.3-7.1
				c-0.3-0.8-0.8-1.2-1.7-1c-0.6,0.1-1.2,0.2-1.8,0.2c-4.2,0.1-8.2,1.1-11.7,3.7c-1,0.7-2,1.4-2.9,2.1c-3.6,2.8-7.6,4.2-12.2,4.3
				c-1.4,0-2.8,0.3-4.2,0.5c-1.1,0.2-2.2,0.6-3,1.4c-1.8,1.7-1.8,2.8-0.2,4.5c0.5,0.5,1.1,1,1.7,1.5
				C92.2,208.8,95.2,209.7,99.2,210.4z M73.9,211.3c-0.1,0-0.1-0.1-0.2-0.1c0,0-0.1,0.1-0.1,0.2c0.1,0,0.1,0.1,0.2,0.1
				C73.9,211.4,73.9,211.3,73.9,211.3z"/>
			<path class="st0" d="M155.5,175.2c-4.5-1-9-2.3-13.4-3.6c-10.3-3.2-20.3-7.2-29.9-12c-10-4.9-19.6-10.5-28.5-17.1
				c-6.6-4.9-12.9-10.1-18.2-16.3c-1.7-1.9-3.1-4-4.2-6.4c-0.5-1-0.5-1.9-0.2-3.1c2.4-7.4,4.7-14.9,7-22.4c0.4-1.3,0.8-2.6,1.3-3.8
				c1.2,0.5,2.1,1.4,3,2.3c5.7,5.2,11.7,10,18.2,14.1c5.9,3.7,11.9,7.2,18,10.5c9.4,5,19,9.7,29,13.6c3.3,1.3,6.5,2.6,9.9,3.8
				c3.4,1.2,6.8,2.3,10.2,3.3c2.8,0.8,5.5,1.6,8.3,2.3c2,0.5,4.1,1,6.1,1.8c0.6,0.2,0.7,0.4,0.5,1c-0.5,1-0.8,2-1.3,3
				c-1.9,3.6-3.9,7.2-5.8,10.8c-2.2,4.2-4.5,8.3-6.8,12.4C157.6,171.4,156.3,173.1,155.5,175.2z"/>
			<path class="st0" d="M81.3,278.7c-3.7-0.9-7.1-2.4-10.6-3.9c-10.6-4.4-20.5-9.9-29.5-17.2c-5-4.1-9.7-8.6-13-14.3
				c-1.3-2.2-2.2-4.4-2.3-7c-0.1-1.8,0.6-3.4,1.2-5c3.1-9.8,6.2-19.6,9.3-29.4c0.2-0.6,0.4-1.2,0.7-1.9c2,2.5,4.1,4.8,6.3,7
				c8.6,8.6,18.6,15.3,29.1,21.3c2.5,1.4,5.2,2.8,7.8,4c0.8,0.4,1.6,0.9,2.5,1.4c-0.1,0.3-0.6,0.1-0.6,0.5c1.2,0.7,2.5,1.5,3.7,2.1
				c4.3,2.2,8.8,4.1,13.4,5.7c3.7,1.3,7.3,2.8,11.1,3.7c0.7,0.2,0.6,0.6,0.3,1c-0.5,1-1.1,2-1.7,3c-4.2,7.4-8.2,15-12.5,22.4
				c-2.3,3.9-5.4,6.2-10.1,6.1C84.6,278.4,82.9,278,81.3,278.7z"/>
			<path class="st41" d="M220.5,90.9c0.5,0.2,0.8,0.5,0.7,1c-0.1,0.6-0.6,0.4-1,0.5c-1.9,0-3.9-0.2-5.8,0.1
				c-3.1,0.4-5.9,1.4-8.5,3.1c-6.1,3.9-9.9,9.6-12.2,16.2c-2,5.8-1.5,11.5,1.5,16.9c0.6,1.1,1.5,1.8,2.4,2.9c-0.5,0-0.9,0.1-1.4,0.1
				c-3.5-0.4-7-0.7-10.4-1.4c-3.7-0.7-7.4-1.5-11.1-2.4c-3.8-0.9-7.6-2-11.4-3.2c-5.8-1.8-11.6-3.7-17.3-5.8
				c-5.2-1.9-10.3-4.2-15.5-6.3c-5.4-2.2-10.8-4.6-16-7.2c-5.4-2.7-10.6-5.7-15.8-8.9c-4-2.5-7.9-5.1-11.6-8.2
				c-0.1-0.1-0.2-0.2-0.4-0.4c2.5-0.2,4.9-0.3,7.3-0.4c2.4-0.1,4.9-0.2,7.3-0.3c0.3,0,0.6,0,0.8,0.1c1,0.8,2.3,1,3.5,1.3
				c4.3,1.1,8.6,1.8,12.9,2.8c7.4,1.8,14.7,4.1,21.9,6.6c0.8,0.3,1.5,0.5,2.3,0.9c-2.2,0.9-4.4,1.3-6.7,1.6
				c-3.8,0.5-7.6,0.4-11.4-0.5c-3.8-0.9-7.5-2-10.6-4.6c-1-0.8-1.7-0.2-2.6,0c-1.3-1.2-2.9-1.9-4.6-2.2c-1.6-0.3-3.1-1.2-4.9-0.7
				c-0.3,0.1-0.8,0-0.8,0.5c0,0.4,0.4,0.5,0.7,0.7c1.3,0.6,2.8,0.9,3.9,1.8c3.3,2.4,6.6,4.9,10,7.3c0.9,0.7,1.9,1.2,3,1.5
				c2.8,0.8,5.7,1.1,8.5,2c2.9,0.9,5.9,1.2,9,1.6c2,0.3,4,0.3,6,0.4c2.9,0.1,5.7-0.3,8.5-0.7c3.9-0.5,7.9-0.5,11.9-1.2
				c0.7-0.1,1.4-0.2,1.9-0.8c-0.4-0.2-1.3,0.1-0.7-0.8c0.8-1.2,1.5-2.5,2.7-3.2c1.6-1.1,2.1-2.8,3-4.3c0.8-1.3,1.8-2.7,1.9-4.4
				c0-0.1,0.2-0.2,0.2-0.4c0.5-1.2,1.3-2.4,1.3-3.7c0-1.7,0.7-2.8,2-3.6c1.9-1.1,3.7-2.2,5.2-3.9c0.6-0.7,1.6-1.1,1.7-2.2
				c1-0.5,2-1.1,3-1.6c0.3-0.1,0.7-0.2,1-0.1c1.4,0.3,2.7,0,4-0.3c1.8-0.4,3.3-1.1,4.6-2.5c1.7-1.8,2.9-3.9,4.4-5.8
				c1.1-1.4,2.1-2.9,3.5-4c3.2-2.4,7.3-2.6,10.9-4.2c1.8,0.2,3.4-0.2,5-0.9c2.2-1,4.5-1.9,6.9-2.1c2-0.1,2.4,0.2,2.7,1.9
				c0.1,0.4,0,0.8-0.1,1.2c0,0.3-0.3,0.7,0.1,0.9c0.4,0.3,0.6-0.1,0.9-0.3c0.3-0.2,0.5-0.3,0.8-0.6c1.8-1.7,3.9-3,5.8-4.4
				c1.7-1.3,3.4-2.6,5.4-3.5c2.1-1,4.5-1.4,6.8-2c0.6-0.2,1,0.1,1.4,0.4c0.4,0.3,0.9,0.5,1.5,0.5c0.7-0.1,1,0.2,0.4,0.8
				c-0.3,0.3-0.4,0.7-0.1,1.1c-2.2,0.7-4.5,1.3-6.6,2.3c-3.5,1.7-6.7,3.7-8.5,7.3c-1.6,3.1,0,6.8,3.3,7.9c0.4,0.1,0.8,0.4,1.2,0.6
				c-0.1,0.6-0.2,1.2-0.8,1.4c-1,0.4-2,1.2-3.3,0.6c-0.2-0.1-0.5,0-0.7,0.1c-0.8,0.3-1.6,0.5-2.3,1.1c-0.4,0.3-0.8,0.3-1.4,0.1
				c-0.9-0.2-1.7-0.7-2.6-0.7c-1.4,0.1-2.7,0.5-4.1,0.7c-0.3,0-0.6,0.1-0.7,0.4c-0.1,0.7-0.7,0.8-1.2,1c-2.6,0.9-5.2,1.7-7.6,3.1
				c-1,0.6-1.7,1.5-1.9,2.7c-0.2,1,0.5,1.7,1.5,1.6c0.5,0,0.8,0.1,1.2,0.3c-0.6,0.9-1.4,1.7-1.8,2.7c-0.7,1.6,0.1,3.6,1.8,4.2
				C218.1,91.9,219,91.9,220.5,90.9z M181.1,126.2c0.7,0,1.5,0,2.2-0.1c1.7-0.3,3.3-2.2,2.8-3.9c-0.9-2.9-1.5-5.8-0.5-8.9
				c0.7-2.3,1.3-4.6,2.4-6.7c2.1-3.9,4.6-7.4,7.5-10.7c0.4-0.5,1.2-1.1,0.5-1.7c-0.6-0.5-1.1,0.4-1.5,0.9c-0.4,0.7-1,0.9-1.7,0.5
				c-0.4-0.2-0.7-0.1-1.1,0.1c-1.3,0.5-2,1.8-2.9,2.7c-3.8,3.6-7.2,7.6-9.3,12.4c-0.5,1.1-1.2,2.2-2.2,3.1c-1.4,1.4-3.1,2.6-4.7,3.8
				c-0.5,0.4-0.9,0.8-1,1.4c-0.1,0.4-0.3,0.9,0.3,1.1c0.6,0.2,0.4-0.4,0.5-0.7c0.1-0.2,0.2-0.5,0.5-0.4c0.3,0.1,0.2,0.3,0.2,0.5
				c0,1.1,0.4,2.1,1.2,2.7C176.2,124.1,178.5,125.3,181.1,126.2z M169.9,101.6c-1.5,0.7-2.7,1.9-3.9,3
				C167.6,104,168.7,102.8,169.9,101.6z"/>
			<path class="st42" d="M116.4,243.1c0.1-1.2,1.2-1.6,1.8-2.4c2.7-3.5,5.2-7.1,7.7-10.8c2.9-4.4,5.6-8.9,8.4-13.4
				c2.8-4.5,5.6-9,8.4-13.5c2.9-4.7,5.9-9.4,8.8-14.1c1.5-2.4,3.1-4.8,4.6-7.3c0.4-0.7,0.9-0.9,1.7-0.8c3.3,0.5,6.7,0.9,10,1.3
				c4.6,0.5,9.2,0.8,13.8,0c1.3-0.2,2.6-0.5,3.9-1.1c0.6-0.2,0.8-0.6,0.4-1.1c1.8,0,3.4-0.7,4.9-1.6c0.8-0.5,0.9,0,0.8,0.6
				c0,0.6-0.3,1.2-0.7,1.7c-3,4.6-6.1,9.1-9.2,13.6c-2.1,3.2-4.3,6.3-6.4,9.5c-3.1,4.7-6.3,9.5-9.4,14.2
				c-5.3,7.9-10.6,15.8-15.8,23.8c-1.3,2-2.9,2.8-5.1,3.3c-5.7,1.1-11.3,0.4-16.9,0.1c-3.5-0.2-6.9-1-10.3-1.6
				C117.2,243.4,116.8,243.2,116.4,243.1z"/>
			<path class="st43" d="M155.5,175.2c0.8-2,2.1-3.8,3.1-5.6c2.4-4.1,4.6-8.3,6.8-12.4c1.9-3.6,3.9-7.2,5.8-10.8c0.5-1,0.9-2,1.3-3
				c0.3-0.6,0.1-0.8-0.5-1c-2-0.7-4-1.2-6.1-1.8c-2.8-0.8-5.6-1.5-8.3-2.3c-3.4-1-6.9-2.1-10.2-3.3c-3.3-1.2-6.6-2.5-9.9-3.8
				c-10-3.8-19.6-8.5-29-13.6c-6.1-3.3-12.1-6.8-18-10.5c-6.5-4.2-12.5-8.9-18.2-14.1c-0.9-0.9-1.8-1.8-3-2.3
				c0.2-0.6,0.3-1.2,0.5-1.8c0.1-0.3,0.1-0.8,0.5-0.9c0.4-0.1,0.8,0.2,1.1,0.5c1.1,1.2,2.3,2.3,3.5,3.4c5.8,5.1,12.2,9.4,18.7,13.5
				c10.9,6.8,22.5,12.4,34.3,17.4c12.1,5.2,24.5,9.6,37.2,13.2c10.1,2.8,20.3,5.1,30.8,6.3c4.3,0.5,8.6,0.7,12.9,0.5
				c0.2,0,0.3,0,0.7,0c-1.5,2.5-3,4.8-4.4,7.2c-4.4,7.2-8.9,14.3-13.5,21.3c-1.2,1.9-2.5,3.7-3.6,5.7c-0.2,0.4-0.6,0.5-1,0.7
				c-3.7,1-7.5,1-11.3,0.7c-5.9-0.4-11.8-1.2-17.7-2.5c-0.2,0-0.3-0.1-0.5-0.2c-0.4-0.7-0.9-0.6-1.5-0.3
				C155.9,175.3,155.7,175.2,155.5,175.2z"/>
			<path class="st44" d="M162.4,53.4c-5.1,1.5-10.2,2.8-15.3,3.9c-8.9,2-17.9,3.8-26.9,5.3c-9,1.5-18,2.6-27.1,3.4
				c-6.2,0.5-12.4,0.8-18.7,0.8c-3.6,0-7.1-0.2-10.7-0.3c-1,0-2-0.5-3-0.7c-0.5-0.1-0.6-0.5-0.6-1c0.2-3.1,0.3-6.1,0.4-9.2
				c0-1.5,0-3,0.1-4.4c0-0.8,0.2-1,1.1-0.7c2.3,0.9,4.8,1.1,7.3,1.3c4.2,0.3,8.4,0.1,12.6,0c6.8-0.2,13.6-0.9,20.4-1.7
				c6.1-0.8,12.1-1.6,18.1-2.7c11-2,21.9-4.2,32.7-7.1c2.2-0.6,4.4-1.2,6.6-1.7c0.2,0.2,0.3,0.4,0.4,0.6c0.5,2.7,1.4,5.2,2.4,7.8
				c0.6,1.6,1.2,3.1,1,4.9C163.1,52.3,162.4,52.7,162.4,53.4z"/>
			<path class="st43" d="M81.3,278.7c1.6-0.7,3.3-0.3,5-0.3c4.7,0.1,7.8-2.2,10.1-6.1c4.3-7.4,8.3-14.9,12.5-22.4c0.6-1,1.1-2,1.7-3
				c0.2-0.4,0.4-0.9-0.3-1c-3.8-0.9-7.4-2.3-11.1-3.7c-4.6-1.7-9.1-3.5-13.4-5.7c-1.3-0.7-2.5-1.4-3.7-2.1c0-0.4,0.5-0.2,0.6-0.5
				c0.4,0,0.8,0.3,1.2,0.4c0.1,0.1,0.2,0.2,0.2,0.3c1.6,0.1,2.9,1,4.3,1.6c8.3,3.5,16.8,6.2,25.5,8.5c3.5,0.9,7,1.7,10.5,2
				c4.8,0.5,9.6,1,14.4,0.9c0.7,0,1.6-0.3,1.9,0.2c0.2,0.3-0.5,1.2-0.9,1.8c-3.7,5.8-7.3,11.6-11,17.4c-2.4,3.8-5,7.6-7.3,11.5
				c-1.1,1.9-2.9,2.8-4.8,3.5c-3.9,1.4-8,1.5-12.1,1.3c-7.9-0.3-15.6-2-23.1-4.4C81.5,278.9,81.4,278.8,81.3,278.7z"/>
			<path class="st44" d="M53.4,76.9c0-1.3,0-2.7,0-4c0-0.5,0.3-0.5,0.7-0.4c2,0.6,4.1,1.1,6.2,1.3c4.1,0.5,8.2,0.6,12.3,0.7
				c6.6,0.1,13.1-0.2,19.6-0.7c9-0.6,17.9-1.6,26.8-3c6.1-1,12.2-1.9,18.3-3.1c9.1-1.8,18.2-3.8,27.2-6.4c0.1,0,0.2,0,0.3,0
				c0.6,1,1.3,2,2.1,2.8c1.9,1.9,1.8,4.6,0.1,6.6c-0.3,0.4-0.8,0.7-0.8,1.3c-2.6,0.9-5.4,1.5-8,2.2c-5.8,1.5-11.7,2.7-17.7,3.8
				c-4.2,0.8-8.5,1.5-12.7,2.2c-0.4,0.1-0.8,0.1-1.2,0.1c-0.3-0.3,0-0.9-0.6-1.1c-0.9-0.3-1.7-0.8-2.6-1.1c-1-0.2-2.1-0.7-3,0
				c-1.5,1.2-3,1.5-4.7,0.7c-1.1-0.6-2.4-0.6-3.6-0.5c-1.8,0.1-3.4,1.2-5.3,1.5c-1,0.2-2,0.1-3,0.5c-2.9,1.2-5.9,1.9-9,2.2
				c-4,0.3-8,0.3-12,0.5c-3.5,0.2-7,0.3-10.4,0c-3.3-0.3-6.5-0.6-9.8-1.2c-2.3-0.4-4.6-1.2-6.7-2.3c-0.8-0.4-1.5-0.9-1.7-1.9
				C54.2,77.2,53.9,76.9,53.4,76.9z"/>
			<path class="st45" d="M213.4,60.5c-3.6,1.6-7.7,1.7-10.9,4.2c-1.4,1.1-2.4,2.6-3.5,4c-1.5,1.9-2.8,4-4.4,5.8
				c-1.3,1.4-2.9,2.2-4.6,2.5c-1.3,0.3-2.6,0.6-4,0.3c-0.3-0.1-0.7,0-1,0.1c-1,0.5-2,1.1-3,1.6c-0.5,0.2-1,0.4-1.5,0.6
				c-4.1,2.2-7.7,5-10.9,8.3c-3.3,3.4-6.6,6.7-10.1,9.9c-2.9,2.6-6.1,4.7-9.8,6c-3.5,1.2-7.1,1.7-10.8,1.9c-3.2,0.2-6.3,0.3-9.5-0.2
				c-1.8-0.3-3.6-0.8-5.4-1.5c-2.5-1-5.3-1.5-7.7-2.9c-0.8-0.5-1.2-1-0.9-1.9c2.2,1.4,4.5,2.3,6.9,3.1c4.1,1.3,8.2,1.6,12.5,1.4
				c5.8-0.3,11.2-1.9,16-5.2c2.7-1.9,4.9-4.3,6.7-7.2c3.3-5.4,7.1-10.3,12.6-13.7c2.5-1.6,5-3,7.8-3.8c1.4-0.4,2.8-0.6,4.2-0.3
				c2,0.3,4,0.7,6.1,0.4c3.4-0.4,5.9-2.4,8.3-4.7c1.5-1.5,3.1-2.8,4.3-4.6c1.3-2,3.5-2.7,5.5-3.6c1.9-0.9,3.8-1.8,5.9-2.5
				c2.9-1,5.4-2.7,7.8-4.5c6.6-4.9,13.5-9.4,20.8-13.1c8.5-4.3,17.4-7.2,27.1-7.4c4.3-0.1,8.6,0.3,12.5,2.4c2.3,1.2,4,3,4.6,5.6
				c0.8,3.6-0.8,6.4-4.3,8.1c-3.5,1.6-7.2,2.1-10.9,2.4c-4.3,0.3-8.5,0.2-12.8,0.4c-1.1,0-2.1,0.1-3.2,0.2c0-0.7,0.3-1.2,1.1-1.5
				c3-1.1,6.2-1.7,9.4-2.2c2.8-0.4,5.7-0.8,8.3-1.9c2-0.8,4.1-1.4,5.5-3.2c0.5-0.7,0.5-1.3,0.2-1.9c-0.2-0.6-0.9-0.4-1.4-0.4
				c-2.6,0.2-5.1,0.2-7.7-0.3c-2.4-0.4-4.8-0.7-7.1-1.1c-2.4-0.4-4.9-0.3-7.3,0.1c-5.2,0.9-10.1,2.7-15,4.7
				c-4.5,1.9-8.6,4.4-12.7,6.9c-1.8,1.1-3.5,2.2-5.3,3.3C218.9,57.1,216.1,58.8,213.4,60.5z"/>
			<path class="st46" d="M58.8,62.7c0,0.6,0.1,1.2-0.1,1.8c-0.3,1.2,0.3,1.8,1.3,2.2c1.7,0.8,3.6,1.1,5.5,1.2
				c4.4,0.4,8.8,0.4,13.1,0.4c3.8,0,7.6-0.3,11.4-0.5c10.8-0.7,21.5-2,32.2-3.8c11.9-2,23.7-4.4,35.3-7.4c9.3-2.4,18.5-5.1,27.4-8.7
				c4-1.6,8-3.5,11.7-5.8c0.4-0.2,0.8-0.5,1.1-0.8c2.1-1.8,2.1-2,0.6-4.3c-0.4-0.6-0.7-1.3-1-2.1c2.3-0.1,4.4,0.1,6.3,1.3
				c2.6,1.6,2.8,5.6,0.4,8c-1.7,1.7-3.8,2.6-5.9,3.6c-5.9,2.7-12,5.2-18.1,7.4c-6.1,2.2-12.3,4.1-18.5,5.8
				c-9.3,2.5-18.7,4.7-28.1,6.4c-11.9,2.2-23.9,3.9-36,5c-9.3,0.8-18.7,1.2-28.1,1.1c-4.2,0-8.5-0.4-12.7-1.2
				c-3.7-0.7-4.7-3.5-2.3-6.4C55.4,64.4,57,63.3,58.8,62.7z"/>
			<path class="st0" d="M82.6,87.8c0.4-0.2,0.8-0.1,1.1,0.3c6.2,6,13.7,10.3,21.1,14.6c14.6,8.3,30,14.7,45.8,20.3
				c9.7,3.4,19.7,6.1,29.7,8.4c6.2,1.4,12.5,2.4,18.9,2.8c3.9,0.3,7.8,0.3,11.5-1c3-1,3.8-3.2,2.3-6c-0.9-1.8-2.3-3.2-3.8-4.6
				c-3.5-3.2-7.3-5.8-11.3-8.3c-1.4-0.9-1.4-0.9-0.9-2.6c5.1,2.7,9.8,6,14.3,9.7c2.6,2.2,4.9,4.6,6.3,7.7c0.6,1.4,1.2,2.9,0.9,4.5
				c-0.1,0.3,0.1,0.6,0.1,0.9c-0.6-0.5-1.2-0.5-2-0.2c-3,0.9-5.8,2.3-8.9,2.8c-5.8,0.9-11.5,0.3-17.3-0.1c-2.3-0.2-4.6-0.6-6.9-0.8
				c-2.1-0.2-4.2-0.1-6.3,0.1c-0.5,0.1-0.9,0.2-1,0.8c-1-0.2-2-0.5-2.9-0.7c0.1-0.1,0.1-0.2,0.2-0.2c0.8-0.3,1-1,0.9-1.7
				c-0.1-0.7-0.8-0.6-1.3-0.7c-0.1,0-0.3-0.1-0.4-0.1c-3.8-1.2-7.6-1.9-11.5-2.8c-2.2-0.5-4.4-1.1-6.6-1.8c-4-1.3-7.9-2.6-11.9-3.9
				c-4.6-1.6-9.2-3.2-13.9-4.7c-0.3-0.1-0.7-0.5-1.1-0.2c-0.4,0.3,0.3,0.6,0.2,1c-2.2-0.8-4.3-1.9-6.5-2.8c-2.1-0.9-4.1-1.9-6.1-2.9
				c-10.7-5.2-21-11-30.8-17.8c-4-2.8-7.8-5.8-11.3-9.2c-0.1-0.1-0.3-0.3-0.5-0.6c1.2-0.1,2.2-0.1,3.2,0c0,0.2-0.1,0.4-0.3,0.5
				c-0.8,0.6-0.4,1,0.2,1.5c0.3,0.2,0.6,0.2,0.9,0.3c0.7,0.1,1.4,0,2,0.2c1.1,0.4,2.3,0.4,3.7,0.7c-0.4-0.6-0.3-1,0-1.4
				C83,89.1,83,88.5,82.6,87.8z"/>
			<path class="st46" d="M65,49.9c-0.9-0.1-2.1-0.4-3.3-0.9c-0.7-0.4-0.7-0.8-0.5-1.4c0.3-0.7,0.9-1.2,1.5-1.6
				c2.6-1.8,5.6-3,8.6-4.1c10.5-3.9,21.2-6.7,32.1-9.3c8.4-2,16.9-3.9,25.4-5.5c9.6-1.7,19.2-3.4,28.9-4.6
				c6.4-0.8,12.8-1.4,19.2-1.5c3.4-0.1,6.7-0.1,10,1c0.1,0,0.3,0.1,0.4,0.1c1.6,0.7,2.5,1.5,0.6,3.1c-1.8,1.4-3.8,2.5-5.9,3.4
				c-11.7,5.1-23.9,8.9-36.3,11.9c-11.4,2.7-22.9,5-34.5,6.8c-12.2,1.9-24.5,3.1-36.9,3.2C71.3,50.4,68.3,50.4,65,49.9z M75.7,46.4
				c1.9,0.2,3.8,0.2,5.7,0.1c9-0.3,17.8-1.5,26.7-2.7c11.6-1.6,23.1-3.9,34.5-6.4c9.9-2.2,19.7-4.7,29.2-8.3
				c1.7-0.6,3.3-1.3,4.7-2.4c1.3-1,1.1-2.1-0.4-2.7c-0.6-0.2-1.3-0.3-2-0.3c-3.7-0.1-7.4,0.1-11.1,0.5c-7.4,0.7-14.7,1.8-21.9,3
				c-14.6,2.4-29.1,5.2-43.4,9c-6,1.6-12,3.2-17.9,5.3c-1.9,0.7-3.8,1.4-5.4,2.7c-1,0.8-0.8,1.6,0.4,2C75,46.2,75.3,46.3,75.7,46.4z
				"/>
			<path class="st47" d="M39.1,194.9c-0.4,1.7-0.6,1.9-1.7,1.9c-0.7-0.9-1.2-1.9-1.6-3c-0.5-1.3-0.4-2.5,0-3.8
				c1.9-6.3,3.7-12.6,5.6-18.9c2.6-8.8,5.2-17.5,7.8-26.2c2.5-8.5,5-17,7.6-25.4c0.4-1.2,0.6-2.6,2-3.2l0,0
				c-0.4,3.4,1.3,6.2,3.2,8.7c2,2.7,4.3,5.3,6.7,7.6c7.8,7.5,16.4,13.8,25.6,19.5c11.9,7.3,24.3,13.4,37.4,18.2
				c7.9,2.9,16,5.3,24.2,7.2c0.3,0.1,0.7,0.2,1,0.3c-0.1,0.3-0.1,0.6-0.2,0.9c-0.2,0.7-0.5,1-1.3,0.8c-3.4-0.6-6.7-1.5-10.1-2.4
				c-3.8-1-7.6-2.3-11.4-3.6c-3.3-1.2-6.6-2.5-9.9-3.7c-9.6-3.6-18.8-8.1-27.8-12.9c-4.1-2.2-8.1-4.5-11.9-7.1
				c-2.8-1.9-5.5-3.8-8.3-5.7c-0.6-0.9-1.6-1.5-2.4-2.2c-4.7-3.9-9.4-7.8-13.3-12.6c-0.5-0.6-0.8-0.4-0.9,0.2
				c-0.2,0.7-0.4,1.4-0.6,2.1c-1,3.4-2.1,6.8-3.2,10.1c-1.3,3.7-2.4,7.5-3.6,11.3c-0.8,2.6-1.6,5.3-2.4,7.9c-1,3.2-2,6.4-2.9,9.6
				c-0.8,2.7-1.6,5.4-2.5,8.1c-1.1,3.5-2.1,6.9-3.2,10.4C40.5,190.9,40.1,193,39.1,194.9z"/>
			<path class="st48" d="M162.4,53.4c0-0.7,0.7-1.1,0.7-1.8c0.2-1.8-0.4-3.3-1-4.9c-0.9-2.5-1.9-5.1-2.4-7.8c0-0.3-0.1-0.5-0.4-0.6
				c1.4-0.5,2.9-1,4.3-1.5c6.6-2.1,13.2-4.4,19.5-7.4c2-0.9,4-1.8,5.7-3.2c1.1-0.9,1.2-0.9,1.9,0.4c2.1,4,4.4,7.9,6.7,11.7
				c0.4,0.7,0.5,1.2-0.3,1.8c-3.3,2.3-6.9,3.8-10.6,5.3c-6.5,2.7-13.2,4.7-19.8,6.8C165.3,52.7,163.9,53,162.4,53.4z"/>
			<path class="st49" d="M213.4,60.5c2.7-1.7,5.5-3.4,8.2-5.1c1.8-1.1,3.5-2.2,5.3-3.3c4.1-2.6,8.2-5,12.7-6.9
				c4.9-2.1,9.8-3.9,15-4.7c2.4-0.4,4.8-0.5,7.3-0.1c2.4,0.4,4.8,0.7,7.1,1.1c2.6,0.4,5.1,0.4,7.7,0.3c0.5,0,1.2-0.2,1.4,0.4
				c0.3,0.6,0.2,1.2-0.2,1.9c-1.4,1.8-3.5,2.4-5.5,3.2c-2.7,1.1-5.5,1.5-8.3,1.9c-3.2,0.5-6.3,1-9.4,2.2c-0.8,0.3-1.1,0.7-1.1,1.5
				c-0.8,0.4-1.8,0.5-2.7,0.6c-0.3-0.4-0.2-0.8,0.1-1.1c0.6-0.7,0.3-0.9-0.4-0.8c-0.6,0.1-1-0.1-1.5-0.5c-0.4-0.3-0.8-0.5-1.4-0.4
				c-2.3,0.6-4.6,1-6.8,2c-1.9,0.9-3.6,2.2-5.4,3.5c-1.9,1.5-4,2.8-5.8,4.4c-0.2,0.2-0.5,0.4-0.8,0.6c-0.3,0.2-0.5,0.6-0.9,0.3
				c-0.3-0.2-0.1-0.6-0.1-0.9c0-0.4,0.1-0.8,0.1-1.2c-0.3-1.7-0.7-2-2.7-1.9c-2.5,0.1-4.7,1.1-6.9,2.1
				C216.8,60.3,215.1,60.7,213.4,60.5z"/>
			<path class="st48" d="M166.2,72.1c0-0.6,0.5-0.9,0.8-1.3c1.8-2,1.8-4.8-0.1-6.6c-0.8-0.9-1.5-1.8-2.1-2.8c1-0.3,1.9-0.6,2.9-0.9
				c4.5-1.4,8.9-2.8,13.4-4.3c-0.3,0.9-1.1,1.5-1.8,2.1c-1.4,1-3,1.3-4.4,2.2c-0.4,0.2-1.2,0.1-1.1,0.8c0.2,0.6,0.9,0.4,1.5,0.4
				c0,0,0.1,0,0.1,0c4.1-0.4,8-1.5,11.9-2.8c4.1-1.4,8-3.2,11.9-5.1c1.7-0.9,3.4-1.8,5-2.9c0.5-0.4,0.6-0.6,0.3-1.3
				c-0.5-1.1-1.5-1.5-2.2-2.3c0.2-0.7,0.9-0.7,1.3-1c0.9-0.7,1.8-1.4,2.7-2.2c0.5-0.4,0.7-0.3,1.1,0.2c1.8,2.5,3.2,5.1,4.6,7.8
				c0.2,0.5,0.1,0.8-0.2,1.2c-1,1.6-2.5,2.5-4,3.4c-3.9,2.4-8,4.4-12.2,6c-3.6,1.4-7.2,2.7-10.8,4c-4.4,1.6-8.8,3-13.2,4.2
				C169.8,71.2,168.1,71.9,166.2,72.1z"/>
			<path class="st49" d="M115.3,99.2c-0.3,0.9,0.1,1.5,0.9,1.9c2.4,1.3,5.2,1.9,7.7,2.9c1.7,0.7,3.6,1.2,5.4,1.5
				c3.1,0.5,6.3,0.4,9.5,0.2c3.7-0.2,7.3-0.8,10.8-1.9c3.7-1.3,6.9-3.4,9.8-6c3.5-3.2,6.8-6.5,10.1-9.9c3.2-3.3,6.9-6,10.9-8.3
				c0.5-0.3,1-0.4,1.5-0.6c-0.1,1.1-1.1,1.5-1.7,2.2c-1.5,1.7-3.3,2.8-5.2,3.9c-1.3,0.7-2.1,1.9-2,3.6c0,1.3-0.8,2.5-1.3,3.7
				c-0.1,0.1-0.2,0.2-0.2,0.4c-0.1,1.7-1.1,3-1.9,4.4c-0.9,1.5-1.4,3.2-3,4.3c-1.1,0.8-1.9,2-2.7,3.2c-0.5,0.9,0.4,0.6,0.7,0.8
				c-0.5,0.6-1.2,0.7-1.9,0.8c-3.9,0.7-7.9,0.7-11.9,1.2c-2.8,0.4-5.7,0.8-8.5,0.7c-2-0.1-4-0.1-6-0.4c-3-0.4-6.1-0.7-9-1.6
				c-2.8-0.9-5.7-1.1-8.5-2c-1.1-0.3-2.1-0.8-3-1.5c-3.3-2.4-6.6-4.9-10-7.3c-1.2-0.8-2.6-1.2-3.9-1.8c-0.3-0.1-0.7-0.2-0.7-0.7
				c0-0.5,0.5-0.4,0.8-0.5c1.7-0.5,3.3,0.4,4.9,0.7c1.7,0.3,3.3,1,4.6,2.2C112.5,97,113.9,98.1,115.3,99.2z"/>
			<path class="st49" d="M216.4,83.8c-0.4-0.3-0.7-0.4-1.2-0.3c-1,0.1-1.7-0.7-1.5-1.6c0.2-1.2,0.8-2.1,1.9-2.7
				c2.4-1.3,5.1-2.1,7.6-3.1c0.5-0.2,1.1-0.3,1.2-1c0.1-0.3,0.4-0.4,0.7-0.4c1.4-0.2,2.7-0.6,4.1-0.7c1-0.1,1.8,0.4,2.6,0.7
				c0.5,0.1,1,0.2,1.4-0.1c0.7-0.6,1.5-0.8,2.3-1.1c0.2-0.1,0.5-0.2,0.7-0.1c1.2,0.6,2.2-0.3,3.3-0.6c0.6-0.2,0.7-0.8,0.8-1.4
				c3.4,0.8,6.9,0.7,10.4,1.1c3.4,0.4,6.7,1.3,9.7,3.2c1.7,1,3.2,2.3,4.2,4.1c-2.4-0.6-4.7-1.4-6.6-3.1c-0.6-0.5-1.3-0.8-2.1-0.9
				c-1-0.1-1.3,0.7-1.8,1.3c-0.4,0.5,0.2,0.8,0.4,1.1c0.8,1.4,2,2.3,3.3,3.1c0.9,0.6,1.7,0.5,2.4-0.2c0.4-0.4,0.2-1,0.3-1.5
				c1.4,2.1,0.8,4.6-1.5,5.3c-2.5,0.7-4.9,0.4-7.3-0.3c-2.5-0.8-4.7-2.2-7-3.4c-3.2-1.7-6.4-3.3-10.1-3.3c-4.3,0.1-8.5,0.6-12.5,2.5
				C220,81.2,218.2,82.4,216.4,83.8z"/>
			<path class="st45" d="M216.4,83.8c1.8-1.3,3.6-2.6,5.6-3.5c4-1.9,8.2-2.4,12.5-2.5c3.8-0.1,7,1.6,10.1,3.3c2.3,1.2,4.5,2.6,7,3.4
				c2.4,0.7,4.8,1,7.3,0.3c2.3-0.7,2.9-3.2,1.5-5.3c-0.2,0.5,0.1,1.1-0.3,1.5c-0.7,0.7-1.5,0.8-2.4,0.2c-1.3-0.8-2.5-1.7-3.3-3.1
				c-0.2-0.4-0.9-0.7-0.4-1.1c0.5-0.5,0.8-1.4,1.8-1.3c0.8,0.1,1.5,0.4,2.1,0.9c1.9,1.6,4.3,2.4,6.6,3.1c1.5,2.9,1.8,5.8-0.2,8.6
				c-1.5,2.1-3.8,2.6-6.2,2.7c-3.6,0.2-6.9-1.1-10.1-2.5c-3.3-1.4-6.5-3.2-9.8-4.5c-5.1-2-10.3-2.8-15.7-1.3c-1.9,0.5-3.5,1.4-4.6,3
				c-0.8,1.1-1,2.2-0.1,3.3c-0.2,0.8-1.1,1-1.4,1.7c-1.7-0.6-2.6-2.5-1.8-4.2C215.1,85.5,215.9,84.7,216.4,83.8z"/>
			<path class="st48" d="M53.4,76.9c0.5,0,0.8,0.3,0.9,0.7c0.2,1,1,1.4,1.7,1.9c2.1,1.1,4.3,1.9,6.7,2.3c3.2,0.6,6.5,1,9.8,1.2
				c3.5,0.3,6.9,0.1,10.4,0c4-0.2,8-0.2,12-0.5c3.1-0.2,6.1-1,9-2.2c1-0.4,2-0.4,3-0.5c1.8-0.3,3.4-1.3,5.3-1.5
				c1.2-0.1,2.4-0.1,3.6,0.5c1.7,0.8,3.2,0.5,4.7-0.7c0.9-0.7,2-0.3,3,0c0.9,0.2,1.7,0.7,2.6,1.1c0.6,0.2,0.3,0.8,0.6,1.1
				c-2.5,0.7-5.1,0.9-7.6,1.3c-8.5,1.3-17.1,2.2-25.6,2.9c-6,0.5-12,0.8-18,0.7c-4.6,0-9.1-0.2-13.7-0.8c-2.3-0.3-4.5-0.5-6.7-1.3
				c-1.1-0.4-1.6-1.1-1.7-2.2C53.3,79.6,53.2,78.3,53.4,76.9z"/>
			<path class="st43" d="M103.4,86.5c2.4-0.3,4.7-0.5,7-0.8c1.6-0.2,3.2-0.4,4.7-0.5c2-0.1,3.8,0.5,5.7,0.9
				c8.2,1.8,16.2,4.5,24.2,7.1c1.7,0.6,3.3,1.2,5,1.9c-1.4,1.1-2.8,2.1-4.4,2.8c-0.3,0.1-0.5,0.1-0.7,0c-5.4-2.5-11-4-16.6-5.8
				c-7.7-2.5-15.7-4-23.7-5.2c-0.3,0-0.6-0.1-0.9-0.2C103.6,86.8,103.6,86.7,103.4,86.5z"/>
			<path class="st0" d="M132.7,82.7c2.5-0.4,4.9-0.9,7.4-1.3c4.7-0.8,9.4-1.9,14.1-3c0.2-0.1,0.4-0.3,0.7,0c1.4,1.5,3.1,2.6,4.9,3.7
				c-1.9,2.2-3.4,4.6-5,7c-0.4,0.5-0.6,0.6-1.3,0.4c-6.7-2.4-13.4-4.8-20.3-6.4c-0.2,0-0.3-0.1-0.5-0.1
				C132.7,82.9,132.7,82.8,132.7,82.7z"/>
			<path class="st43" d="M176.5,137.3c0-0.6,0.5-0.8,1-0.8c2.1-0.3,4.2-0.3,6.3-0.1c2.3,0.2,4.6,0.6,6.9,0.8
				c5.8,0.4,11.5,1,17.3,0.1c3.1-0.5,5.9-1.9,8.9-2.8c0.8-0.2,1.4-0.3,2,0.2c-0.6,3.3-2.3,5-5.9,5.8c-3.5,0.8-7.1,0.9-10.6,0.8
				C193.6,140.9,185,139.4,176.5,137.3z"/>
			<path class="st44" d="M202.3,47.1c0.7,0.8,1.7,1.3,2.2,2.3c0.3,0.7,0.2,0.9-0.3,1.3c-1.6,1.1-3.3,2.1-5,2.9
				c-3.9,1.9-7.8,3.7-11.9,5.1c-3.9,1.3-7.8,2.4-11.9,2.8c0,0-0.1,0-0.1,0c-0.5,0-1.3,0.2-1.5-0.4c-0.2-0.6,0.7-0.5,1.1-0.8
				c1.4-0.9,3.1-1.2,4.4-2.2c0.8-0.6,1.5-1.1,1.8-2.1c5.1-1.9,10.1-4,15.2-6.2C198.4,49.1,200.3,47.9,202.3,47.1z"/>
			<path class="st43" d="M128.2,121.3c0.1-0.4-0.5-0.6-0.2-1c0.4-0.3,0.7,0.1,1.1,0.2c4.6,1.6,9.2,3.2,13.9,4.7
				c4,1.3,7.9,2.7,11.9,3.9c2.2,0.7,4.4,1.3,6.6,1.8c3.8,0.9,7.7,1.6,11.5,2.8c0.1,0,0.3,0.1,0.4,0.1c0.5,0.1,1.2,0,1.3,0.7
				c0.1,0.7-0.1,1.4-0.9,1.7c-0.1,0-0.2,0.1-0.2,0.2c-4.7-1-9.4-2.4-14-3.8c-10.2-3.1-20.2-6.8-30.1-10.9
				C129,121.7,128.6,121.5,128.2,121.3z"/>
			<path class="st43" d="M196.3,115c1.5,0.9,2.9,1.7,4.1,2.7c3.6,2.6,7.3,5.1,10.2,8.6c0.5,0.7,1,1.4,1.3,2.2
				c0.5,1.3,0.4,1.9-0.8,2.7c-0.3,0.2-0.7,0.4-1.1,0.6c-1.2,0.5-1.2,0.5-1.7-0.7c-0.8-1.8-2-3.2-3.4-4.4c-2.6-2.2-5.3-4.3-8.1-6.1
				c-0.6-0.4-0.8-0.8-0.7-1.5C196.1,117.8,196.2,116.5,196.3,115z"/>
			<path class="st0" d="M119.6,84.6c1.8-0.5,3.3-0.8,4.8-0.5c1.4,0.3,2.9,0.7,4.3,1.1c7.6,2,15.1,4.4,22.4,7.1
				c0.4,0.1,0.8,0.3,1.2,0.5c-0.9,1.3-0.9,1.3-2.4,0.8c-8.1-3-16.3-5.7-24.7-7.8C123.4,85.4,121.6,85,119.6,84.6z"/>
			<path class="st41" d="M202.8,132.2c-0.9-0.1-1.6-0.5-2.1-1.3c-0.9-1.5-2.3-2.6-3.1-4.2c-0.6-1.2-1-2.5-1.3-3.8
				c0-0.2-0.2-0.5,0-0.7c0.3-0.2,0.5,0.1,0.7,0.2c2.8,1.7,5.3,3.8,7.6,6c0.8,0.8,1.5,1.6,1.9,2.6c0.3,0.7,0.1,1.1-0.6,1.1
				C205,132.3,203.9,132.2,202.8,132.2z"/>
			<path class="st43" d="M82.6,87.8c0.4,0.6,0.4,1.2-0.1,1.9c-0.3,0.4-0.4,0.8,0,1.4c-1.4-0.3-2.6-0.3-3.7-0.7
				c-0.6-0.2-1.3-0.1-2-0.2c-0.3,0-0.6-0.1-0.9-0.3c-0.6-0.4-1-0.9-0.2-1.5c0.2-0.1,0.3-0.3,0.3-0.5c0.1,0,0.3,0,0.4,0
				c0.2,0.4,0.5,0.5,0.7,0c0.2,0,0.4,0,0.6,0c0.1,0.2,0.2,0.2,0.4,0C79.7,87.8,81.2,87.7,82.6,87.8z"/>
			<path class="st0" d="M183.4,70.3c3.8-1.3,7.5-2.5,11-4.1C191.7,70.1,187.9,71,183.4,70.3z"/>
			<path class="st41" d="M160.7,77.3c0.3,0.2,0.8,0.3,1,0.5c0.3,0.4,1.3,0.5,0.8,1.3c-0.8,1.1-1.2,1.2-2.1,0.5
				c-0.3-0.2-0.5-0.3-0.8-0.6c-0.4-0.3-1-0.5-0.9-1.2C158.7,77.6,160.3,77.2,160.7,77.3z"/>
			<path class="st49" d="M216.4,90.6c0.3-0.7,1.1-1,1.4-1.7c0.9,0.6,1.8,1.3,2.7,1.9C219,91.9,218.1,91.9,216.4,90.6z"/>
			<path class="st0" d="M167.7,75.1c-0.4,0.8-1.3,1-1.9,1.6c-0.8,0.7-1.5,1.2-2.4,0.1c-0.1-0.2-0.5-0.2-0.9-0.5
				C164.3,75.9,166,75.5,167.7,75.1C167.7,75.1,167.7,75.1,167.7,75.1z"/>
			<path class="st0" d="M156.1,175.3c0.6-0.2,1.1-0.3,1.5,0.3C157.1,175.5,156.6,175.4,156.1,175.3z"/>
			<path class="st0" d="M77.3,87.9c-0.2,0.5-0.4,0.5-0.7,0C76.8,88,77,87.9,77.3,87.9z"/>
			<path class="st0" d="M167.7,75.1c0,0,0.1-0.1,0.1-0.1c0,0,0,0.1,0,0.1C167.8,75.1,167.7,75.1,167.7,75.1
				C167.7,75.1,167.7,75.1,167.7,75.1z"/>
			<path class="st47" d="M58.7,116.2c0,0,0.1-0.1,0.1-0.1c0,0,0,0,0.1,0.1C58.8,116.2,58.7,116.2,58.7,116.2
				C58.7,116.2,58.7,116.2,58.7,116.2z"/>
			<path class="st0" d="M78.2,87.9c-0.1,0.2-0.3,0.2-0.4,0C78,87.9,78.1,87.9,78.2,87.9z"/>
			<path class="st0" d="M84,234.6c-0.1-0.1-0.2-0.2-0.2-0.3C83.9,234.3,83.9,234.5,84,234.6z"/>
			<path class="st41" d="M266.9,15.4c1,1.3,0.7,3.1-0.9,4.3c-2.3,1.8-5.1,2.5-7.9,2.7c-4.8,0.4-9.4,1.3-13.9,3
				c-0.3,0.1-0.8,0.5-1.1,0.2c-0.3-0.4,0.2-0.7,0.4-1c0.2-0.4,0.4-0.8,0.8-1.1c0.3,0.3,0.6,0.3,0.9,0c0.8-0.5,1.6-0.9,2.4-1.4
				c2.4-1.3,4.8-2.6,7.5-3.2c2.7-0.5,5.4-0.6,8.1-0.7C265.8,18.2,266.4,17.8,266.9,15.4z"/>
			<path class="st49" d="M266.9,15.4c-0.4,2.3-1.1,2.8-3.8,2.9c-2.7,0.1-5.4,0.2-8.1,0.7c-2.7,0.5-5.1,1.8-7.5,3.2
				c-0.8,0.4-1.6,0.9-2.4,1.4c-0.4,0.2-0.6,0.2-0.9,0c1.3-2.3,3.3-4,5.3-5.5c2.5-1.9,5.3-3.3,8.3-4.1c2.4-0.6,4.9-0.8,7.3,0.2
				C265.8,14.4,266.4,14.8,266.9,15.4z M251.4,18.5c1.7-0.6,3.6-0.6,5.3-1.1c2.1-0.6,4.2-0.8,6.4-1.1c0.3-0.1,0.8-0.1,0.8-0.5
				c0.1-0.5-0.2-0.7-0.6-0.9c-0.2-0.1-0.5-0.2-0.8-0.3C258.1,13.7,254.6,15.7,251.4,18.5z"/>
			<path class="st49" d="M284.6,74c-0.3,0-0.6-0.1-0.8-0.1c0.5-0.9,0.2-1.5-0.6-2c-0.4-0.3-0.7-0.8-1.1-1.2
				c-1.6-1.7-3.2-3.6-5.5-4.4c-0.8-0.3-0.9-0.6-0.7-1.3c3.7-0.3,7.3-0.2,10.5,2.3c1.4,1.1,2.1,3,1.6,4.7c-0.3,1.1-1.2,1.7-2.4,1.8
				c-0.1-0.3-0.2-0.7-0.6-0.6C284.6,73.3,284.7,73.7,284.6,74z M278.6,66.1c2.2,1.6,4.2,3.2,6.4,4.5c0.5,0.3,1.2,0.5,1.8-0.1
				c0.6-0.7,0.3-1.3-0.2-1.9c-1.9-2.2-4.4-2.7-7.2-2.8C279.2,65.9,279,66,278.6,66.1z"/>
			<path class="st41" d="M275.9,65c-0.2,0.7-0.1,1,0.7,1.3c2.3,0.8,3.9,2.6,5.5,4.4c0.4,0.4,0.6,0.9,1.1,1.2c0.8,0.5,1.1,1.1,0.6,2
				c-1.8-0.4-3.1-1.6-4.4-2.6c-1.2-1-2.3-2.2-3.5-3.2c-1-0.8-2.1-1.5-3.3-2.3C273.7,65.2,274.8,65,275.9,65z"/>
			<path class="st41" d="M284.6,74c0.1-0.2,0-0.7,0.3-0.7c0.4,0,0.5,0.3,0.6,0.6C285.2,74.1,284.9,74,284.6,74z"/>
			<path class="st41" d="M225.5,28.2c1.2,0.4,1.6,1.3,1.2,2.4c-0.5,1.5-1.6,2.4-2.9,3c-1.7,0.9-3.2,2.2-5,2.9
				c0.1-0.4,0.2-0.9,0.5-1.2c1.2-1.3,2.3-2.6,3.7-3.7C224.2,30.9,225.3,29.9,225.5,28.2z"/>
			<path class="st45" d="M225.5,28.2c-0.1,1.6-1.2,2.6-2.4,3.5c-1.4,1-2.5,2.4-3.7,3.7c-0.3,0.4-0.4,0.8-0.5,1.2
				c-0.4-0.1-0.4-0.4-0.3-0.7c0.5-2.8,1.7-5.2,4.1-7C223.4,28.3,224.4,28,225.5,28.2z"/>
			<path class="st41" d="M235.9,98.6c0.7,1,0.7,2.1,0,2.8c-0.9,0.9-2,1-3,0.2c-0.6-0.4-1-1-1.3-1.7c-0.6-1.3-1.4-2.4-2.3-3.6
				c-0.2-0.2-0.4-0.5-0.3-0.7c0.2-0.3,0.5-0.2,0.8-0.1c1.2,0.2,2.4,0.3,3.6,0.8c-0.3,0.6-0.7,0.3-1.1,0.1c-0.5-0.2-0.9-0.3-1.5-0.2
				c0.8,1.2,2,1.7,2.9,2.6C234.9,99.9,235,99.9,235.9,98.6C235.8,98.6,235.9,98.6,235.9,98.6z"/>
			<path class="st45" d="M235.9,98.6C235.9,98.6,235.8,98.6,235.9,98.6c-0.9,1.3-1,1.3-2.2,0.2c-0.9-0.8-2.1-1.4-2.9-2.6
				c0.6-0.1,1.1,0,1.5,0.2c0.4,0.2,0.8,0.4,1.1-0.1C234.6,96.7,235.5,97.4,235.9,98.6z"/>
			<path class="st50" d="M39.1,194.9c1-1.9,1.4-4,2-6c1.1-3.4,2.2-6.9,3.2-10.4c0.8-2.7,1.6-5.4,2.5-8.1c1-3.2,2-6.4,2.9-9.6
				c0.8-2.6,1.6-5.3,2.4-7.9c1.1-3.8,2.3-7.5,3.6-11.3c1.1-3.4,2.3-6.7,3.2-10.1c0.2-0.7,0.4-1.4,0.6-2.1c0.1-0.5,0.4-0.8,0.9-0.2
				c3.9,4.7,8.6,8.7,13.3,12.6c0.8,0.7,1.8,1.3,2.4,2.2c-0.1,0.4,0.3,0.7,0.5,1c0.5,0.7,0.8,1.4,1.2,2.1c0.7,1.2,2.1,1.7,3.5,2
				c1.2,0.3,2.3,0.6,3,1.6c0.4,0.6,0.7,1.1-0.3,1.5c-0.8,0.3-0.8,1.2-0.1,1.7c1.9,1.2,3.6,2.6,6,2.9c2,0.2,3.9,0.7,6,0.7
				c1.5,0,2.7,0.9,3.7,2c0.5,0.5,0.4,1-0.1,1.4c-1.1,0.8-1.6,1.6-1.4,3.1c0.2,1.3-0.6,1.5-1.8,1.4c-1.5-0.1-3.1-0.7-4.6,0.2
				c-0.3,0.2-0.5,0.4-0.9,0.3c-0.7-0.2-1.1,0-1.2,0.8c-0.2,0.9-1,0.8-1.6,0.8c-0.9,0-1.7,0.5-2.6,0.6c-0.1,0-0.2,0.1-0.2,0.1
				c-0.3,1-1.4,1.1-2.1,1.6c-0.4,0.3-0.8,0.5-0.8,1c0,0.3-0.2,0.6-0.6,0.5c-0.9-0.3-0.9,0.3-0.8,0.8c0.1,0.6,0,1-0.5,1.4
				c-0.1,0.1-0.3,0.3-0.2,0.3c0.4,0.7-0.2,1.3-0.2,1.9c0,0.8-0.3,1.2-0.9,1.7c-0.7,0.6-0.7,1.6-1.1,2.4c-1,1.7-1.6,3.5-2.4,5.3
				c0,0.1,0,0.2-0.1,0.2c-1.1,0.3-1.6,1.7-2.9,1.6c-1.1-0.1-1.8,0.4-2.5,1.3c-1.1,1.3-2.2,2.7-3.1,4.1c-0.5,0.9-0.6,1.6,0,2.4
				c0.7,1,1.3,2.1,2.2,2.9c0.2,0.2,0.4,0.5,0.4,0.8c0.3,1.4,1.1,2.6,1.5,3.9c0.4,1.2,1.2,2.2,1.5,3.4c0,0.1,0.1,0.3,0.2,0.4
				c1.5,1.1,1,2.4,0.5,3.7c-0.4,1.4-0.6,1.5-1.9,0.8c-0.2-0.1-0.3-0.2-0.5-0.2c-0.3,0-0.7-0.3-0.9,0c-0.2,0.5,0.4,0.5,0.7,0.6
				c0.3,0.1,0.5,0.2,0.6,0.5c0.1,0.4,0.3,0.5,0.7,0.4c0.3-0.1,0.6-0.2,0.7,0.2c0.1,0.2,0.1,0.5-0.1,0.7c-0.2,0.3-0.5,0.2-0.8,0.2
				c-0.4,0-0.6-0.7-1.1-0.5c-0.1,0.4,0.3,0.5,0.3,0.7c0.2,0.7,0.3,1.3-0.7,1.3c-0.5,0-0.8,0.2-1.2,0.6c-0.5,0.5-1.3,0.3-1.9,0.2
				c-0.7-0.1-1.2-0.4-1-1.3c0-0.2,0-0.4-0.2-0.4c-0.7-0.1-0.7-0.5-0.6-1.1c0.1-0.5-0.2-0.6-0.6-0.5c-0.6,0.1-1,0-1.4-0.7
				c-0.4-0.8-1.2-0.3-1.5,0c-0.8,0.6-1.8,0.4-2.5,1.1c0,0-0.2,0.1-0.2,0c-1.4-1-3.6-0.9-4.3-3c-0.2-0.6-0.8-1-1.3-1.4
				c-0.5-0.4-0.8-0.8-0.7-1.4c0.1-0.5-0.1-0.7-0.6-0.8c-1.3-0.3-2.5-0.9-3.7-1.6c-0.6-0.3-1.1-1.1-0.6-2c0.1-0.2,0.2-0.4,0-0.7
				c-0.2-0.3-0.3-0.6,0-1c0.3-0.3,0.3-0.6,0-0.9c-0.3-0.3-0.1-0.6,0.1-1c0.1-0.2,0.5-0.4,0.1-0.7c-0.2-0.1-0.6-0.2-0.8,0.1
				c-0.8,1.1-1.5,0.8-2.2,0c-0.1-0.2-0.4-0.2-0.7-0.2c-0.3-0.1-0.7-0.1-0.7-0.3c-0.1-1.2-1.2-1.8-1.5-2.8c-0.3-1.1-1-1.3-1.9-0.6
				C40,194.7,39.7,195.1,39.1,194.9z M67.5,210.3c0.5,0,1-0.1,1.2-0.5c0.2-0.5-0.3-0.5-0.6-0.7c-0.4-0.2-0.5-0.6-0.8-1
				c-1-1.7-2.1-3.2-4.6-2.2c-0.2,0.1-0.6-0.1-0.7,0.3c-0.1,0.4,0.1,0.5,0.4,0.7c0.8,0.4,1,1,0.6,1.8c-0.3,0.5,0.1,0.5,0.4,0.4
				c0.5-0.1,1.2-0.9,1.6-0.3c0.2,0.4-0.6,0.9-1,1.3c-0.2,0.2-0.4,0.4-0.1,0.7c0.4,0.3,1.9,0.3,2.2-0.1
				C66.5,210.2,66.8,209.7,67.5,210.3z"/>
			<path class="st42" d="M90.9,183c-0.2,0.3-0.4,0.5-0.8,0.6C90.2,183.1,90.5,182.9,90.9,183z"/>
			<path class="st42" d="M92.1,182.2c-0.2,0.1-0.3,0.2-0.5,0.3C91.7,182.2,91.8,182,92.1,182.2z"/>
			<path class="st50" d="M73.9,211.3c0,0.1-0.1,0.1-0.1,0.2c0,0-0.1-0.1-0.2-0.1c0-0.1,0.1-0.1,0.1-0.2
				C73.8,211.1,73.9,211.2,73.9,211.3z"/>
			<path class="st42" d="M94.5,181c-0.2,0.1-0.4,0.2-0.5,0.3C94,181,94.2,180.9,94.5,181z"/>
			<path class="st42" d="M92.5,181.9c-0.1,0.1-0.3,0.2-0.4,0.2C92.2,181.9,92.3,181.9,92.5,181.9z"/>
			<path class="st49" d="M181.1,126.2c-2.5-0.9-4.9-2.1-6.9-3.9c-0.8-0.7-1.2-1.7-1.2-2.7c0-0.2,0.1-0.5-0.2-0.5
				c-0.3-0.1-0.4,0.2-0.5,0.4c-0.1,0.3,0,0.9-0.5,0.7c-0.6-0.2-0.4-0.7-0.3-1.1c0.2-0.6,0.5-1,1-1.4c1.6-1.2,3.3-2.3,4.7-3.8
				c0.9-0.9,1.6-2,2.2-3.1c2.2-4.9,5.5-8.8,9.3-12.4c1-0.9,1.6-2.1,2.9-2.7c0.4-0.2,0.7-0.3,1.1-0.1c0.7,0.4,1.3,0.2,1.7-0.5
				c0.4-0.6,0.9-1.4,1.5-0.9c0.7,0.5-0.1,1.2-0.5,1.7c-2.9,3.3-5.5,6.8-7.5,10.7c-1.1,2.1-1.7,4.4-2.4,6.7c-1,3.1-0.4,6,0.5,8.9
				c0.5,1.8-1.1,3.6-2.8,3.9C182.6,126.3,181.8,126.2,181.1,126.2z"/>
			<path class="st49" d="M169.9,101.6c-1.2,1.2-2.3,2.4-3.9,3C167.2,103.5,168.3,102.3,169.9,101.6z"/>
			<path class="st38" d="M75.7,46.4c-0.3-0.1-0.7-0.1-1.1-0.3c-1.2-0.4-1.4-1.2-0.4-2c1.6-1.3,3.5-2.1,5.4-2.7
				c5.9-2,11.9-3.7,17.9-5.3c14.3-3.8,28.8-6.6,43.4-9c7.3-1.2,14.6-2.4,21.9-3c3.7-0.3,7.4-0.6,11.1-0.5c0.7,0,1.3,0.1,2,0.3
				c1.5,0.6,1.7,1.7,0.4,2.7c-1.4,1.1-3.1,1.8-4.7,2.4c-9.5,3.6-19.3,6-29.2,8.3c-11.4,2.6-22.9,4.8-34.5,6.4
				c-8.9,1.2-17.7,2.4-26.7,2.7C79.5,46.6,77.6,46.6,75.7,46.4z M77.2,44.4c0,0.1,0,0.2,0.1,0.3c1.7,0,3.3,0.1,5,0
				c3.8-0.1,7.6-0.7,11.4-1.1c10.3-0.9,20.6-2.4,30.8-4.3c7.3-1.4,14.7-3,21.9-4.6c7.5-1.7,15-3.8,22.3-6.3c2-0.7,4-1.5,6-2.6
				c-1.2-0.4-2.3-0.3-3.3-0.3c-5.6,0.2-11.2,0.8-16.8,1.6c-4.4,0.6-8.9,1.3-13.3,2c-9.3,1.4-18.6,3.1-27.8,5.2
				c-4.7,1-9.3,2.2-13.9,3.4c-6.1,1.6-12.2,3.1-18.2,5.1C80,43.1,78.6,43.8,77.2,44.4z"/>
			<path class="st45" d="M251.4,18.5c3.2-2.8,6.7-4.8,11.2-3.9c0.3,0.1,0.5,0.2,0.8,0.3c0.3,0.2,0.7,0.5,0.6,0.9
				c-0.1,0.4-0.5,0.5-0.8,0.5c-2.1,0.3-4.3,0.5-6.4,1.1C255,17.9,253.2,17.9,251.4,18.5z"/>
			<path class="st45" d="M278.6,66.1c0.4-0.1,0.6-0.3,0.7-0.3c2.7,0.1,5.3,0.7,7.2,2.8c0.5,0.6,0.8,1.2,0.2,1.9
				c-0.5,0.6-1.2,0.4-1.8,0.1C282.8,69.4,280.8,67.8,278.6,66.1z"/>
			<path class="st40" d="M67.5,210.3c-0.6-0.6-1-0.1-1.3,0.4c-0.3,0.4-1.8,0.4-2.2,0.1c-0.3-0.3-0.1-0.5,0.1-0.7
				c0.5-0.4,1.3-0.9,1-1.3c-0.4-0.6-1,0.2-1.6,0.3c-0.4,0.1-0.7,0.1-0.4-0.4c0.4-0.8,0.1-1.4-0.6-1.8c-0.2-0.1-0.5-0.3-0.4-0.7
				c0.1-0.4,0.5-0.2,0.7-0.3c2.5-1,3.6,0.5,4.6,2.2c0.2,0.4,0.4,0.8,0.8,1c0.3,0.2,0.8,0.2,0.6,0.7C68.5,210.2,68,210.3,67.5,210.3z
				"/>
			<path class="st39" d="M77.2,44.4c1.4-0.6,2.7-1.3,4.2-1.7c6-2,12.1-3.5,18.2-5.1c4.6-1.2,9.2-2.4,13.9-3.4
				c9.2-2,18.5-3.7,27.8-5.2c4.4-0.7,8.8-1.4,13.3-2c5.6-0.8,11.2-1.4,16.8-1.6c1,0,2.2-0.1,3.3,0.3c-1.9,1.2-3.9,2-6,2.6
				c-7.3,2.5-14.8,4.6-22.3,6.3c-7.3,1.7-14.6,3.2-21.9,4.6c-10.2,1.9-20.4,3.4-30.8,4.3c-3.8,0.3-7.5,1-11.4,1.1c-1.7,0-3.3,0-5,0
				C77.3,44.6,77.3,44.5,77.2,44.4z"/>
		</g>
	</g>
	<path class="st40" d="M101.4,173.3c0,0-21.4,5.6-22.5,18.1c-1.1,12.5,4.6,28.7,7.7,29.6c3.1,0.9,28.8-4,34.2-8.9
		c5.4-4.8,10.7-20.3,10.7-20.3l-1.6-6.3"/>
	<path class="st38" d="M125.6,185.6c0.5-0.4,1.1-1,1.5-1.8c-1.4-1.8-3-3.3-4.9-4.6c-7.4-4.8-15.6-5.6-24.1-4.5
		c-4.2,0.5-8.2,1.5-12,3.5c-0.3,0.1-0.5,0.3-0.8,0.4c-0.7,0.3-1.3,0.6-2,1c-0.2,0.1-0.4,0.2-0.6,0.3c0,0-0.1,0-0.1,0l0.1,0
		c-0.2,0.2-0.5,0.3-0.7,0.5c-0.3,0.2-0.6,0.5-1,0.7c-0.3,0.4-0.6,0.7-1.1,0.8c-1.2,0.6-1.9,1.7-2.9,2.6c-3.1,2.8-5.2,6.2-6.3,10.2
		c-0.9,3-0.9,6,0.4,9c0.6,1.4,1.6,1.8,2.6,1.1c1.3-0.9,2.8-1.3,4.3-1.6c3.2-0.8,6.4-1.4,9.5-2.6c4.6-1.7,8.6-4.4,12.5-7.4
		c4.3-3.3,9.2-5.1,14.7-5.4c2.7-0.2,5.5-0.3,8.2-0.7c0.7-0.1,1.3-0.3,1.7-0.8C125.1,185.9,125.4,185.6,125.6,185.6z M124.2,184.5
		c-0.2,0.9-1.2,0.9-1.9,0.9c-2.5,0.2-4.9,0.4-7.4,0.5c-5.9,0.2-11,2.5-15.6,5.9c-4.7,3.4-9.5,6.6-15.2,8.1c-3.3,0.9-6.7,1.5-9.9,2.8
		c-0.8,0.3-0.9-0.2-1.1-0.7c-1.1-2.5-0.6-5,0.3-7.4c2.9-7.9,8.9-12.7,16.6-15.5c6.4-2.4,12.9-3.2,20-2.1c4.6,0.8,9.4,2.2,13.2,5.7
		C123.8,183.2,124.5,183.7,124.2,184.5z"/>
	<path class="st38" d="M92.9,219.7c-5.7-0.9-9.9-2.2-13.5-4.9c-0.8-0.6-1.7-1.3-2.4-2.1c-2.3-2.5-2.2-4,0.3-6.4
		c1.2-1.1,2.7-1.8,4.3-2c2-0.3,4-0.7,5.9-0.7c6.4-0.1,12.1-2.1,17.2-6.1c1.3-1,2.7-2,4.1-3c4.9-3.6,10.5-5,16.4-5.2
		c0.8,0,1.7,0,2.5-0.2c1.3-0.3,2,0.3,2.4,1.4c1.3,3.4,0.8,6.8-0.4,10.1c-2,5.3-5.8,9.2-10.4,12.3
		C110.9,218.6,101.6,220.7,92.9,219.7z M128.4,197c-0.2-1.5,0.3-3.1-0.2-4.7c-0.2-0.8-0.5-1.4-1.6-1.2c-1,0.1-2,0.2-3,0.2
		c-6.9,0.1-12.8,2.9-17.8,7.4c-3.2,2.8-6.8,4.6-10.8,5.7c-3.2,0.9-6.5,0.9-9.8,1.2c-2.2,0.2-4.5,0.4-6.4,1.8
		c-1.5,1.2-1.6,2.3-0.3,3.6c1.1,1.1,2.2,2.1,3.5,2.8c5.1,2.9,10.7,3.9,16.5,3.6c8.6-0.5,16.4-3.3,23-9.2
		C124.9,205.3,127.1,201.5,128.4,197z"/>
	<path class="st51" d="M110,177c4.6,0.8,9.4,2.2,13.2,5.7c0.6,0.5,1.2,1,1,1.9c-0.2,0.9-1.2,0.9-1.9,0.9c-2.5,0.2-4.9,0.4-7.4,0.5
		c-5.9,0.2-11,2.5-15.6,5.9c-4.7,3.4-9.5,6.6-15.2,8.1c-3.3,0.9-6.7,1.5-9.9,2.8c-0.8,0.3-0.9-0.2-1.1-0.7c-1.1-2.5-0.6-5,0.3-7.4
		c2.9-7.9,8.9-12.7,16.6-15.5C96.3,176.7,102.9,175.9,110,177z"/>
	<path class="st51" d="M128.4,197c-1.2,4.5-3.4,8.3-6.8,11.4c-6.5,5.9-14.4,8.7-23,9.2c-5.8,0.3-11.4-0.7-16.5-3.6
		c-1.3-0.7-2.4-1.8-3.5-2.8c-1.3-1.3-1.2-2.5,0.3-3.6c1.9-1.5,4.1-1.6,6.4-1.8c3.3-0.4,6.6-0.3,9.8-1.2c4-1.1,7.7-2.9,10.8-5.7
		c5.1-4.5,10.9-7.3,17.8-7.4c1,0,2-0.1,3-0.2c1.1-0.1,1.4,0.4,1.6,1.2C128.7,193.9,128.2,195.5,128.4,197z"/>
</g>
</svg>
