<?xml version="1.0" encoding="utf-8"?>
<!-- Generator: Adobe Illustrator 27.9.1, SVG Export Plug-In . SVG Version: 6.00 Build 0)  -->
<svg version="1.1" id="Layer_1" xmlns="http://www.w3.org/2000/svg" xmlns:xlink="http://www.w3.org/1999/xlink" x="0px" y="0px"
	 viewBox="0 0 300 300" style="enable-background:new 0 0 300 300;" xml:space="preserve">
<style type="text/css">
	.st0{fill:#232121;}
	.st1{fill:#B21F37;}
	.st2{fill:#0C0B0A;}
	.st3{fill:#DEE2F2;}
	.st4{fill:#215483;}
	.st5{fill:#FFFFFF;}
	.st6{fill:#D6D5D2;}
	.st7{fill:#8F2438;}
	.st8{fill:#FECE43;}
	.st9{opacity:0.49;fill:#B21F37;enable-background:new    ;}
	.st10{fill:#4B78A9;}
	.st11{fill:#C3E2ED;}
	.st12{fill:#9FABB0;}
	.st13{fill:#8E192F;}
	.st14{fill:#ABB4CE;}
	.st15{opacity:0.38;fill:#FFFFFF;enable-background:new    ;}
	.st16{fill:#F26966;}
</style>
<g>
	<g>
		<g>
			<rect x="134.9" y="279.8" class="st0" width="6.4" height="2.9"/>
			<rect x="151.2" y="279.8" class="st0" width="6.4" height="2.9"/>
			<path class="st0" d="M37.2,282.7c-8.4,0-15.2-6.8-15.2-15.2V31.8c0-8.4,6.8-15.2,15.2-15.2h106.5c8.4,0,15.2,6.8,15.2,15.2v223.7
				c0,15-12.2,27.2-27.2,27.2H37.2z"/>
			<path class="st1" d="M131.6,276.9H37.2c-5.1,0-9.3-4.1-9.3-9.3V31.8c0-5.1,4.1-9.3,9.3-9.3h106.5c5.1,0,9.3,4.1,9.3,9.3v223.7
				C152.9,267.3,143.4,276.9,131.6,276.9z"/>
		</g>
		<polyline class="st2" points="81.3,286.5 85.1,289.6 84.5,286.5 		"/>
		<g>
			<path class="st0" d="M157.2,282.7c-8.4,0-15.2-6.8-15.2-15.2V31.8c0-8.4,6.8-15.2,15.2-15.2h106.5c8.4,0,15.2,6.8,15.2,15.2
				v223.7c0,15-12.2,27.2-27.2,27.2H157.2z"/>
			<path class="st1" d="M251.6,276.9h-94.4c-5.1,0-9.3-4.1-9.3-9.3V31.8c0-5.1,4.1-9.3,9.3-9.3h106.5c5.1,0,9.3,4.1,9.3,9.3v223.7
				C272.9,267.3,263.4,276.9,251.6,276.9z"/>
		</g>
		<path class="st0" d="M21.6,288.4c-1,0-1.8-0.8-1.8-1.8V12.2c0-1,0.8-1.8,1.8-1.8h10.8c1,0,1.8,0.8,1.8,1.8v274.5
			c0,1-0.8,1.8-1.8,1.8H21.6V288.4z"/>
		<rect x="24.7" y="15.1" class="st3" width="4.9" height="268.6"/>
		<path class="st0" d="M141.2,288.4c-1,0-1.8-0.8-1.8-1.8V12.2c0-1,0.8-1.8,1.8-1.8H152c1,0,1.8,0.8,1.8,1.8v274.5
			c0,1-0.8,1.8-1.8,1.8h-10.8V288.4z"/>
		<rect x="144.2" y="15.2" class="st3" width="4.9" height="268.6"/>
		<path class="st0" d="M267.5,288.4c-1,0-1.8-0.8-1.8-1.8V12.2c0-1,0.8-1.8,1.8-1.8h10.8c1,0,1.8,0.8,1.8,1.8v274.5
			c0,1-0.8,1.8-1.8,1.8h-10.8V288.4z"/>
		<rect x="270.5" y="15.1" class="st3" width="4.9" height="268.6"/>
		<rect x="129.7" y="270.9" class="st1" width="9.7" height="6"/>
		<rect x="253.5" y="276.9" class="st0" width="12.3" height="5.9"/>
		<rect x="253.5" y="271" class="st1" width="12.3" height="5.9"/>
	</g>
	<path class="st0" d="M48.1,260.8c-5.1,0-9.2-4.1-9.2-9.1V42.4c0-5,4.1-9.1,9.1-9.1h84.9c5,0,9.1,4.1,9.1,9.1v209.3
		c0,5-4.1,9.1-9.1,9.1L48.1,260.8L48.1,260.8z"/>
	<g>
		<path class="st4" d="M45.2,77.8c-1.6,0-2.9-0.9-2.9-2.1v-1.4c0-1.2,1.3-2.1,2.9-2.1h89.6c1.6,0,2.9,0.9,2.9,2.1v1.4
			c0,1.2-1.3,2.1-2.9,2.1H45.2z"/>
		<g>
			<path class="st0" d="M45.2,77.6c-2.4,0-4.4-1.4-4.4-3.1v-1.4c0-1.7,2-3.1,4.4-3.1h89.6c2.4,0,4.4,1.4,4.4,3.1v1.4
				c0,1.7-2,3.1-4.4,3.1H45.2z"/>
			<path class="st0" d="M45.2,76.6c-1.6,0-2.9-0.9-2.9-2.1v-1.4c0-1.2,1.3-2.1,2.9-2.1h89.6c1.6,0,2.9,0.9,2.9,2.1v1.4
				c0,1.2-1.3,2.1-2.9,2.1H45.2z"/>
			<path class="st5" d="M134.8,71.9H45.2c-0.9,0-1.8,0.5-1.8,1.2v1.4c0,0.6,0.8,1.2,1.8,1.2h89.6c0.9,0,1.8-0.5,1.8-1.2v-1.4
				C136.6,72.4,135.8,71.9,134.8,71.9z"/>
			<path class="st6" d="M134.8,74.1H45.2c-0.9,0-1.7-0.5-1.8-1.1l0,0v1.4c0,0.6,0.8,1.2,1.8,1.2h89.6c0.9,0,1.8-0.5,1.8-1.2V73l0,0
				C136.5,73.6,135.8,74.1,134.8,74.1z"/>
		</g>
	</g>
	<g>
		<path class="st4" d="M45.5,123.4c-1.6,0-2.8-0.9-2.8-2.1v-1.4c0-1.2,1.3-2.1,2.8-2.1h87.9c1.6,0,2.8,0.9,2.8,2.1v1.4
			c0,1.2-1.3,2.1-2.8,2.1H45.5z"/>
		<g>
			<path class="st0" d="M45.5,123.2c-2.3,0-4.3-1.4-4.3-3.1v-1.4c0-1.7,1.9-3.1,4.3-3.1h87.9c2.3,0,4.3,1.4,4.3,3.1v1.4
				c0,1.7-1.9,3.1-4.3,3.1H45.5z"/>
			<path class="st0" d="M45.5,122.2c-1.6,0-2.8-0.9-2.8-2.1v-1.4c0-1.2,1.3-2.1,2.8-2.1h87.9c1.6,0,2.8,0.9,2.8,2.1v1.4
				c0,1.2-1.3,2.1-2.8,2.1H45.5z"/>
			<path class="st5" d="M133.5,117.5h-88c-0.9,0-1.7,0.5-1.7,1.2v1.4c0,0.6,0.8,1.2,1.7,1.2h87.9c0.9,0,1.7-0.5,1.7-1.2v-1.4
				C135.2,118,134.5,117.5,133.5,117.5z"/>
			<path class="st6" d="M133.5,119.6h-88c-0.9,0-1.6-0.5-1.7-1.1v0.1v1.4c0,0.6,0.8,1.2,1.7,1.2h87.9c0.9,0,1.7-0.5,1.7-1.2v-1.4
				v-0.1C135.1,119.2,134.4,119.6,133.5,119.6z"/>
		</g>
	</g>
	<g>
		<path class="st4" d="M45.9,244.6c-1.5,0-2.7-0.9-2.7-2.1v-1.4c0-1.2,1.2-2.1,2.7-2.1h84.3c1.5,0,2.7,0.9,2.7,2.1v1.4
			c0,1.2-1.2,2.1-2.7,2.1H45.9z"/>
		<g>
			<path class="st0" d="M45.9,244.4c-2.2,0-4.1-1.4-4.1-3.1v-1.4c0-1.7,1.8-3.1,4.1-3.1h84.3c2.2,0,4.1,1.4,4.1,3.1v1.4
				c0,1.7-1.8,3.1-4.1,3.1H45.9z"/>
			<path class="st0" d="M45.9,243.4c-1.5,0-2.7-0.9-2.7-2.1v-1.4c0-1.2,1.2-2.1,2.7-2.1h84.3c1.5,0,2.7,0.9,2.7,2.1v1.4
				c0,1.2-1.2,2.1-2.7,2.1H45.9z"/>
			<path class="st5" d="M130.2,238.7H45.9c-0.9,0-1.6,0.5-1.6,1.2v1.4c0,0.6,0.7,1.2,1.6,1.2h84.3c0.9,0,1.6-0.5,1.6-1.2v-1.4
				C131.8,239.2,131.1,238.7,130.2,238.7z"/>
			<path class="st6" d="M130.2,240.9H45.9c-0.9,0-1.6-0.5-1.6-1.1v0.1v1.4c0,0.6,0.7,1.2,1.6,1.2h84.3c0.9,0,1.6-0.5,1.6-1.2v-1.4
				v-0.1C131.8,240.4,131.1,240.9,130.2,240.9z"/>
		</g>
	</g>
	<g>
		<path class="st4" d="M45.9,198.6c-1.5,0-2.7-0.9-2.7-2.1v-1.4c0-1.2,1.2-2.1,2.7-2.1h84.3c1.5,0,2.7,0.9,2.7,2.1v1.4
			c0,1.2-1.2,2.1-2.7,2.1H45.9z"/>
		<g>
			<path class="st0" d="M45.9,198.4c-2.2,0-4.1-1.4-4.1-3.1v-1.4c0-1.7,1.8-3.1,4.1-3.1h84.3c2.2,0,4.1,1.4,4.1,3.1v1.4
				c0,1.7-1.8,3.1-4.1,3.1H45.9z"/>
			<path class="st0" d="M45.9,197.4c-1.5,0-2.7-0.9-2.7-2.1v-1.4c0-1.2,1.2-2.1,2.7-2.1h84.3c1.5,0,2.7,0.9,2.7,2.1v1.4
				c0,1.2-1.2,2.1-2.7,2.1H45.9z"/>
			<path class="st5" d="M130.2,192.7H45.9c-0.9,0-1.6,0.5-1.6,1.2v1.4c0,0.6,0.7,1.2,1.6,1.2h84.3c0.9,0,1.6-0.5,1.6-1.2v-1.4
				C131.8,193.2,131.1,192.7,130.2,192.7z"/>
			<path class="st6" d="M130.2,194.8H45.9c-0.9,0-1.6-0.5-1.6-1.1v0.1v1.4c0,0.6,0.7,1.2,1.6,1.2h84.3c0.9,0,1.6-0.5,1.6-1.2v-1.4
				v-0.1C131.8,194.4,131.1,194.8,130.2,194.8z"/>
		</g>
	</g>
	<g>
		<g>
			<path class="st0" d="M71.1,43.8c-0.4-0.6-1.1-1-1.9-1c-0.3,0-0.6,0.1-0.9,0.2c-1,0.4-2,0.9-3.1,1.4c-0.7-0.6-1.4-1.3-2.1-1.9
				c-0.4-0.4-0.9-0.5-1.4-0.5s-1.1,0.2-1.4,0.6c-0.4,0.4-0.9,0.9-1.4,1.3c-0.6-0.5-1.3-1.1-1.9-1.6c-0.4-0.3-0.9-0.5-1.4-0.5
				s-1,0.2-1.4,0.5c-0.7,0.6-1.3,1.1-1.9,1.6c-0.5-0.4-1-0.9-1.4-1.3C50.5,42.2,50,42,49.5,42s-1.1,0.2-1.4,0.5
				c-0.6,0.6-1.4,1.2-2.1,1.9c-1.1-0.5-2.1-0.9-3.1-1.4c-0.3-0.1-0.6-0.2-0.9-0.2c-0.7,0-1.4,0.4-1.9,1c-0.3,0.5-0.4,1.2-0.3,1.8
				c0.2,0.7,0.4,1.5,0.6,2.2c0.2,0.7,0.8,1.2,1.5,1.4c4,1,8.3,2,13.2,3.2c0.2,0.1,0.3,0.1,0.5,0.1s0.3,0,0.5-0.1
				c4.8-1.1,9.2-2.1,13.2-3.2c0.7-0.2,1.3-0.7,1.5-1.4s0.4-1.5,0.6-2.2C71.5,45,71.4,44.3,71.1,43.8z"/>
			<path class="st5" d="M64.6,45.7c-0.8-0.7-1.7-1.4-2.5-2.1c-0.3-0.3-0.7-0.3-1,0c-0.6,0.6-1.2,1.1-1.8,1.7c-0.3,0.3-0.7,0.3-1,0
				c-0.8-0.6-1.6-1.3-2.4-2c-0.3-0.2-0.7-0.2-1,0c-0.7,0.6-1.6,1.3-2.4,2c-0.3,0.3-0.7,0.2-1,0c-0.6-0.6-1.2-1.1-1.8-1.7
				c-0.3-0.3-0.7-0.3-1,0c-0.8,0.7-1.6,1.4-2.5,2.1c-0.2,0.2-0.6,0.3-0.9,0.2c-1.2-0.5-2.3-1-3.4-1.6c-0.5-0.3-1.2,0.3-1.1,0.9
				c0.2,0.7,0.4,1.5,0.6,2.2c0.1,0.2,0.2,0.4,0.5,0.4c4.3,1.1,8.7,2.1,13.2,3.2c0.1,0.1,0.3,0.1,0.4,0c4.5-1.1,8.9-2.1,13.2-3.2
				c0.2-0.1,0.4-0.2,0.5-0.4c0.2-0.7,0.4-1.5,0.6-2.2c0.2-0.6-0.5-1.1-1.1-0.9c-1.1,0.5-2.2,1-3.4,1.6C65.1,46,64.8,45.9,64.6,45.7z
				"/>
			<path class="st0" d="M70.7,48.2L70.5,47h-30l-0.2,1.2c-0.9,7.4-0.7,14.9,0.3,22.3l0.2,1.2h29.4l0.2-1.2
				C71.4,63.1,71.5,55.6,70.7,48.2z"/>
			<path class="st1" d="M68.9,70.3c-8.9,0-17.9,0-26.9,0c-1-7.3-1.1-14.7-0.3-21.9c9.2,0,18.3,0,27.4,0C70.1,55.6,70,63,68.9,70.3z"
				/>
			<path class="st7" d="M69.2,48.4c-0.1,0-0.3,0-0.4,0c0.6,5.3-1.1,11.1-2,16.5c-0.2,1.1-1.3,2-2.5,2c-5.8,0-11.7,0-17.5,0
				c-1.2,0-2.3-0.8-2.5-1.9c-1-5.4-3.1-11.3-2.4-16.6C41,55.6,41.1,63,42.1,70.3c8.9,0,17.9,0,26.9,0C70,63,70.1,55.6,69.2,48.4z"/>
		</g>
		<path class="st0" d="M55.5,52.4c-4.8,0-8.9,2.8-8.9,6.1c0.1,3.3,4.1,6.1,8.9,6.1l0,0c4.8,0,8.9-2.8,8.9-6.1
			C64.3,55.2,60.3,52.4,55.5,52.4z"/>
		<path class="st5" d="M62.9,58.5c-0.1,2.6-3.6,4.7-7.5,4.7S48,61.1,48,58.5c0.1-2.6,3.6-4.7,7.5-4.7C59.3,53.8,62.9,55.9,62.9,58.5
			z"/>
	</g>
	<g>
		<g>
			<path class="st0" d="M104.9,43.8c-0.4-0.6-1.1-1-1.9-1c-0.3,0-0.6,0.1-0.9,0.2c-1,0.4-2,0.9-3.1,1.4c-0.7-0.6-1.4-1.3-2.1-1.9
				C96.5,42.1,96,42,95.5,42s-1.1,0.2-1.4,0.6c-0.4,0.4-0.9,0.9-1.4,1.3c-0.6-0.5-1.3-1.1-1.9-1.6c-0.4-0.3-0.9-0.5-1.4-0.5
				s-1,0.2-1.4,0.5c-0.7,0.6-1.3,1.1-1.9,1.6c-0.5-0.4-1-0.9-1.4-1.3c-0.4-0.4-0.9-0.6-1.4-0.6s-1.1,0.2-1.4,0.5
				c-0.7,0.6-1.4,1.2-2.1,1.9c-1.1-0.5-2.1-0.9-3.1-1.4c-0.3-0.1-0.6-0.2-0.9-0.2c-0.7,0-1.4,0.4-1.9,1c-0.3,0.5-0.4,1.2-0.3,1.8
				c0.2,0.7,0.4,1.5,0.6,2.2s0.8,1.2,1.5,1.4c4,1,8.3,2,13.2,3.2c0.2,0.1,0.3,0.1,0.5,0.1s0.3,0,0.5-0.1c4.9-1.1,9.2-2.1,13.2-3.2
				c0.7-0.2,1.3-0.7,1.5-1.4s0.4-1.5,0.6-2.2C105.3,45,105.2,44.3,104.9,43.8z"/>
			<path class="st5" d="M98.4,45.7c-0.8-0.7-1.7-1.4-2.5-2.1c-0.3-0.3-0.7-0.3-1,0c-0.6,0.6-1.2,1.1-1.8,1.7c-0.3,0.3-0.7,0.3-1,0
				c-0.8-0.6-1.6-1.3-2.4-2c-0.3-0.2-0.7-0.2-1,0c-0.7,0.6-1.6,1.3-2.4,2c-0.3,0.3-0.7,0.2-1,0c-0.6-0.6-1.2-1.1-1.8-1.7
				c-0.3-0.3-0.7-0.3-1,0c-0.8,0.7-1.6,1.4-2.5,2.1c-0.2,0.2-0.6,0.3-0.9,0.2c-1.2-0.5-2.3-1-3.4-1.6c-0.5-0.3-1.2,0.3-1.1,0.9
				c0.2,0.7,0.4,1.5,0.6,2.2c0.1,0.2,0.2,0.4,0.5,0.4c4.3,1.1,8.7,2.1,13.2,3.2c0.1,0.1,0.3,0.1,0.4,0c4.5-1.1,8.9-2.1,13.2-3.2
				c0.2-0.1,0.4-0.2,0.5-0.4c0.2-0.7,0.4-1.5,0.6-2.2c0.2-0.6-0.5-1.1-1.1-0.9c-1.1,0.5-2.2,1-3.4,1.6C99,46,98.7,45.9,98.4,45.7z"
				/>
			<path class="st0" d="M104.5,48.2l-0.2-1.2h-30l-0.2,1.2c-0.9,7.4-0.7,14.9,0.3,22.3l0.2,1.2H104l0.2-1.2
				C105.3,63.1,105.3,55.6,104.5,48.2z"/>
			<path class="st8" d="M102.8,70.3c-8.9,0-17.9,0-26.9,0c-1-7.3-1.1-14.7-0.3-21.9c9.2,0,18.3,0,27.4,0
				C103.9,55.6,103.8,63,102.8,70.3z"/>
			<path class="st9" d="M103,48.4c-0.1,0-0.3,0-0.4,0c0.6,5.3-1.1,11.1-2,16.5c-0.2,1.1-1.3,2-2.5,2c-5.8,0-11.7,0-17.5,0
				c-1.2,0-2.3-0.8-2.5-1.9c-1-5.4-3.1-11.3-2.4-16.6C74.8,55.6,74.9,63,76,70.3c8.9,0,17.9,0,26.9,0C103.8,63,103.9,55.6,103,48.4z
				"/>
		</g>
		<path class="st0" d="M89.3,52.4c-4.8,0-8.9,2.8-8.9,6.1c0.1,3.3,4.1,6.1,8.9,6.1l0,0c4.8,0,8.9-2.8,8.9-6.1
			C98.2,55.2,94.1,52.4,89.3,52.4z"/>
		<path class="st5" d="M96.8,58.5c-0.1,2.6-3.6,4.7-7.5,4.7s-7.4-2.1-7.5-4.7c0.1-2.6,3.6-4.7,7.5-4.7
			C93.2,53.8,96.8,55.9,96.8,58.5z"/>
	</g>
	<g>
		<g>
			<path class="st0" d="M138.9,43.8c-0.4-0.6-1.1-1-1.9-1c-0.3,0-0.6,0.1-0.9,0.2c-1,0.4-2,0.9-3.1,1.4c-0.7-0.6-1.4-1.3-2.1-1.9
				c-0.4-0.4-0.9-0.5-1.4-0.5s-1.1,0.2-1.4,0.6c-0.4,0.4-0.9,0.9-1.4,1.3c-0.6-0.5-1.3-1.1-1.9-1.6c-0.4-0.3-0.9-0.5-1.4-0.5
				s-1,0.2-1.4,0.5c-0.7,0.6-1.3,1.1-1.9,1.6c-0.5-0.4-1-0.9-1.4-1.3c-0.4-0.4-0.9-0.6-1.4-0.6s-1.1,0.2-1.4,0.5
				c-0.7,0.6-1.4,1.2-2.1,1.9c-1.1-0.5-2.1-0.9-3.1-1.4c-0.3-0.1-0.6-0.2-0.9-0.2c-0.7,0-1.4,0.4-1.9,1c-0.3,0.5-0.4,1.2-0.3,1.8
				c0.2,0.7,0.4,1.5,0.6,2.2s0.8,1.2,1.5,1.4c4,1,8.3,2,13.2,3.2c0.2,0.1,0.3,0.1,0.5,0.1s0.3,0,0.5-0.1c4.9-1.1,9.2-2.1,13.2-3.2
				c0.7-0.2,1.3-0.7,1.5-1.4s0.4-1.5,0.6-2.2C139.4,45,139.2,44.3,138.9,43.8z"/>
			<path class="st5" d="M132.5,45.7c-0.8-0.7-1.7-1.4-2.5-2.1c-0.3-0.3-0.7-0.3-1,0c-0.6,0.6-1.2,1.1-1.8,1.7c-0.3,0.3-0.7,0.3-1,0
				c-0.8-0.6-1.6-1.3-2.4-2c-0.3-0.2-0.7-0.2-1,0c-0.7,0.6-1.6,1.3-2.4,2c-0.3,0.3-0.7,0.2-1,0c-0.6-0.6-1.2-1.1-1.8-1.7
				c-0.3-0.3-0.7-0.3-1,0c-0.8,0.7-1.6,1.4-2.5,2.1c-0.2,0.2-0.6,0.3-0.9,0.2c-1.2-0.5-2.3-1-3.4-1.6c-0.5-0.3-1.2,0.3-1.1,0.9
				c0.2,0.7,0.4,1.5,0.6,2.2c0.1,0.2,0.2,0.4,0.5,0.4c4.3,1.1,8.7,2.1,13.2,3.2c0.1,0.1,0.3,0.1,0.4,0c4.5-1.1,8.9-2.1,13.2-3.2
				c0.2-0.1,0.4-0.2,0.5-0.4c0.2-0.7,0.4-1.5,0.6-2.2c0.2-0.6-0.5-1.1-1.1-0.9c-1.1,0.5-2.2,1-3.4,1.6C133,46,132.7,45.9,132.5,45.7
				z"/>
			<path class="st0" d="M138.5,48.2l-0.2-1.2h-30l-0.2,1.2c-0.9,7.4-0.7,14.9,0.3,22.3l0.2,1.2H138l0.2-1.2
				C139.3,63.1,139.4,55.6,138.5,48.2z"/>
			<path class="st10" d="M136.8,70.3c-8.9,0-17.9,0-26.9,0c-1-7.3-1.1-14.7-0.3-21.9c9.2,0,18.3,0,27.4,0
				C137.9,55.6,137.9,63,136.8,70.3z"/>
			<path class="st4" d="M137.1,48.4c-0.1,0-0.3,0-0.4,0c0.6,5.3-1.1,11.1-2,16.5c-0.2,1.1-1.3,2-2.5,2c-5.8,0-11.7,0-17.5,0
				c-1.2,0-2.3-0.8-2.5-1.9c-1-5.4-3.1-11.3-2.4-16.6c-0.9,7.3-0.7,14.7,0.3,21.9c8.9,0,17.9,0,26.9,0
				C137.9,63,137.9,55.6,137.1,48.4z"/>
		</g>
		<path class="st0" d="M123.3,52.4c-4.8,0-8.9,2.8-8.9,6.1c0.1,3.3,4.1,6.1,8.9,6.1l0,0c4.8,0,8.9-2.8,8.9-6.1
			S128.1,52.4,123.3,52.4z"/>
		<path class="st5" d="M130.8,58.5c-0.1,2.6-3.6,4.7-7.5,4.7s-7.4-2.1-7.5-4.7c0.1-2.6,3.6-4.7,7.5-4.7
			C127.2,53.8,130.8,55.9,130.8,58.5z"/>
	</g>
	<g>
		<g>
			<path class="st0" d="M105.9,90.4c0.2,0.7,0.4,1.5,0.6,2.2s0.7,1.3,1.5,1.4c4.1,1,8.4,2,13.2,3.2c0.2,0.1,0.4,0.1,0.5,0.1
				c0.2,0,0.4,0,0.5-0.1c4.8-1.1,9.2-2.2,13.2-3.2c0.7-0.2,1.3-0.7,1.5-1.4c0.2-0.7,0.4-1.5,0.6-2.2c0.2-0.6,0.1-1.2-0.3-1.8
				c-0.4-0.6-1.1-1-1.9-1c-0.3,0-0.6,0.1-0.9,0.2c-1,0.5-2,0.9-3.1,1.4c-0.7-0.6-1.5-1.3-2.1-1.9c-0.4-0.3-0.9-0.5-1.4-0.5
				c-0.5,0-1.1,0.2-1.4,0.6c-0.4,0.4-0.9,0.9-1.4,1.3c-0.6-0.5-1.2-1-1.9-1.6c-0.4-0.4-0.9-0.5-1.4-0.5s-1,0.2-1.4,0.5
				c-0.6,0.5-1.2,1.1-1.9,1.6c-0.5-0.4-1-0.9-1.4-1.3s-0.9-0.6-1.4-0.6s-1,0.2-1.4,0.5c-0.7,0.6-1.4,1.2-2.1,1.9c-1-0.5-2-1-3.1-1.4
				c-0.3-0.2-0.5-0.2-0.9-0.2c-0.7,0-1.4,0.4-1.9,1C106.1,89.2,106,89.8,105.9,90.4z"/>
			<path class="st5" d="M112.2,90.7c-1.2-0.5-2.3-1-3.4-1.6c-0.6-0.3-1.3,0.3-1.1,0.9c0.2,0.7,0.4,1.4,0.6,2.2
				c0.1,0.2,0.3,0.4,0.5,0.4c4.3,1.1,8.7,2.1,13.2,3.2c0.1,0.1,0.3,0.1,0.4,0c4.4-1.1,8.9-2.1,13.2-3.2c0.3-0.1,0.4-0.2,0.5-0.4
				c0.2-0.7,0.4-1.4,0.6-2.2c0.1-0.6-0.6-1.1-1.1-0.9c-1.1,0.5-2.2,1-3.4,1.6c-0.3,0.1-0.6,0.1-0.9-0.2c-0.9-0.7-1.7-1.4-2.5-2.1
				c-0.3-0.3-0.7-0.3-1,0c-0.6,0.6-1.2,1.1-1.8,1.7c-0.3,0.2-0.7,0.3-1,0c-0.8-0.6-1.6-1.3-2.4-2c-0.3-0.2-0.7-0.2-1,0
				c-0.8,0.6-1.6,1.3-2.4,2c-0.3,0.3-0.7,0.3-1,0c-0.6-0.6-1.2-1.1-1.8-1.7c-0.3-0.3-0.7-0.3-1,0c-0.8,0.7-1.7,1.4-2.5,2.1
				C112.7,90.7,112.3,90.8,112.2,90.7z"/>
			<path class="st0" d="M107.1,115.3l0.2,1.2h29.4l0.2-1.2c1-7.4,1.1-14.9,0.3-22.3l-0.2-1.2h-30l-0.2,1.2
				C106,100.4,106.1,107.9,107.1,115.3z"/>
			<path class="st1" d="M108.3,93.2c9.2,0,18.3,0,27.4,0c0.9,7.3,0.7,14.7-0.3,21.9c-8.9,0-17.9,0-26.9,0
				C107.5,107.8,107.4,100.4,108.3,93.2z"/>
			<path class="st7" d="M108.5,115.1c8.9,0,17.9,0,26.9,0c1-7.3,1.1-14.7,0.3-21.9c0.6,5.3-1.4,11.2-2.4,16.6
				c-0.2,1.1-1.3,1.9-2.5,1.9c-5.8,0-11.7,0-17.5,0c-1.2,0-2.3-0.9-2.5-2c-1-5.4-2.7-11.2-2-16.5c-0.1,0-0.3,0-0.4,0
				C107.4,100.4,107.5,107.8,108.5,115.1z"/>
		</g>
		<path class="st0" d="M113.1,103.3c0.1,3.3,4.1,6.1,8.9,6.1l0,0c4.8,0,8.9-2.8,8.9-6.1c-0.1-3.3-4.1-6.1-8.9-6.1
			C117.2,97.2,113.1,100,113.1,103.3z"/>
		<path class="st5" d="M122,98.6c3.9,0,7.4,2.1,7.5,4.7c-0.1,2.6-3.6,4.7-7.5,4.7s-7.4-2.1-7.5-4.7C114.6,100.7,118.2,98.6,122,98.6
			z"/>
	</g>
	<g>
		<g>
			<path class="st0" d="M72.7,90.4c0.2,0.7,0.4,1.5,0.6,2.2s0.7,1.3,1.5,1.4c4.1,1,8.3,2,13.2,3.2c0.2,0.1,0.4,0.1,0.5,0.1
				c0.2,0,0.4,0,0.5-0.1c4.9-1.1,9.2-2.2,13.2-3.2c0.7-0.2,1.3-0.7,1.5-1.4c0.2-0.7,0.4-1.5,0.6-2.2c0.2-0.6,0.1-1.2-0.3-1.8
				c-0.4-0.6-1.1-1-1.9-1c-0.3,0-0.6,0.1-0.9,0.2c-1,0.5-2,0.9-3.1,1.4c-0.7-0.6-1.4-1.3-2.1-1.9c-0.4-0.3-0.9-0.5-1.4-0.5
				s-1.1,0.2-1.4,0.6c-0.4,0.4-0.9,0.9-1.4,1.3c-0.6-0.5-1.2-1-1.9-1.6c-0.4-0.4-0.9-0.5-1.4-0.5s-1,0.2-1.4,0.5
				c-0.6,0.5-1.2,1.1-1.9,1.6c-0.5-0.4-1-0.9-1.4-1.3s-0.9-0.6-1.4-0.6s-1,0.2-1.4,0.5c-0.7,0.6-1.4,1.2-2.1,1.9c-1-0.5-2-1-3.1-1.4
				c-0.3-0.2-0.5-0.2-0.9-0.2c-0.7,0-1.4,0.4-1.9,1C72.9,89.2,72.8,89.8,72.7,90.4z"/>
			<path class="st5" d="M79,90.7c-1.2-0.5-2.3-1-3.4-1.6c-0.6-0.3-1.3,0.3-1.1,0.9c0.2,0.7,0.4,1.4,0.6,2.2c0.1,0.2,0.3,0.4,0.5,0.4
				c4.3,1.1,8.7,2.1,13.2,3.2c0.1,0.1,0.3,0.1,0.4,0c4.4-1.1,8.9-2.1,13.2-3.2c0.3-0.1,0.4-0.2,0.5-0.4c0.2-0.7,0.4-1.4,0.6-2.2
				c0.1-0.6-0.6-1.1-1.1-0.9c-1.1,0.5-2.2,1-3.4,1.6c-0.3,0.1-0.6,0.1-0.9-0.2c-0.9-0.7-1.7-1.4-2.5-2.1c-0.3-0.3-0.7-0.3-1,0
				c-0.6,0.6-1.2,1.1-1.8,1.7c-0.3,0.2-0.7,0.3-1,0c-0.8-0.6-1.6-1.3-2.4-2c-0.3-0.2-0.7-0.2-1,0c-0.8,0.6-1.6,1.3-2.4,2
				c-0.3,0.3-0.7,0.3-1,0c-0.6-0.6-1.2-1.1-1.8-1.7c-0.3-0.3-0.7-0.3-1,0c-0.8,0.7-1.7,1.4-2.5,2.1C79.5,90.7,79.1,90.8,79,90.7z"/>
			<path class="st0" d="M74,115.3l0.2,1.2h29.4l0.2-1.2c1-7.4,1.1-14.9,0.3-22.3l-0.2-1.2h-30L73.7,93
				C72.8,100.4,72.9,107.9,74,115.3z"/>
			<path class="st10" d="M75.1,93.2c9.2,0,18.3,0,27.4,0c0.9,7.3,0.7,14.7-0.3,21.9c-8.9,0-17.9,0-26.9,0
				C74.3,107.8,74.3,100.4,75.1,93.2z"/>
			<path class="st4" d="M75.3,115.1c8.9,0,17.9,0,26.9,0c1-7.3,1.1-14.7,0.3-21.9c0.6,5.3-1.4,11.2-2.4,16.6
				c-0.2,1.1-1.3,1.9-2.5,1.9c-5.8,0-11.7,0-17.5,0c-1.2,0-2.3-0.9-2.5-2c-1-5.4-2.7-11.2-2-16.5c-0.1,0-0.3,0-0.4,0
				C74.3,100.4,74.3,107.8,75.3,115.1z"/>
		</g>
		<path class="st0" d="M79.9,103.3c0.1,3.3,4.1,6.1,8.9,6.1l0,0c4.8,0,8.9-2.8,8.9-6.1c-0.1-3.3-4.1-6.1-8.9-6.1
			C84.1,97.2,80,100,79.9,103.3z"/>
		<path class="st5" d="M88.9,98.6c3.9,0,7.4,2.1,7.5,4.7c-0.1,2.6-3.6,4.7-7.5,4.7s-7.4-2.1-7.5-4.7C81.4,100.7,85,98.6,88.9,98.6z"
			/>
	</g>
	<g>
		<g>
			<path class="st0" d="M40.9,90.4c0.2,0.7,0.4,1.5,0.6,2.2s0.7,1.3,1.5,1.4c4.1,1,8.3,2,13.2,3.2c0.2,0.1,0.4,0.1,0.5,0.1
				c0.2,0,0.4,0,0.5-0.1c4.9-1.1,9.2-2.2,13.2-3.2c0.7-0.2,1.3-0.7,1.5-1.4c0.2-0.7,0.4-1.5,0.6-2.2c0.2-0.6,0.1-1.2-0.3-1.8
				c-0.4-0.6-1.1-1-1.9-1c-0.3,0-0.6,0.1-0.9,0.2c-1,0.5-2,0.9-3.1,1.4c-0.7-0.6-1.4-1.3-2.1-1.9c-0.4-0.3-0.9-0.5-1.4-0.5
				s-1.1,0.2-1.4,0.6c-0.4,0.4-0.9,0.9-1.4,1.3c-0.6-0.5-1.2-1-1.9-1.6c-0.4-0.4-0.9-0.5-1.4-0.5s-1,0.2-1.4,0.5
				c-0.6,0.5-1.2,1.1-1.9,1.6c-0.5-0.4-1-0.9-1.4-1.3s-0.9-0.6-1.4-0.6s-1,0.2-1.4,0.5c-0.7,0.6-1.4,1.2-2.1,1.9c-1-0.5-2-1-3.1-1.4
				c-0.3-0.2-0.5-0.2-0.9-0.2c-0.7,0-1.4,0.4-1.9,1C41.1,89.2,41,89.8,40.9,90.4z"/>
			<path class="st5" d="M47.2,90.7c-1.2-0.5-2.3-1-3.4-1.6c-0.6-0.3-1.3,0.3-1.1,0.9c0.2,0.7,0.4,1.4,0.6,2.2
				c0.1,0.2,0.3,0.4,0.5,0.4c4.3,1.1,8.7,2.1,13.2,3.2c0.1,0.1,0.3,0.1,0.4,0c4.4-1.1,8.9-2.1,13.2-3.2c0.3-0.1,0.4-0.2,0.5-0.4
				c0.2-0.7,0.4-1.4,0.6-2.2c0.1-0.6-0.6-1.1-1.1-0.9c-1.1,0.5-2.2,1-3.4,1.6c-0.3,0.1-0.6,0.1-0.9-0.2c-0.9-0.7-1.7-1.4-2.5-2.1
				c-0.3-0.3-0.7-0.3-1,0c-0.6,0.6-1.2,1.1-1.8,1.7c-0.3,0.2-0.7,0.3-1,0c-0.8-0.6-1.6-1.3-2.4-2c-0.3-0.2-0.7-0.2-1,0
				c-0.8,0.6-1.6,1.3-2.4,2c-0.3,0.3-0.7,0.3-1,0c-0.6-0.6-1.2-1.1-1.8-1.7c-0.3-0.3-0.7-0.3-1,0c-0.8,0.7-1.7,1.4-2.5,2.1
				C47.7,90.7,47.3,90.8,47.2,90.7z"/>
			<path class="st0" d="M42.1,115.3l0.2,1.2h29.4l0.2-1.2c1-7.4,1.1-14.9,0.3-22.3L72,91.8H42L41.8,93C41,100.4,41,107.9,42.1,115.3
				z"/>
			<path class="st8" d="M43.2,93.2c9.2,0,18.3,0,27.4,0c0.9,7.3,0.7,14.7-0.3,21.9c-8.9,0-17.9,0-26.9,0
				C42.5,107.8,42.4,100.4,43.2,93.2z"/>
			<path class="st9" d="M43.5,115.1c8.9,0,17.9,0,26.9,0c1-7.3,1.1-14.7,0.3-21.9c0.6,5.3-1.4,11.2-2.4,16.6
				c-0.2,1.1-1.3,1.9-2.5,1.9c-5.8,0-11.7,0-17.5,0c-1.2,0-2.3-0.9-2.5-2c-1-5.4-2.7-11.2-2-16.5c-0.1,0-0.3,0-0.4,0
				C42.4,100.4,42.5,107.8,43.5,115.1z"/>
		</g>
		<path class="st0" d="M48.1,103.3c0.1,3.3,4.1,6.1,8.9,6.1l0,0c4.8,0,8.9-2.8,8.9-6.1c-0.1-3.3-4.1-6.1-8.9-6.1
			S48.1,100,48.1,103.3z"/>
		<path class="st5" d="M57,98.6c3.9,0,7.4,2.1,7.5,4.7c-0.1,2.6-3.6,4.7-7.5,4.7s-7.4-2.1-7.5-4.7C49.5,100.7,53.1,98.6,57,98.6z"/>
	</g>
	<g>
		<g>
			<g>
				<g>
					<path class="st0" d="M66.8,218.6c-0.5,0.1-0.9,0.1-1.3,0c-1.9-0.3-4-0.7-6.1-1c-0.4-0.1-0.7-0.2-1.1-0.4
						c-0.4-0.2-0.6-0.4-0.9-0.7c-1.4-1.5-2.6-2.8-3.7-4.1c-0.5-0.5-0.6-1.1-0.7-1.7c0-0.5,0.1-1,0.1-1.5c0.1-1,0.6-1.8,1.5-2.3
						c0.3-0.2,0.7-0.3,1-0.4c0.9-0.2,1.8,0,2.5,0.3c0.4,0.2,0.7,0.4,0.9,0.8c0.4,0.5,0.8,1,1.2,1.5c0.4-0.1,0.9-0.3,1.3-0.5
						c0.1-0.1,0.3-0.1,0.5-0.2c0.8-0.2,1.7-0.1,2.4,0.3c0.9,0.5,1.6,1.4,1.5,2.4c0,0.3,0,0.6,0,0.9c0.7,0.1,1.4,0.2,2.1,0.3
						c0.4,0.1,0.8,0.2,1.2,0.4c1.2,0.6,1.8,1.8,1.5,3c-0.2,0.9-0.9,1.7-1.9,2.1c-0.5,0.2-1.1,0.4-1.7,0.7
						C67.2,218.6,67,218.6,66.8,218.6z"/>
					<path class="st8" d="M63.8,213.3c0-0.6,0-1.3,0-1.9c0-0.5-0.8-1-1.4-0.7c-0.7,0.2-1.4,0.5-2.2,0.8c-0.4,0.1-1,0-1.3-0.4
						c-0.6-0.7-1.1-1.4-1.6-2.1c-0.5-0.6-1.7-0.5-1.8,0.2c0,0.5-0.1,1-0.1,1.4c0,0.2,0.1,0.3,0.2,0.4c1.2,1.4,2.4,2.7,3.7,4.1
						c0.2,0.2,0.4,0.3,0.7,0.4c2.1,0.4,4.1,0.7,6.1,1.1c0.2,0,0.4,0,0.6-0.1c0.5-0.2,1.1-0.4,1.6-0.6c0.7-0.3,0.3-1.3-0.5-1.4
						c-1-0.1-2-0.2-2.9-0.4C64.2,214,63.8,213.6,63.8,213.3z"/>
					<path class="st0" d="M52.8,238.4c-0.9,0.2-1.8,0-2.5-0.3c-0.4-0.2-0.7-0.4-0.9-0.8c-0.4-0.5-0.8-1-1.2-1.5
						c-0.4,0.1-0.9,0.3-1.3,0.5c-0.1,0.1-0.3,0.1-0.5,0.2c-0.8,0.2-1.7,0.1-2.4-0.3c-0.9-0.5-1.6-1.4-1.5-2.4c0-0.3,0-0.6,0-0.9
						c-0.7-0.1-1.4-0.2-2.1-0.3c-0.4-0.1-0.8-0.2-1.2-0.4c-1.2-0.6-1.8-1.8-1.5-3c0.2-0.9,0.9-1.7,1.9-2.1c0.5-0.2,1.1-0.4,1.7-0.7
						c0.2-0.1,0.4-0.1,0.6-0.2c0.5-0.1,0.9-0.1,1.3,0c1.9,0.3,3.9,0.7,6.1,1c0.4,0.1,0.7,0.2,1.1,0.4c0.4,0.2,0.7,0.4,0.9,0.7
						c1.4,1.5,2.5,2.8,3.7,4.1c0.4,0.5,0.6,1.1,0.7,1.7c0,0.5-0.1,1.1-0.1,1.5c-0.1,1-0.6,1.8-1.5,2.3
						C53.5,238.1,53.1,238.3,52.8,238.4z"/>
					<path class="st8" d="M44.7,231.6c0,0.6,0,1.3,0,1.9c0,0.5,0.8,1,1.4,0.7c0.7-0.2,1.4-0.5,2.2-0.8c0.4-0.1,1,0,1.3,0.4
						c0.6,0.7,1.1,1.4,1.6,2.1c0.5,0.6,1.7,0.5,1.8-0.2c0-0.5,0.1-1,0.1-1.4c0-0.2-0.1-0.3-0.2-0.4c-1.2-1.4-2.4-2.7-3.7-4.1
						c-0.2-0.2-0.4-0.3-0.7-0.4c-2.1-0.4-4.1-0.7-6.1-1.1c-0.2,0-0.4,0-0.6,0.1c-0.5,0.2-1.1,0.4-1.6,0.6c-0.7,0.3-0.3,1.3,0.5,1.4
						c1,0.1,2,0.2,2.9,0.4C44.3,230.8,44.7,231.2,44.7,231.6z"/>
					<path class="st0" d="M54.3,234.8c-0.3,0.1-0.5,0-0.7-0.1l-13-6.8c-0.2-0.1-0.4-0.3-0.5-0.6s0-0.5,0.1-0.7l0.7-1.1
						c3.5-5.1,7.5-10.1,11.9-14.8l0.8-0.9c0.2-0.2,0.4-0.3,0.6-0.3c0.3-0.1,0.5,0,0.7,0.1l13,6.9c0.2,0.1,0.4,0.3,0.5,0.6
						s0,0.5-0.1,0.7l-0.7,1.1C64.1,224,60,229,55.7,233.7l-0.8,0.9C54.7,234.6,54.5,234.7,54.3,234.8z"/>
					<path class="st0" d="M41.1,227l0.7-1.1c3.5-5.1,7.5-10,11.8-14.7l0.8-0.9l13,6.9l-0.7,1.1c-3.5,5.1-7.5,10-11.8,14.7l-0.8,0.9
						L41.1,227z"/>
					<path class="st5" d="M54,232.3c-3.7-1.9-7.3-3.8-11-5.8c3.5-5,7.4-9.9,11.7-14.5c3.7,1.9,7.4,3.9,11,5.8
						C62.1,222.8,58.2,227.7,54,232.3z"/>
				</g>
			</g>
		</g>
		<path class="st0" d="M56.8,231.3c-0.5,0.1-1.1,0-1.5-0.2l-10.9-6.6c-0.4-0.3-0.7-0.7-0.8-1.2s0-1,0.4-1.4c2-2.7,4.2-5.4,6.5-8
			c0.3-0.4,0.7-0.6,1.2-0.7c0.5-0.1,1.1,0,1.5,0.2l10.9,6.6c0.4,0.3,0.7,0.7,0.8,1.2c0.1,0.5,0,1-0.4,1.4c-2,2.6-4.2,5.3-6.5,8
			C57.7,231,57.3,231.2,56.8,231.3z"/>
		<path class="st8" d="M62.9,221.6L52,215c-2.2,2.6-4.4,5.2-6.4,7.9l10.9,6.6C58.7,226.9,60.8,224.3,62.9,221.6z"/>
		<ellipse transform="matrix(0.9805 -0.1966 0.1966 0.9805 -42.5208 14.8632)" class="st0" cx="53.6" cy="221.6" rx="4" ry="3.6"/>
		
			<ellipse transform="matrix(0.9805 -0.1966 0.1966 0.9805 -42.5208 14.8632)" class="st5" cx="53.6" cy="221.6" rx="1.8" ry="1.6"/>
	</g>
	<g>
		<g>
			<g>
				<g>
					<path class="st0" d="M90,218.6c-0.5,0.1-0.9,0.1-1.3,0c-1.9-0.3-4-0.7-6.1-1c-0.4-0.1-0.7-0.2-1.1-0.4s-0.6-0.4-0.9-0.7
						c-1.4-1.5-2.6-2.8-3.7-4.1c-0.5-0.5-0.6-1.1-0.7-1.7c0-0.5,0.1-1,0.1-1.5c0.1-1,0.6-1.8,1.5-2.3c0.3-0.2,0.7-0.3,1-0.4
						c0.9-0.2,1.8,0,2.5,0.3c0.4,0.2,0.7,0.4,0.9,0.8c0.4,0.5,0.8,1,1.2,1.5c0.4-0.1,0.9-0.3,1.3-0.5c0.1-0.1,0.3-0.1,0.5-0.2
						c0.8-0.2,1.7-0.1,2.4,0.3c0.9,0.5,1.6,1.4,1.5,2.4c0,0.3,0,0.6,0,0.9c0.7,0.1,1.4,0.2,2.1,0.3c0.4,0.1,0.8,0.2,1.2,0.4
						c1.2,0.6,1.8,1.8,1.5,3c-0.2,0.9-0.9,1.7-1.9,2.1c-0.5,0.2-1.1,0.4-1.7,0.7C90.5,218.6,90.3,218.6,90,218.6z"/>
					<path class="st1" d="M87.1,213.3c0-0.6,0-1.3,0-1.9c0-0.5-0.8-1-1.4-0.7c-0.7,0.2-1.4,0.5-2.2,0.8c-0.4,0.1-1,0-1.3-0.4
						c-0.6-0.7-1.1-1.4-1.6-2.1c-0.5-0.6-1.7-0.5-1.8,0.2c0,0.5-0.1,1-0.1,1.4c0,0.2,0.1,0.3,0.2,0.4c1.2,1.4,2.4,2.7,3.7,4.1
						c0.2,0.2,0.4,0.3,0.7,0.4c2.1,0.4,4.1,0.7,6.1,1.1c0.2,0,0.4,0,0.6-0.1c0.5-0.2,1.1-0.4,1.6-0.6c0.7-0.3,0.3-1.3-0.5-1.4
						c-1-0.1-2-0.2-2.9-0.4C87.5,214,87.1,213.6,87.1,213.3z"/>
					<path class="st0" d="M76,238.4c-0.9,0.2-1.8,0-2.5-0.3c-0.4-0.2-0.7-0.4-0.9-0.8c-0.4-0.5-0.8-1-1.2-1.5
						c-0.4,0.1-0.9,0.3-1.3,0.5c-0.1,0.1-0.3,0.1-0.5,0.2c-0.8,0.2-1.7,0.1-2.4-0.3c-0.9-0.5-1.6-1.4-1.5-2.4c0-0.3,0-0.6,0-0.9
						c-0.7-0.1-1.4-0.2-2.1-0.3c-0.4-0.1-0.8-0.2-1.2-0.4c-1.2-0.6-1.8-1.8-1.5-3c0.2-0.9,0.9-1.7,1.9-2.1c0.5-0.2,1.1-0.4,1.7-0.7
						c0.2-0.1,0.4-0.1,0.6-0.2c0.5-0.1,0.9-0.1,1.3,0c1.9,0.3,3.9,0.7,6.1,1c0.4,0.1,0.7,0.2,1.1,0.4s0.7,0.4,0.9,0.7
						c1.4,1.5,2.5,2.8,3.7,4.1c0.4,0.5,0.6,1.1,0.7,1.7c0,0.5-0.1,1.1-0.1,1.5c-0.1,1-0.6,1.8-1.5,2.3
						C76.8,238.1,76.4,238.3,76,238.4z"/>
					<path class="st1" d="M67.9,231.6c0,0.6,0,1.3,0,1.9c0,0.5,0.8,1,1.4,0.7c0.7-0.2,1.4-0.5,2.2-0.8c0.4-0.1,1,0,1.3,0.4
						c0.6,0.7,1.1,1.4,1.6,2.1c0.5,0.6,1.7,0.5,1.8-0.2c0-0.5,0.1-1,0.1-1.4c0-0.2-0.1-0.3-0.2-0.4c-1.2-1.4-2.4-2.7-3.7-4.1
						c-0.2-0.2-0.4-0.3-0.7-0.4c-2.1-0.4-4.1-0.7-6.1-1.1c-0.2,0-0.4,0-0.6,0.1c-0.5,0.2-1.1,0.4-1.6,0.6c-0.7,0.3-0.3,1.3,0.5,1.4
						c1,0.1,2,0.2,2.9,0.4C67.5,230.8,68,231.2,67.9,231.6z"/>
					<path class="st0" d="M77.5,234.8c-0.3,0.1-0.5,0-0.7-0.1l-13-6.8c-0.2-0.1-0.4-0.3-0.5-0.6s0-0.5,0.1-0.7l0.7-1.1
						c3.5-5.1,7.5-10.1,11.9-14.8l0.8-0.9c0.2-0.2,0.4-0.3,0.6-0.3c0.3-0.1,0.5,0,0.7,0.1l13,6.9c0.2,0.1,0.4,0.3,0.5,0.6
						s0,0.5-0.1,0.7l-0.7,1.1c-3.5,5.1-7.6,10.1-11.9,14.8l-0.8,0.9C78,234.6,77.7,234.7,77.5,234.8z"/>
					<path class="st0" d="M64.4,227l0.7-1.1c3.5-5.1,7.5-10,11.8-14.7l0.8-0.9l13,6.9l-0.7,1.1c-3.5,5.1-7.5,10-11.8,14.7l-0.8,0.9
						L64.4,227z"/>
					<path class="st5" d="M77.2,232.3c-3.7-1.9-7.3-3.8-11-5.8c3.5-5,7.4-9.9,11.7-14.5c3.7,1.9,7.4,3.9,11,5.8
						C85.4,222.8,81.5,227.7,77.2,232.3z"/>
				</g>
			</g>
		</g>
		<path class="st0" d="M80.1,231.3c-0.5,0.1-1.1,0-1.5-0.2l-10.9-6.6c-0.4-0.3-0.7-0.7-0.8-1.2c-0.1-0.5,0-1,0.4-1.4
			c2-2.7,4.2-5.4,6.5-8c0.3-0.4,0.7-0.6,1.2-0.7c0.5-0.1,1.1,0,1.5,0.2l10.9,6.6c0.4,0.3,0.7,0.7,0.8,1.2c0.1,0.5,0,1-0.4,1.4
			c-2,2.6-4.2,5.3-6.5,8C80.9,231,80.5,231.2,80.1,231.3z"/>
		<path class="st1" d="M86.1,221.6L75.2,215c-2.2,2.6-4.4,5.2-6.4,7.9l10.9,6.6C81.9,226.9,84.1,224.3,86.1,221.6z"/>
		<ellipse transform="matrix(0.9805 -0.1966 0.1966 0.9805 -42.0637 19.4435)" class="st0" cx="76.9" cy="221.6" rx="4" ry="3.6"/>
		
			<ellipse transform="matrix(0.9805 -0.1966 0.1966 0.9805 -42.0637 19.4435)" class="st5" cx="76.9" cy="221.6" rx="1.8" ry="1.6"/>
	</g>
	<g>
		<g>
			<g>
				<g>
					<path class="st0" d="M112.7,218.6c-0.5,0.1-0.9,0.1-1.3,0c-1.9-0.3-4-0.7-6.1-1c-0.4-0.1-0.7-0.2-1.1-0.4s-0.6-0.4-0.9-0.7
						c-1.4-1.5-2.6-2.8-3.7-4.1c-0.5-0.5-0.6-1.1-0.7-1.7c0-0.5,0.1-1,0.1-1.5c0.1-1,0.6-1.8,1.5-2.3c0.3-0.2,0.7-0.3,1-0.4
						c0.9-0.2,1.8,0,2.5,0.3c0.4,0.2,0.7,0.4,0.9,0.8c0.4,0.5,0.8,1,1.2,1.5c0.4-0.1,0.9-0.3,1.3-0.5c0.1-0.1,0.3-0.1,0.5-0.2
						c0.8-0.2,1.7-0.1,2.4,0.3c0.9,0.5,1.6,1.4,1.5,2.4c0,0.3,0,0.6,0,0.9c0.7,0.1,1.4,0.2,2.1,0.3c0.4,0.1,0.8,0.2,1.2,0.4
						c1.2,0.6,1.8,1.8,1.5,3c-0.2,0.9-0.9,1.7-1.9,2.1c-0.5,0.2-1.1,0.4-1.7,0.7C113.1,218.6,112.9,218.6,112.7,218.6z"/>
					<path class="st10" d="M109.7,213.3c0-0.6,0-1.3,0-1.9c0-0.5-0.8-1-1.4-0.7c-0.7,0.2-1.4,0.5-2.2,0.8c-0.4,0.1-1,0-1.3-0.4
						c-0.6-0.7-1.1-1.4-1.6-2.1c-0.5-0.6-1.7-0.5-1.8,0.2c0,0.5-0.1,1-0.1,1.4c0,0.2,0.1,0.3,0.2,0.4c1.2,1.4,2.4,2.7,3.7,4.1
						c0.2,0.2,0.4,0.3,0.7,0.4c2.1,0.4,4.1,0.7,6.1,1.1c0.2,0,0.4,0,0.6-0.1c0.5-0.2,1.1-0.4,1.6-0.6c0.7-0.3,0.3-1.3-0.5-1.4
						c-1-0.1-2-0.2-2.9-0.4C110.1,214,109.7,213.6,109.7,213.3z"/>
					<path class="st0" d="M98.7,238.4c-0.9,0.2-1.8,0-2.5-0.3c-0.4-0.2-0.7-0.4-0.9-0.8c-0.4-0.5-0.8-1-1.2-1.5
						c-0.4,0.1-0.9,0.3-1.3,0.5c-0.1,0.1-0.3,0.1-0.5,0.2c-0.8,0.2-1.7,0.1-2.4-0.3c-0.9-0.5-1.6-1.4-1.5-2.4c0-0.3,0-0.6,0-0.9
						c-0.7-0.1-1.4-0.2-2.1-0.3c-0.4-0.1-0.8-0.2-1.2-0.4c-1.2-0.6-1.8-1.8-1.5-3c0.2-0.9,0.9-1.7,1.9-2.1c0.5-0.2,1.1-0.4,1.7-0.7
						c0.2-0.1,0.4-0.1,0.6-0.2c0.5-0.1,0.9-0.1,1.3,0c1.9,0.3,3.9,0.7,6.1,1c0.4,0.1,0.7,0.2,1.1,0.4s0.7,0.4,0.9,0.7
						c1.4,1.5,2.5,2.8,3.7,4.1c0.4,0.5,0.6,1.1,0.7,1.7c0,0.5-0.1,1.1-0.1,1.5c-0.1,1-0.6,1.8-1.5,2.3
						C99.4,238.1,99,238.3,98.7,238.4z"/>
					<path class="st10" d="M90.6,231.6c0,0.6,0,1.3,0,1.9c0,0.5,0.8,1,1.4,0.7c0.7-0.2,1.4-0.5,2.2-0.8c0.4-0.1,1,0,1.3,0.4
						c0.6,0.7,1.1,1.4,1.6,2.1c0.5,0.6,1.7,0.5,1.8-0.2c0-0.5,0.1-1,0.1-1.4c0-0.2-0.1-0.3-0.2-0.4c-1.2-1.4-2.4-2.7-3.7-4.1
						c-0.2-0.2-0.4-0.3-0.7-0.4c-2.1-0.4-4.1-0.7-6.1-1.1c-0.2,0-0.4,0-0.6,0.1c-0.5,0.2-1.1,0.4-1.6,0.6c-0.7,0.3-0.3,1.3,0.5,1.4
						c1,0.1,2,0.2,2.9,0.4C90.2,230.8,90.6,231.2,90.6,231.6z"/>
					<path class="st0" d="M100.2,234.8c-0.3,0.1-0.5,0-0.7-0.1l-13-6.8c-0.2-0.1-0.4-0.3-0.5-0.6s0-0.5,0.1-0.7l0.7-1.1
						c3.5-5.1,7.5-10.1,11.9-14.8l0.8-0.9c0.2-0.2,0.4-0.3,0.6-0.3c0.3-0.1,0.5,0,0.7,0.1l13,6.9c0.2,0.1,0.4,0.3,0.5,0.6
						s0,0.5-0.1,0.7l-0.7,1.1c-3.5,5.1-7.6,10.1-11.9,14.8l-0.8,0.9C100.6,234.6,100.4,234.7,100.2,234.8z"/>
					<path class="st0" d="M87,227l0.7-1.1c3.5-5.1,7.5-10,11.8-14.7l0.8-0.9l13,6.9l-0.7,1.1c-3.5,5.1-7.5,10-11.8,14.7l-0.8,0.9
						L87,227z"/>
					<path class="st5" d="M99.9,232.3c-3.7-1.9-7.3-3.8-11-5.8c3.5-5,7.4-9.9,11.7-14.5c3.7,1.9,7.4,3.9,11,5.8
						C108,222.8,104.1,227.7,99.9,232.3z"/>
				</g>
			</g>
		</g>
		<path class="st0" d="M102.7,231.3c-0.5,0.1-1.1,0-1.5-0.2l-10.9-6.6c-0.4-0.3-0.7-0.7-0.8-1.2c-0.1-0.5,0-1,0.4-1.4
			c2-2.7,4.2-5.4,6.5-8c0.3-0.4,0.7-0.6,1.2-0.7c0.5-0.1,1.1,0,1.5,0.2L110,220c0.4,0.3,0.7,0.7,0.8,1.2c0.1,0.5,0,1-0.4,1.4
			c-2,2.6-4.2,5.3-6.5,8C103.6,231,103.2,231.2,102.7,231.3z"/>
		<path class="st10" d="M108.8,221.6L97.9,215c-2.2,2.6-4.4,5.2-6.4,7.9l10.9,6.6C104.6,226.9,106.7,224.3,108.8,221.6z"/>
		<ellipse transform="matrix(0.9805 -0.1966 0.1966 0.9805 -41.6247 23.8871)" class="st0" cx="99.5" cy="221.6" rx="4" ry="3.6"/>
		
			<ellipse transform="matrix(0.9805 -0.1966 0.1966 0.9805 -41.6247 23.8871)" class="st5" cx="99.5" cy="221.6" rx="1.8" ry="1.6"/>
	</g>
	<g>
		<g>
			<g>
				<g>
					<path class="st0" d="M134.5,218.6c-0.5,0.1-0.9,0.1-1.3,0c-1.9-0.3-4-0.7-6.1-1c-0.4-0.1-0.7-0.2-1.1-0.4s-0.6-0.4-0.9-0.7
						c-1.4-1.5-2.6-2.8-3.7-4.1c-0.5-0.5-0.6-1.1-0.7-1.7c0-0.5,0.1-1,0.1-1.5c0.1-1,0.6-1.8,1.5-2.3c0.3-0.2,0.7-0.3,1-0.4
						c0.9-0.2,1.8,0,2.5,0.3c0.4,0.2,0.7,0.4,0.9,0.8c0.4,0.5,0.8,1,1.2,1.5c0.4-0.1,0.9-0.3,1.3-0.5c0.1-0.1,0.3-0.1,0.5-0.2
						c0.8-0.2,1.7-0.1,2.4,0.3c0.9,0.5,1.6,1.4,1.5,2.4c0,0.3,0,0.6,0,0.9c0.7,0.1,1.4,0.2,2.1,0.3c0.4,0.1,0.8,0.2,1.2,0.4
						c1.2,0.6,1.8,1.8,1.5,3c-0.2,0.9-0.9,1.7-1.9,2.1c-0.5,0.2-1.1,0.4-1.7,0.7C135,218.6,134.8,218.6,134.5,218.6z"/>
					<path class="st8" d="M131.6,213.3c0-0.6,0-1.3,0-1.9c0-0.5-0.8-1-1.4-0.7c-0.7,0.2-1.4,0.5-2.2,0.8c-0.4,0.1-1,0-1.3-0.4
						c-0.6-0.7-1.1-1.4-1.6-2.1c-0.5-0.6-1.7-0.5-1.8,0.2c0,0.5-0.1,1-0.1,1.4c0,0.2,0.1,0.3,0.2,0.4c1.2,1.4,2.4,2.7,3.7,4.1
						c0.2,0.2,0.4,0.3,0.7,0.4c2.1,0.4,4.1,0.7,6.1,1.1c0.2,0,0.4,0,0.6-0.1c0.5-0.2,1.1-0.4,1.6-0.6c0.7-0.3,0.3-1.3-0.5-1.4
						c-1-0.1-2-0.2-2.9-0.4C132,214,131.6,213.6,131.6,213.3z"/>
					<path class="st0" d="M120.5,238.4c-0.9,0.2-1.8,0-2.5-0.3c-0.4-0.2-0.7-0.4-0.9-0.8c-0.4-0.5-0.8-1-1.2-1.5
						c-0.4,0.1-0.9,0.3-1.3,0.5c-0.1,0.1-0.3,0.1-0.5,0.2c-0.8,0.2-1.7,0.1-2.4-0.3c-0.9-0.5-1.6-1.4-1.5-2.4c0-0.3,0-0.6,0-0.9
						c-0.7-0.1-1.4-0.2-2.1-0.3c-0.4-0.1-0.8-0.2-1.2-0.4c-1.2-0.6-1.8-1.8-1.5-3c0.2-0.9,0.9-1.7,1.9-2.1c0.5-0.2,1.1-0.4,1.7-0.7
						c0.2-0.1,0.4-0.1,0.6-0.2c0.5-0.1,0.9-0.1,1.3,0c1.9,0.3,3.9,0.7,6.1,1c0.4,0.1,0.7,0.2,1.1,0.4s0.7,0.4,0.9,0.7
						c1.4,1.5,2.5,2.8,3.7,4.1c0.4,0.5,0.6,1.1,0.7,1.7c0,0.5-0.1,1.1-0.1,1.5c-0.1,1-0.6,1.8-1.5,2.3
						C121.3,238.1,120.9,238.3,120.5,238.4z"/>
					<path class="st8" d="M112.4,231.6c0,0.6,0,1.3,0,1.9c0,0.5,0.8,1,1.4,0.7c0.7-0.2,1.4-0.5,2.2-0.8c0.4-0.1,1,0,1.3,0.4
						c0.6,0.7,1.1,1.4,1.6,2.1c0.5,0.6,1.7,0.5,1.8-0.2c0-0.5,0.1-1,0.1-1.4c0-0.2-0.1-0.3-0.2-0.4c-1.2-1.4-2.4-2.7-3.7-4.1
						c-0.2-0.2-0.4-0.3-0.7-0.4c-2.1-0.4-4.1-0.7-6.1-1.1c-0.2,0-0.4,0-0.6,0.1c-0.5,0.2-1.1,0.4-1.6,0.6c-0.7,0.3-0.3,1.3,0.5,1.4
						c1,0.1,2,0.2,2.9,0.4C112,230.8,112.5,231.2,112.4,231.6z"/>
					<path class="st0" d="M122,234.8c-0.3,0.1-0.5,0-0.7-0.1l-13-6.8c-0.2-0.1-0.4-0.3-0.5-0.6s0-0.5,0.1-0.7l0.7-1.1
						c3.5-5.1,7.5-10.1,11.9-14.8l0.8-0.9c0.2-0.2,0.4-0.3,0.6-0.3c0.3-0.1,0.5,0,0.7,0.1l13,6.9c0.2,0.1,0.4,0.3,0.5,0.6
						s0,0.5-0.1,0.7l-0.7,1.1c-3.5,5.1-7.6,10.1-11.9,14.8l-0.8,0.9C122.5,234.6,122.2,234.7,122,234.8z"/>
					<path class="st0" d="M108.9,227l0.7-1.1c3.5-5.1,7.5-10,11.8-14.7l0.8-0.9l13,6.9l-0.7,1.1c-3.5,5.1-7.5,10-11.8,14.7l-0.8,0.9
						L108.9,227z"/>
					<path class="st5" d="M121.7,232.3c-3.7-1.9-7.3-3.8-11-5.8c3.5-5,7.4-9.9,11.7-14.5c3.7,1.9,7.4,3.9,11,5.8
						C129.9,222.8,126,227.7,121.7,232.3z"/>
				</g>
			</g>
		</g>
		<path class="st0" d="M124.6,231.3c-0.5,0.1-1.1,0-1.5-0.2l-10.9-6.6c-0.4-0.3-0.7-0.7-0.8-1.2c-0.1-0.5,0-1,0.4-1.4
			c2-2.7,4.2-5.4,6.5-8c0.3-0.4,0.7-0.6,1.2-0.7c0.5-0.1,1.1,0,1.5,0.2l10.9,6.6c0.4,0.3,0.7,0.7,0.8,1.2s0,1-0.4,1.4
			c-2,2.6-4.2,5.3-6.5,8C125.4,231,125,231.2,124.6,231.3z"/>
		<path class="st8" d="M130.6,221.6l-10.9-6.6c-2.2,2.6-4.4,5.2-6.4,7.9l10.9,6.6C126.4,226.9,128.6,224.3,130.6,221.6z"/>
		<ellipse transform="matrix(0.9805 -0.1966 0.1966 0.9805 -41.1951 28.1921)" class="st0" cx="121.4" cy="221.6" rx="4" ry="3.6"/>
		
			<ellipse transform="matrix(0.9805 -0.1966 0.1966 0.9805 -41.1951 28.1921)" class="st5" cx="121.4" cy="221.6" rx="1.8" ry="1.6"/>
	</g>
	<g>
		<g>
			<g>
				<path class="st0" d="M78,191.4h19.7C91.2,191.3,84.6,191.3,78,191.4z"/>
				<path class="st0" d="M127.3,191.3c-1.2,0-2.4,0-3.6,0c-0.1-0.6-0.1-1.1-0.2-1.6c-0.3-3.4-0.6-6.8-0.9-10.3
					c-0.3-2.6-2.2-4.3-4.8-4.3c-2.4,0-4.8,0-7.3,0c-1.5,0-1.5,0-1.7-1.4c-0.3-1.4-0.5-2.7-0.7-4.2c0.4,0,0.7,0,1,0
					c4.1,0,8.2,0,12.3,0c1.6,0,3-0.7,3.5-2.2c0.7-1.9,1-3.8,0.8-5.8c0-0.4-0.1-0.9-0.2-1.3c0.3,0,0.5,0,0.6-0.1
					c2.9-0.1,4-1.4,3.6-4.3c-0.4-2.5-0.7-5.1-1.1-7.6c-0.6-4.5-1.3-9.1-1.9-13.6c-0.2-1.1-0.9-1.6-1.9-1.7c-0.9,0-1.8,0-2.7,0
					c-0.5,0-0.7-0.2-0.7-0.6c-0.1-0.9-0.3-1.9-0.4-2.8c-0.4-2.2-1.5-3.2-3.8-3.2c-13.2,0-26.3,0-39.5,0c-6.8,0-13.7,0-20.5,0
					c-1.7,0-3.1,1.1-3.4,2.7c-0.7,4.5-1.4,9.1-2,13.6c-0.7,5.1-1.4,10.3-2.3,15.4c-0.4,2.8-0.7,5.5,0.1,8.2c0.5,2,1.9,3.3,4,3.3
					c4.1,0,8.1,0,12.2,0c0.3,0,0.7,0,1,0c-0.3,1.9-0.7,3.7-1,5.5c-0.2,0-0.2,0.1-0.3,0.1c-2.8,0-5.6,0-8.4,0c-2.7,0-4.6,1.8-4.9,4.4
					c-0.2,1.5-0.3,3-0.4,4.5c-0.2,2.4-0.4,4.8-0.6,7.3c-0.3,0-0.5,0-0.8,0 M70.6,191.4c-2.7-0.4-4.6-3.1-4.4-5.2
					c0.2-2,0.5-3.9,0.9-5.9c0.9-5.1,1.8-10.2,2.7-15.3c0.3-1.5-0.8-2.7-2.4-2.7c-5.1,0-10.1,0-15.2,0c-0.3,0-0.6,0-1.1,0
					c0.3-1.8,0.5-3.5,0.7-5.2c0.8-5.5,1.6-11,2.4-16.6c0.5-3.7,1.1-7.3,1.6-11c0.1-1,0.6-1.3,1.7-1.3c10.6,0,21.2,0,31.8,0
					c9.2,0,18.5,0,27.7,0c1.4,0,1.7,0.3,1.9,1.6c1,6.6,1.9,13.2,2.9,19.7c0.6,3.8,1.2,7.7,1.7,11.5c0.1,0.3,0.1,0.7,0.1,1.2
					c-0.4,0-0.7,0-1,0c-5,0-9.9,0-14.9,0c-2.1,0-3,1.2-2.6,3.2c1.2,6.5,2.4,13,3.5,19.5c0.4,2.1-0.3,4-2,5.4c-0.7,0.6-1.5,0.9-2.4,1
					 M112.8,177.1c1.7,0,3.4,0,5.1,0c1.3,0,2.3,0.8,2.6,2.3c-0.3,0-0.6,0-0.9,0c-3,0-5.9,0-8.9,0c-0.7,0-1.1-0.1-1.2-0.9
					c0-0.4-0.2-0.9-0.2-1.4C110.6,177.1,111.7,177.1,112.8,177.1z M110.1,181.3c3.6,0,7.1,0,10.7,0c0.3,3.3,0.6,6.6,0.9,10
					c-4.4,0-8.6,0-13.1,0C111.5,188.3,110.9,184.9,110.1,181.3z M123.1,166.3c-0.3,0.9-1,1.2-1.8,1.2c-4.4,0-8.7,0-13.1,0
					c-0.2,0-0.5-0.3-0.6-0.5c-0.2-0.6-0.2-1.2-0.3-1.8c-0.2-0.7,0.1-1,0.8-1c3.7,0,7.4,0,11.1,0c1.4,0,2.8,0,4.3,0
					C123.4,165.1,123.3,165.7,123.1,166.3z M122.3,134.9c0.8,0,1.6,0,2.5,0c0.2,1.4,0.4,2.7,0.6,4c0.8,5.8,1.7,11.6,2.4,17.4
					c0.1,0.5-0.1,1.4-0.5,1.6c-0.5,0.3-1.3,0.2-2,0.1c-0.1,0-0.2-0.4-0.3-0.6c-0.9-5.9-1.7-11.9-2.6-17.9c-0.2-1.5-0.4-3-0.6-4.6
					C122,134.9,122.2,134.9,122.3,134.9z M65,167.5c-3.6,0-7.2,0-10.7,0c-1.9,0-2.4-0.4-2.7-2.3c-0.1-0.3-0.1-0.6-0.2-1
					c2.9,0,5.7,0,8.4,0c2.3,0,4.7,0,7,0c0.8,0,1,0.3,0.8,1s-0.1,1.7-0.5,2.1C66.7,167.7,65.7,167.5,65,167.5z M56.5,177.2
					c3-0.1,6,0,9,0c-0.2,2.3-0.2,2.3-2.4,2.3c-2.9,0-5.8,0-8.6,0C54.4,178.4,55.3,177.2,56.5,177.2z M53.3,191.3
					c0.3-3.3,0.5-6.6,0.8-9.9c3.6,0,7.1,0,10.6,0c-0.2,1.7-0.5,3.5-0.5,5.2c0,1.8,0.8,3.3,2.1,4.7C61.9,191.3,57.6,191.3,53.3,191.3
					z"/>
				<path class="st11" d="M97.8,191.4h6.5c0.9-0.1,1.7-0.4,2.4-1c1.7-1.4,2.4-3.3,2-5.4c-1.1-6.5-2.3-13-3.5-19.5
					c-0.4-2.1,0.5-3.2,2.6-3.2c5,0,9.9,0,14.9,0c0.3,0,0.6,0,1,0c0-0.5,0-0.9-0.1-1.2c-0.6-3.8-1.2-7.7-1.7-11.5
					c-1-6.6-1.9-13.2-2.9-19.7c-0.2-1.3-0.5-1.6-1.9-1.6c-9.2,0-18.5,0-27.7,0c-10.6,0-21.2,0-31.8,0c-1.1,0-1.6,0.3-1.7,1.3
					c-0.6,3.7-1.1,7.3-1.6,11c-0.8,5.5-1.6,11-2.4,16.6c-0.2,1.7-0.5,3.4-0.7,5.2c0.4,0,0.8,0,1.1,0c5.1,0,10.1,0,15.2,0
					c1.6,0,2.6,1.2,2.4,2.7c-0.9,5.1-1.8,10.2-2.7,15.3c-0.3,1.9-0.7,3.9-0.9,5.9c-0.2,2.1,1.8,4.8,4.4,5.2H78
					C84.6,191.3,91.2,191.3,97.8,191.4z M57.6,158.7c-1.7,0-2.1-0.5-1.9-2.2c0.7-4.9,1.3-9.8,2-14.7c0.4-3.2,0.9-6.4,1.3-9.6
					c0.2-1.4,0.5-1.7,1.9-1.7c17.7,0,35.4,0,53.1,0c1.3,0,1.7,0.4,1.9,1.7c1,7.4,2,14.8,3,22.2c0.1,0.8,0.2,1.6,0.3,2.4
					c0.2,1.4-0.3,2-1.7,2c-10,0-20,0-30.1,0l0,0C77.5,158.7,67.5,158.7,57.6,158.7z M68.6,183.3c1.2-6.3,2.3-12.6,3.5-19
					c0.1-0.5,0.1-1,0.1-1.5c0.1-0.9,0.5-1.4,1.5-1.4c9.2,0,18.4,0,27.6,0c0.8,0,1.2,0.4,1.4,1.2c0.6,3.8,1.3,7.7,1.9,11.5
					c0.5,3.1,1.1,6.1,1.7,9.2c0.4,2-0.5,3.1-2.6,3.1c-5.4,0-10.9,0-16.3,0s-10.8,0-16.3,0C69.1,186.5,68.2,185.4,68.6,183.3z"/>
				<path class="st12" d="M104,191.4c0.1,0,0.2,0,0.3,0h-6.5C99.9,191.4,102,191.4,104,191.4z"/>
				<path class="st12" d="M78,191.4h-7.5c0.3,0,0.5,0.1,0.8,0.1C73.6,191.4,75.8,191.4,78,191.4z"/>
				<path class="st12" d="M121.7,191.3c-0.3-3.4-0.6-6.7-0.9-10c-3.6,0-7.1,0-10.7,0c0.8,3.5,1.4,7-1.5,10
					C113.1,191.3,117.3,191.3,121.7,191.3z"/>
				<path class="st12" d="M64.2,186.6c0-1.7,0.3-3.5,0.5-5.2c-3.5,0-7,0-10.6,0c-0.3,3.3-0.5,6.6-0.8,9.9c4.4,0,8.6,0,13.1,0
					C64.9,189.9,64.2,188.3,64.2,186.6z"/>
				<path class="st12" d="M121.8,134.9c0.2,0,0.3-0.1,0.5-0.1c0.8,0,1.6,0,2.5,0c0.2,1.4,0.4,2.7,0.6,4c0.8,5.8,1.7,11.6,2.4,17.4
					c0.1,0.5-0.1,1.4-0.5,1.6c-0.5,0.3-1.3,0.2-2,0.1c-0.1,0-0.2-0.4-0.3-0.6c-0.9-5.9-1.7-11.9-2.6-17.9
					C122.2,138,122,136.5,121.8,134.9z"/>
				<path class="st12" d="M51.4,164.3c2.9,0,5.7,0,8.4,0c2.3,0,4.7,0,7,0c0.8,0,1,0.3,0.8,1s-0.1,1.7-0.5,2.1
					c-0.4,0.4-1.4,0.2-2.1,0.2c-3.6,0-7.2,0-10.7,0c-1.9,0-2.4-0.4-2.7-2.3C51.5,165,51.4,164.7,51.4,164.3z"/>
				<path class="st12" d="M123.5,164.3c-0.2,0.8-0.3,1.4-0.5,2.1c-0.3,0.9-1,1.2-1.8,1.2c-4.4,0-8.7,0-13.1,0
					c-0.2,0-0.5-0.3-0.6-0.5c-0.2-0.6-0.2-1.2-0.3-1.8c-0.2-0.7,0.1-1,0.8-1c3.7,0,7.4,0,11.1,0C120.6,164.3,122,164.3,123.5,164.3z
					"/>
				<path class="st12" d="M65.5,177.2c-0.2,2.3-0.2,2.3-2.4,2.3c-2.9,0-5.8,0-8.6,0c-0.1-1,0.9-2.2,2-2.2
					C59.5,177.1,62.5,177.2,65.5,177.2z"/>
				<path class="st12" d="M109.4,177.1c1.2,0,2.3,0,3.4,0c1.7,0,3.4,0,5.1,0c1.3,0,2.3,0.8,2.6,2.3c-0.3,0-0.6,0-0.9,0
					c-3,0-5.9,0-8.9,0c-0.7,0-1.1-0.1-1.2-0.9C109.6,178.1,109.5,177.6,109.4,177.1z"/>
				<path class="st0" d="M87.4,158.7c-9.9,0-19.9,0-29.8,0c-1.7,0-2.1-0.5-1.9-2.2c0.7-4.9,1.3-9.8,2-14.7c0.4-3.2,0.9-6.4,1.3-9.6
					c0.2-1.4,0.5-1.7,1.9-1.7c17.7,0,35.4,0,53.1,0c1.3,0,1.7,0.4,1.9,1.7c1,7.4,2,14.8,3,22.2c0.1,0.8,0.2,1.6,0.3,2.4
					c0.2,1.4-0.3,2-1.7,2C107.5,158.7,97.4,158.7,87.4,158.7L87.4,158.7z M113.9,132.4c-17.7,0-35.3,0-52.9,0
					c-1.1,8.1-2.2,16.1-3.3,24.2c19.9,0,39.6,0,59.4,0C116,148.5,114.9,140.5,113.9,132.4z"/>
				<path class="st0" d="M87.4,186.5c-5.4,0-10.8,0-16.3,0c-2.1,0-3-1.1-2.6-3.2c1.2-6.3,2.3-12.6,3.5-19c0.1-0.5,0.1-1,0.1-1.5
					c0.1-0.9,0.5-1.4,1.5-1.4c9.2,0,18.4,0,27.6,0c0.8,0,1.2,0.4,1.4,1.2c0.6,3.8,1.3,7.7,1.9,11.5c0.5,3.1,1.1,6.1,1.7,9.2
					c0.4,2-0.5,3.1-2.6,3.1C98.3,186.5,92.9,186.5,87.4,186.5z M100.7,163.5c-8.8,0-17.6,0-26.4,0c-0.7,3.7-1.3,7.3-2,10.9
					c-0.6,3.1-1.1,6.1-1.7,9.2c-0.1,0.6-0.2,1.1,0.7,1.1c10.8,0,21.5,0,32.3,0c0.8,0,0.9-0.3,0.8-1c-0.5-2.8-1.1-5.7-1.6-8.5
					C102.1,171.2,101.4,167.4,100.7,163.5z"/>
				<path class="st10" d="M113.9,132.4c1.1,8,2.1,16.1,3.2,24.2c-19.8,0-39.5,0-59.4,0c1.1-8.1,2.2-16.1,3.3-24.2
					C78.6,132.4,96.1,132.4,113.9,132.4z"/>
				<path class="st11" d="M100.7,163.5c0.7,3.9,1.4,7.7,2.1,11.6c0.5,2.8,1.1,5.7,1.6,8.5c0.1,0.7,0,1-0.8,1c-10.8,0-21.5,0-32.3,0
					c-0.9,0-0.8-0.5-0.7-1.1c0.6-3.1,1.1-6.1,1.7-9.2c0.7-3.6,1.3-7.2,2-10.9C83,163.5,91.9,163.5,100.7,163.5z M77.8,182.1
					c0.6,0,1.3,0,1.9,0c1.9,0,1.9,0,1.9-2c0-0.9-0.3-1.1-1.1-1.1c-1.4,0-2.8,0-4.2,0c-1.9,0-1.9,0-2.2,1.9c-0.1,0.8,0.1,1.2,1,1.2
					C76,182.1,76.9,182.1,77.8,182.1z M97.1,182.1L97.1,182.1c0.6,0,1.2,0,1.8,0c2,0,2,0,1.9-2c-0.1-0.8-0.5-1.1-1.2-1.1
					c-1.4,0-2.9,0-4.3,0c-2,0-2.1,0.1-2,2.1c0,0.7,0.3,1,1,1C95.2,182.1,96.2,182.1,97.1,182.1z M87.4,182.1L87.4,182.1
					c0.6,0,1.2,0,1.8,0c1.8,0,1.8,0,1.8-1.9v-0.1c0-0.9-0.3-1.1-1.1-1.2c-1.3,0-2.6,0-4,0c-2,0-2.1,0.1-2,2.2c0,0.7,0.3,0.9,1,0.9
					C85.7,182.1,86.6,182.1,87.4,182.1z M96.7,177.4L96.7,177.4c0.8,0,1.7,0,2.5,0c0.6,0,1-0.1,1-0.9c0-1.3-0.2-1.6-1-1.6
					c-1.7,0-3.3,0-5,0c-0.8,0-1,0.5-1,1.2s0,1.3,0.9,1.3C95.1,177.4,95.9,177.4,96.7,177.4z M78.3,177.4L78.3,177.4
					c0.9,0,1.7,0,2.6,0c0.7,0,0.9-0.5,0.9-1.1s0.1-1.4-0.7-1.4c-1.8-0.1-3.5-0.1-5.3,0c-1,0-0.8,0.9-0.8,1.6c0,0.7,0.3,0.9,0.9,0.9
					C76.6,177.4,77.4,177.4,78.3,177.4z M87.5,177.4L87.5,177.4c0.8,0,1.6,0,2.5,0c0.7,0,1-0.4,0.9-1c0-0.7,0.1-1.4-0.9-1.4
					c-1.7,0-3.4,0-5,0c-1,0-0.9,0.8-0.9,1.4c0,0.7,0.2,1,0.9,1C85.8,177.4,86.6,177.4,87.5,177.4z M87.4,169.2L87.4,169.2
					c0.8,0,1.6,0,2.4,0c0.6,0,0.9-0.3,0.9-0.9c0-0.6,0.1-1.4-0.8-1.4c-1.6-0.1-3.1,0-4.7,0c-0.8,0-0.9,0.6-0.9,1.3s0.2,1.1,0.9,1.1
					C85.9,169.2,86.7,169.2,87.4,169.2z M78.6,173.2L78.6,173.2c0.8,0,1.6,0,2.5,0c0.8,0,0.9-0.6,0.9-1.2c0-0.6-0.1-1.2-0.9-1.2
					c-1.6,0-3.2,0-4.8,0c-0.9,0-0.9,0.7-0.9,1.4c0,0.6,0.2,1,0.9,1S77.8,173.2,78.6,173.2z M87.5,173.2L87.5,173.2
					c0.8,0,1.7,0,2.5,0c0.7,0,0.8-0.5,0.8-1.1s0.1-1.3-0.8-1.3c-1.7,0-3.3,0-5,0c-0.9,0-0.8,0.6-0.8,1.2c0,0.6,0.1,1.1,0.9,1.1
					C85.9,173.2,86.7,173.2,87.5,173.2z M96.4,173.2c0.8,0,1.6,0,2.4,0s0.9-0.4,0.9-1.1c0-0.7,0-1.3-0.9-1.3c-1.6,0-3.1,0-4.7,0
					c-1,0-0.9,0.7-0.9,1.3c0,0.7,0.2,1.1,0.9,1C94.8,173.2,95.6,173.2,96.4,173.2z M78.9,169.2c0.7,0,1.5,0,2.2,0
					c0.8,0,0.9-0.5,0.9-1.2s-0.1-1.2-0.9-1.2c-1.5,0-2.9,0-4.4,0c-0.8,0-0.9,0.5-1,1.2c0,0.7,0.2,1.1,0.9,1.1
					C77.5,169.2,78.2,169.2,78.9,169.2z M96,169.2L96,169.2c0.7,0,1.5,0,2.2,0s0.9-0.4,0.9-1.1c0-0.7-0.1-1.3-0.9-1.3
					c-1.5,0-2.9,0-4.4,0c-1,0-0.8,0.8-0.9,1.4c0,0.7,0.3,0.9,0.9,0.9C94.6,169.2,95.3,169.2,96,169.2z"/>
				<path class="st0" d="M77.8,182.1c-0.9,0-1.9,0-2.8,0s-1.1-0.4-1-1.2c0.3-1.9,0.3-1.9,2.2-1.9c1.4,0,2.8,0,4.2,0
					c0.9,0,1.1,0.3,1.1,1.1c0,1.9,0,2-1.9,2C79.1,182.1,78.5,182.1,77.8,182.1z"/>
				<path class="st0" d="M97.1,182.1c-0.9,0-1.9,0-2.8,0c-0.7,0-1-0.3-1-1c-0.1-2,0-2.1,2-2.1c1.4,0,2.9,0,4.3,0
					c0.8,0,1.1,0.3,1.2,1.1c0.2,2,0.2,2-1.9,2C98.3,182.1,97.7,182.1,97.1,182.1L97.1,182.1z"/>
				<path class="st0" d="M87.4,182.1c-0.9,0-1.7,0-2.6,0c-0.6,0-0.9-0.3-1-0.9c-0.1-2,0-2.2,2-2.2c1.3,0,2.6,0,4,0
					c0.8,0,1.1,0.3,1.1,1.2v0.1c0,1.9,0,1.9-1.8,1.9C88.6,182.1,88,182.1,87.4,182.1L87.4,182.1z"/>
				<path class="st0" d="M96.7,177.4c-0.8,0-1.7,0-2.5,0c-0.9,0-0.9-0.6-0.9-1.3s0.1-1.2,1-1.2c1.7,0,3.3,0,5,0c0.8,0,1,0.4,1,1.6
					c0,0.7-0.4,0.9-1,0.9C98.4,177.4,97.5,177.4,96.7,177.4L96.7,177.4z"/>
				<path class="st0" d="M78.3,177.4c-0.8,0-1.6,0-2.5,0c-0.6,0-1-0.2-0.9-0.9c0-0.7-0.2-1.5,0.8-1.6c1.8-0.1,3.5-0.1,5.3,0
					c0.9,0,0.7,0.8,0.7,1.4c0,0.6-0.2,1-0.9,1.1C80,177.4,79.1,177.4,78.3,177.4L78.3,177.4z"/>
				<path class="st0" d="M87.5,177.4c-0.8,0-1.6,0-2.5,0c-0.7,0-1-0.4-0.9-1c0-0.7-0.1-1.4,0.9-1.4c1.7,0,3.4,0,5,0
					c1,0,0.9,0.8,0.9,1.4c0,0.7-0.2,1.1-0.9,1C89.1,177.4,88.3,177.4,87.5,177.4L87.5,177.4z"/>
				<path class="st0" d="M87.4,169.2c-0.7,0-1.5,0-2.2,0s-0.9-0.4-0.9-1.1c0-0.7,0-1.3,0.9-1.3c1.6,0,3.1,0,4.7,0
					c0.9,0,0.8,0.8,0.8,1.4c0,0.6-0.3,0.9-0.9,0.9C89,169.2,88.2,169.2,87.4,169.2L87.4,169.2z"/>
				<path class="st0" d="M78.6,173.2c-0.8,0-1.6,0-2.4,0c-0.7,0-0.9-0.3-0.9-1c0-0.6,0-1.3,0.9-1.4c1.6,0,3.2,0,4.8,0
					c0.8,0,0.9,0.6,0.9,1.2c0,0.6,0,1.2-0.9,1.2C80.3,173.2,79.4,173.2,78.6,173.2L78.6,173.2z"/>
				<path class="st0" d="M87.5,173.2c-0.8,0-1.6,0-2.4,0s-0.9-0.5-0.9-1.1s0-1.2,0.8-1.2c1.7,0,3.3,0,5,0c0.9,0,0.7,0.7,0.8,1.3
					c0,0.6-0.1,1.1-0.8,1.1C89.1,173.2,88.3,173.2,87.5,173.2L87.5,173.2z"/>
				<path class="st0" d="M96.4,173.2c-0.8,0-1.5,0-2.3,0c-0.7,0-1-0.4-0.9-1c0-0.6-0.1-1.3,0.9-1.3c1.6,0,3.1,0,4.7,0
					c0.9,0,0.9,0.7,0.9,1.3s-0.1,1.1-0.9,1.1C98,173.2,97.2,173.2,96.4,173.2z"/>
				<path class="st0" d="M78.9,169.2c-0.7,0-1.4,0-2.1,0c-0.8,0-0.9-0.5-0.9-1.1c0-0.7,0.1-1.2,1-1.2c1.5,0,2.9,0,4.4,0
					c0.8,0,0.9,0.5,0.9,1.2c0,0.6-0.1,1.2-0.9,1.2C80.4,169.2,79.6,169.2,78.9,169.2z"/>
				<path class="st0" d="M96,169.2c-0.7,0-1.4,0-2.1,0c-0.6,0-1-0.2-0.9-0.9c0-0.7-0.1-1.4,0.9-1.4c1.5,0,2.9,0,4.4,0
					c0.8,0,0.9,0.6,0.9,1.3s-0.2,1.1-0.9,1.1C97.5,169.2,96.7,169.2,96,169.2L96,169.2z"/>
			</g>
		</g>
		<polygon class="st0" points="124.5,193.2 51,193.2 51.2,191.3 123.7,191.3 		"/>
	</g>
	<g>
		<path class="st0" d="M184.8,243c-5.5,0-10-4.5-10-9.9v-184c0-5.5,4.5-9.9,9.9-9.9h66.6c5.5,0,9.9,4.5,9.9,9.9v184
			c0,5.5-4.5,9.9-9.9,9.9H184.8z"/>
		<g>
			<path class="st4" d="M181.6,136.6c-1.3,0-2.4-0.9-2.4-2.1v-1.4c0-1.2,1.1-2.1,2.4-2.1h73c1.3,0,2.4,0.9,2.4,2.1v1.4
				c0,1.2-1.1,2.1-2.4,2.1H181.6z"/>
			<g>
				<path class="st0" d="M181.6,136.4c-1.9,0-3.5-1.4-3.5-3.1v-1.4c0-1.7,1.6-3.1,3.5-3.1h73c1.9,0,3.5,1.4,3.5,3.1v1.4
					c0,1.7-1.6,3.1-3.5,3.1H181.6z"/>
				<path class="st0" d="M181.6,135.4c-1.3,0-2.4-0.9-2.4-2.1v-1.4c0-1.2,1.1-2.1,2.4-2.1h73c1.3,0,2.4,0.9,2.4,2.1v1.4
					c0,1.2-1.1,2.1-2.4,2.1H181.6z"/>
				<path class="st5" d="M254.6,130.7h-73c-0.8,0-1.4,0.5-1.4,1.2v1.4c0,0.6,0.6,1.2,1.4,1.2h73c0.8,0,1.4-0.5,1.4-1.2v-1.4
					C256.1,131.2,255.5,130.7,254.6,130.7z"/>
				<path class="st6" d="M254.6,132.9h-73c-0.8,0-1.4-0.5-1.4-1.1v0.1v1.4c0,0.6,0.6,1.2,1.4,1.2h73c0.8,0,1.4-0.5,1.4-1.2v-1.4
					v-0.1C256,132.4,255.4,132.9,254.6,132.9z"/>
			</g>
		</g>
		<g>
			<g>
				<path class="st4" d="M181.6,91.9c-1.3,0-2.4-0.9-2.4-2.1v-1.4c0-1.2,1.1-2.1,2.4-2.1H254c1.3,0,2.4,0.9,2.4,2.1v1.4
					c0,1.2-1.1,2.1-2.4,2.1H181.6z"/>
				<g>
					<path class="st0" d="M181.6,91.7c-1.9,0-3.5-1.4-3.5-3.1v-1.4c0-1.7,1.6-3.1,3.5-3.1H254c1.9,0,3.5,1.4,3.5,3.1v1.4
						c0,1.7-1.6,3.1-3.5,3.1H181.6z"/>
					<path class="st0" d="M181.6,90.7c-1.3,0-2.4-0.9-2.4-2.1v-1.4c0-1.2,1.1-2.1,2.4-2.1H254c1.3,0,2.4,0.9,2.4,2.1v1.4
						c0,1.2-1.1,2.1-2.4,2.1H181.6z"/>
					<path class="st5" d="M254.1,86h-72.4c-0.8,0-1.4,0.5-1.4,1.2v1.4c0,0.6,0.6,1.2,1.4,1.2h72.4c0.8,0,1.4-0.5,1.4-1.2v-1.4
						C255.5,86.5,254.9,86,254.1,86z"/>
					<path class="st6" d="M254.1,88.1h-72.4c-0.8,0-1.4-0.5-1.4-1.1v0.1v1.4c0,0.6,0.6,1.2,1.4,1.2h72.4c0.8,0,1.4-0.5,1.4-1.2v-1.4
						V87C255.4,87.7,254.8,88.1,254.1,88.1z"/>
				</g>
			</g>
			<g>
				<path class="st4" d="M181.6,185.7c-1.3,0-2.4-0.9-2.4-2.1v-1.4c0-1.2,1.1-2.1,2.4-2.1h73c1.3,0,2.4,0.9,2.4,2.1v1.4
					c0,1.2-1.1,2.1-2.4,2.1H181.6z"/>
				<g>
					<path class="st0" d="M181.6,185.5c-1.9,0-3.5-1.4-3.5-3.1V181c0-1.7,1.6-3.1,3.5-3.1h73c1.9,0,3.5,1.4,3.5,3.1v1.4
						c0,1.7-1.6,3.1-3.5,3.1H181.6z"/>
					<path class="st0" d="M181.6,184.5c-1.3,0-2.4-0.9-2.4-2.1V181c0-1.2,1.1-2.1,2.4-2.1h73c1.3,0,2.4,0.9,2.4,2.1v1.4
						c0,1.2-1.1,2.1-2.4,2.1H181.6z"/>
					<path class="st5" d="M254.6,179.8h-73c-0.8,0-1.4,0.5-1.4,1.2v1.4c0,0.6,0.6,1.2,1.4,1.2h73c0.8,0,1.4-0.5,1.4-1.2V181
						C256.1,180.3,255.5,179.8,254.6,179.8z"/>
					<path class="st6" d="M254.6,182h-73c-0.8,0-1.4-0.5-1.4-1.1v0.1v1.4c0,0.6,0.6,1.2,1.4,1.2h73c0.8,0,1.4-0.5,1.4-1.2V181v-0.1
						C256,181.5,255.4,182,254.6,182z"/>
				</g>
			</g>
			<g>
				<path class="st0" d="M195.9,108c-0.3,0-0.5,0-0.8-0.1c-0.9-0.1-1.7-0.2-2.6-0.2s-1.7,0.1-2.6,0.2c-0.3,0.1-0.5,0.1-0.8,0.1
					c-2.4,0-4.4-1.7-4.4-3.8v-5.5c0-1.8,1.4-3.3,3.4-3.7c1.4-0.3,2.9-0.4,4.3-0.4s2.9,0.2,4.3,0.4c2,0.4,3.4,2,3.4,3.7v5.5
					c0,1-0.5,2.1-1.4,2.8C198.1,107.7,197,108,195.9,108z"/>
				<path class="st0" d="M195.9,107.1c-0.2,0-0.4,0-0.6-0.1c-0.9-0.2-1.8-0.2-2.7-0.2s-1.8,0.1-2.7,0.2c-0.2,0.1-0.4,0.1-0.6,0.1
					c-1.8,0-3.4-1.2-3.4-2.8v-5.5c0-1.3,1.1-2.4,2.6-2.8c1.4-0.3,2.7-0.4,4.1-0.4s2.8,0.1,4.1,0.4c1.5,0.3,2.6,1.5,2.6,2.8v5.5
					c0,0.8-0.4,1.5-1,2C197.5,106.8,196.7,107.1,195.9,107.1z"/>
				<path class="st1" d="M196.3,97.2c-2.5-0.5-5.1-0.5-7.5,0c-0.9,0.2-1.5,0.8-1.5,1.5v5.5c0,1,1.1,1.7,2.2,1.5c2-0.3,4-0.3,6,0
					c1.1,0.2,2.2-0.5,2.2-1.5v-5.5C197.7,98,197.1,97.5,196.3,97.2z"/>
				<path class="st5" d="M196.3,97.2c-2.5-0.5-5.1-0.5-7.5,0c-0.9,0.2-1.5,0.8-1.5,1.5v0.8c0-0.7,0.6-1.4,1.5-1.5
					c2.5-0.5,5.1-0.5,7.5,0c0.9,0.2,1.5,0.8,1.5,1.5v-0.8C197.7,98,197.1,97.5,196.3,97.2z"/>
				<path class="st0" d="M184.9,130.9c-3.4,0-6.1-2.3-6.1-5.2v-14.8c0-6.3,6.1-11.4,13.7-11.4s13.7,5.1,13.7,11.4v14.8
					c0,2.9-2.7,5.2-6.1,5.2H184.9z"/>
				<path class="st0" d="M184.9,129.9c-2.8,0-5.1-1.9-5.1-4.2v-14.8c0-5.8,5.6-10.5,12.6-10.5s12.6,4.7,12.6,10.5v14.8
					c0,2.3-2.3,4.2-5.1,4.2H184.9z"/>
				<path class="st1" d="M200.4,128.6h-15.8c-1.8,0-3.2-1.5-3.2-3.2v-13.6c0-5.6,4.5-10.1,10.1-10.1h2.1c5.6,0,10.1,4.5,10.1,10.1
					v13.6C203.6,127.2,202.2,128.6,200.4,128.6z"/>
				<path class="st13" d="M201.6,105.7c0.7,1.2,1.1,2.7,1.1,4.2v13c0,1.6-1.4,2.9-3.1,2.9h-14.3c-1.7,0-3.1-1.3-3.1-2.9v-13
					c0-1.5,0.4-2.9,1.1-4.2c-1.2,1.6-2,3.5-2,5.6v14.1c0,1.7,1.5,3.1,3.4,3.1h15.5c1.8,0,3.4-1.4,3.4-3.1v-14.1
					C203.6,109.3,202.9,107.3,201.6,105.7z"/>
				<path class="st0" d="M192.5,121.6c-3.9,0-7.8-0.3-11.6-1l-0.6-0.1c-0.2-0.1-0.4-0.1-0.5-0.3c-0.5-0.1-0.9-0.5-0.9-1v-8.3
					c0-0.2,0-0.3,0-0.4l0.1-1.5c0-0.3,0.2-0.5,0.4-0.7s0.4-0.2,0.7-0.2c0.1,0,0.1,0,0.2,0l1.7,0.3c3.5,0.6,7.1,0.9,10.6,0.9
					s7.1-0.3,10.6-0.9l1.7-0.3c0.1,0,0.1,0,0.2,0c0.2,0,0.5,0.1,0.7,0.2c0.2,0.2,0.4,0.4,0.4,0.7l0.1,1.5c0,0.1,0,0.3,0,0.4v8.3
					c0,0.5-0.4,0.9-0.9,1c-0.2,0.1-0.3,0.2-0.5,0.3l-0.6,0.1C200.3,121.2,196.4,121.6,192.5,121.6z"/>
				<path class="st0" d="M192.5,120.6c-3.8,0-7.7-0.3-11.4-1l-0.6-0.1l0.1-0.3h-0.7v-8.3c0-0.1,0-0.2,0-0.4l0.1-1.5l1.7,0.3
					c3.6,0.7,7.2,0.9,10.8,0.9s7.2-0.3,10.8-0.9l1.7-0.3l0.1,1.5c0,0.1,0,0.2,0,0.3v8.3h-0.7l0.1,0.3l-0.6,0.1
					C200.2,120.3,196.3,120.6,192.5,120.6z"/>
				<path class="st0" d="M192.5,120c-3.7,0-7.5-0.3-11.3-1l0.1-0.4h-0.8v-7.8c0-0.1,0-0.2,0-0.3l0.1-0.9l1,0.2c3.6,0.7,7.3,1,10.9,1
					s7.3-0.3,10.9-1l1-0.2l0.1,0.9c0,0.1,0,0.2,0,0.3v7.8h-0.8l0.1,0.4C200.1,119.7,196.3,120,192.5,120z"/>
				<path class="st5" d="M203.6,110.5c-7.3,1.3-14.9,1.3-22.2,0c0,0.1,0,0.2,0,0.3v0.9v5.9v0.9c0-0.1,0-0.2,0-0.3
					c7.3,1.3,14.9,1.3,22.2,0c0,0.1,0,0.2,0,0.3v-0.9v-5.9v-0.9C203.6,110.8,203.6,110.6,203.6,110.5z"/>
			</g>
			<g>
				<path class="st0" d="M221.3,108c-0.3,0-0.5,0-0.8-0.1c-0.9-0.1-1.7-0.2-2.6-0.2s-1.7,0.1-2.6,0.2c-0.3,0.1-0.5,0.1-0.8,0.1
					c-2.4,0-4.4-1.7-4.4-3.8v-5.5c0-1.8,1.4-3.3,3.4-3.7c1.4-0.3,2.9-0.4,4.3-0.4c1.5,0,2.9,0.2,4.3,0.4c2,0.4,3.4,2,3.4,3.7v5.5
					c0,1-0.5,2.1-1.4,2.8C223.5,107.7,222.4,108,221.3,108z"/>
				<path class="st0" d="M221.3,107.1c-0.2,0-0.4,0-0.6-0.1c-0.9-0.2-1.8-0.2-2.7-0.2s-1.8,0.1-2.7,0.2c-0.2,0.1-0.4,0.1-0.6,0.1
					c-1.8,0-3.4-1.2-3.4-2.8v-5.5c0-1.3,1.1-2.4,2.6-2.8c1.4-0.3,2.7-0.4,4.1-0.4s2.8,0.1,4.1,0.4c1.5,0.3,2.6,1.5,2.6,2.8v5.5
					c0,0.8-0.4,1.5-1,2C222.9,106.8,222.1,107.1,221.3,107.1z"/>
				<path class="st8" d="M221.7,97.2c-2.5-0.5-5.1-0.5-7.5,0c-0.9,0.2-1.5,0.8-1.5,1.5v5.5c0,1,1.1,1.7,2.2,1.5c2-0.3,4-0.3,6,0
					c1.1,0.2,2.2-0.5,2.2-1.5v-5.5C223.1,98,222.5,97.5,221.7,97.2z"/>
				<path class="st5" d="M221.7,97.2c-2.5-0.5-5.1-0.5-7.5,0c-0.9,0.2-1.5,0.8-1.5,1.5v0.8c0-0.7,0.6-1.4,1.5-1.5
					c2.5-0.5,5.1-0.5,7.5,0c0.9,0.2,1.5,0.8,1.5,1.5v-0.8C223.1,98,222.5,97.5,221.7,97.2z"/>
				<path class="st0" d="M210.3,130.9c-3.4,0-6.1-2.3-6.1-5.2v-14.8c0-6.3,6.1-11.4,13.7-11.4c7.5,0,13.7,5.1,13.7,11.4v14.8
					c0,2.9-2.7,5.2-6.1,5.2H210.3z"/>
				<path class="st0" d="M210.3,129.9c-2.8,0-5.1-1.9-5.1-4.2v-14.8c0-5.8,5.6-10.5,12.6-10.5s12.6,4.7,12.6,10.5v14.8
					c0,2.3-2.3,4.2-5.1,4.2H210.3z"/>
				<path class="st8" d="M225.8,128.6H210c-1.8,0-3.2-1.5-3.2-3.2v-13.6c0-5.6,4.5-10.1,10.1-10.1h2.1c5.6,0,10.1,4.5,10.1,10.1
					v13.6C229,127.2,227.5,128.6,225.8,128.6z"/>
				<path class="st9" d="M227,105.7c0.7,1.2,1.1,2.7,1.1,4.2v13c0,1.6-1.4,2.9-3.1,2.9h-14.3c-1.7,0-3.1-1.3-3.1-2.9v-13
					c0-1.5,0.4-2.9,1.1-4.2c-1.2,1.6-2,3.5-2,5.6v14.1c0,1.7,1.5,3.1,3.4,3.1h15.5c1.8,0,3.4-1.4,3.4-3.1v-14.1
					C229,109.3,228.3,107.3,227,105.7z"/>
				<path class="st0" d="M217.9,121.6c-3.9,0-7.8-0.3-11.6-1l-0.6-0.1c-0.2-0.1-0.4-0.1-0.5-0.3c-0.5-0.1-0.9-0.5-0.9-1v-8.3
					c0-0.2,0-0.3,0-0.4l0.1-1.5c0-0.3,0.2-0.5,0.4-0.7s0.4-0.2,0.7-0.2c0.1,0,0.1,0,0.2,0l1.7,0.3c3.5,0.6,7.1,0.9,10.6,0.9
					s7.1-0.3,10.6-0.9l1.7-0.3c0.1,0,0.1,0,0.2,0c0.2,0,0.5,0.1,0.7,0.2c0.2,0.2,0.4,0.4,0.4,0.7l0.1,1.5c0,0.1,0,0.3,0,0.4v8.3
					c0,0.5-0.4,0.9-0.9,1c-0.2,0.1-0.3,0.2-0.5,0.3l-0.6,0.1C225.6,121.2,221.8,121.6,217.9,121.6z"/>
				<path class="st0" d="M217.9,120.6c-3.8,0-7.7-0.3-11.4-1l-0.6-0.1l0.1-0.3h-0.7v-8.3c0-0.1,0-0.2,0-0.4l0.1-1.5l1.7,0.3
					c3.6,0.7,7.2,0.9,10.8,0.9s7.2-0.3,10.8-0.9l1.7-0.3l0.1,1.5c0,0.1,0,0.2,0,0.3v8.3h-0.7l0.1,0.3l-0.6,0.1
					C225.5,120.3,221.7,120.6,217.9,120.6z"/>
				<path class="st0" d="M217.9,120c-3.7,0-7.5-0.3-11.3-1l0.1-0.4h-0.8v-7.8c0-0.1,0-0.2,0-0.3l0.1-0.9l1,0.2c3.6,0.7,7.3,1,10.9,1
					s7.3-0.3,10.9-1l1-0.2l0.1,0.9c0,0.1,0,0.2,0,0.3v7.8h-0.8l0.1,0.4C225.5,119.7,221.7,120,217.9,120z"/>
				<path class="st5" d="M229,110.5c-7.3,1.3-14.9,1.3-22.2,0c0,0.1,0,0.2,0,0.3v0.9v5.9v0.9c0-0.1,0-0.2,0-0.3
					c7.3,1.3,14.9,1.3,22.2,0c0,0.1,0,0.2,0,0.3v-0.9v-5.9v-0.9C229,110.8,229,110.6,229,110.5z"/>
			</g>
			<g>
				<path class="st0" d="M246.6,108c-0.3,0-0.5,0-0.8-0.1c-0.9-0.1-1.7-0.2-2.6-0.2c-0.9,0-1.7,0.1-2.6,0.2
					c-0.3,0.1-0.5,0.1-0.8,0.1c-2.4,0-4.4-1.7-4.4-3.8v-5.5c0-1.8,1.4-3.3,3.4-3.7c1.4-0.3,2.9-0.4,4.3-0.4c1.5,0,2.9,0.2,4.3,0.4
					c2,0.4,3.4,2,3.4,3.7v5.5c0,1-0.5,2.1-1.4,2.8C248.9,107.7,247.8,108,246.6,108z"/>
				<path class="st0" d="M246.6,107.1c-0.2,0-0.4,0-0.6-0.1c-0.9-0.2-1.8-0.2-2.7-0.2s-1.8,0.1-2.7,0.2c-0.2,0.1-0.4,0.1-0.6,0.1
					c-1.8,0-3.4-1.2-3.4-2.8v-5.5c0-1.3,1.1-2.4,2.6-2.8c1.4-0.3,2.7-0.4,4.1-0.4s2.8,0.1,4.1,0.4c1.5,0.3,2.6,1.5,2.6,2.8v5.5
					c0,0.8-0.4,1.5-1,2C248.3,106.8,247.5,107.1,246.6,107.1z"/>
				<path class="st4" d="M247.1,97.2c-2.5-0.5-5.1-0.5-7.5,0c-0.9,0.2-1.5,0.8-1.5,1.5v5.5c0,1,1.1,1.7,2.2,1.5c2-0.3,4-0.3,6,0
					c1.1,0.2,2.2-0.5,2.2-1.5v-5.5C248.5,98,247.9,97.5,247.1,97.2z"/>
				<path class="st5" d="M247.1,97.2c-2.5-0.5-5.1-0.5-7.5,0c-0.9,0.2-1.5,0.8-1.5,1.5v0.8c0-0.7,0.6-1.4,1.5-1.5
					c2.5-0.5,5.1-0.5,7.5,0c0.9,0.2,1.5,0.8,1.5,1.5v-0.8C248.5,98,247.9,97.5,247.1,97.2z"/>
				<path class="st0" d="M235.7,130.9c-3.4,0-6.1-2.3-6.1-5.2v-14.8c0-6.3,6.1-11.4,13.7-11.4c7.5,0,13.7,5.1,13.7,11.4v14.8
					c0,2.9-2.7,5.2-6.1,5.2H235.7z"/>
				<path class="st0" d="M235.7,129.9c-2.8,0-5.1-1.9-5.1-4.2v-14.8c0-5.8,5.6-10.5,12.6-10.5s12.6,4.7,12.6,10.5v14.8
					c0,2.3-2.3,4.2-5.1,4.2H235.7z"/>
				<path class="st10" d="M251.1,128.6h-15.8c-1.8,0-3.2-1.5-3.2-3.2v-13.6c0-5.6,4.5-10.1,10.1-10.1h2.1c5.6,0,10.1,4.5,10.1,10.1
					v13.6C254.4,127.2,252.9,128.6,251.1,128.6z"/>
				<path class="st4" d="M252.4,105.7c0.7,1.2,1.1,2.7,1.1,4.2v13c0,1.6-1.4,2.9-3.1,2.9h-14.3c-1.7,0-3.1-1.3-3.1-2.9v-13
					c0-1.5,0.4-2.9,1.1-4.2c-1.2,1.6-2,3.5-2,5.6v14.1c0,1.7,1.5,3.1,3.4,3.1H251c1.8,0,3.4-1.4,3.4-3.1v-14.1
					C254.4,109.3,253.6,107.3,252.4,105.7z"/>
				<path class="st0" d="M243.3,121.6c-3.9,0-7.8-0.3-11.6-1l-0.6-0.1c-0.2-0.1-0.4-0.1-0.5-0.3c-0.5-0.1-0.9-0.5-0.9-1v-8.3
					c0-0.2,0-0.3,0-0.4l0.1-1.5c0-0.3,0.2-0.5,0.4-0.7s0.4-0.2,0.7-0.2c0.1,0,0.1,0,0.2,0l1.7,0.3c3.5,0.6,7.1,0.9,10.6,0.9
					s7.1-0.3,10.6-0.9l1.7-0.3c0.1,0,0.1,0,0.2,0c0.2,0,0.5,0.1,0.7,0.2c0.2,0.2,0.4,0.4,0.4,0.7l0.1,1.5c0,0.1,0,0.3,0,0.4v8.3
					c0,0.5-0.4,0.9-0.9,1c-0.2,0.1-0.3,0.2-0.5,0.3l-0.6,0.1C251,121.2,247.2,121.6,243.3,121.6z"/>
				<path class="st0" d="M243.3,120.6c-3.8,0-7.7-0.3-11.4-1l-0.6-0.1l0.1-0.3h-0.7v-8.3c0-0.1,0-0.2,0-0.4l0.1-1.5l1.7,0.3
					c3.6,0.7,7.2,0.9,10.8,0.9s7.2-0.3,10.8-0.9l1.7-0.3l0.1,1.5c0,0.1,0,0.2,0,0.3v8.3h-0.7l0.1,0.3l-0.6,0.1
					C250.9,120.3,247.1,120.6,243.3,120.6z"/>
				<path class="st0" d="M243.3,120c-3.7,0-7.5-0.3-11.3-1l0.1-0.4h-0.8v-7.8c0-0.1,0-0.2,0-0.3l0.1-0.9l1,0.2c3.6,0.7,7.3,1,10.9,1
					s7.3-0.3,10.9-1l1-0.2l0.1,0.9c0,0.1,0,0.2,0,0.3v7.8h-0.8l0.1,0.4C250.9,119.7,247.1,120,243.3,120z"/>
				<path class="st5" d="M254.4,110.5c-7.3,1.3-14.9,1.3-22.2,0c0,0.1,0,0.2,0,0.3v0.9v5.9v0.9c0-0.1,0-0.2,0-0.3
					c7.3,1.3,14.9,1.3,22.2,0c0,0.1,0,0.2,0,0.3v-0.9v-5.9v-0.9C254.4,110.8,254.4,110.6,254.4,110.5z"/>
			</g>
			<g>
				<path class="st0" d="M211.5,60.3c-0.9-0.7-1.4-1.7-1.4-2.8V52c0-1.7,1.4-3.3,3.4-3.7c1.4-0.3,2.9-0.4,4.3-0.4s2.9,0.2,4.3,0.4
					c2,0.4,3.4,1.9,3.4,3.7v5.5c0,2.1-2,3.8-4.4,3.8c-0.3,0-0.5,0-0.8-0.1c-0.8-0.2-1.7-0.2-2.6-0.2s-1.7,0.1-2.6,0.2
					c-0.3,0.1-0.5,0.1-0.8,0.1C213.4,61.3,212.3,61,211.5,60.3z"/>
				<path class="st0" d="M212.1,59.5c-0.7-0.5-1-1.2-1-2V52c0-1.3,1.1-2.4,2.6-2.8c1.4-0.3,2.7-0.4,4.1-0.4s2.8,0.1,4.1,0.4
					c1.5,0.3,2.6,1.5,2.6,2.8v5.5c0,1.6-1.5,2.8-3.4,2.8c-0.2,0-0.4,0-0.6-0.1c-0.9-0.2-1.8-0.2-2.7-0.2s-1.8,0.1-2.7,0.2
					c-0.2,0.1-0.4,0.1-0.6,0.1C213.7,60.4,212.9,60.1,212.1,59.5z"/>
				<path class="st10" d="M212.7,52.1v5.5c0,1,1.1,1.7,2.2,1.5c2-0.3,4-0.3,6,0c1.1,0.2,2.2-0.5,2.2-1.5v-5.5c0-0.7-0.6-1.4-1.5-1.5
					c-2.5-0.5-5.1-0.5-7.5,0C213.3,50.7,212.7,51.3,212.7,52.1z"/>
				<path class="st5" d="M212.7,52.1v0.8c0-0.7,0.6-1.4,1.5-1.5c2.5-0.5,5.1-0.5,7.5,0c0.9,0.2,1.5,0.8,1.5,1.5v-0.8
					c0-0.7-0.6-1.4-1.5-1.5c-2.5-0.5-5.1-0.5-7.5,0C213.3,50.7,212.7,51.3,212.7,52.1z"/>
				<path class="st0" d="M210.3,84.2c-3.4,0-6.1-2.3-6.1-5.2V64.2c0-6.3,6.1-11.4,13.7-11.4c7.5,0,13.7,5.1,13.7,11.4V79
					c0,2.8-2.7,5.2-6.1,5.2H210.3z"/>
				<path class="st0" d="M210.4,83.2c-2.8,0-5.1-1.9-5.1-4.2V64.2c0-5.8,5.6-10.5,12.6-10.5s12.6,4.7,12.6,10.5V79
					c0,2.3-2.3,4.2-5.1,4.2H210.4z"/>
				<path class="st10" d="M206.8,78.7V65.1c0-5.6,4.5-10.1,10.1-10.1h2.1c5.6,0,10.1,4.5,10.1,10.1v13.6c0,1.7-1.4,3.2-3.2,3.2
					h-15.8C208.3,81.9,206.8,80.5,206.8,78.7z"/>
				<path class="st4" d="M206.8,64.7v14.1c0,1.7,1.5,3.1,3.4,3.1h15.5c1.8,0,3.4-1.4,3.4-3.1V64.7c0-2.1-0.8-4.1-2-5.6
					c0.7,1.2,1.1,2.7,1.1,4.2v13c0,1.6-1.4,2.9-3.1,2.9h-14.3c-1.7,0-3.1-1.3-3.1-2.9v-13c0-1.5,0.4-2.9,1.1-4.2
					C207.6,60.6,206.8,62.6,206.8,64.7z"/>
				<path class="st0" d="M206.5,73.8l-0.6-0.1c-0.2-0.1-0.4-0.2-0.5-0.3c-0.5-0.1-0.9-0.5-0.9-1v-8.3c0-0.1,0-0.3,0-0.4l0.1-1.5
					c0-0.3,0.2-0.5,0.4-0.7s0.4-0.2,0.7-0.2c0.1,0,0.2,0,0.2,0l1.7,0.3c3.5,0.6,7.1,0.9,10.6,0.9s7.1-0.3,10.6-0.9l1.7-0.3
					c0.1,0,0.1,0,0.2,0c0.2,0,0.5,0.1,0.7,0.2c0.2,0.2,0.4,0.4,0.4,0.7l0.1,1.5c0,0.1,0,0.2,0,0.4v8.3c0,0.5-0.4,0.9-0.9,1
					c-0.2,0.2-0.3,0.2-0.5,0.3l-0.6,0.1c-3.9,0.7-7.8,1-11.6,1C214,74.9,210.2,74.5,206.5,73.8z"/>
				<path class="st0" d="M206.6,72.8l-0.6-0.1l0.1-0.3h-0.7v-8.3c0-0.1,0-0.2,0-0.3l0.1-1.5l1.7,0.3c3.6,0.6,7.2,0.9,10.8,0.9
					s7.2-0.3,10.8-0.9l1.7-0.3l0.1,1.5c0,0.2,0,0.3,0,0.4v8.3h-0.7l0.1,0.3l-0.6,0.1c-3.7,0.7-7.6,1-11.4,1S210.3,73.6,206.6,72.8z"
					/>
				<path class="st0" d="M206.6,72.4l0.1-0.4h-0.8v-7.8c0-0.1,0-0.2,0-0.3L206,63l1,0.2c3.6,0.7,7.3,1,10.9,1s7.3-0.3,10.9-1l1-0.2
					l0.1,0.9c0,0.1,0,0.2,0,0.3V72h-0.8l0.1,0.4c-3.7,0.7-7.5,1-11.3,1C214.1,73.3,210.3,73,206.6,72.4z"/>
				<path class="st5" d="M206.8,64.2v0.9V71v0.9c0-0.1,0-0.2,0-0.3c7.3,1.3,14.9,1.3,22.2,0c0,0.1,0,0.2,0,0.3V71v-5.9v-0.9
					c0-0.1,0-0.2,0-0.3c-7.3,1.3-14.9,1.3-22.2,0C206.8,63.9,206.8,64.1,206.8,64.2z"/>
			</g>
			<g>
				<path class="st0" d="M186.1,60.3c-0.9-0.7-1.4-1.7-1.4-2.8V52c0-1.7,1.4-3.3,3.4-3.7c1.4-0.3,2.9-0.4,4.3-0.4
					c1.5,0,2.9,0.2,4.3,0.4c2,0.4,3.4,1.9,3.4,3.7v5.5c0,2.1-2,3.8-4.4,3.8c-0.3,0-0.5,0-0.8-0.1c-0.8-0.2-1.7-0.2-2.6-0.2
					c-0.9,0-1.7,0.1-2.6,0.2c-0.3,0.1-0.5,0.1-0.8,0.1C188,61.3,187,61,186.1,60.3z"/>
				<path class="st0" d="M186.7,59.5c-0.7-0.5-1-1.2-1-2V52c0-1.3,1.1-2.4,2.6-2.8c1.4-0.3,2.7-0.4,4.1-0.4s2.8,0.1,4.1,0.4
					c1.5,0.3,2.6,1.5,2.6,2.8v5.5c0,1.6-1.5,2.8-3.4,2.8c-0.2,0-0.4,0-0.6-0.1c-0.9-0.2-1.8-0.2-2.7-0.2s-1.8,0.1-2.7,0.2
					c-0.2,0.1-0.4,0.1-0.6,0.1C188.3,60.4,187.5,60.1,186.7,59.5z"/>
				<path class="st8" d="M187.3,52.1v5.5c0,1,1.1,1.7,2.2,1.5c2-0.3,4-0.3,6,0c1.1,0.2,2.2-0.5,2.2-1.5v-5.5c0-0.7-0.6-1.4-1.5-1.5
					c-2.5-0.5-5.1-0.5-7.5,0C187.9,50.7,187.3,51.3,187.3,52.1z"/>
				<path class="st5" d="M187.3,52.1v0.8c0-0.7,0.6-1.4,1.5-1.5c2.5-0.5,5.1-0.5,7.5,0c0.9,0.2,1.5,0.8,1.5,1.5v-0.8
					c0-0.7-0.6-1.4-1.5-1.5c-2.5-0.5-5.1-0.5-7.5,0C187.9,50.7,187.3,51.3,187.3,52.1z"/>
				<path class="st0" d="M184.9,84.2c-3.4,0-6.1-2.3-6.1-5.2V64.2c0-6.3,6.1-11.4,13.7-11.4c7.5,0,13.7,5.1,13.7,11.4V79
					c0,2.8-2.7,5.2-6.1,5.2H184.9z"/>
				<path class="st0" d="M185,83.2c-2.8,0-5.1-1.9-5.1-4.2V64.2c0-5.8,5.6-10.5,12.6-10.5s12.6,4.7,12.6,10.5V79
					c0,2.3-2.3,4.2-5.1,4.2H185z"/>
				<path class="st8" d="M181.4,78.7V65.1c0-5.6,4.5-10.1,10.1-10.1h2.1c5.6,0,10.1,4.5,10.1,10.1v13.6c0,1.7-1.4,3.2-3.2,3.2h-15.8
					C182.9,81.9,181.4,80.5,181.4,78.7z"/>
				<path class="st9" d="M181.4,64.7v14.1c0,1.7,1.5,3.1,3.4,3.1h15.5c1.8,0,3.4-1.4,3.4-3.1V64.7c0-2.1-0.8-4.1-2-5.6
					c0.7,1.2,1.1,2.7,1.1,4.2v13c0,1.6-1.4,2.9-3.1,2.9h-14.3c-1.7,0-3.1-1.3-3.1-2.9v-13c0-1.5,0.4-2.9,1.1-4.2
					C182.2,60.6,181.4,62.6,181.4,64.7z"/>
				<path class="st0" d="M181.1,73.8l-0.6-0.1c-0.2-0.1-0.4-0.2-0.5-0.3c-0.5-0.1-0.9-0.5-0.9-1v-8.3c0-0.1,0-0.3,0-0.4l0.1-1.5
					c0-0.3,0.2-0.5,0.4-0.7s0.4-0.2,0.7-0.2c0.1,0,0.2,0,0.2,0l1.7,0.3c3.5,0.6,7.1,0.9,10.6,0.9s7.1-0.3,10.6-0.9l1.7-0.3
					c0.1,0,0.1,0,0.2,0c0.2,0,0.5,0.1,0.7,0.2c0.2,0.2,0.4,0.4,0.4,0.7l0.1,1.5c0,0.1,0,0.2,0,0.4v8.3c0,0.5-0.4,0.9-0.9,1
					c-0.2,0.2-0.3,0.2-0.5,0.3l-0.6,0.1c-3.9,0.7-7.8,1-11.6,1C188.6,74.9,184.8,74.5,181.1,73.8z"/>
				<path class="st0" d="M181.2,72.8l-0.6-0.1l0.1-0.3H180v-8.3c0-0.1,0-0.2,0-0.3l0.1-1.5l1.7,0.3c3.6,0.6,7.2,0.9,10.8,0.9
					s7.2-0.3,10.8-0.9l1.7-0.3l0.1,1.5c0,0.2,0,0.3,0,0.4v8.3h-0.7l0.1,0.3l-0.6,0.1c-3.7,0.7-7.6,1-11.4,1
					C188.8,73.9,184.9,73.6,181.2,72.8z"/>
				<path class="st0" d="M181.3,72.4l0.1-0.4h-0.8v-7.8c0-0.1,0-0.2,0-0.3l0.1-0.9l1,0.2c3.6,0.7,7.3,1,10.9,1s7.3-0.3,10.9-1l1-0.2
					l0.1,0.9c0,0.1,0,0.2,0,0.3V72h-0.8l0.1,0.4c-3.7,0.7-7.5,1-11.3,1C188.8,73.3,184.9,73,181.3,72.4z"/>
				<path class="st5" d="M181.4,64.2v0.9V71v0.9c0-0.1,0-0.2,0-0.3c7.3,1.3,14.9,1.3,22.2,0c0,0.1,0,0.2,0,0.3V71v-5.9v-0.9
					c0-0.1,0-0.2,0-0.3c-7.3,1.3-14.9,1.3-22.2,0C181.4,63.9,181.4,64.1,181.4,64.2z"/>
			</g>
			<g>
				<path class="st0" d="M246.6,61.3c-0.3,0-0.5,0-0.8-0.1c-0.9-0.1-1.7-0.2-2.6-0.2c-0.9,0-1.7,0.1-2.6,0.2
					c-0.3,0.1-0.5,0.1-0.8,0.1c-2.4,0-4.4-1.7-4.4-3.8V52c0-1.8,1.4-3.3,3.4-3.7c1.4-0.3,2.9-0.4,4.3-0.4c1.5,0,2.9,0.2,4.3,0.4
					c2,0.4,3.4,2,3.4,3.7v5.5c0,1-0.5,2.1-1.4,2.8C248.9,61,247.8,61.3,246.6,61.3z"/>
				<path class="st0" d="M246.6,60.4c-0.2,0-0.4,0-0.6-0.1c-0.9-0.2-1.8-0.2-2.7-0.2s-1.8,0.1-2.7,0.2c-0.2,0.1-0.4,0.1-0.6,0.1
					c-1.8,0-3.4-1.2-3.4-2.8v-5.5c0-1.3,1.1-2.4,2.6-2.8c1.4-0.3,2.7-0.4,4.1-0.4s2.8,0.1,4.1,0.4c1.5,0.3,2.6,1.5,2.6,2.8v5.5
					c0,0.8-0.4,1.5-1,2C248.3,60.1,247.5,60.4,246.6,60.4z"/>
				<path class="st1" d="M247.1,50.5c-2.5-0.5-5.1-0.5-7.5,0c-0.9,0.2-1.5,0.8-1.5,1.5v5.5c0,1,1.1,1.7,2.2,1.5c2-0.3,4-0.3,6,0
					c1.1,0.2,2.2-0.5,2.2-1.5V52C248.5,51.3,247.9,50.7,247.1,50.5z"/>
				<path class="st5" d="M247.1,50.5c-2.5-0.5-5.1-0.5-7.5,0c-0.9,0.2-1.5,0.8-1.5,1.5v0.8c0-0.7,0.6-1.4,1.5-1.5
					c2.5-0.5,5.1-0.5,7.5,0c0.9,0.2,1.5,0.8,1.5,1.5V52C248.5,51.3,247.9,50.7,247.1,50.5z"/>
				<path class="st0" d="M235.7,84.2c-3.4,0-6.1-2.3-6.1-5.2V64.2c0-6.3,6.1-11.4,13.7-11.4c7.5,0,13.7,5.1,13.7,11.4V79
					c0,2.9-2.7,5.2-6.1,5.2H235.7z"/>
				<path class="st0" d="M235.7,83.2c-2.8,0-5.1-1.9-5.1-4.2V64.2c0-5.8,5.6-10.5,12.6-10.5s12.6,4.7,12.6,10.5V79
					c0,2.3-2.3,4.2-5.1,4.2H235.7z"/>
				<path class="st1" d="M251.1,81.9h-15.8c-1.8,0-3.2-1.5-3.2-3.2V65.1c0-5.6,4.5-10.1,10.1-10.1h2.1c5.6,0,10.1,4.5,10.1,10.1
					v13.6C254.4,80.5,252.9,81.9,251.1,81.9z"/>
				<path class="st13" d="M252.4,59c0.7,1.2,1.1,2.7,1.1,4.2v13c0,1.6-1.4,2.9-3.1,2.9h-14.3c-1.7,0-3.1-1.3-3.1-2.9v-13
					c0-1.5,0.4-2.9,1.1-4.2c-1.2,1.6-2,3.5-2,5.6v14.1c0,1.7,1.5,3.1,3.4,3.1H251c1.8,0,3.4-1.4,3.4-3.1v-14
					C254.4,62.6,253.6,60.6,252.4,59z"/>
				<path class="st0" d="M243.3,74.9c-3.9,0-7.8-0.3-11.6-1l-0.6-0.1c-0.2-0.1-0.4-0.1-0.5-0.3c-0.5-0.1-0.9-0.5-0.9-1v-8.3
					c0-0.2,0-0.3,0-0.4l0.1-1.5c0-0.3,0.2-0.5,0.4-0.7s0.4-0.2,0.7-0.2c0.1,0,0.1,0,0.2,0l1.7,0.3c3.5,0.6,7.1,0.9,10.6,0.9
					s7.1-0.3,10.6-0.9l1.7-0.3c0.1,0,0.1,0,0.2,0c0.2,0,0.5,0.1,0.7,0.2c0.2,0.2,0.4,0.4,0.4,0.7l0.1,1.5c0,0.1,0,0.3,0,0.4v8.3
					c0,0.5-0.4,0.9-0.9,1c-0.2,0.1-0.3,0.2-0.5,0.3l-0.6,0.1C251,74.5,247.2,74.9,243.3,74.9z"/>
				<path class="st0" d="M243.3,73.9c-3.8,0-7.7-0.3-11.4-1l-0.6-0.1l0.1-0.3h-0.7v-8.3c0-0.1,0-0.2,0-0.4l0.1-1.5l1.7,0.3
					c3.6,0.7,7.2,0.9,10.8,0.9s7.2-0.3,10.8-0.9l1.7-0.3l0.1,1.5c0,0.1,0,0.2,0,0.3v8.3h-0.7l0.1,0.3l-0.6,0.1
					C250.9,73.6,247.1,73.9,243.3,73.9z"/>
				<path class="st0" d="M243.3,73.3c-3.7,0-7.5-0.3-11.3-1l0.1-0.4h-0.8v-7.8c0-0.1,0-0.2,0-0.3l0.1-0.9l1,0.2
					c3.6,0.7,7.3,1,10.9,1s7.3-0.3,10.9-1l1-0.2l0.1,0.9c0,0.1,0,0.2,0,0.3V72h-0.8l0.1,0.4C250.9,73,247.1,73.3,243.3,73.3z"/>
				<path class="st5" d="M254.4,63.8c-7.3,1.3-14.9,1.3-22.2,0c0,0.1,0,0.2,0,0.3V65v6v0.9c0-0.1,0-0.2,0-0.3
					c7.3,1.3,14.9,1.3,22.2,0c0,0.1,0,0.2,0,0.3V71v-5.9v-0.9C254.4,64.1,254.4,63.9,254.4,63.8z"/>
			</g>
			<g>
				<path class="st4" d="M181.6,228.5c-1.3,0-2.4-0.9-2.4-2.1V225c0-1.2,1.1-2.1,2.4-2.1h73c1.3,0,2.4,0.9,2.4,2.1v1.4
					c0,1.2-1.1,2.1-2.4,2.1H181.6z"/>
				<g>
					<path class="st0" d="M181.6,228.3c-1.9,0-3.5-1.4-3.5-3.1v-1.4c0-1.7,1.6-3.1,3.5-3.1h73c1.9,0,3.5,1.4,3.5,3.1v1.4
						c0,1.7-1.6,3.1-3.5,3.1H181.6z"/>
					<path class="st0" d="M181.6,227.3c-1.3,0-2.4-0.9-2.4-2.1v-1.4c0-1.2,1.1-2.1,2.4-2.1h73c1.3,0,2.4,0.9,2.4,2.1v1.4
						c0,1.2-1.1,2.1-2.4,2.1H181.6z"/>
					<path class="st5" d="M254.6,222.6h-73c-0.8,0-1.4,0.5-1.4,1.2v1.4c0,0.6,0.6,1.2,1.4,1.2h73c0.8,0,1.4-0.5,1.4-1.2v-1.4
						C256.1,223.1,255.5,222.6,254.6,222.6z"/>
					<path class="st6" d="M254.6,224.7h-73c-0.8,0-1.4-0.5-1.4-1.1v0.1v1.4c0,0.6,0.6,1.2,1.4,1.2h73c0.8,0,1.4-0.5,1.4-1.2v-1.4
						v-0.1C256,224.3,255.4,224.7,254.6,224.7z"/>
				</g>
			</g>
		</g>
		<g>
			<path class="st0" d="M193.4,179.9c-6.8,0-10.2-0.9-10.9-3l-1.1-1.8c-0.6-0.2-1.1-0.8-1.1-1.5V154c0-0.3,0.1-0.6,0.2-0.8l2.6-4
				c0.3-0.5,0.9-0.8,1.5-0.8h17.8c0.6,0,1.2,0.3,1.5,0.8l2.5,4c0.2,0.2,0.2,0.5,0.2,0.8v18.1c0,0.1,0,0.2-0.1,0.3l-0.4,1.7
				c-0.1,0.2-0.1,0.3-0.2,0.5l-1.7,2.6C203.4,179.1,200,179.9,193.4,179.9z"/>
			<path class="st0" d="M193.4,178.9c-6.1,0-9.4-0.8-9.9-2.4l-1.5-2.3l0,0c-0.3,0-0.6-0.3-0.6-0.6V154c0-0.1,0.1-0.2,0.1-0.3l2.6-4
				c0.1-0.2,0.3-0.3,0.5-0.3h17.8c0.2,0,0.5,0.1,0.5,0.3l2.5,4c0.1,0.1,0.1,0.2,0.1,0.3v18.1c0,0.1,0,0.1,0,0.1l-0.4,1.7
				c0,0.1-0.1,0.1-0.1,0.2l-1.7,2.7C202.6,178.2,199.3,178.9,193.4,178.9z"/>
			<path class="st10" d="M203.9,172.8v-18.6l-2.2-3.4h-16.6l-2.2,3.4v18.7h0.1l2.1,3.2c0,0,0,0,0,0.1c0,0.7,3.7,1.4,8.4,1.4
				c4.6,0,8.3-0.6,8.4-1.4L203.9,172.8L203.9,172.8L203.9,172.8L203.9,172.8L203.9,172.8z"/>
			<path class="st0" d="M193.4,154.7c-4.8,0-11.1-0.4-11.1-3.8c0-3.4,6.3-3.8,11.1-3.8s11.1,0.4,11.1,3.8S198.2,154.7,193.4,154.7z"
				/>
			<path class="st0" d="M193.4,153.6c-6.6,0-9.9-0.9-9.9-2.8c0-1.8,3.3-2.8,9.9-2.8c6.6,0,9.9,0.9,9.9,2.8
				C203.4,152.7,200,153.6,193.4,153.6z"/>
			<ellipse class="st14" cx="193.4" cy="150.9" rx="8.4" ry="1.4"/>
			<ellipse class="st3" cx="191.6" cy="150.9" rx="6.6" ry="1.1"/>
			<path class="st0" d="M182,173.7l2.2,3l0.7-0.5l-2.2-3.7l-0.8,0.9C182,173.3,181.9,173.6,182,173.7z"/>
			<g>
				<path class="st0" d="M182,173.3c-0.4,0-0.7-0.1-1.1-0.3c-0.4-0.3-0.7-0.7-0.7-1.3v-10.6c0-0.7,0.5-1.4,1.3-1.6l22.9-5.5
					c0.2-0.1,0.3-0.1,0.5-0.1c0.4,0,0.7,0.1,1.1,0.3c0.4,0.3,0.7,0.8,0.7,1.3v11c0,0.7-0.6,1.4-1.3,1.6l-22.9,5.1
					C182.2,173.3,182.1,173.3,182,173.3z"/>
				<path class="st0" d="M182,172.2c-0.1,0-0.3-0.1-0.4-0.1c-0.2-0.1-0.2-0.3-0.2-0.5V161c0-0.3,0.2-0.5,0.5-0.6l22.9-5.5
					c0.1,0,0.1,0,0.2,0c0.1,0,0.3,0.1,0.4,0.1c0.2,0.1,0.2,0.3,0.2,0.5v11c0,0.3-0.2,0.5-0.5,0.6l-22.9,5.1
					C182,172.2,182,172.2,182,172.2z"/>
				<polygon class="st3" points="182.9,161.6 182.9,170.5 203.9,166.1 203.9,156.8 				"/>
			</g>
		</g>
		<g>
			<path class="st0" d="M218.3,179.9c-6.8,0-10.2-0.9-10.9-3l-1.1-1.8c-0.6-0.2-1.1-0.8-1.1-1.5V154c0-0.3,0.1-0.6,0.2-0.8l2.6-4
				c0.3-0.5,0.9-0.8,1.5-0.8h17.8c0.6,0,1.2,0.3,1.5,0.8l2.5,4c0.2,0.2,0.2,0.5,0.2,0.8v18.1c0,0.1,0,0.2-0.1,0.3l-0.4,1.7
				c-0.1,0.2-0.1,0.3-0.2,0.5l-1.7,2.6C228.2,179.1,224.8,179.9,218.3,179.9z"/>
			<path class="st0" d="M218.3,178.9c-6.1,0-9.4-0.8-9.9-2.4l-1.5-2.3h-0.1c-0.3,0-0.6-0.3-0.6-0.6V154c0-0.1,0.1-0.2,0.1-0.3l2.6-4
				c0.1-0.2,0.3-0.3,0.5-0.3h17.8c0.2,0,0.5,0.1,0.5,0.3l2.5,4c0.1,0.1,0.1,0.2,0.1,0.3v18.1c0,0.1,0,0.1,0,0.1l-0.4,1.7
				c0,0.1-0.1,0.1-0.1,0.2l-1.7,2.7C227.5,178.2,224.1,178.9,218.3,178.9z"/>
			<path class="st1" d="M228.8,172.8v-18.6l-2.2-3.4H210l-2.2,3.4v18.7h0.1l2.1,3.2c0,0,0,0,0,0.1c0,0.7,3.7,1.4,8.4,1.4
				c4.6,0,8.3-0.6,8.4-1.4L228.8,172.8L228.8,172.8L228.8,172.8L228.8,172.8L228.8,172.8z"/>
			<path class="st0" d="M218.3,154.7c-4.8,0-11.1-0.4-11.1-3.8c0-3.4,6.3-3.8,11.1-3.8s11.1,0.4,11.1,3.8
				C229.4,154.3,223.1,154.7,218.3,154.7z"/>
			<path class="st0" d="M218.3,153.6c-6.6,0-9.9-0.9-9.9-2.8c0-1.8,3.3-2.8,9.9-2.8c6.6,0,9.9,0.9,9.9,2.8
				C228.3,152.7,224.9,153.6,218.3,153.6z"/>
			<ellipse class="st14" cx="218.3" cy="150.9" rx="8.4" ry="1.4"/>
			<ellipse class="st3" cx="216.4" cy="150.9" rx="6.6" ry="1.1"/>
			<path class="st0" d="M206.9,173.7l2.2,3l0.7-0.5l-2.2-3.7l-0.8,0.9C206.8,173.3,206.7,173.6,206.9,173.7z"/>
			<g>
				<path class="st0" d="M206.8,173.3c-0.4,0-0.7-0.1-1.1-0.3c-0.4-0.3-0.7-0.7-0.7-1.3v-10.6c0-0.7,0.5-1.4,1.3-1.6l22.9-5.5
					c0.2-0.1,0.3-0.1,0.5-0.1c0.4,0,0.7,0.1,1.1,0.3c0.4,0.3,0.7,0.8,0.7,1.3v11c0,0.7-0.6,1.4-1.3,1.6l-22.9,5.1
					C207.1,173.3,207,173.3,206.8,173.3z"/>
				<path class="st0" d="M206.8,172.2c-0.1,0-0.3-0.1-0.4-0.1c-0.2-0.1-0.2-0.3-0.2-0.5V161c0-0.3,0.2-0.5,0.5-0.6l22.9-5.5
					c0.1,0,0.1,0,0.2,0c0.1,0,0.3,0.1,0.4,0.1c0.2,0.1,0.2,0.3,0.2,0.5v11c0,0.3-0.2,0.5-0.5,0.6l-22.9,5.1
					C206.9,172.2,206.8,172.2,206.8,172.2z"/>
				<polygon class="st3" points="207.8,161.6 207.8,170.5 228.8,166.1 228.8,156.8 				"/>
			</g>
		</g>
		<g>
			<path class="st0" d="M242.8,179.9c-6.8,0-10.2-0.9-10.9-3l-1.1-1.8c-0.6-0.2-1.1-0.8-1.1-1.5V154c0-0.3,0.1-0.6,0.2-0.8l2.6-4
				c0.3-0.5,0.9-0.8,1.5-0.8h17.8c0.6,0,1.2,0.3,1.5,0.8l2.5,4c0.2,0.2,0.2,0.5,0.2,0.8v18.1c0,0.1,0,0.2-0.1,0.3l-0.4,1.7
				c-0.1,0.2-0.1,0.3-0.2,0.5l-1.7,2.6C252.8,179.1,249.4,179.9,242.8,179.9z"/>
			<path class="st0" d="M242.8,178.9c-6.1,0-9.4-0.8-9.9-2.4l-1.5-2.3h-0.1c-0.3,0-0.6-0.3-0.6-0.6V154c0-0.1,0.1-0.2,0.1-0.3l2.6-4
				c0.1-0.2,0.3-0.3,0.5-0.3h17.8c0.2,0,0.5,0.1,0.5,0.3l2.5,4c0.1,0.1,0.1,0.2,0.1,0.3v18.1c0,0.1,0,0.1,0,0.1l-0.4,1.7
				c0,0.1-0.1,0.1-0.1,0.2l-1.7,2.7C252,178.2,248.7,178.9,242.8,178.9z"/>
			<path class="st8" d="M253.3,172.8v-18.6l-2.2-3.4h-16.6l-2.2,3.4v18.7h0.1l2.1,3.2c0,0,0,0,0,0.1c0,0.7,3.7,1.4,8.4,1.4
				c4.6,0,8.3-0.6,8.4-1.4L253.3,172.8L253.3,172.8L253.3,172.8L253.3,172.8L253.3,172.8z"/>
			<path class="st0" d="M242.8,154.7c-4.8,0-11.1-0.4-11.1-3.8c0-3.4,6.3-3.8,11.1-3.8s11.1,0.4,11.1,3.8
				C253.9,154.3,247.6,154.7,242.8,154.7z"/>
			<path class="st0" d="M242.8,153.6c-6.6,0-9.9-0.9-9.9-2.8c0-1.8,3.3-2.8,9.9-2.8c6.6,0,9.9,0.9,9.9,2.8
				C252.8,152.7,249.4,153.6,242.8,153.6z"/>
			<ellipse class="st14" cx="242.8" cy="150.9" rx="8.4" ry="1.4"/>
			<ellipse class="st3" cx="241" cy="150.9" rx="6.6" ry="1.1"/>
			<path class="st0" d="M231.4,173.7l2.2,3l0.7-0.5l-2.2-3.7l-0.8,0.9C231.4,173.3,231.3,173.6,231.4,173.7z"/>
			<g>
				<path class="st0" d="M231.4,173.3c-0.4,0-0.7-0.1-1.1-0.3c-0.4-0.3-0.7-0.7-0.7-1.3v-10.6c0-0.7,0.5-1.4,1.3-1.6l22.9-5.5
					c0.2-0.1,0.3-0.1,0.5-0.1c0.4,0,0.7,0.1,1.1,0.3c0.4,0.3,0.7,0.8,0.7,1.3v11c0,0.7-0.6,1.4-1.3,1.6l-22.9,5.1
					C231.6,173.3,231.5,173.3,231.4,173.3z"/>
				<path class="st0" d="M231.4,172.2c-0.1,0-0.3-0.1-0.4-0.1c-0.2-0.1-0.2-0.3-0.2-0.5V161c0-0.3,0.2-0.5,0.5-0.6l22.9-5.5
					c0.1,0,0.1,0,0.2,0c0.1,0,0.3,0.1,0.4,0.1c0.2,0.1,0.2,0.3,0.2,0.5v11c0,0.3-0.2,0.5-0.5,0.6l-22.9,5.1
					C231.4,172.2,231.4,172.2,231.4,172.2z"/>
				<polygon class="st3" points="232.3,161.6 232.3,170.5 253.3,166.1 253.3,156.8 				"/>
			</g>
		</g>
		<g>
			<path class="st0" d="M193.4,222.6c-6.8,0-10.2-0.9-10.9-3l-1.1-1.8c-0.6-0.2-1.1-0.8-1.1-1.5v-19.6c0-0.3,0.1-0.6,0.2-0.8l2.6-4
				c0.3-0.5,0.9-0.8,1.5-0.8h17.8c0.6,0,1.2,0.3,1.5,0.8l2.5,4c0.2,0.2,0.2,0.5,0.2,0.8v18.1c0,0.1,0,0.2-0.1,0.3l-0.4,1.7
				c-0.1,0.2-0.1,0.3-0.2,0.5l-1.7,2.6C203.4,221.8,200,222.6,193.4,222.6z"/>
			<path class="st0" d="M193.4,221.6c-6.1,0-9.4-0.8-9.9-2.4l-1.5-2.3l0,0c-0.3,0-0.6-0.3-0.6-0.6v-19.7c0-0.1,0.1-0.2,0.1-0.3
				l2.6-4c0.1-0.2,0.3-0.3,0.5-0.3h17.8c0.2,0,0.5,0.1,0.5,0.3l2.5,4c0.1,0.1,0.1,0.2,0.1,0.3v18.1c0,0.1,0,0.1,0,0.1l-0.4,1.7
				c0,0.1-0.1,0.1-0.1,0.2l-1.7,2.7C202.6,220.8,199.3,221.6,193.4,221.6z"/>
			<path class="st1" d="M203.9,215.5v-18.6l-2.2-3.4h-16.6l-2.2,3.4v18.7h0.1l2.1,3.2c0,0,0,0,0,0.1c0,0.7,3.7,1.4,8.4,1.4
				c4.6,0,8.3-0.6,8.4-1.4L203.9,215.5L203.9,215.5L203.9,215.5L203.9,215.5L203.9,215.5z"/>
			<path class="st0" d="M193.4,197.3c-4.8,0-11.1-0.4-11.1-3.8c0-3.4,6.3-3.8,11.1-3.8s11.1,0.4,11.1,3.8
				C204.5,196.9,198.2,197.3,193.4,197.3z"/>
			<path class="st0" d="M193.4,196.3c-6.6,0-9.9-0.9-9.9-2.8c0-1.8,3.3-2.8,9.9-2.8c6.6,0,9.9,0.9,9.9,2.8
				C203.4,195.4,200,196.3,193.4,196.3z"/>
			<ellipse class="st14" cx="193.4" cy="193.5" rx="8.4" ry="1.4"/>
			<ellipse class="st3" cx="191.6" cy="193.5" rx="6.6" ry="1.1"/>
			<path class="st0" d="M182,216.4l2.2,3l0.7-0.5l-2.2-3.7l-0.8,0.9C182,216,181.9,216.2,182,216.4z"/>
			<g>
				<path class="st0" d="M182,216c-0.4,0-0.7-0.1-1.1-0.3c-0.4-0.3-0.7-0.7-0.7-1.3v-10.6c0-0.7,0.5-1.4,1.3-1.6l22.9-5.5
					c0.2-0.1,0.3-0.1,0.5-0.1c0.4,0,0.7,0.1,1.1,0.3c0.4,0.3,0.7,0.8,0.7,1.3v11c0,0.7-0.6,1.4-1.3,1.6l-22.9,5.1
					C182.2,216,182.1,216,182,216z"/>
				<path class="st0" d="M182,214.9c-0.1,0-0.3-0.1-0.4-0.1c-0.2-0.1-0.2-0.3-0.2-0.5v-10.6c0-0.3,0.2-0.5,0.5-0.6l22.9-5.5
					c0.1,0,0.1,0,0.2,0c0.1,0,0.3,0.1,0.4,0.1c0.2,0.1,0.2,0.3,0.2,0.5v11c0,0.3-0.2,0.5-0.5,0.6l-22.9,5.1
					C182,214.9,182,214.9,182,214.9z"/>
				<polygon class="st3" points="182.9,204.3 182.9,213.2 203.9,208.8 203.9,199.5 				"/>
			</g>
		</g>
		<g>
			<path class="st0" d="M218.3,222.6c-6.8,0-10.2-0.9-10.9-3l-1.1-1.8c-0.6-0.2-1.1-0.8-1.1-1.5v-19.6c0-0.3,0.1-0.6,0.2-0.8l2.6-4
				c0.3-0.5,0.9-0.8,1.5-0.8h17.8c0.6,0,1.2,0.3,1.5,0.8l2.5,4c0.2,0.2,0.2,0.5,0.2,0.8v18.1c0,0.1,0,0.2-0.1,0.3l-0.4,1.7
				c-0.1,0.2-0.1,0.3-0.2,0.5l-1.7,2.6C228.2,221.8,224.8,222.6,218.3,222.6z"/>
			<path class="st0" d="M218.3,221.6c-6.1,0-9.4-0.8-9.9-2.4l-1.5-2.3h-0.1c-0.3,0-0.6-0.3-0.6-0.6v-19.7c0-0.1,0.1-0.2,0.1-0.3
				l2.6-4c0.1-0.2,0.3-0.3,0.5-0.3h17.8c0.2,0,0.5,0.1,0.5,0.3l2.5,4c0.1,0.1,0.1,0.2,0.1,0.3v18.1c0,0.1,0,0.1,0,0.1l-0.4,1.7
				c0,0.1-0.1,0.1-0.1,0.2l-1.7,2.7C227.5,220.8,224.1,221.6,218.3,221.6z"/>
			<path class="st8" d="M228.8,215.5v-18.6l-2.2-3.4H210l-2.2,3.4v18.7h0.1l2.1,3.2c0,0,0,0,0,0.1c0,0.7,3.7,1.4,8.4,1.4
				c4.6,0,8.3-0.6,8.4-1.4L228.8,215.5L228.8,215.5L228.8,215.5L228.8,215.5L228.8,215.5z"/>
			<path class="st0" d="M218.3,197.3c-4.8,0-11.1-0.4-11.1-3.8c0-3.4,6.3-3.8,11.1-3.8s11.1,0.4,11.1,3.8
				C229.4,196.9,223.1,197.3,218.3,197.3z"/>
			<path class="st0" d="M218.3,196.3c-6.6,0-9.9-0.9-9.9-2.8c0-1.8,3.3-2.8,9.9-2.8c6.6,0,9.9,0.9,9.9,2.8
				C228.3,195.4,224.9,196.3,218.3,196.3z"/>
			<ellipse class="st14" cx="218.3" cy="193.5" rx="8.4" ry="1.4"/>
			<ellipse class="st3" cx="216.4" cy="193.5" rx="6.6" ry="1.1"/>
			<path class="st0" d="M206.9,216.4l2.2,3l0.7-0.5l-2.2-3.7l-0.8,0.9C206.8,216,206.7,216.2,206.9,216.4z"/>
			<g>
				<path class="st0" d="M206.8,216c-0.4,0-0.7-0.1-1.1-0.3c-0.4-0.3-0.7-0.7-0.7-1.3v-10.6c0-0.7,0.5-1.4,1.3-1.6l22.9-5.5
					c0.2-0.1,0.3-0.1,0.5-0.1c0.4,0,0.7,0.1,1.1,0.3c0.4,0.3,0.7,0.8,0.7,1.3v11c0,0.7-0.6,1.4-1.3,1.6l-22.9,5.1
					C207.1,216,207,216,206.8,216z"/>
				<path class="st0" d="M206.8,214.9c-0.1,0-0.3-0.1-0.4-0.1c-0.2-0.1-0.2-0.3-0.2-0.5v-10.6c0-0.3,0.2-0.5,0.5-0.6l22.9-5.5
					c0.1,0,0.1,0,0.2,0c0.1,0,0.3,0.1,0.4,0.1c0.2,0.1,0.2,0.3,0.2,0.5v11c0,0.3-0.2,0.5-0.5,0.6l-22.9,5.1
					C206.9,214.9,206.8,214.9,206.8,214.9z"/>
				<polygon class="st3" points="207.8,204.3 207.8,213.2 228.8,208.8 228.8,199.5 				"/>
			</g>
		</g>
		<g>
			<path class="st0" d="M242.8,222.6c-6.8,0-10.2-0.9-10.9-3l-1.1-1.8c-0.6-0.2-1.1-0.8-1.1-1.5v-19.6c0-0.3,0.1-0.6,0.2-0.8l2.6-4
				c0.3-0.5,0.9-0.8,1.5-0.8h17.8c0.6,0,1.2,0.3,1.5,0.8l2.5,4c0.2,0.2,0.2,0.5,0.2,0.8v18.1c0,0.1,0,0.2-0.1,0.3l-0.4,1.7
				c-0.1,0.2-0.1,0.3-0.2,0.5l-1.7,2.6C252.8,221.8,249.4,222.6,242.8,222.6z"/>
			<path class="st0" d="M242.8,221.6c-6.1,0-9.4-0.8-9.9-2.4l-1.5-2.3h-0.1c-0.3,0-0.6-0.3-0.6-0.6v-19.7c0-0.1,0.1-0.2,0.1-0.3
				l2.6-4c0.1-0.2,0.3-0.3,0.5-0.3h17.8c0.2,0,0.5,0.1,0.5,0.3l2.5,4c0.1,0.1,0.1,0.2,0.1,0.3v18.1c0,0.1,0,0.1,0,0.1l-0.4,1.7
				c0,0.1-0.1,0.1-0.1,0.2l-1.7,2.7C252,220.8,248.7,221.6,242.8,221.6z"/>
			<path class="st10" d="M253.3,215.5v-18.6l-2.2-3.4h-16.6l-2.2,3.4v18.7h0.1l2.1,3.2c0,0,0,0,0,0.1c0,0.7,3.7,1.4,8.4,1.4
				c4.6,0,8.3-0.6,8.4-1.4L253.3,215.5L253.3,215.5L253.3,215.5L253.3,215.5L253.3,215.5z"/>
			<path class="st0" d="M242.8,197.3c-4.8,0-11.1-0.4-11.1-3.8c0-3.4,6.3-3.8,11.1-3.8s11.1,0.4,11.1,3.8
				C253.9,196.9,247.6,197.3,242.8,197.3z"/>
			<path class="st0" d="M242.8,196.3c-6.6,0-9.9-0.9-9.9-2.8c0-1.8,3.3-2.8,9.9-2.8c6.6,0,9.9,0.9,9.9,2.8
				C252.8,195.4,249.4,196.3,242.8,196.3z"/>
			<ellipse class="st14" cx="242.8" cy="193.5" rx="8.4" ry="1.4"/>
			<ellipse class="st3" cx="241" cy="193.5" rx="6.6" ry="1.1"/>
			<path class="st0" d="M231.4,216.4l2.2,3l0.7-0.5l-2.2-3.7l-0.8,0.9C231.4,216,231.3,216.2,231.4,216.4z"/>
			<g>
				<path class="st0" d="M231.4,216c-0.4,0-0.7-0.1-1.1-0.3c-0.4-0.3-0.7-0.7-0.7-1.3v-10.6c0-0.7,0.5-1.4,1.3-1.6l22.9-5.5
					c0.2-0.1,0.3-0.1,0.5-0.1c0.4,0,0.7,0.1,1.1,0.3c0.4,0.3,0.7,0.8,0.7,1.3v11c0,0.7-0.6,1.4-1.3,1.6l-22.9,5.1
					C231.6,216,231.5,216,231.4,216z"/>
				<path class="st0" d="M231.4,214.9c-0.1,0-0.3-0.1-0.4-0.1c-0.2-0.1-0.2-0.3-0.2-0.5v-10.6c0-0.3,0.2-0.5,0.5-0.6l22.9-5.5
					c0.1,0,0.1,0,0.2,0c0.1,0,0.3,0.1,0.4,0.1c0.2,0.1,0.2,0.3,0.2,0.5v11c0,0.3-0.2,0.5-0.5,0.6l-22.9,5.1
					C231.4,214.9,231.4,214.9,231.4,214.9z"/>
				<polygon class="st3" points="232.3,204.3 232.3,213.2 253.3,208.8 253.3,199.5 				"/>
			</g>
		</g>
	</g>
	<g>
		<path class="st0" d="M159,186.1c-1.6,0-2.9-1.3-2.9-2.9v-4.6c0-1.5,1.2-2.8,2.7-2.9V95.9c-1.5-0.1-2.7-1.4-2.7-2.9v-4.6
			c0-1.6,1.3-2.9,2.9-2.9h11.2c1.6,0,2.9,1.3,2.9,2.9V93c0,1.5-1.2,2.8-2.7,2.9v79.8c1.5,0.1,2.7,1.4,2.7,2.9v4.6
			c0,1.6-1.3,2.9-2.9,2.9H159z"/>
		<polygon class="st3" points="170.2,92.9 170.2,88.3 167.6,88.3 161.7,88.3 159,88.3 159,92.9 161.7,92.9 161.7,178.5 159,178.5 
			159,183.1 170.2,183.1 170.2,178.5 167.6,178.5 167.6,92.9 		"/>
	</g>
	<rect x="172" y="90.7" class="st0" width="0.7" height="0.7"/>
	<path class="st14" d="M188.2,150.9c0-0.5,1.2-0.9,2.9-0.9c-0.2,0-0.4,0-0.6,0c-1.9,0-3.5,0.4-3.5,1c0,0.5,1.6,1,3.5,1
		c0.2,0,0.4,0,0.6,0C189.4,151.7,188.2,151.3,188.2,150.9z"/>
	<path class="st14" d="M192.5,150.9c0-0.4-0.9-0.7-2.2-0.7c0.2,0,0.3,0,0.5,0c1.5,0,2.7,0.3,2.7,0.7s-1.2,0.7-2.7,0.7
		c-0.2,0-0.3,0-0.5,0C191.5,151.5,192.5,151.2,192.5,150.9z"/>
	<path class="st14" d="M213.3,150.9c0-0.5,1.2-0.9,2.9-0.9c-0.2,0-0.4,0-0.6,0c-1.9,0-3.5,0.4-3.5,1c0,0.5,1.6,1,3.5,1
		c0.2,0,0.4,0,0.6,0C214.5,151.7,213.3,151.3,213.3,150.9z"/>
	<path class="st14" d="M217.5,150.9c0-0.4-0.9-0.7-2.2-0.7c0.2,0,0.3,0,0.5,0c1.5,0,2.7,0.3,2.7,0.7s-1.2,0.7-2.7,0.7
		c-0.2,0-0.3,0-0.5,0C216.6,151.5,217.5,151.2,217.5,150.9z"/>
	<path class="st14" d="M237.6,150.9c0-0.5,1.2-0.9,2.9-0.9c-0.2,0-0.4,0-0.6,0c-1.9,0-3.5,0.4-3.5,1c0,0.5,1.6,1,3.5,1
		c0.2,0,0.4,0,0.6,0C238.8,151.7,237.6,151.3,237.6,150.9z"/>
	<path class="st14" d="M241.9,150.9c0-0.4-0.9-0.7-2.2-0.7c0.2,0,0.3,0,0.5,0c1.5,0,2.7,0.3,2.7,0.7s-1.2,0.7-2.7,0.7
		c-0.2,0-0.3,0-0.5,0C240.9,151.5,241.9,151.2,241.9,150.9z"/>
	<path class="st14" d="M188.2,193.7c0-0.5,1.2-0.9,2.9-0.9c-0.2,0-0.4,0-0.6,0c-1.9,0-3.5,0.4-3.5,1c0,0.5,1.6,1,3.5,1
		c0.2,0,0.4,0,0.6,0C189.4,194.6,188.2,194.2,188.2,193.7z"/>
	<path class="st14" d="M192.5,193.7c0-0.4-0.9-0.7-2.2-0.7c0.2,0,0.3,0,0.5,0c1.5,0,2.7,0.3,2.7,0.7s-1.2,0.7-2.7,0.7
		c-0.2,0-0.3,0-0.5,0C191.5,194.4,192.5,194.1,192.5,193.7z"/>
	<path class="st14" d="M213.3,193.7c0-0.5,1.2-0.9,2.9-0.9c-0.2,0-0.4,0-0.6,0c-1.9,0-3.5,0.4-3.5,1c0,0.5,1.6,1,3.5,1
		c0.2,0,0.4,0,0.6,0C214.5,194.6,213.3,194.2,213.3,193.7z"/>
	<path class="st14" d="M217.5,193.7c0-0.4-0.9-0.7-2.2-0.7c0.2,0,0.3,0,0.5,0c1.5,0,2.7,0.3,2.7,0.7s-1.2,0.7-2.7,0.7
		c-0.2,0-0.3,0-0.5,0C216.6,194.4,217.5,194.1,217.5,193.7z"/>
	<path class="st14" d="M237.6,193.7c0-0.5,1.2-0.9,2.9-0.9c-0.2,0-0.4,0-0.6,0c-1.9,0-3.5,0.4-3.5,1c0,0.5,1.6,1,3.5,1
		c0.2,0,0.4,0,0.6,0C238.8,194.6,237.6,194.2,237.6,193.7z"/>
	<path class="st14" d="M241.9,193.7c0-0.4-0.9-0.7-2.2-0.7c0.2,0,0.3,0,0.5,0c1.5,0,2.7,0.3,2.7,0.7s-1.2,0.7-2.7,0.7
		c-0.2,0-0.3,0-0.5,0C240.9,194.4,241.9,194.1,241.9,193.7z"/>
	<rect x="129.7" y="254.8" class="st0" width="9.7" height="6"/>
	<polygon class="st15" points="109.2,149.9 107,151.9 94.4,140.3 96.6,138.3 	"/>
	<path class="st15" d="M111.1,145.2l-9.4-8.7c0,0-0.1-0.1-0.2-0.1s-0.1,0-0.2,0.1l-1.6,1.5c0,0-0.1,0.1-0.1,0.2s0,0.1,0.1,0.2
		l9.4,8.7c0.1,0,0.1,0.1,0.2,0.1s0.1,0,0.2-0.1l1.6-1.5c0,0,0.1-0.1,0.1-0.2C111.1,145.3,111.1,145.3,111.1,145.2z"/>
	<path class="st15" d="M112.3,140.7l-5.7-5.3c-0.1-0.1-0.3-0.2-0.5-0.2s-0.4,0.1-0.5,0.2l-1,0.9c-0.1,0.1-0.2,0.3-0.2,0.4
		c0,0.2,0.1,0.3,0.2,0.4l5.7,5.3c0.1,0.1,0.3,0.2,0.5,0.2s0.4-0.1,0.5-0.2l1-0.9c0.1-0.1,0.2-0.3,0.2-0.4S112.4,140.8,112.3,140.7z"
		/>
	<ellipse class="st16" cx="213.9" cy="28.1" rx="32.5" ry="2.4"/>
	<ellipse class="st16" cx="88.4" cy="25.9" rx="25.5" ry="1.5"/>
	<polygon class="st15" points="247.4,78.5 242,83.5 211.3,55.2 216.6,50.2 	"/>
	<path class="st15" d="M252.1,67.1l-23-21.2c-0.1-0.1-0.3-0.1-0.4-0.1c-0.1,0-0.3,0-0.4,0.1l-4,3.7c-0.1,0.1-0.2,0.2-0.2,0.4
		s0,0.3,0.2,0.4l23,21.2c0.1,0.1,0.3,0.1,0.4,0.1c0.1,0,0.3,0,0.4-0.1l4-3.7c0.1-0.1,0.2-0.2,0.2-0.4
		C252.2,67.3,252.2,67.2,252.1,67.1z"/>
	<path class="st15" d="M255,56l-14-12.9c-0.3-0.3-0.7-0.4-1.1-0.4c-0.4,0-0.9,0.1-1.1,0.4l-2.4,2.2c-0.3,0.3-0.5,0.7-0.5,1.1
		c0,0.4,0.2,0.8,0.5,1.1l14,12.9c0.3,0.3,0.7,0.4,1.1,0.4s0.9-0.1,1.1-0.4l2.4-2.2c0.3-0.3,0.5-0.7,0.5-1.1
		C255.5,56.7,255.4,56.3,255,56z"/>
	<rect x="184" y="49.2" class="st15" width="6.6" height="147.8"/>
</g>
</svg>
